M48
;Layer_Color=9474304
;FILE_FORMAT=2:5
INCH,LZ
;TYPE=PLATED
T1F00S00C0.00787
T2F00S00C0.01181
T3F00S00C0.01968
T5F00S00C0.02756
T6F00S00C0.03543
T7F00S00C0.05906
;TYPE=NON_PLATED
T8F00S00C0.02756
%
T01
X0188779Y-0159252
X0192717
X0196653
Y-0155315
Y-0151378
Y-0147441
X0192717
X0188779
Y-0151378
X0192717
Y-0155315
X0188779
T02
X0005512Y-0230512
X0017196
X002888
X0040564
X0052248
X0063932
X0075616
X00873
X0084055Y-0201969
X0076772Y-0206299
X0067716Y-0210039
Y-0192864
X0076772Y-0189075
X0084055Y-0183465
Y-0164764
X0076772Y-017185
X0067716Y-0175689
Y-0158514
X0076772Y-0154626
X0084449Y-0147244
X0088386Y-0145669
X0076772Y-0137795
X0067716Y-0141339
X009941Y-0141142
X0102756Y-0144095
X0118551Y-0144095
X0127362Y-0145276
Y-0131299
X0133268Y-0118799
X0102756Y-0125197
X009941Y-0160039
X0102756Y-0163976
X0118551Y-0162992
X0127362Y-016437
Y-0182874
X0118551Y-0182165
X0102362Y-018248
X009941Y-0179134
X0099606Y-0198228
X0102559Y-0201181
X0100787Y-0211417
X0112795Y-0216779
X0110668Y-0230512
X0098984
X0122352
X0134036
X014572
X0157404
X0169088
X0180772
X0192456
X020414
X0215824
X0227508
X0239192
X0250876
X0237008Y-0193688
Y-0186614
Y-0179528
X0240551Y-0168405
X0249803Y-0161122
X0245669Y-0144095
X0239567Y-0130315
X0225Y-013563
X0218307Y-0132087
X0213189Y-0132086
X0213386Y-014311
X021437Y-0152165
X0220472Y-0147441
X0223228Y-0161024
X0203937Y-0155709
X0199409Y-0133465
X0193504Y-0133465
X0189567Y-0118307
X020795Y-0118701
X0173031Y-0132087
X0168701
X0161221Y-0142126
X0161811Y-0145866
X0170472Y-0148031
X0166535Y-0154528
X0173622Y-0155905
X0173425Y-0160846
X0170276Y-0166732
X0165157
X0148819Y-0172244
Y-0145472
X015315Y-0142323
X0180905Y-0145866
X0190748Y-0175
Y-0180118
X0191535Y-0191929
X0203543Y-0196063
X0153544Y-020766
X0148544
X0143544
X0138544
X0127362Y-0207087
X0118551Y-0201181
X0251772Y-0194291
X0254331Y-0181693
X0251772Y-0176181
X0252756Y-0172638
X0265945Y-0176969
X0259449Y-0184843
X0264862Y-0206594
X0268307Y-0206398
X0262402Y-0212205
X0254134Y-0216535
X026256Y-0230512
X0274244
X0285928
X0297612
X0309296
X032098
X0332664
X0344348
X0356032
X0367716
X0342815Y-0207283
X0333661Y-0189764
X0342618Y-0177559
X032874Y-0156791
X0316929Y-0157087
X0311811Y-0169882
X0301378Y-0152559
X0295472Y-0158464
X0292126Y-0155512
X0292323Y-014252
X0303248Y-0123327
X0317717Y-0121752
X0258465Y-0140551
X026181Y-0149606
X0265354Y-0148819
X0285039Y-0189764
X027874Y-019685
X0280118Y-0205512
Y-0208465
X0289764Y-0204724
X0300197Y-0206299
X0311024Y-0206102
X0299803Y-0109449
X0303248Y-0100197
X0306931Y-0093545
X0292717Y-0086024
X0292421Y-0080118
X0286614Y-0082677
X0288189Y-0088779
X0276575Y-008248
X0264764
X0264567Y-0077165
X0264469Y-0068209
X0272933Y-0064862
X0256496Y-0058071
X0251575Y-0073819
Y-0078347
X0256319Y-0108681
X0258661Y-0112992
X0252067Y-011437
X0281496Y-0112106
X0264961Y-0045571
X026256Y-0005709
X0274244
X0285928
X0297612
X0309296
X032098
X0332664
X0344348
X0356032
X0367716
X0328839Y-0017913
X0323441Y-0017914
X0329921Y-0068405
X0250394Y-0050394
X0249213Y-004685
X0245472Y-0034055
X0216339Y-003563
X0212008
X0196654
X0192323
X0168701
X0168701Y-002126
X0162303Y-0021161
X0175197Y-002126
X0180772Y-0005709
X0192456
X020414
X0215824
X0227508
X0239192
X0250876
X0169088
X0157404
X014572
X0134036
X0122352
X0110668
X0098984
X0118898Y-0022
Y-0044195
X0132283Y-0037598
X014065Y-0035925
X015315Y-0047736
X0152362Y-0072441
X0148425Y-0074803
X0142913Y-0077362
X0154134Y-0077756
Y-0082087
X014311Y-0092913
X0138701Y-0105069
X0138976Y-0113287
X0126181Y-0114764
X0118898Y-011078
Y-0088585
X0122441Y-0087598
X0118898Y-006639
X0134646Y-0067224
X0136364Y-0056762
X0177559Y-0065158
X0186614Y-0067126
X0190551Y-007126
X0202756Y-0076378
X0207283Y-0075984
X0222441Y-0078347
X0225984Y-0082677
X0236221Y-0075197
X0217126Y-006752
X0198228Y-0054134
X0198622Y-0098819
X0194291Y-0104528
X0207874Y-0115157
X0211417Y-0113976
X0215748Y-0114173
X0250591Y-0099803
Y-0095472
X0153347Y-010374
Y-0107677
X0154134Y-0111614
X0153937Y-0116339
X00873Y-0005709
X0075616
X0063932
X0052248
X0040564
X002888
X0017196
X0005512
T03
X0043701Y-0119095
X004685Y-012185
X0047638Y-0113386
X0046457Y-0109843
X0046949Y-0098917
X0043701Y-009626
X0044882Y-0087303
X0048819
X0045276Y-0076575
X0042323Y-0073819
X0043701Y-0063779
X0047638
X004685Y-0054134
X0042913
X0043504Y-0044094
X0047441
X0047835Y-0030512
X0043898
Y-0020669
X0047835
T05
X0297244Y-0217717
T06
X0257953Y-0130512
X0267953
X0277953
X0287953
X0297953
X0226969Y-0021654
X0216968
X0206968
X0196968
X0186969
T07
X0019685Y-0193898
X0029528
Y-0180118
X0019685
Y-0166339
X0029528
Y-0152559
X0019685
Y-0138779
X0029528
Y-0125
X0019685
X034498Y-0120472
X0354823
Y-0134252
X034498
Y-0106693
X0354823
Y-0092913
X034498
Y-0079134
X0354823
Y-0065354
X034498
Y-0051575
X0354823
Y-0037795
X034498
X0029528Y-0042323
X0019685
Y-0056102
X0029528
Y-0069882
X0019685
Y-0083661
X0029528
Y-0097441
X0019685Y-0097441
Y-0111221
X0029528
T08
X0353543Y-0203405
Y-018065
M30
