G04*
G04 #@! TF.GenerationSoftware,Altium Limited,Altium Designer,21.8.1 (53)*
G04*
G04 Layer_Color=8388736*
%FSLAX25Y25*%
%MOIN*%
G70*
G04*
G04 #@! TF.SameCoordinates,D7649F9F-AB44-4DDD-A0E2-BCBC4CF329E9*
G04*
G04*
G04 #@! TF.FilePolarity,Negative*
G04*
G01*
G75*
%ADD53R,0.01200X0.04575*%
%ADD56R,0.04921X0.02559*%
%ADD64R,0.09449X0.10315*%
G04:AMPARAMS|DCode=65|XSize=71.26mil|YSize=52.36mil|CornerRadius=8.02mil|HoleSize=0mil|Usage=FLASHONLY|Rotation=270.000|XOffset=0mil|YOffset=0mil|HoleType=Round|Shape=RoundedRectangle|*
%AMROUNDEDRECTD65*
21,1,0.07126,0.03632,0,0,270.0*
21,1,0.05522,0.05236,0,0,270.0*
1,1,0.01604,-0.01816,-0.02761*
1,1,0.01604,-0.01816,0.02761*
1,1,0.01604,0.01816,0.02761*
1,1,0.01604,0.01816,-0.02761*
%
%ADD65ROUNDEDRECTD65*%
%ADD66R,0.03543X0.03543*%
%ADD67R,0.03543X0.03543*%
%ADD68R,0.02756X0.03937*%
%ADD69R,0.03937X0.02756*%
%ADD70O,0.01378X0.06496*%
%ADD71O,0.06496X0.01378*%
%ADD72R,0.04921X0.07480*%
%ADD73O,0.09055X0.02756*%
%ADD74R,0.05512X0.13780*%
%ADD75R,0.06102X0.02756*%
%ADD76R,0.06102X0.01575*%
G04:AMPARAMS|DCode=77|XSize=51.58mil|YSize=27.17mil|CornerRadius=4.87mil|HoleSize=0mil|Usage=FLASHONLY|Rotation=0.000|XOffset=0mil|YOffset=0mil|HoleType=Round|Shape=RoundedRectangle|*
%AMROUNDEDRECTD77*
21,1,0.05158,0.01742,0,0,0.0*
21,1,0.04183,0.02717,0,0,0.0*
1,1,0.00974,0.02092,-0.00871*
1,1,0.00974,-0.02092,-0.00871*
1,1,0.00974,-0.02092,0.00871*
1,1,0.00974,0.02092,0.00871*
%
%ADD77ROUNDEDRECTD77*%
%ADD78R,0.09882X0.09724*%
%ADD79R,0.06299X0.11024*%
%ADD80R,0.04921X0.03937*%
%ADD81R,0.11024X0.06299*%
%ADD82R,0.03150X0.09843*%
%ADD83R,0.07480X0.04331*%
%ADD84R,0.03394X0.03394*%
%ADD85O,0.08661X0.01575*%
%ADD86R,0.07480X0.04921*%
%ADD87R,0.06693X0.03543*%
G04:AMPARAMS|DCode=88|XSize=224.53mil|YSize=92.65mil|CornerRadius=25.16mil|HoleSize=0mil|Usage=FLASHONLY|Rotation=180.000|XOffset=0mil|YOffset=0mil|HoleType=Round|Shape=RoundedRectangle|*
%AMROUNDEDRECTD88*
21,1,0.22453,0.04232,0,0,180.0*
21,1,0.17421,0.09265,0,0,180.0*
1,1,0.05032,-0.08711,0.02116*
1,1,0.05032,0.08711,0.02116*
1,1,0.05032,0.08711,-0.02116*
1,1,0.05032,-0.08711,-0.02116*
%
%ADD88ROUNDEDRECTD88*%
%ADD89R,0.05315X0.08268*%
%ADD90O,0.03150X0.10236*%
%ADD91O,0.01575X0.08661*%
%ADD92O,0.10236X0.03150*%
G04:AMPARAMS|DCode=93|XSize=45.67mil|YSize=29.53mil|CornerRadius=8.37mil|HoleSize=0mil|Usage=FLASHONLY|Rotation=0.000|XOffset=0mil|YOffset=0mil|HoleType=Round|Shape=RoundedRectangle|*
%AMROUNDEDRECTD93*
21,1,0.04567,0.01280,0,0,0.0*
21,1,0.02894,0.02953,0,0,0.0*
1,1,0.01673,0.01447,-0.00640*
1,1,0.01673,-0.01447,-0.00640*
1,1,0.01673,-0.01447,0.00640*
1,1,0.01673,0.01447,0.00640*
%
%ADD93ROUNDEDRECTD93*%
%ADD94R,0.03394X0.03394*%
%ADD95R,0.04370X0.03248*%
%ADD96R,0.04331X0.03209*%
%ADD97R,0.03465X0.04331*%
%ADD98R,0.03543X0.04331*%
%ADD99R,0.04331X0.03248*%
%ADD100R,0.05315X0.02953*%
%ADD101R,0.08394X0.02994*%
%ADD102R,0.03937X0.01968*%
%ADD103R,0.13780X0.17323*%
%ADD104O,0.08661X0.04528*%
%ADD105C,0.03150*%
%ADD106C,0.07874*%
%ADD107R,0.06299X0.06299*%
%ADD108C,0.06299*%
%ADD109C,0.08268*%
%ADD110C,0.02362*%
G36*
X66968Y-123231D02*
X67005Y-123242D01*
X67039Y-123261D01*
X67069Y-123285D01*
X67094Y-123315D01*
X67112Y-123349D01*
X67123Y-123387D01*
X67127Y-123425D01*
Y-131693D01*
Y-133268D01*
X67123Y-133306D01*
X67112Y-133343D01*
X67094Y-133378D01*
X67069Y-133408D01*
X67039Y-133432D01*
X67005Y-133450D01*
X66968Y-133462D01*
X66929Y-133466D01*
X63779D01*
X63741Y-133462D01*
X63704Y-133450D01*
X63670Y-133432D01*
X63640Y-133408D01*
X63615Y-133378D01*
X63597Y-133343D01*
X63586Y-133306D01*
X63582Y-133268D01*
Y-131891D01*
X57580D01*
Y-133268D01*
X57576Y-133306D01*
X57565Y-133343D01*
X57546Y-133378D01*
X57522Y-133408D01*
X57492Y-133432D01*
X57458Y-133450D01*
X57420Y-133462D01*
X57382Y-133466D01*
X54134D01*
X54095Y-133462D01*
X54058Y-133450D01*
X54024Y-133432D01*
X53994Y-133408D01*
X53969Y-133378D01*
X53951Y-133343D01*
X53940Y-133306D01*
X53936Y-133268D01*
Y-131891D01*
X50197D01*
X50158Y-131887D01*
X50121Y-131876D01*
X50087Y-131857D01*
X50057Y-131833D01*
X50032Y-131803D01*
X50014Y-131769D01*
X50003Y-131731D01*
X49999Y-131693D01*
Y-128839D01*
X50003Y-128800D01*
X50014Y-128763D01*
X50032Y-128729D01*
X50057Y-128699D01*
X50087Y-128674D01*
X50121Y-128656D01*
X50158Y-128645D01*
X50197Y-128641D01*
X52164D01*
Y-126576D01*
X50197D01*
X50158Y-126572D01*
X50121Y-126561D01*
X50087Y-126542D01*
X50057Y-126518D01*
X50032Y-126488D01*
X50014Y-126454D01*
X50003Y-126417D01*
X49999Y-126378D01*
Y-123425D01*
X50003Y-123387D01*
X50014Y-123349D01*
X50032Y-123315D01*
X50057Y-123285D01*
X50087Y-123261D01*
X50121Y-123242D01*
X50158Y-123231D01*
X50197Y-123227D01*
X66929D01*
X66968Y-123231D01*
D02*
G37*
G36*
Y-111814D02*
X67005Y-111825D01*
X67039Y-111843D01*
X67069Y-111868D01*
X67094Y-111898D01*
X67112Y-111932D01*
X67123Y-111969D01*
X67127Y-112008D01*
Y-113583D01*
Y-121850D01*
X67123Y-121889D01*
X67112Y-121926D01*
X67094Y-121960D01*
X67069Y-121990D01*
X67039Y-122015D01*
X67005Y-122033D01*
X66968Y-122044D01*
X66929Y-122048D01*
X50197D01*
X50158Y-122044D01*
X50121Y-122033D01*
X50087Y-122015D01*
X50057Y-121990D01*
X50032Y-121960D01*
X50014Y-121926D01*
X50003Y-121889D01*
X49999Y-121850D01*
Y-118898D01*
X50003Y-118859D01*
X50014Y-118822D01*
X50032Y-118788D01*
X50057Y-118758D01*
X50087Y-118733D01*
X50121Y-118715D01*
X50158Y-118704D01*
X50197Y-118700D01*
X52164D01*
Y-116635D01*
X50197D01*
X50158Y-116631D01*
X50121Y-116620D01*
X50087Y-116602D01*
X50057Y-116577D01*
X50032Y-116547D01*
X50014Y-116513D01*
X50003Y-116476D01*
X49999Y-116437D01*
Y-113583D01*
X50003Y-113544D01*
X50014Y-113507D01*
X50032Y-113473D01*
X50057Y-113443D01*
X50087Y-113418D01*
X50121Y-113400D01*
X50158Y-113389D01*
X50197Y-113385D01*
X53936D01*
Y-112008D01*
X53940Y-111969D01*
X53951Y-111932D01*
X53969Y-111898D01*
X53994Y-111868D01*
X54024Y-111843D01*
X54058Y-111825D01*
X54095Y-111814D01*
X54134Y-111810D01*
X57382D01*
X57420Y-111814D01*
X57458Y-111825D01*
X57492Y-111843D01*
X57522Y-111868D01*
X57546Y-111898D01*
X57565Y-111932D01*
X57576Y-111969D01*
X57580Y-112008D01*
Y-113385D01*
X63582D01*
Y-112008D01*
X63586Y-111969D01*
X63597Y-111932D01*
X63615Y-111898D01*
X63640Y-111868D01*
X63670Y-111843D01*
X63704Y-111825D01*
X63741Y-111814D01*
X63779Y-111810D01*
X66929D01*
X66968Y-111814D01*
D02*
G37*
G36*
X67165Y-99412D02*
X67202Y-99424D01*
X67236Y-99442D01*
X67266Y-99466D01*
X67290Y-99496D01*
X67309Y-99531D01*
X67320Y-99568D01*
X67324Y-99606D01*
Y-107874D01*
Y-109449D01*
X67320Y-109487D01*
X67309Y-109525D01*
X67290Y-109559D01*
X67266Y-109589D01*
X67236Y-109613D01*
X67202Y-109632D01*
X67165Y-109643D01*
X67126Y-109647D01*
X63976D01*
X63938Y-109643D01*
X63901Y-109632D01*
X63867Y-109613D01*
X63836Y-109589D01*
X63812Y-109559D01*
X63794Y-109525D01*
X63782Y-109487D01*
X63779Y-109449D01*
Y-108072D01*
X57776D01*
Y-109449D01*
X57773Y-109487D01*
X57762Y-109525D01*
X57743Y-109559D01*
X57719Y-109589D01*
X57689Y-109613D01*
X57654Y-109632D01*
X57617Y-109643D01*
X57579Y-109647D01*
X54331D01*
X54292Y-109643D01*
X54255Y-109632D01*
X54221Y-109613D01*
X54191Y-109589D01*
X54166Y-109559D01*
X54148Y-109525D01*
X54137Y-109487D01*
X54133Y-109449D01*
Y-108072D01*
X50394D01*
X50355Y-108068D01*
X50318Y-108057D01*
X50284Y-108038D01*
X50254Y-108014D01*
X50229Y-107984D01*
X50211Y-107950D01*
X50200Y-107913D01*
X50196Y-107874D01*
Y-105020D01*
X50200Y-104981D01*
X50211Y-104944D01*
X50229Y-104910D01*
X50254Y-104880D01*
X50284Y-104855D01*
X50318Y-104837D01*
X50355Y-104826D01*
X50394Y-104822D01*
X52361D01*
Y-102757D01*
X50394D01*
X50355Y-102753D01*
X50318Y-102742D01*
X50284Y-102724D01*
X50254Y-102699D01*
X50229Y-102669D01*
X50211Y-102635D01*
X50200Y-102598D01*
X50196Y-102559D01*
Y-99606D01*
X50200Y-99568D01*
X50211Y-99531D01*
X50229Y-99496D01*
X50254Y-99466D01*
X50284Y-99442D01*
X50318Y-99424D01*
X50355Y-99412D01*
X50394Y-99409D01*
X67126D01*
X67165Y-99412D01*
D02*
G37*
G36*
Y-87995D02*
X67202Y-88006D01*
X67236Y-88024D01*
X67266Y-88049D01*
X67290Y-88079D01*
X67309Y-88113D01*
X67320Y-88150D01*
X67324Y-88189D01*
Y-89764D01*
Y-98032D01*
X67320Y-98070D01*
X67309Y-98107D01*
X67290Y-98141D01*
X67266Y-98171D01*
X67236Y-98196D01*
X67202Y-98214D01*
X67165Y-98225D01*
X67126Y-98229D01*
X50394D01*
X50355Y-98225D01*
X50318Y-98214D01*
X50284Y-98196D01*
X50254Y-98171D01*
X50229Y-98141D01*
X50211Y-98107D01*
X50200Y-98070D01*
X50196Y-98032D01*
Y-95079D01*
X50200Y-95040D01*
X50211Y-95003D01*
X50229Y-94969D01*
X50254Y-94939D01*
X50284Y-94914D01*
X50318Y-94896D01*
X50355Y-94885D01*
X50394Y-94881D01*
X52361D01*
Y-92816D01*
X50394D01*
X50355Y-92812D01*
X50318Y-92801D01*
X50284Y-92783D01*
X50254Y-92758D01*
X50229Y-92728D01*
X50211Y-92694D01*
X50200Y-92657D01*
X50196Y-92618D01*
Y-89764D01*
X50200Y-89725D01*
X50211Y-89688D01*
X50229Y-89654D01*
X50254Y-89624D01*
X50284Y-89599D01*
X50318Y-89581D01*
X50355Y-89570D01*
X50394Y-89566D01*
X54133D01*
Y-88189D01*
X54137Y-88150D01*
X54148Y-88113D01*
X54166Y-88079D01*
X54191Y-88049D01*
X54221Y-88024D01*
X54255Y-88006D01*
X54292Y-87995D01*
X54331Y-87991D01*
X57579D01*
X57617Y-87995D01*
X57654Y-88006D01*
X57689Y-88024D01*
X57719Y-88049D01*
X57743Y-88079D01*
X57762Y-88113D01*
X57773Y-88150D01*
X57776Y-88189D01*
Y-89566D01*
X63779D01*
Y-88189D01*
X63782Y-88150D01*
X63794Y-88113D01*
X63812Y-88079D01*
X63836Y-88049D01*
X63867Y-88024D01*
X63901Y-88006D01*
X63938Y-87995D01*
X63976Y-87991D01*
X67126D01*
X67165Y-87995D01*
D02*
G37*
G36*
Y-75593D02*
X67202Y-75605D01*
X67236Y-75623D01*
X67266Y-75647D01*
X67290Y-75678D01*
X67309Y-75712D01*
X67320Y-75749D01*
X67324Y-75787D01*
Y-84055D01*
Y-85630D01*
X67320Y-85668D01*
X67309Y-85706D01*
X67290Y-85740D01*
X67266Y-85770D01*
X67236Y-85794D01*
X67202Y-85813D01*
X67165Y-85824D01*
X67126Y-85828D01*
X63976D01*
X63938Y-85824D01*
X63901Y-85813D01*
X63867Y-85794D01*
X63836Y-85770D01*
X63812Y-85740D01*
X63794Y-85706D01*
X63782Y-85668D01*
X63779Y-85630D01*
Y-84253D01*
X57776D01*
Y-85630D01*
X57773Y-85668D01*
X57762Y-85706D01*
X57743Y-85740D01*
X57719Y-85770D01*
X57689Y-85794D01*
X57654Y-85813D01*
X57617Y-85824D01*
X57579Y-85828D01*
X54331D01*
X54292Y-85824D01*
X54255Y-85813D01*
X54221Y-85794D01*
X54191Y-85770D01*
X54166Y-85740D01*
X54148Y-85706D01*
X54137Y-85668D01*
X54133Y-85630D01*
Y-84253D01*
X50394D01*
X50355Y-84249D01*
X50318Y-84238D01*
X50284Y-84220D01*
X50254Y-84195D01*
X50229Y-84165D01*
X50211Y-84131D01*
X50200Y-84094D01*
X50196Y-84055D01*
Y-81201D01*
X50200Y-81162D01*
X50211Y-81125D01*
X50229Y-81091D01*
X50254Y-81061D01*
X50284Y-81036D01*
X50318Y-81018D01*
X50355Y-81007D01*
X50394Y-81003D01*
X52361D01*
Y-78938D01*
X50394D01*
X50355Y-78934D01*
X50318Y-78923D01*
X50284Y-78905D01*
X50254Y-78880D01*
X50229Y-78850D01*
X50211Y-78816D01*
X50200Y-78779D01*
X50196Y-78740D01*
Y-75787D01*
X50200Y-75749D01*
X50211Y-75712D01*
X50229Y-75678D01*
X50254Y-75647D01*
X50284Y-75623D01*
X50318Y-75605D01*
X50355Y-75593D01*
X50394Y-75590D01*
X67126D01*
X67165Y-75593D01*
D02*
G37*
G36*
Y-64176D02*
X67202Y-64187D01*
X67236Y-64206D01*
X67266Y-64230D01*
X67290Y-64260D01*
X67309Y-64294D01*
X67320Y-64332D01*
X67324Y-64370D01*
Y-65945D01*
Y-74213D01*
X67320Y-74251D01*
X67309Y-74288D01*
X67290Y-74322D01*
X67266Y-74353D01*
X67236Y-74377D01*
X67202Y-74395D01*
X67165Y-74407D01*
X67126Y-74410D01*
X50394D01*
X50355Y-74407D01*
X50318Y-74395D01*
X50284Y-74377D01*
X50254Y-74353D01*
X50229Y-74322D01*
X50211Y-74288D01*
X50200Y-74251D01*
X50196Y-74213D01*
Y-71260D01*
X50200Y-71221D01*
X50211Y-71184D01*
X50229Y-71150D01*
X50254Y-71120D01*
X50284Y-71095D01*
X50318Y-71077D01*
X50355Y-71066D01*
X50394Y-71062D01*
X52361D01*
Y-68997D01*
X50394D01*
X50355Y-68993D01*
X50318Y-68982D01*
X50284Y-68964D01*
X50254Y-68939D01*
X50229Y-68909D01*
X50211Y-68875D01*
X50200Y-68838D01*
X50196Y-68799D01*
Y-65945D01*
X50200Y-65906D01*
X50211Y-65869D01*
X50229Y-65835D01*
X50254Y-65805D01*
X50284Y-65780D01*
X50318Y-65762D01*
X50355Y-65751D01*
X50394Y-65747D01*
X54133D01*
Y-64370D01*
X54137Y-64332D01*
X54148Y-64294D01*
X54166Y-64260D01*
X54191Y-64230D01*
X54221Y-64206D01*
X54255Y-64187D01*
X54292Y-64176D01*
X54331Y-64172D01*
X57579D01*
X57617Y-64176D01*
X57654Y-64187D01*
X57689Y-64206D01*
X57719Y-64230D01*
X57743Y-64260D01*
X57762Y-64294D01*
X57773Y-64332D01*
X57776Y-64370D01*
Y-65747D01*
X63779D01*
Y-64370D01*
X63782Y-64332D01*
X63794Y-64294D01*
X63812Y-64260D01*
X63836Y-64230D01*
X63867Y-64206D01*
X63901Y-64187D01*
X63938Y-64176D01*
X63976Y-64172D01*
X67126D01*
X67165Y-64176D01*
D02*
G37*
G36*
Y-51971D02*
X67202Y-51983D01*
X67236Y-52001D01*
X67266Y-52026D01*
X67290Y-52056D01*
X67309Y-52090D01*
X67320Y-52127D01*
X67324Y-52165D01*
Y-60433D01*
Y-62008D01*
X67320Y-62046D01*
X67309Y-62084D01*
X67290Y-62118D01*
X67266Y-62148D01*
X67236Y-62172D01*
X67202Y-62191D01*
X67165Y-62202D01*
X67126Y-62206D01*
X63976D01*
X63938Y-62202D01*
X63901Y-62191D01*
X63867Y-62172D01*
X63836Y-62148D01*
X63812Y-62118D01*
X63794Y-62084D01*
X63782Y-62046D01*
X63779Y-62008D01*
Y-60631D01*
X57776D01*
Y-62008D01*
X57773Y-62046D01*
X57762Y-62084D01*
X57743Y-62118D01*
X57719Y-62148D01*
X57689Y-62172D01*
X57654Y-62191D01*
X57617Y-62202D01*
X57579Y-62206D01*
X54331D01*
X54292Y-62202D01*
X54255Y-62191D01*
X54221Y-62172D01*
X54191Y-62148D01*
X54166Y-62118D01*
X54148Y-62084D01*
X54137Y-62046D01*
X54133Y-62008D01*
Y-60631D01*
X50394D01*
X50355Y-60627D01*
X50318Y-60616D01*
X50284Y-60597D01*
X50254Y-60573D01*
X50229Y-60543D01*
X50211Y-60509D01*
X50200Y-60472D01*
X50196Y-60433D01*
Y-57579D01*
X50200Y-57540D01*
X50211Y-57503D01*
X50229Y-57469D01*
X50254Y-57439D01*
X50284Y-57414D01*
X50318Y-57396D01*
X50355Y-57385D01*
X50394Y-57381D01*
X52361D01*
Y-55316D01*
X50394D01*
X50355Y-55312D01*
X50318Y-55301D01*
X50284Y-55283D01*
X50254Y-55258D01*
X50229Y-55228D01*
X50211Y-55194D01*
X50200Y-55157D01*
X50196Y-55118D01*
Y-52165D01*
X50200Y-52127D01*
X50211Y-52090D01*
X50229Y-52056D01*
X50254Y-52026D01*
X50284Y-52001D01*
X50318Y-51983D01*
X50355Y-51971D01*
X50394Y-51968D01*
X67126D01*
X67165Y-51971D01*
D02*
G37*
G36*
Y-40554D02*
X67202Y-40565D01*
X67236Y-40584D01*
X67266Y-40608D01*
X67290Y-40638D01*
X67309Y-40672D01*
X67320Y-40709D01*
X67324Y-40748D01*
Y-42323D01*
Y-50591D01*
X67320Y-50629D01*
X67309Y-50666D01*
X67290Y-50700D01*
X67266Y-50730D01*
X67236Y-50755D01*
X67202Y-50773D01*
X67165Y-50785D01*
X67126Y-50788D01*
X50394D01*
X50355Y-50785D01*
X50318Y-50773D01*
X50284Y-50755D01*
X50254Y-50730D01*
X50229Y-50700D01*
X50211Y-50666D01*
X50200Y-50629D01*
X50196Y-50591D01*
Y-47638D01*
X50200Y-47599D01*
X50211Y-47562D01*
X50229Y-47528D01*
X50254Y-47498D01*
X50284Y-47473D01*
X50318Y-47455D01*
X50355Y-47444D01*
X50394Y-47440D01*
X52361D01*
Y-45375D01*
X50394D01*
X50355Y-45371D01*
X50318Y-45360D01*
X50284Y-45342D01*
X50254Y-45317D01*
X50229Y-45287D01*
X50211Y-45253D01*
X50200Y-45216D01*
X50196Y-45177D01*
Y-42323D01*
X50200Y-42284D01*
X50211Y-42247D01*
X50229Y-42213D01*
X50254Y-42183D01*
X50284Y-42158D01*
X50318Y-42140D01*
X50355Y-42129D01*
X50394Y-42125D01*
X54133D01*
Y-40748D01*
X54137Y-40709D01*
X54148Y-40672D01*
X54166Y-40638D01*
X54191Y-40608D01*
X54221Y-40584D01*
X54255Y-40565D01*
X54292Y-40554D01*
X54331Y-40550D01*
X57579D01*
X57617Y-40554D01*
X57654Y-40565D01*
X57689Y-40584D01*
X57719Y-40608D01*
X57743Y-40638D01*
X57762Y-40672D01*
X57773Y-40709D01*
X57776Y-40748D01*
Y-42125D01*
X63779D01*
Y-40748D01*
X63782Y-40709D01*
X63794Y-40672D01*
X63812Y-40638D01*
X63836Y-40608D01*
X63867Y-40584D01*
X63901Y-40565D01*
X63938Y-40554D01*
X63976Y-40550D01*
X67126D01*
X67165Y-40554D01*
D02*
G37*
G36*
X67066Y-28330D02*
X67103Y-28341D01*
X67137Y-28359D01*
X67167Y-28384D01*
X67192Y-28414D01*
X67210Y-28448D01*
X67222Y-28485D01*
X67225Y-28524D01*
Y-36791D01*
Y-38366D01*
X67222Y-38405D01*
X67210Y-38442D01*
X67192Y-38476D01*
X67167Y-38506D01*
X67137Y-38531D01*
X67103Y-38549D01*
X67066Y-38560D01*
X67028Y-38564D01*
X63878D01*
X63839Y-38560D01*
X63802Y-38549D01*
X63768Y-38531D01*
X63738Y-38506D01*
X63714Y-38476D01*
X63695Y-38442D01*
X63684Y-38405D01*
X63680Y-38366D01*
Y-36989D01*
X57678D01*
Y-38366D01*
X57674Y-38405D01*
X57663Y-38442D01*
X57645Y-38476D01*
X57620Y-38506D01*
X57590Y-38531D01*
X57556Y-38549D01*
X57519Y-38560D01*
X57480Y-38564D01*
X54232D01*
X54194Y-38560D01*
X54157Y-38549D01*
X54122Y-38531D01*
X54092Y-38506D01*
X54068Y-38476D01*
X54050Y-38442D01*
X54038Y-38405D01*
X54035Y-38366D01*
Y-36989D01*
X50295D01*
X50257Y-36985D01*
X50220Y-36974D01*
X50185Y-36956D01*
X50155Y-36931D01*
X50131Y-36901D01*
X50112Y-36867D01*
X50101Y-36830D01*
X50098Y-36791D01*
Y-33937D01*
X50101Y-33898D01*
X50112Y-33861D01*
X50131Y-33827D01*
X50155Y-33797D01*
X50185Y-33773D01*
X50220Y-33754D01*
X50257Y-33743D01*
X50295Y-33739D01*
X52263D01*
Y-31674D01*
X50295D01*
X50257Y-31670D01*
X50220Y-31659D01*
X50185Y-31641D01*
X50155Y-31616D01*
X50131Y-31586D01*
X50112Y-31552D01*
X50101Y-31515D01*
X50098Y-31477D01*
Y-28524D01*
X50101Y-28485D01*
X50112Y-28448D01*
X50131Y-28414D01*
X50155Y-28384D01*
X50185Y-28359D01*
X50220Y-28341D01*
X50257Y-28330D01*
X50295Y-28326D01*
X67028D01*
X67066Y-28330D01*
D02*
G37*
G36*
Y-16912D02*
X67103Y-16924D01*
X67137Y-16942D01*
X67167Y-16966D01*
X67192Y-16996D01*
X67210Y-17031D01*
X67222Y-17068D01*
X67225Y-17106D01*
Y-18681D01*
Y-26949D01*
X67222Y-26987D01*
X67210Y-27025D01*
X67192Y-27059D01*
X67167Y-27089D01*
X67137Y-27113D01*
X67103Y-27132D01*
X67066Y-27143D01*
X67028Y-27147D01*
X50295D01*
X50257Y-27143D01*
X50220Y-27132D01*
X50185Y-27113D01*
X50155Y-27089D01*
X50131Y-27059D01*
X50112Y-27025D01*
X50101Y-26987D01*
X50098Y-26949D01*
Y-23996D01*
X50101Y-23958D01*
X50112Y-23921D01*
X50131Y-23886D01*
X50155Y-23856D01*
X50185Y-23832D01*
X50220Y-23813D01*
X50257Y-23802D01*
X50295Y-23798D01*
X52263D01*
Y-21733D01*
X50295D01*
X50257Y-21730D01*
X50220Y-21718D01*
X50185Y-21700D01*
X50155Y-21675D01*
X50131Y-21645D01*
X50112Y-21611D01*
X50101Y-21574D01*
X50098Y-21535D01*
Y-18681D01*
X50101Y-18643D01*
X50112Y-18606D01*
X50131Y-18571D01*
X50155Y-18541D01*
X50185Y-18517D01*
X50220Y-18498D01*
X50257Y-18487D01*
X50295Y-18483D01*
X54035D01*
Y-17106D01*
X54038Y-17068D01*
X54050Y-17031D01*
X54068Y-16996D01*
X54092Y-16966D01*
X54122Y-16942D01*
X54157Y-16924D01*
X54194Y-16912D01*
X54232Y-16909D01*
X57480D01*
X57519Y-16912D01*
X57556Y-16924D01*
X57590Y-16942D01*
X57620Y-16966D01*
X57645Y-16996D01*
X57663Y-17031D01*
X57674Y-17068D01*
X57678Y-17106D01*
Y-18483D01*
X63680D01*
Y-17106D01*
X63684Y-17068D01*
X63695Y-17031D01*
X63714Y-16996D01*
X63738Y-16966D01*
X63768Y-16942D01*
X63802Y-16924D01*
X63839Y-16912D01*
X63878Y-16909D01*
X67028D01*
X67066Y-16912D01*
D02*
G37*
D53*
X315158Y-138583D02*
D03*
X317717D02*
D03*
X320276D02*
D03*
X322835D02*
D03*
X325394D02*
D03*
X327953D02*
D03*
X330512D02*
D03*
X333071D02*
D03*
X322835Y-115976D02*
D03*
X320276D02*
D03*
X317717D02*
D03*
X315158D02*
D03*
X325394D02*
D03*
X327953D02*
D03*
X330512D02*
D03*
X333071D02*
D03*
D56*
X60532Y-32461D02*
D03*
Y-23012D02*
D03*
X60630Y-46654D02*
D03*
Y-56102D02*
D03*
Y-79724D02*
D03*
Y-70276D02*
D03*
Y-94095D02*
D03*
Y-103543D02*
D03*
X60433Y-127362D02*
D03*
Y-117913D02*
D03*
D64*
X197795Y-177559D02*
D03*
X222284D02*
D03*
D65*
X268110Y-61614D02*
D03*
Y-50984D02*
D03*
D66*
X246457Y-172478D02*
D03*
X240551D02*
D03*
X246457Y-179552D02*
D03*
X134646Y-62894D02*
D03*
X128740D02*
D03*
X234842Y-135630D02*
D03*
X276575Y-87008D02*
D03*
X282480D02*
D03*
X263976Y-220866D02*
D03*
X258071D02*
D03*
X286024Y-215354D02*
D03*
X291929D02*
D03*
X286024Y-220866D02*
D03*
X291929D02*
D03*
X143110Y-88829D02*
D03*
X149016D02*
D03*
X102756Y-204921D02*
D03*
X96850D02*
D03*
X142913Y-80905D02*
D03*
X148819D02*
D03*
X143110Y-96949D02*
D03*
X149016D02*
D03*
X143110Y-113189D02*
D03*
X149016D02*
D03*
X143110Y-105069D02*
D03*
X149016D02*
D03*
X102756Y-129134D02*
D03*
X96850D02*
D03*
X166732Y-135236D02*
D03*
X172638D02*
D03*
X193504Y-136417D02*
D03*
X199409D02*
D03*
X213779Y-135630D02*
D03*
X219685D02*
D03*
X228937D02*
D03*
X278740Y-192913D02*
D03*
X284646D02*
D03*
X240551Y-179552D02*
D03*
X217323Y-31496D02*
D03*
X211417D02*
D03*
X197835Y-31890D02*
D03*
X191929D02*
D03*
X194685Y-191929D02*
D03*
X200591D02*
D03*
X102362Y-186221D02*
D03*
X96457D02*
D03*
X102756Y-167323D02*
D03*
X96850D02*
D03*
X102756Y-148228D02*
D03*
X96850D02*
D03*
D67*
X245669Y-165945D02*
D03*
Y-160039D02*
D03*
X153150Y-57973D02*
D03*
Y-52067D02*
D03*
X127657Y-32972D02*
D03*
Y-38878D02*
D03*
X162303Y-30610D02*
D03*
Y-24705D02*
D03*
X255118Y-52756D02*
D03*
X297244Y-86024D02*
D03*
Y-80118D02*
D03*
X328740Y-152559D02*
D03*
Y-146653D02*
D03*
X322835Y-152559D02*
D03*
Y-146653D02*
D03*
X316929Y-152559D02*
D03*
Y-146653D02*
D03*
X307874Y-125394D02*
D03*
Y-119488D02*
D03*
Y-138386D02*
D03*
Y-132480D02*
D03*
X169882Y-154528D02*
D03*
Y-160433D02*
D03*
X292323Y-145866D02*
D03*
Y-151772D02*
D03*
X258465Y-143701D02*
D03*
Y-149606D02*
D03*
X254331Y-100591D02*
D03*
Y-94685D02*
D03*
X255512Y-79331D02*
D03*
Y-73425D02*
D03*
X255118Y-46850D02*
D03*
X245472Y-37598D02*
D03*
Y-43504D02*
D03*
X175197Y-24606D02*
D03*
Y-30512D02*
D03*
D68*
X188583Y-191929D02*
D03*
X182677D02*
D03*
X240256Y-186627D02*
D03*
X246161D02*
D03*
X265453Y-144980D02*
D03*
X271358D02*
D03*
X145473Y-172244D02*
D03*
X139567D02*
D03*
X268110Y-193307D02*
D03*
X262205D02*
D03*
X292323Y-199409D02*
D03*
X286417D02*
D03*
X301772Y-170079D02*
D03*
X307677D02*
D03*
X268701Y-69685D02*
D03*
X274606D02*
D03*
Y-77165D02*
D03*
X268701D02*
D03*
X289567Y-109449D02*
D03*
X295472D02*
D03*
X264764Y-87008D02*
D03*
X270669D02*
D03*
X114370Y-186221D02*
D03*
X108465D02*
D03*
X114764Y-129134D02*
D03*
X108858D02*
D03*
X114764Y-204921D02*
D03*
X108858D02*
D03*
X246063Y-193701D02*
D03*
X240158D02*
D03*
X188583Y-185827D02*
D03*
X182677D02*
D03*
X114764Y-167520D02*
D03*
X108858D02*
D03*
X114764Y-148031D02*
D03*
X108858D02*
D03*
D69*
X245669Y-147441D02*
D03*
Y-153347D02*
D03*
X301378Y-155512D02*
D03*
Y-161417D02*
D03*
X168701Y-30512D02*
D03*
Y-24606D02*
D03*
X300394Y-175984D02*
D03*
Y-181890D02*
D03*
X308858Y-175787D02*
D03*
Y-181693D02*
D03*
X338386Y-177657D02*
D03*
Y-183563D02*
D03*
Y-207185D02*
D03*
Y-201279D02*
D03*
X81299Y-24803D02*
D03*
Y-18898D02*
D03*
Y-36614D02*
D03*
Y-30709D02*
D03*
Y-48425D02*
D03*
Y-42520D02*
D03*
Y-60236D02*
D03*
Y-54331D02*
D03*
X76772Y-214961D02*
D03*
Y-209055D02*
D03*
X84055Y-205906D02*
D03*
Y-211811D02*
D03*
X76772Y-197736D02*
D03*
Y-191831D02*
D03*
X84055Y-187402D02*
D03*
Y-193307D02*
D03*
X133268Y-108957D02*
D03*
Y-114862D02*
D03*
X121063Y-93209D02*
D03*
Y-99114D02*
D03*
Y-114764D02*
D03*
Y-120669D02*
D03*
X127362Y-135827D02*
D03*
Y-141732D02*
D03*
X81299Y-72047D02*
D03*
Y-66142D02*
D03*
Y-83858D02*
D03*
Y-77953D02*
D03*
Y-95669D02*
D03*
Y-89764D02*
D03*
Y-107480D02*
D03*
Y-101575D02*
D03*
Y-119291D02*
D03*
Y-113386D02*
D03*
Y-131102D02*
D03*
Y-125197D02*
D03*
X76772Y-146457D02*
D03*
Y-140551D02*
D03*
X84449Y-142520D02*
D03*
Y-136614D02*
D03*
Y-151181D02*
D03*
Y-157087D02*
D03*
X76772Y-163287D02*
D03*
Y-157382D02*
D03*
X84055Y-168701D02*
D03*
Y-174606D02*
D03*
X76772Y-180512D02*
D03*
Y-174606D02*
D03*
X127362Y-173721D02*
D03*
Y-179626D02*
D03*
Y-192667D02*
D03*
Y-198573D02*
D03*
Y-217520D02*
D03*
Y-211614D02*
D03*
X214370Y-155118D02*
D03*
Y-161024D02*
D03*
X335433Y-74606D02*
D03*
Y-80512D02*
D03*
X291535Y-193110D02*
D03*
Y-187205D02*
D03*
X255118Y-188386D02*
D03*
Y-194291D02*
D03*
X127362Y-154774D02*
D03*
Y-160679D02*
D03*
X121063Y-70079D02*
D03*
Y-75984D02*
D03*
Y-60039D02*
D03*
Y-54134D02*
D03*
X121653Y-38386D02*
D03*
Y-32480D02*
D03*
D70*
X271260Y-153445D02*
D03*
X263386Y-185138D02*
D03*
X265354D02*
D03*
X267323D02*
D03*
X269291D02*
D03*
X271260D02*
D03*
X273228D02*
D03*
X275197D02*
D03*
X277165D02*
D03*
X279134D02*
D03*
X281102D02*
D03*
X283071D02*
D03*
X285039D02*
D03*
Y-153445D02*
D03*
X283071D02*
D03*
X281102D02*
D03*
X279134D02*
D03*
X277165D02*
D03*
X275197D02*
D03*
X273228D02*
D03*
X269291D02*
D03*
X267323D02*
D03*
X265354D02*
D03*
X263386D02*
D03*
D71*
X258366Y-160433D02*
D03*
Y-170276D02*
D03*
Y-168307D02*
D03*
X290059Y-166339D02*
D03*
Y-164370D02*
D03*
X258366Y-158465D02*
D03*
Y-162401D02*
D03*
Y-164370D02*
D03*
Y-166339D02*
D03*
Y-172244D02*
D03*
Y-174213D02*
D03*
Y-176181D02*
D03*
Y-178150D02*
D03*
Y-180118D02*
D03*
X290059D02*
D03*
Y-178150D02*
D03*
Y-176181D02*
D03*
Y-174213D02*
D03*
Y-172244D02*
D03*
Y-170276D02*
D03*
Y-168307D02*
D03*
Y-162401D02*
D03*
Y-160433D02*
D03*
Y-158465D02*
D03*
D72*
X174213Y-212402D02*
D03*
X162402D02*
D03*
D73*
X184646Y-208602D02*
D03*
Y-213602D02*
D03*
X203543D02*
D03*
Y-208602D02*
D03*
X262598Y-93681D02*
D03*
Y-98681D02*
D03*
Y-103681D02*
D03*
Y-108681D02*
D03*
X281496Y-93681D02*
D03*
Y-98681D02*
D03*
Y-103681D02*
D03*
Y-108681D02*
D03*
X203543Y-203602D02*
D03*
Y-198602D02*
D03*
X184646Y-203602D02*
D03*
Y-198602D02*
D03*
D74*
X278150Y-46358D02*
D03*
X312402D02*
D03*
D75*
X347854Y-204823D02*
D03*
Y-201673D02*
D03*
Y-182382D02*
D03*
Y-179232D02*
D03*
D76*
Y-193012D02*
D03*
Y-194980D02*
D03*
Y-196949D02*
D03*
Y-198917D02*
D03*
Y-191043D02*
D03*
Y-189075D02*
D03*
Y-187106D02*
D03*
Y-185138D02*
D03*
D77*
X338760Y-188287D02*
D03*
Y-192028D02*
D03*
Y-195768D02*
D03*
X328878D02*
D03*
Y-192028D02*
D03*
Y-188287D02*
D03*
D78*
X167520Y-198031D02*
D03*
Y-173425D02*
D03*
D79*
X230610Y-160334D02*
D03*
X238090D02*
D03*
D80*
X89862Y-98632D02*
D03*
X114468D02*
D03*
X89862Y-88632D02*
D03*
X114468D02*
D03*
Y-110827D02*
D03*
X89862D02*
D03*
X114468Y-120827D02*
D03*
X89862D02*
D03*
X114468Y-44242D02*
D03*
X89862D02*
D03*
X114468Y-54242D02*
D03*
X89862D02*
D03*
X114468Y-22047D02*
D03*
X89862D02*
D03*
X114468Y-32047D02*
D03*
X89862D02*
D03*
X114468Y-66437D02*
D03*
X89862D02*
D03*
X114468Y-76437D02*
D03*
X89862D02*
D03*
D81*
X132973Y-87303D02*
D03*
Y-94783D02*
D03*
D82*
X140650Y-44783D02*
D03*
X146555D02*
D03*
D83*
X129331Y-46161D02*
D03*
Y-56004D02*
D03*
D84*
X148228Y-58465D02*
D03*
X139228Y-54715D02*
D03*
Y-62215D02*
D03*
X298819Y-100000D02*
D03*
X289819Y-96250D02*
D03*
Y-103750D02*
D03*
D85*
X160630Y-59252D02*
D03*
X244094Y-53346D02*
D03*
Y-116339D02*
D03*
Y-114370D02*
D03*
Y-110433D02*
D03*
Y-108465D02*
D03*
Y-78937D02*
D03*
Y-73032D02*
D03*
Y-71063D02*
D03*
Y-63189D02*
D03*
Y-61221D02*
D03*
Y-49409D02*
D03*
Y-51378D02*
D03*
Y-55315D02*
D03*
Y-57284D02*
D03*
Y-59252D02*
D03*
Y-65158D02*
D03*
Y-67126D02*
D03*
Y-69095D02*
D03*
Y-75000D02*
D03*
Y-76968D02*
D03*
Y-80905D02*
D03*
Y-82874D02*
D03*
Y-84842D02*
D03*
Y-86811D02*
D03*
Y-88779D02*
D03*
Y-90748D02*
D03*
Y-92716D02*
D03*
Y-94685D02*
D03*
Y-96653D02*
D03*
Y-98622D02*
D03*
Y-100591D02*
D03*
Y-102559D02*
D03*
Y-104527D02*
D03*
Y-106496D02*
D03*
Y-112402D02*
D03*
Y-118307D02*
D03*
X160630D02*
D03*
Y-116339D02*
D03*
Y-114370D02*
D03*
Y-112402D02*
D03*
Y-110433D02*
D03*
Y-108465D02*
D03*
Y-106496D02*
D03*
Y-104527D02*
D03*
Y-102559D02*
D03*
Y-100591D02*
D03*
Y-98622D02*
D03*
Y-96653D02*
D03*
Y-94685D02*
D03*
Y-92716D02*
D03*
Y-90748D02*
D03*
Y-88779D02*
D03*
Y-86811D02*
D03*
Y-84842D02*
D03*
Y-82874D02*
D03*
Y-80905D02*
D03*
Y-78937D02*
D03*
Y-76968D02*
D03*
Y-75000D02*
D03*
Y-73032D02*
D03*
Y-71063D02*
D03*
Y-69095D02*
D03*
Y-67126D02*
D03*
Y-65158D02*
D03*
Y-63189D02*
D03*
Y-61221D02*
D03*
Y-57284D02*
D03*
Y-55315D02*
D03*
Y-53346D02*
D03*
Y-51378D02*
D03*
Y-49409D02*
D03*
D86*
X300197Y-189961D02*
D03*
X311024Y-189764D02*
D03*
Y-201575D02*
D03*
X300197Y-201772D02*
D03*
D87*
X240748Y-212795D02*
D03*
X318406Y-212795D02*
D03*
X305020D02*
D03*
X254134Y-212795D02*
D03*
D88*
X222441Y-212598D02*
D03*
Y-197441D02*
D03*
D89*
X139563Y-182283D02*
D03*
X152563D02*
D03*
D90*
X138524Y-195562D02*
D03*
X333878Y-25591D02*
D03*
X328878D02*
D03*
X323878D02*
D03*
X318878D02*
D03*
X333878Y-44882D02*
D03*
X328878D02*
D03*
X323878D02*
D03*
X318878D02*
D03*
X138524Y-214854D02*
D03*
X143524D02*
D03*
X148524D02*
D03*
X153524D02*
D03*
X143524Y-195562D02*
D03*
X148524D02*
D03*
X153524D02*
D03*
D91*
X234842Y-125591D02*
D03*
X167913Y-42126D02*
D03*
X169882D02*
D03*
X171850D02*
D03*
X173819D02*
D03*
X175787D02*
D03*
X177756D02*
D03*
X179724D02*
D03*
X181693D02*
D03*
X183661D02*
D03*
X185630D02*
D03*
X187598D02*
D03*
X189567D02*
D03*
X191535D02*
D03*
X193504D02*
D03*
X195473D02*
D03*
X197441D02*
D03*
X199409D02*
D03*
X201378D02*
D03*
X203346D02*
D03*
X205315D02*
D03*
X207283D02*
D03*
X209252D02*
D03*
X211221D02*
D03*
X213189D02*
D03*
X215158D02*
D03*
X217126D02*
D03*
X219094D02*
D03*
X221063D02*
D03*
X223031D02*
D03*
X225000D02*
D03*
X226969D02*
D03*
X228937D02*
D03*
X230906D02*
D03*
X232874D02*
D03*
X234842D02*
D03*
X236811D02*
D03*
Y-125591D02*
D03*
X232874D02*
D03*
X230906D02*
D03*
X228937D02*
D03*
X226969D02*
D03*
X225000D02*
D03*
X223031D02*
D03*
X221063D02*
D03*
X219094D02*
D03*
X217126D02*
D03*
X215158D02*
D03*
X213189D02*
D03*
X211221D02*
D03*
X209252D02*
D03*
X207283D02*
D03*
X205315D02*
D03*
X203346D02*
D03*
X201378D02*
D03*
X199409D02*
D03*
X197441D02*
D03*
X195473D02*
D03*
X193504D02*
D03*
X191535D02*
D03*
X189567D02*
D03*
X187598D02*
D03*
X185630D02*
D03*
X183661D02*
D03*
X181693D02*
D03*
X179724D02*
D03*
X177756D02*
D03*
X175787D02*
D03*
X173819D02*
D03*
X171850D02*
D03*
X169882D02*
D03*
X167913D02*
D03*
D92*
X306931Y-75284D02*
D03*
Y-90284D02*
D03*
X326222Y-75284D02*
D03*
Y-80284D02*
D03*
Y-85284D02*
D03*
Y-90284D02*
D03*
X306931Y-85284D02*
D03*
Y-80284D02*
D03*
D93*
X271258Y-215945D02*
D03*
Y-212205D02*
D03*
Y-219685D02*
D03*
X279919D02*
D03*
Y-212205D02*
D03*
D94*
X283071Y-69685D02*
D03*
X279321Y-78685D02*
D03*
X286821D02*
D03*
X328346Y-62598D02*
D03*
X332097Y-53598D02*
D03*
X324597D02*
D03*
D95*
X52362Y-25473D02*
D03*
X52461Y-49114D02*
D03*
Y-72736D02*
D03*
Y-96555D02*
D03*
X52264Y-120374D02*
D03*
D96*
Y-20059D02*
D03*
X52362Y-43701D02*
D03*
Y-67323D02*
D03*
Y-91142D02*
D03*
X52165Y-114961D02*
D03*
D97*
X65453Y-19075D02*
D03*
X65495Y-36336D02*
D03*
X65594Y-59978D02*
D03*
X65551Y-42717D02*
D03*
Y-66339D02*
D03*
X65594Y-83600D02*
D03*
Y-107419D02*
D03*
X65551Y-90158D02*
D03*
X65354Y-113976D02*
D03*
X65397Y-131238D02*
D03*
D98*
X55807Y-19075D02*
D03*
X55895Y-36336D02*
D03*
X55994Y-59978D02*
D03*
X55905Y-42717D02*
D03*
Y-66339D02*
D03*
X55994Y-83600D02*
D03*
Y-107419D02*
D03*
X55905Y-90158D02*
D03*
X55709Y-113976D02*
D03*
X55797Y-131238D02*
D03*
D99*
X52295Y-30036D02*
D03*
X52264Y-35364D02*
D03*
X52362Y-59006D02*
D03*
X52394Y-53678D02*
D03*
Y-77300D02*
D03*
X52362Y-82628D02*
D03*
Y-106447D02*
D03*
X52394Y-101119D02*
D03*
X52197Y-124938D02*
D03*
X52165Y-130266D02*
D03*
D100*
X73819Y-35236D02*
D03*
Y-30236D02*
D03*
Y-20236D02*
D03*
Y-25236D02*
D03*
X73917Y-48878D02*
D03*
Y-43878D02*
D03*
Y-53878D02*
D03*
Y-58878D02*
D03*
Y-82500D02*
D03*
Y-77500D02*
D03*
Y-67500D02*
D03*
Y-72500D02*
D03*
Y-96319D02*
D03*
Y-91319D02*
D03*
Y-101319D02*
D03*
Y-106319D02*
D03*
X73721Y-130138D02*
D03*
Y-125138D02*
D03*
Y-115138D02*
D03*
Y-120138D02*
D03*
D101*
X67669Y-217087D02*
D03*
X45669D02*
D03*
X67669Y-207087D02*
D03*
X45669D02*
D03*
X118504Y-216614D02*
D03*
X93504D02*
D03*
X118504Y-211614D02*
D03*
X93504D02*
D03*
X67669Y-148386D02*
D03*
X45669D02*
D03*
X67669Y-138386D02*
D03*
X45669D02*
D03*
X67669Y-165561D02*
D03*
X45669D02*
D03*
X67669Y-155561D02*
D03*
X45669D02*
D03*
X67669Y-182736D02*
D03*
X45669D02*
D03*
X67669Y-172736D02*
D03*
X45669D02*
D03*
X67669Y-199911D02*
D03*
X45669D02*
D03*
X67669Y-189911D02*
D03*
X45669D02*
D03*
X118504Y-141142D02*
D03*
X93504D02*
D03*
X118504Y-136142D02*
D03*
X93504D02*
D03*
X118504Y-198228D02*
D03*
X93504D02*
D03*
X118504Y-193228D02*
D03*
X93504D02*
D03*
X118504Y-179213D02*
D03*
X93504D02*
D03*
X118504Y-174213D02*
D03*
X93504D02*
D03*
X118504Y-160039D02*
D03*
X93504D02*
D03*
X118504Y-155039D02*
D03*
X93504D02*
D03*
D102*
X208012Y-160846D02*
D03*
Y-155847D02*
D03*
Y-150847D02*
D03*
Y-145846D02*
D03*
X177421Y-160846D02*
D03*
Y-155847D02*
D03*
Y-150847D02*
D03*
Y-145846D02*
D03*
D103*
X192717Y-153347D02*
D03*
D104*
X351457Y-209035D02*
D03*
Y-175020D02*
D03*
X367913Y-209035D02*
D03*
Y-175020D02*
D03*
D105*
X353543Y-203405D02*
D03*
Y-180650D02*
D03*
D106*
X354823Y-37795D02*
D03*
X344980D02*
D03*
X354823Y-51575D02*
D03*
X344980D02*
D03*
X354823Y-65354D02*
D03*
X344980D02*
D03*
X354823Y-79134D02*
D03*
X344980D02*
D03*
X354823Y-92913D02*
D03*
X344980D02*
D03*
X354823Y-106693D02*
D03*
X344980D02*
D03*
X354823Y-120472D02*
D03*
X344980D02*
D03*
X354823Y-134252D02*
D03*
X344980D02*
D03*
D107*
X186969Y-21654D02*
D03*
X257953Y-130512D02*
D03*
D108*
X196968Y-21654D02*
D03*
X206968D02*
D03*
X216968D02*
D03*
X226969D02*
D03*
X267953Y-130512D02*
D03*
X277953D02*
D03*
X287953D02*
D03*
X297953D02*
D03*
D109*
X29528Y-42323D02*
D03*
X19685D02*
D03*
Y-111221D02*
D03*
X29528D02*
D03*
Y-97441D02*
D03*
X19685Y-97441D02*
D03*
Y-56102D02*
D03*
X29528D02*
D03*
X19685Y-69882D02*
D03*
X29528D02*
D03*
X19685Y-83661D02*
D03*
X29528D02*
D03*
Y-152559D02*
D03*
X19685D02*
D03*
X29528Y-138779D02*
D03*
X19685D02*
D03*
X29528Y-125000D02*
D03*
X19685D02*
D03*
Y-166339D02*
D03*
X29528D02*
D03*
Y-180118D02*
D03*
Y-193898D02*
D03*
X19685Y-180118D02*
D03*
Y-193898D02*
D03*
D110*
X188779Y-147441D02*
D03*
X192717D02*
D03*
X196653D02*
D03*
X188779Y-151378D02*
D03*
X192717D02*
D03*
X196653D02*
D03*
X192717Y-159252D02*
D03*
X196653D02*
D03*
X188779D02*
D03*
X196653Y-155315D02*
D03*
X192717D02*
D03*
X188779D02*
D03*
M02*
