G04*
G04 #@! TF.GenerationSoftware,Altium Limited,Altium Designer,23.1.1 (15)*
G04*
G04 Layer_Color=32896*
%FSLAX25Y25*%
%MOIN*%
G70*
G04*
G04 #@! TF.SameCoordinates,AB512107-65A1-42F9-B056-318A3DCE2635*
G04*
G04*
G04 #@! TF.FilePolarity,Positive*
G04*
G01*
G75*
%ADD10C,0.01000*%
%ADD20C,0.00709*%
%ADD21R,3.74016X0.11811*%
%ADD124C,0.00100*%
%ADD125C,0.00472*%
G36*
X294951Y-55466D02*
X290235Y-60555D01*
X289772Y-66569D01*
X294796Y-71709D01*
X294514Y-71966D01*
X289721Y-67070D01*
X289631Y-68188D01*
X289618Y-68355D01*
X289592Y-68509D01*
Y-68650D01*
X289579Y-68779D01*
X289567Y-68882D01*
Y-68959D01*
Y-69010D01*
Y-69023D01*
Y-69152D01*
X289554Y-69241D01*
Y-69318D01*
X289541Y-69370D01*
Y-69396D01*
X289528Y-69421D01*
Y-69434D01*
X289515Y-69524D01*
X289490Y-69588D01*
X289464Y-69627D01*
X289451Y-69640D01*
X289400Y-69665D01*
X289374Y-69678D01*
X289348Y-69691D01*
Y-70334D01*
X288526D01*
Y-69691D01*
X285146D01*
X285069Y-69807D01*
X284992Y-69910D01*
X284902Y-70000D01*
X284799Y-70064D01*
X284607Y-70192D01*
X284414Y-70269D01*
X284234Y-70308D01*
X284092Y-70334D01*
X284041Y-70346D01*
X283964D01*
X283758Y-70334D01*
X283578Y-70282D01*
X283424Y-70218D01*
X283283Y-70154D01*
X283167Y-70077D01*
X283077Y-70025D01*
X283026Y-69974D01*
X283013Y-69961D01*
X282872Y-69807D01*
X282769Y-69640D01*
X282705Y-69486D01*
X282653Y-69331D01*
X282628Y-69190D01*
X282602Y-69087D01*
Y-69010D01*
Y-68984D01*
Y-68830D01*
X279646Y-72030D01*
X279325Y-71760D01*
X283668Y-67070D01*
X283077Y-60863D01*
X281946D01*
Y-59206D01*
X281998D01*
X278387Y-55518D01*
Y-54927D01*
X282589Y-59206D01*
X282936D01*
X282872Y-58396D01*
X282769Y-58460D01*
X282666Y-58486D01*
X282589Y-58499D01*
X282563D01*
X282461Y-58486D01*
X282371Y-58473D01*
X282294Y-58435D01*
X282229Y-58396D01*
X282178Y-58370D01*
X282126Y-58332D01*
X282114Y-58319D01*
X282101Y-58306D01*
X282036Y-58229D01*
X281985Y-58152D01*
X281959Y-58075D01*
X281934Y-58011D01*
X281921Y-57946D01*
X281908Y-57895D01*
Y-57869D01*
Y-57856D01*
X281921Y-57766D01*
X281934Y-57676D01*
X282011Y-57535D01*
X282049Y-57484D01*
X282075Y-57445D01*
X282101Y-57432D01*
X282114Y-57419D01*
X282191Y-57355D01*
X282268Y-57304D01*
X282345Y-57278D01*
X282409Y-57252D01*
X282473Y-57240D01*
X282525Y-57227D01*
X282563D01*
X282679Y-57240D01*
X282782Y-57278D01*
X282872Y-57329D01*
X282936Y-57381D01*
X283000Y-57432D01*
X283039Y-57471D01*
X283065Y-57497D01*
X283077Y-57509D01*
X283167Y-57407D01*
X283270Y-57317D01*
X283501Y-57150D01*
X283604Y-57085D01*
X283694Y-57034D01*
X283746Y-56995D01*
X283771Y-56982D01*
X283964Y-56893D01*
X284195Y-56803D01*
X284439Y-56738D01*
X284684Y-56687D01*
X284902Y-56648D01*
X284992Y-56636D01*
X285069Y-56623D01*
X285146Y-56610D01*
X285198Y-56597D01*
X285236D01*
Y-56379D01*
X287511D01*
Y-56520D01*
X287768Y-56546D01*
X287883Y-56559D01*
X287986Y-56571D01*
X288076Y-56584D01*
X288140D01*
X288179Y-56597D01*
X288192D01*
X288410Y-56623D01*
X288500Y-56648D01*
X288590Y-56661D01*
X288654Y-56674D01*
X288706D01*
X288744Y-56687D01*
X288757D01*
Y-56623D01*
X289605D01*
Y-56944D01*
X289811Y-57060D01*
X289978Y-57175D01*
X290119Y-57278D01*
X290222Y-57368D01*
X290286Y-57445D01*
X290338Y-57509D01*
X290363Y-57548D01*
X290376Y-57561D01*
X290428Y-57664D01*
X290479Y-57741D01*
X290505Y-57805D01*
X290530Y-57844D01*
X290556Y-57869D01*
Y-57895D01*
X290569Y-57908D01*
X291057D01*
Y-58422D01*
X290428D01*
X290286Y-59861D01*
X294951Y-54811D01*
Y-55466D01*
D02*
G37*
G36*
X294373Y-77799D02*
X279865D01*
Y-75641D01*
X294373D01*
Y-77799D01*
D02*
G37*
G36*
X307723Y-56663D02*
X308098Y-56678D01*
X308817Y-56768D01*
X309162Y-56828D01*
X309477Y-56903D01*
X309792Y-56978D01*
X310062Y-57038D01*
X310316Y-57113D01*
X310556Y-57188D01*
X310751Y-57263D01*
X310931Y-57323D01*
X311066Y-57368D01*
X311156Y-57413D01*
X311231Y-57428D01*
X311246Y-57443D01*
X311905Y-57758D01*
X312220Y-57938D01*
X312520Y-58117D01*
X312805Y-58297D01*
X313060Y-58477D01*
X313314Y-58657D01*
X313539Y-58822D01*
X313734Y-58987D01*
X313914Y-59137D01*
X314079Y-59272D01*
X314214Y-59392D01*
X314319Y-59482D01*
X314394Y-59557D01*
X314439Y-59601D01*
X314454Y-59616D01*
X314948Y-60141D01*
X315158Y-60411D01*
X315368Y-60696D01*
X315563Y-60966D01*
X315743Y-61220D01*
X315908Y-61475D01*
X316043Y-61730D01*
X316178Y-61955D01*
X316297Y-62165D01*
X316387Y-62345D01*
X316462Y-62494D01*
X316537Y-62629D01*
X316582Y-62734D01*
X316597Y-62794D01*
X316612Y-62809D01*
X316747Y-63154D01*
X316867Y-63499D01*
X316972Y-63844D01*
X317062Y-64188D01*
X317197Y-64833D01*
X317257Y-65148D01*
X317287Y-65433D01*
X317332Y-65702D01*
X317347Y-65957D01*
X317362Y-66167D01*
X317377Y-66347D01*
X317392Y-66497D01*
Y-66617D01*
Y-66677D01*
Y-66707D01*
X317377Y-67081D01*
X317362Y-67456D01*
X317272Y-68176D01*
X317212Y-68520D01*
X317152Y-68835D01*
X317077Y-69135D01*
X317002Y-69420D01*
X316927Y-69675D01*
X316852Y-69900D01*
X316792Y-70094D01*
X316732Y-70274D01*
X316687Y-70409D01*
X316642Y-70499D01*
X316627Y-70574D01*
X316612Y-70589D01*
X316297Y-71249D01*
X316118Y-71564D01*
X315953Y-71863D01*
X315773Y-72148D01*
X315593Y-72418D01*
X315413Y-72658D01*
X315233Y-72883D01*
X315083Y-73092D01*
X314933Y-73272D01*
X314798Y-73437D01*
X314679Y-73572D01*
X314589Y-73677D01*
X314514Y-73752D01*
X314469Y-73797D01*
X314454Y-73812D01*
X313914Y-74307D01*
X313644Y-74516D01*
X313374Y-74726D01*
X313105Y-74921D01*
X312835Y-75101D01*
X312580Y-75266D01*
X312340Y-75401D01*
X312115Y-75536D01*
X311905Y-75656D01*
X311725Y-75746D01*
X311561Y-75821D01*
X311441Y-75896D01*
X311336Y-75941D01*
X311276Y-75955D01*
X311261Y-75971D01*
X310916Y-76105D01*
X310571Y-76225D01*
X310226Y-76330D01*
X309882Y-76405D01*
X309222Y-76555D01*
X308907Y-76600D01*
X308623Y-76645D01*
X308353Y-76675D01*
X308098Y-76690D01*
X307888Y-76705D01*
X307708Y-76720D01*
X307558Y-76735D01*
X307348D01*
X306959Y-76720D01*
X306584Y-76705D01*
X305879Y-76615D01*
X305535Y-76555D01*
X305205Y-76495D01*
X304905Y-76420D01*
X304635Y-76345D01*
X304365Y-76285D01*
X304140Y-76210D01*
X303946Y-76150D01*
X303766Y-76090D01*
X303631Y-76046D01*
X303541Y-76000D01*
X303466Y-75985D01*
X303451Y-75971D01*
X302777Y-75656D01*
X302462Y-75476D01*
X302162Y-75311D01*
X301877Y-75131D01*
X301622Y-74951D01*
X301367Y-74771D01*
X301143Y-74591D01*
X300948Y-74441D01*
X300768Y-74292D01*
X300618Y-74157D01*
X300483Y-74037D01*
X300378Y-73947D01*
X300303Y-73872D01*
X300258Y-73827D01*
X300243Y-73812D01*
X299763Y-73272D01*
X299329Y-72718D01*
X299134Y-72448D01*
X298954Y-72178D01*
X298804Y-71923D01*
X298654Y-71683D01*
X298519Y-71459D01*
X298414Y-71249D01*
X298309Y-71069D01*
X298235Y-70904D01*
X298160Y-70784D01*
X298115Y-70679D01*
X298100Y-70619D01*
X298085Y-70604D01*
X297950Y-70259D01*
X297815Y-69915D01*
X297710Y-69570D01*
X297620Y-69225D01*
X297485Y-68565D01*
X297425Y-68266D01*
X297395Y-67966D01*
X297350Y-67696D01*
X297335Y-67456D01*
X297320Y-67246D01*
X297305Y-67052D01*
X297290Y-66917D01*
Y-66797D01*
Y-66737D01*
Y-66707D01*
X297305Y-66317D01*
X297320Y-65942D01*
X297365Y-65567D01*
X297410Y-65223D01*
X297470Y-64878D01*
X297545Y-64563D01*
X297620Y-64248D01*
X297680Y-63978D01*
X297755Y-63724D01*
X297830Y-63499D01*
X297905Y-63289D01*
X297965Y-63124D01*
X298010Y-62989D01*
X298055Y-62884D01*
X298070Y-62824D01*
X298085Y-62809D01*
X298399Y-62150D01*
X298579Y-61835D01*
X298759Y-61535D01*
X298939Y-61265D01*
X299119Y-60996D01*
X299299Y-60756D01*
X299464Y-60531D01*
X299628Y-60321D01*
X299763Y-60141D01*
X299898Y-59991D01*
X300018Y-59856D01*
X300108Y-59751D01*
X300183Y-59676D01*
X300228Y-59631D01*
X300243Y-59616D01*
X300768Y-59122D01*
X301307Y-58687D01*
X301577Y-58507D01*
X301847Y-58327D01*
X302102Y-58162D01*
X302342Y-58012D01*
X302567Y-57878D01*
X302777Y-57773D01*
X302971Y-57668D01*
X303121Y-57593D01*
X303256Y-57518D01*
X303361Y-57473D01*
X303421Y-57458D01*
X303436Y-57443D01*
X303781Y-57308D01*
X304126Y-57173D01*
X304470Y-57068D01*
X304815Y-56978D01*
X305475Y-56843D01*
X305789Y-56783D01*
X306074Y-56753D01*
X306344Y-56708D01*
X306599Y-56693D01*
X306809Y-56678D01*
X306989Y-56663D01*
X307138Y-56648D01*
X307348D01*
X307723Y-56663D01*
D02*
G37*
%LPC*%
G36*
X287087Y-56751D02*
X285634D01*
Y-57111D01*
X287087D01*
Y-56751D01*
D02*
G37*
G36*
X287639Y-56995D02*
X287511D01*
Y-57458D01*
X285236D01*
Y-57034D01*
X285018Y-57073D01*
X284825Y-57111D01*
X284658Y-57150D01*
X284517Y-57188D01*
X284414Y-57214D01*
X284324Y-57240D01*
X284272Y-57265D01*
X284260D01*
X284118Y-57317D01*
X284003Y-57355D01*
X283913Y-57407D01*
X283823Y-57445D01*
X283758Y-57471D01*
X283720Y-57497D01*
X283694Y-57522D01*
X283681D01*
X283604Y-57574D01*
X283553Y-57612D01*
X283463Y-57689D01*
X283424Y-57741D01*
X283412Y-57753D01*
X283360Y-57818D01*
X283334Y-57869D01*
X283309Y-57895D01*
Y-57908D01*
X288757D01*
Y-57162D01*
X288564Y-57111D01*
X288359Y-57073D01*
X288153Y-57047D01*
X287948Y-57021D01*
X287780Y-57008D01*
X287639Y-56995D01*
D02*
G37*
G36*
X289618Y-57458D02*
X289605D01*
Y-57908D01*
X290055D01*
X290042Y-57856D01*
X290003Y-57792D01*
X289978Y-57753D01*
X289965Y-57728D01*
X289914Y-57676D01*
X289862Y-57625D01*
X289746Y-57548D01*
X289695Y-57509D01*
X289644Y-57484D01*
X289618Y-57458D01*
D02*
G37*
G36*
X282371Y-59578D02*
Y-60491D01*
X283026D01*
Y-60259D01*
X282371Y-59578D01*
D02*
G37*
G36*
X289978Y-58422D02*
X283283D01*
X283334Y-59206D01*
X283566D01*
Y-60234D01*
X284722Y-61377D01*
Y-60838D01*
X287562D01*
Y-61788D01*
X285069D01*
X286855Y-63613D01*
X289811Y-60401D01*
X289978Y-58422D01*
D02*
G37*
G36*
X289772Y-61082D02*
X287138Y-63896D01*
X289348Y-66132D01*
X289772Y-61082D01*
D02*
G37*
G36*
X283566Y-60799D02*
Y-60863D01*
X283527D01*
X284015Y-66671D01*
X286598Y-63896D01*
X283566Y-60799D01*
D02*
G37*
G36*
X286881Y-64179D02*
X284067Y-67224D01*
X284105Y-67648D01*
X284298Y-67687D01*
X284478Y-67738D01*
X284632Y-67802D01*
X284761Y-67879D01*
X284863Y-67956D01*
X284941Y-68008D01*
X284992Y-68059D01*
X285005Y-68072D01*
X285121Y-68213D01*
X285210Y-68368D01*
X285262Y-68522D01*
X285313Y-68663D01*
X285339Y-68792D01*
X285352Y-68894D01*
Y-68959D01*
Y-68972D01*
Y-68984D01*
X285339Y-69061D01*
Y-69087D01*
Y-69100D01*
X285326Y-69164D01*
Y-69190D01*
Y-69203D01*
X289091D01*
X289271Y-66671D01*
X286881Y-64179D01*
D02*
G37*
G36*
X284015Y-68239D02*
X283964D01*
X283861Y-68252D01*
X283758Y-68278D01*
X283681Y-68316D01*
X283604Y-68355D01*
X283540Y-68393D01*
X283501Y-68432D01*
X283476Y-68458D01*
X283463Y-68470D01*
X283386Y-68560D01*
X283334Y-68638D01*
X283296Y-68727D01*
X283270Y-68805D01*
X283257Y-68882D01*
X283244Y-68933D01*
Y-68972D01*
Y-68984D01*
X283257Y-69100D01*
X283283Y-69203D01*
X283309Y-69293D01*
X283347Y-69370D01*
X283399Y-69434D01*
X283424Y-69486D01*
X283450Y-69511D01*
X283463Y-69524D01*
X283540Y-69601D01*
X283630Y-69653D01*
X283707Y-69691D01*
X283784Y-69717D01*
X283861Y-69730D01*
X283913Y-69743D01*
X283964D01*
X284080Y-69730D01*
X284183Y-69704D01*
X284272Y-69678D01*
X284349Y-69627D01*
X284414Y-69588D01*
X284465Y-69563D01*
X284491Y-69537D01*
X284504Y-69524D01*
X284581Y-69434D01*
X284632Y-69344D01*
X284671Y-69254D01*
X284697Y-69164D01*
X284709Y-69100D01*
X284722Y-69036D01*
Y-68997D01*
Y-68984D01*
X284709Y-68882D01*
X284684Y-68779D01*
X284645Y-68689D01*
X284607Y-68612D01*
X284568Y-68560D01*
X284529Y-68509D01*
X284504Y-68483D01*
X284491Y-68470D01*
X284401Y-68393D01*
X284311Y-68342D01*
X284221Y-68291D01*
X284131Y-68265D01*
X284067Y-68252D01*
X284015Y-68239D01*
D02*
G37*
%LPD*%
G36*
X284105Y-68573D02*
X284208Y-68612D01*
X284285Y-68650D01*
X284298Y-68676D01*
X284311D01*
X284362Y-68727D01*
X284401Y-68779D01*
X284439Y-68882D01*
X284465Y-68959D01*
Y-68972D01*
Y-68984D01*
X284452Y-69049D01*
X284439Y-69126D01*
X284388Y-69229D01*
X284337Y-69306D01*
X284311Y-69318D01*
Y-69331D01*
X284247Y-69383D01*
X284195Y-69421D01*
X284080Y-69460D01*
X283990Y-69486D01*
X283964D01*
X283823Y-69447D01*
X283707Y-69383D01*
X283630Y-69306D01*
X283578Y-69216D01*
X283553Y-69126D01*
X283527Y-69049D01*
Y-68997D01*
Y-68984D01*
X283553Y-68856D01*
X283591Y-68766D01*
X283630Y-68702D01*
X283656Y-68676D01*
X283758Y-68599D01*
X283861Y-68560D01*
X283938Y-68547D01*
X283964D01*
X284105Y-68573D01*
D02*
G37*
%LPC*%
G36*
X307528Y-58073D02*
X307019D01*
X306689Y-58102D01*
X306074Y-58177D01*
X305774Y-58237D01*
X305490Y-58297D01*
X305235Y-58357D01*
X304995Y-58417D01*
X304770Y-58477D01*
X304575Y-58537D01*
X304395Y-58597D01*
X304245Y-58657D01*
X304140Y-58702D01*
X304051Y-58732D01*
X303991Y-58747D01*
X303976Y-58762D01*
X303406Y-59032D01*
X302881Y-59332D01*
X302642Y-59482D01*
X302417Y-59646D01*
X302207Y-59796D01*
X302012Y-59931D01*
X301847Y-60066D01*
X301697Y-60201D01*
X301562Y-60321D01*
X301442Y-60411D01*
X301367Y-60486D01*
X301292Y-60561D01*
X301262Y-60591D01*
X301248Y-60606D01*
X300843Y-61055D01*
X300468Y-61520D01*
X300153Y-61985D01*
X299898Y-62420D01*
X299779Y-62614D01*
X299689Y-62794D01*
X299599Y-62944D01*
X299524Y-63079D01*
X299479Y-63199D01*
X299434Y-63274D01*
X299419Y-63334D01*
X299404Y-63349D01*
X299284Y-63649D01*
X299179Y-63949D01*
X298999Y-64533D01*
X298879Y-65103D01*
X298834Y-65373D01*
X298804Y-65612D01*
X298774Y-65852D01*
X298744Y-66062D01*
X298729Y-66242D01*
Y-66407D01*
X298714Y-66527D01*
Y-66632D01*
Y-66692D01*
Y-66707D01*
Y-67036D01*
X298744Y-67351D01*
X298819Y-67981D01*
X298879Y-68266D01*
X298939Y-68550D01*
X298999Y-68805D01*
X299059Y-69045D01*
X299119Y-69270D01*
X299179Y-69465D01*
X299239Y-69645D01*
X299299Y-69795D01*
X299344Y-69900D01*
X299374Y-69990D01*
X299389Y-70050D01*
X299404Y-70065D01*
X299674Y-70634D01*
X299988Y-71159D01*
X300138Y-71414D01*
X300288Y-71638D01*
X300438Y-71848D01*
X300588Y-72043D01*
X300723Y-72208D01*
X300843Y-72373D01*
X300949Y-72492D01*
X300333Y-73107D01*
X300933Y-73707D01*
X301542Y-73097D01*
X301248Y-72823D01*
X301233Y-72808D01*
X301203Y-72763D01*
X301143Y-72703D01*
X301053Y-72613D01*
X300963Y-72508D01*
X300949Y-72492D01*
X302414Y-71026D01*
X302477Y-71069D01*
X302762Y-71219D01*
X302911Y-71279D01*
X303061Y-71324D01*
X303241Y-71354D01*
X303284D01*
X306614Y-68019D01*
Y-66827D01*
X305105Y-68336D01*
X305085Y-68506D01*
X305040Y-68775D01*
X304965Y-69030D01*
X304860Y-69255D01*
Y-69270D01*
X304845Y-69285D01*
X304785Y-69375D01*
X304710Y-69480D01*
X304590Y-69615D01*
X304440Y-69735D01*
X304245Y-69855D01*
X304036Y-69915D01*
X303916Y-69930D01*
X303766D01*
X303706Y-69915D01*
X303616Y-69900D01*
X303558Y-69883D01*
X302414Y-71026D01*
X302237Y-70904D01*
X302027Y-70724D01*
X301877Y-70574D01*
X301832Y-70514D01*
X301787Y-70469D01*
X301772Y-70439D01*
X301757Y-70424D01*
X301637Y-70244D01*
X301517Y-70050D01*
X301352Y-69615D01*
X301218Y-69180D01*
X301143Y-68745D01*
X301113Y-68550D01*
X301083Y-68371D01*
X301068Y-68206D01*
Y-68056D01*
X301053Y-67936D01*
Y-67846D01*
Y-67786D01*
Y-67771D01*
Y-67456D01*
X301083Y-67171D01*
X301113Y-66902D01*
X301157Y-66647D01*
X301203Y-66422D01*
X301262Y-66212D01*
X301322Y-66017D01*
X301382Y-65852D01*
X301457Y-65687D01*
X301517Y-65567D01*
X301577Y-65448D01*
X301622Y-65358D01*
X301667Y-65283D01*
X301697Y-65238D01*
X301712Y-65208D01*
X301727Y-65193D01*
X301847Y-65043D01*
X301982Y-64908D01*
X302132Y-64788D01*
X302267Y-64683D01*
X302417Y-64608D01*
X302552Y-64533D01*
X302821Y-64428D01*
X303061Y-64368D01*
X303166Y-64353D01*
X303256Y-64338D01*
X303331Y-64323D01*
X303616D01*
X303781Y-64353D01*
X303946Y-64398D01*
X304096Y-64458D01*
X304380Y-64608D01*
X304620Y-64773D01*
X304830Y-64953D01*
X304980Y-65103D01*
X305025Y-65163D01*
X305070Y-65208D01*
X305085Y-65238D01*
X305100Y-65253D01*
Y-61910D01*
X306614D01*
Y-66827D01*
X307771Y-65669D01*
X307738Y-65492D01*
X307708Y-65268D01*
X307693Y-65058D01*
X307678Y-64908D01*
Y-64848D01*
Y-64803D01*
Y-64773D01*
Y-64758D01*
X307693Y-64368D01*
X307738Y-64024D01*
X307813Y-63709D01*
X307888Y-63454D01*
X307978Y-63244D01*
X308008Y-63154D01*
X308038Y-63079D01*
X308068Y-63019D01*
X308098Y-62974D01*
X308113Y-62959D01*
Y-62944D01*
X308278Y-62704D01*
X308458Y-62524D01*
X308652Y-62360D01*
X308832Y-62240D01*
X308982Y-62150D01*
X309117Y-62090D01*
X309207Y-62060D01*
X309222Y-62045D01*
X309237D01*
X309327Y-62015D01*
X309432Y-62000D01*
X309567Y-61985D01*
X309702Y-61970D01*
X310017Y-61940D01*
X310331Y-61925D01*
X310631Y-61910D01*
X311531D01*
X313146Y-60295D01*
X313479Y-60606D01*
X313494Y-60621D01*
X313524Y-60666D01*
X313584Y-60726D01*
X313674Y-60816D01*
X313737Y-60889D01*
X314334Y-60291D01*
X313749Y-59691D01*
X313146Y-60295D01*
X313030Y-60186D01*
X312550Y-59826D01*
X312085Y-59512D01*
X311666Y-59242D01*
X311471Y-59137D01*
X311291Y-59032D01*
X311126Y-58957D01*
X310991Y-58882D01*
X310871Y-58837D01*
X310796Y-58792D01*
X310736Y-58762D01*
X310721D01*
X310421Y-58642D01*
X310121Y-58537D01*
X309522Y-58357D01*
X308952Y-58237D01*
X308682Y-58192D01*
X308443Y-58162D01*
X308203Y-58132D01*
X307993Y-58102D01*
X307813Y-58087D01*
X307648D01*
X307528Y-58073D01*
D02*
G37*
G36*
X312085Y-63499D02*
X311129D01*
X309362Y-65268D01*
X309372Y-65298D01*
X309402Y-65388D01*
X309432Y-65448D01*
X309447Y-65478D01*
X309462Y-65492D01*
X309537Y-65612D01*
X309627Y-65702D01*
X309717Y-65777D01*
X309792Y-65852D01*
X309867Y-65897D01*
X309927Y-65927D01*
X309957Y-65957D01*
X309972D01*
X310032Y-65987D01*
X310092Y-66002D01*
X310272Y-66032D01*
X310481Y-66062D01*
X310691Y-66077D01*
X310901D01*
X311066Y-66092D01*
X312085D01*
Y-63499D01*
D02*
G37*
G36*
X309507Y-63934D02*
X307771Y-65669D01*
X307783Y-65732D01*
X307843Y-65987D01*
X307918Y-66212D01*
X307933Y-66242D01*
X307963Y-66302D01*
X308023Y-66407D01*
X308098Y-66527D01*
X308101Y-66531D01*
X309362Y-65268D01*
X309342Y-65208D01*
X309327Y-65088D01*
X309297Y-64938D01*
Y-64788D01*
Y-64773D01*
Y-64713D01*
X309312Y-64623D01*
X309327Y-64518D01*
X309342Y-64383D01*
X309387Y-64233D01*
X309432Y-64083D01*
X309507Y-63934D01*
D02*
G37*
G36*
X303946Y-65717D02*
X303841D01*
X303646Y-65732D01*
X303466Y-65792D01*
X303316Y-65867D01*
X303196Y-65942D01*
X303091Y-66032D01*
X303031Y-66107D01*
X302986Y-66167D01*
X302971Y-66182D01*
X302896Y-66287D01*
X302836Y-66392D01*
X302747Y-66647D01*
X302672Y-66932D01*
X302626Y-67201D01*
X302597Y-67456D01*
Y-67561D01*
X302582Y-67651D01*
Y-67741D01*
Y-67801D01*
Y-67831D01*
Y-67846D01*
X302597Y-68056D01*
X302612Y-68251D01*
X302626Y-68416D01*
X302657Y-68581D01*
X302687Y-68730D01*
X302716Y-68850D01*
X302791Y-69075D01*
X302851Y-69240D01*
X302911Y-69345D01*
X302956Y-69420D01*
X302971Y-69435D01*
X303106Y-69600D01*
X303241Y-69720D01*
X303376Y-69810D01*
X303511Y-69870D01*
X303558Y-69883D01*
X305105Y-68336D01*
X305115Y-68251D01*
X305145Y-68026D01*
Y-67921D01*
X305160Y-67831D01*
Y-67771D01*
Y-67711D01*
Y-67681D01*
Y-67666D01*
X305145Y-67321D01*
X305100Y-67022D01*
X305025Y-66767D01*
X304950Y-66557D01*
X304875Y-66392D01*
X304800Y-66272D01*
X304755Y-66212D01*
X304740Y-66182D01*
X304620Y-66032D01*
X304485Y-65912D01*
X304335Y-65837D01*
X304186Y-65777D01*
X304051Y-65747D01*
X303946Y-65717D01*
D02*
G37*
G36*
X313737Y-60889D02*
X312717Y-61910D01*
X311531D01*
X309612Y-63829D01*
X309687Y-63769D01*
X309792Y-63709D01*
X309912Y-63649D01*
X310047Y-63589D01*
X310196Y-63544D01*
X310226Y-63529D01*
X310301Y-63514D01*
X310436Y-63499D01*
X311129D01*
X312717Y-61910D01*
X313674D01*
Y-71189D01*
X312085D01*
Y-67666D01*
X310646D01*
X310466Y-67651D01*
X310301D01*
X310152Y-67636D01*
X310017Y-67621D01*
X309777Y-67606D01*
X309612Y-67576D01*
X309492Y-67561D01*
X309417Y-67546D01*
X309402D01*
X309222Y-67486D01*
X309057Y-67426D01*
X308922Y-67351D01*
X308802Y-67276D01*
X308713Y-67216D01*
X308637Y-67156D01*
X308593Y-67126D01*
X308578Y-67111D01*
X308428Y-66961D01*
X308308Y-66812D01*
X308188Y-66662D01*
X308101Y-66531D01*
X306614Y-68019D01*
Y-71189D01*
X305205D01*
Y-70199D01*
X305055Y-70409D01*
X304920Y-70574D01*
X304785Y-70724D01*
X304665Y-70844D01*
X304545Y-70934D01*
X304470Y-71009D01*
X304410Y-71039D01*
X304395Y-71054D01*
X304216Y-71159D01*
X304036Y-71234D01*
X303871Y-71279D01*
X303721Y-71309D01*
X303586Y-71339D01*
X303496Y-71354D01*
X303284D01*
X301542Y-73097D01*
X301697Y-73242D01*
X302147Y-73602D01*
X302612Y-73917D01*
X303031Y-74187D01*
X303226Y-74292D01*
X303406Y-74397D01*
X303571Y-74471D01*
X303706Y-74546D01*
X303826Y-74591D01*
X303901Y-74636D01*
X303961Y-74651D01*
X303976Y-74666D01*
X304275Y-74786D01*
X304575Y-74876D01*
X305175Y-75041D01*
X305745Y-75161D01*
X306014Y-75206D01*
X306254Y-75236D01*
X306494Y-75266D01*
X306704Y-75296D01*
X306884Y-75311D01*
X307049D01*
X307169Y-75326D01*
X307348D01*
X307678Y-75311D01*
X308008Y-75296D01*
X308623Y-75221D01*
X308922Y-75176D01*
X309192Y-75116D01*
X309462Y-75056D01*
X309702Y-74996D01*
X309927Y-74936D01*
X310121Y-74876D01*
X310301Y-74816D01*
X310451Y-74771D01*
X310556Y-74726D01*
X310646Y-74696D01*
X310706Y-74666D01*
X310721D01*
X311291Y-74397D01*
X311815Y-74097D01*
X312070Y-73947D01*
X312295Y-73782D01*
X312505Y-73632D01*
X312700Y-73497D01*
X312865Y-73347D01*
X313030Y-73227D01*
X313164Y-73107D01*
X313269Y-73018D01*
X313359Y-72928D01*
X313419Y-72868D01*
X313464Y-72838D01*
X313479Y-72823D01*
X313884Y-72373D01*
X314259Y-71893D01*
X314559Y-71429D01*
X314828Y-71009D01*
X314933Y-70814D01*
X315038Y-70634D01*
X315113Y-70469D01*
X315188Y-70334D01*
X315233Y-70214D01*
X315278Y-70139D01*
X315293Y-70079D01*
X315308Y-70065D01*
X315428Y-69765D01*
X315518Y-69465D01*
X315683Y-68865D01*
X315803Y-68311D01*
X315848Y-68041D01*
X315878Y-67786D01*
X315908Y-67561D01*
X315938Y-67351D01*
X315953Y-67171D01*
Y-67006D01*
X315968Y-66887D01*
Y-66782D01*
Y-66722D01*
Y-66707D01*
X315953Y-66377D01*
X315938Y-66047D01*
X315863Y-65433D01*
X315818Y-65133D01*
X315758Y-64863D01*
X315698Y-64593D01*
X315638Y-64353D01*
X315578Y-64143D01*
X315518Y-63934D01*
X315458Y-63769D01*
X315413Y-63619D01*
X315368Y-63499D01*
X315338Y-63424D01*
X315308Y-63364D01*
Y-63349D01*
X315038Y-62779D01*
X314738Y-62255D01*
X314589Y-62015D01*
X314439Y-61790D01*
X314289Y-61580D01*
X314139Y-61385D01*
X314004Y-61205D01*
X313884Y-61055D01*
X313764Y-60921D01*
X313737Y-60889D01*
D02*
G37*
%LPD*%
D10*
X338671Y-120235D02*
G03*
X338671Y-120235I-3828J0D01*
G01*
Y-134077D02*
G03*
X338671Y-134077I-3828J0D01*
G01*
X328829D02*
G03*
X328829Y-134077I-3828J0D01*
G01*
Y-120235D02*
G03*
X328829Y-120235I-3828J0D01*
G01*
Y-106394D02*
G03*
X328829Y-106394I-3828J0D01*
G01*
X338671D02*
G03*
X338671Y-106394I-3828J0D01*
G01*
X328829Y-92894D02*
G03*
X328829Y-92894I-3828J0D01*
G01*
X338671D02*
G03*
X338671Y-92894I-3828J0D01*
G01*
X328829Y-78894D02*
G03*
X328829Y-78894I-3828J0D01*
G01*
X338671D02*
G03*
X338671Y-78894I-3828J0D01*
G01*
X328829Y-65394D02*
G03*
X328829Y-65394I-3828J0D01*
G01*
X338671D02*
G03*
X338671Y-65394I-3828J0D01*
G01*
X328829Y-51394D02*
G03*
X328829Y-51394I-3828J0D01*
G01*
X338671D02*
G03*
X338671Y-51394I-3828J0D01*
G01*
Y-37894D02*
G03*
X338671Y-37894I-3828J0D01*
G01*
X328829D02*
G03*
X328829Y-37894I-3828J0D01*
G01*
X59242Y-41929D02*
G03*
X59242Y-41929I-3828J0D01*
G01*
X69084D02*
G03*
X69084Y-41929I-3828J0D01*
G01*
X59242Y-55709D02*
G03*
X59242Y-55709I-3828J0D01*
G01*
X69084D02*
G03*
X69084Y-55709I-3828J0D01*
G01*
X59242Y-69488D02*
G03*
X59242Y-69488I-3828J0D01*
G01*
X69084D02*
G03*
X69084Y-69488I-3828J0D01*
G01*
X59242Y-83268D02*
G03*
X59242Y-83268I-3828J0D01*
G01*
X69084D02*
G03*
X69084Y-83268I-3828J0D01*
G01*
X59242Y-97047D02*
G03*
X59242Y-97047I-3828J0D01*
G01*
X69084D02*
G03*
X69084Y-97047I-3828J0D01*
G01*
X59242Y-110827D02*
G03*
X59242Y-110827I-3828J0D01*
G01*
X69084D02*
G03*
X69084Y-110827I-3828J0D01*
G01*
Y-124327D02*
G03*
X69084Y-124327I-3828J0D01*
G01*
X59242D02*
G03*
X59242Y-124327I-3828J0D01*
G01*
X69084Y-138327D02*
G03*
X69084Y-138327I-3828J0D01*
G01*
X59242D02*
G03*
X59242Y-138327I-3828J0D01*
G01*
X69084Y-151827D02*
G03*
X69084Y-151827I-3828J0D01*
G01*
X59242D02*
G03*
X59242Y-151827I-3828J0D01*
G01*
X69084Y-165827D02*
G03*
X69084Y-165827I-3828J0D01*
G01*
X59242D02*
G03*
X59242Y-165827I-3828J0D01*
G01*
X69084Y-179327D02*
G03*
X69084Y-179327I-3828J0D01*
G01*
X59242D02*
G03*
X59242Y-179327I-3828J0D01*
G01*
X69084Y-193327D02*
G03*
X69084Y-193327I-3828J0D01*
G01*
X59242D02*
G03*
X59242Y-193327I-3828J0D01*
G01*
X316339Y-42258D02*
Y-44882D01*
Y-43570D01*
X315683Y-42914D01*
X315027Y-42258D01*
X314371D01*
X311747Y-44882D02*
X310435D01*
X309779Y-44226D01*
Y-42914D01*
X310435Y-42258D01*
X311747D01*
X312403Y-42914D01*
Y-44226D01*
X311747Y-44882D01*
X308467Y-40946D02*
Y-44882D01*
X306499D01*
X305843Y-44226D01*
Y-43570D01*
Y-42914D01*
X306499Y-42258D01*
X308467D01*
X303875Y-44882D02*
X302564D01*
X301907Y-44226D01*
Y-42914D01*
X302564Y-42258D01*
X303875D01*
X304531Y-42914D01*
Y-44226D01*
X303875Y-44882D01*
X297972Y-42258D02*
X299940D01*
X300596Y-42914D01*
Y-44226D01*
X299940Y-44882D01*
X297972D01*
X296004D02*
X294692D01*
X294036Y-44226D01*
Y-42914D01*
X294692Y-42258D01*
X296004D01*
X296660Y-42914D01*
Y-44226D01*
X296004Y-44882D01*
X292724D02*
Y-42258D01*
X290756D01*
X290100Y-42914D01*
Y-44882D01*
X288132Y-41602D02*
Y-42258D01*
X288788D01*
X287476D01*
X288132D01*
Y-44226D01*
X287476Y-44882D01*
X285509Y-42258D02*
Y-44882D01*
Y-43570D01*
X284853Y-42914D01*
X284197Y-42258D01*
X283541D01*
X280917Y-44882D02*
X279605D01*
X278949Y-44226D01*
Y-42914D01*
X279605Y-42258D01*
X280917D01*
X281573Y-42914D01*
Y-44226D01*
X280917Y-44882D01*
X277637D02*
X276325D01*
X276981D01*
Y-40946D01*
X277637D01*
X274357Y-44882D02*
X273045D01*
X273701D01*
Y-40946D01*
X274357D01*
X269110Y-44882D02*
X270422D01*
X271078Y-44226D01*
Y-42914D01*
X270422Y-42258D01*
X269110D01*
X268454Y-42914D01*
Y-43570D01*
X271078D01*
X267142Y-42258D02*
Y-44882D01*
Y-43570D01*
X266486Y-42914D01*
X265830Y-42258D01*
X265174D01*
X316339Y-47639D02*
Y-51575D01*
Y-49607D01*
X313715D01*
Y-47639D01*
Y-51575D01*
X312403Y-47639D02*
Y-51575D01*
X311091Y-50263D01*
X309779Y-51575D01*
Y-47639D01*
X300596Y-48295D02*
X299940Y-47639D01*
X298628D01*
X297972Y-48295D01*
Y-50919D01*
X298628Y-51575D01*
X299940D01*
X300596Y-50919D01*
Y-48295D01*
X296660Y-51575D02*
Y-50919D01*
X296004D01*
Y-51575D01*
X296660D01*
X293380D02*
X292068D01*
X292724D01*
Y-47639D01*
X293380Y-48295D01*
X290100Y-51575D02*
Y-50919D01*
X289444D01*
Y-51575D01*
X290100D01*
X286821Y-48295D02*
X286165Y-47639D01*
X284853D01*
X284197Y-48295D01*
Y-50919D01*
X284853Y-51575D01*
X286165D01*
X286821Y-50919D01*
Y-48295D01*
D20*
X321041Y-140125D02*
X339741D01*
X320768Y-113189D02*
X339469D01*
X320768Y-85630D02*
X339469D01*
X320768Y-58071D02*
X339469D01*
X320768Y-31201D02*
X339469D01*
X60236Y-104331D02*
X70079D01*
X50394D02*
X60236D01*
Y-198031D02*
Y-104331D01*
X50394Y-90551D02*
X60236D01*
X70079D01*
X50394Y-76378D02*
X60236D01*
X70079D01*
X50394Y-62992D02*
X60236D01*
X70079D01*
X50394Y-48819D02*
X60236D01*
X70079D01*
X50394Y-35039D02*
X60236D01*
X70079D01*
X327309Y-121735D02*
Y-118980D01*
X325932D01*
X325473Y-119439D01*
Y-120358D01*
X325932Y-120817D01*
X327309D01*
X326391D02*
X325473Y-121735D01*
X324554Y-118980D02*
X322718Y-121735D01*
Y-118980D02*
X324554Y-121735D01*
X327309Y-107994D02*
Y-105239D01*
X325932D01*
X325473Y-105699D01*
Y-106617D01*
X325932Y-107076D01*
X327309D01*
X326391D02*
X325473Y-107994D01*
X324554D02*
Y-106158D01*
X323636Y-105239D01*
X322718Y-106158D01*
Y-107994D01*
Y-106617D01*
X324554D01*
X327309Y-94254D02*
Y-91499D01*
X325932D01*
X325473Y-91958D01*
Y-92876D01*
X325932Y-93336D01*
X327309D01*
X326391D02*
X325473Y-94254D01*
X324554Y-91499D02*
Y-94254D01*
X323177D01*
X322718Y-93795D01*
Y-93336D01*
X323177Y-92876D01*
X324554D01*
X323177D01*
X322718Y-92417D01*
Y-91958D01*
X323177Y-91499D01*
X324554D01*
X327309Y-77759D02*
X325473D01*
X326391D01*
Y-80514D01*
X324554Y-77759D02*
Y-80514D01*
X323177D01*
X322718Y-80054D01*
Y-79595D01*
X323177Y-79136D01*
X324554D01*
X323177D01*
X322718Y-78677D01*
Y-78218D01*
X323177Y-77759D01*
X324554D01*
X327309Y-66773D02*
Y-64018D01*
X325932D01*
X325473Y-64477D01*
Y-65396D01*
X325932Y-65855D01*
X327309D01*
X326391D02*
X325473Y-66773D01*
X324554D02*
Y-64936D01*
X323636Y-64018D01*
X322718Y-64936D01*
Y-66773D01*
Y-65396D01*
X324554D01*
X325473Y-50737D02*
X325932Y-50278D01*
X326850D01*
X327309Y-50737D01*
Y-52573D01*
X326850Y-53033D01*
X325932D01*
X325473Y-52573D01*
X324554Y-50278D02*
Y-53033D01*
X322718D01*
X325473Y-36996D02*
X325932Y-36537D01*
X326850D01*
X327309Y-36996D01*
Y-38833D01*
X326850Y-39292D01*
X325932D01*
X325473Y-38833D01*
X324554Y-36537D02*
Y-39292D01*
Y-37915D01*
X322718D01*
Y-36537D01*
Y-39292D01*
X337210Y-118880D02*
X335373D01*
X336291D01*
Y-121635D01*
X334454Y-118880D02*
X332618Y-121635D01*
Y-118880D02*
X334454Y-121635D01*
X337210Y-107895D02*
Y-105140D01*
X335832D01*
X335373Y-105599D01*
Y-106517D01*
X335832Y-106976D01*
X337210D01*
X336291D02*
X335373Y-107895D01*
X334454D02*
Y-106058D01*
X333536Y-105140D01*
X332618Y-106058D01*
Y-107895D01*
Y-106517D01*
X334454D01*
X337210Y-94154D02*
Y-91399D01*
X335832D01*
X335373Y-91858D01*
Y-92777D01*
X335832Y-93236D01*
X337210D01*
X336291D02*
X335373Y-94154D01*
X334454Y-91399D02*
Y-94154D01*
X333077D01*
X332618Y-93695D01*
Y-93236D01*
X333077Y-92777D01*
X334454D01*
X333077D01*
X332618Y-92317D01*
Y-91858D01*
X333077Y-91399D01*
X334454D01*
X337210Y-77659D02*
X335373D01*
X336291D01*
Y-80414D01*
X334454D02*
Y-78577D01*
X333536Y-77659D01*
X332618Y-78577D01*
Y-80414D01*
Y-79036D01*
X334454D01*
X337210Y-66673D02*
Y-63918D01*
X335832D01*
X335373Y-64377D01*
Y-65296D01*
X335832Y-65755D01*
X337210D01*
X336291D02*
X335373Y-66673D01*
X334454Y-63918D02*
Y-66673D01*
X333077D01*
X332618Y-66214D01*
Y-65755D01*
X333077Y-65296D01*
X334454D01*
X333077D01*
X332618Y-64836D01*
Y-64377D01*
X333077Y-63918D01*
X334454D01*
X335373Y-50637D02*
X335832Y-50178D01*
X336750D01*
X337210Y-50637D01*
Y-52473D01*
X336750Y-52933D01*
X335832D01*
X335373Y-52473D01*
X334454Y-50178D02*
Y-52933D01*
X332618D01*
X335373Y-36896D02*
X335832Y-36437D01*
X336750D01*
X337210Y-36896D01*
Y-38733D01*
X336750Y-39192D01*
X335832D01*
X335373Y-38733D01*
X334454Y-36437D02*
Y-39192D01*
Y-37815D01*
X332618D01*
Y-36437D01*
Y-39192D01*
X56103Y-43307D02*
Y-40552D01*
X57480Y-41930D01*
X55644D01*
X54725Y-43307D02*
X53807D01*
X54266D01*
Y-40552D01*
X54725Y-41011D01*
X66339Y-43307D02*
Y-40552D01*
X67716Y-41930D01*
X65880D01*
X64961Y-41011D02*
X64502Y-40552D01*
X63584D01*
X63125Y-41011D01*
Y-42848D01*
X63584Y-43307D01*
X64502D01*
X64961Y-42848D01*
Y-41011D01*
X57480Y-54791D02*
X57021Y-54332D01*
X56103D01*
X55644Y-54791D01*
Y-55250D01*
X56103Y-55709D01*
X56562D01*
X56103D01*
X55644Y-56168D01*
Y-56627D01*
X56103Y-57087D01*
X57021D01*
X57480Y-56627D01*
X54725Y-57087D02*
X53807D01*
X54266D01*
Y-54332D01*
X54725Y-54791D01*
X67716D02*
X67257Y-54332D01*
X66339D01*
X65880Y-54791D01*
Y-55250D01*
X66339Y-55709D01*
X66798D01*
X66339D01*
X65880Y-56168D01*
Y-56627D01*
X66339Y-57087D01*
X67257D01*
X67716Y-56627D01*
X64961Y-54791D02*
X64502Y-54332D01*
X63584D01*
X63125Y-54791D01*
Y-56627D01*
X63584Y-57087D01*
X64502D01*
X64961Y-56627D01*
Y-54791D01*
X55644Y-70866D02*
X57480D01*
X55644Y-69029D01*
Y-68570D01*
X56103Y-68111D01*
X57021D01*
X57480Y-68570D01*
X54725Y-70866D02*
X53807D01*
X54266D01*
Y-68111D01*
X54725Y-68570D01*
X65486Y-70866D02*
X67323D01*
X65486Y-69029D01*
Y-68570D01*
X65945Y-68111D01*
X66864D01*
X67323Y-68570D01*
X64568D02*
X64109Y-68111D01*
X63190D01*
X62731Y-68570D01*
Y-70407D01*
X63190Y-70866D01*
X64109D01*
X64568Y-70407D01*
Y-68570D01*
X57087Y-84646D02*
X56168D01*
X56627D01*
Y-81891D01*
X57087Y-82350D01*
X54791Y-84646D02*
X53872D01*
X54332D01*
Y-81891D01*
X54791Y-82350D01*
X67323Y-84646D02*
X66404D01*
X66864D01*
Y-81891D01*
X67323Y-82350D01*
X65027D02*
X64568Y-81891D01*
X63649D01*
X63190Y-82350D01*
Y-84187D01*
X63649Y-84646D01*
X64568D01*
X65027Y-84187D01*
Y-82350D01*
X57480Y-96129D02*
X57021Y-95670D01*
X56103D01*
X55644Y-96129D01*
Y-97966D01*
X56103Y-98425D01*
X57021D01*
X57480Y-97966D01*
Y-96129D01*
X54725Y-98425D02*
X53807D01*
X54266D01*
Y-95670D01*
X54725Y-96129D01*
X67323D02*
X66864Y-95670D01*
X65945D01*
X65486Y-96129D01*
Y-97966D01*
X65945Y-98425D01*
X66864D01*
X67323Y-97966D01*
Y-96129D01*
X64568D02*
X64109Y-95670D01*
X63190D01*
X62731Y-96129D01*
Y-97966D01*
X63190Y-98425D01*
X64109D01*
X64568Y-97966D01*
Y-96129D01*
X66245Y-109370D02*
X67164D01*
X67623Y-109829D01*
Y-111666D01*
X67164Y-112125D01*
X66245D01*
X65786Y-111666D01*
Y-109829D01*
X66245Y-109370D01*
X63031Y-109829D02*
X63490Y-109370D01*
X64409D01*
X64868Y-109829D01*
Y-111666D01*
X64409Y-112125D01*
X63490D01*
X63031Y-111666D01*
X57623Y-109470D02*
X56704D01*
X57164D01*
Y-112225D01*
X57623D01*
X56704D01*
X53490Y-109929D02*
X53949Y-109470D01*
X54868D01*
X55327Y-109929D01*
Y-111766D01*
X54868Y-112225D01*
X53949D01*
X53490Y-111766D01*
X66245Y-122770D02*
X67164D01*
X67623Y-123229D01*
Y-125066D01*
X67164Y-125525D01*
X66245D01*
X65786Y-125066D01*
Y-123229D01*
X66245Y-122770D01*
X63490Y-125525D02*
Y-122770D01*
X64868Y-124148D01*
X63031D01*
X57723Y-122870D02*
X56805D01*
X57264D01*
Y-125625D01*
X57723D01*
X56805D01*
X54049D02*
Y-122870D01*
X55427Y-124248D01*
X53590D01*
X57623Y-136970D02*
X56704D01*
X57164D01*
Y-139725D01*
X57623D01*
X56704D01*
X55327Y-137429D02*
X54868Y-136970D01*
X53949D01*
X53490Y-137429D01*
Y-137889D01*
X53949Y-138348D01*
X54409D01*
X53949D01*
X53490Y-138807D01*
Y-139266D01*
X53949Y-139725D01*
X54868D01*
X55327Y-139266D01*
X66145Y-136970D02*
X67064D01*
X67523Y-137429D01*
Y-139266D01*
X67064Y-139725D01*
X66145D01*
X65686Y-139266D01*
Y-137429D01*
X66145Y-136970D01*
X64768Y-137429D02*
X64309Y-136970D01*
X63390D01*
X62931Y-137429D01*
Y-137889D01*
X63390Y-138348D01*
X63850D01*
X63390D01*
X62931Y-138807D01*
Y-139266D01*
X63390Y-139725D01*
X64309D01*
X64768Y-139266D01*
X66145Y-150270D02*
X67064D01*
X67523Y-150729D01*
Y-152566D01*
X67064Y-153025D01*
X66145D01*
X65686Y-152566D01*
Y-150729D01*
X66145Y-150270D01*
X62931Y-153025D02*
X64768D01*
X62931Y-151189D01*
Y-150729D01*
X63390Y-150270D01*
X64309D01*
X64768Y-150729D01*
X57523Y-150370D02*
X56604D01*
X57064D01*
Y-153125D01*
X57523D01*
X56604D01*
X53390D02*
X55227D01*
X53390Y-151288D01*
Y-150829D01*
X53850Y-150370D01*
X54768D01*
X55227Y-150829D01*
X65623Y-164245D02*
X66541D01*
X67000Y-164704D01*
Y-166541D01*
X66541Y-167000D01*
X65623D01*
X65163Y-166541D01*
Y-164704D01*
X65623Y-164245D01*
X64245Y-167000D02*
X63327D01*
X63786D01*
Y-164245D01*
X64245Y-164704D01*
X57100Y-164445D02*
X56182D01*
X56641D01*
Y-167200D01*
X57100D01*
X56182D01*
X54804D02*
X53886D01*
X54345D01*
Y-164445D01*
X54804Y-164904D01*
X66245Y-177870D02*
X67164D01*
X67623Y-178329D01*
Y-180166D01*
X67164Y-180625D01*
X66245D01*
X65786Y-180166D01*
Y-178329D01*
X66245Y-177870D01*
X64868Y-178329D02*
X64409Y-177870D01*
X63490D01*
X63031Y-178329D01*
Y-180166D01*
X63490Y-180625D01*
X64409D01*
X64868Y-180166D01*
Y-178329D01*
X57623Y-177970D02*
X56704D01*
X57164D01*
Y-180725D01*
X57623D01*
X56704D01*
X55327Y-178429D02*
X54868Y-177970D01*
X53949D01*
X53490Y-178429D01*
Y-180266D01*
X53949Y-180725D01*
X54868D01*
X55327Y-180266D01*
Y-178429D01*
X68110Y-204331D02*
X67192D01*
X67651D01*
Y-201576D01*
X68110Y-202035D01*
X63978Y-204331D02*
X65814D01*
X63978Y-202494D01*
Y-202035D01*
X64437Y-201576D01*
X65355D01*
X65814Y-202035D01*
X63059Y-202953D02*
X61223D01*
X58468Y-204331D02*
X60304D01*
X58468Y-202494D01*
Y-202035D01*
X58927Y-201576D01*
X59845D01*
X60304Y-202035D01*
X56172Y-204331D02*
Y-201576D01*
X57549Y-202953D01*
X55713D01*
X54794Y-201576D02*
Y-203412D01*
X53876Y-204331D01*
X52958Y-203412D01*
Y-201576D01*
D21*
X187008Y-5906D02*
D03*
Y-230315D02*
D03*
D124*
X298085Y-39002D02*
X302285D01*
X297785Y-38902D02*
X302585D01*
X297585Y-38802D02*
X302785D01*
X297385Y-38702D02*
X302985D01*
X297285Y-38602D02*
X303085D01*
X297185Y-38502D02*
X303185D01*
X297085Y-38402D02*
X303285D01*
X296985Y-38302D02*
X303385D01*
X296885Y-38202D02*
X303485D01*
X296885Y-38102D02*
X303485D01*
X296785Y-38002D02*
X303585D01*
X296685Y-37802D02*
X303685D01*
X296685Y-37702D02*
X303685D01*
X296585Y-37602D02*
X303785D01*
X296585Y-37502D02*
X303785D01*
X296785Y-37902D02*
X303685D01*
X296585Y-37302D02*
X303885D01*
X296585Y-37402D02*
X303885D01*
X296585Y-37202D02*
X303985D01*
X296585Y-37102D02*
X303985D01*
X296585Y-37002D02*
X304085D01*
X296585Y-36902D02*
X304085D01*
X296585Y-36802D02*
X304185D01*
X296585Y-36702D02*
X304185D01*
X296585Y-36602D02*
X304285D01*
X296585Y-36502D02*
X304285D01*
X296585Y-36402D02*
X304385D01*
X296685Y-36302D02*
X304385D01*
X296685Y-36202D02*
X304485D01*
X296685Y-36102D02*
X304485D01*
X296785Y-36002D02*
X304585D01*
X296785Y-35902D02*
X304585D01*
X296885Y-35802D02*
X304685D01*
X295885Y-24802D02*
X303285D01*
X295885Y-25502D02*
X303285D01*
X295885Y-25002D02*
X303285D01*
X295885Y-25602D02*
X303285D01*
X295885Y-25702D02*
X303285D01*
X295885Y-24502D02*
X303285D01*
X295885Y-24402D02*
X303285D01*
X295885Y-24902D02*
X303285D01*
X295885Y-24602D02*
X303285D01*
X295885Y-24702D02*
X303285D01*
X295885Y-25402D02*
X303285D01*
X295885Y-25302D02*
X303285D01*
X295885Y-26502D02*
X303285D01*
X295885Y-26402D02*
X303285D01*
X295885Y-26302D02*
X303285D01*
X295885Y-26202D02*
X303285D01*
X295885Y-26102D02*
X303285D01*
X295885Y-26002D02*
X303285D01*
X295885Y-24302D02*
X303285D01*
X295885Y-25902D02*
X303285D01*
X295885Y-25802D02*
X303285D01*
X295885Y-25202D02*
X303285D01*
X295885Y-25102D02*
X303285D01*
X295885Y-24202D02*
X303285D01*
X295885Y-24102D02*
X303285D01*
X295885Y-26702D02*
X303385D01*
X295885Y-26602D02*
X303385D01*
X295885Y-26802D02*
X303385D01*
X295885Y-26902D02*
X303385D01*
X295885Y-27102D02*
X303485D01*
X295885Y-24002D02*
X303285D01*
X295885Y-23902D02*
X303285D01*
X295885Y-23802D02*
X303285D01*
X295885Y-23702D02*
X303285D01*
X295885Y-23602D02*
X303285D01*
X295885Y-23502D02*
X303285D01*
X295885Y-23402D02*
X303285D01*
X295885Y-23302D02*
X303285D01*
X295885Y-23202D02*
X303285D01*
X295885Y-23102D02*
X303285D01*
X295885Y-23002D02*
X303285D01*
X295885Y-22902D02*
X303285D01*
X295885Y-22802D02*
X303285D01*
X295885Y-22702D02*
X303285D01*
X295885Y-22602D02*
X303285D01*
X295885Y-22502D02*
X303285D01*
X295885Y-22402D02*
X303285D01*
X295885Y-22302D02*
X303285D01*
X295885Y-22202D02*
X303285D01*
X295885Y-22102D02*
X303285D01*
X295985Y-22002D02*
X303285D01*
X295985Y-21902D02*
X303285D01*
X295985Y-21802D02*
X303285D01*
X295985Y-21702D02*
X303285D01*
X295985Y-21602D02*
X303285D01*
X296085Y-21502D02*
X303285D01*
X296985Y-35602D02*
X304685D01*
X296985Y-35702D02*
X304685D01*
X297085Y-35502D02*
X304785D01*
X297085Y-35402D02*
X304785D01*
X297185Y-35202D02*
X304885D01*
X297185Y-35302D02*
X304885D01*
X297285Y-35002D02*
X304985D01*
X297285Y-35102D02*
X304985D01*
X297385Y-34802D02*
X305085D01*
X297385Y-34902D02*
X305085D01*
X297485Y-34702D02*
X305185D01*
X297585Y-34602D02*
X305185D01*
X297585Y-34502D02*
X305285D01*
X297685Y-34402D02*
X305285D01*
X297685Y-34302D02*
X305385D01*
X297785Y-34202D02*
X305385D01*
X297785Y-34102D02*
X305485D01*
X297885Y-34002D02*
X305485D01*
X297885Y-33902D02*
X305585D01*
X297985Y-33802D02*
X305585D01*
X297985Y-33702D02*
X305685D01*
X298085Y-33602D02*
X305685D01*
X298085Y-33502D02*
X305785D01*
X298185Y-33402D02*
X305785D01*
X298285Y-33302D02*
X305885D01*
X298285Y-33202D02*
X305985D01*
X298385Y-33102D02*
X305985D01*
X298385Y-33002D02*
X306085D01*
X298485Y-32902D02*
X306285D01*
X298485Y-32802D02*
X306385D01*
X298585Y-32702D02*
X306585D01*
X298585Y-32602D02*
X306785D01*
X295885Y-27002D02*
X303485D01*
X295885Y-27302D02*
X303585D01*
X295885Y-27202D02*
X303585D01*
X295985Y-27402D02*
X303685D01*
X295985Y-27502D02*
X303785D01*
X295985Y-27602D02*
X303885D01*
X295985Y-27702D02*
X303985D01*
X295985Y-27802D02*
X304085D01*
X296085Y-27902D02*
X304285D01*
X296085Y-28002D02*
X304585D01*
X296085Y-21402D02*
X304685D01*
X296185Y-21302D02*
X304685D01*
X296185Y-21202D02*
X304685D01*
X296285Y-21102D02*
X304685D01*
X296385Y-21002D02*
X304685D01*
X296385Y-20902D02*
X304685D01*
X296485Y-20802D02*
X304685D01*
X296585Y-20702D02*
X304785D01*
X296685Y-20602D02*
X304785D01*
X296785Y-20502D02*
X304885D01*
X298685Y-32502D02*
X307085D01*
X305485Y-20602D02*
X306185D01*
X305385Y-20502D02*
X306285D01*
X305585Y-20702D02*
X306185D01*
X305685Y-21002D02*
X306085D01*
X305685Y-21102D02*
X306085D01*
X305685Y-21202D02*
X306085D01*
X305685Y-21302D02*
X306085D01*
X305685Y-21402D02*
X306085D01*
X305685Y-20902D02*
X306085D01*
X305685Y-20802D02*
X306085D01*
X296085Y-28102D02*
X317285D01*
X309885Y-37602D02*
X317185D01*
X309885Y-37502D02*
X317185D01*
X310085Y-38002D02*
X316985D01*
X309985Y-37902D02*
X317085D01*
X309985Y-37802D02*
X317085D01*
X309985Y-37702D02*
X317085D01*
X310185Y-38202D02*
X316885D01*
X310585Y-38602D02*
X316485D01*
X310685Y-38702D02*
X316385D01*
X311085Y-38902D02*
X315985D01*
X311385Y-39002D02*
X315685D01*
X309885Y-37402D02*
X317185D01*
X310885Y-38802D02*
X316185D01*
X309885Y-37302D02*
X317185D01*
X310485Y-38502D02*
X316585D01*
X310385Y-38402D02*
X316685D01*
X310285Y-38302D02*
X316785D01*
X310185Y-38102D02*
X316985D01*
X309885Y-37202D02*
X317285D01*
X309885Y-37102D02*
X317285D01*
X309885Y-37002D02*
X317285D01*
X309885Y-36902D02*
X317285D01*
X309885Y-36802D02*
X317285D01*
X309885Y-36702D02*
X317285D01*
X309885Y-36602D02*
X317285D01*
X309885Y-36502D02*
X317285D01*
X309885Y-36402D02*
X317285D01*
X309885Y-36302D02*
X317285D01*
X309885Y-36202D02*
X317285D01*
X309885Y-36102D02*
X317285D01*
X309885Y-36002D02*
X317285D01*
X309885Y-35902D02*
X317285D01*
X309885Y-35802D02*
X317285D01*
X309885Y-35702D02*
X317285D01*
X309885Y-35602D02*
X317285D01*
X309885Y-35502D02*
X317285D01*
X309885Y-35402D02*
X317285D01*
X309885Y-35302D02*
X317285D01*
X309885Y-35202D02*
X317285D01*
X309885Y-35102D02*
X317285D01*
X309885Y-35002D02*
X317285D01*
X309885Y-34902D02*
X317285D01*
X309885Y-34802D02*
X317285D01*
X309885Y-34702D02*
X317285D01*
X309885Y-34602D02*
X317285D01*
X309885Y-34502D02*
X317285D01*
X309785Y-34302D02*
X317285D01*
X298685Y-32402D02*
X317285D01*
X298785Y-32102D02*
X317285D01*
X298685Y-31102D02*
X317285D01*
X298685Y-31002D02*
X317285D01*
X298585Y-30902D02*
X317285D01*
X298585Y-30802D02*
X317285D01*
X298485Y-30702D02*
X317285D01*
X298485Y-30602D02*
X317285D01*
X298385Y-30502D02*
X317285D01*
X298285Y-30402D02*
X317285D01*
X298185Y-30302D02*
X317285D01*
X298085Y-30202D02*
X317285D01*
X297985Y-30102D02*
X317285D01*
X297885Y-30002D02*
X317285D01*
X297785Y-29902D02*
X317285D01*
X297685Y-29802D02*
X317285D01*
X297585Y-29702D02*
X317285D01*
X297485Y-29602D02*
X317285D01*
X297385Y-29502D02*
X317285D01*
X297285Y-29402D02*
X317285D01*
X297185Y-29302D02*
X317285D01*
X297085Y-29202D02*
X317285D01*
X296985Y-29102D02*
X317285D01*
X296885Y-29002D02*
X317285D01*
X296785Y-28902D02*
X317285D01*
X296685Y-28802D02*
X317285D01*
X296585Y-28702D02*
X317285D01*
X296485Y-28602D02*
X317285D01*
X296385Y-28502D02*
X317285D01*
X296285Y-28402D02*
X317285D01*
X296285Y-28302D02*
X317285D01*
X296185Y-28202D02*
X317285D01*
X309785Y-34202D02*
X317285D01*
X309785Y-34102D02*
X317285D01*
X309785Y-34002D02*
X317285D01*
X309785Y-33902D02*
X317285D01*
X309685Y-33802D02*
X317285D01*
X309685Y-33702D02*
X317285D01*
X309685Y-33602D02*
X317285D01*
X309585Y-33502D02*
X317285D01*
X309485Y-33402D02*
X317285D01*
X309485Y-33302D02*
X317285D01*
X309385Y-33202D02*
X317285D01*
X309285Y-33102D02*
X317285D01*
X309185Y-33002D02*
X317285D01*
X309085Y-32902D02*
X317285D01*
X308985Y-32802D02*
X317285D01*
X308785Y-32702D02*
X317285D01*
X308585Y-32602D02*
X317285D01*
X308185Y-32502D02*
X317285D01*
X298785Y-32302D02*
X317285D01*
X298785Y-32202D02*
X317285D01*
X298785Y-32002D02*
X317285D01*
X298785Y-31902D02*
X317285D01*
X298785Y-31802D02*
X317285D01*
X298785Y-31702D02*
X317285D01*
X298785Y-31602D02*
X317285D01*
X298785Y-31502D02*
X317285D01*
X298785Y-31402D02*
X317285D01*
X298785Y-31302D02*
X317285D01*
X298785Y-31202D02*
X317285D01*
X309885Y-22702D02*
X317285D01*
X309885Y-22602D02*
X317285D01*
X309885Y-22502D02*
X317285D01*
X309885Y-27702D02*
X317285D01*
X309885Y-34402D02*
X317285D01*
X309885Y-28002D02*
X317285D01*
X309885Y-27902D02*
X317285D01*
X309885Y-27802D02*
X317285D01*
X309885Y-27602D02*
X317285D01*
X309885Y-27502D02*
X317285D01*
X309885Y-27402D02*
X317285D01*
X309885Y-27302D02*
X317285D01*
X309885Y-27202D02*
X317285D01*
X309885Y-27102D02*
X317285D01*
X309885Y-27002D02*
X317285D01*
X309885Y-26902D02*
X317285D01*
X309885Y-26802D02*
X317285D01*
X309885Y-26702D02*
X317285D01*
X310685Y-26602D02*
X317285D01*
X310785Y-25902D02*
X317285D01*
X310685Y-25802D02*
X317285D01*
X309885Y-25702D02*
X317285D01*
X309885Y-25602D02*
X317285D01*
X309885Y-25502D02*
X317285D01*
X309885Y-25402D02*
X317285D01*
X309885Y-25302D02*
X317285D01*
X310685Y-25202D02*
X317285D01*
X310785Y-25102D02*
X317285D01*
X310785Y-24502D02*
X317285D01*
X310685Y-24402D02*
X317285D01*
X309885Y-24302D02*
X317285D01*
X309885Y-24202D02*
X317285D01*
X309885Y-24102D02*
X317285D01*
X309885Y-24002D02*
X317285D01*
X309885Y-23902D02*
X317285D01*
X310685Y-23802D02*
X317285D01*
X310685Y-23002D02*
X317285D01*
X309885Y-22902D02*
X317285D01*
X309885Y-22802D02*
X317285D01*
X309885Y-22402D02*
X317285D01*
X310785Y-26502D02*
X317285D01*
X310885Y-26402D02*
X317285D01*
X310885Y-26302D02*
X317285D01*
X310885Y-26202D02*
X317285D01*
X310885Y-26102D02*
X317285D01*
X310885Y-26002D02*
X317285D01*
X310885Y-25002D02*
X317285D01*
X310885Y-24902D02*
X317285D01*
X310885Y-24802D02*
X317285D01*
X310885Y-24702D02*
X317285D01*
X310885Y-24602D02*
X317285D01*
X310785Y-23702D02*
X317285D01*
X310885Y-23602D02*
X317285D01*
X310885Y-23502D02*
X317285D01*
X310885Y-23402D02*
X317285D01*
X310885Y-23302D02*
X317285D01*
X310885Y-23202D02*
X317285D01*
X310785Y-23102D02*
X317285D01*
X307085Y-21402D02*
X307485D01*
X307085Y-21302D02*
X307485D01*
X307085Y-21202D02*
X307485D01*
X307085Y-21102D02*
X307485D01*
X307085Y-21002D02*
X307485D01*
X307085Y-20902D02*
X307485D01*
X306985Y-20802D02*
X307485D01*
X306985Y-20702D02*
X307485D01*
X306885Y-20602D02*
X307585D01*
X306785Y-20502D02*
X307685D01*
X296885Y-20402D02*
X317285D01*
X296985Y-20302D02*
X317285D01*
X297085Y-20202D02*
X317285D01*
X297185Y-20102D02*
X317285D01*
X297285Y-20002D02*
X317285D01*
X297385Y-19902D02*
X317285D01*
X297485Y-19802D02*
X317285D01*
X297585Y-19702D02*
X317285D01*
X297685Y-19602D02*
X317285D01*
X297785Y-19502D02*
X317285D01*
X297885Y-19402D02*
X317285D01*
X297985Y-19302D02*
X317285D01*
X298085Y-19202D02*
X317285D01*
X298185Y-19102D02*
X317285D01*
X298285Y-19002D02*
X317285D01*
X298385Y-18902D02*
X317285D01*
X298485Y-18802D02*
X317285D01*
X298585Y-18702D02*
X317185D01*
X298685Y-18602D02*
X317185D01*
X298785Y-18502D02*
X317185D01*
X298885Y-18402D02*
X317185D01*
X298985Y-18302D02*
X317085D01*
X309885Y-22302D02*
X317285D01*
X309885Y-22202D02*
X317285D01*
X309885Y-22102D02*
X317285D01*
X309885Y-22002D02*
X317285D01*
X309885Y-21902D02*
X317285D01*
X309885Y-21802D02*
X317285D01*
X309885Y-21702D02*
X317285D01*
X309885Y-21602D02*
X317285D01*
X309885Y-21502D02*
X317285D01*
X308485Y-21402D02*
X317285D01*
X308485Y-21302D02*
X317285D01*
X308485Y-21202D02*
X317285D01*
X308485Y-21102D02*
X317285D01*
X308485Y-21002D02*
X317285D01*
X308485Y-20902D02*
X317285D01*
X308385Y-20802D02*
X317285D01*
X308385Y-20702D02*
X317285D01*
X308285Y-20602D02*
X317285D01*
X308185Y-20502D02*
X317285D01*
X299085Y-18202D02*
X317085D01*
X299185Y-18102D02*
X316985D01*
X299285Y-18002D02*
X316985D01*
X299385Y-17902D02*
X316885D01*
X299485Y-17802D02*
X316885D01*
X299585Y-17702D02*
X316785D01*
X299685Y-17602D02*
X316685D01*
X299785Y-17502D02*
X316585D01*
X299985Y-17402D02*
X316485D01*
X300085Y-17302D02*
X316285D01*
X300285Y-17202D02*
X316085D01*
X300485Y-17102D02*
X315885D01*
X301085Y-17002D02*
X315285D01*
D125*
X326149Y-133399D02*
X326477Y-133071D01*
X327133D01*
X327461Y-133399D01*
Y-134711D01*
X327133Y-135039D01*
X326477D01*
X326149Y-134711D01*
Y-134055D01*
X326805D01*
X325493Y-135039D02*
Y-133071D01*
X324181Y-135039D01*
Y-133071D01*
X323525D02*
Y-135039D01*
X322541D01*
X322213Y-134711D01*
Y-133399D01*
X322541Y-133071D01*
X323525D01*
X336188Y-133498D02*
X336516Y-133170D01*
X337172D01*
X337500Y-133498D01*
Y-134810D01*
X337172Y-135138D01*
X336516D01*
X336188Y-134810D01*
Y-134154D01*
X336844D01*
X335532Y-135138D02*
Y-133170D01*
X334220Y-135138D01*
Y-133170D01*
X333564D02*
Y-135138D01*
X332580D01*
X332252Y-134810D01*
Y-133498D01*
X332580Y-133170D01*
X333564D01*
X57800Y-192532D02*
Y-193844D01*
X57144Y-194500D01*
X56488Y-193844D01*
Y-192532D01*
X54520Y-192860D02*
X54848Y-192532D01*
X55504D01*
X55832Y-192860D01*
Y-194172D01*
X55504Y-194500D01*
X54848D01*
X54520Y-194172D01*
X52552Y-192860D02*
X52880Y-192532D01*
X53536D01*
X53864Y-192860D01*
Y-194172D01*
X53536Y-194500D01*
X52880D01*
X52552Y-194172D01*
X66488Y-192760D02*
X66816Y-192432D01*
X67472D01*
X67800Y-192760D01*
Y-194072D01*
X67472Y-194400D01*
X66816D01*
X66488Y-194072D01*
Y-193416D01*
X67144D01*
X65832Y-194400D02*
Y-192432D01*
X64520Y-194400D01*
Y-192432D01*
X63864D02*
Y-194400D01*
X62880D01*
X62552Y-194072D01*
Y-192760D01*
X62880Y-192432D01*
X63864D01*
M02*
