G04*
G04 #@! TF.GenerationSoftware,Altium Limited,Altium Designer,21.8.1 (53)*
G04*
G04 Layer_Color=65535*
%FSLAX25Y25*%
%MOIN*%
G70*
G04*
G04 #@! TF.SameCoordinates,D7649F9F-AB44-4DDD-A0E2-BCBC4CF329E9*
G04*
G04*
G04 #@! TF.FilePolarity,Positive*
G04*
G01*
G75*
%ADD10C,0.00787*%
%ADD11C,0.01000*%
%ADD12C,0.00984*%
%ADD13C,0.02362*%
%ADD14C,0.00394*%
%ADD15C,0.00500*%
%ADD16C,0.00200*%
%ADD17C,0.01575*%
%ADD18C,0.00600*%
%ADD19C,0.01181*%
%ADD20C,0.00709*%
%ADD21R,3.74016X0.11811*%
G36*
X71358Y-219124D02*
X68858D01*
Y-221624D01*
X71358D01*
Y-219124D01*
D02*
G37*
G36*
X71624Y-201831D02*
X69124D01*
Y-204331D01*
X71624D01*
Y-201831D01*
D02*
G37*
G36*
X71398Y-184774D02*
X68898D01*
Y-187274D01*
X71398D01*
Y-184774D01*
D02*
G37*
G36*
X71496Y-167549D02*
X68996D01*
Y-170049D01*
X71496D01*
Y-167549D01*
D02*
G37*
G36*
X71329Y-150256D02*
X68829D01*
Y-152756D01*
X71329D01*
Y-150256D01*
D02*
G37*
G36*
X93504Y-133642D02*
X91004D01*
Y-131142D01*
X93504D01*
Y-133642D01*
D02*
G37*
G36*
X312953Y-139097D02*
X311453D01*
Y-138097D01*
X312953D01*
Y-139097D01*
D02*
G37*
G36*
X93504Y-152539D02*
X91004D01*
Y-150039D01*
X93504D01*
Y-152539D01*
D02*
G37*
G36*
Y-171713D02*
X91004D01*
Y-169213D01*
X93504D01*
Y-171713D01*
D02*
G37*
G36*
Y-190728D02*
X91004D01*
Y-188228D01*
X93504D01*
Y-190728D01*
D02*
G37*
G36*
Y-209114D02*
X91004D01*
Y-206614D01*
X93504D01*
Y-209114D01*
D02*
G37*
D10*
X230433Y-177559D02*
G03*
X230433Y-177559I-394J0D01*
G01*
X268504Y-45276D02*
G03*
X268504Y-45276I-394J0D01*
G01*
X275984Y-55020D02*
G03*
X275984Y-55020I-394J0D01*
G01*
X343110Y-205413D02*
G03*
X343110Y-205413I-394J0D01*
G01*
X324153Y-188307D02*
G03*
X324153Y-188307I-394J0D01*
G01*
X167913Y-204665D02*
G03*
X167913Y-204665I-394J0D01*
G01*
X156988Y-25492D02*
G03*
X156988Y-25492I-13386J0D01*
G01*
X134712Y-56176D02*
G03*
X134712Y-56176I-394J0D01*
G01*
X166307Y-214402D02*
Y-210402D01*
Y-214402D02*
X170307D01*
Y-210402D01*
X166307D02*
X170307D01*
X159153Y-216929D02*
Y-207874D01*
X177461Y-216929D02*
Y-207874D01*
X159153Y-216929D02*
X177461D01*
X159153Y-207874D02*
X177461D01*
X114165Y-95750D02*
Y-91750D01*
X90165Y-95750D02*
Y-91750D01*
Y-101750D02*
X114165D01*
X90165Y-85750D02*
X114165D01*
X149508Y-51083D02*
Y-37697D01*
X137697Y-51083D02*
X149508D01*
X137697D02*
Y-37697D01*
X373819Y-98917D02*
Y-16732D01*
Y-155118D02*
Y-98917D01*
X362008Y-58071D02*
Y-16831D01*
Y-155512D02*
Y-58071D01*
X313427Y-92627D02*
Y-72942D01*
X319726Y-92627D02*
Y-72942D01*
X313427D02*
X319726D01*
X313427Y-92627D02*
X319726D01*
X268504Y-111024D02*
Y-91339D01*
X275590Y-111024D02*
Y-91339D01*
X268504D02*
X275590D01*
X268504Y-111024D02*
X275590D01*
X274998Y-209842D02*
X276179D01*
X274998Y-222047D02*
X276179D01*
X274998D02*
Y-209842D01*
X276179Y-222047D02*
Y-209842D01*
X316535Y-32087D02*
X336221D01*
X316535Y-38386D02*
X336221D01*
Y-32087D01*
X316535Y-38386D02*
Y-32087D01*
X197638Y-215945D02*
Y-196260D01*
X190551Y-215945D02*
Y-196260D01*
Y-215945D02*
X197638D01*
X190551Y-196260D02*
X197638D01*
X90165Y-107945D02*
X114165D01*
X90165Y-123945D02*
X114165D01*
X90165Y-117945D02*
Y-113945D01*
X114165Y-117945D02*
Y-113945D01*
X136182Y-208358D02*
Y-202058D01*
X155867Y-208358D02*
Y-202058D01*
X136182Y-208358D02*
X155867D01*
X136182Y-202058D02*
X155867D01*
X306496Y-204823D02*
Y-186516D01*
X315551Y-204823D02*
Y-186516D01*
X306496D02*
X315551D01*
X306496Y-204823D02*
X315551D01*
X309024Y-197669D02*
X313024D01*
X136063Y-177284D02*
X156063D01*
Y-187284D02*
Y-177284D01*
X136063Y-187284D02*
X156063D01*
X149311D02*
Y-177284D01*
X143063Y-182283D02*
X145063D01*
X144063Y-183283D02*
Y-181283D01*
X136063Y-187284D02*
Y-177284D01*
X262992Y-180512D02*
Y-158071D01*
X285433Y-180512D02*
Y-158071D01*
X262992D02*
X285433D01*
X262992Y-180512D02*
X285433D01*
X166339Y-119882D02*
X238386D01*
X166339Y-47835D02*
X238386D01*
Y-119882D02*
Y-47835D01*
X166339Y-119882D02*
Y-47835D01*
X231968Y-26654D02*
Y-16654D01*
X181968Y-26654D02*
X231968D01*
X181968Y-16654D02*
X231968D01*
X181968Y-26654D02*
Y-16654D01*
X591Y-215354D02*
Y-159449D01*
Y-21260D01*
X12402Y-215354D02*
Y-159449D01*
Y-21260D01*
X209252Y-165945D02*
Y-163209D01*
Y-143484D02*
Y-140748D01*
X176181Y-165945D02*
Y-163209D01*
Y-143484D02*
Y-140748D01*
X206634Y-165945D02*
X209252D01*
X176181D02*
X178799D01*
X206634Y-140748D02*
X209252D01*
X176181D02*
X178799D01*
X302922Y-215773D02*
X304123Y-217224D01*
X302890Y-209856D02*
X304123Y-208366D01*
X319390Y-210138D02*
Y-208366D01*
X304123D02*
X319390D01*
X304123Y-217224D02*
X319390D01*
Y-215453D01*
X90165Y-41360D02*
X114165D01*
X90165Y-57360D02*
X114165D01*
X90165Y-51360D02*
Y-47360D01*
X114165Y-51360D02*
Y-47360D01*
X90165Y-19165D02*
X114165D01*
X90165Y-35165D02*
X114165D01*
X90165Y-29165D02*
Y-25165D01*
X114165Y-29165D02*
Y-25165D01*
X90165Y-63555D02*
X114165D01*
X90165Y-79555D02*
X114165D01*
X90165Y-73555D02*
Y-69555D01*
X114165Y-73555D02*
Y-69555D01*
X304724Y-205020D02*
Y-186713D01*
X295669Y-205020D02*
Y-186713D01*
Y-205020D02*
X304724D01*
X295669Y-186713D02*
X304724D01*
X298197Y-193866D02*
X302197D01*
X238650Y-215773D02*
X239852Y-217224D01*
X238619Y-209855D02*
X239852Y-208366D01*
X255118Y-210138D02*
Y-208366D01*
X239852D02*
X255118D01*
X239852Y-217224D02*
X255118D01*
Y-215453D01*
X302953Y-135512D02*
Y-125512D01*
X252953Y-135512D02*
X302953D01*
X252953Y-125512D02*
X302953D01*
X252953Y-135512D02*
Y-125512D01*
D11*
X114255Y-104085D02*
G03*
X114255Y-104085I-278J0D01*
G01*
Y-126279D02*
G03*
X114255Y-126279I-278J0D01*
G01*
Y-59695D02*
G03*
X114255Y-59695I-278J0D01*
G01*
Y-37500D02*
G03*
X114255Y-37500I-278J0D01*
G01*
Y-81890D02*
G03*
X114255Y-81890I-278J0D01*
G01*
X141984Y-53534D02*
X145528D01*
Y-63376D02*
Y-53534D01*
X141984Y-63376D02*
X145528D01*
X141984D02*
Y-53534D01*
X292575Y-95069D02*
X296118D01*
Y-104911D02*
Y-95069D01*
X292575Y-104911D02*
X296118D01*
X292575D02*
Y-95069D01*
X278140Y-75929D02*
Y-72386D01*
X287982D01*
Y-75929D02*
Y-72386D01*
X278140Y-75929D02*
X287982D01*
X333278Y-59898D02*
Y-56354D01*
X323435Y-59898D02*
X333278D01*
X323435D02*
Y-56354D01*
X333278D01*
X48669Y-204087D02*
X64669D01*
X48669Y-220087D02*
X64669D01*
X210630Y-193209D02*
X210630D01*
X209842Y-193996D02*
X210630Y-193209D01*
X209842Y-215846D02*
Y-193996D01*
Y-216142D02*
Y-215846D01*
Y-216142D02*
X210728Y-217028D01*
X234154Y-193012D02*
X235039Y-193898D01*
Y-194193D02*
Y-193898D01*
Y-216043D02*
Y-194193D01*
X234252Y-216831D02*
X235039Y-216043D01*
X234252Y-216831D02*
X234252D01*
X309024Y-194095D02*
X312992D01*
X313024Y-197669D02*
Y-196488D01*
X311024Y-194488D02*
X313024Y-196488D01*
X309024D02*
X311024Y-194488D01*
X309024Y-197669D02*
Y-196488D01*
Y-197669D02*
X313024D01*
X48669Y-135386D02*
X64669D01*
X48669Y-151386D02*
X64669D01*
X48669Y-152561D02*
X64669D01*
X48669Y-168561D02*
X64669D01*
X48669Y-169736D02*
X64669D01*
X48669Y-185736D02*
X64669D01*
X48669Y-186911D02*
X64669D01*
X48669Y-202911D02*
X64669D01*
X298228Y-197441D02*
X302197D01*
X298197Y-195047D02*
Y-193866D01*
Y-195047D02*
X300197Y-197047D01*
X302197Y-195047D01*
Y-193866D01*
X298197D02*
X302197D01*
D12*
X307423Y-71741D02*
G03*
X307423Y-71741I-492J0D01*
G01*
X263090Y-90335D02*
G03*
X263090Y-90335I-492J0D01*
G01*
X270765Y-208661D02*
G03*
X270765Y-208661I-394J0D01*
G01*
X337913Y-25591D02*
G03*
X337913Y-25591I-492J0D01*
G01*
X204035Y-216949D02*
G03*
X204035Y-216949I-492J0D01*
G01*
X157560Y-195562D02*
G03*
X157560Y-195562I-492J0D01*
G01*
X258858Y-155807D02*
G03*
X258858Y-155807I-492J0D01*
G01*
X161122Y-46654D02*
G03*
X161122Y-46654I-492J0D01*
G01*
D13*
X268110Y-162008D02*
G03*
X268110Y-162008I-1181J0D01*
G01*
X171457Y-51772D02*
G03*
X171457Y-51772I-1181J0D01*
G01*
D14*
X211024Y-165945D02*
G03*
X211024Y-165945I-197J0D01*
G01*
X237992Y-175234D02*
Y-169722D01*
Y-175234D02*
X249016D01*
Y-169722D01*
X237992D02*
X249016D01*
X244104Y-174178D02*
Y-170778D01*
X242904Y-174178D02*
Y-170778D01*
X242913Y-157480D02*
X248425D01*
X242913Y-168504D02*
Y-157480D01*
Y-168504D02*
X248425D01*
Y-157480D01*
X243969Y-163592D02*
X247369D01*
X243969Y-162392D02*
X247369D01*
X186230Y-193729D02*
Y-190029D01*
X185030D02*
X186230D01*
X185030Y-193729D02*
Y-190029D01*
Y-193729D02*
X186230D01*
X180512Y-194685D02*
X190748D01*
X180512D02*
Y-189173D01*
X190748D01*
Y-194685D02*
Y-189173D01*
X248327Y-189382D02*
Y-183871D01*
X238090D02*
X248327D01*
X238090Y-189382D02*
Y-183871D01*
Y-189382D02*
X248327D01*
X242609Y-188426D02*
X243809D01*
X242609D02*
Y-184727D01*
X243809D01*
Y-188426D02*
Y-184727D01*
X242913Y-155512D02*
X248425D01*
Y-145276D01*
X242913D02*
X248425D01*
X242913Y-155512D02*
Y-145276D01*
X243869Y-150994D02*
Y-149794D01*
X247569D01*
Y-150994D02*
Y-149794D01*
X243869Y-150994D02*
X247569D01*
X273524Y-147736D02*
Y-142224D01*
X263287D02*
X273524D01*
X263287Y-147736D02*
Y-142224D01*
Y-147736D02*
X273524D01*
X267806Y-146780D02*
X269005D01*
X267806D02*
Y-143080D01*
X269005D01*
Y-146780D02*
Y-143080D01*
X165945Y-22441D02*
X171457D01*
X165945Y-32677D02*
Y-22441D01*
Y-32677D02*
X171457D01*
Y-22441D01*
X170501Y-28159D02*
Y-26959D01*
X166801Y-28159D02*
X170501D01*
X166801D02*
Y-26959D01*
X170501D01*
X297638Y-184055D02*
X303150D01*
Y-173819D01*
X297638D02*
X303150D01*
X297638Y-184055D02*
Y-173819D01*
X298594Y-179537D02*
Y-178337D01*
X302294D01*
Y-179537D02*
Y-178337D01*
X298594Y-179537D02*
X302294D01*
X336486Y-180010D02*
X340186D01*
X336486Y-181210D02*
Y-180010D01*
Y-181210D02*
X340186D01*
Y-180010D01*
X341142Y-185728D02*
Y-175492D01*
X335630Y-185728D02*
X341142D01*
X335630D02*
Y-175492D01*
X341142D01*
X336586Y-204832D02*
X340286D01*
Y-203632D01*
X336586D02*
X340286D01*
X336586Y-204832D02*
Y-203632D01*
X335630Y-209350D02*
Y-199114D01*
X341142D01*
Y-209350D02*
Y-199114D01*
X335630Y-209350D02*
X341142D01*
X150394Y-49508D02*
X155905D01*
X150394Y-60532D02*
Y-49508D01*
Y-60532D02*
X155905D01*
Y-49508D01*
X151450Y-55620D02*
X154850D01*
X151450Y-54420D02*
X154850D01*
X125958Y-35325D02*
X129358D01*
X125958Y-36525D02*
X129358D01*
X130413Y-41437D02*
Y-30413D01*
X124902Y-41437D02*
X130413D01*
X124902D02*
Y-30413D01*
X130413D01*
X132293Y-64594D02*
Y-61194D01*
X131093Y-64594D02*
Y-61194D01*
X126181Y-65650D02*
X137205D01*
X126181D02*
Y-60138D01*
X137205D01*
Y-65650D02*
Y-60138D01*
X159547Y-22146D02*
X165059D01*
X159547Y-33169D02*
Y-22146D01*
Y-33169D02*
X165059D01*
Y-22146D01*
X160603Y-28258D02*
X164003D01*
X160603Y-27057D02*
X164003D01*
X295544Y-83671D02*
X298944D01*
X295544Y-82471D02*
X298944D01*
X294488Y-88583D02*
Y-77559D01*
X300000D01*
Y-88583D02*
Y-77559D01*
X294488Y-88583D02*
X300000D01*
X278928Y-88708D02*
Y-85308D01*
X280128Y-88708D02*
Y-85308D01*
X274016Y-84252D02*
X285039D01*
Y-89764D02*
Y-84252D01*
X274016Y-89764D02*
X285039D01*
X274016D02*
Y-84252D01*
X327040Y-150206D02*
X330440D01*
X327040Y-149006D02*
X330440D01*
X325984Y-155118D02*
Y-144095D01*
X331496D01*
Y-155118D02*
Y-144095D01*
X325984Y-155118D02*
X331496D01*
X321135Y-150206D02*
X324535D01*
X321135Y-149006D02*
X324535D01*
X320079Y-155118D02*
Y-144095D01*
X325591D01*
Y-155118D02*
Y-144095D01*
X320079Y-155118D02*
X325591D01*
X315229Y-150206D02*
X318629D01*
X315229Y-149006D02*
X318629D01*
X314173Y-155118D02*
Y-144095D01*
X319685D01*
Y-155118D02*
Y-144095D01*
X314173Y-155118D02*
X319685D01*
X306174Y-123041D02*
X309574D01*
X306174Y-121841D02*
X309574D01*
X305118Y-127953D02*
Y-116929D01*
X310630D01*
Y-127953D02*
Y-116929D01*
X305118Y-127953D02*
X310630D01*
X306174Y-136033D02*
X309574D01*
X306174Y-134833D02*
X309574D01*
X305118Y-140945D02*
Y-129921D01*
X310630D01*
Y-140945D02*
Y-129921D01*
X305118Y-140945D02*
X310630D01*
X276772Y-72441D02*
Y-66929D01*
X266535D02*
X276772D01*
X266535Y-72441D02*
Y-66929D01*
Y-72441D02*
X276772D01*
X271054Y-71485D02*
X272253D01*
X271054D02*
Y-67785D01*
X272253D01*
Y-71485D02*
Y-67785D01*
X266535Y-79921D02*
Y-74409D01*
Y-79921D02*
X276772D01*
Y-74409D01*
X266535D02*
X276772D01*
X271054Y-75365D02*
X272253D01*
Y-79065D02*
Y-75365D01*
X271054Y-79065D02*
X272253D01*
X271054D02*
Y-75365D01*
X297638Y-112205D02*
Y-106693D01*
X287402D02*
X297638D01*
X287402Y-112205D02*
Y-106693D01*
Y-112205D02*
X297638D01*
X291920Y-111249D02*
X293120D01*
X291920D02*
Y-107549D01*
X293120D01*
Y-111249D02*
Y-107549D01*
X272835Y-89764D02*
Y-84252D01*
X262598D02*
X272835D01*
X262598Y-89764D02*
Y-84252D01*
Y-89764D02*
X272835D01*
X267116Y-88808D02*
X268317D01*
X267116D02*
Y-85108D01*
X268317D01*
Y-88808D02*
Y-85108D01*
X255512Y-223622D02*
Y-218110D01*
Y-223622D02*
X266535D01*
Y-218110D01*
X255512D02*
X266535D01*
X261624Y-222566D02*
Y-219166D01*
X260424Y-222566D02*
Y-219166D01*
X294488Y-218110D02*
Y-212598D01*
X283465D02*
X294488D01*
X283465Y-218110D02*
Y-212598D01*
Y-218110D02*
X294488D01*
X288376Y-217054D02*
Y-213654D01*
X289576Y-217054D02*
Y-213654D01*
X294488Y-223622D02*
Y-218110D01*
X283465D02*
X294488D01*
X283465Y-223622D02*
Y-218110D01*
Y-223622D02*
X294488D01*
X288376Y-222566D02*
Y-219166D01*
X289576Y-222566D02*
Y-219166D01*
X60138Y-39547D02*
X75886D01*
X77854Y-37579D01*
Y-17894D01*
X77854D02*
X77854D01*
X75886Y-15925D02*
X77854Y-17894D01*
X51279Y-15925D02*
X75886D01*
X49311Y-17894D02*
X51279Y-15925D01*
X49311Y-37579D02*
Y-17894D01*
Y-37579D02*
X51279Y-39547D01*
X60138D01*
X51378Y-63189D02*
X60236D01*
X49409Y-61221D02*
X51378Y-63189D01*
X49409Y-61221D02*
Y-41535D01*
X51378Y-39567D01*
X75984D01*
X77953Y-41535D01*
X77953D01*
Y-61221D02*
Y-41535D01*
X75984Y-63189D02*
X77953Y-61221D01*
X60236Y-63189D02*
X75984D01*
X60236Y-86811D02*
X75984D01*
X77953Y-84842D01*
Y-65158D01*
X77953D02*
X77953D01*
X75984Y-63189D02*
X77953Y-65158D01*
X51378Y-63189D02*
X75984D01*
X49409Y-65158D02*
X51378Y-63189D01*
X49409Y-84842D02*
Y-65158D01*
Y-84842D02*
X51378Y-86811D01*
X60236D01*
X51378Y-110630D02*
X60236D01*
X49409Y-108661D02*
X51378Y-110630D01*
X49409Y-108661D02*
Y-88976D01*
X51378Y-87008D01*
X75984D01*
X77953Y-88976D01*
X77953D01*
Y-108661D02*
Y-88976D01*
X75984Y-110630D02*
X77953Y-108661D01*
X60236Y-110630D02*
X75984D01*
X60039Y-134449D02*
X75787D01*
X77756Y-132480D01*
Y-112795D01*
X77756D02*
X77756D01*
X75787Y-110827D02*
X77756Y-112795D01*
X51181Y-110827D02*
X75787D01*
X49213Y-112795D02*
X51181Y-110827D01*
X49213Y-132480D02*
Y-112795D01*
Y-132480D02*
X51181Y-134449D01*
X60039D01*
X145463Y-90529D02*
Y-87129D01*
X146663Y-90529D02*
Y-87129D01*
X140551Y-86073D02*
X151575D01*
Y-91585D02*
Y-86073D01*
X140551Y-91585D02*
X151575D01*
X140551D02*
Y-86073D01*
X79499Y-22450D02*
X83199D01*
Y-21250D01*
X79499D02*
X83199D01*
X79499Y-22450D02*
Y-21250D01*
X78543Y-26969D02*
Y-16732D01*
X84055D01*
Y-26969D02*
Y-16732D01*
X78543Y-26969D02*
X84055D01*
X79499Y-34262D02*
X83199D01*
Y-33062D01*
X79499D02*
X83199D01*
X79499Y-34262D02*
Y-33062D01*
X78543Y-38780D02*
Y-28543D01*
X84055D01*
Y-38780D02*
Y-28543D01*
X78543Y-38780D02*
X84055D01*
X79499Y-46073D02*
X83199D01*
Y-44872D01*
X79499D02*
X83199D01*
X79499Y-46073D02*
Y-44872D01*
X78543Y-50591D02*
Y-40354D01*
X84055D01*
Y-50591D02*
Y-40354D01*
X78543Y-50591D02*
X84055D01*
X79499Y-57884D02*
X83199D01*
Y-56683D01*
X79499D02*
X83199D01*
X79499Y-57884D02*
Y-56683D01*
X78543Y-62402D02*
Y-52165D01*
X84055D01*
Y-62402D02*
Y-52165D01*
X78543Y-62402D02*
X84055D01*
X74972Y-212608D02*
X78672D01*
Y-211408D01*
X74972D02*
X78672D01*
X74972Y-212608D02*
Y-211408D01*
X74016Y-217126D02*
Y-206890D01*
X79528D01*
Y-217126D02*
Y-206890D01*
X74016Y-217126D02*
X79528D01*
X82155Y-208258D02*
X85855D01*
X82155Y-209458D02*
Y-208258D01*
Y-209458D02*
X85855D01*
Y-208258D01*
X86811Y-213976D02*
Y-203740D01*
X81299Y-213976D02*
X86811D01*
X81299D02*
Y-203740D01*
X86811D01*
X74972Y-195384D02*
X78672D01*
Y-194184D01*
X74972D02*
X78672D01*
X74972Y-195384D02*
Y-194184D01*
X74016Y-199902D02*
Y-189665D01*
X79528D01*
Y-199902D02*
Y-189665D01*
X74016Y-199902D02*
X79528D01*
X82155Y-189754D02*
X85855D01*
X82155Y-190954D02*
Y-189754D01*
Y-190954D02*
X85855D01*
Y-189754D01*
X86811Y-195472D02*
Y-185236D01*
X81299Y-195472D02*
X86811D01*
X81299D02*
Y-185236D01*
X86811D01*
X112017Y-188021D02*
Y-184320D01*
X110817D02*
X112017D01*
X110817Y-188021D02*
Y-184320D01*
Y-188021D02*
X112017D01*
X106299Y-188976D02*
X116535D01*
X106299D02*
Y-183465D01*
X116535D01*
Y-188976D02*
Y-183465D01*
X100403Y-206621D02*
Y-203221D01*
X99203Y-206621D02*
Y-203221D01*
X94291Y-207677D02*
X105315D01*
X94291D02*
Y-202165D01*
X105315D01*
Y-207677D02*
Y-202165D01*
X145266Y-82605D02*
Y-79206D01*
X146466Y-82605D02*
Y-79206D01*
X140354Y-78150D02*
X151378D01*
Y-83661D02*
Y-78150D01*
X140354Y-83661D02*
X151378D01*
X140354D02*
Y-78150D01*
X145463Y-98649D02*
Y-95249D01*
X146663Y-98649D02*
Y-95249D01*
X140551Y-94193D02*
X151575D01*
Y-99705D02*
Y-94193D01*
X140551Y-99705D02*
X151575D01*
X140551D02*
Y-94193D01*
X131368Y-111309D02*
X135068D01*
X131368Y-112509D02*
Y-111309D01*
Y-112509D02*
X135068D01*
Y-111309D01*
X136024Y-117028D02*
Y-106791D01*
X130512Y-117028D02*
X136024D01*
X130512D02*
Y-106791D01*
X136024D01*
X145463Y-114889D02*
Y-111489D01*
X146663Y-114889D02*
Y-111489D01*
X140551Y-110433D02*
X151575D01*
Y-115945D02*
Y-110433D01*
X140551Y-115945D02*
X151575D01*
X140551D02*
Y-110433D01*
X145463Y-106769D02*
Y-103369D01*
X146663Y-106769D02*
Y-103369D01*
X140551Y-102313D02*
X151575D01*
Y-107825D02*
Y-102313D01*
X140551Y-107825D02*
X151575D01*
X140551D02*
Y-102313D01*
X119163Y-95561D02*
X122863D01*
X119163Y-96761D02*
Y-95561D01*
Y-96761D02*
X122863D01*
Y-95561D01*
X123819Y-101279D02*
Y-91043D01*
X118307Y-101279D02*
X123819D01*
X118307D02*
Y-91043D01*
X123819D01*
X119163Y-117116D02*
X122863D01*
X119163Y-118316D02*
Y-117116D01*
Y-118316D02*
X122863D01*
Y-117116D01*
X123819Y-122835D02*
Y-112598D01*
X118307Y-122835D02*
X123819D01*
X118307D02*
Y-112598D01*
X123819D01*
X112411Y-130934D02*
Y-127234D01*
X111211D02*
X112411D01*
X111211Y-130934D02*
Y-127234D01*
Y-130934D02*
X112411D01*
X106693Y-131890D02*
X116929D01*
X106693D02*
Y-126378D01*
X116929D01*
Y-131890D02*
Y-126378D01*
X125462Y-138180D02*
X129162D01*
X125462Y-139380D02*
Y-138180D01*
Y-139380D02*
X129162D01*
Y-138180D01*
X130118Y-143898D02*
Y-133661D01*
X124606Y-143898D02*
X130118D01*
X124606D02*
Y-133661D01*
X130118D01*
X100403Y-130834D02*
Y-127434D01*
X99203Y-130834D02*
Y-127434D01*
X94291Y-131890D02*
X105315D01*
X94291D02*
Y-126378D01*
X105315D01*
Y-131890D02*
Y-126378D01*
X79499Y-69695D02*
X83199D01*
Y-68494D01*
X79499D02*
X83199D01*
X79499Y-69695D02*
Y-68494D01*
X78543Y-74213D02*
Y-63976D01*
X84055D01*
Y-74213D02*
Y-63976D01*
X78543Y-74213D02*
X84055D01*
X79499Y-81506D02*
X83199D01*
Y-80305D01*
X79499D02*
X83199D01*
X79499Y-81506D02*
Y-80305D01*
X78543Y-86024D02*
Y-75787D01*
X84055D01*
Y-86024D02*
Y-75787D01*
X78543Y-86024D02*
X84055D01*
X79499Y-93317D02*
X83199D01*
Y-92117D01*
X79499D02*
X83199D01*
X79499Y-93317D02*
Y-92117D01*
X78543Y-97835D02*
Y-87599D01*
X84055D01*
Y-97835D02*
Y-87599D01*
X78543Y-97835D02*
X84055D01*
X79499Y-105128D02*
X83199D01*
Y-103928D01*
X79499D02*
X83199D01*
X79499Y-105128D02*
Y-103928D01*
X78543Y-109646D02*
Y-99410D01*
X84055D01*
Y-109646D02*
Y-99410D01*
X78543Y-109646D02*
X84055D01*
X79499Y-116939D02*
X83199D01*
Y-115739D01*
X79499D02*
X83199D01*
X79499Y-116939D02*
Y-115739D01*
X78543Y-121457D02*
Y-111221D01*
X84055D01*
Y-121457D02*
Y-111221D01*
X78543Y-121457D02*
X84055D01*
X79499Y-128750D02*
X83199D01*
Y-127550D01*
X79499D02*
X83199D01*
X79499Y-128750D02*
Y-127550D01*
X78543Y-133268D02*
Y-123031D01*
X84055D01*
Y-133268D02*
Y-123031D01*
X78543Y-133268D02*
X84055D01*
X74972Y-144104D02*
X78672D01*
Y-142904D01*
X74972D02*
X78672D01*
X74972Y-144104D02*
Y-142904D01*
X74016Y-148622D02*
Y-138386D01*
X79528D01*
Y-148622D02*
Y-138386D01*
X74016Y-148622D02*
X79528D01*
X82649Y-140167D02*
X86349D01*
Y-138967D01*
X82649D02*
X86349D01*
X82649Y-140167D02*
Y-138967D01*
X81693Y-144685D02*
Y-134449D01*
X87205D01*
Y-144685D02*
Y-134449D01*
X81693Y-144685D02*
X87205D01*
X82549Y-153534D02*
X86249D01*
X82549Y-154734D02*
Y-153534D01*
Y-154734D02*
X86249D01*
Y-153534D01*
X87205Y-159252D02*
Y-149016D01*
X81693Y-159252D02*
X87205D01*
X81693D02*
Y-149016D01*
X87205D01*
X74972Y-160935D02*
X78672D01*
Y-159735D01*
X74972D02*
X78672D01*
X74972Y-160935D02*
Y-159735D01*
X74016Y-165453D02*
Y-155217D01*
X79528D01*
Y-165453D02*
Y-155217D01*
X74016Y-165453D02*
X79528D01*
X82155Y-171054D02*
X85855D01*
X82155Y-172254D02*
Y-171054D01*
Y-172254D02*
X85855D01*
Y-171054D01*
X86811Y-176772D02*
Y-166535D01*
X81299Y-176772D02*
X86811D01*
X81299D02*
Y-166535D01*
X86811D01*
X74972Y-178159D02*
X78672D01*
Y-176959D01*
X74972D02*
X78672D01*
X74972Y-178159D02*
Y-176959D01*
X74016Y-182677D02*
Y-172441D01*
X79528D01*
Y-182677D02*
Y-172441D01*
X74016Y-182677D02*
X79528D01*
X112411Y-206721D02*
Y-203021D01*
X111211D02*
X112411D01*
X111211Y-206721D02*
Y-203021D01*
Y-206721D02*
X112411D01*
X106693Y-207677D02*
X116929D01*
X106693D02*
Y-202165D01*
X116929D01*
Y-207677D02*
Y-202165D01*
X125462Y-176073D02*
X129162D01*
X125462Y-177273D02*
Y-176073D01*
Y-177273D02*
X129162D01*
Y-176073D01*
X130118Y-181791D02*
Y-171555D01*
X124606Y-181791D02*
X130118D01*
X124606D02*
Y-171555D01*
X130118D01*
X125462Y-195020D02*
X129162D01*
X125462Y-196220D02*
Y-195020D01*
Y-196220D02*
X129162D01*
Y-195020D01*
X130118Y-200738D02*
Y-190502D01*
X124606Y-200738D02*
X130118D01*
X124606D02*
Y-190502D01*
X130118D01*
X125562Y-215167D02*
X129262D01*
Y-213967D01*
X125562D02*
X129262D01*
X125562Y-215167D02*
Y-213967D01*
X124606Y-219685D02*
Y-209449D01*
X130118D01*
Y-219685D02*
Y-209449D01*
X124606Y-219685D02*
X130118D01*
X168182Y-156880D02*
X171582D01*
X168182Y-158080D02*
X171582D01*
X172638Y-162992D02*
Y-151969D01*
X167126Y-162992D02*
X172638D01*
X167126D02*
Y-151969D01*
X172638D01*
X169085Y-136936D02*
Y-133536D01*
X170285Y-136936D02*
Y-133536D01*
X164173Y-132480D02*
X175197D01*
Y-137992D02*
Y-132480D01*
X164173Y-137992D02*
X175197D01*
X164173D02*
Y-132480D01*
X195857Y-138117D02*
Y-134717D01*
X197057Y-138117D02*
Y-134717D01*
X190945Y-133661D02*
X201969D01*
Y-139173D02*
Y-133661D01*
X190945Y-139173D02*
X201969D01*
X190945D02*
Y-133661D01*
X216132Y-137330D02*
Y-133930D01*
X217332Y-137330D02*
Y-133930D01*
X211221Y-132874D02*
X222244D01*
Y-138386D02*
Y-132874D01*
X211221Y-138386D02*
X222244D01*
X211221D02*
Y-132874D01*
X212470Y-157471D02*
X216170D01*
X212470Y-158671D02*
Y-157471D01*
Y-158671D02*
X216170D01*
Y-157471D01*
X217126Y-163189D02*
Y-152953D01*
X211614Y-163189D02*
X217126D01*
X211614D02*
Y-152953D01*
X217126D01*
X231290Y-137330D02*
Y-133930D01*
X232490Y-137330D02*
Y-133930D01*
X226378Y-132874D02*
X237402D01*
Y-138386D02*
Y-132874D01*
X226378Y-138386D02*
X237402D01*
X226378D02*
Y-132874D01*
X333533Y-76959D02*
X337233D01*
X333533Y-78159D02*
Y-76959D01*
Y-78159D02*
X337233D01*
Y-76959D01*
X338189Y-82677D02*
Y-72441D01*
X332677Y-82677D02*
X338189D01*
X332677D02*
Y-72441D01*
X338189D01*
X290623Y-148219D02*
X294023D01*
X290623Y-149419D02*
X294023D01*
X295079Y-154331D02*
Y-143307D01*
X289567Y-154331D02*
X295079D01*
X289567D02*
Y-143307D01*
X295079D01*
X299578Y-159065D02*
X303278D01*
Y-157865D01*
X299578D02*
X303278D01*
X299578Y-159065D02*
Y-157865D01*
X298622Y-163583D02*
Y-153346D01*
X304134D01*
Y-163583D02*
Y-153346D01*
X298622Y-163583D02*
X304134D01*
X305324Y-171879D02*
Y-168179D01*
X304124D02*
X305324D01*
X304124Y-171879D02*
Y-168179D01*
Y-171879D02*
X305324D01*
X299606Y-172835D02*
X309842D01*
X299606D02*
Y-167323D01*
X309842D01*
Y-172835D02*
Y-167323D01*
X307058Y-179340D02*
X310758D01*
Y-178140D01*
X307058D02*
X310758D01*
X307058Y-179340D02*
Y-178140D01*
X306102Y-183858D02*
Y-173622D01*
X311614D01*
Y-183858D02*
Y-173622D01*
X306102Y-183858D02*
X311614D01*
X288770Y-201309D02*
Y-197609D01*
Y-201309D02*
X289970D01*
Y-197609D01*
X288770D02*
X289970D01*
X284252Y-196653D02*
X294488D01*
Y-202165D02*
Y-196653D01*
X284252Y-202165D02*
X294488D01*
X284252D02*
Y-196653D01*
X281093Y-194613D02*
Y-191213D01*
X282293Y-194613D02*
Y-191213D01*
X276181Y-190157D02*
X287205D01*
Y-195669D02*
Y-190157D01*
X276181Y-195669D02*
X287205D01*
X276181D02*
Y-190157D01*
X289735Y-190758D02*
X293435D01*
Y-189558D01*
X289735D02*
X293435D01*
X289735Y-190758D02*
Y-189558D01*
X288779Y-195276D02*
Y-185039D01*
X294291D01*
Y-195276D02*
Y-185039D01*
X288779Y-195276D02*
X294291D01*
X264558Y-195207D02*
Y-191507D01*
Y-195207D02*
X265757D01*
Y-191507D01*
X264558D02*
X265757D01*
X260039Y-190551D02*
X270276D01*
Y-196063D02*
Y-190551D01*
X260039Y-196063D02*
X270276D01*
X260039D02*
Y-190551D01*
X253218Y-190739D02*
X256918D01*
X253218Y-191939D02*
Y-190739D01*
Y-191939D02*
X256918D01*
Y-190739D01*
X257874Y-196457D02*
Y-186221D01*
X252362Y-196457D02*
X257874D01*
X252362D02*
Y-186221D01*
X257874D01*
X243710Y-195501D02*
Y-191801D01*
X242510D02*
X243710D01*
X242510Y-195501D02*
Y-191801D01*
Y-195501D02*
X243710D01*
X237992Y-196457D02*
X248228D01*
X237992D02*
Y-190945D01*
X248228D01*
Y-196457D02*
Y-190945D01*
X242904Y-181252D02*
Y-177852D01*
X244104Y-181252D02*
Y-177852D01*
X237992Y-176796D02*
X249016D01*
Y-182308D02*
Y-176796D01*
X237992Y-182308D02*
X249016D01*
X237992D02*
Y-176796D01*
X256765Y-146054D02*
X260165D01*
X256765Y-147254D02*
X260165D01*
X261221Y-152165D02*
Y-141142D01*
X255709Y-152165D02*
X261221D01*
X255709D02*
Y-141142D01*
X261221D01*
X252631Y-98238D02*
X256031D01*
X252631Y-97038D02*
X256031D01*
X251575Y-103150D02*
Y-92126D01*
X257087D01*
Y-103150D02*
Y-92126D01*
X251575Y-103150D02*
X257087D01*
X253812Y-76978D02*
X257212D01*
X253812Y-75778D02*
X257212D01*
X252756Y-81890D02*
Y-70866D01*
X258268D01*
Y-81890D02*
Y-70866D01*
X252756Y-81890D02*
X258268D01*
X253418Y-49203D02*
X256818D01*
X253418Y-50403D02*
X256818D01*
X257874Y-55315D02*
Y-44291D01*
X252362Y-55315D02*
X257874D01*
X252362D02*
Y-44291D01*
X257874D01*
X243772Y-39951D02*
X247172D01*
X243772Y-41151D02*
X247172D01*
X248228Y-46063D02*
Y-35039D01*
X242717Y-46063D02*
X248228D01*
X242717D02*
Y-35039D01*
X248228D01*
X214970Y-33196D02*
Y-29796D01*
X213770Y-33196D02*
Y-29796D01*
X208858Y-34252D02*
X219882D01*
X208858D02*
Y-28740D01*
X219882D01*
Y-34252D02*
Y-28740D01*
X195482Y-33590D02*
Y-30190D01*
X194282Y-33590D02*
Y-30190D01*
X189370Y-34646D02*
X200394D01*
X189370D02*
Y-29134D01*
X200394D01*
Y-34646D02*
Y-29134D01*
X173497Y-26959D02*
X176897D01*
X173497Y-28159D02*
X176897D01*
X177953Y-33071D02*
Y-22047D01*
X172441Y-33071D02*
X177953D01*
X172441D02*
Y-22047D01*
X177953D01*
X197038Y-193629D02*
Y-190229D01*
X198238Y-193629D02*
Y-190229D01*
X192126Y-189173D02*
X203150D01*
Y-194685D02*
Y-189173D01*
X192126Y-194685D02*
X203150D01*
X192126D02*
Y-189173D01*
X186230Y-187627D02*
Y-183927D01*
X185030D02*
X186230D01*
X185030Y-187627D02*
Y-183927D01*
Y-187627D02*
X186230D01*
X180512Y-188583D02*
X190748D01*
X180512D02*
Y-183071D01*
X190748D01*
Y-188583D02*
Y-183071D01*
X141920Y-174144D02*
Y-170444D01*
Y-174144D02*
X143120D01*
Y-170444D01*
X141920D02*
X143120D01*
X137402Y-169488D02*
X147638D01*
Y-175000D02*
Y-169488D01*
X137402Y-175000D02*
X147638D01*
X137402D02*
Y-169488D01*
X125462Y-157126D02*
X129162D01*
X125462Y-158326D02*
Y-157126D01*
Y-158326D02*
X129162D01*
Y-157126D01*
X130118Y-162845D02*
Y-152608D01*
X124606Y-162845D02*
X130118D01*
X124606D02*
Y-152608D01*
X130118D01*
X119163Y-72431D02*
X122863D01*
X119163Y-73632D02*
Y-72431D01*
Y-73632D02*
X122863D01*
Y-72431D01*
X123819Y-78150D02*
Y-67913D01*
X118307Y-78150D02*
X123819D01*
X118307D02*
Y-67913D01*
X123819D01*
X119263Y-57687D02*
X122963D01*
Y-56487D01*
X119263D02*
X122963D01*
X119263Y-57687D02*
Y-56487D01*
X118307Y-62205D02*
Y-51968D01*
X123819D01*
Y-62205D02*
Y-51968D01*
X118307Y-62205D02*
X123819D01*
X119853Y-36033D02*
X123554D01*
Y-34833D01*
X119853D02*
X123554D01*
X119853Y-36033D02*
Y-34833D01*
X118898Y-40551D02*
Y-30315D01*
X124409D01*
Y-40551D02*
Y-30315D01*
X118898Y-40551D02*
X124409D01*
X100010Y-187920D02*
Y-184520D01*
X98809Y-187920D02*
Y-184520D01*
X93898Y-188976D02*
X104921D01*
X93898D02*
Y-183465D01*
X104921D01*
Y-188976D02*
Y-183465D01*
X112411Y-169320D02*
Y-165620D01*
X111211D02*
X112411D01*
X111211Y-169320D02*
Y-165620D01*
Y-169320D02*
X112411D01*
X106693Y-170276D02*
X116929D01*
X106693D02*
Y-164764D01*
X116929D01*
Y-170276D02*
Y-164764D01*
X100403Y-169023D02*
Y-165623D01*
X99203Y-169023D02*
Y-165623D01*
X94291Y-170079D02*
X105315D01*
X94291D02*
Y-164567D01*
X105315D01*
Y-170079D02*
Y-164567D01*
X112411Y-149831D02*
Y-146132D01*
X111211D02*
X112411D01*
X111211Y-149831D02*
Y-146132D01*
Y-149831D02*
X112411D01*
X106693Y-150787D02*
X116929D01*
X106693D02*
Y-145276D01*
X116929D01*
Y-150787D02*
Y-145276D01*
X100403Y-149928D02*
Y-146528D01*
X99203Y-149928D02*
Y-146528D01*
X94291Y-150984D02*
X105315D01*
X94291D02*
Y-145472D01*
X105315D01*
Y-150984D02*
Y-145472D01*
D15*
X195669Y-169095D02*
X224410D01*
X195669Y-186024D02*
X224410D01*
X264429Y-62598D02*
Y-50000D01*
X271791Y-62598D02*
Y-50000D01*
X277559Y-38405D02*
Y-28642D01*
X312992D01*
Y-38405D02*
Y-28642D01*
Y-64075D02*
Y-54311D01*
X277559Y-64075D02*
X312992D01*
X277559D02*
Y-54311D01*
X356850Y-209626D02*
X362520D01*
X356850Y-174429D02*
X362520D01*
X373307D02*
X378150D01*
Y-209626D02*
Y-174429D01*
X373307Y-209626D02*
X378150D01*
X330620Y-198189D02*
X337018D01*
X330620Y-185866D02*
X337018D01*
X159055Y-200098D02*
Y-171358D01*
X175984Y-200098D02*
Y-171358D01*
X126378Y-52776D02*
Y-49390D01*
X132283Y-52776D02*
Y-49390D01*
D16*
X242150Y-166634D02*
Y-154034D01*
X226550Y-166634D02*
Y-154034D01*
Y-166634D02*
X242150D01*
X226550Y-154034D02*
X242150D01*
X126673Y-98843D02*
X139273D01*
X126673Y-83243D02*
X139273D01*
X126673Y-98843D02*
Y-83243D01*
X139273Y-98843D02*
Y-83243D01*
D17*
X339961Y-155413D02*
Y-16732D01*
Y-155413D02*
X386221D01*
X339961Y-16732D02*
X386221D01*
Y-155413D02*
Y-16732D01*
X34449Y-214961D02*
Y-21260D01*
X-11811D02*
X34449D01*
X-11811Y-214961D02*
X34449D01*
X-11811D02*
Y-21260D01*
D18*
X334664Y-135441D02*
Y-119118D01*
X313564Y-135441D02*
Y-119118D01*
D19*
X94504Y-219614D02*
X117504D01*
X94504Y-208614D02*
X117504D01*
X94504Y-144142D02*
X117504D01*
X94504Y-133142D02*
X117504D01*
X94504Y-201228D02*
X117504D01*
X94504Y-190228D02*
X117504D01*
X94504Y-182213D02*
X117504D01*
X94504Y-171213D02*
X117504D01*
X94504Y-163039D02*
X117504D01*
X94504Y-152039D02*
X117504D01*
D20*
X181430Y-16273D02*
X181889D01*
X182349Y-15813D01*
Y-13518D01*
X180971D01*
X180512Y-13977D01*
Y-14895D01*
X180971Y-15354D01*
X182349D01*
X183267D02*
Y-13518D01*
X184644D01*
X185103Y-13977D01*
Y-15354D01*
X187858Y-12599D02*
Y-15354D01*
X186481D01*
X186022Y-14895D01*
Y-13977D01*
X186481Y-13518D01*
X187858D01*
X214272Y-15157D02*
X215649D01*
X216108Y-14698D01*
X215649Y-14239D01*
X214731D01*
X214272Y-13780D01*
X214731Y-13321D01*
X216108D01*
X218863Y-12403D02*
Y-15157D01*
X217486D01*
X217027Y-14698D01*
Y-13780D01*
X217486Y-13321D01*
X218863D01*
X219782Y-15157D02*
X220700D01*
X220241D01*
Y-13321D01*
X219782D01*
X222537Y-15157D02*
X223455D01*
X223914Y-14698D01*
Y-13780D01*
X223455Y-13321D01*
X222537D01*
X222077Y-13780D01*
Y-14698D01*
X222537Y-15157D01*
X200394Y-15256D02*
X201771D01*
X202230Y-14797D01*
X201771Y-14338D01*
X200853D01*
X200394Y-13878D01*
X200853Y-13419D01*
X202230D01*
X203149D02*
Y-14797D01*
X203608Y-15256D01*
X204067Y-14797D01*
X204526Y-15256D01*
X204985Y-14797D01*
Y-13419D01*
X207740D02*
X206363D01*
X205904Y-13878D01*
Y-14797D01*
X206363Y-15256D01*
X207740D01*
X208659D02*
X209577D01*
X209118D01*
Y-12501D01*
X208659D01*
X210955Y-15256D02*
Y-12501D01*
Y-14338D02*
X212332Y-13419D01*
X210955Y-14338D02*
X212332Y-15256D01*
X190059Y-15453D02*
X191437D01*
X191896Y-14994D01*
X191437Y-14534D01*
X190518D01*
X190059Y-14075D01*
X190518Y-13616D01*
X191896D01*
X192814D02*
Y-14994D01*
X193273Y-15453D01*
X193732Y-14994D01*
X194192Y-15453D01*
X194651Y-14994D01*
Y-13616D01*
X196028Y-15453D02*
X196947D01*
X197406Y-14994D01*
Y-14075D01*
X196947Y-13616D01*
X196028D01*
X195569Y-14075D01*
Y-14994D01*
X196028Y-15453D01*
X226378Y-13058D02*
X226837Y-12599D01*
X227755D01*
X228215Y-13058D01*
Y-13518D01*
X227755Y-13977D01*
X227296D01*
X227755D01*
X228215Y-14436D01*
Y-14895D01*
X227755Y-15354D01*
X226837D01*
X226378Y-14895D01*
X229133Y-15354D02*
Y-14895D01*
X229592D01*
Y-15354D01*
X229133D01*
X231429Y-13058D02*
X231888Y-12599D01*
X232806D01*
X233265Y-13058D01*
Y-13518D01*
X232806Y-13977D01*
X232347D01*
X232806D01*
X233265Y-14436D01*
Y-14895D01*
X232806Y-15354D01*
X231888D01*
X231429Y-14895D01*
X234184Y-12599D02*
Y-14436D01*
X235102Y-15354D01*
X236020Y-14436D01*
Y-12599D01*
X296917Y-124016D02*
X296458Y-123557D01*
Y-122638D01*
X296917Y-122179D01*
X297376D01*
X297835Y-122638D01*
Y-123097D01*
Y-122638D01*
X298294Y-122179D01*
X298753D01*
X299213Y-122638D01*
Y-123557D01*
X298753Y-124016D01*
X299213Y-121261D02*
X298753D01*
Y-120802D01*
X299213D01*
Y-121261D01*
X296917Y-118965D02*
X296458Y-118506D01*
Y-117587D01*
X296917Y-117128D01*
X297376D01*
X297835Y-117587D01*
Y-118047D01*
Y-117587D01*
X298294Y-117128D01*
X298753D01*
X299213Y-117587D01*
Y-118506D01*
X298753Y-118965D01*
X296458Y-116210D02*
X298294D01*
X299213Y-115292D01*
X298294Y-114373D01*
X296458D01*
X268110Y-124016D02*
Y-122638D01*
X267651Y-122179D01*
X267192Y-122638D01*
Y-123557D01*
X266733Y-124016D01*
X266274Y-123557D01*
Y-122179D01*
Y-121261D02*
X267651D01*
X268110Y-120802D01*
X267651Y-120342D01*
X268110Y-119883D01*
X267651Y-119424D01*
X266274D01*
X268110Y-118046D02*
Y-117128D01*
X267651Y-116669D01*
X266733D01*
X266274Y-117128D01*
Y-118046D01*
X266733Y-118506D01*
X267651D01*
X268110Y-118046D01*
X278478Y-124016D02*
Y-122638D01*
X278019Y-122179D01*
X277559Y-122638D01*
Y-123557D01*
X277100Y-124016D01*
X276641Y-123557D01*
Y-122179D01*
Y-121261D02*
X278019D01*
X278478Y-120802D01*
X278019Y-120342D01*
X278478Y-119883D01*
X278019Y-119424D01*
X276641D01*
Y-116669D02*
Y-118046D01*
X277100Y-118506D01*
X278019D01*
X278478Y-118046D01*
Y-116669D01*
Y-115751D02*
Y-114832D01*
Y-115292D01*
X275723D01*
Y-115751D01*
X278478Y-113455D02*
X275723D01*
X277559D02*
X276641Y-112077D01*
X277559Y-113455D02*
X278478Y-112077D01*
X288845Y-124016D02*
Y-122638D01*
X288386Y-122179D01*
X287927Y-122638D01*
Y-123557D01*
X287468Y-124016D01*
X287009Y-123557D01*
Y-122179D01*
X286090Y-119424D02*
X288845D01*
Y-120802D01*
X288386Y-121261D01*
X287468D01*
X287009Y-120802D01*
Y-119424D01*
X288845Y-118506D02*
Y-117587D01*
Y-118047D01*
X287009D01*
Y-118506D01*
X288845Y-115751D02*
Y-114832D01*
X288386Y-114373D01*
X287468D01*
X287009Y-114832D01*
Y-115751D01*
X287468Y-116210D01*
X288386D01*
X288845Y-115751D01*
X259580Y-123097D02*
Y-122638D01*
X259121Y-122179D01*
X256825D01*
Y-123557D01*
X257284Y-124016D01*
X258202D01*
X258661Y-123557D01*
Y-122179D01*
Y-121261D02*
X256825D01*
Y-119883D01*
X257284Y-119424D01*
X258661D01*
X255906Y-116669D02*
X258661D01*
Y-118047D01*
X258202Y-118506D01*
X257284D01*
X256825Y-118047D01*
Y-116669D01*
X344850Y-167717D02*
X346687Y-170472D01*
Y-167717D02*
X344850Y-170472D01*
X347605Y-168176D02*
X348064Y-167717D01*
X348982D01*
X349442Y-168176D01*
Y-168635D01*
X348982Y-169095D01*
X348523D01*
X348982D01*
X349442Y-169554D01*
Y-170013D01*
X348982Y-170472D01*
X348064D01*
X347605Y-170013D01*
X322803Y-181989D02*
Y-184284D01*
X323262Y-184744D01*
X324181D01*
X324640Y-184284D01*
Y-181989D01*
X327395Y-184744D02*
X325558D01*
X327395Y-182907D01*
Y-182448D01*
X326936Y-181989D01*
X326017D01*
X325558Y-182448D01*
X330150Y-181989D02*
X329231Y-182448D01*
X328313Y-183366D01*
Y-184284D01*
X328772Y-184744D01*
X329691D01*
X330150Y-184284D01*
Y-183825D01*
X329691Y-183366D01*
X328313D01*
X334547Y-183037D02*
X331792D01*
Y-181659D01*
X332251Y-181200D01*
X333169D01*
X333628Y-181659D01*
Y-183037D01*
Y-182119D02*
X334547Y-181200D01*
X331792Y-178445D02*
X332251Y-179364D01*
X333169Y-180282D01*
X334088D01*
X334547Y-179823D01*
Y-178904D01*
X334088Y-178445D01*
X333628D01*
X333169Y-178904D01*
Y-180282D01*
X334547Y-177527D02*
Y-176609D01*
Y-177068D01*
X331792D01*
X332251Y-177527D01*
X333759Y-208201D02*
X331004D01*
Y-206823D01*
X331464Y-206364D01*
X332382D01*
X332841Y-206823D01*
Y-208201D01*
Y-207283D02*
X333759Y-206364D01*
X331004Y-203609D02*
X331464Y-204528D01*
X332382Y-205446D01*
X333300D01*
X333759Y-204987D01*
Y-204068D01*
X333300Y-203609D01*
X332841D01*
X332382Y-204068D01*
Y-205446D01*
X331464Y-202691D02*
X331004Y-202232D01*
Y-201313D01*
X331464Y-200854D01*
X333300D01*
X333759Y-201313D01*
Y-202232D01*
X333300Y-202691D01*
X331464D01*
X160566Y-162631D02*
X160107Y-162172D01*
X159188D01*
X158729Y-162631D01*
Y-164468D01*
X159188Y-164927D01*
X160107D01*
X160566Y-164468D01*
X161484Y-162631D02*
X161943Y-162172D01*
X162862D01*
X163321Y-162631D01*
Y-163090D01*
X162862Y-163549D01*
X162402D01*
X162862D01*
X163321Y-164008D01*
Y-164468D01*
X162862Y-164927D01*
X161943D01*
X161484Y-164468D01*
X166076Y-162172D02*
X165158Y-162631D01*
X164239Y-163549D01*
Y-164468D01*
X164698Y-164927D01*
X165617D01*
X166076Y-164468D01*
Y-164008D01*
X165617Y-163549D01*
X164239D01*
X133760Y-54165D02*
X136515Y-52328D01*
X133760D02*
X136515Y-54165D01*
X133760Y-51410D02*
Y-49573D01*
Y-50491D01*
X136515D01*
Y-48655D02*
X134679D01*
X133760Y-47736D01*
X134679Y-46818D01*
X136515D01*
X135138D01*
Y-48655D01*
X133760Y-45900D02*
X136515D01*
Y-44063D01*
Y-41308D02*
Y-43145D01*
X134679Y-41308D01*
X134220D01*
X133760Y-41767D01*
Y-42685D01*
X134220Y-43145D01*
X146884Y-62993D02*
Y-65748D01*
X148261D01*
X148721Y-65288D01*
Y-63452D01*
X148261Y-62993D01*
X146884D01*
X149639Y-65748D02*
X150557D01*
X150098D01*
Y-62993D01*
X149639Y-63452D01*
X153281Y-42094D02*
X152822Y-41634D01*
X151903D01*
X151444Y-42094D01*
Y-43930D01*
X151903Y-44389D01*
X152822D01*
X153281Y-43930D01*
X154199Y-41634D02*
X156036D01*
Y-42094D01*
X154199Y-43930D01*
Y-44389D01*
X121786Y-14174D02*
Y-16929D01*
X123164D01*
X123623Y-16469D01*
Y-16010D01*
X123164Y-15551D01*
X121786D01*
X123164D01*
X123623Y-15092D01*
Y-14633D01*
X123164Y-14174D01*
X121786D01*
X124541Y-16929D02*
Y-15092D01*
X125460Y-14174D01*
X126378Y-15092D01*
Y-16929D01*
Y-15551D01*
X124541D01*
X127296Y-14174D02*
X129133D01*
X128215D01*
Y-16929D01*
X130051D02*
X130970D01*
X130510D01*
Y-14174D01*
X130051Y-14633D01*
X126116Y-26641D02*
X125656Y-26182D01*
X124738D01*
X124279Y-26641D01*
Y-28477D01*
X124738Y-28937D01*
X125656D01*
X126116Y-28477D01*
X128871Y-26182D02*
X127952Y-26641D01*
X127034Y-27559D01*
Y-28477D01*
X127493Y-28937D01*
X128411D01*
X128871Y-28477D01*
Y-28018D01*
X128411Y-27559D01*
X127034D01*
X139797Y-66011D02*
X139338Y-65552D01*
X138419D01*
X137960Y-66011D01*
Y-67848D01*
X138419Y-68307D01*
X139338D01*
X139797Y-67848D01*
X142552Y-65552D02*
X140715D01*
Y-66929D01*
X141633Y-66470D01*
X142093D01*
X142552Y-66929D01*
Y-67848D01*
X142093Y-68307D01*
X141174D01*
X140715Y-67848D01*
X334581Y-16536D02*
X336417Y-19291D01*
Y-16536D02*
X334581Y-19291D01*
X337336D02*
X338254D01*
X337795D01*
Y-16536D01*
X337336Y-16995D01*
X261976Y-111615D02*
Y-113910D01*
X262435Y-114370D01*
X263353D01*
X263812Y-113910D01*
Y-111615D01*
X266567D02*
X265649Y-112074D01*
X264731Y-112992D01*
Y-113910D01*
X265190Y-114370D01*
X266108D01*
X266567Y-113910D01*
Y-113451D01*
X266108Y-112992D01*
X264731D01*
X314043Y-69292D02*
Y-71588D01*
X314502Y-72047D01*
X315420D01*
X315879Y-71588D01*
Y-69292D01*
X318634D02*
X316798D01*
Y-70669D01*
X317716Y-70210D01*
X318175D01*
X318634Y-70669D01*
Y-71588D01*
X318175Y-72047D01*
X317257D01*
X316798Y-71588D01*
X314535Y-109154D02*
Y-111450D01*
X314994Y-111909D01*
X315912D01*
X316371Y-111450D01*
Y-109154D01*
X318667Y-111909D02*
Y-109154D01*
X317290Y-110531D01*
X319127D01*
X292192Y-91044D02*
Y-93799D01*
X293570D01*
X294029Y-93340D01*
Y-91503D01*
X293570Y-91044D01*
X292192D01*
X294947Y-91503D02*
X295407Y-91044D01*
X296325D01*
X296784Y-91503D01*
Y-91962D01*
X296325Y-92421D01*
X295866D01*
X296325D01*
X296784Y-92880D01*
Y-93340D01*
X296325Y-93799D01*
X295407D01*
X294947Y-93340D01*
X280053Y-81562D02*
X279594Y-81103D01*
X278676D01*
X278216Y-81562D01*
Y-83399D01*
X278676Y-83858D01*
X279594D01*
X280053Y-83399D01*
X282808Y-83858D02*
X280971D01*
X282808Y-82021D01*
Y-81562D01*
X282349Y-81103D01*
X281431D01*
X280971Y-81562D01*
X283726D02*
X284186Y-81103D01*
X285104D01*
X285563Y-81562D01*
Y-82021D01*
X285104Y-82480D01*
X285563Y-82939D01*
Y-83399D01*
X285104Y-83858D01*
X284186D01*
X283726Y-83399D01*
Y-82939D01*
X284186Y-82480D01*
X283726Y-82021D01*
Y-81562D01*
X284186Y-82480D02*
X285104D01*
X297015Y-75065D02*
X296555Y-75524D01*
Y-76443D01*
X297015Y-76902D01*
X298851D01*
X299311Y-76443D01*
Y-75524D01*
X298851Y-75065D01*
X299311Y-72310D02*
Y-74147D01*
X297474Y-72310D01*
X297015D01*
X296555Y-72769D01*
Y-73687D01*
X297015Y-74147D01*
X296555Y-71392D02*
Y-69555D01*
X297015D01*
X298851Y-71392D01*
X299311D01*
X332743Y-151443D02*
X332284Y-151902D01*
Y-152821D01*
X332743Y-153280D01*
X334580D01*
X335039Y-152821D01*
Y-151902D01*
X334580Y-151443D01*
X335039Y-148688D02*
Y-150525D01*
X333202Y-148688D01*
X332743D01*
X332284Y-149147D01*
Y-150066D01*
X332743Y-150525D01*
X332284Y-145933D02*
X332743Y-146851D01*
X333661Y-147770D01*
X334580D01*
X335039Y-147310D01*
Y-146392D01*
X334580Y-145933D01*
X334121D01*
X333661Y-146392D01*
Y-147770D01*
X310597Y-152132D02*
X310138Y-152591D01*
Y-153509D01*
X310597Y-153969D01*
X312434D01*
X312893Y-153509D01*
Y-152591D01*
X312434Y-152132D01*
X312893Y-149377D02*
Y-151214D01*
X311057Y-149377D01*
X310597D01*
X310138Y-149836D01*
Y-150754D01*
X310597Y-151214D01*
X310138Y-146622D02*
Y-148459D01*
X311516D01*
X311057Y-147540D01*
Y-147081D01*
X311516Y-146622D01*
X312434D01*
X312893Y-147081D01*
Y-147999D01*
X312434Y-148459D01*
X305742Y-113649D02*
X305283Y-113189D01*
X304365D01*
X303905Y-113649D01*
Y-115485D01*
X304365Y-115944D01*
X305283D01*
X305742Y-115485D01*
X308497Y-115944D02*
X306660D01*
X308497Y-114108D01*
Y-113649D01*
X308038Y-113189D01*
X307120D01*
X306660Y-113649D01*
X310793Y-115944D02*
Y-113189D01*
X309415Y-114567D01*
X311252D01*
X322015Y-161482D02*
X321555Y-161942D01*
Y-162860D01*
X322015Y-163319D01*
X323851D01*
X324311Y-162860D01*
Y-161942D01*
X323851Y-161482D01*
X324311Y-158727D02*
Y-160564D01*
X322474Y-158727D01*
X322015D01*
X321555Y-159186D01*
Y-160105D01*
X322015Y-160564D01*
Y-157809D02*
X321555Y-157350D01*
Y-156431D01*
X322015Y-155972D01*
X322474D01*
X322933Y-156431D01*
Y-156891D01*
Y-156431D01*
X323392Y-155972D01*
X323851D01*
X324311Y-156431D01*
Y-157350D01*
X323851Y-157809D01*
X306037Y-142782D02*
X305578Y-142323D01*
X304660D01*
X304201Y-142782D01*
Y-144619D01*
X304660Y-145078D01*
X305578D01*
X306037Y-144619D01*
X308792Y-145078D02*
X306956D01*
X308792Y-143242D01*
Y-142782D01*
X308333Y-142323D01*
X307415D01*
X306956Y-142782D01*
X311547Y-145078D02*
X309711D01*
X311547Y-143242D01*
Y-142782D01*
X311088Y-142323D01*
X310170D01*
X309711Y-142782D01*
X304789Y-218373D02*
X304330Y-217914D01*
X303412D01*
X302953Y-218373D01*
Y-220210D01*
X303412Y-220669D01*
X304330D01*
X304789Y-220210D01*
X305708Y-218373D02*
X306167Y-217914D01*
X307085D01*
X307544Y-218373D01*
Y-218833D01*
X307085Y-219292D01*
X306626D01*
X307085D01*
X307544Y-219751D01*
Y-220210D01*
X307085Y-220669D01*
X306167D01*
X305708Y-220210D01*
X308463D02*
X308922Y-220669D01*
X309840D01*
X310299Y-220210D01*
Y-218373D01*
X309840Y-217914D01*
X308922D01*
X308463Y-218373D01*
Y-218833D01*
X308922Y-219292D01*
X310299D01*
X304789Y-221818D02*
X304330Y-221359D01*
X303412D01*
X302953Y-221818D01*
Y-223655D01*
X303412Y-224114D01*
X304330D01*
X304789Y-223655D01*
X305708Y-221818D02*
X306167Y-221359D01*
X307085D01*
X307544Y-221818D01*
Y-222277D01*
X307085Y-222737D01*
X306626D01*
X307085D01*
X307544Y-223196D01*
Y-223655D01*
X307085Y-224114D01*
X306167D01*
X305708Y-223655D01*
X308463Y-221818D02*
X308922Y-221359D01*
X309840D01*
X310299Y-221818D01*
Y-222277D01*
X309840Y-222737D01*
X310299Y-223196D01*
Y-223655D01*
X309840Y-224114D01*
X308922D01*
X308463Y-223655D01*
Y-223196D01*
X308922Y-222737D01*
X308463Y-222277D01*
Y-221818D01*
X308922Y-222737D02*
X309840D01*
X258728Y-214699D02*
X258269Y-215158D01*
Y-216076D01*
X258728Y-216535D01*
X260564D01*
X261024Y-216076D01*
Y-215158D01*
X260564Y-214699D01*
X258728Y-213780D02*
X258269Y-213321D01*
Y-212403D01*
X258728Y-211944D01*
X259187D01*
X259646Y-212403D01*
Y-212862D01*
Y-212403D01*
X260105Y-211944D01*
X260564D01*
X261024Y-212403D01*
Y-213321D01*
X260564Y-213780D01*
X258269Y-211025D02*
Y-209189D01*
X258728D01*
X260564Y-211025D01*
X261024D01*
X270866Y-204725D02*
Y-207021D01*
X271325Y-207480D01*
X272244D01*
X272703Y-207021D01*
Y-204725D01*
X275458Y-207480D02*
X273621D01*
X275458Y-205644D01*
Y-205185D01*
X274999Y-204725D01*
X274080D01*
X273621Y-205185D01*
X276376D02*
X276835Y-204725D01*
X277754D01*
X278213Y-205185D01*
Y-205644D01*
X277754Y-206103D01*
X277294D01*
X277754D01*
X278213Y-206562D01*
Y-207021D01*
X277754Y-207480D01*
X276835D01*
X276376Y-207021D01*
X320965Y-215946D02*
Y-218701D01*
X322342D01*
X322801Y-218242D01*
Y-216405D01*
X322342Y-215946D01*
X320965D01*
X325556D02*
X324638Y-216405D01*
X323720Y-217323D01*
Y-218242D01*
X324179Y-218701D01*
X325097D01*
X325556Y-218242D01*
Y-217782D01*
X325097Y-217323D01*
X323720D01*
X179823Y-136024D02*
Y-138320D01*
X180282Y-138779D01*
X181200D01*
X181659Y-138320D01*
Y-136024D01*
X184415Y-138779D02*
X182578D01*
X184415Y-136943D01*
Y-136484D01*
X183955Y-136024D01*
X183037D01*
X182578Y-136484D01*
X186710Y-138779D02*
Y-136024D01*
X185333Y-137402D01*
X187170D01*
X18701Y-14962D02*
X20538Y-17717D01*
Y-14962D02*
X18701Y-17717D01*
X23292D02*
X21456D01*
X23292Y-15880D01*
Y-15421D01*
X22833Y-14962D01*
X21915D01*
X21456Y-15421D01*
X237073Y-20933D02*
X236614Y-20473D01*
X235695D01*
X235236Y-20933D01*
Y-21392D01*
X235695Y-21851D01*
X236614D01*
X237073Y-22310D01*
Y-22769D01*
X236614Y-23228D01*
X235695D01*
X235236Y-22769D01*
X237991Y-20473D02*
Y-23228D01*
X238910Y-22310D01*
X239828Y-23228D01*
Y-20473D01*
X240746D02*
Y-23228D01*
X242124D01*
X242583Y-22769D01*
Y-20933D01*
X242124Y-20473D01*
X240746D01*
X243501Y-23228D02*
X244420D01*
X243960D01*
Y-20473D01*
X243501Y-20933D01*
X158957Y-40749D02*
Y-43045D01*
X159416Y-43504D01*
X160334D01*
X160793Y-43045D01*
Y-40749D01*
X161712Y-43504D02*
X162630D01*
X162171D01*
Y-40749D01*
X161712Y-41208D01*
X280807Y-145867D02*
Y-148163D01*
X281266Y-148622D01*
X282185D01*
X282644Y-148163D01*
Y-145867D01*
X285399Y-148622D02*
X283562D01*
X285399Y-146785D01*
Y-146326D01*
X284940Y-145867D01*
X284021D01*
X283562Y-146326D01*
X288154Y-145867D02*
X286317D01*
Y-147245D01*
X287235Y-146785D01*
X287695D01*
X288154Y-147245D01*
Y-148163D01*
X287695Y-148622D01*
X286776D01*
X286317Y-148163D01*
X303051Y-24214D02*
Y-26969D01*
X304429D01*
X304888Y-26509D01*
Y-26050D01*
X304429Y-25591D01*
X303051D01*
X304429D01*
X304888Y-25132D01*
Y-24673D01*
X304429Y-24214D01*
X303051D01*
X305806D02*
Y-26509D01*
X306265Y-26969D01*
X307184D01*
X307643Y-26509D01*
Y-24214D01*
X308561D02*
X310398D01*
Y-24673D01*
X308561Y-26509D01*
Y-26969D01*
X310398D01*
X311316D02*
X312235D01*
X311775D01*
Y-24214D01*
X311316Y-24673D01*
X152822Y-88813D02*
X152363Y-89272D01*
Y-90190D01*
X152822Y-90650D01*
X154659D01*
X155118Y-90190D01*
Y-89272D01*
X154659Y-88813D01*
X155118Y-87895D02*
Y-86976D01*
Y-87435D01*
X152363D01*
X152822Y-87895D01*
Y-97277D02*
X152363Y-97737D01*
Y-98655D01*
X152822Y-99114D01*
X154659D01*
X155118Y-98655D01*
Y-97737D01*
X154659Y-97277D01*
X155118Y-94523D02*
Y-96359D01*
X153281Y-94523D01*
X152822D01*
X152363Y-94982D01*
Y-95900D01*
X152822Y-96359D01*
X175262Y-16503D02*
X174803Y-16044D01*
X173884D01*
X173425Y-16503D01*
Y-18340D01*
X173884Y-18799D01*
X174803D01*
X175262Y-18340D01*
X176180Y-16503D02*
X176639Y-16044D01*
X177558D01*
X178017Y-16503D01*
Y-16962D01*
X177558Y-17422D01*
X177099D01*
X177558D01*
X178017Y-17881D01*
Y-18340D01*
X177558Y-18799D01*
X176639D01*
X176180Y-18340D01*
X135498Y-100755D02*
X135039Y-100296D01*
X134121D01*
X133661Y-100755D01*
Y-102592D01*
X134121Y-103051D01*
X135039D01*
X135498Y-102592D01*
X137794Y-103051D02*
Y-100296D01*
X136416Y-101674D01*
X138253D01*
X254691Y-41306D02*
X254232Y-40847D01*
X253313D01*
X252854Y-41306D01*
Y-43143D01*
X253313Y-43602D01*
X254232D01*
X254691Y-43143D01*
X255609Y-41306D02*
X256068Y-40847D01*
X256987D01*
X257446Y-41306D01*
Y-41766D01*
X256987Y-42225D01*
X257446Y-42684D01*
Y-43143D01*
X256987Y-43602D01*
X256068D01*
X255609Y-43143D01*
Y-42684D01*
X256068Y-42225D01*
X255609Y-41766D01*
Y-41306D01*
X256068Y-42225D02*
X256987D01*
X241305Y-134023D02*
X240846Y-133564D01*
X239928D01*
X239469Y-134023D01*
Y-135860D01*
X239928Y-136319D01*
X240846D01*
X241305Y-135860D01*
X242224D02*
X242683Y-136319D01*
X243601D01*
X244060Y-135860D01*
Y-134023D01*
X243601Y-133564D01*
X242683D01*
X242224Y-134023D01*
Y-134482D01*
X242683Y-134941D01*
X244060D01*
X267289Y-39732D02*
X266830Y-39272D01*
X265912D01*
X265453Y-39732D01*
Y-41568D01*
X265912Y-42028D01*
X266830D01*
X267289Y-41568D01*
X268208Y-42028D02*
X269126D01*
X268667D01*
Y-39272D01*
X268208Y-39732D01*
X270504D02*
X270963Y-39272D01*
X271881D01*
X272340Y-39732D01*
Y-41568D01*
X271881Y-42028D01*
X270963D01*
X270504Y-41568D01*
Y-39732D01*
X185400Y-30381D02*
X184941Y-29922D01*
X184022D01*
X183563Y-30381D01*
Y-32218D01*
X184022Y-32677D01*
X184941D01*
X185400Y-32218D01*
X186318Y-32677D02*
X187236D01*
X186777D01*
Y-29922D01*
X186318Y-30381D01*
X188614Y-32677D02*
X189532D01*
X189073D01*
Y-29922D01*
X188614Y-30381D01*
X160006Y-16503D02*
X159547Y-16044D01*
X158628D01*
X158169Y-16503D01*
Y-18340D01*
X158628Y-18799D01*
X159547D01*
X160006Y-18340D01*
X160924Y-18799D02*
X161843D01*
X161383D01*
Y-16044D01*
X160924Y-16503D01*
X165057Y-18799D02*
X163220D01*
X165057Y-16962D01*
Y-16503D01*
X164598Y-16044D01*
X163679D01*
X163220Y-16503D01*
X253313Y-88354D02*
X252854Y-87895D01*
X251936D01*
X251476Y-88354D01*
Y-90190D01*
X251936Y-90650D01*
X252854D01*
X253313Y-90190D01*
X254231Y-90650D02*
X255150D01*
X254691D01*
Y-87895D01*
X254231Y-88354D01*
X256527D02*
X256986Y-87895D01*
X257905D01*
X258364Y-88354D01*
Y-88813D01*
X257905Y-89272D01*
X257446D01*
X257905D01*
X258364Y-89731D01*
Y-90190D01*
X257905Y-90650D01*
X256986D01*
X256527Y-90190D01*
X239240Y-41864D02*
X238780Y-42323D01*
Y-43242D01*
X239240Y-43701D01*
X241076D01*
X241535Y-43242D01*
Y-42323D01*
X241076Y-41864D01*
X241535Y-40946D02*
Y-40027D01*
Y-40487D01*
X238780D01*
X239240Y-40946D01*
X241535Y-37272D02*
X238780D01*
X240158Y-38650D01*
Y-36813D01*
X144652Y-117488D02*
X144193Y-117028D01*
X143274D01*
X142815Y-117488D01*
Y-119324D01*
X143274Y-119783D01*
X144193D01*
X144652Y-119324D01*
X145570Y-119783D02*
X146488D01*
X146029D01*
Y-117028D01*
X145570Y-117488D01*
X149703Y-117028D02*
X147866D01*
Y-118406D01*
X148784Y-117947D01*
X149243D01*
X149703Y-118406D01*
Y-119324D01*
X149243Y-119783D01*
X148325D01*
X147866Y-119324D01*
X144161Y-73754D02*
X143702Y-74213D01*
Y-75131D01*
X144161Y-75590D01*
X145998D01*
X146457Y-75131D01*
Y-74213D01*
X145998Y-73754D01*
X146457Y-72835D02*
Y-71917D01*
Y-72376D01*
X143702D01*
X144161Y-72835D01*
X143702Y-68703D02*
X144161Y-69621D01*
X145079Y-70540D01*
X145998D01*
X146457Y-70081D01*
Y-69162D01*
X145998Y-68703D01*
X145538D01*
X145079Y-69162D01*
Y-70540D01*
X167782Y-139929D02*
X167322Y-139469D01*
X166404D01*
X165945Y-139929D01*
Y-141765D01*
X166404Y-142224D01*
X167322D01*
X167782Y-141765D01*
X168700Y-142224D02*
X169618D01*
X169159D01*
Y-139469D01*
X168700Y-139929D01*
X170996Y-139469D02*
X172832D01*
Y-139929D01*
X170996Y-141765D01*
Y-142224D01*
X253707Y-67685D02*
X253248Y-67225D01*
X252329D01*
X251870Y-67685D01*
Y-69521D01*
X252329Y-69980D01*
X253248D01*
X253707Y-69521D01*
X254625Y-69980D02*
X255543D01*
X255084D01*
Y-67225D01*
X254625Y-67685D01*
X256921D02*
X257380Y-67225D01*
X258298D01*
X258758Y-67685D01*
Y-68144D01*
X258298Y-68603D01*
X258758Y-69062D01*
Y-69521D01*
X258298Y-69980D01*
X257380D01*
X256921Y-69521D01*
Y-69062D01*
X257380Y-68603D01*
X256921Y-68144D01*
Y-67685D01*
X257380Y-68603D02*
X258298D01*
X217191Y-140125D02*
X216732Y-139666D01*
X215813D01*
X215354Y-140125D01*
Y-141962D01*
X215813Y-142421D01*
X216732D01*
X217191Y-141962D01*
X218109Y-142421D02*
X219028D01*
X218568D01*
Y-139666D01*
X218109Y-140125D01*
X220405Y-141962D02*
X220864Y-142421D01*
X221783D01*
X222242Y-141962D01*
Y-140125D01*
X221783Y-139666D01*
X220864D01*
X220405Y-140125D01*
Y-140585D01*
X220864Y-141044D01*
X222242D01*
X204789Y-135499D02*
X204330Y-135040D01*
X203412D01*
X202953Y-135499D01*
Y-137336D01*
X203412Y-137795D01*
X204330D01*
X204789Y-137336D01*
X207544Y-137795D02*
X205708D01*
X207544Y-135959D01*
Y-135499D01*
X207085Y-135040D01*
X206167D01*
X205708Y-135499D01*
X208463D02*
X208922Y-135040D01*
X209840D01*
X210299Y-135499D01*
Y-137336D01*
X209840Y-137795D01*
X208922D01*
X208463Y-137336D01*
Y-135499D01*
X223392Y-30578D02*
X222933Y-30119D01*
X222014D01*
X221555Y-30578D01*
Y-32415D01*
X222014Y-32874D01*
X222933D01*
X223392Y-32415D01*
X226147Y-32874D02*
X224310D01*
X226147Y-31037D01*
Y-30578D01*
X225688Y-30119D01*
X224769D01*
X224310Y-30578D01*
X227065Y-32874D02*
X227983D01*
X227524D01*
Y-30119D01*
X227065Y-30578D01*
X120537Y-203413D02*
X120078Y-202954D01*
X119160D01*
X118701Y-203413D01*
Y-205250D01*
X119160Y-205709D01*
X120078D01*
X120537Y-205250D01*
X123293Y-205709D02*
X121456D01*
X123293Y-203872D01*
Y-203413D01*
X122833Y-202954D01*
X121915D01*
X121456Y-203413D01*
X124211Y-205250D02*
X124670Y-205709D01*
X125588D01*
X126048Y-205250D01*
Y-203413D01*
X125588Y-202954D01*
X124670D01*
X124211Y-203413D01*
Y-203872D01*
X124670Y-204331D01*
X126048D01*
X120734Y-184515D02*
X120275Y-184056D01*
X119357D01*
X118898Y-184515D01*
Y-186352D01*
X119357Y-186811D01*
X120275D01*
X120734Y-186352D01*
X121653Y-184515D02*
X122112Y-184056D01*
X123030D01*
X123489Y-184515D01*
Y-184974D01*
X123030Y-185433D01*
X122571D01*
X123030D01*
X123489Y-185893D01*
Y-186352D01*
X123030Y-186811D01*
X122112D01*
X121653Y-186352D01*
X124408Y-184515D02*
X124867Y-184056D01*
X125785D01*
X126244Y-184515D01*
Y-186352D01*
X125785Y-186811D01*
X124867D01*
X124408Y-186352D01*
Y-184515D01*
X120734Y-165618D02*
X120275Y-165158D01*
X119357D01*
X118898Y-165618D01*
Y-167454D01*
X119357Y-167913D01*
X120275D01*
X120734Y-167454D01*
X121653Y-165618D02*
X122112Y-165158D01*
X123030D01*
X123489Y-165618D01*
Y-166077D01*
X123030Y-166536D01*
X122571D01*
X123030D01*
X123489Y-166995D01*
Y-167454D01*
X123030Y-167913D01*
X122112D01*
X121653Y-167454D01*
X124408Y-167913D02*
X125326D01*
X124867D01*
Y-165158D01*
X124408Y-165618D01*
X121128Y-146720D02*
X120669Y-146261D01*
X119750D01*
X119291Y-146720D01*
Y-148557D01*
X119750Y-149016D01*
X120669D01*
X121128Y-148557D01*
X122046Y-146720D02*
X122505Y-146261D01*
X123424D01*
X123883Y-146720D01*
Y-147179D01*
X123424Y-147638D01*
X122965D01*
X123424D01*
X123883Y-148097D01*
Y-148557D01*
X123424Y-149016D01*
X122505D01*
X122046Y-148557D01*
X126638Y-149016D02*
X124801D01*
X126638Y-147179D01*
Y-146720D01*
X126179Y-146261D01*
X125260D01*
X124801Y-146720D01*
X89141Y-130348D02*
X88682Y-130807D01*
Y-131726D01*
X89141Y-132185D01*
X90978D01*
X91437Y-131726D01*
Y-130807D01*
X90978Y-130348D01*
X89141Y-129430D02*
X88682Y-128971D01*
Y-128052D01*
X89141Y-127593D01*
X89600D01*
X90060Y-128052D01*
Y-128512D01*
Y-128052D01*
X90519Y-127593D01*
X90978D01*
X91437Y-128052D01*
Y-128971D01*
X90978Y-129430D01*
X89141Y-126675D02*
X88682Y-126216D01*
Y-125297D01*
X89141Y-124838D01*
X89600D01*
X90060Y-125297D01*
Y-125757D01*
Y-125297D01*
X90519Y-124838D01*
X90978D01*
X91437Y-125297D01*
Y-126216D01*
X90978Y-126675D01*
X206069Y-189240D02*
X205610Y-188780D01*
X204692D01*
X204232Y-189240D01*
Y-191076D01*
X204692Y-191535D01*
X205610D01*
X206069Y-191076D01*
X206987Y-189240D02*
X207447Y-188780D01*
X208365D01*
X208824Y-189240D01*
Y-189699D01*
X208365Y-190158D01*
X207906D01*
X208365D01*
X208824Y-190617D01*
Y-191076D01*
X208365Y-191535D01*
X207447D01*
X206987Y-191076D01*
X211120Y-191535D02*
Y-188780D01*
X209742Y-190158D01*
X211579D01*
X206561Y-176838D02*
X206102Y-176379D01*
X205184D01*
X204724Y-176838D01*
Y-178675D01*
X205184Y-179134D01*
X206102D01*
X206561Y-178675D01*
X207479Y-176838D02*
X207939Y-176379D01*
X208857D01*
X209316Y-176838D01*
Y-177297D01*
X208857Y-177756D01*
X208398D01*
X208857D01*
X209316Y-178216D01*
Y-178675D01*
X208857Y-179134D01*
X207939D01*
X207479Y-178675D01*
X212071Y-176379D02*
X210234D01*
Y-177756D01*
X211153Y-177297D01*
X211612D01*
X212071Y-177756D01*
Y-178675D01*
X211612Y-179134D01*
X210694D01*
X210234Y-178675D01*
X160203Y-157448D02*
X159744Y-156989D01*
X158825D01*
X158366Y-157448D01*
Y-159285D01*
X158825Y-159744D01*
X159744D01*
X160203Y-159285D01*
X162499Y-159744D02*
Y-156989D01*
X161121Y-158367D01*
X162958D01*
X163876Y-157448D02*
X164335Y-156989D01*
X165254D01*
X165713Y-157448D01*
Y-159285D01*
X165254Y-159744D01*
X164335D01*
X163876Y-159285D01*
Y-157448D01*
X252133Y-148655D02*
X251674Y-149115D01*
Y-150033D01*
X252133Y-150492D01*
X253970D01*
X254429Y-150033D01*
Y-149115D01*
X253970Y-148655D01*
X254429Y-146360D02*
X251674D01*
X253052Y-147737D01*
Y-145900D01*
X254429Y-144982D02*
Y-144064D01*
Y-144523D01*
X251674D01*
X252133Y-144982D01*
X273196Y-196785D02*
X272737Y-197245D01*
Y-198163D01*
X273196Y-198622D01*
X275033D01*
X275492Y-198163D01*
Y-197245D01*
X275033Y-196785D01*
X275492Y-194490D02*
X272737D01*
X274115Y-195867D01*
Y-194030D01*
X275492Y-191275D02*
Y-193112D01*
X273656Y-191275D01*
X273196D01*
X272737Y-191735D01*
Y-192653D01*
X273196Y-193112D01*
X297604Y-144259D02*
X297145Y-143800D01*
X296227D01*
X295768Y-144259D01*
Y-146096D01*
X296227Y-146555D01*
X297145D01*
X297604Y-146096D01*
X299900Y-146555D02*
Y-143800D01*
X298523Y-145178D01*
X300359D01*
X301278Y-144259D02*
X301737Y-143800D01*
X302655D01*
X303114Y-144259D01*
Y-144718D01*
X302655Y-145178D01*
X302196D01*
X302655D01*
X303114Y-145637D01*
Y-146096D01*
X302655Y-146555D01*
X301737D01*
X301278Y-146096D01*
X230183Y-171667D02*
X229724Y-171207D01*
X228806D01*
X228346Y-171667D01*
Y-173503D01*
X228806Y-173962D01*
X229724D01*
X230183Y-173503D01*
X232479Y-173962D02*
Y-171207D01*
X231101Y-172585D01*
X232938D01*
X235693Y-171207D02*
X233857D01*
Y-172585D01*
X234775Y-172126D01*
X235234D01*
X235693Y-172585D01*
Y-173503D01*
X235234Y-173962D01*
X234316D01*
X233857Y-173503D01*
X230183Y-178761D02*
X229724Y-178302D01*
X228806D01*
X228346Y-178761D01*
Y-180598D01*
X228806Y-181057D01*
X229724D01*
X230183Y-180598D01*
X232479Y-181057D02*
Y-178302D01*
X231101Y-179680D01*
X232938D01*
X235234Y-181057D02*
Y-178302D01*
X233857Y-179680D01*
X235693D01*
X251248Y-168537D02*
X250788Y-168997D01*
Y-169915D01*
X251248Y-170374D01*
X253084D01*
X253543Y-169915D01*
Y-168997D01*
X253084Y-168537D01*
X253543Y-166242D02*
X250788D01*
X252166Y-167619D01*
Y-165782D01*
X250788Y-163027D02*
X251248Y-163946D01*
X252166Y-164864D01*
X253084D01*
X253543Y-164405D01*
Y-163487D01*
X253084Y-163027D01*
X252625D01*
X252166Y-163487D01*
Y-164864D01*
X317126Y-56694D02*
Y-59449D01*
X318503D01*
X318963Y-58990D01*
Y-57153D01*
X318503Y-56694D01*
X317126D01*
X321718Y-59449D02*
X319881D01*
X321718Y-57612D01*
Y-57153D01*
X321258Y-56694D01*
X320340D01*
X319881Y-57153D01*
X151476Y-172836D02*
Y-175591D01*
X152854D01*
X153313Y-175131D01*
Y-173295D01*
X152854Y-172836D01*
X151476D01*
X155609Y-175591D02*
Y-172836D01*
X154231Y-174213D01*
X156068D01*
X244783Y-218406D02*
Y-221161D01*
X246161D01*
X246620Y-220702D01*
Y-218866D01*
X246161Y-218406D01*
X244783D01*
X249375D02*
X247538D01*
Y-219784D01*
X248457Y-219325D01*
X248916D01*
X249375Y-219784D01*
Y-220702D01*
X248916Y-221161D01*
X247998D01*
X247538Y-220702D01*
X317028Y-193997D02*
Y-196752D01*
X318405D01*
X318864Y-196293D01*
Y-194456D01*
X318405Y-193997D01*
X317028D01*
X319783D02*
X321619D01*
Y-194456D01*
X319783Y-196293D01*
Y-196752D01*
X292717Y-206103D02*
Y-208858D01*
X294094D01*
X294553Y-208399D01*
Y-206562D01*
X294094Y-206103D01*
X292717D01*
X295472Y-206562D02*
X295931Y-206103D01*
X296849D01*
X297308Y-206562D01*
Y-207022D01*
X296849Y-207481D01*
X297308Y-207940D01*
Y-208399D01*
X296849Y-208858D01*
X295931D01*
X295472Y-208399D01*
Y-207940D01*
X295931Y-207481D01*
X295472Y-207022D01*
Y-206562D01*
X295931Y-207481D02*
X296849D01*
X219980Y-189076D02*
Y-191831D01*
X221817D01*
X222735D02*
X223654D01*
X223195D01*
Y-189076D01*
X222735Y-189535D01*
X159415Y-205250D02*
Y-203413D01*
X158956Y-202954D01*
X158038D01*
X157579Y-203413D01*
Y-205250D01*
X158038Y-205709D01*
X158956D01*
X158497Y-204790D02*
X159415Y-205709D01*
X158956D02*
X159415Y-205250D01*
X160334Y-205709D02*
X161252D01*
X160793D01*
Y-202954D01*
X160334Y-203413D01*
X44750Y-127494D02*
Y-125657D01*
X44291Y-125198D01*
X43373D01*
X42913Y-125657D01*
Y-127494D01*
X43373Y-127953D01*
X44291D01*
X43832Y-127034D02*
X44750Y-127953D01*
X44291D02*
X44750Y-127494D01*
X47505Y-127953D02*
X45668D01*
X47505Y-126116D01*
Y-125657D01*
X47046Y-125198D01*
X46128D01*
X45668Y-125657D01*
X44159Y-104068D02*
Y-102232D01*
X43700Y-101772D01*
X42782D01*
X42323Y-102232D01*
Y-104068D01*
X42782Y-104528D01*
X43700D01*
X43241Y-103609D02*
X44159Y-104528D01*
X43700D02*
X44159Y-104068D01*
X45078Y-102232D02*
X45537Y-101772D01*
X46455D01*
X46914Y-102232D01*
Y-102691D01*
X46455Y-103150D01*
X45996D01*
X46455D01*
X46914Y-103609D01*
Y-104068D01*
X46455Y-104528D01*
X45537D01*
X45078Y-104068D01*
X44258Y-69816D02*
Y-67980D01*
X43799Y-67521D01*
X42880D01*
X42421Y-67980D01*
Y-69816D01*
X42880Y-70276D01*
X43799D01*
X43340Y-69357D02*
X44258Y-70276D01*
X43799D02*
X44258Y-69816D01*
X46554Y-70276D02*
Y-67521D01*
X45176Y-68898D01*
X47013D01*
X44848Y-50131D02*
Y-48295D01*
X44389Y-47835D01*
X43471D01*
X43012Y-48295D01*
Y-50131D01*
X43471Y-50591D01*
X44389D01*
X43930Y-49672D02*
X44848Y-50591D01*
X44389D02*
X44848Y-50131D01*
X47603Y-47835D02*
X45767D01*
Y-49213D01*
X46685Y-48754D01*
X47144D01*
X47603Y-49213D01*
Y-50131D01*
X47144Y-50591D01*
X46226D01*
X45767Y-50131D01*
X43766Y-26903D02*
Y-25066D01*
X43307Y-24607D01*
X42388D01*
X41929Y-25066D01*
Y-26903D01*
X42388Y-27362D01*
X43307D01*
X42847Y-26444D02*
X43766Y-27362D01*
X43307D02*
X43766Y-26903D01*
X46521Y-24607D02*
X45603Y-25066D01*
X44684Y-25985D01*
Y-26903D01*
X45143Y-27362D01*
X46062D01*
X46521Y-26903D01*
Y-26444D01*
X46062Y-25985D01*
X44684D01*
X125492Y-110236D02*
Y-107481D01*
X126870D01*
X127329Y-107940D01*
Y-108859D01*
X126870Y-109318D01*
X125492D01*
X126410D02*
X127329Y-110236D01*
X128247D02*
X129165D01*
X128706D01*
Y-107481D01*
X128247Y-107940D01*
X166929Y-18799D02*
Y-16044D01*
X168307D01*
X168766Y-16503D01*
Y-17422D01*
X168307Y-17881D01*
X166929D01*
X167848D02*
X168766Y-18799D01*
X171521D02*
X169684D01*
X171521Y-16962D01*
Y-16503D01*
X171062Y-16044D01*
X170143D01*
X169684Y-16503D01*
X260630Y-73228D02*
Y-70473D01*
X262007D01*
X262467Y-70933D01*
Y-71851D01*
X262007Y-72310D01*
X260630D01*
X261548D02*
X262467Y-73228D01*
X263385Y-70933D02*
X263844Y-70473D01*
X264762D01*
X265222Y-70933D01*
Y-71392D01*
X264762Y-71851D01*
X264303D01*
X264762D01*
X265222Y-72310D01*
Y-72769D01*
X264762Y-73228D01*
X263844D01*
X263385Y-72769D01*
X259350Y-81398D02*
Y-78643D01*
X260728D01*
X261187Y-79102D01*
Y-80020D01*
X260728Y-80479D01*
X259350D01*
X260269D02*
X261187Y-81398D01*
X263483D02*
Y-78643D01*
X262105Y-80020D01*
X263942D01*
X333071Y-71752D02*
Y-68997D01*
X334448D01*
X334908Y-69456D01*
Y-70375D01*
X334448Y-70834D01*
X333071D01*
X333989D02*
X334908Y-71752D01*
X337663Y-68997D02*
X335826D01*
Y-70375D01*
X336744Y-69915D01*
X337203D01*
X337663Y-70375D01*
Y-71293D01*
X337203Y-71752D01*
X336285D01*
X335826Y-71293D01*
X257087Y-86122D02*
Y-83367D01*
X258464D01*
X258923Y-83826D01*
Y-84745D01*
X258464Y-85204D01*
X257087D01*
X258005D02*
X258923Y-86122D01*
X261678Y-83367D02*
X260760Y-83826D01*
X259842Y-84745D01*
Y-85663D01*
X260301Y-86122D01*
X261219D01*
X261678Y-85663D01*
Y-85204D01*
X261219Y-84745D01*
X259842D01*
X302264Y-111122D02*
Y-108367D01*
X303641D01*
X304100Y-108826D01*
Y-109745D01*
X303641Y-110204D01*
X302264D01*
X303182D02*
X304100Y-111122D01*
X305019Y-108367D02*
X306856D01*
Y-108826D01*
X305019Y-110663D01*
Y-111122D01*
X85827Y-219980D02*
X83072D01*
Y-218603D01*
X83531Y-218144D01*
X84449D01*
X84908Y-218603D01*
Y-219980D01*
Y-219062D02*
X85827Y-218144D01*
X83531Y-217225D02*
X83072Y-216766D01*
Y-215848D01*
X83531Y-215389D01*
X83990D01*
X84449Y-215848D01*
X84908Y-215389D01*
X85368D01*
X85827Y-215848D01*
Y-216766D01*
X85368Y-217225D01*
X84908D01*
X84449Y-216766D01*
X83990Y-217225D01*
X83531D01*
X84449Y-216766D02*
Y-215848D01*
X133858Y-217717D02*
X131103D01*
Y-216339D01*
X131562Y-215880D01*
X132481D01*
X132940Y-216339D01*
Y-217717D01*
Y-216798D02*
X133858Y-215880D01*
X133399Y-214962D02*
X133858Y-214502D01*
Y-213584D01*
X133399Y-213125D01*
X131562D01*
X131103Y-213584D01*
Y-214502D01*
X131562Y-214962D01*
X132022D01*
X132481Y-214502D01*
Y-213125D01*
X128937Y-206102D02*
Y-203347D01*
X130315D01*
X130774Y-203806D01*
Y-204725D01*
X130315Y-205184D01*
X128937D01*
X129855D02*
X130774Y-206102D01*
X131692D02*
X132610D01*
X132151D01*
Y-203347D01*
X131692Y-203806D01*
X133988D02*
X134447Y-203347D01*
X135365D01*
X135825Y-203806D01*
Y-205643D01*
X135365Y-206102D01*
X134447D01*
X133988Y-205643D01*
Y-203806D01*
X80315Y-199016D02*
Y-196261D01*
X81692D01*
X82152Y-196720D01*
Y-197638D01*
X81692Y-198097D01*
X80315D01*
X81233D02*
X82152Y-199016D01*
X83070D02*
X83988D01*
X83529D01*
Y-196261D01*
X83070Y-196720D01*
X87203Y-199016D02*
X85366D01*
X87203Y-197179D01*
Y-196720D01*
X86743Y-196261D01*
X85825D01*
X85366Y-196720D01*
X134153Y-199016D02*
X131398D01*
Y-197638D01*
X131858Y-197179D01*
X132776D01*
X133235Y-197638D01*
Y-199016D01*
Y-198097D02*
X134153Y-197179D01*
Y-196261D02*
Y-195342D01*
Y-195802D01*
X131398D01*
X131858Y-196261D01*
Y-193965D02*
X131398Y-193506D01*
Y-192587D01*
X131858Y-192128D01*
X132317D01*
X132776Y-192587D01*
Y-193046D01*
Y-192587D01*
X133235Y-192128D01*
X133694D01*
X134153Y-192587D01*
Y-193506D01*
X133694Y-193965D01*
X128543Y-187205D02*
Y-184450D01*
X129921D01*
X130380Y-184909D01*
Y-185827D01*
X129921Y-186286D01*
X128543D01*
X129462D02*
X130380Y-187205D01*
X131298D02*
X132217D01*
X131757D01*
Y-184450D01*
X131298Y-184909D01*
X134972Y-187205D02*
Y-184450D01*
X133594Y-185827D01*
X135431D01*
X139567Y-168799D02*
Y-166044D01*
X140944D01*
X141404Y-166503D01*
Y-167422D01*
X140944Y-167881D01*
X139567D01*
X140485D02*
X141404Y-168799D01*
X142322D02*
X143240D01*
X142781D01*
Y-166044D01*
X142322Y-166503D01*
X144618Y-168799D02*
X145536D01*
X145077D01*
Y-166044D01*
X144618Y-166503D01*
X73917Y-169685D02*
Y-166930D01*
X75295D01*
X75754Y-167389D01*
Y-168307D01*
X75295Y-168767D01*
X73917D01*
X74836D02*
X75754Y-169685D01*
X76672D02*
X77591D01*
X77131D01*
Y-166930D01*
X76672Y-167389D01*
X80805Y-166930D02*
X78968D01*
Y-168307D01*
X79887Y-167848D01*
X80346D01*
X80805Y-168307D01*
Y-169226D01*
X80346Y-169685D01*
X79427D01*
X78968Y-169226D01*
X134055Y-179724D02*
X131300D01*
Y-178347D01*
X131759Y-177888D01*
X132678D01*
X133137Y-178347D01*
Y-179724D01*
Y-178806D02*
X134055Y-177888D01*
Y-176969D02*
Y-176051D01*
Y-176510D01*
X131300D01*
X131759Y-176969D01*
X131300Y-172837D02*
X131759Y-173755D01*
X132678Y-174673D01*
X133596D01*
X134055Y-174214D01*
Y-173296D01*
X133596Y-172837D01*
X133137D01*
X132678Y-173296D01*
Y-174673D01*
X129528Y-168110D02*
Y-165355D01*
X130905D01*
X131364Y-165814D01*
Y-166733D01*
X130905Y-167192D01*
X129528D01*
X130446D02*
X131364Y-168110D01*
X132283D02*
X133201D01*
X132742D01*
Y-165355D01*
X132283Y-165814D01*
X134578Y-165355D02*
X136415D01*
Y-165814D01*
X134578Y-167651D01*
Y-168110D01*
X80807Y-162598D02*
Y-159843D01*
X82185D01*
X82644Y-160303D01*
Y-161221D01*
X82185Y-161680D01*
X80807D01*
X81725D02*
X82644Y-162598D01*
X83562D02*
X84480D01*
X84021D01*
Y-159843D01*
X83562Y-160303D01*
X85858D02*
X86317Y-159843D01*
X87235D01*
X87695Y-160303D01*
Y-160762D01*
X87235Y-161221D01*
X87695Y-161680D01*
Y-162139D01*
X87235Y-162598D01*
X86317D01*
X85858Y-162139D01*
Y-161680D01*
X86317Y-161221D01*
X85858Y-160762D01*
Y-160303D01*
X86317Y-161221D02*
X87235D01*
X134055Y-161417D02*
X131300D01*
Y-160040D01*
X131759Y-159581D01*
X132678D01*
X133137Y-160040D01*
Y-161417D01*
Y-160499D02*
X134055Y-159581D01*
Y-158662D02*
Y-157744D01*
Y-158203D01*
X131300D01*
X131759Y-158662D01*
X133596Y-156367D02*
X134055Y-155907D01*
Y-154989D01*
X133596Y-154530D01*
X131759D01*
X131300Y-154989D01*
Y-155907D01*
X131759Y-156367D01*
X132218D01*
X132678Y-155907D01*
Y-154530D01*
X129134Y-149213D02*
Y-146458D01*
X130511D01*
X130971Y-146917D01*
Y-147835D01*
X130511Y-148294D01*
X129134D01*
X130052D02*
X130971Y-149213D01*
X133726D02*
X131889D01*
X133726Y-147376D01*
Y-146917D01*
X133266Y-146458D01*
X132348D01*
X131889Y-146917D01*
X134644D02*
X135103Y-146458D01*
X136021D01*
X136481Y-146917D01*
Y-148753D01*
X136021Y-149213D01*
X135103D01*
X134644Y-148753D01*
Y-146917D01*
X80709Y-148228D02*
Y-145473D01*
X82086D01*
X82545Y-145932D01*
Y-146851D01*
X82086Y-147310D01*
X80709D01*
X81627D02*
X82545Y-148228D01*
X85300D02*
X83464D01*
X85300Y-146392D01*
Y-145932D01*
X84841Y-145473D01*
X83923D01*
X83464Y-145932D01*
X86219Y-148228D02*
X87137D01*
X86678D01*
Y-145473D01*
X86219Y-145932D01*
X131890Y-140157D02*
Y-137402D01*
X133267D01*
X133726Y-137862D01*
Y-138780D01*
X133267Y-139239D01*
X131890D01*
X132808D02*
X133726Y-140157D01*
X136481D02*
X134645D01*
X136481Y-138321D01*
Y-137862D01*
X136022Y-137402D01*
X135104D01*
X134645Y-137862D01*
X139236Y-140157D02*
X137400D01*
X139236Y-138321D01*
Y-137862D01*
X138777Y-137402D01*
X137859D01*
X137400Y-137862D01*
X118898Y-129429D02*
Y-126674D01*
X120275D01*
X120734Y-127133D01*
Y-128052D01*
X120275Y-128511D01*
X118898D01*
X119816D02*
X120734Y-129429D01*
X123489D02*
X121653D01*
X123489Y-127593D01*
Y-127133D01*
X123030Y-126674D01*
X122112D01*
X121653Y-127133D01*
X124408D02*
X124867Y-126674D01*
X125785D01*
X126244Y-127133D01*
Y-127593D01*
X125785Y-128052D01*
X125326D01*
X125785D01*
X126244Y-128511D01*
Y-128970D01*
X125785Y-129429D01*
X124867D01*
X124408Y-128970D01*
X73819Y-221457D02*
Y-218702D01*
X75196D01*
X75656Y-219161D01*
Y-220079D01*
X75196Y-220538D01*
X73819D01*
X74737D02*
X75656Y-221457D01*
X78411D02*
X76574D01*
X78411Y-219620D01*
Y-219161D01*
X77951Y-218702D01*
X77033D01*
X76574Y-219161D01*
X81166Y-218702D02*
X80247Y-219161D01*
X79329Y-220079D01*
Y-220998D01*
X79788Y-221457D01*
X80706D01*
X81166Y-220998D01*
Y-220538D01*
X80706Y-220079D01*
X79329D01*
X72835Y-187303D02*
Y-184548D01*
X74212D01*
X74671Y-185007D01*
Y-185926D01*
X74212Y-186385D01*
X72835D01*
X73753D02*
X74671Y-187303D01*
X77426D02*
X75590D01*
X77426Y-185467D01*
Y-185007D01*
X76967Y-184548D01*
X76049D01*
X75590Y-185007D01*
X78345D02*
X78804Y-184548D01*
X79722D01*
X80181Y-185007D01*
Y-185467D01*
X79722Y-185926D01*
X80181Y-186385D01*
Y-186844D01*
X79722Y-187303D01*
X78804D01*
X78345Y-186844D01*
Y-186385D01*
X78804Y-185926D01*
X78345Y-185467D01*
Y-185007D01*
X78804Y-185926D02*
X79722D01*
X124606Y-122638D02*
Y-119883D01*
X125984D01*
X126443Y-120342D01*
Y-121260D01*
X125984Y-121720D01*
X124606D01*
X125525D02*
X126443Y-122638D01*
X129198D02*
X127361D01*
X129198Y-120801D01*
Y-120342D01*
X128739Y-119883D01*
X127821D01*
X127361Y-120342D01*
X131494Y-122638D02*
Y-119883D01*
X130116Y-121260D01*
X131953D01*
X87500Y-131102D02*
X84745D01*
Y-129725D01*
X85204Y-129266D01*
X86123D01*
X86582Y-129725D01*
Y-131102D01*
Y-130184D02*
X87500Y-129266D01*
Y-126511D02*
Y-128347D01*
X85663Y-126511D01*
X85204D01*
X84745Y-126970D01*
Y-127888D01*
X85204Y-128347D01*
X84745Y-123756D02*
Y-125592D01*
X86123D01*
X85663Y-124674D01*
Y-124215D01*
X86123Y-123756D01*
X87041D01*
X87500Y-124215D01*
Y-125133D01*
X87041Y-125592D01*
X80709Y-181102D02*
Y-178347D01*
X82086D01*
X82545Y-178806D01*
Y-179725D01*
X82086Y-180184D01*
X80709D01*
X81627D02*
X82545Y-181102D01*
X85300D02*
X83464D01*
X85300Y-179266D01*
Y-178806D01*
X84841Y-178347D01*
X83923D01*
X83464Y-178806D01*
X86219Y-180643D02*
X86678Y-181102D01*
X87596D01*
X88055Y-180643D01*
Y-178806D01*
X87596Y-178347D01*
X86678D01*
X86219Y-178806D01*
Y-179266D01*
X86678Y-179725D01*
X88055D01*
X87106Y-119488D02*
X84351D01*
Y-118111D01*
X84811Y-117651D01*
X85729D01*
X86188Y-118111D01*
Y-119488D01*
Y-118570D02*
X87106Y-117651D01*
Y-114897D02*
Y-116733D01*
X85270Y-114897D01*
X84811D01*
X84351Y-115356D01*
Y-116274D01*
X84811Y-116733D01*
X84351Y-113978D02*
Y-112142D01*
X84811D01*
X86647Y-113978D01*
X87106D01*
X74016Y-153150D02*
Y-150395D01*
X75393D01*
X75852Y-150854D01*
Y-151772D01*
X75393Y-152231D01*
X74016D01*
X74934D02*
X75852Y-153150D01*
X76771Y-150854D02*
X77230Y-150395D01*
X78148D01*
X78607Y-150854D01*
Y-151313D01*
X78148Y-151772D01*
X77689D01*
X78148D01*
X78607Y-152231D01*
Y-152690D01*
X78148Y-153150D01*
X77230D01*
X76771Y-152690D01*
X81362Y-153150D02*
X79526D01*
X81362Y-151313D01*
Y-150854D01*
X80903Y-150395D01*
X79985D01*
X79526Y-150854D01*
X122736Y-109744D02*
X119981D01*
Y-108367D01*
X120440Y-107907D01*
X121359D01*
X121818Y-108367D01*
Y-109744D01*
Y-108826D02*
X122736Y-107907D01*
X120440Y-106989D02*
X119981Y-106530D01*
Y-105612D01*
X120440Y-105152D01*
X120899D01*
X121359Y-105612D01*
Y-106071D01*
Y-105612D01*
X121818Y-105152D01*
X122277D01*
X122736Y-105612D01*
Y-106530D01*
X122277Y-106989D01*
X120440Y-104234D02*
X119981Y-103775D01*
Y-102857D01*
X120440Y-102397D01*
X122277D01*
X122736Y-102857D01*
Y-103775D01*
X122277Y-104234D01*
X120440D01*
X85630Y-106496D02*
Y-103741D01*
X87007D01*
X87467Y-104200D01*
Y-105119D01*
X87007Y-105578D01*
X85630D01*
X86548D02*
X87467Y-106496D01*
X88385Y-104200D02*
X88844Y-103741D01*
X89763D01*
X90222Y-104200D01*
Y-104659D01*
X89763Y-105119D01*
X89303D01*
X89763D01*
X90222Y-105578D01*
Y-106037D01*
X89763Y-106496D01*
X88844D01*
X88385Y-106037D01*
X91140Y-106496D02*
X92058D01*
X91599D01*
Y-103741D01*
X91140Y-104200D01*
X73425Y-137795D02*
Y-135040D01*
X74803D01*
X75262Y-135499D01*
Y-136418D01*
X74803Y-136877D01*
X73425D01*
X74344D02*
X75262Y-137795D01*
X76180Y-135499D02*
X76639Y-135040D01*
X77558D01*
X78017Y-135499D01*
Y-135959D01*
X77558Y-136418D01*
X77099D01*
X77558D01*
X78017Y-136877D01*
Y-137336D01*
X77558Y-137795D01*
X76639D01*
X76180Y-137336D01*
X80313Y-137795D02*
Y-135040D01*
X78935Y-136418D01*
X80772D01*
X86910Y-97342D02*
X84154D01*
Y-95965D01*
X84614Y-95506D01*
X85532D01*
X85991Y-95965D01*
Y-97342D01*
Y-96424D02*
X86910Y-95506D01*
X84614Y-94587D02*
X84154Y-94128D01*
Y-93210D01*
X84614Y-92751D01*
X85073D01*
X85532Y-93210D01*
Y-93669D01*
Y-93210D01*
X85991Y-92751D01*
X86450D01*
X86910Y-93210D01*
Y-94128D01*
X86450Y-94587D01*
X84614Y-91833D02*
X84154Y-91373D01*
Y-90455D01*
X84614Y-89996D01*
X85073D01*
X85532Y-90455D01*
Y-90914D01*
Y-90455D01*
X85991Y-89996D01*
X86450D01*
X86910Y-90455D01*
Y-91373D01*
X86450Y-91833D01*
X116043Y-83071D02*
Y-80316D01*
X117421D01*
X117880Y-80775D01*
Y-81693D01*
X117421Y-82152D01*
X116043D01*
X116962D02*
X117880Y-83071D01*
X118798Y-80775D02*
X119257Y-80316D01*
X120176D01*
X120635Y-80775D01*
Y-81234D01*
X120176Y-81693D01*
X119717D01*
X120176D01*
X120635Y-82152D01*
Y-82612D01*
X120176Y-83071D01*
X119257D01*
X118798Y-82612D01*
X123390Y-80316D02*
X121553D01*
Y-81693D01*
X122472Y-81234D01*
X122931D01*
X123390Y-81693D01*
Y-82612D01*
X122931Y-83071D01*
X122012D01*
X121553Y-82612D01*
X84941Y-84350D02*
Y-81595D01*
X86318D01*
X86778Y-82055D01*
Y-82973D01*
X86318Y-83432D01*
X84941D01*
X85859D02*
X86778Y-84350D01*
X87696Y-82055D02*
X88155Y-81595D01*
X89073D01*
X89533Y-82055D01*
Y-82514D01*
X89073Y-82973D01*
X88614D01*
X89073D01*
X89533Y-83432D01*
Y-83891D01*
X89073Y-84350D01*
X88155D01*
X87696Y-83891D01*
X92288Y-81595D02*
X91369Y-82055D01*
X90451Y-82973D01*
Y-83891D01*
X90910Y-84350D01*
X91829D01*
X92288Y-83891D01*
Y-83432D01*
X91829Y-82973D01*
X90451D01*
X86910Y-75394D02*
X84154D01*
Y-74016D01*
X84614Y-73557D01*
X85532D01*
X85991Y-74016D01*
Y-75394D01*
Y-74475D02*
X86910Y-73557D01*
X84614Y-72639D02*
X84154Y-72180D01*
Y-71261D01*
X84614Y-70802D01*
X85073D01*
X85532Y-71261D01*
Y-71720D01*
Y-71261D01*
X85991Y-70802D01*
X86450D01*
X86910Y-71261D01*
Y-72180D01*
X86450Y-72639D01*
X84154Y-69884D02*
Y-68047D01*
X84614D01*
X86450Y-69884D01*
X86910D01*
X116831Y-50394D02*
Y-47639D01*
X118208D01*
X118667Y-48098D01*
Y-49016D01*
X118208Y-49475D01*
X116831D01*
X117749D02*
X118667Y-50394D01*
X119586Y-48098D02*
X120045Y-47639D01*
X120963D01*
X121422Y-48098D01*
Y-48557D01*
X120963Y-49016D01*
X120504D01*
X120963D01*
X121422Y-49475D01*
Y-49935D01*
X120963Y-50394D01*
X120045D01*
X119586Y-49935D01*
X122341Y-48098D02*
X122800Y-47639D01*
X123718D01*
X124177Y-48098D01*
Y-48557D01*
X123718Y-49016D01*
X124177Y-49475D01*
Y-49935D01*
X123718Y-50394D01*
X122800D01*
X122341Y-49935D01*
Y-49475D01*
X122800Y-49016D01*
X122341Y-48557D01*
Y-48098D01*
X122800Y-49016D02*
X123718D01*
X85236Y-62008D02*
Y-59253D01*
X86614D01*
X87073Y-59712D01*
Y-60630D01*
X86614Y-61089D01*
X85236D01*
X86155D02*
X87073Y-62008D01*
X87991Y-59712D02*
X88450Y-59253D01*
X89369D01*
X89828Y-59712D01*
Y-60171D01*
X89369Y-60630D01*
X88910D01*
X89369D01*
X89828Y-61089D01*
Y-61549D01*
X89369Y-62008D01*
X88450D01*
X87991Y-61549D01*
X90746D02*
X91205Y-62008D01*
X92124D01*
X92583Y-61549D01*
Y-59712D01*
X92124Y-59253D01*
X91205D01*
X90746Y-59712D01*
Y-60171D01*
X91205Y-60630D01*
X92583D01*
X87100Y-53500D02*
X84345D01*
Y-52122D01*
X84804Y-51663D01*
X85723D01*
X86182Y-52122D01*
Y-53500D01*
Y-52582D02*
X87100Y-51663D01*
Y-49367D02*
X84345D01*
X85723Y-50745D01*
Y-48908D01*
X84804Y-47990D02*
X84345Y-47531D01*
Y-46613D01*
X84804Y-46153D01*
X86641D01*
X87100Y-46613D01*
Y-47531D01*
X86641Y-47990D01*
X84804D01*
X116732Y-28740D02*
Y-25985D01*
X118110D01*
X118569Y-26444D01*
Y-27363D01*
X118110Y-27822D01*
X116732D01*
X117651D02*
X118569Y-28740D01*
X120865D02*
Y-25985D01*
X119487Y-27363D01*
X121324D01*
X122242Y-28740D02*
X123161D01*
X122702D01*
Y-25985D01*
X122242Y-26444D01*
X85236Y-39469D02*
Y-36713D01*
X86614D01*
X87073Y-37173D01*
Y-38091D01*
X86614Y-38550D01*
X85236D01*
X86155D02*
X87073Y-39469D01*
X89369D02*
Y-36713D01*
X87991Y-38091D01*
X89828D01*
X92583Y-39469D02*
X90746D01*
X92583Y-37632D01*
Y-37173D01*
X92124Y-36713D01*
X91205D01*
X90746Y-37173D01*
X87200Y-31300D02*
X84445D01*
Y-29923D01*
X84904Y-29463D01*
X85822D01*
X86282Y-29923D01*
Y-31300D01*
Y-30382D02*
X87200Y-29463D01*
Y-27167D02*
X84445D01*
X85822Y-28545D01*
Y-26708D01*
X84904Y-25790D02*
X84445Y-25331D01*
Y-24412D01*
X84904Y-23953D01*
X85363D01*
X85822Y-24412D01*
Y-24872D01*
Y-24412D01*
X86282Y-23953D01*
X86741D01*
X87200Y-24412D01*
Y-25331D01*
X86741Y-25790D01*
X163878Y-220866D02*
Y-218111D01*
X165255D01*
X165715Y-218570D01*
Y-219489D01*
X165255Y-219948D01*
X163878D01*
X164796D02*
X165715Y-220866D01*
X168010D02*
Y-218111D01*
X166633Y-219489D01*
X168470D01*
X170765Y-220866D02*
Y-218111D01*
X169388Y-219489D01*
X171225D01*
X181299Y-181693D02*
Y-178938D01*
X182677D01*
X183136Y-179397D01*
Y-180315D01*
X182677Y-180775D01*
X181299D01*
X182218D02*
X183136Y-181693D01*
X185432D02*
Y-178938D01*
X184054Y-180315D01*
X185891D01*
X188646Y-178938D02*
X186809D01*
Y-180315D01*
X187728Y-179856D01*
X188187D01*
X188646Y-180315D01*
Y-181234D01*
X188187Y-181693D01*
X187268D01*
X186809Y-181234D01*
X179626Y-194980D02*
X176871D01*
Y-193603D01*
X177330Y-193144D01*
X178249D01*
X178708Y-193603D01*
Y-194980D01*
Y-194062D02*
X179626Y-193144D01*
Y-190848D02*
X176871D01*
X178249Y-192225D01*
Y-190389D01*
X176871Y-187634D02*
X177330Y-188552D01*
X178249Y-189470D01*
X179167D01*
X179626Y-189011D01*
Y-188093D01*
X179167Y-187634D01*
X178708D01*
X178249Y-188093D01*
Y-189470D01*
X220866Y-160138D02*
X218111D01*
Y-158760D01*
X218570Y-158301D01*
X219489D01*
X219948Y-158760D01*
Y-160138D01*
Y-159220D02*
X220866Y-158301D01*
Y-156005D02*
X218111D01*
X219489Y-157383D01*
Y-155546D01*
X218111Y-154628D02*
Y-152791D01*
X218570D01*
X220407Y-154628D01*
X220866D01*
X305217Y-166535D02*
Y-163780D01*
X306594D01*
X307053Y-164240D01*
Y-165158D01*
X306594Y-165617D01*
X305217D01*
X306135D02*
X307053Y-166535D01*
X309349D02*
Y-163780D01*
X307972Y-165158D01*
X309808D01*
X310727Y-164240D02*
X311186Y-163780D01*
X312104D01*
X312563Y-164240D01*
Y-164699D01*
X312104Y-165158D01*
X312563Y-165617D01*
Y-166076D01*
X312104Y-166535D01*
X311186D01*
X310727Y-166076D01*
Y-165617D01*
X311186Y-165158D01*
X310727Y-164699D01*
Y-164240D01*
X311186Y-165158D02*
X312104D01*
X286122Y-210827D02*
X283367D01*
Y-209449D01*
X283826Y-208990D01*
X284745D01*
X285204Y-209449D01*
Y-210827D01*
Y-209908D02*
X286122Y-208990D01*
Y-206694D02*
X283367D01*
X284745Y-208072D01*
Y-206235D01*
X285663Y-205317D02*
X286122Y-204858D01*
Y-203939D01*
X285663Y-203480D01*
X283826D01*
X283367Y-203939D01*
Y-204858D01*
X283826Y-205317D01*
X284285D01*
X284745Y-204858D01*
Y-203480D01*
X261221Y-200295D02*
Y-197540D01*
X262598D01*
X263057Y-197999D01*
Y-198918D01*
X262598Y-199377D01*
X261221D01*
X262139D02*
X263057Y-200295D01*
X265812Y-197540D02*
X263976D01*
Y-198918D01*
X264894Y-198459D01*
X265353D01*
X265812Y-198918D01*
Y-199836D01*
X265353Y-200295D01*
X264435D01*
X263976Y-199836D01*
X266730Y-197999D02*
X267190Y-197540D01*
X268108D01*
X268567Y-197999D01*
Y-199836D01*
X268108Y-200295D01*
X267190D01*
X266730Y-199836D01*
Y-197999D01*
X238976Y-200492D02*
Y-197737D01*
X240354D01*
X240813Y-198196D01*
Y-199115D01*
X240354Y-199574D01*
X238976D01*
X239895D02*
X240813Y-200492D01*
X243568Y-197737D02*
X241731D01*
Y-199115D01*
X242650Y-198655D01*
X243109D01*
X243568Y-199115D01*
Y-200033D01*
X243109Y-200492D01*
X242191D01*
X241731Y-200033D01*
X244486Y-200492D02*
X245405D01*
X244946D01*
Y-197737D01*
X244486Y-198196D01*
X251476Y-200295D02*
Y-197540D01*
X252854D01*
X253313Y-197999D01*
Y-198918D01*
X252854Y-199377D01*
X251476D01*
X252395D02*
X253313Y-200295D01*
X256068Y-197540D02*
X254231D01*
Y-198918D01*
X255150Y-198459D01*
X255609D01*
X256068Y-198918D01*
Y-199836D01*
X255609Y-200295D01*
X254691D01*
X254231Y-199836D01*
X258823Y-200295D02*
X256986D01*
X258823Y-198459D01*
Y-197999D01*
X258364Y-197540D01*
X257446D01*
X256986Y-197999D01*
X315453Y-182579D02*
X312698D01*
Y-181201D01*
X313157Y-180742D01*
X314075D01*
X314534Y-181201D01*
Y-182579D01*
Y-181660D02*
X315453Y-180742D01*
X312698Y-177987D02*
Y-179824D01*
X314075D01*
X313616Y-178905D01*
Y-178446D01*
X314075Y-177987D01*
X314994D01*
X315453Y-178446D01*
Y-179365D01*
X314994Y-179824D01*
X313157Y-177069D02*
X312698Y-176610D01*
Y-175691D01*
X313157Y-175232D01*
X313616D01*
X314075Y-175691D01*
Y-176150D01*
Y-175691D01*
X314534Y-175232D01*
X314994D01*
X315453Y-175691D01*
Y-176610D01*
X314994Y-177069D01*
X296752Y-180709D02*
X293997D01*
Y-179331D01*
X294456Y-178872D01*
X295374D01*
X295834Y-179331D01*
Y-180709D01*
Y-179790D02*
X296752Y-178872D01*
X293997Y-176117D02*
Y-177954D01*
X295374D01*
X294915Y-177035D01*
Y-176576D01*
X295374Y-176117D01*
X296293D01*
X296752Y-176576D01*
Y-177495D01*
X296293Y-177954D01*
X296752Y-173821D02*
X293997D01*
X295374Y-175199D01*
Y-173362D01*
X287303Y-184449D02*
Y-181694D01*
X288681D01*
X289140Y-182153D01*
Y-183071D01*
X288681Y-183530D01*
X287303D01*
X288222D02*
X289140Y-184449D01*
X291895Y-181694D02*
X290058D01*
Y-183071D01*
X290977Y-182612D01*
X291436D01*
X291895Y-183071D01*
Y-183990D01*
X291436Y-184449D01*
X290517D01*
X290058Y-183990D01*
X294650Y-181694D02*
X292813D01*
Y-183071D01*
X293731Y-182612D01*
X294191D01*
X294650Y-183071D01*
Y-183990D01*
X294191Y-184449D01*
X293272D01*
X292813Y-183990D01*
X247441Y-141043D02*
Y-143798D01*
X246063D01*
X245604Y-143339D01*
Y-142421D01*
X246063Y-141962D01*
X247441D01*
X246523D02*
X245604Y-141043D01*
X242849Y-143798D02*
X244686D01*
Y-142421D01*
X243768Y-142880D01*
X243308D01*
X242849Y-142421D01*
Y-141502D01*
X243308Y-141043D01*
X244227D01*
X244686Y-141502D01*
X240094Y-143798D02*
X241013Y-143339D01*
X241931Y-142421D01*
Y-141502D01*
X241472Y-141043D01*
X240553D01*
X240094Y-141502D01*
Y-141962D01*
X240553Y-142421D01*
X241931D01*
X307776Y-161614D02*
X305021D01*
Y-160237D01*
X305480Y-159777D01*
X306398D01*
X306857Y-160237D01*
Y-161614D01*
Y-160696D02*
X307776Y-159777D01*
X305021Y-157023D02*
Y-158859D01*
X306398D01*
X305939Y-157941D01*
Y-157482D01*
X306398Y-157023D01*
X307316D01*
X307776Y-157482D01*
Y-158400D01*
X307316Y-158859D01*
X305480Y-156104D02*
X305021Y-155645D01*
Y-154727D01*
X305480Y-154268D01*
X305939D01*
X306398Y-154727D01*
X306857Y-154268D01*
X307316D01*
X307776Y-154727D01*
Y-155645D01*
X307316Y-156104D01*
X306857D01*
X306398Y-155645D01*
X305939Y-156104D01*
X305480D01*
X306398Y-155645D02*
Y-154727D01*
X227067Y-188103D02*
Y-185348D01*
X228444D01*
X228904Y-185807D01*
Y-186725D01*
X228444Y-187185D01*
X227067D01*
X227985D02*
X228904Y-188103D01*
X231659Y-185348D02*
X229822D01*
Y-186725D01*
X230740Y-186266D01*
X231200D01*
X231659Y-186725D01*
Y-187644D01*
X231200Y-188103D01*
X230281D01*
X229822Y-187644D01*
X232577D02*
X233036Y-188103D01*
X233955D01*
X234414Y-187644D01*
Y-185807D01*
X233955Y-185348D01*
X233036D01*
X232577Y-185807D01*
Y-186266D01*
X233036Y-186725D01*
X234414D01*
X264764Y-141142D02*
Y-138387D01*
X266141D01*
X266600Y-138846D01*
Y-139764D01*
X266141Y-140223D01*
X264764D01*
X265682D02*
X266600Y-141142D01*
X269356Y-138387D02*
X267519D01*
Y-139764D01*
X268437Y-139305D01*
X268896D01*
X269356Y-139764D01*
Y-140683D01*
X268896Y-141142D01*
X267978D01*
X267519Y-140683D01*
X270274Y-138387D02*
X272111D01*
Y-138846D01*
X270274Y-140683D01*
Y-141142D01*
X277264Y-139567D02*
Y-136812D01*
X278641D01*
X279100Y-137271D01*
Y-138189D01*
X278641Y-138649D01*
X277264D01*
X278182D02*
X279100Y-139567D01*
X280019Y-136812D02*
Y-139567D01*
X281856D01*
X282774Y-136812D02*
X283692D01*
X283233D01*
Y-139567D01*
X282774D01*
X283692D01*
X285070D02*
Y-136812D01*
X286906Y-139567D01*
Y-136812D01*
X287825D02*
Y-139567D01*
Y-138649D01*
X289661Y-136812D01*
X288284Y-138189D01*
X289661Y-139567D01*
X295171Y-137271D02*
X294712Y-136812D01*
X293794D01*
X293335Y-137271D01*
Y-137730D01*
X293794Y-138189D01*
X294712D01*
X295171Y-138649D01*
Y-139108D01*
X294712Y-139567D01*
X293794D01*
X293335Y-139108D01*
X296090Y-136812D02*
Y-139567D01*
X297008Y-138649D01*
X297926Y-139567D01*
Y-136812D01*
X298845D02*
Y-139567D01*
X300222D01*
X300681Y-139108D01*
Y-137271D01*
X300222Y-136812D01*
X298845D01*
X301600Y-139567D02*
X302518D01*
X302059D01*
Y-136812D01*
X301600Y-137271D01*
X287402Y-67619D02*
Y-69915D01*
X287861Y-70374D01*
X288779D01*
X289238Y-69915D01*
Y-67619D01*
X291993Y-70374D02*
X290157D01*
X291993Y-68537D01*
Y-68078D01*
X291534Y-67619D01*
X290616D01*
X290157Y-68078D01*
X311122Y-18899D02*
Y-21194D01*
X311581Y-21654D01*
X312500D01*
X312959Y-21194D01*
Y-18899D01*
X313877Y-19358D02*
X314336Y-18899D01*
X315255D01*
X315714Y-19358D01*
Y-19817D01*
X315255Y-20276D01*
X314795D01*
X315255D01*
X315714Y-20735D01*
Y-21194D01*
X315255Y-21654D01*
X314336D01*
X313877Y-21194D01*
X118898Y-206694D02*
Y-208990D01*
X119357Y-209449D01*
X120275D01*
X120734Y-208990D01*
Y-206694D01*
X121653D02*
X123489D01*
Y-207153D01*
X121653Y-208990D01*
Y-209449D01*
X119095Y-187895D02*
Y-190190D01*
X119554Y-190650D01*
X120472D01*
X120931Y-190190D01*
Y-187895D01*
X121850Y-188354D02*
X122309Y-187895D01*
X123227D01*
X123686Y-188354D01*
Y-188813D01*
X123227Y-189272D01*
X123686Y-189731D01*
Y-190190D01*
X123227Y-190650D01*
X122309D01*
X121850Y-190190D01*
Y-189731D01*
X122309Y-189272D01*
X121850Y-188813D01*
Y-188354D01*
X122309Y-189272D02*
X123227D01*
X119291Y-169095D02*
Y-171391D01*
X119750Y-171850D01*
X120669D01*
X121128Y-171391D01*
Y-169095D01*
X122046Y-171391D02*
X122505Y-171850D01*
X123424D01*
X123883Y-171391D01*
Y-169554D01*
X123424Y-169095D01*
X122505D01*
X122046Y-169554D01*
Y-170014D01*
X122505Y-170473D01*
X123883D01*
X119488Y-150001D02*
Y-152297D01*
X119947Y-152756D01*
X120866D01*
X121325Y-152297D01*
Y-150001D01*
X122243Y-152756D02*
X123162D01*
X122702D01*
Y-150001D01*
X122243Y-150460D01*
X124539D02*
X124998Y-150001D01*
X125917D01*
X126376Y-150460D01*
Y-152297D01*
X125917Y-152756D01*
X124998D01*
X124539Y-152297D01*
Y-150460D01*
X119291Y-131005D02*
Y-133301D01*
X119750Y-133760D01*
X120669D01*
X121128Y-133301D01*
Y-131005D01*
X122046Y-133760D02*
X122965D01*
X122505D01*
Y-131005D01*
X122046Y-131464D01*
X124342Y-133760D02*
X125260D01*
X124801D01*
Y-131005D01*
X124342Y-131464D01*
X36910Y-212697D02*
X39206D01*
X39665Y-212238D01*
Y-211319D01*
X39206Y-210860D01*
X36910D01*
X39665Y-209942D02*
Y-209023D01*
Y-209483D01*
X36910D01*
X37369Y-209942D01*
X39665Y-205809D02*
Y-207646D01*
X37829Y-205809D01*
X37369D01*
X36910Y-206269D01*
Y-207187D01*
X37369Y-207646D01*
X36910Y-198031D02*
X39206D01*
X39665Y-197572D01*
Y-196654D01*
X39206Y-196195D01*
X36910D01*
X39665Y-195276D02*
Y-194358D01*
Y-194817D01*
X36910D01*
X37369Y-195276D01*
X39665Y-191603D02*
X36910D01*
X38288Y-192981D01*
Y-191144D01*
X106201Y-103840D02*
Y-106135D01*
X106660Y-106595D01*
X107578D01*
X108037Y-106135D01*
Y-103840D01*
X108956Y-106595D02*
X109874D01*
X109415D01*
Y-103840D01*
X108956Y-104299D01*
X111252D02*
X111711Y-103840D01*
X112629D01*
X113088Y-104299D01*
Y-104758D01*
X112629Y-105217D01*
X112170D01*
X112629D01*
X113088Y-105676D01*
Y-106135D01*
X112629Y-106595D01*
X111711D01*
X111252Y-106135D01*
X37009Y-181004D02*
X39305D01*
X39764Y-180545D01*
Y-179626D01*
X39305Y-179167D01*
X37009D01*
X39764Y-178249D02*
Y-177331D01*
Y-177790D01*
X37009D01*
X37468Y-178249D01*
X37009Y-174116D02*
Y-175953D01*
X38386D01*
X37927Y-175035D01*
Y-174576D01*
X38386Y-174116D01*
X39305D01*
X39764Y-174576D01*
Y-175494D01*
X39305Y-175953D01*
X36517Y-163287D02*
X38813D01*
X39272Y-162828D01*
Y-161910D01*
X38813Y-161451D01*
X36517D01*
X39272Y-160532D02*
Y-159614D01*
Y-160073D01*
X36517D01*
X36976Y-160532D01*
X36517Y-158237D02*
Y-156400D01*
X36976D01*
X38813Y-158237D01*
X39272D01*
X36910Y-147146D02*
X39206D01*
X39665Y-146686D01*
Y-145768D01*
X39206Y-145309D01*
X36910D01*
X39665Y-144391D02*
Y-143472D01*
Y-143931D01*
X36910D01*
X37369Y-144391D01*
Y-142095D02*
X36910Y-141636D01*
Y-140717D01*
X37369Y-140258D01*
X37829D01*
X38288Y-140717D01*
X38747Y-140258D01*
X39206D01*
X39665Y-140717D01*
Y-141636D01*
X39206Y-142095D01*
X38747D01*
X38288Y-141636D01*
X37829Y-142095D01*
X37369D01*
X38288Y-141636D02*
Y-140717D01*
X103543Y-81891D02*
Y-84187D01*
X104002Y-84646D01*
X104921D01*
X105380Y-84187D01*
Y-81891D01*
X106298Y-84646D02*
X107217D01*
X106757D01*
Y-81891D01*
X106298Y-82350D01*
X110431Y-81891D02*
X109512Y-82350D01*
X108594Y-83268D01*
Y-84187D01*
X109053Y-84646D01*
X109972D01*
X110431Y-84187D01*
Y-83727D01*
X109972Y-83268D01*
X108594D01*
X103937Y-59745D02*
Y-62041D01*
X104396Y-62500D01*
X105315D01*
X105774Y-62041D01*
Y-59745D01*
X106692Y-62500D02*
X107610D01*
X107151D01*
Y-59745D01*
X106692Y-60204D01*
X108988Y-62041D02*
X109447Y-62500D01*
X110365D01*
X110825Y-62041D01*
Y-60204D01*
X110365Y-59745D01*
X109447D01*
X108988Y-60204D01*
Y-60663D01*
X109447Y-61123D01*
X110825D01*
X105118Y-36615D02*
Y-38911D01*
X105577Y-39370D01*
X106496D01*
X106955Y-38911D01*
Y-36615D01*
X109710Y-39370D02*
X107873D01*
X109710Y-37533D01*
Y-37074D01*
X109251Y-36615D01*
X108332D01*
X107873Y-37074D01*
X110628D02*
X111087Y-36615D01*
X112006D01*
X112465Y-37074D01*
Y-38911D01*
X112006Y-39370D01*
X111087D01*
X110628Y-38911D01*
Y-37074D01*
X105709Y-15158D02*
Y-17454D01*
X106168Y-17913D01*
X107086D01*
X107545Y-17454D01*
Y-15158D01*
X110300Y-17913D02*
X108464D01*
X110300Y-16077D01*
Y-15618D01*
X109841Y-15158D01*
X108923D01*
X108464Y-15618D01*
X111219Y-17913D02*
X112137D01*
X111678D01*
Y-15158D01*
X111219Y-15618D01*
X190650Y-217422D02*
Y-219718D01*
X191109Y-220177D01*
X192027D01*
X192486Y-219718D01*
Y-217422D01*
X195241Y-220177D02*
X193405D01*
X195241Y-218340D01*
Y-217881D01*
X194782Y-217422D01*
X193864D01*
X193405Y-217881D01*
X197996Y-220177D02*
X196160D01*
X197996Y-218340D01*
Y-217881D01*
X197537Y-217422D01*
X196619D01*
X196160Y-217881D01*
X126673Y-79332D02*
X128510Y-82087D01*
Y-79332D02*
X126673Y-82087D01*
X129428Y-79332D02*
X131265D01*
X130347D01*
Y-82087D01*
X132183D02*
Y-80250D01*
X133102Y-79332D01*
X134020Y-80250D01*
Y-82087D01*
Y-80709D01*
X132183D01*
X134938Y-79332D02*
Y-82087D01*
X136775D01*
X137693D02*
X138612D01*
X138153D01*
Y-79332D01*
X137693Y-79791D01*
X227756Y-150591D02*
X229593Y-153347D01*
Y-150591D02*
X227756Y-153347D01*
X230511Y-150591D02*
X232348D01*
X231429D01*
Y-153347D01*
X233266D02*
Y-151510D01*
X234184Y-150591D01*
X235103Y-151510D01*
Y-153347D01*
Y-151969D01*
X233266D01*
X236021Y-150591D02*
Y-153347D01*
X237858D01*
X238776Y-151051D02*
X239235Y-150591D01*
X240154D01*
X240613Y-151051D01*
Y-151510D01*
X240154Y-151969D01*
X239694D01*
X240154D01*
X240613Y-152428D01*
Y-152887D01*
X240154Y-153347D01*
X239235D01*
X238776Y-152887D01*
D21*
X187008Y-5906D02*
D03*
Y-230315D02*
D03*
M02*
