G04*
G04 #@! TF.GenerationSoftware,Altium Limited,Altium Designer,21.8.1 (53)*
G04*
G04 Layer_Color=16711935*
%FSLAX25Y25*%
%MOIN*%
G70*
G04*
G04 #@! TF.SameCoordinates,D7649F9F-AB44-4DDD-A0E2-BCBC4CF329E9*
G04*
G04*
G04 #@! TF.FilePolarity,Negative*
G04*
G01*
G75*
%ADD104O,0.08661X0.04528*%
%ADD105C,0.03150*%
%ADD106C,0.07874*%
%ADD107R,0.06299X0.06299*%
%ADD108C,0.06299*%
%ADD109C,0.08268*%
%ADD110C,0.02362*%
%ADD128C,0.00100*%
D104*
X351457Y-209035D02*
D03*
Y-175020D02*
D03*
X367913Y-209035D02*
D03*
Y-175020D02*
D03*
D105*
X353543Y-203405D02*
D03*
Y-180650D02*
D03*
D106*
X354823Y-37795D02*
D03*
X344980D02*
D03*
X354823Y-51575D02*
D03*
X344980D02*
D03*
X354823Y-65354D02*
D03*
X344980D02*
D03*
X354823Y-79134D02*
D03*
X344980D02*
D03*
X354823Y-92913D02*
D03*
X344980D02*
D03*
X354823Y-106693D02*
D03*
X344980D02*
D03*
X354823Y-120472D02*
D03*
X344980D02*
D03*
X354823Y-134252D02*
D03*
X344980D02*
D03*
D107*
X186969Y-21654D02*
D03*
X257953Y-130512D02*
D03*
D108*
X196968Y-21654D02*
D03*
X206968D02*
D03*
X216968D02*
D03*
X226969D02*
D03*
X267953Y-130512D02*
D03*
X277953D02*
D03*
X287953D02*
D03*
X297953D02*
D03*
D109*
X29528Y-42323D02*
D03*
X19685D02*
D03*
Y-111221D02*
D03*
X29528D02*
D03*
Y-97441D02*
D03*
X19685Y-97441D02*
D03*
Y-56102D02*
D03*
X29528D02*
D03*
X19685Y-69882D02*
D03*
X29528D02*
D03*
X19685Y-83661D02*
D03*
X29528D02*
D03*
Y-152559D02*
D03*
X19685D02*
D03*
X29528Y-138779D02*
D03*
X19685D02*
D03*
X29528Y-125000D02*
D03*
X19685D02*
D03*
Y-166339D02*
D03*
X29528D02*
D03*
Y-180118D02*
D03*
Y-193898D02*
D03*
X19685Y-180118D02*
D03*
Y-193898D02*
D03*
D110*
X188779Y-147441D02*
D03*
X192717D02*
D03*
X196653D02*
D03*
X188779Y-151378D02*
D03*
X192717D02*
D03*
X196653D02*
D03*
X192717Y-159252D02*
D03*
X196653D02*
D03*
X188779D02*
D03*
X196653Y-155315D02*
D03*
X192717D02*
D03*
X188779D02*
D03*
D128*
X276776Y-29394D02*
X277376D01*
X291976Y-17394D02*
X292376D01*
X288776D02*
X289276D01*
X291676Y-17494D02*
X292776D01*
X293476D02*
X294176D01*
X288276D02*
X289776D01*
X293476Y-17594D02*
X294176D01*
X291676D02*
X292976D01*
X288076D02*
X290076D01*
X291676Y-17694D02*
X293176D01*
X293476D02*
X294176D01*
X287876D02*
X290276D01*
X291676Y-17794D02*
X293276D01*
X293476D02*
X294176D01*
X287676D02*
X290376D01*
X293476Y-17894D02*
X294176D01*
X291676D02*
X293376D01*
X287576D02*
X290476D01*
X293476Y-17994D02*
X294176D01*
X291676D02*
X293376D01*
X289376D02*
X290576D01*
X287476D02*
X288776D01*
X289676Y-18094D02*
X290676D01*
X292576D02*
X294176D01*
X287376D02*
X288476D01*
X292776Y-18194D02*
X294176D01*
X285076Y-15394D02*
X285676D01*
X285076Y-15494D02*
X285676D01*
X285076Y-15594D02*
X285676D01*
X285076Y-15694D02*
X285676D01*
X285076Y-15794D02*
X285676D01*
X285076Y-15894D02*
X285676D01*
X285076Y-15994D02*
X285676D01*
X285076Y-16094D02*
X285676D01*
X285076Y-16194D02*
X285676D01*
X285076Y-16294D02*
X285676D01*
X285076Y-16394D02*
X285676D01*
X285076Y-16494D02*
X285676D01*
X285076Y-16594D02*
X285676D01*
X285076Y-16694D02*
X285676D01*
X285076Y-16794D02*
X285676D01*
X285076Y-16894D02*
X285676D01*
X285076Y-16994D02*
X285676D01*
X285076Y-17094D02*
X285676D01*
X285076Y-17194D02*
X285676D01*
X285076Y-17294D02*
X285676D01*
X285076Y-17394D02*
X285676D01*
X285076Y-17494D02*
X285676D01*
X282876D02*
X284276D01*
X285076Y-17594D02*
X285676D01*
X285076Y-17694D02*
X285676D01*
X282476D02*
X284676D01*
X285076Y-17794D02*
X285676D01*
X285076Y-17894D02*
X285676D01*
X285076Y-17994D02*
X285676D01*
X283876D02*
X284976D01*
X284276Y-18094D02*
X285676D01*
X293276Y-18594D02*
X294176D01*
X293376Y-18794D02*
X294176D01*
X293376Y-18894D02*
X294176D01*
X293476Y-18994D02*
X294176D01*
X293476Y-19094D02*
X294176D01*
X293476Y-19194D02*
X294176D01*
X293476Y-19294D02*
X294176D01*
X293476Y-19394D02*
X294176D01*
X293476Y-19494D02*
X294176D01*
X293476Y-19594D02*
X294176D01*
X293476Y-19694D02*
X294176D01*
X293476Y-19794D02*
X294176D01*
X293476Y-19894D02*
X294176D01*
X293476Y-19994D02*
X294176D01*
X293476Y-20094D02*
X294176D01*
X293476Y-20194D02*
X294176D01*
X293476Y-20294D02*
X294176D01*
X293476Y-20394D02*
X294176D01*
X293476Y-20494D02*
X294176D01*
X293476Y-20594D02*
X294176D01*
X293476Y-20694D02*
X294176D01*
X293476Y-20794D02*
X294176D01*
X293476Y-20894D02*
X294176D01*
X293476Y-20994D02*
X294176D01*
X293476Y-21094D02*
X294176D01*
X293476Y-21194D02*
X294176D01*
X293476Y-21294D02*
X294176D01*
X292976Y-18294D02*
X294176D01*
X293076Y-18394D02*
X294176D01*
X293176Y-18494D02*
X294176D01*
X290276Y-18594D02*
X291076D01*
X293276Y-18694D02*
X294176D01*
X290276D02*
X291076D01*
X290376Y-18794D02*
X291176D01*
X290476Y-18894D02*
X291176D01*
X290476Y-18994D02*
X291176D01*
X290576Y-19094D02*
X291276D01*
X290576Y-19194D02*
X291276D01*
X290576Y-19294D02*
X291276D01*
X290576Y-19394D02*
X291276D01*
X290676Y-19494D02*
X291276D01*
X290676Y-19594D02*
X291376D01*
X290676Y-19694D02*
X291376D01*
X290676Y-19794D02*
X291376D01*
X290676Y-19894D02*
X291376D01*
X290676Y-19994D02*
X291376D01*
X290676Y-20094D02*
X291376D01*
X290676Y-20194D02*
X291376D01*
X290676Y-20294D02*
X291376D01*
X290676Y-20394D02*
X291376D01*
X290676Y-20494D02*
X291376D01*
X290676Y-20594D02*
X291276D01*
X290576Y-20694D02*
X291276D01*
X290576Y-20794D02*
X291276D01*
X290576Y-20894D02*
X291276D01*
X290576Y-20994D02*
X291276D01*
X290476Y-21094D02*
X291176D01*
X290476Y-21194D02*
X291176D01*
X290376Y-21294D02*
X291176D01*
X293476Y-21394D02*
X294176D01*
X293476Y-21494D02*
X294176D01*
X293476Y-21594D02*
X294176D01*
X293476Y-21694D02*
X294176D01*
X293476Y-21794D02*
X294176D01*
X293476Y-21894D02*
X294176D01*
X293476Y-21994D02*
X294176D01*
X293476Y-22094D02*
X294176D01*
X293476Y-22194D02*
X294176D01*
X293476Y-22294D02*
X294176D01*
X293476Y-22394D02*
X294176D01*
X293476Y-22494D02*
X294176D01*
X293476Y-22594D02*
X294176D01*
X293476Y-24294D02*
X294176D01*
X293476Y-24394D02*
X294176D01*
X293476Y-24494D02*
X294176D01*
X293476Y-24594D02*
X294176D01*
X293476Y-24694D02*
X294176D01*
X293476Y-24794D02*
X294176D01*
X293476Y-24894D02*
X294176D01*
X293476Y-24994D02*
X294176D01*
X293476Y-25094D02*
X294176D01*
X293476Y-25194D02*
X294176D01*
X293476Y-25494D02*
X294176D01*
X293476Y-25894D02*
X294176D01*
X293476Y-25994D02*
X294176D01*
X293476Y-26094D02*
X294176D01*
X293476Y-26194D02*
X294176D01*
X293476Y-26294D02*
X294176D01*
X293476Y-26494D02*
X294176D01*
X293476Y-26594D02*
X294176D01*
X293476Y-26794D02*
X294176D01*
X290376Y-21394D02*
X291076D01*
X290276Y-21494D02*
X291076D01*
X293476Y-25294D02*
X294176D01*
X293476Y-25394D02*
X294176D01*
X293476Y-25594D02*
X294176D01*
X293476Y-25694D02*
X294176D01*
X293476Y-25794D02*
X294176D01*
X291376Y-26294D02*
X292376D01*
X293476Y-26394D02*
X294176D01*
X291076D02*
X292676D01*
X290876Y-26494D02*
X292876D01*
X290776Y-26594D02*
X293076D01*
X293476Y-26694D02*
X294176D01*
X290676D02*
X293176D01*
X290576Y-26794D02*
X293276D01*
X293476Y-26894D02*
X294176D01*
X290476D02*
X291676D01*
X292376D02*
X293376D01*
X290476Y-26994D02*
X291376D01*
X292676D02*
X294176D01*
X290376Y-27094D02*
X291276D01*
X292776D02*
X294176D01*
X292976Y-27194D02*
X294176D01*
X290376D02*
X291176D01*
X293076Y-27294D02*
X294176D01*
X290376D02*
X291076D01*
X293176Y-27394D02*
X294176D01*
X290376D02*
X291076D01*
X293176Y-27494D02*
X294176D01*
X293276Y-27594D02*
X294176D01*
X293376Y-27694D02*
X294176D01*
X293376Y-27794D02*
X294176D01*
X289876Y-18194D02*
X290776D01*
X287276D02*
X288276D01*
X289976Y-18294D02*
X290876D01*
X287176D02*
X288076D01*
X290076Y-18394D02*
X290976D01*
X287176D02*
X287976D01*
X290176Y-18494D02*
X290976D01*
X287076D02*
X287876D01*
X287076Y-18594D02*
X287876D01*
X286976Y-18694D02*
X287776D01*
X286976Y-18794D02*
X287676D01*
X286876Y-18894D02*
X287676D01*
X286876Y-18994D02*
X287576D01*
X286876Y-19094D02*
X287576D01*
X286876Y-19194D02*
X287576D01*
X286776Y-19294D02*
X287476D01*
X286776Y-19394D02*
X287476D01*
X286776Y-19494D02*
X287476D01*
X286776Y-19594D02*
X287476D01*
X286776Y-19894D02*
X287376D01*
X286776Y-19994D02*
X287376D01*
X286776Y-20094D02*
X287376D01*
X286776Y-20194D02*
X287376D01*
X286776Y-20294D02*
X287376D01*
X286776Y-20394D02*
X287376D01*
X286776Y-20494D02*
X287476D01*
X286776Y-20594D02*
X287476D01*
X286776Y-20694D02*
X287476D01*
X286776Y-20794D02*
X287476D01*
X286876Y-20894D02*
X287476D01*
X286876Y-20994D02*
X287576D01*
X286876Y-21094D02*
X287576D01*
X284476Y-18194D02*
X285676D01*
X284576Y-18294D02*
X285676D01*
X284676Y-18394D02*
X285676D01*
X284776Y-18494D02*
X285676D01*
X284876Y-18594D02*
X285676D01*
X284876Y-18694D02*
X285676D01*
X284976Y-18794D02*
X285676D01*
X284976Y-18894D02*
X285676D01*
X285076Y-18994D02*
X285676D01*
X285076Y-19094D02*
X285676D01*
X285076Y-19194D02*
X285676D01*
X285076Y-19294D02*
X285676D01*
X285076Y-19394D02*
X285676D01*
X285076Y-19494D02*
X285676D01*
X285076Y-19594D02*
X285676D01*
X286776Y-19694D02*
X287376D01*
X285076D02*
X285676D01*
X286776Y-19794D02*
X287376D01*
X285076D02*
X285676D01*
X285076Y-19894D02*
X285676D01*
X285076Y-19994D02*
X285676D01*
X285076Y-20094D02*
X285676D01*
X285076Y-20194D02*
X285676D01*
X285076Y-20294D02*
X285676D01*
X285076Y-20394D02*
X285676D01*
X285076Y-20494D02*
X285676D01*
X285076Y-20594D02*
X285676D01*
X285076Y-20694D02*
X285676D01*
X285076Y-20794D02*
X285676D01*
X285076Y-20894D02*
X285676D01*
X285076Y-20994D02*
X285676D01*
X285076Y-21094D02*
X285676D01*
X286976Y-21394D02*
X287776D01*
X287076Y-21494D02*
X287776D01*
X290176Y-21594D02*
X290976D01*
X287076D02*
X287876D01*
X290076Y-21694D02*
X290976D01*
X287176D02*
X287976D01*
X289976Y-21794D02*
X290876D01*
X287176D02*
X288076D01*
X289876Y-21894D02*
X290776D01*
X287276D02*
X288276D01*
X289676Y-21994D02*
X290776D01*
X287376D02*
X288376D01*
X289376Y-22094D02*
X290676D01*
X287476D02*
X288676D01*
X287576Y-22194D02*
X290576D01*
X287676Y-22294D02*
X290376D01*
X287876Y-22394D02*
X290276D01*
X287976Y-22494D02*
X290076D01*
X288276Y-22594D02*
X289876D01*
X288676Y-22694D02*
X289376D01*
X287576Y-26894D02*
X288676D01*
X287876Y-26994D02*
X288776D01*
X287976Y-27094D02*
X288876D01*
X288076Y-27194D02*
X288976D01*
X288176Y-27294D02*
X288976D01*
X288276Y-27394D02*
X288976D01*
X288376Y-27494D02*
X289076D01*
X290276D02*
X290976D01*
X288376Y-27594D02*
X289076D01*
X290276D02*
X290976D01*
X290276Y-27694D02*
X290976D01*
X288376D02*
X289076D01*
X286876Y-21194D02*
X287676D01*
X285076D02*
X285676D01*
X286976Y-21294D02*
X287676D01*
X284976D02*
X285676D01*
X284976Y-21394D02*
X285676D01*
X284876Y-21494D02*
X285676D01*
X284776Y-21594D02*
X285676D01*
X284676Y-21694D02*
X285676D01*
X284576Y-21794D02*
X285676D01*
X284476Y-21894D02*
X285676D01*
X284276Y-21994D02*
X285676D01*
X283976Y-22094D02*
X285676D01*
X285076Y-22194D02*
X285676D01*
X285076Y-22294D02*
X285676D01*
X285076Y-22394D02*
X285676D01*
X285076Y-22494D02*
X285676D01*
X285076Y-22594D02*
X285676D01*
X286576Y-26294D02*
X287576D01*
X286176Y-26394D02*
X287976D01*
X285976Y-26494D02*
X288176D01*
X285776Y-26594D02*
X288376D01*
X285676Y-26694D02*
X288476D01*
X285576Y-26794D02*
X288576D01*
X285476Y-26894D02*
X286576D01*
X285476Y-26994D02*
X286376D01*
X285376Y-27094D02*
X286276D01*
X285376Y-27194D02*
X286076D01*
X285276Y-27294D02*
X286076D01*
X285276Y-27394D02*
X285976D01*
X285276Y-27494D02*
X285976D01*
X285176Y-27594D02*
X285876D01*
X285176Y-27694D02*
X285876D01*
X282276Y-17794D02*
X284776D01*
X282176Y-17894D02*
X284876D01*
X283276Y-17394D02*
X283776D01*
X282576Y-17594D02*
X284476D01*
X282176Y-17994D02*
X283376D01*
X282076Y-18094D02*
X283076D01*
X281976Y-18194D02*
X282876D01*
X281876Y-18294D02*
X282776D01*
X281876Y-18394D02*
X282676D01*
X281776Y-18594D02*
X282576D01*
X281776Y-18494D02*
X282576D01*
X281776Y-18694D02*
X282476D01*
X281676Y-18794D02*
X282476D01*
X281676Y-18894D02*
X282376D01*
X281676Y-18994D02*
X282376D01*
X281676Y-19094D02*
X282276D01*
X281576Y-19194D02*
X282276D01*
X281576Y-19294D02*
X282276D01*
X281576Y-19394D02*
X282276D01*
X281576Y-19494D02*
X282276D01*
X281576Y-19594D02*
X282276D01*
X281576Y-19694D02*
X282176D01*
X280076Y-19594D02*
X280676D01*
X280076Y-19694D02*
X280676D01*
X280076Y-19794D02*
X280676D01*
X279976Y-19194D02*
X280676D01*
X279976Y-19294D02*
X280676D01*
X279976Y-19394D02*
X280676D01*
X279976Y-19494D02*
X280676D01*
X279876Y-18994D02*
X280576D01*
X279876Y-19094D02*
X280576D01*
X279776Y-18894D02*
X280576D01*
X281776Y-21394D02*
X282476D01*
X281676Y-21294D02*
X282476D01*
X281676Y-21094D02*
X282376D01*
X281676Y-20994D02*
X282376D01*
X281676Y-21194D02*
X282376D01*
X281576Y-20594D02*
X282276D01*
X281576Y-20794D02*
X282276D01*
X281576Y-20694D02*
X282276D01*
X281576Y-20894D02*
X282276D01*
X281576Y-20494D02*
X282276D01*
X281576Y-19794D02*
X282176D01*
X281576Y-19894D02*
X282176D01*
X281576Y-20094D02*
X282176D01*
X281576Y-20294D02*
X282176D01*
X281576Y-19994D02*
X282176D01*
X281576Y-20194D02*
X282176D01*
X281576Y-20394D02*
X282176D01*
X280076Y-19894D02*
X280776D01*
X280076Y-19994D02*
X280776D01*
X280076Y-20194D02*
X280776D01*
X280076Y-20094D02*
X280776D01*
X280076Y-20294D02*
X280676D01*
X280076Y-20494D02*
X280676D01*
X280076Y-20594D02*
X280676D01*
X280076Y-20394D02*
X280676D01*
X279976Y-20794D02*
X280676D01*
X279976Y-20894D02*
X280676D01*
X279976Y-20694D02*
X280676D01*
X279876Y-20994D02*
X280676D01*
X279876Y-21094D02*
X280576D01*
X279876Y-21194D02*
X280576D01*
X279776Y-21294D02*
X280576D01*
X279776Y-18794D02*
X280476D01*
X279676Y-18594D02*
X280476D01*
X279676Y-18694D02*
X280476D01*
X279576Y-18494D02*
X280376D01*
X279476Y-18394D02*
X280276D01*
X279376Y-18294D02*
X280276D01*
X279176Y-18194D02*
X280176D01*
X279076Y-18094D02*
X280076D01*
X278676Y-17994D02*
X279976D01*
X278176Y-17394D02*
X278676D01*
X277676Y-17494D02*
X279176D01*
X277376Y-17594D02*
X279476D01*
X277276Y-17694D02*
X279576D01*
X277076Y-17794D02*
X279776D01*
X276976Y-17894D02*
X279876D01*
X276876Y-17994D02*
X278176D01*
X276776Y-18094D02*
X277876D01*
X276676Y-18194D02*
X277676D01*
X276576Y-18294D02*
X277476D01*
X276576Y-18394D02*
X277376D01*
X276476Y-18494D02*
X277276D01*
X276376Y-18594D02*
X277176D01*
X276376Y-18694D02*
X277176D01*
X276376Y-18794D02*
X277076D01*
X276276Y-18894D02*
X277076D01*
X276276Y-18994D02*
X276976D01*
X276276Y-19094D02*
X276976D01*
X274076Y-16194D02*
X274776D01*
X274076Y-16294D02*
X274776D01*
X274076Y-16994D02*
X274776D01*
X274076Y-18094D02*
X274776D01*
X274076Y-18394D02*
X274776D01*
X276376Y-21394D02*
X277176D01*
X276376Y-21294D02*
X277076D01*
X276276Y-21094D02*
X276976D01*
X276276Y-21194D02*
X276976D01*
X276276Y-20994D02*
X276976D01*
X276176Y-19194D02*
X276876D01*
X276176Y-20794D02*
X276876D01*
X276176Y-20594D02*
X276876D01*
X276176Y-20894D02*
X276876D01*
X276176Y-19394D02*
X276876D01*
X276176Y-19294D02*
X276876D01*
X276176Y-19494D02*
X276876D01*
X276176Y-20694D02*
X276876D01*
X276176Y-20094D02*
X276776D01*
X276176Y-19794D02*
X276776D01*
X276176Y-20294D02*
X276776D01*
X276176Y-19994D02*
X276776D01*
X276176Y-19694D02*
X276776D01*
X276176Y-19594D02*
X276776D01*
X276176Y-20494D02*
X276776D01*
X276176Y-19894D02*
X276776D01*
X276176Y-20394D02*
X276776D01*
X276176Y-20194D02*
X276776D01*
X274076Y-19194D02*
X274776D01*
X274076Y-19794D02*
X274776D01*
X274076Y-19294D02*
X274776D01*
X274076Y-19894D02*
X274776D01*
X274076Y-20294D02*
X274776D01*
X274076Y-20094D02*
X274776D01*
X274076Y-20594D02*
X274776D01*
X274076Y-19994D02*
X274776D01*
X274076Y-20194D02*
X274776D01*
X282176Y-22194D02*
X284976D01*
X282276Y-22294D02*
X284876D01*
X282476Y-22394D02*
X284676D01*
X282576Y-22494D02*
X284576D01*
X283276Y-22694D02*
X283876D01*
X282776Y-22594D02*
X284276D01*
X283176Y-26394D02*
X283776D01*
X283176Y-26494D02*
X283776D01*
X282176Y-22094D02*
X283376D01*
X282076Y-21994D02*
X283076D01*
X281976Y-21894D02*
X282876D01*
X281876Y-21794D02*
X282776D01*
X281876Y-21694D02*
X282676D01*
X281776Y-21494D02*
X282576D01*
X281776Y-21594D02*
X282576D01*
X281376Y-26494D02*
X282676D01*
X281376Y-26394D02*
X282576D01*
X281376Y-26294D02*
X282276D01*
X279676Y-21494D02*
X280476D01*
X279676Y-21394D02*
X280476D01*
X279576Y-21594D02*
X280376D01*
X279476Y-21694D02*
X280376D01*
X279376Y-21794D02*
X280276D01*
X279276Y-21894D02*
X280176D01*
X279076Y-21994D02*
X280076D01*
X278776Y-22094D02*
X279976D01*
X278476Y-26294D02*
X279376D01*
X278076Y-26394D02*
X279676D01*
X277076Y-22294D02*
X279776D01*
X277176Y-22394D02*
X279676D01*
X277376Y-22494D02*
X279476D01*
X278076Y-22694D02*
X278776D01*
X283176Y-26594D02*
X283776D01*
X283176Y-26694D02*
X283776D01*
X283176Y-26894D02*
X283776D01*
X283176Y-26794D02*
X283776D01*
X283076Y-27794D02*
X283776D01*
X283076Y-27694D02*
X283776D01*
X282976Y-27594D02*
X283776D01*
X282976Y-27494D02*
X283776D01*
X282876Y-27394D02*
X283776D01*
X282776Y-27294D02*
X283776D01*
X282676Y-27194D02*
X283776D01*
X282576Y-27094D02*
X283776D01*
X282376Y-26994D02*
X283776D01*
X281976Y-26894D02*
X283076D01*
X281376Y-26794D02*
X283076D01*
X281376Y-26694D02*
X282976D01*
X281376Y-26594D02*
X282876D01*
X281376Y-26894D02*
X281676D01*
X280076Y-27694D02*
X280776D01*
X280076Y-27794D02*
X280776D01*
X279976Y-27594D02*
X280776D01*
X279976Y-27494D02*
X280676D01*
X279876Y-27394D02*
X280676D01*
X279776Y-27294D02*
X280576D01*
X279676Y-27194D02*
X280576D01*
X279576Y-27094D02*
X280476D01*
X279476Y-26994D02*
X280476D01*
X279176Y-26894D02*
X280376D01*
X277776Y-26594D02*
X280076D01*
X277676Y-26694D02*
X280176D01*
X277576Y-26794D02*
X280276D01*
X277876Y-26494D02*
X279876D01*
X277676Y-22594D02*
X279176D01*
X276976Y-22194D02*
X279876D01*
X276876Y-22094D02*
X278076D01*
X276776Y-21994D02*
X277776D01*
X276676Y-21894D02*
X277576D01*
X276776Y-25794D02*
X277376D01*
X276776Y-25594D02*
X277376D01*
X276776Y-25494D02*
X277376D01*
X276776Y-25894D02*
X277376D01*
X276776Y-25194D02*
X277376D01*
X276776Y-24794D02*
X277376D01*
X276776Y-25994D02*
X277376D01*
X276776Y-24694D02*
X277376D01*
X276776Y-24594D02*
X277376D01*
X276776Y-24494D02*
X277376D01*
X276776Y-24394D02*
X277376D01*
X276776Y-25694D02*
X277376D01*
X276776Y-25294D02*
X277376D01*
X276776Y-24294D02*
X277376D01*
X276776Y-25394D02*
X277376D01*
X276776Y-26094D02*
X277376D01*
X276776Y-24894D02*
X277376D01*
X276776Y-24994D02*
X277376D01*
X276776Y-25094D02*
X277376D01*
X276776Y-26194D02*
X277376D01*
X276576Y-21794D02*
X277476D01*
X276476Y-21694D02*
X277376D01*
X276476Y-21594D02*
X277276D01*
X276376Y-21494D02*
X277176D01*
X274076Y-21594D02*
X274776D01*
X274076Y-21694D02*
X274776D01*
X274076Y-21794D02*
X274776D01*
X277476Y-26894D02*
X278376D01*
X276776Y-26994D02*
X278176D01*
X276776Y-27094D02*
X277976D01*
X276776Y-27194D02*
X277876D01*
X276776Y-27294D02*
X277776D01*
X276776Y-27394D02*
X277676D01*
X276776Y-27594D02*
X277576D01*
X276776Y-27494D02*
X277576D01*
X276776Y-27694D02*
X277476D01*
X276776Y-27794D02*
X277476D01*
X276776Y-26794D02*
X277376D01*
X276776Y-26394D02*
X277376D01*
X276776Y-26594D02*
X277376D01*
X276776Y-26694D02*
X277376D01*
X276776Y-26894D02*
X277376D01*
X276776Y-26294D02*
X277376D01*
X276776Y-26494D02*
X277376D01*
X275176Y-26394D02*
X275876D01*
X275076Y-26694D02*
X275776D01*
X275076Y-26594D02*
X275776D01*
X275076Y-26494D02*
X275776D01*
X275076Y-26794D02*
X275776D01*
X274976Y-26894D02*
X275676D01*
X274976Y-26994D02*
X275676D01*
X274976Y-27094D02*
X275676D01*
X274976Y-27194D02*
X275576D01*
X274876Y-27394D02*
X275576D01*
X274876Y-27294D02*
X275576D01*
X274876Y-27494D02*
X275576D01*
X274776Y-27594D02*
X275476D01*
X274776Y-27694D02*
X275476D01*
X274776Y-27794D02*
X275476D01*
X290276D02*
X290976D01*
X293476Y-27894D02*
X294176D01*
X290276D02*
X290876D01*
X293476Y-27994D02*
X294176D01*
X290276D02*
X290876D01*
X293476Y-28094D02*
X294176D01*
X293476Y-28194D02*
X294176D01*
X293476Y-28294D02*
X294176D01*
X293476Y-28394D02*
X294176D01*
X293476Y-28494D02*
X294176D01*
X293476Y-28594D02*
X294176D01*
X293476Y-28694D02*
X294176D01*
X290276D02*
X290876D01*
X293476Y-28794D02*
X294176D01*
X293476Y-28894D02*
X294176D01*
X290276D02*
X290876D01*
X293476Y-28994D02*
X294176D01*
X293476Y-29094D02*
X294176D01*
X293476Y-29194D02*
X294176D01*
X290276D02*
X290876D01*
X293476Y-29294D02*
X294176D01*
X293476Y-29394D02*
X294176D01*
X293476Y-29494D02*
X294176D01*
X290276D02*
X290876D01*
X293476Y-29594D02*
X294176D01*
X290276D02*
X290876D01*
X293476Y-29694D02*
X294176D01*
X293476Y-29794D02*
X294176D01*
X293476Y-29894D02*
X294176D01*
X293476Y-29994D02*
X294176D01*
X293476Y-30094D02*
X294176D01*
X293476Y-30194D02*
X294176D01*
X288376Y-27794D02*
X289076D01*
X290276Y-28094D02*
X290876D01*
X290276Y-28194D02*
X290876D01*
X290276Y-28294D02*
X290876D01*
X290276Y-28394D02*
X290876D01*
X290276Y-28494D02*
X290876D01*
X290276Y-28594D02*
X290876D01*
X290276Y-28794D02*
X290876D01*
X290276Y-28994D02*
X290876D01*
X287076D02*
X288676D01*
X290276Y-29094D02*
X290876D01*
X287576D02*
X288776D01*
X287876Y-29194D02*
X288876D01*
X290276Y-29294D02*
X290876D01*
X288076D02*
X288976D01*
X290276Y-29394D02*
X290876D01*
X288176D02*
X289076D01*
X288276Y-29494D02*
X289076D01*
X288376Y-29594D02*
X289076D01*
X290276Y-29694D02*
X290876D01*
X288476D02*
X289176D01*
X290276Y-29794D02*
X290876D01*
X288476D02*
X289176D01*
X290276Y-29894D02*
X290876D01*
X288476D02*
X289176D01*
X290276Y-29994D02*
X290876D01*
X288476D02*
X289176D01*
X290276Y-30094D02*
X290876D01*
X288476D02*
X289176D01*
X290276Y-30194D02*
X290876D01*
X288476D02*
X289176D01*
X290276Y-30294D02*
X290876D01*
X293476D02*
X294176D01*
X293476Y-30394D02*
X294176D01*
X293476Y-30494D02*
X294176D01*
X293476Y-30594D02*
X294176D01*
X293476Y-30694D02*
X294176D01*
X293476Y-30794D02*
X294176D01*
X293476Y-30894D02*
X294176D01*
X293476Y-30994D02*
X294176D01*
X293476Y-31094D02*
X294176D01*
X293476Y-31194D02*
X294176D01*
X293476Y-31294D02*
X294176D01*
X293476Y-31394D02*
X294176D01*
X291676Y-34394D02*
X293176D01*
X291376Y-34494D02*
X293476D01*
X291176Y-34594D02*
X293576D01*
X291076Y-34694D02*
X293776D01*
X290876Y-34794D02*
X293876D01*
X292676Y-34894D02*
X293976D01*
X290876D02*
X292176D01*
X293076Y-34994D02*
X294076D01*
X290776D02*
X291776D01*
X293176Y-35094D02*
X294076D01*
X290676D02*
X291676D01*
X293376Y-35194D02*
X294176D01*
X290676D02*
X291476D01*
X293476Y-35294D02*
X294176D01*
X290576D02*
X291376D01*
X293476Y-35394D02*
X294176D01*
X290576D02*
X291276D01*
X293576Y-35494D02*
X294276D01*
X290576D02*
X291276D01*
X293576Y-35594D02*
X294276D01*
X288476Y-30294D02*
X289176D01*
X290276Y-30394D02*
X290876D01*
X288476D02*
X289176D01*
X290276Y-30494D02*
X290876D01*
X288376D02*
X289176D01*
X290276Y-30594D02*
X290876D01*
X288276D02*
X289076D01*
X290276Y-30694D02*
X290876D01*
X288176D02*
X289076D01*
X290276Y-30794D02*
X290876D01*
X288076D02*
X289076D01*
X290276Y-30894D02*
X290876D01*
X287876D02*
X288976D01*
X290276Y-30994D02*
X290876D01*
X285976D02*
X288876D01*
X290276Y-31094D02*
X290876D01*
X286076D02*
X288776D01*
X290276Y-31194D02*
X290876D01*
X286176D02*
X288676D01*
X290276Y-31294D02*
X290876D01*
X286376D02*
X288576D01*
X290276Y-31394D02*
X290876D01*
X286576D02*
X288376D01*
X286876Y-31494D02*
X288176D01*
X287576Y-34894D02*
X288876D01*
X287876Y-34994D02*
X288976D01*
X288076Y-35094D02*
X289076D01*
X288276Y-35194D02*
X289176D01*
X288376Y-35294D02*
X289176D01*
X288476Y-35394D02*
X289276D01*
X288576Y-35494D02*
X289376D01*
X288576Y-35594D02*
X289376D01*
X285176Y-27794D02*
X285876D01*
X285176Y-27894D02*
X285876D01*
X285176Y-27994D02*
X285876D01*
X285176Y-28094D02*
X285876D01*
X285176Y-28194D02*
X285876D01*
X285176Y-28294D02*
X285876D01*
X285176Y-28394D02*
X285876D01*
X285176Y-28494D02*
X287476D01*
X285176Y-28594D02*
X287976D01*
X285176Y-28694D02*
X288276D01*
X285176Y-28794D02*
X288476D01*
X285176Y-28894D02*
X288576D01*
X285176Y-28994D02*
X285876D01*
X285176Y-29094D02*
X285876D01*
X285176Y-29194D02*
X285876D01*
X285176Y-29294D02*
X285876D01*
X285176Y-29394D02*
X285876D01*
X285176Y-29494D02*
X285876D01*
X285176Y-29594D02*
X285876D01*
X285176Y-29694D02*
X285876D01*
X285176Y-29794D02*
X285876D01*
X285176Y-29894D02*
X285876D01*
X285176Y-29994D02*
X285876D01*
X285176Y-30094D02*
X285876D01*
X285176Y-30194D02*
X285976D01*
X285176Y-30294D02*
X286076D01*
X285176Y-30394D02*
X286076D01*
X285176Y-30494D02*
X286176D01*
X285176Y-30594D02*
X286376D01*
X285176Y-30694D02*
X286476D01*
X285176Y-30794D02*
X286676D01*
X285176Y-30894D02*
X286876D01*
X283076Y-27894D02*
X283776D01*
X283176Y-27994D02*
X283776D01*
X283176Y-28094D02*
X283776D01*
X283176Y-28194D02*
X283776D01*
X283176Y-28294D02*
X283776D01*
X283176Y-28394D02*
X283776D01*
X283176Y-28494D02*
X283776D01*
X283176Y-28594D02*
X283776D01*
X283176Y-28694D02*
X283776D01*
X283176Y-28794D02*
X283776D01*
X283176Y-28894D02*
X283776D01*
X283176Y-28994D02*
X283776D01*
X283176Y-29094D02*
X283776D01*
X283176Y-29194D02*
X283776D01*
X283176Y-29294D02*
X283776D01*
X283176Y-29394D02*
X283776D01*
X283176Y-29494D02*
X283776D01*
X283176Y-29594D02*
X283776D01*
X283176Y-29694D02*
X283776D01*
X283176Y-29794D02*
X283776D01*
X283176Y-29894D02*
X283776D01*
X283176Y-29994D02*
X283776D01*
X283176Y-30094D02*
X283776D01*
X283176Y-30194D02*
X283776D01*
X283176Y-30294D02*
X283776D01*
X283176Y-30394D02*
X283776D01*
X283176Y-30494D02*
X283776D01*
X283176Y-30594D02*
X283776D01*
X283176Y-30694D02*
X283776D01*
X283176Y-30794D02*
X283776D01*
X283176Y-30894D02*
X283776D01*
X283176Y-30994D02*
X283776D01*
X285176D02*
X285876D01*
X285076Y-31094D02*
X285776D01*
X285076Y-31194D02*
X285776D01*
X285076Y-31294D02*
X285776D01*
X285076Y-31394D02*
X285776D01*
X283276Y-32694D02*
X283876D01*
X283276Y-32794D02*
X283876D01*
X283276Y-32894D02*
X283876D01*
X283276Y-32994D02*
X283876D01*
X283276Y-33094D02*
X283876D01*
X283276Y-33194D02*
X283876D01*
X283276Y-33294D02*
X283876D01*
X283276Y-33394D02*
X283876D01*
X283276Y-33494D02*
X283876D01*
X283276Y-33694D02*
X283876D01*
X283276Y-33794D02*
X283876D01*
X283276Y-34094D02*
X283876D01*
X286576Y-34394D02*
X288076D01*
X286376Y-34494D02*
X288276D01*
X286176Y-34594D02*
X288476D01*
X285976Y-34694D02*
X288676D01*
X285876Y-34794D02*
X288776D01*
X285776Y-34894D02*
X287076D01*
X283276D02*
X283876D01*
X285676Y-34994D02*
X286776D01*
X285576Y-35094D02*
X286576D01*
X285476Y-35194D02*
X286376D01*
X285476Y-35294D02*
X286276D01*
X283276D02*
X283876D01*
X285376Y-35394D02*
X286176D01*
X285376Y-35494D02*
X286176D01*
X285276Y-35594D02*
X286076D01*
X283176Y-31094D02*
X283776D01*
X283176Y-31194D02*
X283776D01*
X283176Y-31294D02*
X283776D01*
X283176Y-31394D02*
X283776D01*
X283276Y-32294D02*
X283876D01*
X283276Y-32394D02*
X283876D01*
X283276Y-32494D02*
X283876D01*
X283276Y-32594D02*
X283876D01*
X283276Y-33594D02*
X283876D01*
X283276Y-33894D02*
X283876D01*
X283276Y-33994D02*
X283876D01*
X283276Y-34194D02*
X283876D01*
X283276Y-34294D02*
X283876D01*
X283276Y-34394D02*
X283876D01*
X281176D02*
X281876D01*
X283276Y-34494D02*
X283876D01*
X281176D02*
X281876D01*
X283276Y-34594D02*
X283876D01*
X283276Y-34694D02*
X283876D01*
X283276Y-34794D02*
X283876D01*
X281176D02*
X281876D01*
X281176Y-34894D02*
X281876D01*
X283276Y-34994D02*
X283876D01*
X281176D02*
X281876D01*
X283276Y-35094D02*
X283876D01*
X281176D02*
X281876D01*
X283276Y-35194D02*
X283876D01*
X281176D02*
X281876D01*
X281176Y-35294D02*
X281876D01*
X283276Y-35394D02*
X283876D01*
X281176D02*
X281876D01*
X283276Y-35494D02*
X283876D01*
X293576Y-35694D02*
X294276D01*
X293576Y-35794D02*
X294276D01*
X293576Y-35894D02*
X294276D01*
X293476Y-35994D02*
X294176D01*
X293476Y-36094D02*
X294176D01*
X293376Y-36194D02*
X294176D01*
X293176Y-36294D02*
X294176D01*
X292976Y-36394D02*
X294076D01*
X292776Y-36494D02*
X293976D01*
X292376Y-36594D02*
X293876D01*
X291976Y-36694D02*
X293776D01*
X291676Y-36794D02*
X293676D01*
X291376Y-36894D02*
X293476D01*
X293776Y-38094D02*
X294376D01*
X293676Y-38194D02*
X294376D01*
X293676Y-38294D02*
X294376D01*
X293676Y-38394D02*
X294376D01*
X293576Y-38494D02*
X294376D01*
X293576Y-38594D02*
X294276D01*
X293476Y-38694D02*
X294276D01*
X293276Y-38794D02*
X294176D01*
X293176Y-38894D02*
X294176D01*
X292876Y-38994D02*
X294076D01*
X290876Y-39094D02*
X293976D01*
X290976Y-39194D02*
X293876D01*
X291276Y-39394D02*
X293576D01*
X291976Y-39594D02*
X292876D01*
X290476Y-35594D02*
X291176D01*
X290476Y-35694D02*
X291176D01*
X290476Y-35794D02*
X291176D01*
X290476Y-35894D02*
X291176D01*
X288976Y-36694D02*
X289676D01*
X288976Y-36794D02*
X289676D01*
X288976Y-36894D02*
X289676D01*
X291176Y-36994D02*
X293176D01*
X288976D02*
X289676D01*
X290976Y-37094D02*
X292876D01*
X290876Y-37194D02*
X292476D01*
X288976D02*
X289676D01*
X290776Y-37294D02*
X292076D01*
X290676Y-37394D02*
X291776D01*
X290676Y-37494D02*
X291576D01*
X290576Y-37594D02*
X291476D01*
X290576Y-37694D02*
X291376D01*
X290476Y-37794D02*
X291276D01*
X290476Y-37894D02*
X291176D01*
X290476Y-37994D02*
X291176D01*
X290476Y-38094D02*
X291176D01*
X290476Y-38194D02*
X291176D01*
X290476Y-38294D02*
X291176D01*
X290476Y-38394D02*
X291176D01*
X290476Y-38494D02*
X291176D01*
X290576Y-38594D02*
X291276D01*
X290576Y-38694D02*
X291376D01*
X290576Y-38794D02*
X291476D01*
X290676Y-38894D02*
X291676D01*
X290776Y-38994D02*
X291976D01*
X291076Y-39294D02*
X293676D01*
X291476Y-39494D02*
X293276D01*
X288676Y-35694D02*
X289376D01*
X285276D02*
X285976D01*
X288676Y-35794D02*
X289476D01*
X285176D02*
X285976D01*
X288776Y-35894D02*
X289476D01*
X285176D02*
X285876D01*
X288776Y-35994D02*
X289576D01*
X285176D02*
X285876D01*
X288876Y-36094D02*
X289576D01*
X285076D02*
X285776D01*
X288876Y-36194D02*
X289576D01*
X285076D02*
X285776D01*
X288876Y-36294D02*
X289576D01*
X285076D02*
X285776D01*
X288876Y-36394D02*
X289576D01*
X285076D02*
X285776D01*
X288976Y-36494D02*
X289576D01*
X288976Y-36594D02*
X289576D01*
X285076Y-36794D02*
X285676D01*
X285076Y-36894D02*
X285676D01*
X288976Y-37094D02*
X289676D01*
X285076D02*
X285676D01*
X285076Y-37194D02*
X285676D01*
X288976Y-37294D02*
X289576D01*
X285076D02*
X285676D01*
X288976Y-37394D02*
X289576D01*
X288976Y-37494D02*
X289576D01*
X285076D02*
X285776D01*
X288876Y-37594D02*
X289576D01*
X285076D02*
X285776D01*
X288876Y-37694D02*
X289576D01*
X285076D02*
X285776D01*
X283276Y-35594D02*
X283876D01*
X283276Y-35694D02*
X283876D01*
X283276Y-35794D02*
X283876D01*
X283276Y-35894D02*
X283876D01*
X283276Y-35994D02*
X283876D01*
X283276Y-36094D02*
X283876D01*
X283276Y-36194D02*
X283876D01*
X281176D02*
X281876D01*
X283276Y-36294D02*
X283876D01*
X281176D02*
X281876D01*
X283276Y-36394D02*
X283876D01*
X285076Y-36494D02*
X285676D01*
X283276D02*
X283876D01*
X285076Y-36594D02*
X285676D01*
X283276D02*
X283876D01*
X285076Y-36694D02*
X285676D01*
X283276D02*
X283876D01*
X281176D02*
X281876D01*
X283276Y-36794D02*
X283876D01*
X283276Y-36894D02*
X283876D01*
X285076Y-36994D02*
X285676D01*
X283276D02*
X283876D01*
X281176D02*
X281876D01*
X283276Y-37094D02*
X283876D01*
X281176D02*
X281876D01*
X283276Y-37194D02*
X283876D01*
X283276Y-37294D02*
X283876D01*
X281176D02*
X281876D01*
X285076Y-37394D02*
X285676D01*
X283276D02*
X283876D01*
X283276Y-37494D02*
X283876D01*
X283276Y-37594D02*
X283876D01*
X288876Y-37794D02*
X289576D01*
X288876Y-37894D02*
X289576D01*
X288776Y-37994D02*
X289476D01*
X288776Y-38094D02*
X289476D01*
X288676Y-38194D02*
X289476D01*
X288676Y-38294D02*
X289376D01*
X288576Y-38394D02*
X289376D01*
X288476Y-38494D02*
X289276D01*
X288376Y-38594D02*
X289276D01*
X285376D02*
X286276D01*
X288276Y-38694D02*
X289176D01*
X285476D02*
X286376D01*
X285576Y-38794D02*
X286476D01*
X288176D02*
X289076D01*
X285676Y-38894D02*
X286676D01*
X287976D02*
X288976D01*
X287676Y-38994D02*
X288976D01*
X285776D02*
X286976D01*
X285876Y-39094D02*
X288876D01*
X285976Y-39194D02*
X288676D01*
X286076Y-39294D02*
X288576D01*
X286276Y-39394D02*
X288376D01*
X286476Y-39494D02*
X288176D01*
X286976Y-39594D02*
X287776D01*
X283276Y-37694D02*
X283876D01*
X283276Y-37794D02*
X283876D01*
X285076D02*
X285776D01*
X285176Y-37894D02*
X285876D01*
X283276D02*
X283876D01*
X285176Y-37994D02*
X285876D01*
X283276D02*
X283876D01*
X281176D02*
X281876D01*
X281176Y-38094D02*
X281876D01*
X283276D02*
X283876D01*
X285176D02*
X285876D01*
X285276Y-38194D02*
X285976D01*
X283276D02*
X283876D01*
X281176D02*
X281876D01*
X285276Y-38294D02*
X286076D01*
X283276D02*
X283876D01*
X285276Y-38394D02*
X286076D01*
X283276D02*
X283876D01*
X285376Y-38494D02*
X286176D01*
X283276D02*
X283876D01*
X283276Y-38594D02*
X283876D01*
X283276Y-38694D02*
X283876D01*
X283276Y-38794D02*
X283876D01*
X283276Y-38894D02*
X283876D01*
X283276Y-38994D02*
X283876D01*
X283276Y-39094D02*
X283876D01*
X283276Y-39194D02*
X283876D01*
X283276Y-39294D02*
X283876D01*
X283276Y-39394D02*
X283876D01*
X283276Y-39494D02*
X283876D01*
X280276Y-28494D02*
X280876D01*
X280276Y-28594D02*
X280876D01*
X280276Y-28694D02*
X280876D01*
X280276Y-28794D02*
X280876D01*
X280276Y-28894D02*
X280876D01*
X280276Y-28994D02*
X280876D01*
X280276Y-29094D02*
X280876D01*
X280276Y-29194D02*
X280876D01*
X280276Y-29294D02*
X280876D01*
X280276Y-29394D02*
X280876D01*
X280176Y-27994D02*
X280876D01*
X280176Y-28094D02*
X280876D01*
X280176Y-28294D02*
X280876D01*
X280176Y-28194D02*
X280876D01*
X280176Y-28394D02*
X280876D01*
X280176Y-29494D02*
X280876D01*
X280176Y-29594D02*
X280876D01*
X280176Y-29694D02*
X280876D01*
X280176Y-29794D02*
X280876D01*
X280176Y-29894D02*
X280876D01*
X280076Y-27894D02*
X280876D01*
X280076Y-29994D02*
X280776D01*
X280076Y-30094D02*
X280776D01*
X276776D02*
X277476D01*
X276776Y-28294D02*
X277376D01*
X276776Y-28394D02*
X277376D01*
X276776Y-28994D02*
X277376D01*
X276776Y-29094D02*
X277376D01*
X276776Y-29494D02*
X277376D01*
X276776Y-29694D02*
X277376D01*
X276776Y-29794D02*
X277376D01*
X281176Y-34594D02*
X281876D01*
X281176Y-34694D02*
X281876D01*
X279976Y-30194D02*
X280776D01*
X279976Y-30294D02*
X280676D01*
X279876Y-30394D02*
X280676D01*
X279876Y-30494D02*
X280576D01*
X279776Y-30594D02*
X280576D01*
X279676Y-30694D02*
X280476D01*
X279476Y-30794D02*
X280476D01*
X279276Y-30894D02*
X280376D01*
X278276Y-31494D02*
X279576D01*
X277676Y-31194D02*
X280076D01*
X277476Y-30994D02*
X280276D01*
X277576Y-31094D02*
X280176D01*
X277976Y-31394D02*
X279776D01*
X277776Y-31294D02*
X279976D01*
X277976Y-34494D02*
X278576D01*
X277976Y-34594D02*
X278576D01*
X277976Y-34694D02*
X278576D01*
X277976Y-35094D02*
X278576D01*
X277976Y-34394D02*
X278576D01*
X277976Y-34794D02*
X278576D01*
X277976Y-34894D02*
X278576D01*
X277976Y-34994D02*
X278576D01*
X276776Y-30894D02*
X278276D01*
X276776Y-30794D02*
X278076D01*
X276776Y-30694D02*
X277876D01*
X276776Y-30594D02*
X277776D01*
X276776Y-30494D02*
X277676D01*
X276776Y-30294D02*
X277576D01*
X276776Y-30394D02*
X277576D01*
X276776Y-30194D02*
X277476D01*
X276776Y-28694D02*
X277376D01*
X276776Y-28494D02*
X277376D01*
X276776Y-28094D02*
X277376D01*
X276776Y-28794D02*
X277376D01*
X276776Y-27994D02*
X277376D01*
X276776Y-27894D02*
X277376D01*
X276776Y-28894D02*
X277376D01*
X276776Y-28194D02*
X277376D01*
X276776Y-28594D02*
X277376D01*
X276776Y-29194D02*
X277376D01*
X276776Y-29294D02*
X277376D01*
X276776Y-29594D02*
X277376D01*
X274776Y-27894D02*
X275376D01*
X274676Y-27994D02*
X275376D01*
X274676Y-28194D02*
X275376D01*
X274676Y-28094D02*
X275376D01*
X274676Y-28294D02*
X275276D01*
X274576Y-28394D02*
X275276D01*
X274576Y-28494D02*
X275276D01*
X274576Y-28594D02*
X275176D01*
X274476Y-28694D02*
X275176D01*
X274476Y-28894D02*
X275176D01*
X274476Y-28794D02*
X275176D01*
X274476Y-28994D02*
X275076D01*
X274376Y-29094D02*
X275076D01*
X274376Y-29194D02*
X275076D01*
X274376Y-29294D02*
X274976D01*
X274376Y-29394D02*
X274976D01*
X274276Y-29494D02*
X274976D01*
X274276Y-29594D02*
X274876D01*
X274276Y-29694D02*
X274876D01*
X274176Y-29794D02*
X274876D01*
X276776Y-29894D02*
X277376D01*
X276776Y-29994D02*
X277376D01*
X276776Y-31394D02*
X277376D01*
X276776Y-30994D02*
X277376D01*
X276776Y-31094D02*
X277376D01*
X276776Y-31294D02*
X277376D01*
X276776Y-31194D02*
X277376D01*
X275676Y-34994D02*
X276276D01*
X275676Y-34094D02*
X276276D01*
X275676Y-34294D02*
X276276D01*
X275676Y-33994D02*
X276276D01*
X275676Y-33594D02*
X276276D01*
X275676Y-33894D02*
X276276D01*
X275676Y-33494D02*
X276276D01*
X275676Y-33694D02*
X276276D01*
X275676Y-35194D02*
X276276D01*
X275676Y-33294D02*
X276276D01*
X275676Y-33194D02*
X276276D01*
X275676Y-33794D02*
X276276D01*
X275676Y-34194D02*
X276276D01*
X275676Y-35094D02*
X276276D01*
X275676Y-33394D02*
X276276D01*
X274576Y-34494D02*
X277276D01*
X274576Y-34594D02*
X277276D01*
X274576Y-34694D02*
X277276D01*
X274576Y-34794D02*
X277276D01*
X274576Y-34394D02*
X277276D01*
X274576Y-34894D02*
X277276D01*
X274176Y-29894D02*
X274876D01*
X274176Y-29994D02*
X274776D01*
X274176Y-30094D02*
X274776D01*
X274076Y-30194D02*
X274776D01*
X281176Y-37194D02*
X281876D01*
X281176Y-36894D02*
X281876D01*
X281176Y-35994D02*
X281876D01*
X281176Y-37394D02*
X281876D01*
X281176Y-35494D02*
X281876D01*
X281176Y-36794D02*
X281876D01*
X281176Y-35894D02*
X281876D01*
X281176Y-35594D02*
X281876D01*
X281176Y-35794D02*
X281876D01*
X281176Y-35694D02*
X281876D01*
X281176Y-36594D02*
X281876D01*
X281176Y-36094D02*
X281876D01*
X281176Y-36494D02*
X281876D01*
X281176Y-36394D02*
X281876D01*
X281176Y-37494D02*
X281876D01*
X281176Y-37594D02*
X281876D01*
X281176Y-37694D02*
X281876D01*
X277976Y-36194D02*
X278576D01*
X277976Y-37194D02*
X278576D01*
X277976Y-37094D02*
X278576D01*
X277976Y-36294D02*
X278576D01*
X277976Y-35594D02*
X278576D01*
X277976Y-37394D02*
X278576D01*
X277976Y-37294D02*
X278576D01*
X277976Y-35894D02*
X278576D01*
X277976Y-36994D02*
X278576D01*
X277976Y-36494D02*
X278576D01*
X277976Y-35994D02*
X278576D01*
X277976Y-36094D02*
X278576D01*
X277976Y-35694D02*
X278576D01*
X277976Y-35794D02*
X278576D01*
X277976Y-37594D02*
X278576D01*
X281176Y-37794D02*
X281876D01*
X281176Y-37894D02*
X281876D01*
X281076Y-38294D02*
X281876D01*
X281076Y-38394D02*
X281776D01*
X281076Y-38494D02*
X281776D01*
X280976Y-38594D02*
X281776D01*
X280876Y-38694D02*
X281676D01*
X280776Y-38794D02*
X281676D01*
X280676Y-38894D02*
X281576D01*
X280376Y-38994D02*
X281576D01*
X279776Y-39594D02*
X280576D01*
X279276Y-39494D02*
X280976D01*
X279076Y-39394D02*
X281176D01*
X278676Y-39094D02*
X281476D01*
X278776Y-39194D02*
X281376D01*
X278876Y-39294D02*
X281276D01*
X277976Y-38994D02*
X279676D01*
X277976Y-38894D02*
X279376D01*
X277976Y-38794D02*
X279176D01*
X277976Y-38694D02*
X279076D01*
X277976Y-38594D02*
X278976D01*
X277976Y-38494D02*
X278876D01*
X277976Y-38294D02*
X278776D01*
X277976Y-38394D02*
X278776D01*
X277976Y-38094D02*
X278676D01*
X277976Y-38194D02*
X278676D01*
X277976Y-39094D02*
X278576D01*
X277976Y-39394D02*
X278576D01*
X277976Y-39494D02*
X278576D01*
X277976Y-36894D02*
X278576D01*
X277976Y-36694D02*
X278576D01*
X277976Y-36794D02*
X278576D01*
X277976Y-35494D02*
X278576D01*
X277976Y-36394D02*
X278576D01*
X277976Y-36594D02*
X278576D01*
X277976Y-35394D02*
X278576D01*
X277976Y-35294D02*
X278576D01*
X277976Y-35194D02*
X278576D01*
X275676Y-36094D02*
X276276D01*
X275676Y-36894D02*
X276276D01*
X275676Y-36694D02*
X276276D01*
X275676Y-35994D02*
X276276D01*
X275676Y-37194D02*
X276276D01*
X275676Y-36194D02*
X276276D01*
X275676Y-36794D02*
X276276D01*
X275676Y-35794D02*
X276276D01*
X275676Y-37394D02*
X276276D01*
X275676Y-35594D02*
X276276D01*
X275676Y-35894D02*
X276276D01*
X275676Y-36294D02*
X276276D01*
X275676Y-36994D02*
X276276D01*
X275676Y-36394D02*
X276276D01*
X275676Y-35294D02*
X276276D01*
X275676Y-37094D02*
X276276D01*
X275676Y-37294D02*
X276276D01*
X275676Y-35394D02*
X276276D01*
X275676Y-35694D02*
X276276D01*
X275676Y-35494D02*
X276276D01*
X275676Y-36494D02*
X276276D01*
X275676Y-36594D02*
X276276D01*
X275676Y-37494D02*
X276276D01*
X277976D02*
X278576D01*
X277976Y-39294D02*
X278576D01*
X277976Y-37994D02*
X278576D01*
X277976Y-37794D02*
X278576D01*
X277976Y-37894D02*
X278576D01*
X277976Y-37694D02*
X278576D01*
X277976Y-39194D02*
X278576D01*
X275676Y-38294D02*
X276276D01*
X275676Y-38494D02*
X276276D01*
X275676Y-38094D02*
X276276D01*
X275676Y-37994D02*
X276276D01*
X275676Y-37894D02*
X276276D01*
X275676Y-37794D02*
X276276D01*
X275676Y-37694D02*
X276276D01*
X275676Y-37594D02*
X276276D01*
X275676Y-38394D02*
X276276D01*
X275676Y-38194D02*
X276276D01*
X275576Y-38694D02*
X276276D01*
X275576Y-38594D02*
X276276D01*
X275576Y-38794D02*
X276276D01*
X275476Y-38894D02*
X276276D01*
X275276Y-38994D02*
X276176D01*
X274576Y-39094D02*
X276176D01*
X274576Y-39194D02*
X276076D01*
X274576Y-39294D02*
X276076D01*
X274476Y-39394D02*
X275976D01*
X274776Y-39594D02*
X275476D01*
X274476Y-39494D02*
X275776D01*
X274576Y-38994D02*
X274676D01*
X274076Y-16394D02*
X274776D01*
X274076Y-16494D02*
X274776D01*
X274076Y-16594D02*
X274776D01*
X274076Y-16694D02*
X274776D01*
X274076Y-16794D02*
X274776D01*
X274076Y-16894D02*
X274776D01*
X274076Y-17094D02*
X274776D01*
X274076Y-17194D02*
X274776D01*
X274076Y-17294D02*
X274776D01*
X274076Y-17394D02*
X274776D01*
X273076Y-17494D02*
X275676D01*
X273076Y-17594D02*
X275676D01*
X271276D02*
X271976D01*
X273076Y-17694D02*
X275676D01*
X271276D02*
X271976D01*
X273076Y-17794D02*
X275676D01*
X273076Y-17894D02*
X275676D01*
X273076Y-17994D02*
X275676D01*
X274076Y-18194D02*
X274776D01*
X274076Y-18294D02*
X274776D01*
X274076Y-18494D02*
X274776D01*
X274076Y-18594D02*
X274776D01*
X274076Y-18694D02*
X274776D01*
X274076Y-18794D02*
X274776D01*
X274076Y-18894D02*
X274776D01*
X274076Y-18994D02*
X274776D01*
X274076Y-19094D02*
X274776D01*
X274076Y-19394D02*
X274776D01*
X274076Y-19494D02*
X274776D01*
X274076Y-19594D02*
X274776D01*
X274076Y-19694D02*
X274776D01*
X271376Y-15694D02*
X271876D01*
X271276Y-15794D02*
X271976D01*
X271176Y-15894D02*
X272076D01*
X271176Y-15994D02*
X272076D01*
X271176Y-16094D02*
X272076D01*
X271176Y-16194D02*
X272076D01*
X271176Y-16294D02*
X271976D01*
X271276Y-16394D02*
X271976D01*
X271476Y-16494D02*
X271776D01*
X271276Y-17494D02*
X271976D01*
X271276Y-17794D02*
X271976D01*
X271276Y-17894D02*
X271976D01*
X271276Y-17994D02*
X271976D01*
X271276Y-18094D02*
X271976D01*
X271276Y-18194D02*
X271976D01*
X271276Y-18294D02*
X271976D01*
X271276Y-18394D02*
X271976D01*
X271276Y-18494D02*
X271976D01*
X271276Y-18594D02*
X271976D01*
X271276Y-18694D02*
X271976D01*
X271276Y-18794D02*
X271976D01*
X271276Y-18894D02*
X271976D01*
X271276Y-18994D02*
X271976D01*
X271276Y-19094D02*
X271976D01*
X271276Y-19194D02*
X271976D01*
X271276Y-19294D02*
X271976D01*
X269476D02*
X270176D01*
X271276Y-19394D02*
X271976D01*
X271276Y-19494D02*
X271976D01*
X271276Y-19594D02*
X271976D01*
X271276Y-19694D02*
X271976D01*
X271276Y-19794D02*
X271976D01*
X271276Y-19894D02*
X271976D01*
X274076Y-20394D02*
X274776D01*
X274076Y-20494D02*
X274776D01*
X274076Y-20694D02*
X274776D01*
X274076Y-20794D02*
X274776D01*
X274076Y-20894D02*
X274776D01*
X274076Y-20994D02*
X274776D01*
X274076Y-21094D02*
X274776D01*
X274076Y-21194D02*
X274776D01*
X274076Y-21294D02*
X274776D01*
X274076Y-21394D02*
X274776D01*
X274076Y-21494D02*
X274776D01*
X273976Y-21894D02*
X274776D01*
X273876Y-21994D02*
X274676D01*
X273676Y-22094D02*
X274676D01*
X272976D02*
X273276D01*
X272976Y-22194D02*
X274676D01*
X272976Y-22294D02*
X274576D01*
X272976Y-22394D02*
X274476D01*
X272976Y-22494D02*
X274376D01*
X272976Y-22594D02*
X274276D01*
X273276Y-22694D02*
X273876D01*
X272176Y-26394D02*
X272776D01*
X272176Y-26494D02*
X272876D01*
X272176Y-26594D02*
X272876D01*
X272076Y-26694D02*
X272876D01*
X272076Y-26794D02*
X272976D01*
X272076Y-26894D02*
X272976D01*
X271976Y-26994D02*
X272976D01*
X271976Y-27094D02*
X273076D01*
X271976Y-27194D02*
X273076D01*
X271876Y-27294D02*
X273076D01*
X271276Y-19994D02*
X271976D01*
X269476D02*
X270176D01*
X271276Y-20094D02*
X271976D01*
X271276Y-20194D02*
X271976D01*
X271276Y-20294D02*
X271976D01*
X271276Y-20394D02*
X271976D01*
X269476D02*
X270176D01*
X271276Y-20494D02*
X271976D01*
X271276Y-20594D02*
X271976D01*
X269476D02*
X270176D01*
X271276Y-20694D02*
X271976D01*
X269476D02*
X270176D01*
X271276Y-20794D02*
X271976D01*
X269476D02*
X270176D01*
X271276Y-20894D02*
X271976D01*
X271276Y-20994D02*
X271976D01*
X271276Y-21094D02*
X271976D01*
X271276Y-21194D02*
X271976D01*
X271276Y-21294D02*
X271976D01*
X271276Y-21394D02*
X271976D01*
X271276Y-21494D02*
X271976D01*
X271276Y-21594D02*
X271976D01*
X271276Y-21694D02*
X271976D01*
X271276Y-21794D02*
X271976D01*
X271276Y-21894D02*
X271976D01*
X271276Y-21994D02*
X271976D01*
X271276Y-22094D02*
X271976D01*
X271276Y-22194D02*
X271976D01*
X271276Y-22294D02*
X271976D01*
X271276Y-22394D02*
X271976D01*
X271276Y-22494D02*
X271976D01*
X271276Y-22594D02*
X271976D01*
X267776Y-17394D02*
X268176D01*
X267176Y-17494D02*
X268776D01*
X266976Y-17594D02*
X268976D01*
X266776Y-17694D02*
X269176D01*
X266676Y-17794D02*
X269276D01*
X266576Y-17894D02*
X269376D01*
X268276Y-17994D02*
X269476D01*
X266476D02*
X267676D01*
X268576Y-18094D02*
X269576D01*
X268776Y-18194D02*
X269676D01*
X268876Y-18294D02*
X269776D01*
X268976Y-18394D02*
X269776D01*
X269076Y-18494D02*
X269876D01*
X269176Y-18594D02*
X269876D01*
X269176Y-18694D02*
X269976D01*
X269276Y-18794D02*
X269976D01*
X269276Y-18894D02*
X270076D01*
X269376Y-18994D02*
X270076D01*
X269376Y-19094D02*
X270076D01*
X269376Y-19194D02*
X270076D01*
X269476Y-19394D02*
X270176D01*
X269476Y-19494D02*
X270176D01*
X269476Y-19594D02*
X270176D01*
X269476Y-19694D02*
X270176D01*
X269476Y-19794D02*
X270176D01*
X269476Y-19894D02*
X270176D01*
X269476Y-20094D02*
X270176D01*
X269476Y-20194D02*
X270176D01*
X269476Y-20294D02*
X270176D01*
X269476Y-20494D02*
X270176D01*
X269476Y-20894D02*
X270076D01*
X269376Y-20994D02*
X270076D01*
X263576Y-17994D02*
X264776D01*
X266376Y-18094D02*
X267376D01*
X263876D02*
X264876D01*
X266276Y-18194D02*
X267176D01*
X264076D02*
X264976D01*
X266276Y-18294D02*
X267076D01*
X264176D02*
X264976D01*
X266176Y-18394D02*
X266976D01*
X264276D02*
X264976D01*
X266176Y-18494D02*
X266876D01*
X264376D02*
X265076D01*
X266076Y-18594D02*
X266876D01*
X264376D02*
X265076D01*
X266076Y-18694D02*
X266776D01*
X264376D02*
X265076D01*
X266076Y-18794D02*
X266776D01*
X264376D02*
X265076D01*
X265976Y-18894D02*
X266676D01*
X264376D02*
X265076D01*
X265976Y-18994D02*
X266676D01*
X264376D02*
X265076D01*
X265976Y-19094D02*
X266676D01*
X264376D02*
X265076D01*
X265976Y-19194D02*
X266676D01*
X264276D02*
X265076D01*
X264176Y-19294D02*
X264976D01*
X264076Y-19394D02*
X264976D01*
X263776Y-19494D02*
X264876D01*
X263576Y-19594D02*
X264776D01*
X263176Y-19694D02*
X264676D01*
X262776Y-19794D02*
X264576D01*
X262476Y-19894D02*
X264476D01*
X269376Y-21094D02*
X270076D01*
X269376Y-21194D02*
X270076D01*
X269276Y-21294D02*
X269976D01*
X269276Y-21394D02*
X269976D01*
X269176Y-21494D02*
X269876D01*
X269076Y-21594D02*
X269876D01*
X268976Y-21694D02*
X269776D01*
X268876Y-21794D02*
X269776D01*
X268776Y-21894D02*
X269676D01*
X268576Y-21994D02*
X269576D01*
X268376Y-22094D02*
X269576D01*
X266476D02*
X267576D01*
X266576Y-22194D02*
X269476D01*
X266676Y-22294D02*
X269276D01*
X266776Y-22394D02*
X269176D01*
X266976Y-22494D02*
X268976D01*
X267276Y-22594D02*
X268776D01*
X267676Y-22694D02*
X268276D01*
X269176Y-26394D02*
X269876D01*
X269176Y-26494D02*
X269876D01*
X269176Y-26594D02*
X269876D01*
X269276Y-26694D02*
X269976D01*
X269276Y-26794D02*
X269976D01*
X269276Y-26894D02*
X269976D01*
X266876D02*
X267976D01*
X269376Y-26994D02*
X270076D01*
X267176D02*
X268076D01*
X269376Y-27094D02*
X270076D01*
X267276D02*
X268176D01*
X269376Y-27194D02*
X270076D01*
X267376D02*
X268276D01*
X267476Y-27294D02*
X268276D01*
X265976Y-20994D02*
X266676D01*
X265976Y-21094D02*
X266676D01*
X265976Y-21194D02*
X266676D01*
X264576D02*
X265276D01*
X265976Y-21294D02*
X266676D01*
X264576D02*
X265276D01*
X266076Y-21394D02*
X266776D01*
X264476D02*
X265176D01*
X266076Y-21494D02*
X266776D01*
X264476D02*
X265176D01*
X266076Y-21594D02*
X266876D01*
X264376D02*
X265176D01*
X266176Y-21694D02*
X266976D01*
X264376D02*
X265176D01*
X266176Y-21794D02*
X267076D01*
X264276D02*
X265076D01*
X266276Y-21894D02*
X267176D01*
X264076D02*
X265076D01*
X266376Y-21994D02*
X267376D01*
X263976D02*
X264976D01*
X263576Y-22094D02*
X264876D01*
X265876Y-26294D02*
X266876D01*
X265476Y-26394D02*
X267276D01*
X265276Y-26494D02*
X267476D01*
X265076Y-26594D02*
X267676D01*
X264976Y-26694D02*
X267776D01*
X264876Y-26794D02*
X267876D01*
X264776Y-26894D02*
X265876D01*
X264776Y-26994D02*
X265676D01*
X264676Y-27094D02*
X265576D01*
X264676Y-27194D02*
X265376D01*
X264576Y-27294D02*
X265376D01*
X271876Y-27394D02*
X273076D01*
X272576Y-27494D02*
X273176D01*
X271876D02*
X272476D01*
X272576Y-27594D02*
X273176D01*
X271876D02*
X272476D01*
X272576Y-27694D02*
X273176D01*
X271776D02*
X272476D01*
X272676Y-27794D02*
X273276D01*
X272676Y-27894D02*
X273276D01*
X271776D02*
X272376D01*
X272676Y-27994D02*
X273276D01*
X272676Y-28094D02*
X273376D01*
X272776Y-28194D02*
X273376D01*
X272776Y-28294D02*
X273376D01*
X272776Y-28394D02*
X273476D01*
X272876Y-28494D02*
X273476D01*
X272876Y-28594D02*
X273476D01*
X272876Y-28694D02*
X273576D01*
X272976Y-28794D02*
X273576D01*
X272976Y-28894D02*
X273576D01*
X272976Y-28994D02*
X273676D01*
X273076Y-29094D02*
X273676D01*
X273076Y-29194D02*
X273676D01*
X273076Y-29294D02*
X273676D01*
X273176Y-29394D02*
X273776D01*
X273176Y-29494D02*
X273776D01*
X273176Y-29594D02*
X273776D01*
X273276Y-29694D02*
X273876D01*
X273276Y-29794D02*
X273876D01*
X273276Y-29894D02*
X273876D01*
X273376Y-29994D02*
X273976D01*
X273376Y-30094D02*
X273976D01*
X271776Y-27794D02*
X272376D01*
X271676Y-27994D02*
X272376D01*
X271676Y-28094D02*
X272276D01*
X271676Y-28194D02*
X272276D01*
X271576Y-28294D02*
X272276D01*
X271576Y-28394D02*
X272176D01*
X271576Y-28494D02*
X272176D01*
X271476Y-28594D02*
X272176D01*
X271476Y-28694D02*
X272076D01*
X271476Y-28794D02*
X272076D01*
X271376Y-28894D02*
X272076D01*
X271376Y-28994D02*
X271976D01*
X271376Y-29094D02*
X271976D01*
X271376Y-29194D02*
X271976D01*
X269976D02*
X270576D01*
X271276Y-29294D02*
X271976D01*
X269976D02*
X270676D01*
X271276Y-29394D02*
X271876D01*
X270076D02*
X270676D01*
X271276Y-29494D02*
X271876D01*
X270076D02*
X270676D01*
X270076Y-29594D02*
X270676D01*
X271176D02*
X271876D01*
X270076Y-29694D02*
X270776D01*
X271176D02*
X271776D01*
X270176Y-29794D02*
X270776D01*
X271176D02*
X271776D01*
X271076Y-29894D02*
X271776D01*
X270176D02*
X270776D01*
X271076Y-29994D02*
X271676D01*
X270176D02*
X270876D01*
X271076Y-30094D02*
X271676D01*
X273376Y-30194D02*
X273976D01*
X273376Y-30294D02*
X274676D01*
X273476Y-30394D02*
X274676D01*
X273476Y-30494D02*
X274676D01*
X273476Y-30594D02*
X274676D01*
X273576Y-30694D02*
X274576D01*
X273576Y-30794D02*
X274576D01*
X273576Y-30894D02*
X274576D01*
X273676Y-30994D02*
X274476D01*
X273676Y-31094D02*
X274476D01*
X273676Y-31194D02*
X274476D01*
X273776Y-31294D02*
X274476D01*
X273776Y-31394D02*
X274376D01*
X272976Y-32594D02*
X273376D01*
X272776Y-32794D02*
X273576D01*
X272776Y-33094D02*
X273576D01*
X272776Y-33194D02*
X273576D01*
X272876Y-34494D02*
X273476D01*
X272876Y-34594D02*
X273476D01*
X272876Y-34694D02*
X273476D01*
X272876Y-34794D02*
X273476D01*
X272876Y-34894D02*
X273476D01*
X272876Y-34994D02*
X273476D01*
X272876Y-35094D02*
X273476D01*
X272876Y-35194D02*
X273476D01*
X272876Y-35294D02*
X273476D01*
X272876Y-35394D02*
X273476D01*
X272876Y-35494D02*
X273476D01*
X272876Y-35594D02*
X273476D01*
X272876Y-35694D02*
X273476D01*
X272876Y-35794D02*
X273476D01*
X272876Y-35894D02*
X273476D01*
X270276Y-30094D02*
X270876D01*
X270976Y-30194D02*
X271676D01*
X270276D02*
X270876D01*
X270976Y-30294D02*
X271576D01*
X270276D02*
X270876D01*
X270376Y-30394D02*
X271576D01*
X270376Y-30494D02*
X271576D01*
X270376Y-30594D02*
X271476D01*
X270376Y-30694D02*
X271476D01*
X270476Y-30794D02*
X271476D01*
X270476Y-30894D02*
X271376D01*
X270476Y-30994D02*
X271376D01*
X270576Y-31094D02*
X271376D01*
X270576Y-31194D02*
X271276D01*
X270576Y-31294D02*
X271276D01*
X270576Y-31394D02*
X271276D01*
X272776Y-32694D02*
X273476D01*
X272676Y-32894D02*
X273576D01*
X272676Y-32994D02*
X273576D01*
X272776Y-33294D02*
X273476D01*
X272976Y-33394D02*
X273276D01*
X272876Y-34394D02*
X273476D01*
X269676Y-34894D02*
X270976D01*
X269976Y-34994D02*
X271076D01*
X270176Y-35094D02*
X271176D01*
X270376Y-35194D02*
X271276D01*
X270476Y-35294D02*
X271276D01*
X270576Y-35394D02*
X271376D01*
X270676Y-35494D02*
X271476D01*
X270676Y-35594D02*
X271476D01*
X270776Y-35694D02*
X271476D01*
X270776Y-35794D02*
X271576D01*
X269376Y-27294D02*
X270076D01*
X269476Y-27394D02*
X270176D01*
X267576D02*
X268276D01*
X269476Y-27494D02*
X270176D01*
X267676D02*
X268376D01*
X269476Y-27594D02*
X270176D01*
X267676D02*
X268376D01*
X269576Y-27694D02*
X270176D01*
X267676D02*
X268376D01*
X269576Y-27794D02*
X270276D01*
X267676D02*
X268376D01*
X269576Y-27894D02*
X270276D01*
X269676Y-27994D02*
X270276D01*
X269676Y-28094D02*
X270276D01*
X269676Y-28194D02*
X270376D01*
X269676Y-28294D02*
X270376D01*
X269776Y-28394D02*
X270376D01*
X269776Y-28494D02*
X270476D01*
X269776Y-28594D02*
X270476D01*
X269876Y-28694D02*
X270476D01*
X269876Y-28794D02*
X270476D01*
X269876Y-28894D02*
X270576D01*
X269876Y-28994D02*
X270576D01*
X269976Y-29094D02*
X270576D01*
X267476Y-29394D02*
X268376D01*
X267576Y-29494D02*
X268376D01*
X267676Y-29594D02*
X268376D01*
X267776Y-29694D02*
X268476D01*
X267776Y-29794D02*
X268476D01*
X267776Y-29894D02*
X268476D01*
X267776Y-29994D02*
X268476D01*
X267776Y-30094D02*
X268476D01*
X264576Y-27394D02*
X265276D01*
X264576Y-27494D02*
X265276D01*
X264476Y-27594D02*
X265176D01*
X264476Y-27694D02*
X265176D01*
X264476Y-27794D02*
X265176D01*
X264476Y-27894D02*
X265176D01*
X264476Y-27994D02*
X265176D01*
X264476Y-28094D02*
X265176D01*
X264476Y-28194D02*
X265176D01*
X264476Y-28294D02*
X265176D01*
X264476Y-28394D02*
X265176D01*
X264476Y-28494D02*
X266776D01*
X264476Y-28594D02*
X267276D01*
X264476Y-28694D02*
X267576D01*
X264476Y-28794D02*
X267776D01*
X264476Y-28894D02*
X267876D01*
X264476Y-28994D02*
X265176D01*
X266376D02*
X267976D01*
X264476Y-29094D02*
X265176D01*
X266876D02*
X268076D01*
X267176Y-29194D02*
X268176D01*
X264476D02*
X265176D01*
X267376Y-29294D02*
X268276D01*
X264476D02*
X265176D01*
X264476Y-29394D02*
X265176D01*
X264476Y-29494D02*
X265176D01*
X264476Y-29594D02*
X265176D01*
X264476Y-29694D02*
X265176D01*
X264476Y-29794D02*
X265176D01*
X264476Y-29894D02*
X265176D01*
X264476Y-29994D02*
X265176D01*
X264476Y-30094D02*
X265176D01*
X267776Y-30194D02*
X268476D01*
X267776Y-30294D02*
X268476D01*
X267776Y-30394D02*
X268476D01*
X267676Y-30494D02*
X268476D01*
X267576Y-30594D02*
X268376D01*
X267476Y-30694D02*
X268376D01*
X267376Y-30794D02*
X268376D01*
X267176Y-30894D02*
X268276D01*
X265276Y-30994D02*
X268176D01*
X265376Y-31094D02*
X268076D01*
X265476Y-31194D02*
X267976D01*
X265676Y-31294D02*
X267876D01*
X265876Y-31394D02*
X267676D01*
X266176Y-31494D02*
X267476D01*
X268676Y-34394D02*
X270176D01*
X265476D02*
X266076D01*
X268476Y-34494D02*
X270376D01*
X268276Y-34594D02*
X270576D01*
X265476D02*
X266076D01*
X268076Y-34694D02*
X270776D01*
X267976Y-34794D02*
X270876D01*
X267876Y-34894D02*
X269176D01*
X265476D02*
X266076D01*
X267776Y-34994D02*
X268876D01*
X267676Y-35094D02*
X268676D01*
X267576Y-35194D02*
X268476D01*
X267576Y-35294D02*
X268376D01*
X267476Y-35394D02*
X268276D01*
X267476Y-35494D02*
X268276D01*
X267376Y-35594D02*
X268176D01*
X267376Y-35694D02*
X268076D01*
X267276Y-35794D02*
X268076D01*
X264476Y-30194D02*
X265276D01*
X264476Y-30294D02*
X265376D01*
X264476Y-30394D02*
X265376D01*
X264476Y-30494D02*
X265476D01*
X264476Y-30594D02*
X265676D01*
X264476Y-30694D02*
X265776D01*
X264476Y-30794D02*
X265976D01*
X264476Y-30894D02*
X266176D01*
X264476Y-30994D02*
X265176D01*
X264376Y-31094D02*
X265076D01*
X264376Y-31194D02*
X265076D01*
X264376Y-31294D02*
X265076D01*
X264376Y-31394D02*
X265076D01*
X263176Y-34394D02*
X264476D01*
X265476Y-34494D02*
X266076D01*
X262876D02*
X264776D01*
X262776Y-34594D02*
X264876D01*
X265476Y-34694D02*
X266076D01*
X262676D02*
X265076D01*
X265476Y-34794D02*
X266076D01*
X262576D02*
X265176D01*
X264176Y-34894D02*
X265276D01*
X265476Y-34994D02*
X266076D01*
X264476D02*
X265376D01*
X264676Y-35094D02*
X266076D01*
X264876Y-35194D02*
X266076D01*
X264976Y-35294D02*
X266076D01*
X265076Y-35394D02*
X266076D01*
X265076Y-35494D02*
X266076D01*
X265176Y-35594D02*
X266076D01*
X265276Y-35694D02*
X266076D01*
X265276Y-35794D02*
X266076D01*
X262476Y-17494D02*
X264076D01*
X261876Y-17794D02*
X264576D01*
X261976Y-17694D02*
X264476D01*
X262176Y-17594D02*
X264276D01*
X262176Y-19994D02*
X264276D01*
X261776Y-17894D02*
X264676D01*
X262976Y-17394D02*
X263476D01*
X261976Y-20094D02*
X263976D01*
X261876Y-20194D02*
X263676D01*
X261676Y-20294D02*
X263176D01*
X261676Y-17994D02*
X262976D01*
X261576Y-20394D02*
X262876D01*
X261576Y-18094D02*
X262676D01*
X261476Y-20494D02*
X262576D01*
X261476Y-18194D02*
X262476D01*
X261476Y-20594D02*
X262376D01*
X261476Y-18294D02*
X262276D01*
X261376Y-20694D02*
X262276D01*
X261376Y-18394D02*
X262176D01*
X261376Y-18494D02*
X262176D01*
X261376Y-20794D02*
X262176D01*
X261376Y-18594D02*
X262076D01*
X261376Y-18694D02*
X262076D01*
X261376Y-20894D02*
X262076D01*
X261376Y-18794D02*
X261976D01*
X261376Y-18894D02*
X261976D01*
X261276Y-20994D02*
X262076D01*
X261276Y-21094D02*
X261976D01*
X261276Y-21194D02*
X261976D01*
X261276Y-21294D02*
X261976D01*
X261276Y-21394D02*
X261976D01*
X261676Y-22194D02*
X264776D01*
X261776Y-22294D02*
X264676D01*
X261876Y-22394D02*
X264576D01*
X262876Y-22694D02*
X263576D01*
X262376Y-22594D02*
X264076D01*
X262076Y-22494D02*
X264376D01*
X262476Y-26494D02*
X263076D01*
X262476Y-26594D02*
X263076D01*
X262476Y-26694D02*
X263076D01*
X262476Y-26894D02*
X263076D01*
X262476Y-26794D02*
X263076D01*
X262476Y-26394D02*
X263076D01*
X262376Y-27694D02*
X263076D01*
X262276Y-27494D02*
X263076D01*
X262276Y-27594D02*
X263076D01*
X262176Y-27394D02*
X263076D01*
X262076Y-27294D02*
X263076D01*
X261976Y-27194D02*
X263076D01*
X261876Y-27094D02*
X263076D01*
X261676Y-26994D02*
X263076D01*
X261576Y-22094D02*
X262776D01*
X261476Y-21994D02*
X262476D01*
X261476Y-21894D02*
X262376D01*
X261276Y-26894D02*
X262376D01*
X261376Y-21794D02*
X262176D01*
X261376Y-21594D02*
X262076D01*
X261376Y-21694D02*
X262076D01*
X261276Y-21494D02*
X261976D01*
X260676Y-26794D02*
X262376D01*
X260676Y-26694D02*
X262276D01*
X260676Y-26594D02*
X262176D01*
X260676Y-26494D02*
X261976D01*
X260676Y-26394D02*
X261876D01*
X260676Y-26294D02*
X261576D01*
X260676Y-26894D02*
X260976D01*
X259476Y-27794D02*
X260176D01*
X259376Y-27594D02*
X260076D01*
X259376Y-27694D02*
X260076D01*
X259276Y-27494D02*
X259976D01*
X259176Y-27394D02*
X259976D01*
X259076Y-27294D02*
X259876D01*
X258976Y-27194D02*
X259876D01*
X258876Y-27094D02*
X259776D01*
X258776Y-26994D02*
X259676D01*
X258476Y-26894D02*
X259576D01*
X257576Y-26294D02*
X258576D01*
X257276Y-26394D02*
X258876D01*
X257076Y-26494D02*
X259076D01*
X256876Y-26594D02*
X259276D01*
X256776Y-26694D02*
X259376D01*
X256676Y-26794D02*
X259476D01*
X256576Y-26894D02*
X257676D01*
X256476Y-26994D02*
X257476D01*
X256476Y-27094D02*
X257276D01*
X256376Y-27194D02*
X257176D01*
X256276Y-27294D02*
X257076D01*
X256276Y-27394D02*
X257076D01*
X256276Y-27494D02*
X256976D01*
X256176Y-27594D02*
X256876D01*
X256176Y-27694D02*
X256876D01*
X256176Y-27794D02*
X256876D01*
X262476Y-29094D02*
X263076D01*
X262476Y-28394D02*
X263076D01*
X262476Y-28994D02*
X263076D01*
X262476Y-28694D02*
X263076D01*
X262476Y-29194D02*
X263076D01*
X262476Y-27994D02*
X263076D01*
X262476Y-28594D02*
X263076D01*
X262476Y-28094D02*
X263076D01*
X262476Y-28794D02*
X263076D01*
X262476Y-28194D02*
X263076D01*
X262476Y-28494D02*
X263076D01*
X262476Y-28894D02*
X263076D01*
X262476Y-28294D02*
X263076D01*
X262476Y-29294D02*
X263076D01*
X262476Y-29394D02*
X263076D01*
X262476Y-29494D02*
X263076D01*
X262476Y-29594D02*
X263076D01*
X262476Y-29694D02*
X263076D01*
X262476Y-29794D02*
X263076D01*
X262476Y-29894D02*
X263076D01*
X262476Y-29994D02*
X263076D01*
X262476Y-30094D02*
X263076D01*
X262476Y-30194D02*
X263076D01*
X262376Y-27794D02*
X263076D01*
X262376Y-27894D02*
X263076D01*
X259676Y-29094D02*
X260276D01*
X259676Y-29194D02*
X260276D01*
X259676Y-29294D02*
X260276D01*
X259676Y-29394D02*
X260276D01*
X259576Y-28294D02*
X260276D01*
X259576Y-28194D02*
X260276D01*
X259576Y-28394D02*
X260276D01*
X262476Y-34894D02*
X263776D01*
X262376Y-34994D02*
X263376D01*
X262376Y-35094D02*
X263276D01*
X262476Y-30294D02*
X263076D01*
X262476Y-30394D02*
X263076D01*
X262476Y-30494D02*
X263076D01*
X262476Y-30594D02*
X263076D01*
X262476Y-30694D02*
X263076D01*
X262476Y-30794D02*
X263076D01*
X262476Y-30894D02*
X263076D01*
X262476Y-30994D02*
X263076D01*
X262476Y-31094D02*
X263076D01*
X262476Y-31194D02*
X263076D01*
X262476Y-31394D02*
X263076D01*
X262376Y-35194D02*
X263176D01*
X262476Y-31294D02*
X263076D01*
X262276Y-35294D02*
X263076D01*
X262276Y-35394D02*
X262976D01*
X262276Y-35494D02*
X262976D01*
X262276Y-35594D02*
X262976D01*
X262176Y-35794D02*
X262876D01*
X262176Y-35694D02*
X262876D01*
X260276Y-35594D02*
X260976D01*
X260276Y-35794D02*
X260976D01*
X260276Y-35694D02*
X260976D01*
X260276Y-35494D02*
X260976D01*
X260176Y-35394D02*
X260876D01*
X260176Y-35294D02*
X260876D01*
X260076Y-35194D02*
X260876D01*
X259876Y-35094D02*
X260776D01*
X259776Y-34994D02*
X260776D01*
X259376Y-34894D02*
X260676D01*
X259576Y-29694D02*
X260276D01*
X259576Y-29794D02*
X260276D01*
X259576Y-29494D02*
X260276D01*
X259576Y-29594D02*
X260276D01*
X259576Y-28094D02*
X260276D01*
X259476Y-29894D02*
X260176D01*
X259476Y-29994D02*
X260176D01*
X259476Y-27994D02*
X260176D01*
X259476Y-27894D02*
X260176D01*
X259376Y-30094D02*
X260176D01*
X259376Y-30194D02*
X260076D01*
X259276Y-30294D02*
X260076D01*
X259176Y-30394D02*
X259976D01*
X259076Y-30494D02*
X259976D01*
X258976Y-30594D02*
X259876D01*
X258876Y-30694D02*
X259776D01*
X256076Y-28594D02*
X260276D01*
X256076Y-28794D02*
X260276D01*
X256076Y-28494D02*
X260276D01*
X256076Y-28894D02*
X260276D01*
X256076Y-28694D02*
X260276D01*
X256076Y-28994D02*
X260276D01*
X256376Y-30394D02*
X256676D01*
X256276Y-30494D02*
X256776D01*
X256176Y-30594D02*
X256876D01*
X256176Y-27894D02*
X256776D01*
X256076Y-27994D02*
X256776D01*
X256076Y-28094D02*
X256776D01*
X256076Y-28194D02*
X256776D01*
X256076Y-28294D02*
X256776D01*
X256076Y-28394D02*
X256676D01*
X258776Y-30794D02*
X259776D01*
X258576Y-30894D02*
X259676D01*
X258376Y-34394D02*
X259876D01*
X258076Y-34494D02*
X260176D01*
X257776Y-34694D02*
X260476D01*
X257876Y-34594D02*
X260276D01*
X257576Y-34794D02*
X260576D01*
X258076Y-30994D02*
X259576D01*
X257576Y-34894D02*
X258876D01*
X256576Y-31094D02*
X259476D01*
X256776Y-31294D02*
X259176D01*
X257476Y-34994D02*
X258476D01*
X257276Y-31494D02*
X258676D01*
X256676Y-31194D02*
X259276D01*
X256976Y-31394D02*
X258976D01*
X257376Y-35094D02*
X258376D01*
X257376Y-35194D02*
X258176D01*
X257276Y-35294D02*
X258076D01*
X257276Y-35494D02*
X257976D01*
X257276Y-35394D02*
X257976D01*
X257176Y-35694D02*
X257876D01*
X257176Y-35794D02*
X257876D01*
X257176Y-35594D02*
X257876D01*
X257176Y-35894D02*
X257876D01*
X256476Y-30994D02*
X257876D01*
X256376Y-30894D02*
X257376D01*
X256276Y-30794D02*
X257176D01*
X256176Y-30694D02*
X256976D01*
X270876Y-35894D02*
X271576D01*
X272876Y-35994D02*
X273476D01*
X272876Y-36094D02*
X273476D01*
X270976D02*
X271676D01*
X272876Y-36194D02*
X273476D01*
X270976D02*
X271676D01*
X272876Y-36294D02*
X273476D01*
X270976D02*
X271676D01*
X272876Y-36394D02*
X273476D01*
X270976D02*
X271676D01*
X272876Y-36494D02*
X273476D01*
X271076D02*
X271676D01*
X272876Y-36594D02*
X273476D01*
X271076D02*
X271676D01*
X272876Y-36694D02*
X273476D01*
X271076D02*
X271776D01*
X272876Y-36794D02*
X273476D01*
X271076D02*
X271776D01*
X272876Y-36894D02*
X273476D01*
X271076D02*
X271776D01*
X272876Y-36994D02*
X273476D01*
X271076D02*
X271776D01*
X272876Y-37094D02*
X273476D01*
X271076D02*
X271776D01*
X272876Y-37194D02*
X273476D01*
X271076D02*
X271776D01*
X272876Y-37294D02*
X273476D01*
X271076D02*
X271676D01*
X272876Y-37394D02*
X273476D01*
X271076D02*
X271676D01*
X272876Y-37494D02*
X273476D01*
X271076D02*
X271676D01*
X267276Y-35894D02*
X267976D01*
X270876Y-35994D02*
X271576D01*
X267276D02*
X267976D01*
X267176Y-36094D02*
X267876D01*
X265476D02*
X266076D01*
X267176Y-36194D02*
X267876D01*
X265476D02*
X266076D01*
X267176Y-36294D02*
X267876D01*
X265476D02*
X266076D01*
X267176Y-36394D02*
X267876D01*
X265476D02*
X266076D01*
X265476Y-36494D02*
X266076D01*
X267176D02*
X267776D01*
X265476Y-36594D02*
X266076D01*
X267176D02*
X267776D01*
X265476Y-36694D02*
X266076D01*
X267176D02*
X267776D01*
X265476Y-36794D02*
X266076D01*
X267176D02*
X267776D01*
X265476Y-36894D02*
X266076D01*
X267176D02*
X267776D01*
X265476Y-36994D02*
X266076D01*
X267176D02*
X267776D01*
X265476Y-37094D02*
X266076D01*
X267176D02*
X267776D01*
X267176Y-37194D02*
X267776D01*
X265476D02*
X266076D01*
X267176Y-37294D02*
X267776D01*
X267176Y-37394D02*
X267776D01*
X265476D02*
X266076D01*
X267176Y-37494D02*
X267876D01*
X265476D02*
X266076D01*
X270976Y-37594D02*
X271676D01*
X272876D02*
X273476D01*
X270976Y-37694D02*
X271676D01*
X272876D02*
X273476D01*
X272876Y-37794D02*
X273476D01*
X270976D02*
X271676D01*
X270876Y-37894D02*
X271676D01*
X272876D02*
X273476D01*
X270876Y-37994D02*
X271576D01*
X272876D02*
X273476D01*
X270876Y-38094D02*
X271576D01*
X272876D02*
X273476D01*
X270776Y-38194D02*
X271576D01*
X272876D02*
X273476D01*
X270776Y-38294D02*
X271476D01*
X272876D02*
X273476D01*
X270676Y-38394D02*
X271476D01*
X272876D02*
X273476D01*
X272876Y-38494D02*
X273476D01*
X270576D02*
X271376D01*
X272876Y-38594D02*
X273476D01*
X270476D02*
X271376D01*
X272876Y-38694D02*
X273476D01*
X272876Y-38794D02*
X273476D01*
X272876Y-38894D02*
X273476D01*
X272876Y-38994D02*
X273476D01*
X272876Y-39094D02*
X273476D01*
X272876Y-39194D02*
X273476D01*
X272876Y-39294D02*
X273476D01*
X272876Y-39394D02*
X273476D01*
X272876Y-39494D02*
X273476D01*
X267176Y-37594D02*
X267876D01*
X267176Y-37694D02*
X267876D01*
X265476D02*
X266076D01*
X267176Y-37794D02*
X267876D01*
X265476D02*
X266076D01*
X267276Y-37894D02*
X267976D01*
X265476D02*
X266076D01*
X267276Y-37994D02*
X267976D01*
X267276Y-38094D02*
X267976D01*
X267376Y-38194D02*
X268076D01*
X267376Y-38294D02*
X268176D01*
X265476D02*
X266076D01*
X267376Y-38394D02*
X268176D01*
X265476D02*
X266076D01*
X267476Y-38494D02*
X268276D01*
X267476Y-38594D02*
X268376D01*
X270376Y-38694D02*
X271276D01*
X267576D02*
X268476D01*
X270276Y-38794D02*
X271176D01*
X267676D02*
X268576D01*
X270076Y-38894D02*
X271076D01*
X267776D02*
X268776D01*
X269776Y-38994D02*
X271076D01*
X267876D02*
X269076D01*
X267976Y-39094D02*
X270876D01*
X268076Y-39194D02*
X270776D01*
X268176Y-39294D02*
X270676D01*
X268376Y-39394D02*
X270476D01*
X265476D02*
X266076D01*
X268576Y-39494D02*
X270276D01*
X269076Y-39594D02*
X269876D01*
X265376Y-35894D02*
X266076D01*
X262176D02*
X262876D01*
X265376Y-35994D02*
X266076D01*
X262176D02*
X262876D01*
X262176Y-36094D02*
X262876D01*
X262176Y-36194D02*
X262876D01*
X262176Y-36294D02*
X262876D01*
X262176Y-36394D02*
X262876D01*
X262176Y-36494D02*
X262876D01*
X262176Y-36594D02*
X262876D01*
X262176Y-36694D02*
X262876D01*
X262176Y-36794D02*
X262876D01*
X262176Y-36894D02*
X262876D01*
X262176Y-36994D02*
X262876D01*
X262176Y-37094D02*
X262876D01*
X262176Y-37194D02*
X262876D01*
X265476Y-37294D02*
X266076D01*
X262176D02*
X262876D01*
X262176Y-37394D02*
X262876D01*
X262176Y-37494D02*
X262876D01*
X265476Y-37594D02*
X266076D01*
X262176D02*
X262876D01*
X262176Y-37694D02*
X262876D01*
X262176Y-37794D02*
X262876D01*
X262176Y-37894D02*
X262876D01*
X265476Y-37994D02*
X266076D01*
X262176D02*
X262876D01*
X265476Y-38094D02*
X266076D01*
X262176D02*
X262876D01*
X260476D02*
X261076D01*
X265476Y-38194D02*
X266076D01*
X262176D02*
X262876D01*
X260276Y-35894D02*
X260976D01*
X260176Y-35994D02*
X260876D01*
X260176Y-36094D02*
X260876D01*
X260076Y-36194D02*
X260876D01*
X259876Y-36294D02*
X260876D01*
X259676Y-36394D02*
X260776D01*
X259476Y-36494D02*
X260676D01*
X259076Y-36594D02*
X260576D01*
X258676Y-36694D02*
X260476D01*
X258376Y-36794D02*
X260376D01*
X258076Y-36894D02*
X260176D01*
X257876Y-36994D02*
X259876D01*
X257676Y-37094D02*
X259576D01*
X257576Y-37194D02*
X259176D01*
X257476Y-37294D02*
X258776D01*
X257376Y-37394D02*
X258476D01*
X257376Y-37494D02*
X258276D01*
X257276Y-37594D02*
X258176D01*
X257276Y-37694D02*
X258076D01*
X257176Y-37794D02*
X257976D01*
X257176Y-37894D02*
X257876D01*
X257176Y-37994D02*
X257876D01*
X257176Y-38094D02*
X257876D01*
X260376Y-38194D02*
X261076D01*
X257176D02*
X257876D01*
X260376Y-38294D02*
X261076D01*
X257176D02*
X257876D01*
X262176D02*
X262876D01*
X262176Y-38394D02*
X262876D01*
X260376D02*
X261076D01*
X265476Y-38494D02*
X266076D01*
X262176D02*
X262876D01*
X260276D02*
X261076D01*
X265476Y-38594D02*
X266076D01*
X262176D02*
X262876D01*
X260276D02*
X260976D01*
X265476Y-38694D02*
X266076D01*
X262176D02*
X262876D01*
X260176D02*
X260976D01*
X265476Y-38794D02*
X266076D01*
X262176D02*
X262876D01*
X259976D02*
X260876D01*
X265476Y-38894D02*
X266076D01*
X262176D02*
X262876D01*
X259876D02*
X260876D01*
X265476Y-38994D02*
X266076D01*
X262176D02*
X262876D01*
X259576D02*
X260776D01*
X265476Y-39094D02*
X266076D01*
X262176D02*
X262876D01*
X265476Y-39194D02*
X266076D01*
X262176D02*
X262876D01*
X257676D02*
X260576D01*
X265476Y-39294D02*
X266076D01*
X262176D02*
X262876D01*
X262176Y-39394D02*
X262876D01*
X265476Y-39494D02*
X266076D01*
X262176D02*
X262876D01*
X257176Y-38394D02*
X257876D01*
X257176Y-38494D02*
X257876D01*
X257276Y-38594D02*
X257976D01*
X257276Y-38694D02*
X258076D01*
X257276Y-38794D02*
X258176D01*
X257376Y-38894D02*
X258376D01*
X257476Y-38994D02*
X258676D01*
X257576Y-39094D02*
X260676D01*
X257776Y-39294D02*
X260376D01*
X257976Y-39394D02*
X260276D01*
X258176Y-39494D02*
X259976D01*
X258676Y-39594D02*
X259576D01*
M02*
