G04*
G04 #@! TF.GenerationSoftware,Altium Limited,Altium Designer,21.8.1 (53)*
G04*
G04 Layer_Physical_Order=4*
G04 Layer_Color=16711680*
%FSLAX25Y25*%
%MOIN*%
G70*
G04*
G04 #@! TF.SameCoordinates,D7649F9F-AB44-4DDD-A0E2-BCBC4CF329E9*
G04*
G04*
G04 #@! TF.FilePolarity,Positive*
G04*
G01*
G75*
%ADD10C,0.00787*%
%ADD11C,0.01000*%
%ADD19C,0.01181*%
%ADD106C,0.07874*%
%ADD113C,0.01968*%
%ADD115C,0.07874*%
%ADD116C,0.03150*%
%ADD117C,0.03543*%
%ADD118C,0.05906*%
%ADD119C,0.04724*%
%ADD121O,0.08268X0.04134*%
%ADD122C,0.02756*%
%ADD123R,0.05906X0.05906*%
%ADD124C,0.05906*%
%ADD125C,0.01968*%
%ADD126C,0.05118*%
%ADD127C,0.03937*%
%ADD128C,0.00100*%
G36*
X41274Y-49986D02*
X40852Y-50023D01*
X38960Y-50295D01*
X38909Y-50326D01*
X36682Y-48099D01*
X36713Y-48048D01*
X36745Y-47955D01*
X36777Y-47821D01*
X36844Y-47431D01*
X36949Y-46536D01*
X37022Y-45734D01*
X41274Y-49986D01*
D02*
G37*
G36*
X197244Y-55098D02*
X197132Y-54990D01*
X197019Y-54893D01*
X196905Y-54807D01*
X196790Y-54733D01*
X196674Y-54670D01*
X196557Y-54619D01*
X196439Y-54579D01*
X196321Y-54550D01*
X196201Y-54533D01*
X196081Y-54528D01*
Y-53740D01*
X196201Y-53734D01*
X196321Y-53717D01*
X196439Y-53689D01*
X196557Y-53649D01*
X196674Y-53597D01*
X196790Y-53535D01*
X196905Y-53460D01*
X197019Y-53375D01*
X197132Y-53278D01*
X197244Y-53169D01*
Y-55098D01*
D02*
G37*
G36*
X25020Y-52994D02*
X24752Y-53280D01*
X24512Y-53570D01*
X24300Y-53865D01*
X24117Y-54164D01*
X23963Y-54469D01*
X23838Y-54778D01*
X23741Y-55092D01*
X23673Y-55411D01*
X23633Y-55735D01*
X23622Y-56063D01*
X19724Y-52166D01*
X20053Y-52154D01*
X20376Y-52115D01*
X20695Y-52047D01*
X21009Y-51950D01*
X21318Y-51824D01*
X21623Y-51670D01*
X21923Y-51487D01*
X22218Y-51276D01*
X22508Y-51036D01*
X22793Y-50767D01*
X25020Y-52994D01*
D02*
G37*
G36*
X257593Y-57215D02*
X257706Y-57312D01*
X257820Y-57397D01*
X257935Y-57472D01*
X258051Y-57534D01*
X258168Y-57586D01*
X258285Y-57626D01*
X258404Y-57654D01*
X258523Y-57671D01*
X258643Y-57677D01*
Y-58465D01*
X258523Y-58470D01*
X258404Y-58487D01*
X258285Y-58516D01*
X258168Y-58556D01*
X258051Y-58607D01*
X257935Y-58670D01*
X257820Y-58744D01*
X257706Y-58830D01*
X257593Y-58927D01*
X257480Y-59035D01*
Y-57106D01*
X257593Y-57215D01*
D02*
G37*
G36*
X177545Y-66535D02*
X177389Y-66538D01*
X177240Y-66550D01*
X177099Y-66570D01*
X176965Y-66599D01*
X176839Y-66636D01*
X176720Y-66682D01*
X176609Y-66737D01*
X176505Y-66801D01*
X176408Y-66873D01*
X176319Y-66954D01*
X175762Y-66398D01*
X175843Y-66308D01*
X175916Y-66212D01*
X175979Y-66108D01*
X176034Y-65996D01*
X176081Y-65877D01*
X176118Y-65751D01*
X176147Y-65617D01*
X176167Y-65476D01*
X176178Y-65327D01*
X176181Y-65171D01*
X177545Y-66535D01*
D02*
G37*
G36*
X218222Y-66664D02*
X218336Y-66761D01*
X218450Y-66846D01*
X218565Y-66921D01*
X218681Y-66983D01*
X218797Y-67035D01*
X218915Y-67075D01*
X219034Y-67103D01*
X219153Y-67120D01*
X219273Y-67126D01*
Y-67913D01*
X219153Y-67919D01*
X219034Y-67936D01*
X218915Y-67965D01*
X218797Y-68005D01*
X218681Y-68056D01*
X218565Y-68119D01*
X218450Y-68193D01*
X218336Y-68279D01*
X218222Y-68376D01*
X218110Y-68484D01*
Y-66555D01*
X218222Y-66664D01*
D02*
G37*
G36*
X187470Y-68222D02*
X187373Y-68336D01*
X187288Y-68450D01*
X187213Y-68565D01*
X187151Y-68681D01*
X187099Y-68797D01*
X187059Y-68915D01*
X187031Y-69034D01*
X187014Y-69153D01*
X187008Y-69273D01*
X186221D01*
X186215Y-69153D01*
X186198Y-69034D01*
X186169Y-68915D01*
X186129Y-68797D01*
X186078Y-68681D01*
X186015Y-68565D01*
X185941Y-68450D01*
X185855Y-68336D01*
X185758Y-68222D01*
X185650Y-68110D01*
X187579D01*
X187470Y-68222D01*
D02*
G37*
G36*
X25020Y-66774D02*
X24752Y-67059D01*
X24512Y-67349D01*
X24300Y-67644D01*
X24117Y-67944D01*
X23963Y-68248D01*
X23838Y-68558D01*
X23741Y-68872D01*
X23673Y-69191D01*
X23633Y-69514D01*
X23622Y-69842D01*
X19724Y-65945D01*
X20053Y-65934D01*
X20376Y-65894D01*
X20695Y-65826D01*
X21009Y-65729D01*
X21318Y-65604D01*
X21623Y-65450D01*
X21923Y-65267D01*
X22218Y-65055D01*
X22508Y-64815D01*
X22793Y-64547D01*
X25020Y-66774D01*
D02*
G37*
G36*
X191648Y-70404D02*
X191761Y-70501D01*
X191875Y-70586D01*
X191990Y-70661D01*
X192106Y-70723D01*
X192223Y-70775D01*
X192340Y-70815D01*
X192459Y-70843D01*
X192578Y-70860D01*
X192699Y-70866D01*
Y-71653D01*
X192578Y-71659D01*
X192459Y-71676D01*
X192340Y-71705D01*
X192223Y-71745D01*
X192106Y-71796D01*
X191990Y-71859D01*
X191875Y-71933D01*
X191761Y-72019D01*
X191648Y-72116D01*
X191535Y-72224D01*
Y-70295D01*
X191648Y-70404D01*
D02*
G37*
G36*
X33201Y-68401D02*
X33316Y-68505D01*
X33472Y-68597D01*
X33669Y-68677D01*
X33906Y-68744D01*
X34184Y-68800D01*
X34502Y-68842D01*
X35261Y-68892D01*
X35702Y-68898D01*
X33119Y-73622D01*
X31197Y-73448D01*
X33126Y-68284D01*
X33201Y-68401D01*
D02*
G37*
G36*
X153218Y-73537D02*
X153121Y-73651D01*
X153036Y-73765D01*
X152961Y-73880D01*
X152899Y-73996D01*
X152847Y-74112D01*
X152807Y-74230D01*
X152779Y-74348D01*
X152762Y-74468D01*
X152756Y-74588D01*
X151969D01*
X151963Y-74468D01*
X151946Y-74348D01*
X151917Y-74230D01*
X151877Y-74112D01*
X151826Y-73996D01*
X151763Y-73880D01*
X151689Y-73765D01*
X151603Y-73651D01*
X151506Y-73537D01*
X151398Y-73425D01*
X153327D01*
X153218Y-73537D01*
D02*
G37*
G36*
X263416Y-75450D02*
X263513Y-75522D01*
X263617Y-75586D01*
X263728Y-75640D01*
X263847Y-75687D01*
X263973Y-75724D01*
X264107Y-75753D01*
X264248Y-75773D01*
X264397Y-75785D01*
X264553Y-75788D01*
X263189Y-77152D01*
X263186Y-76995D01*
X263175Y-76847D01*
X263155Y-76705D01*
X263126Y-76572D01*
X263088Y-76445D01*
X263042Y-76327D01*
X262987Y-76215D01*
X262924Y-76111D01*
X262851Y-76015D01*
X262770Y-75925D01*
X263327Y-75369D01*
X263416Y-75450D01*
D02*
G37*
G36*
X237077Y-76293D02*
X236980Y-76407D01*
X236894Y-76521D01*
X236820Y-76636D01*
X236757Y-76752D01*
X236705Y-76868D01*
X236666Y-76986D01*
X236637Y-77104D01*
X236620Y-77224D01*
X236614Y-77344D01*
X235827D01*
X235821Y-77224D01*
X235804Y-77104D01*
X235775Y-76986D01*
X235735Y-76868D01*
X235684Y-76752D01*
X235621Y-76636D01*
X235547Y-76521D01*
X235461Y-76407D01*
X235364Y-76293D01*
X235256Y-76181D01*
X237185D01*
X237077Y-76293D01*
D02*
G37*
G36*
X208664Y-76154D02*
X208676Y-76303D01*
X208696Y-76444D01*
X208724Y-76578D01*
X208762Y-76704D01*
X208808Y-76823D01*
X208863Y-76935D01*
X208927Y-77039D01*
X208999Y-77135D01*
X209080Y-77224D01*
X208523Y-77781D01*
X208434Y-77700D01*
X208338Y-77628D01*
X208234Y-77564D01*
X208122Y-77509D01*
X208003Y-77463D01*
X207877Y-77425D01*
X207743Y-77397D01*
X207602Y-77376D01*
X207453Y-77365D01*
X207297Y-77362D01*
X208661Y-75998D01*
X208664Y-76154D01*
D02*
G37*
G36*
X204136Y-76548D02*
X204148Y-76697D01*
X204168Y-76838D01*
X204197Y-76972D01*
X204235Y-77098D01*
X204281Y-77217D01*
X204336Y-77328D01*
X204399Y-77432D01*
X204472Y-77529D01*
X204553Y-77618D01*
X203996Y-78175D01*
X203907Y-78094D01*
X203810Y-78021D01*
X203706Y-77958D01*
X203595Y-77903D01*
X203476Y-77857D01*
X203349Y-77819D01*
X203216Y-77790D01*
X203075Y-77770D01*
X202926Y-77759D01*
X202770Y-77756D01*
X204134Y-76392D01*
X204136Y-76548D01*
D02*
G37*
G36*
X223537Y-77490D02*
X223651Y-77587D01*
X223765Y-77673D01*
X223880Y-77747D01*
X223996Y-77810D01*
X224112Y-77861D01*
X224230Y-77901D01*
X224348Y-77930D01*
X224468Y-77947D01*
X224588Y-77953D01*
Y-78740D01*
X224468Y-78746D01*
X224348Y-78763D01*
X224230Y-78791D01*
X224112Y-78831D01*
X223996Y-78883D01*
X223880Y-78946D01*
X223765Y-79020D01*
X223651Y-79106D01*
X223537Y-79203D01*
X223425Y-79311D01*
Y-77382D01*
X223537Y-77490D01*
D02*
G37*
G36*
X24304Y-79382D02*
X24020Y-79684D01*
X23776Y-79978D01*
X23574Y-80266D01*
X23412Y-80547D01*
X23291Y-80822D01*
X23210Y-81090D01*
X23171Y-81351D01*
X23172Y-81605D01*
X23214Y-81853D01*
X23297Y-82094D01*
X18190Y-80019D01*
X18356Y-79942D01*
X18537Y-79840D01*
X18733Y-79714D01*
X19172Y-79387D01*
X19671Y-78962D01*
X20535Y-78140D01*
X24304Y-79382D01*
D02*
G37*
G36*
X226840Y-83774D02*
X226743Y-83887D01*
X226658Y-84001D01*
X226584Y-84116D01*
X226521Y-84232D01*
X226469Y-84349D01*
X226429Y-84466D01*
X226401Y-84585D01*
X226384Y-84704D01*
X226378Y-84825D01*
X225590D01*
X225585Y-84704D01*
X225568Y-84585D01*
X225539Y-84466D01*
X225499Y-84349D01*
X225448Y-84232D01*
X225385Y-84116D01*
X225311Y-84001D01*
X225225Y-83887D01*
X225128Y-83774D01*
X225020Y-83661D01*
X226949D01*
X226840Y-83774D01*
D02*
G37*
G36*
X36370Y-84455D02*
X34452Y-87548D01*
X34146Y-87257D01*
X33855Y-87012D01*
X33579Y-86811D01*
X33318Y-86656D01*
X33071Y-86546D01*
X32840Y-86481D01*
X32623Y-86461D01*
X32422Y-86487D01*
X32235Y-86557D01*
X32063Y-86673D01*
X32836Y-81528D01*
X36370Y-84455D01*
D02*
G37*
G36*
X123537Y-86742D02*
X123651Y-86839D01*
X123765Y-86925D01*
X123880Y-86999D01*
X123996Y-87062D01*
X124112Y-87113D01*
X124230Y-87153D01*
X124348Y-87182D01*
X124468Y-87199D01*
X124588Y-87205D01*
Y-87992D01*
X124468Y-87998D01*
X124348Y-88015D01*
X124230Y-88043D01*
X124112Y-88083D01*
X123996Y-88135D01*
X123880Y-88198D01*
X123765Y-88272D01*
X123651Y-88358D01*
X123537Y-88455D01*
X123425Y-88563D01*
Y-86634D01*
X123537Y-86742D01*
D02*
G37*
G36*
X24565Y-93491D02*
X24283Y-93791D01*
X24038Y-94086D01*
X23831Y-94377D01*
X23662Y-94664D01*
X23532Y-94946D01*
X23439Y-95223D01*
X23385Y-95496D01*
X23369Y-95765D01*
X23390Y-96030D01*
X23450Y-96290D01*
X18609Y-93654D01*
X18832Y-93580D01*
X19063Y-93482D01*
X19302Y-93360D01*
X19550Y-93214D01*
X19806Y-93044D01*
X20342Y-92633D01*
X20623Y-92391D01*
X21209Y-91836D01*
X24565Y-93491D01*
D02*
G37*
G36*
X39880Y-97990D02*
X36104D01*
X36126Y-97939D01*
X36146Y-97848D01*
X36163Y-97716D01*
X36191Y-97332D01*
X36220Y-95669D01*
X39764D01*
X39880Y-97990D01*
D02*
G37*
G36*
X199478Y-99915D02*
X199381Y-100029D01*
X199295Y-100143D01*
X199221Y-100258D01*
X199159Y-100374D01*
X199107Y-100490D01*
X199067Y-100608D01*
X199039Y-100726D01*
X199021Y-100846D01*
X199016Y-100966D01*
X198228D01*
X198223Y-100846D01*
X198205Y-100726D01*
X198177Y-100608D01*
X198137Y-100490D01*
X198086Y-100374D01*
X198023Y-100258D01*
X197949Y-100143D01*
X197863Y-100029D01*
X197766Y-99915D01*
X197658Y-99803D01*
X199587D01*
X199478Y-99915D01*
D02*
G37*
G36*
X33039Y-99274D02*
X33040Y-99422D01*
X33080Y-99591D01*
X33158Y-99781D01*
X33274Y-99993D01*
X33428Y-100224D01*
X33620Y-100478D01*
X34120Y-101047D01*
X34428Y-101363D01*
X30867Y-104484D01*
X27940Y-101044D01*
X33076Y-99147D01*
X33039Y-99274D01*
D02*
G37*
G36*
X195147Y-105624D02*
X195050Y-105737D01*
X194965Y-105851D01*
X194891Y-105966D01*
X194828Y-106082D01*
X194776Y-106199D01*
X194736Y-106317D01*
X194708Y-106435D01*
X194691Y-106555D01*
X194685Y-106675D01*
X193898D01*
X193892Y-106555D01*
X193875Y-106435D01*
X193846Y-106317D01*
X193806Y-106199D01*
X193755Y-106082D01*
X193692Y-105966D01*
X193618Y-105851D01*
X193532Y-105737D01*
X193435Y-105624D01*
X193327Y-105512D01*
X195256D01*
X195147Y-105624D01*
D02*
G37*
G36*
X254898Y-107164D02*
X254996Y-107235D01*
X255100Y-107294D01*
X255209Y-107340D01*
X255323Y-107373D01*
X255443Y-107393D01*
X255568Y-107401D01*
X255698Y-107396D01*
X255833Y-107378D01*
X255974Y-107347D01*
X254978Y-109000D01*
X254937Y-108838D01*
X254843Y-108541D01*
X254790Y-108406D01*
X254673Y-108162D01*
X254609Y-108054D01*
X254540Y-107954D01*
X254469Y-107863D01*
X254393Y-107781D01*
X254805Y-107079D01*
X254898Y-107164D01*
D02*
G37*
G36*
X258312Y-114325D02*
X258194Y-114300D01*
X258078Y-114288D01*
X257964Y-114290D01*
X257852Y-114304D01*
X257743Y-114331D01*
X257635Y-114371D01*
X257529Y-114424D01*
X257426Y-114490D01*
X257325Y-114568D01*
X257225Y-114660D01*
X256711Y-113760D01*
X256800Y-113667D01*
X256882Y-113570D01*
X256959Y-113470D01*
X257029Y-113366D01*
X257093Y-113258D01*
X257151Y-113147D01*
X257203Y-113033D01*
X257249Y-112916D01*
X257288Y-112794D01*
X257322Y-112670D01*
X258312Y-114325D01*
D02*
G37*
G36*
X127978Y-113524D02*
X127897Y-113613D01*
X127824Y-113709D01*
X127761Y-113813D01*
X127706Y-113925D01*
X127660Y-114044D01*
X127622Y-114170D01*
X127593Y-114304D01*
X127573Y-114445D01*
X127562Y-114594D01*
X127559Y-114750D01*
X126195Y-113386D01*
X126351Y-113383D01*
X126500Y-113372D01*
X126641Y-113352D01*
X126775Y-113323D01*
X126901Y-113285D01*
X127020Y-113239D01*
X127131Y-113184D01*
X127235Y-113120D01*
X127332Y-113048D01*
X127421Y-112967D01*
X127978Y-113524D01*
D02*
G37*
G36*
X253144Y-113494D02*
X253242Y-113573D01*
X253344Y-113642D01*
X253450Y-113703D01*
X253560Y-113754D01*
X253675Y-113796D01*
X253794Y-113828D01*
X253918Y-113851D01*
X254046Y-113865D01*
X254178Y-113870D01*
Y-114870D01*
X254046Y-114875D01*
X253918Y-114889D01*
X253794Y-114912D01*
X253675Y-114944D01*
X253560Y-114986D01*
X253450Y-115037D01*
X253344Y-115098D01*
X253242Y-115167D01*
X253144Y-115246D01*
X253051Y-115335D01*
Y-113406D01*
X253144Y-113494D01*
D02*
G37*
G36*
X212798Y-114146D02*
X212809Y-114295D01*
X212830Y-114436D01*
X212858Y-114570D01*
X212896Y-114696D01*
X212942Y-114815D01*
X212997Y-114927D01*
X213061Y-115031D01*
X213133Y-115127D01*
X213214Y-115216D01*
X212657Y-115773D01*
X212568Y-115692D01*
X212472Y-115620D01*
X212368Y-115556D01*
X212256Y-115501D01*
X212137Y-115455D01*
X212011Y-115418D01*
X211877Y-115389D01*
X211736Y-115368D01*
X211587Y-115357D01*
X211431Y-115354D01*
X212795Y-113990D01*
X212798Y-114146D01*
D02*
G37*
G36*
X216604Y-115270D02*
X216507Y-115383D01*
X216422Y-115497D01*
X216347Y-115612D01*
X216284Y-115728D01*
X216233Y-115845D01*
X216193Y-115962D01*
X216165Y-116081D01*
X216147Y-116200D01*
X216142Y-116321D01*
X215354D01*
X215349Y-116200D01*
X215332Y-116081D01*
X215303Y-115962D01*
X215263Y-115845D01*
X215212Y-115728D01*
X215149Y-115612D01*
X215075Y-115497D01*
X214989Y-115383D01*
X214892Y-115270D01*
X214784Y-115157D01*
X216713Y-115157D01*
X216604Y-115270D01*
D02*
G37*
G36*
X209243Y-114914D02*
X209414Y-115343D01*
X209476Y-115468D01*
X209606Y-115691D01*
X209675Y-115788D01*
X209746Y-115877D01*
X209820Y-115956D01*
X209450Y-116699D01*
X209356Y-116614D01*
X209257Y-116543D01*
X209154Y-116486D01*
X209046Y-116442D01*
X208934Y-116412D01*
X208817Y-116395D01*
X208696Y-116393D01*
X208570Y-116403D01*
X208440Y-116428D01*
X208305Y-116466D01*
X209191Y-114753D01*
X209243Y-114914D01*
D02*
G37*
G36*
X154793Y-117435D02*
X154696Y-117548D01*
X154610Y-117662D01*
X154536Y-117777D01*
X154473Y-117893D01*
X154422Y-118010D01*
X154382Y-118128D01*
X154353Y-118246D01*
X154336Y-118366D01*
X154331Y-118486D01*
X153543D01*
X153538Y-118366D01*
X153521Y-118246D01*
X153492Y-118128D01*
X153452Y-118010D01*
X153401Y-117893D01*
X153338Y-117777D01*
X153264Y-117662D01*
X153178Y-117548D01*
X153081Y-117435D01*
X152972Y-117323D01*
X154902D01*
X154793Y-117435D01*
D02*
G37*
G36*
X188583Y-119272D02*
X188470Y-119163D01*
X188357Y-119066D01*
X188243Y-118981D01*
X188128Y-118906D01*
X188012Y-118843D01*
X187896Y-118792D01*
X187778Y-118752D01*
X187659Y-118724D01*
X187540Y-118707D01*
X187420Y-118701D01*
Y-117913D01*
X187540Y-117908D01*
X187659Y-117891D01*
X187778Y-117862D01*
X187896Y-117822D01*
X188012Y-117771D01*
X188128Y-117708D01*
X188243Y-117634D01*
X188357Y-117548D01*
X188470Y-117451D01*
X188583Y-117342D01*
Y-119272D01*
D02*
G37*
G36*
X207711Y-120058D02*
X207616Y-120046D01*
X207521Y-120046D01*
X207426Y-120056D01*
X207332Y-120078D01*
X207238Y-120110D01*
X207145Y-120153D01*
X207051Y-120206D01*
X206959Y-120271D01*
X206866Y-120346D01*
X206774Y-120433D01*
X206218Y-119876D01*
X206304Y-119784D01*
X206380Y-119692D01*
X206444Y-119599D01*
X206498Y-119506D01*
X206541Y-119413D01*
X206573Y-119319D01*
X206594Y-119224D01*
X206605Y-119130D01*
X206604Y-119035D01*
X206593Y-118939D01*
X207711Y-120058D01*
D02*
G37*
G36*
X23625Y-125625D02*
X23690Y-126670D01*
X23752Y-127129D01*
X23833Y-127547D01*
X23933Y-127922D01*
X24052Y-128256D01*
X24190Y-128548D01*
X24348Y-128797D01*
X24525Y-129005D01*
X23690Y-129840D01*
X23482Y-129663D01*
X23233Y-129505D01*
X22941Y-129367D01*
X22607Y-129247D01*
X22232Y-129148D01*
X21814Y-129067D01*
X21355Y-129005D01*
X20310Y-128940D01*
X19724Y-128937D01*
X23622Y-125039D01*
X23625Y-125625D01*
D02*
G37*
G36*
X129159Y-130059D02*
X129078Y-130148D01*
X129006Y-130245D01*
X128942Y-130349D01*
X128887Y-130460D01*
X128841Y-130579D01*
X128803Y-130706D01*
X128774Y-130839D01*
X128754Y-130981D01*
X128743Y-131129D01*
X128740Y-131285D01*
X127376Y-129921D01*
X127532Y-129919D01*
X127681Y-129907D01*
X127822Y-129887D01*
X127956Y-129858D01*
X128082Y-129821D01*
X128201Y-129774D01*
X128313Y-129719D01*
X128417Y-129656D01*
X128513Y-129584D01*
X128602Y-129502D01*
X129159Y-130059D01*
D02*
G37*
G36*
X77171Y-135768D02*
X77188Y-135888D01*
X77217Y-136006D01*
X77257Y-136124D01*
X77308Y-136241D01*
X77371Y-136356D01*
X77445Y-136471D01*
X77531Y-136586D01*
X77628Y-136699D01*
X77736Y-136811D01*
X75807D01*
X75915Y-136699D01*
X76013Y-136586D01*
X76098Y-136471D01*
X76172Y-136356D01*
X76235Y-136241D01*
X76287Y-136124D01*
X76327Y-136006D01*
X76355Y-135888D01*
X76372Y-135768D01*
X76378Y-135648D01*
X77165D01*
X77171Y-135768D01*
D02*
G37*
G36*
X160384Y-143221D02*
X160253Y-143125D01*
X159995Y-142964D01*
X159869Y-142898D01*
X159745Y-142843D01*
X159622Y-142797D01*
X159501Y-142762D01*
X159382Y-142737D01*
X159265Y-142722D01*
X159149Y-142717D01*
X159030Y-141929D01*
X159153Y-141923D01*
X159274Y-141904D01*
X159390Y-141874D01*
X159503Y-141830D01*
X159613Y-141775D01*
X159719Y-141707D01*
X159822Y-141627D01*
X159921Y-141534D01*
X160017Y-141429D01*
X160109Y-141312D01*
X160384Y-143221D01*
D02*
G37*
G36*
X154246Y-141467D02*
X154359Y-141564D01*
X154473Y-141649D01*
X154588Y-141724D01*
X154704Y-141786D01*
X154821Y-141838D01*
X154939Y-141878D01*
X155057Y-141906D01*
X155177Y-141923D01*
X155297Y-141929D01*
Y-142717D01*
X155177Y-142722D01*
X155057Y-142739D01*
X154939Y-142768D01*
X154821Y-142808D01*
X154704Y-142859D01*
X154588Y-142922D01*
X154473Y-142996D01*
X154359Y-143082D01*
X154246Y-143179D01*
X154134Y-143287D01*
Y-141358D01*
X154246Y-141467D01*
D02*
G37*
G36*
X23625Y-139404D02*
X23690Y-140449D01*
X23752Y-140909D01*
X23833Y-141326D01*
X23933Y-141702D01*
X24052Y-142036D01*
X24190Y-142327D01*
X24348Y-142577D01*
X24525Y-142785D01*
X23690Y-143620D01*
X23482Y-143443D01*
X23233Y-143285D01*
X22941Y-143146D01*
X22607Y-143027D01*
X22232Y-142927D01*
X21814Y-142846D01*
X21355Y-142785D01*
X20310Y-142720D01*
X19724Y-142716D01*
X23622Y-138819D01*
X23625Y-139404D01*
D02*
G37*
G36*
X87441Y-143884D02*
X87543Y-143970D01*
X87646Y-144046D01*
X87749Y-144112D01*
X87852Y-144168D01*
X87955Y-144213D01*
X88059Y-144248D01*
X88163Y-144273D01*
X88267Y-144287D01*
X88372Y-144291D01*
X87008Y-145656D01*
X87004Y-145551D01*
X86989Y-145447D01*
X86965Y-145343D01*
X86930Y-145239D01*
X86884Y-145135D01*
X86829Y-145032D01*
X86763Y-144929D01*
X86687Y-144826D01*
X86600Y-144724D01*
X86503Y-144622D01*
X87339Y-143787D01*
X87441Y-143884D01*
D02*
G37*
G36*
X150109Y-144951D02*
X150186Y-145061D01*
X150269Y-145157D01*
X150358Y-145241D01*
X150454Y-145312D01*
X150556Y-145370D01*
X150663Y-145415D01*
X150777Y-145447D01*
X150897Y-145466D01*
X151024Y-145472D01*
X150777Y-146260D01*
X150667Y-146264D01*
X150554Y-146277D01*
X150436Y-146298D01*
X150313Y-146327D01*
X150187Y-146364D01*
X149920Y-146465D01*
X149780Y-146527D01*
X149486Y-146678D01*
X150038Y-144829D01*
X150109Y-144951D01*
D02*
G37*
G36*
X160827Y-146831D02*
X160715Y-146722D01*
X160601Y-146625D01*
X160487Y-146540D01*
X160372Y-146465D01*
X160256Y-146403D01*
X160140Y-146351D01*
X160022Y-146311D01*
X159903Y-146283D01*
X159784Y-146266D01*
X159664Y-146260D01*
Y-145472D01*
X159784Y-145467D01*
X159903Y-145450D01*
X160022Y-145421D01*
X160140Y-145381D01*
X160256Y-145330D01*
X160372Y-145267D01*
X160487Y-145193D01*
X160601Y-145107D01*
X160715Y-145010D01*
X160827Y-144902D01*
Y-146831D01*
D02*
G37*
G36*
X170872Y-146004D02*
X170889Y-146124D01*
X170917Y-146242D01*
X170958Y-146360D01*
X171009Y-146477D01*
X171072Y-146593D01*
X171146Y-146708D01*
X171231Y-146822D01*
X171328Y-146935D01*
X171437Y-147047D01*
X169508D01*
X169616Y-146935D01*
X169713Y-146822D01*
X169799Y-146708D01*
X169873Y-146593D01*
X169936Y-146477D01*
X169987Y-146360D01*
X170027Y-146242D01*
X170056Y-146124D01*
X170073Y-146004D01*
X170079Y-145884D01*
X170866D01*
X170872Y-146004D01*
D02*
G37*
G36*
X83504Y-145458D02*
X83606Y-145545D01*
X83709Y-145621D01*
X83812Y-145687D01*
X83915Y-145743D01*
X84018Y-145788D01*
X84122Y-145823D01*
X84226Y-145848D01*
X84330Y-145862D01*
X84435Y-145866D01*
X83071Y-147230D01*
X83067Y-147126D01*
X83052Y-147021D01*
X83028Y-146917D01*
X82993Y-146814D01*
X82947Y-146710D01*
X82892Y-146607D01*
X82826Y-146504D01*
X82750Y-146401D01*
X82663Y-146299D01*
X82566Y-146197D01*
X83401Y-145362D01*
X83504Y-145458D01*
D02*
G37*
G36*
X222269Y-146201D02*
X222188Y-146290D01*
X222116Y-146387D01*
X222052Y-146491D01*
X221997Y-146602D01*
X221951Y-146721D01*
X221914Y-146847D01*
X221885Y-146981D01*
X221865Y-147122D01*
X221853Y-147271D01*
X221850Y-147427D01*
X220486Y-146063D01*
X220642Y-146060D01*
X220791Y-146049D01*
X220932Y-146029D01*
X221066Y-146000D01*
X221192Y-145962D01*
X221311Y-145916D01*
X221423Y-145861D01*
X221527Y-145798D01*
X221623Y-145725D01*
X221712Y-145644D01*
X222269Y-146201D01*
D02*
G37*
G36*
X181762Y-146963D02*
X181665Y-147076D01*
X181579Y-147190D01*
X181505Y-147305D01*
X181442Y-147421D01*
X181391Y-147538D01*
X181351Y-147655D01*
X181322Y-147774D01*
X181305Y-147893D01*
X181299Y-148013D01*
X180512D01*
X180506Y-147893D01*
X180489Y-147774D01*
X180460Y-147655D01*
X180420Y-147538D01*
X180369Y-147421D01*
X180306Y-147305D01*
X180232Y-147190D01*
X180147Y-147076D01*
X180049Y-146963D01*
X179941Y-146850D01*
X181870D01*
X181762Y-146963D01*
D02*
G37*
G36*
X204336Y-153682D02*
X204353Y-153801D01*
X204382Y-153920D01*
X204422Y-154037D01*
X204473Y-154154D01*
X204536Y-154270D01*
X204610Y-154385D01*
X204696Y-154499D01*
X204793Y-154612D01*
X204902Y-154725D01*
X202972D01*
X203081Y-154612D01*
X203178Y-154499D01*
X203264Y-154385D01*
X203338Y-154270D01*
X203401Y-154154D01*
X203452Y-154037D01*
X203492Y-153920D01*
X203520Y-153801D01*
X203538Y-153682D01*
X203543Y-153561D01*
X204331D01*
X204336Y-153682D01*
D02*
G37*
G36*
X77868Y-153770D02*
X77981Y-153867D01*
X78095Y-153953D01*
X78210Y-154027D01*
X78326Y-154090D01*
X78443Y-154141D01*
X78561Y-154181D01*
X78679Y-154209D01*
X78799Y-154227D01*
X78919Y-154232D01*
Y-155020D01*
X78799Y-155025D01*
X78679Y-155043D01*
X78561Y-155071D01*
X78443Y-155111D01*
X78326Y-155162D01*
X78210Y-155225D01*
X78095Y-155299D01*
X77981Y-155385D01*
X77868Y-155482D01*
X77756Y-155591D01*
Y-153661D01*
X77868Y-153770D01*
D02*
G37*
G36*
X172471Y-154190D02*
X172568Y-154262D01*
X172672Y-154326D01*
X172783Y-154381D01*
X172902Y-154427D01*
X173028Y-154464D01*
X173162Y-154493D01*
X173303Y-154513D01*
X173452Y-154525D01*
X173608Y-154528D01*
X172244Y-155892D01*
X172241Y-155736D01*
X172230Y-155587D01*
X172210Y-155446D01*
X172181Y-155312D01*
X172143Y-155185D01*
X172097Y-155067D01*
X172042Y-154955D01*
X171979Y-154851D01*
X171906Y-154755D01*
X171825Y-154666D01*
X172382Y-154109D01*
X172471Y-154190D01*
D02*
G37*
G36*
X23625Y-153184D02*
X23690Y-154229D01*
X23752Y-154688D01*
X23833Y-155106D01*
X23933Y-155482D01*
X24052Y-155815D01*
X24190Y-156107D01*
X24348Y-156357D01*
X24525Y-156564D01*
X23690Y-157399D01*
X23482Y-157222D01*
X23233Y-157064D01*
X22941Y-156926D01*
X22607Y-156807D01*
X22232Y-156707D01*
X21814Y-156626D01*
X21355Y-156564D01*
X20310Y-156500D01*
X19724Y-156496D01*
X23622Y-152598D01*
X23625Y-153184D01*
D02*
G37*
G36*
X225025Y-159784D02*
X224944Y-159873D01*
X224872Y-159969D01*
X224808Y-160073D01*
X224753Y-160185D01*
X224707Y-160304D01*
X224669Y-160430D01*
X224641Y-160564D01*
X224620Y-160705D01*
X224609Y-160854D01*
X224606Y-161010D01*
X223242Y-159646D01*
X223398Y-159643D01*
X223547Y-159632D01*
X223688Y-159611D01*
X223822Y-159582D01*
X223948Y-159545D01*
X224067Y-159499D01*
X224179Y-159444D01*
X224283Y-159380D01*
X224379Y-159308D01*
X224468Y-159227D01*
X225025Y-159784D01*
D02*
G37*
G36*
X83071Y-165728D02*
X82994Y-165657D01*
X82910Y-165594D01*
X82819Y-165538D01*
X82721Y-165489D01*
X82616Y-165448D01*
X82503Y-165414D01*
X82384Y-165388D01*
X82258Y-165369D01*
X82124Y-165358D01*
X81983Y-165354D01*
Y-164173D01*
X82124Y-164170D01*
X82258Y-164158D01*
X82384Y-164140D01*
X82503Y-164113D01*
X82616Y-164080D01*
X82721Y-164039D01*
X82819Y-163990D01*
X82910Y-163934D01*
X82994Y-163870D01*
X83071Y-163799D01*
Y-165728D01*
D02*
G37*
G36*
X312210Y-167855D02*
X312228Y-167974D01*
X312256Y-168093D01*
X312296Y-168210D01*
X312347Y-168327D01*
X312410Y-168443D01*
X312485Y-168558D01*
X312570Y-168672D01*
X312667Y-168786D01*
X312776Y-168898D01*
X310846D01*
X310955Y-168786D01*
X311052Y-168672D01*
X311138Y-168558D01*
X311212Y-168443D01*
X311275Y-168327D01*
X311326Y-168210D01*
X311366Y-168093D01*
X311395Y-167974D01*
X311412Y-167855D01*
X311417Y-167735D01*
X312205D01*
X312210Y-167855D01*
D02*
G37*
G36*
X23625Y-166987D02*
X23742Y-168540D01*
X23818Y-168967D01*
X23912Y-169348D01*
X24024Y-169684D01*
X24155Y-169974D01*
X24303Y-170218D01*
X24470Y-170417D01*
X23763Y-171124D01*
X23564Y-170957D01*
X23320Y-170808D01*
X23030Y-170678D01*
X22695Y-170566D01*
X22313Y-170472D01*
X21887Y-170396D01*
X21415Y-170338D01*
X20333Y-170278D01*
X19724Y-170275D01*
X23622Y-166378D01*
X23625Y-166987D01*
D02*
G37*
G36*
X77868Y-170994D02*
X77981Y-171091D01*
X78095Y-171177D01*
X78210Y-171251D01*
X78326Y-171314D01*
X78443Y-171365D01*
X78561Y-171405D01*
X78679Y-171434D01*
X78799Y-171451D01*
X78919Y-171457D01*
Y-172244D01*
X78799Y-172250D01*
X78679Y-172267D01*
X78561Y-172295D01*
X78443Y-172335D01*
X78326Y-172387D01*
X78210Y-172450D01*
X78095Y-172524D01*
X77981Y-172609D01*
X77868Y-172706D01*
X77756Y-172815D01*
Y-170886D01*
X77868Y-170994D01*
D02*
G37*
G36*
X266344Y-174942D02*
X266361Y-175061D01*
X266390Y-175179D01*
X266430Y-175297D01*
X266481Y-175414D01*
X266544Y-175530D01*
X266618Y-175645D01*
X266704Y-175759D01*
X266801Y-175872D01*
X266910Y-175984D01*
X264980D01*
X265089Y-175872D01*
X265186Y-175759D01*
X265271Y-175645D01*
X265346Y-175530D01*
X265408Y-175414D01*
X265460Y-175297D01*
X265500Y-175179D01*
X265528Y-175061D01*
X265546Y-174942D01*
X265551Y-174821D01*
X266339D01*
X266344Y-174942D01*
D02*
G37*
G36*
X253347Y-182658D02*
X253234Y-182549D01*
X253121Y-182452D01*
X253007Y-182366D01*
X252892Y-182292D01*
X252776Y-182229D01*
X252659Y-182178D01*
X252542Y-182138D01*
X252423Y-182109D01*
X252304Y-182092D01*
X252183Y-182087D01*
Y-181299D01*
X252304Y-181293D01*
X252423Y-181276D01*
X252542Y-181248D01*
X252659Y-181208D01*
X252776Y-181157D01*
X252892Y-181094D01*
X253007Y-181019D01*
X253121Y-180934D01*
X253234Y-180837D01*
X253347Y-180728D01*
Y-182658D01*
D02*
G37*
G36*
X83013Y-181709D02*
X83113Y-181789D01*
X83217Y-181860D01*
X83324Y-181921D01*
X83435Y-181973D01*
X83549Y-182015D01*
X83667Y-182047D01*
X83788Y-182070D01*
X83913Y-182083D01*
X84041Y-182087D01*
X82677Y-183451D01*
X82674Y-183322D01*
X82661Y-183198D01*
X82638Y-183076D01*
X82605Y-182958D01*
X82563Y-182844D01*
X82512Y-182734D01*
X82450Y-182626D01*
X82380Y-182522D01*
X82299Y-182422D01*
X82209Y-182325D01*
X82916Y-181618D01*
X83013Y-181709D01*
D02*
G37*
G36*
X259848Y-182816D02*
X259865Y-182935D01*
X259894Y-183054D01*
X259934Y-183171D01*
X259985Y-183288D01*
X260048Y-183404D01*
X260122Y-183519D01*
X260208Y-183633D01*
X260305Y-183746D01*
X260413Y-183859D01*
X258484D01*
X258593Y-183746D01*
X258690Y-183633D01*
X258775Y-183519D01*
X258850Y-183404D01*
X258912Y-183288D01*
X258964Y-183171D01*
X259004Y-183054D01*
X259032Y-182935D01*
X259049Y-182816D01*
X259055Y-182695D01*
X259842D01*
X259848Y-182816D01*
D02*
G37*
G36*
X23625Y-180766D02*
X23742Y-182320D01*
X23818Y-182747D01*
X23912Y-183128D01*
X24024Y-183463D01*
X24155Y-183753D01*
X24303Y-183997D01*
X24470Y-184196D01*
X23763Y-184903D01*
X23564Y-184737D01*
X23320Y-184588D01*
X23030Y-184457D01*
X22695Y-184345D01*
X22313Y-184251D01*
X21887Y-184176D01*
X21415Y-184118D01*
X20333Y-184058D01*
X19724Y-184055D01*
X23622Y-180157D01*
X23625Y-180766D01*
D02*
G37*
G36*
X77868Y-188219D02*
X77981Y-188316D01*
X78095Y-188401D01*
X78210Y-188476D01*
X78326Y-188538D01*
X78443Y-188590D01*
X78561Y-188630D01*
X78679Y-188658D01*
X78799Y-188675D01*
X78919Y-188681D01*
Y-189469D01*
X78799Y-189474D01*
X78679Y-189491D01*
X78561Y-189520D01*
X78443Y-189560D01*
X78326Y-189611D01*
X78210Y-189674D01*
X78095Y-189748D01*
X77981Y-189834D01*
X77868Y-189931D01*
X77756Y-190039D01*
Y-188110D01*
X77868Y-188219D01*
D02*
G37*
G36*
X62795Y-209842D02*
X64963D01*
X65135Y-210039D01*
X65223Y-210707D01*
X65481Y-211330D01*
X65891Y-211864D01*
X66426Y-212275D01*
X67049Y-212532D01*
X67716Y-212620D01*
X68385Y-212532D01*
X69007Y-212275D01*
X69542Y-211864D01*
X69952Y-211330D01*
X70210Y-210707D01*
X70298Y-210039D01*
X70470Y-209842D01*
X98322D01*
X98507Y-210236D01*
X98294Y-210749D01*
X98206Y-211417D01*
X98294Y-212085D01*
X98552Y-212708D01*
X98962Y-213243D01*
X99497Y-213653D01*
X100119Y-213911D01*
X100787Y-213999D01*
X101455Y-213911D01*
X102078Y-213653D01*
X102612Y-213243D01*
X103023Y-212708D01*
X103281Y-212085D01*
X103368Y-211417D01*
X103281Y-210749D01*
X103068Y-210236D01*
X103253Y-209842D01*
X129331D01*
X136614Y-202559D01*
X154921D01*
X157480Y-205118D01*
Y-217913D01*
X152559Y-222835D01*
X10827D01*
X4528Y-216535D01*
Y-196260D01*
X12205Y-188583D01*
X19337D01*
X19363Y-188976D01*
X18400Y-189103D01*
X17203Y-189599D01*
X16648Y-190025D01*
X20103Y-193480D01*
X23558Y-196935D01*
X23984Y-196379D01*
X24287Y-195648D01*
X24713D01*
X25057Y-196479D01*
X25877Y-197548D01*
X26946Y-198368D01*
X28192Y-198884D01*
X29528Y-199060D01*
X30864Y-198884D01*
X32109Y-198368D01*
X33178Y-197548D01*
X33998Y-196479D01*
X34514Y-195234D01*
X34690Y-193898D01*
X34514Y-192562D01*
X33998Y-191316D01*
X33178Y-190247D01*
X32109Y-189427D01*
X31021Y-188976D01*
X31099Y-188583D01*
X41535D01*
X62795Y-209842D01*
D02*
G37*
G36*
X83071Y-202933D02*
X82978Y-202845D01*
X82880Y-202766D01*
X82778Y-202696D01*
X82672Y-202636D01*
X82562Y-202585D01*
X82447Y-202543D01*
X82328Y-202510D01*
X82204Y-202487D01*
X82076Y-202473D01*
X81944Y-202468D01*
Y-201468D01*
X82076Y-201464D01*
X82204Y-201450D01*
X82328Y-201427D01*
X82447Y-201394D01*
X82562Y-201352D01*
X82672Y-201301D01*
X82778Y-201241D01*
X82880Y-201171D01*
X82978Y-201092D01*
X83071Y-201004D01*
Y-202933D01*
D02*
G37*
G36*
X290163Y-202697D02*
X290180Y-202817D01*
X290209Y-202935D01*
X290249Y-203053D01*
X290300Y-203170D01*
X290363Y-203286D01*
X290437Y-203401D01*
X290523Y-203515D01*
X290620Y-203628D01*
X290728Y-203740D01*
X288799D01*
X288908Y-203628D01*
X289005Y-203515D01*
X289090Y-203401D01*
X289165Y-203286D01*
X289227Y-203170D01*
X289279Y-203053D01*
X289319Y-202935D01*
X289347Y-202817D01*
X289364Y-202697D01*
X289370Y-202577D01*
X290158D01*
X290163Y-202697D01*
D02*
G37*
G36*
X77868Y-205443D02*
X77981Y-205540D01*
X78095Y-205626D01*
X78210Y-205700D01*
X78326Y-205763D01*
X78443Y-205814D01*
X78561Y-205854D01*
X78679Y-205883D01*
X78799Y-205900D01*
X78919Y-205906D01*
Y-206693D01*
X78799Y-206699D01*
X78679Y-206716D01*
X78561Y-206744D01*
X78443Y-206784D01*
X78326Y-206836D01*
X78210Y-206898D01*
X78095Y-206973D01*
X77981Y-207058D01*
X77868Y-207155D01*
X77756Y-207264D01*
Y-205335D01*
X77868Y-205443D01*
D02*
G37*
%LPC*%
G36*
X15812Y-190860D02*
X15386Y-191416D01*
X14890Y-192613D01*
X14721Y-193898D01*
X14890Y-195182D01*
X15386Y-196379D01*
X15812Y-196935D01*
X18850Y-193898D01*
X15812Y-190860D01*
D02*
G37*
G36*
X19685Y-194733D02*
X16648Y-197770D01*
X17203Y-198196D01*
X18400Y-198692D01*
X19685Y-198861D01*
X20970Y-198692D01*
X22167Y-198196D01*
X22722Y-197770D01*
X19685Y-194733D01*
D02*
G37*
G36*
X112795Y-214198D02*
X112127Y-214286D01*
X111505Y-214544D01*
X110970Y-214954D01*
X110560Y-215489D01*
X110302Y-216111D01*
X110214Y-216779D01*
X110302Y-217448D01*
X110560Y-218070D01*
X110970Y-218605D01*
X111505Y-219015D01*
X112127Y-219273D01*
X112795Y-219361D01*
X113463Y-219273D01*
X114086Y-219015D01*
X114620Y-218605D01*
X115031Y-218070D01*
X115288Y-217448D01*
X115376Y-216779D01*
X115288Y-216111D01*
X115031Y-215489D01*
X114620Y-214954D01*
X114086Y-214544D01*
X113463Y-214286D01*
X112795Y-214198D01*
D02*
G37*
%LPD*%
D10*
X259449Y-184843D02*
Y-174387D01*
X242520Y-157458D02*
Y-106890D01*
Y-157458D02*
X259449Y-174387D01*
X261637Y-67421D02*
X263408Y-65650D01*
X270101D02*
X271873Y-67421D01*
X291240D02*
X311811Y-87992D01*
X271873Y-67421D02*
X291240D01*
X255088Y-67520D02*
X255187Y-67421D01*
X263408Y-65650D02*
X270101D01*
X255187Y-67421D02*
X261637D01*
X217126Y-67520D02*
X255088D01*
X256496Y-58071D02*
X284646D01*
X314370Y-87795D01*
X311811Y-169882D02*
Y-87992D01*
X179724Y-178937D02*
X187795Y-170866D01*
X143504Y-178937D02*
X179724D01*
X133366Y-189075D02*
X143504Y-178937D01*
X127362Y-131299D02*
X146653Y-112008D01*
Y-101181D01*
X193701Y-54134D01*
X198228D01*
X186614Y-78543D02*
Y-67126D01*
X126181Y-114764D02*
X131299Y-109646D01*
Y-100787D01*
X146063Y-86024D01*
X139961Y-87598D02*
X152362Y-75197D01*
Y-72441D01*
X202756Y-76378D02*
Y-76378D01*
X235630Y-155118D02*
Y-104331D01*
X202756Y-76378D02*
X228150Y-101772D01*
Y-156102D02*
Y-101772D01*
X207283Y-75984D02*
X235630Y-104331D01*
X225984Y-78347D02*
X230118Y-82480D01*
X249410Y-152165D02*
Y-110827D01*
X225984Y-90354D02*
X242520Y-106890D01*
X230118Y-91535D02*
Y-82480D01*
Y-91535D02*
X249410Y-110827D01*
X225984Y-90354D02*
Y-82677D01*
X222441Y-78347D02*
X225984D01*
X289764Y-204724D02*
Y-199606D01*
X314370Y-175000D01*
Y-87795D01*
X249410Y-152165D02*
X265945Y-168701D01*
X190551Y-71260D02*
X258661D01*
X264567Y-77165D01*
X236221Y-89052D02*
Y-75197D01*
X255850Y-108681D02*
X256319D01*
X236221Y-89052D02*
X255850Y-108681D01*
X188976Y-80905D02*
X196457D01*
X186614Y-78543D02*
X188976Y-80905D01*
X196457D02*
X197244Y-81693D01*
Y-89764D02*
X198622Y-91142D01*
X211417D01*
X197244Y-89764D02*
Y-81693D01*
X211417Y-91142D02*
X222244Y-101969D01*
Y-145669D02*
Y-101969D01*
X189961Y-136811D02*
Y-129134D01*
X196653Y-140945D02*
Y-114961D01*
X198622Y-112992D01*
Y-98819D01*
X76772Y-206299D02*
X122047D01*
X76772Y-189075D02*
X133366D01*
X122047Y-206299D02*
X143504Y-184843D01*
X199803D01*
X217717Y-166929D02*
Y-141929D01*
X199803Y-184843D02*
X217717Y-166929D01*
X207874Y-115157D02*
X208465D01*
X196653Y-140945D02*
X203937Y-148228D01*
Y-155709D02*
Y-148228D01*
X153543Y-171653D02*
X175197D01*
X148622Y-166732D02*
X153543Y-171653D01*
X144685Y-175394D02*
X176969D01*
X141142Y-171850D02*
X144685Y-175394D01*
X76772Y-171850D02*
X141142D01*
X131890Y-166732D02*
X148622D01*
X129724Y-168898D02*
X131890Y-166732D01*
X95866Y-168898D02*
X129724D01*
X81595Y-154626D02*
X95866Y-168898D01*
X76772Y-154626D02*
X81595D01*
X187795Y-170866D02*
X205118D01*
X210236Y-165748D01*
X176969Y-175394D02*
X184055Y-168307D01*
X202559D01*
X175197Y-171653D02*
X181693Y-165157D01*
X201378D01*
X206496Y-160039D01*
Y-120155D01*
X76772Y-124213D02*
X116732Y-84252D01*
X122441Y-87598D02*
X139961D01*
X116732Y-84252D02*
X140551D01*
X148425Y-76378D01*
Y-74803D01*
X146063Y-86024D02*
X156693D01*
X177559Y-65158D01*
X215748Y-139961D02*
X217717Y-141929D01*
X215748Y-139961D02*
Y-114173D01*
X206496Y-120155D02*
X207950Y-118701D01*
X211417Y-113976D02*
X213583Y-116142D01*
X208465Y-115157D02*
X211221Y-117913D01*
Y-121457D02*
Y-117913D01*
X213583Y-123031D02*
Y-116142D01*
X208465Y-124213D02*
X211221Y-121457D01*
X202559Y-168307D02*
X208465Y-162402D01*
Y-124213D01*
X210236Y-165748D02*
Y-126378D01*
X213583Y-123031D01*
X235630Y-155118D02*
X245079Y-164567D01*
X265945Y-176969D02*
Y-168701D01*
X164567Y-146850D02*
X173622Y-155905D01*
X149213Y-145866D02*
X161811D01*
X148819Y-145472D02*
X149213Y-145866D01*
X161024Y-142323D02*
X161221Y-142126D01*
X153150Y-142323D02*
X161024D01*
X223228Y-161024D02*
X228150Y-156102D01*
X170669Y-118898D02*
X171260Y-118307D01*
X189567D01*
X170669Y-120079D02*
Y-118898D01*
Y-120079D02*
X171457Y-120866D01*
X186024D01*
X171260Y-123425D02*
X185827D01*
X186614Y-122638D01*
Y-121457D01*
X186024Y-120866D02*
X186614Y-121457D01*
X171457Y-125984D02*
X186024D01*
X170669Y-125197D02*
X171457Y-125984D01*
X170669Y-125197D02*
Y-124016D01*
X171260Y-123425D01*
X167717Y-128543D02*
X185827D01*
X186614Y-127756D01*
Y-126575D01*
X186024Y-125984D02*
X186614Y-126575D01*
X165748Y-130512D02*
X167717Y-128543D01*
X165748Y-133661D02*
Y-130512D01*
Y-133661D02*
X167126Y-135039D01*
X181496D01*
X182283Y-135827D01*
Y-137402D02*
Y-135827D01*
X181496Y-138189D02*
X182283Y-137402D01*
X171850Y-138189D02*
X181496D01*
X170472Y-139567D02*
X171850Y-138189D01*
X170472Y-148031D02*
Y-139567D01*
X189961Y-129134D02*
X194291Y-124803D01*
Y-104528D01*
X175787Y-141339D02*
X185433D01*
X174803Y-142323D02*
X175787Y-141339D01*
X185433D02*
X189961Y-136811D01*
X178937Y-150787D02*
X180905Y-148819D01*
Y-145866D01*
X174803Y-148819D02*
Y-142323D01*
Y-148819D02*
X176772Y-150787D01*
X178937D01*
X168898Y-113976D02*
X188779D01*
X190354Y-112402D01*
X184843Y-110039D02*
X186417Y-108465D01*
X168307Y-110039D02*
X184843D01*
X164567Y-146850D02*
Y-137205D01*
X157283Y-129921D02*
X164567Y-137205D01*
X157283Y-129921D02*
Y-125591D01*
X168898Y-113976D01*
X189173Y-98032D02*
X190354Y-99213D01*
Y-112402D02*
Y-99213D01*
X186417Y-108465D02*
Y-99213D01*
X187598Y-98032D01*
X189173D01*
X157677Y-120669D02*
X168307Y-110039D01*
X153937Y-118898D02*
Y-116339D01*
Y-118898D02*
X155709Y-120669D01*
X157677D01*
X220472Y-147441D02*
X222244Y-145669D01*
X245079Y-175000D02*
Y-164567D01*
Y-175000D02*
X251772Y-181693D01*
X254331D01*
X76772Y-137795D02*
Y-124213D01*
D11*
X256808Y-114370D02*
X258482Y-112697D01*
X258858D01*
X252067Y-114370D02*
X256808D01*
X19685Y-166339D02*
X26575Y-173228D01*
X57874D01*
X65551Y-180905D01*
X81496D02*
X84055Y-183465D01*
X65551Y-180905D02*
X81496D01*
X69685Y-201969D02*
X84055D01*
X54527Y-186811D02*
X69685Y-201969D01*
X26378Y-186811D02*
X54527D01*
X19685Y-180118D02*
X26378Y-186811D01*
D19*
X19685Y-138779D02*
X26181Y-145276D01*
X19685Y-125000D02*
X25984Y-131299D01*
X64567D01*
X74606Y-141339D02*
X84055D01*
X88386Y-145669D01*
X19685Y-152559D02*
X25984Y-158858D01*
X57480D01*
X63386Y-164764D01*
X84055D01*
X64567Y-131299D02*
X74606Y-141339D01*
X26181Y-145276D02*
X82480D01*
X84449Y-147244D01*
D106*
X354823Y-37795D02*
D03*
X344980D02*
D03*
X354823Y-51575D02*
D03*
X344980D02*
D03*
X354823Y-65354D02*
D03*
X344980D02*
D03*
X354823Y-79134D02*
D03*
X344980D02*
D03*
X354823Y-92913D02*
D03*
X344980D02*
D03*
X354823Y-106693D02*
D03*
X344980D02*
D03*
X354823Y-120472D02*
D03*
X344980D02*
D03*
X354823Y-134252D02*
D03*
X344980D02*
D03*
X29528Y-42323D02*
D03*
X19685D02*
D03*
Y-111221D02*
D03*
X29528D02*
D03*
Y-97441D02*
D03*
X19685Y-97441D02*
D03*
Y-56102D02*
D03*
X29528D02*
D03*
X19685Y-69882D02*
D03*
X29528D02*
D03*
X19685Y-83661D02*
D03*
X29528D02*
D03*
Y-152559D02*
D03*
X19685D02*
D03*
X29528Y-138779D02*
D03*
X19685D02*
D03*
X29528Y-125000D02*
D03*
X19685D02*
D03*
Y-166339D02*
D03*
X29528D02*
D03*
Y-180118D02*
D03*
Y-193898D02*
D03*
X19685Y-180118D02*
D03*
Y-193898D02*
D03*
D113*
X292421Y-80118D02*
X296729Y-84426D01*
Y-88901D02*
Y-84426D01*
X303248Y-123327D02*
X306004Y-126083D01*
Y-174902D02*
Y-126083D01*
X274508Y-206398D02*
X306004Y-174902D01*
X268209Y-206496D02*
X268307Y-206398D01*
X264961Y-206496D02*
X268209D01*
X268307Y-206398D02*
X274508D01*
X264862Y-206594D02*
X264961Y-206496D01*
X303150Y-123228D02*
X303248D01*
X299803Y-109646D02*
X300000Y-109843D01*
X296729Y-106571D02*
X299803Y-109646D01*
Y-109449D01*
Y-119882D02*
Y-109646D01*
Y-119882D02*
X303150Y-123228D01*
X296729Y-106571D02*
Y-88901D01*
X296457Y-89173D02*
X296729Y-88901D01*
X288340Y-88930D02*
X291169D01*
X291412Y-89173D01*
X296457D01*
X288189Y-88779D02*
X288340Y-88930D01*
D115*
X29528Y-56102D02*
X46850D01*
X40945Y-46063D02*
X46850D01*
X37421Y-32461D02*
X48228D01*
X29528Y-22638D02*
X47835D01*
X29528Y-42323D02*
Y-40354D01*
X37421Y-32461D01*
X19685Y-42323D02*
Y-32480D01*
X29528Y-22638D01*
D116*
X26378Y-63189D02*
X36417D01*
X37795Y-49213D02*
X40945Y-46063D01*
X26575Y-49213D02*
X37795D01*
X19685Y-69882D02*
X26378Y-63189D01*
X19685Y-56102D02*
X26575Y-49213D01*
D117*
X44685Y-87795D02*
X49016D01*
X33661Y-76772D02*
X44685Y-87795D01*
X43701Y-94685D02*
X46654Y-97638D01*
X43701Y-94291D02*
X46949Y-97539D01*
X19685Y-95866D02*
X25000Y-90551D01*
X19685Y-97441D02*
Y-95866D01*
Y-83661D02*
Y-81496D01*
X24409Y-76772D01*
X33661D01*
X29528Y-83661D02*
X33071D01*
X43701Y-96260D02*
Y-94685D01*
Y-94291D01*
X25000Y-90551D02*
X32874D01*
X37992Y-95669D01*
Y-99410D02*
Y-95669D01*
X46949Y-98917D02*
Y-97539D01*
X33071Y-83661D02*
X43701Y-94291D01*
Y-96260D02*
X45079Y-97638D01*
X46654D01*
X46358Y-98917D02*
X46949D01*
X45079Y-97638D02*
X46358Y-98917D01*
D118*
X37008Y-64567D02*
X47835D01*
X39764Y-72441D02*
X45177Y-77854D01*
D119*
X29331Y-71260D02*
X38583D01*
X46457Y-109646D02*
X46850Y-108268D01*
X37992Y-99410D02*
X46850Y-108268D01*
X38583Y-71260D02*
X39764Y-72441D01*
X29528Y-69882D02*
X30709Y-71063D01*
X29528Y-99803D02*
Y-97441D01*
X46801Y-111614D02*
X46850Y-111663D01*
X46457Y-109646D02*
X46850Y-111663D01*
X46457Y-109646D02*
X46801Y-111614D01*
X46063Y-110394D02*
X46457Y-109646D01*
X46063Y-110394D02*
X46063Y-110394D01*
Y-110849D02*
X46738Y-113025D01*
X48590Y-114000D01*
X29528Y-99803D02*
X39723Y-109999D01*
X46597Y-121850D02*
X46850D01*
X39723Y-114976D02*
Y-109999D01*
Y-114976D02*
X46597Y-121850D01*
X46063Y-110849D02*
Y-110394D01*
Y-110849D02*
X46063Y-110849D01*
D121*
X351457Y-209035D02*
D03*
Y-175020D02*
D03*
X367913Y-209035D02*
D03*
Y-175020D02*
D03*
D122*
X353543Y-203405D02*
D03*
Y-180650D02*
D03*
X328839Y-17913D02*
D03*
X323441Y-17914D02*
D03*
X264961Y-45571D02*
D03*
X272933Y-64862D02*
D03*
X237008Y-179528D02*
D03*
X249803Y-161122D02*
D03*
X240551Y-168405D02*
D03*
X252756Y-172638D02*
D03*
X301378Y-152559D02*
D03*
X245669Y-144095D02*
D03*
X237008Y-186614D02*
D03*
X148819Y-172244D02*
D03*
X168701Y-21260D02*
D03*
X329921Y-68405D02*
D03*
X256496Y-58071D02*
D03*
X342815Y-207283D02*
D03*
X342618Y-177559D02*
D03*
X333661Y-189764D02*
D03*
X311811Y-169882D02*
D03*
X165157Y-166732D02*
D03*
X170276D02*
D03*
X127362Y-131299D02*
D03*
X138976Y-113287D02*
D03*
X186614Y-67126D02*
D03*
X126181Y-114764D02*
D03*
X292421Y-80118D02*
D03*
X134646Y-67224D02*
D03*
X136364Y-56762D02*
D03*
X154134Y-77756D02*
D03*
X152362Y-72441D02*
D03*
X132283Y-37598D02*
D03*
X140650Y-35925D02*
D03*
X153150Y-47736D02*
D03*
X162303Y-21161D02*
D03*
X207283Y-75984D02*
D03*
X222441Y-78347D02*
D03*
X225984Y-82677D02*
D03*
X251772Y-176181D02*
D03*
X251772Y-194291D02*
D03*
X237008Y-193688D02*
D03*
X127362Y-207087D02*
D03*
Y-182874D02*
D03*
Y-164370D02*
D03*
Y-145276D02*
D03*
X214370Y-152165D02*
D03*
X173425Y-160846D02*
D03*
X166535Y-154528D02*
D03*
X5512Y-5709D02*
D03*
X300197Y-206299D02*
D03*
X217126Y-67520D02*
D03*
X190551Y-71260D02*
D03*
X202756Y-76378D02*
D03*
X286614Y-82677D02*
D03*
X251575Y-78347D02*
D03*
X306931Y-93545D02*
D03*
X276575Y-82480D02*
D03*
X264764D02*
D03*
X303248Y-100197D02*
D03*
X278740Y-196850D02*
D03*
X289764Y-204724D02*
D03*
X303248Y-123327D02*
D03*
X299803Y-109449D02*
D03*
X288189Y-88779D02*
D03*
X252067Y-114370D02*
D03*
X258661Y-112992D02*
D03*
X239567Y-130315D02*
D03*
X281496Y-112106D02*
D03*
X328740Y-156791D02*
D03*
X316929Y-157087D02*
D03*
X317717Y-121752D02*
D03*
X264469Y-68209D02*
D03*
X264567Y-77165D02*
D03*
X292717Y-86024D02*
D03*
X251575Y-73819D02*
D03*
X236221Y-75197D02*
D03*
X256319Y-108681D02*
D03*
X268307Y-206398D02*
D03*
X264862Y-206594D02*
D03*
X118898Y-88585D02*
D03*
Y-110780D02*
D03*
X112795Y-216779D02*
D03*
X67716Y-210039D02*
D03*
X118551Y-201181D02*
D03*
Y-182165D02*
D03*
Y-162992D02*
D03*
Y-144095D02*
D03*
X102756Y-144095D02*
D03*
X99410Y-141142D02*
D03*
X102756Y-125197D02*
D03*
X67716Y-192864D02*
D03*
Y-175689D02*
D03*
Y-158514D02*
D03*
Y-141339D02*
D03*
X173031Y-132087D02*
D03*
X154134Y-111614D02*
D03*
X153347Y-103740D02*
D03*
Y-107677D02*
D03*
X154134Y-82087D02*
D03*
X168701Y-35630D02*
D03*
X192323D02*
D03*
X196654D02*
D03*
X212008D02*
D03*
X216339D02*
D03*
X250591Y-95472D02*
D03*
Y-99803D02*
D03*
X225000Y-135630D02*
D03*
X199409Y-133465D02*
D03*
X193504Y-133465D02*
D03*
X138544Y-207660D02*
D03*
X143544D02*
D03*
X148544D02*
D03*
X153544D02*
D03*
X203543Y-196063D02*
D03*
X191535Y-191929D02*
D03*
X190748Y-180118D02*
D03*
Y-175000D02*
D03*
X254134Y-216535D02*
D03*
X262402Y-212205D02*
D03*
X295472Y-158464D02*
D03*
X265354Y-148819D02*
D03*
X258465Y-140551D02*
D03*
X261810Y-149606D02*
D03*
X292126Y-155512D02*
D03*
X292323Y-142520D02*
D03*
X285039Y-189764D02*
D03*
X245472Y-34055D02*
D03*
X249213Y-46850D02*
D03*
X250394Y-50394D02*
D03*
X311024Y-206102D02*
D03*
X280118Y-208465D02*
D03*
Y-205512D02*
D03*
X5512Y-230512D02*
D03*
X17196D02*
D03*
X28880D02*
D03*
X40564D02*
D03*
X52248D02*
D03*
X84449Y-147244D02*
D03*
X76772Y-137795D02*
D03*
X148819Y-145472D02*
D03*
X161811Y-145866D02*
D03*
X161221Y-142126D02*
D03*
X153150Y-142323D02*
D03*
X198228Y-54134D02*
D03*
X207950Y-118701D02*
D03*
X213189Y-132086D02*
D03*
X63932Y-230512D02*
D03*
X75616D02*
D03*
X87300D02*
D03*
X98984D02*
D03*
X110668D02*
D03*
X122352D02*
D03*
X134036D02*
D03*
X145720D02*
D03*
X157404D02*
D03*
X169088D02*
D03*
X180772D02*
D03*
X192456D02*
D03*
X204140D02*
D03*
X215824D02*
D03*
X227508D02*
D03*
X239192D02*
D03*
X250876D02*
D03*
X262560D02*
D03*
X274244D02*
D03*
X285928D02*
D03*
X297612D02*
D03*
X309296D02*
D03*
X320980D02*
D03*
X332664D02*
D03*
X344348D02*
D03*
X356032D02*
D03*
X367716D02*
D03*
Y-5709D02*
D03*
X356032D02*
D03*
X344348D02*
D03*
X332664D02*
D03*
X320980D02*
D03*
X309296D02*
D03*
X297612D02*
D03*
X285928D02*
D03*
X274244D02*
D03*
X262560D02*
D03*
X250876D02*
D03*
X239192D02*
D03*
X227508D02*
D03*
X215824D02*
D03*
X204140D02*
D03*
X192456D02*
D03*
X180772D02*
D03*
X169088D02*
D03*
X157404D02*
D03*
X145720D02*
D03*
X134036D02*
D03*
X122352D02*
D03*
X110668D02*
D03*
X98984D02*
D03*
X87300D02*
D03*
X75616D02*
D03*
X63932D02*
D03*
X52248D02*
D03*
X40564D02*
D03*
X28880D02*
D03*
X17196D02*
D03*
X175197Y-21260D02*
D03*
X142913Y-77362D02*
D03*
X143110Y-92913D02*
D03*
X218307Y-132087D02*
D03*
X254331Y-181693D02*
D03*
X265945Y-176969D02*
D03*
X259449Y-184843D02*
D03*
X177559Y-65158D02*
D03*
X122441Y-87598D02*
D03*
X148425Y-74803D02*
D03*
X223228Y-161024D02*
D03*
X203937Y-155709D02*
D03*
X207874Y-115157D02*
D03*
X215748Y-114173D02*
D03*
X220472Y-147441D02*
D03*
X213386Y-143110D02*
D03*
X211417Y-113976D02*
D03*
X198622Y-98819D02*
D03*
X194291Y-104528D02*
D03*
X153937Y-116339D02*
D03*
X173622Y-155905D02*
D03*
X180905Y-145866D02*
D03*
X170472Y-148031D02*
D03*
X189567Y-118307D02*
D03*
X168701Y-132087D02*
D03*
X100787Y-211417D02*
D03*
X84055Y-183465D02*
D03*
Y-164764D02*
D03*
X76772Y-206299D02*
D03*
Y-189075D02*
D03*
Y-171850D02*
D03*
Y-154626D02*
D03*
X88386Y-145669D02*
D03*
X84055Y-201969D02*
D03*
X99410Y-160039D02*
D03*
X102756Y-163976D02*
D03*
X99410Y-179134D02*
D03*
X102362Y-182480D02*
D03*
X99606Y-198228D02*
D03*
X102559Y-201181D02*
D03*
X118898Y-22000D02*
D03*
Y-44195D02*
D03*
Y-66390D02*
D03*
X133268Y-118799D02*
D03*
X138701Y-105069D02*
D03*
D123*
X186969Y-21654D02*
D03*
X257953Y-130512D02*
D03*
D124*
X196968Y-21654D02*
D03*
X206968D02*
D03*
X216968D02*
D03*
X226969D02*
D03*
X267953Y-130512D02*
D03*
X277953D02*
D03*
X287953D02*
D03*
X297953D02*
D03*
D125*
X188779Y-147441D02*
D03*
X192717D02*
D03*
X196653D02*
D03*
X188779Y-151378D02*
D03*
X192717D02*
D03*
X196653D02*
D03*
X192717Y-159252D02*
D03*
X196653D02*
D03*
X188779D02*
D03*
X196653Y-155315D02*
D03*
X192717D02*
D03*
X188779D02*
D03*
D126*
X297244Y-217717D02*
D03*
D127*
X43898Y-20669D02*
D03*
X47835D02*
D03*
Y-30512D02*
D03*
X43898D02*
D03*
X47441Y-44094D02*
D03*
X43504D02*
D03*
X46850Y-54134D02*
D03*
X42913D02*
D03*
X47638Y-63779D02*
D03*
X43701D02*
D03*
X45276Y-76575D02*
D03*
X42323Y-73819D02*
D03*
X48819Y-87303D02*
D03*
X44882D02*
D03*
X46949Y-98917D02*
D03*
X43701Y-96260D02*
D03*
X46457Y-109843D02*
D03*
X47638Y-113386D02*
D03*
X43701Y-119095D02*
D03*
X46850Y-121850D02*
D03*
D128*
X276776Y-29394D02*
X277376D01*
X291975Y-17394D02*
X292375D01*
X288775D02*
X289276D01*
X291675Y-17494D02*
X292776D01*
X293476D02*
X294176D01*
X288276D02*
X289775D01*
X293476Y-17594D02*
X294176D01*
X291675D02*
X292975D01*
X288075D02*
X290075D01*
X291675Y-17694D02*
X293176D01*
X293476D02*
X294176D01*
X287876D02*
X290276D01*
X291675Y-17794D02*
X293275D01*
X293476D02*
X294176D01*
X287675D02*
X290375D01*
X293476Y-17894D02*
X294176D01*
X291675D02*
X293375D01*
X287576D02*
X290476D01*
X293476Y-17994D02*
X294176D01*
X291675D02*
X293375D01*
X289375D02*
X290576D01*
X287475D02*
X288775D01*
X289675Y-18094D02*
X290675D01*
X292576D02*
X294176D01*
X287375D02*
X288475D01*
X292776Y-18194D02*
X294176D01*
X286158Y-15394D02*
X286758D01*
X286158Y-15494D02*
X286758D01*
X286158Y-15594D02*
X286758D01*
X285075Y-15694D02*
X285676D01*
X285075Y-15794D02*
X285676D01*
X285075Y-15894D02*
X285676D01*
X285075Y-15994D02*
X285676D01*
X285075Y-16094D02*
X285676D01*
X285075Y-16194D02*
X285676D01*
X285075Y-16294D02*
X285676D01*
X285075Y-16394D02*
X285676D01*
X285075Y-16494D02*
X285676D01*
X285075Y-16594D02*
X285676D01*
X285075Y-16694D02*
X285676D01*
X285075Y-16794D02*
X285676D01*
X285075Y-16894D02*
X285676D01*
X285075Y-16994D02*
X285676D01*
X285075Y-17094D02*
X285676D01*
X285075Y-17194D02*
X285676D01*
X285075Y-17294D02*
X285676D01*
X285075Y-17394D02*
X285676D01*
X285075Y-17494D02*
X285676D01*
X282875D02*
X284276D01*
X285075Y-17594D02*
X285676D01*
X285075Y-17694D02*
X285676D01*
X282475D02*
X284676D01*
X285075Y-17794D02*
X285676D01*
X285075Y-17894D02*
X285676D01*
X285075Y-17994D02*
X285676D01*
X283875D02*
X284976D01*
X284276Y-18094D02*
X285676D01*
X293275Y-18594D02*
X294176D01*
X293375Y-18794D02*
X294176D01*
X293375Y-18894D02*
X294176D01*
X293476Y-18994D02*
X294176D01*
X293476Y-19094D02*
X294176D01*
X293476Y-19194D02*
X294176D01*
X293476Y-19294D02*
X294176D01*
X293476Y-19394D02*
X294176D01*
X293476Y-19494D02*
X294176D01*
X293476Y-19594D02*
X294176D01*
X293476Y-19694D02*
X294176D01*
X293476Y-19794D02*
X294176D01*
X293476Y-19894D02*
X294176D01*
X293476Y-19994D02*
X294176D01*
X293476Y-20094D02*
X294176D01*
X293476Y-20194D02*
X294176D01*
X293476Y-20294D02*
X294176D01*
X293476Y-20394D02*
X294176D01*
X293476Y-20494D02*
X294176D01*
X293476Y-20594D02*
X294176D01*
X293476Y-20694D02*
X294176D01*
X293476Y-20794D02*
X294176D01*
X293476Y-20894D02*
X294176D01*
X293476Y-20994D02*
X294176D01*
X293476Y-21094D02*
X294176D01*
X293476Y-21194D02*
X294176D01*
X293476Y-21294D02*
X294176D01*
X292975Y-18294D02*
X294176D01*
X293075Y-18394D02*
X294176D01*
X293176Y-18494D02*
X294176D01*
X290276Y-18594D02*
X291075D01*
X293275Y-18694D02*
X294176D01*
X290276D02*
X291075D01*
X290375Y-18794D02*
X291176D01*
X290476Y-18894D02*
X291176D01*
X290476Y-18994D02*
X291176D01*
X290576Y-19094D02*
X291276D01*
X290576Y-19194D02*
X291276D01*
X290576Y-19294D02*
X291276D01*
X290576Y-19394D02*
X291276D01*
X290675Y-19494D02*
X291276D01*
X290675Y-19594D02*
X291375D01*
X290675Y-19694D02*
X291375D01*
X290675Y-19794D02*
X291375D01*
X290675Y-19894D02*
X291375D01*
X290675Y-19994D02*
X291375D01*
X290675Y-20094D02*
X291375D01*
X290675Y-20194D02*
X291375D01*
X290675Y-20294D02*
X291375D01*
X290675Y-20394D02*
X291375D01*
X290675Y-20494D02*
X291375D01*
X290675Y-20594D02*
X291276D01*
X290576Y-20694D02*
X291276D01*
X290576Y-20794D02*
X291276D01*
X290576Y-20894D02*
X291276D01*
X290576Y-20994D02*
X291276D01*
X290476Y-21094D02*
X291176D01*
X290476Y-21194D02*
X291176D01*
X290375Y-21294D02*
X291176D01*
X293476Y-21394D02*
X294176D01*
X293476Y-21494D02*
X294176D01*
X293476Y-21594D02*
X294176D01*
X293476Y-21694D02*
X294176D01*
X293476Y-21794D02*
X294176D01*
X293476Y-21894D02*
X294176D01*
X293476Y-21994D02*
X294176D01*
X293476Y-22094D02*
X294176D01*
X293476Y-22194D02*
X294176D01*
X293476Y-22294D02*
X294176D01*
X293476Y-22394D02*
X294176D01*
X293476Y-22494D02*
X294176D01*
X293476Y-22594D02*
X294176D01*
X293476Y-24294D02*
X294176D01*
X293476Y-24394D02*
X294176D01*
X293476Y-24494D02*
X294176D01*
X293476Y-24594D02*
X294176D01*
X293476Y-24694D02*
X294176D01*
X293476Y-24794D02*
X294176D01*
X293476Y-24894D02*
X294176D01*
X293476Y-24994D02*
X294176D01*
X293476Y-25094D02*
X294176D01*
X293476Y-25194D02*
X294176D01*
X293476Y-25494D02*
X294176D01*
X293476Y-25894D02*
X294176D01*
X293476Y-25994D02*
X294176D01*
X293476Y-26094D02*
X294176D01*
X293476Y-26194D02*
X294176D01*
X293476Y-26294D02*
X294176D01*
X293476Y-26494D02*
X294176D01*
X293476Y-26594D02*
X294176D01*
X293476Y-26794D02*
X294176D01*
X290375Y-21394D02*
X291075D01*
X290276Y-21494D02*
X291075D01*
X293476Y-25294D02*
X294176D01*
X293476Y-25394D02*
X294176D01*
X293476Y-25594D02*
X294176D01*
X293476Y-25694D02*
X294176D01*
X293476Y-25794D02*
X294176D01*
X291375Y-26294D02*
X292375D01*
X293476Y-26394D02*
X294176D01*
X291075D02*
X292675D01*
X290876Y-26494D02*
X292876D01*
X290775Y-26594D02*
X293075D01*
X293476Y-26694D02*
X294176D01*
X290675D02*
X293176D01*
X290576Y-26794D02*
X293275D01*
X293476Y-26894D02*
X294176D01*
X290476D02*
X291675D01*
X292375D02*
X293375D01*
X290476Y-26994D02*
X291375D01*
X292675D02*
X294176D01*
X290375Y-27094D02*
X291276D01*
X292776D02*
X294176D01*
X292975Y-27194D02*
X294176D01*
X290375D02*
X291176D01*
X293075Y-27294D02*
X294176D01*
X290375D02*
X291075D01*
X293176Y-27394D02*
X294176D01*
X290375D02*
X291075D01*
X293176Y-27494D02*
X294176D01*
X293275Y-27594D02*
X294176D01*
X293375Y-27694D02*
X294176D01*
X293375Y-27794D02*
X294176D01*
X289876Y-18194D02*
X290775D01*
X287276D02*
X288276D01*
X289976Y-18294D02*
X290876D01*
X287175D02*
X288075D01*
X290075Y-18394D02*
X290975D01*
X287175D02*
X287976D01*
X290176Y-18494D02*
X290975D01*
X287075D02*
X287876D01*
X287075Y-18594D02*
X287876D01*
X286976Y-18694D02*
X287775D01*
X286976Y-18794D02*
X287675D01*
X286876Y-18894D02*
X287675D01*
X286876Y-18994D02*
X287576D01*
X286876Y-19094D02*
X287576D01*
X286876Y-19194D02*
X287576D01*
X286775Y-19294D02*
X287475D01*
X286775Y-19394D02*
X287475D01*
X286775Y-19494D02*
X287475D01*
X286775Y-19594D02*
X287475D01*
X286775Y-19894D02*
X287375D01*
X286775Y-19994D02*
X287375D01*
X286775Y-20094D02*
X287375D01*
X286775Y-20194D02*
X287375D01*
X286775Y-20294D02*
X287375D01*
X286775Y-20394D02*
X287375D01*
X286775Y-20494D02*
X287475D01*
X286775Y-20594D02*
X287475D01*
X286775Y-20694D02*
X287475D01*
X286775Y-20794D02*
X287475D01*
X286876Y-20894D02*
X287475D01*
X286876Y-20994D02*
X287576D01*
X286876Y-21094D02*
X287576D01*
X284475Y-18194D02*
X285676D01*
X284576Y-18294D02*
X285676D01*
X284676Y-18394D02*
X285676D01*
X284775Y-18494D02*
X285676D01*
X284875Y-18594D02*
X285676D01*
X284875Y-18694D02*
X285676D01*
X284976Y-18794D02*
X285676D01*
X284976Y-18894D02*
X285676D01*
X285075Y-18994D02*
X285676D01*
X285075Y-19094D02*
X285676D01*
X285075Y-19194D02*
X285676D01*
X285075Y-19294D02*
X285676D01*
X285075Y-19394D02*
X285676D01*
X285075Y-19494D02*
X285676D01*
X285075Y-19594D02*
X285676D01*
X286775Y-19694D02*
X287375D01*
X285075D02*
X285676D01*
X286775Y-19794D02*
X287375D01*
X285075D02*
X285676D01*
X285075Y-19894D02*
X285676D01*
X285075Y-19994D02*
X285676D01*
X285075Y-20094D02*
X285676D01*
X285075Y-20194D02*
X285676D01*
X285075Y-20294D02*
X285676D01*
X285075Y-20394D02*
X285676D01*
X285075Y-20494D02*
X285676D01*
X285075Y-20594D02*
X285676D01*
X285075Y-20694D02*
X285676D01*
X285075Y-20794D02*
X285676D01*
X285075Y-20894D02*
X285676D01*
X285075Y-20994D02*
X285676D01*
X285075Y-21094D02*
X285676D01*
X286976Y-21394D02*
X287775D01*
X287075Y-21494D02*
X287775D01*
X290176Y-21594D02*
X290975D01*
X287075D02*
X287876D01*
X290075Y-21694D02*
X290975D01*
X287175D02*
X287976D01*
X289976Y-21794D02*
X290876D01*
X287175D02*
X288075D01*
X289876Y-21894D02*
X290775D01*
X287276D02*
X288276D01*
X289675Y-21994D02*
X290775D01*
X287375D02*
X288375D01*
X289375Y-22094D02*
X290675D01*
X287475D02*
X288675D01*
X287576Y-22194D02*
X290576D01*
X287675Y-22294D02*
X290375D01*
X287876Y-22394D02*
X290276D01*
X287976Y-22494D02*
X290075D01*
X288276Y-22594D02*
X289876D01*
X288675Y-22694D02*
X289375D01*
X287576Y-26894D02*
X288675D01*
X287876Y-26994D02*
X288775D01*
X287976Y-27094D02*
X288876D01*
X288075Y-27194D02*
X288976D01*
X288176Y-27294D02*
X288976D01*
X288276Y-27394D02*
X288976D01*
X288375Y-27494D02*
X289075D01*
X290276D02*
X290975D01*
X288375Y-27594D02*
X289075D01*
X290276D02*
X290975D01*
X290276Y-27694D02*
X290975D01*
X288375D02*
X289075D01*
X286876Y-21194D02*
X287675D01*
X285075D02*
X285676D01*
X286976Y-21294D02*
X287675D01*
X284976D02*
X285676D01*
X284976Y-21394D02*
X285676D01*
X284875Y-21494D02*
X285676D01*
X284775Y-21594D02*
X285676D01*
X284676Y-21694D02*
X285676D01*
X284576Y-21794D02*
X285676D01*
X284475Y-21894D02*
X285676D01*
X284276Y-21994D02*
X285676D01*
X283976Y-22094D02*
X285676D01*
X285075Y-22194D02*
X285676D01*
X285075Y-22294D02*
X285676D01*
X285075Y-22394D02*
X285676D01*
X285075Y-22494D02*
X285676D01*
X285075Y-22594D02*
X285676D01*
X286576Y-26294D02*
X287576D01*
X286175Y-26394D02*
X287976D01*
X285976Y-26494D02*
X288176D01*
X285775Y-26594D02*
X288375D01*
X285676Y-26694D02*
X288475D01*
X285576Y-26794D02*
X288576D01*
X285475Y-26894D02*
X286576D01*
X285475Y-26994D02*
X286375D01*
X285375Y-27094D02*
X286276D01*
X285375Y-27194D02*
X286075D01*
X285276Y-27294D02*
X286075D01*
X285276Y-27394D02*
X285976D01*
X285276Y-27494D02*
X285976D01*
X285175Y-27594D02*
X285876D01*
X285175Y-27694D02*
X285876D01*
X282276Y-17794D02*
X284775D01*
X282175Y-17894D02*
X284875D01*
X283276Y-17394D02*
X283775D01*
X282575Y-17594D02*
X284475D01*
X282175Y-17994D02*
X283376D01*
X282076Y-18094D02*
X283075D01*
X281976Y-18194D02*
X282875D01*
X281875Y-18294D02*
X282775D01*
X281875Y-18394D02*
X282676D01*
X281775Y-18594D02*
X282575D01*
X281775Y-18494D02*
X282575D01*
X281775Y-18694D02*
X282475D01*
X281676Y-18794D02*
X282475D01*
X281676Y-18894D02*
X282376D01*
X281676Y-18994D02*
X282376D01*
X281676Y-19094D02*
X282276D01*
X281575Y-19194D02*
X282276D01*
X281575Y-19294D02*
X282276D01*
X281575Y-19394D02*
X282276D01*
X281575Y-19494D02*
X282276D01*
X281575Y-19594D02*
X282276D01*
X281575Y-19694D02*
X282175D01*
X280076Y-19594D02*
X280676D01*
X280076Y-19694D02*
X280676D01*
X280076Y-19794D02*
X280676D01*
X279976Y-19194D02*
X280676D01*
X279976Y-19294D02*
X280676D01*
X279976Y-19394D02*
X280676D01*
X279976Y-19494D02*
X280676D01*
X279875Y-18994D02*
X280575D01*
X279875Y-19094D02*
X280575D01*
X279776Y-18894D02*
X280575D01*
X281775Y-21394D02*
X282475D01*
X281676Y-21294D02*
X282475D01*
X281676Y-21094D02*
X282376D01*
X281676Y-20994D02*
X282376D01*
X281676Y-21194D02*
X282376D01*
X281575Y-20594D02*
X282276D01*
X281575Y-20794D02*
X282276D01*
X281575Y-20694D02*
X282276D01*
X281575Y-20894D02*
X282276D01*
X281575Y-20494D02*
X282276D01*
X281575Y-19794D02*
X282175D01*
X281575Y-19894D02*
X282175D01*
X281575Y-20094D02*
X282175D01*
X281575Y-20294D02*
X282175D01*
X281575Y-19994D02*
X282175D01*
X281575Y-20194D02*
X282175D01*
X281575Y-20394D02*
X282175D01*
X280076Y-19894D02*
X280775D01*
X280076Y-19994D02*
X280775D01*
X280076Y-20194D02*
X280775D01*
X280076Y-20094D02*
X280775D01*
X280076Y-20294D02*
X280676D01*
X280076Y-20494D02*
X280676D01*
X280076Y-20594D02*
X280676D01*
X280076Y-20394D02*
X280676D01*
X279976Y-20794D02*
X280676D01*
X279976Y-20894D02*
X280676D01*
X279976Y-20694D02*
X280676D01*
X279875Y-20994D02*
X280676D01*
X279875Y-21094D02*
X280575D01*
X279875Y-21194D02*
X280575D01*
X279776Y-21294D02*
X280575D01*
X279776Y-18794D02*
X280475D01*
X279676Y-18594D02*
X280475D01*
X279676Y-18694D02*
X280475D01*
X279575Y-18494D02*
X280376D01*
X279475Y-18394D02*
X280276D01*
X279376Y-18294D02*
X280276D01*
X279175Y-18194D02*
X280175D01*
X279076Y-18094D02*
X280076D01*
X278676Y-17994D02*
X279976D01*
X278175Y-17394D02*
X278676D01*
X277676Y-17494D02*
X279175D01*
X277376Y-17594D02*
X279475D01*
X277275Y-17694D02*
X279575D01*
X277076Y-17794D02*
X279776D01*
X276975Y-17894D02*
X279875D01*
X276875Y-17994D02*
X278175D01*
X276776Y-18094D02*
X277875D01*
X276676Y-18194D02*
X277676D01*
X276575Y-18294D02*
X277476D01*
X276575Y-18394D02*
X277376D01*
X276476Y-18494D02*
X277275D01*
X276376Y-18594D02*
X277175D01*
X276376Y-18694D02*
X277175D01*
X276376Y-18794D02*
X277076D01*
X276275Y-18894D02*
X277076D01*
X276275Y-18994D02*
X276975D01*
X276275Y-19094D02*
X276975D01*
X274076Y-16194D02*
X274776D01*
X274076Y-16294D02*
X274776D01*
X274076Y-16994D02*
X274776D01*
X274076Y-18094D02*
X274776D01*
X274076Y-18394D02*
X274776D01*
X276376Y-21394D02*
X277175D01*
X276376Y-21294D02*
X277076D01*
X276275Y-21094D02*
X276975D01*
X276275Y-21194D02*
X276975D01*
X276275Y-20994D02*
X276975D01*
X276175Y-19194D02*
X276875D01*
X276175Y-20794D02*
X276875D01*
X276175Y-20594D02*
X276875D01*
X276175Y-20894D02*
X276875D01*
X276175Y-19394D02*
X276875D01*
X276175Y-19294D02*
X276875D01*
X276175Y-19494D02*
X276875D01*
X276175Y-20694D02*
X276875D01*
X276175Y-20094D02*
X276776D01*
X276175Y-19794D02*
X276776D01*
X276175Y-20294D02*
X276776D01*
X276175Y-19994D02*
X276776D01*
X276175Y-19694D02*
X276776D01*
X276175Y-19594D02*
X276776D01*
X276175Y-20494D02*
X276776D01*
X276175Y-19894D02*
X276776D01*
X276175Y-20394D02*
X276776D01*
X276175Y-20194D02*
X276776D01*
X274076Y-19194D02*
X274776D01*
X274076Y-19794D02*
X274776D01*
X274076Y-19294D02*
X274776D01*
X274076Y-19894D02*
X274776D01*
X274076Y-20294D02*
X274776D01*
X274076Y-20094D02*
X274776D01*
X274076Y-20594D02*
X274776D01*
X274076Y-19994D02*
X274776D01*
X274076Y-20194D02*
X274776D01*
X282175Y-22194D02*
X284976D01*
X282276Y-22294D02*
X284875D01*
X282475Y-22394D02*
X284676D01*
X282575Y-22494D02*
X284576D01*
X283276Y-22694D02*
X283875D01*
X282775Y-22594D02*
X284276D01*
X283175Y-26394D02*
X283775D01*
X283175Y-26494D02*
X283775D01*
X282175Y-22094D02*
X283376D01*
X282076Y-21994D02*
X283075D01*
X281976Y-21894D02*
X282875D01*
X281875Y-21794D02*
X282775D01*
X281875Y-21694D02*
X282676D01*
X281775Y-21494D02*
X282575D01*
X281775Y-21594D02*
X282575D01*
X281376Y-26494D02*
X282676D01*
X281376Y-26394D02*
X282575D01*
X281376Y-26294D02*
X282276D01*
X279676Y-21494D02*
X280475D01*
X279676Y-21394D02*
X280475D01*
X279575Y-21594D02*
X280376D01*
X279475Y-21694D02*
X280376D01*
X279376Y-21794D02*
X280276D01*
X279275Y-21894D02*
X280175D01*
X279076Y-21994D02*
X280076D01*
X278776Y-22094D02*
X279976D01*
X278475Y-26294D02*
X279376D01*
X278076Y-26394D02*
X279676D01*
X277076Y-22294D02*
X279776D01*
X277175Y-22394D02*
X279676D01*
X277376Y-22494D02*
X279475D01*
X278076Y-22694D02*
X278776D01*
X283175Y-26594D02*
X283775D01*
X283175Y-26694D02*
X283775D01*
X283175Y-26894D02*
X283775D01*
X283175Y-26794D02*
X283775D01*
X283075Y-27794D02*
X283775D01*
X283075Y-27694D02*
X283775D01*
X282976Y-27594D02*
X283775D01*
X282976Y-27494D02*
X283775D01*
X282875Y-27394D02*
X283775D01*
X282775Y-27294D02*
X283775D01*
X282676Y-27194D02*
X283775D01*
X282575Y-27094D02*
X283775D01*
X282376Y-26994D02*
X283775D01*
X281976Y-26894D02*
X283075D01*
X281376Y-26794D02*
X283075D01*
X281376Y-26694D02*
X282976D01*
X281376Y-26594D02*
X282875D01*
X281376Y-26894D02*
X281676D01*
X280076Y-27694D02*
X280775D01*
X280076Y-27794D02*
X280775D01*
X279976Y-27594D02*
X280775D01*
X279976Y-27494D02*
X280676D01*
X279875Y-27394D02*
X280676D01*
X279776Y-27294D02*
X280575D01*
X279676Y-27194D02*
X280575D01*
X279575Y-27094D02*
X280475D01*
X279475Y-26994D02*
X280475D01*
X279175Y-26894D02*
X280376D01*
X277776Y-26594D02*
X280076D01*
X277676Y-26694D02*
X280175D01*
X277575Y-26794D02*
X280276D01*
X277875Y-26494D02*
X279875D01*
X277676Y-22594D02*
X279175D01*
X276975Y-22194D02*
X279875D01*
X276875Y-22094D02*
X278076D01*
X276776Y-21994D02*
X277776D01*
X276676Y-21894D02*
X277575D01*
X276776Y-25794D02*
X277376D01*
X276776Y-25594D02*
X277376D01*
X276776Y-25494D02*
X277376D01*
X276776Y-25894D02*
X277376D01*
X276776Y-25194D02*
X277376D01*
X276776Y-24794D02*
X277376D01*
X276776Y-25994D02*
X277376D01*
X276776Y-24694D02*
X277376D01*
X276776Y-24594D02*
X277376D01*
X276776Y-24494D02*
X277376D01*
X276776Y-24394D02*
X277376D01*
X276776Y-25694D02*
X277376D01*
X276776Y-25294D02*
X277376D01*
X276776Y-24294D02*
X277376D01*
X276776Y-25394D02*
X277376D01*
X276776Y-26094D02*
X277376D01*
X276776Y-24894D02*
X277376D01*
X276776Y-24994D02*
X277376D01*
X276776Y-25094D02*
X277376D01*
X276776Y-26194D02*
X277376D01*
X276575Y-21794D02*
X277476D01*
X276476Y-21694D02*
X277376D01*
X276476Y-21594D02*
X277275D01*
X276376Y-21494D02*
X277175D01*
X274076Y-21594D02*
X274776D01*
X274076Y-21694D02*
X274776D01*
X274076Y-21794D02*
X274776D01*
X277476Y-26894D02*
X278376D01*
X276776Y-26994D02*
X278175D01*
X276776Y-27094D02*
X277976D01*
X276776Y-27194D02*
X277875D01*
X276776Y-27294D02*
X277776D01*
X276776Y-27394D02*
X277676D01*
X276776Y-27594D02*
X277575D01*
X276776Y-27494D02*
X277575D01*
X276776Y-27694D02*
X277476D01*
X276776Y-27794D02*
X277476D01*
X276776Y-26794D02*
X277376D01*
X276776Y-26394D02*
X277376D01*
X276776Y-26594D02*
X277376D01*
X276776Y-26694D02*
X277376D01*
X276776Y-26894D02*
X277376D01*
X276776Y-26294D02*
X277376D01*
X276776Y-26494D02*
X277376D01*
X275175Y-26394D02*
X275875D01*
X275076Y-26694D02*
X275776D01*
X275076Y-26594D02*
X275776D01*
X275076Y-26494D02*
X275776D01*
X275076Y-26794D02*
X275776D01*
X274975Y-26894D02*
X275676D01*
X274975Y-26994D02*
X275676D01*
X274975Y-27094D02*
X275676D01*
X274975Y-27194D02*
X275575D01*
X274875Y-27394D02*
X275575D01*
X274875Y-27294D02*
X275575D01*
X274875Y-27494D02*
X275575D01*
X274776Y-27594D02*
X275476D01*
X274776Y-27694D02*
X275476D01*
X274776Y-27794D02*
X275476D01*
X290276D02*
X290975D01*
X293476Y-27894D02*
X294176D01*
X290276D02*
X290876D01*
X293476Y-27994D02*
X294176D01*
X290276D02*
X290876D01*
X293476Y-28094D02*
X294176D01*
X293476Y-28194D02*
X294176D01*
X293476Y-28294D02*
X294176D01*
X293476Y-28394D02*
X294176D01*
X293476Y-28494D02*
X294176D01*
X293476Y-28594D02*
X294176D01*
X293476Y-28694D02*
X294176D01*
X290276D02*
X290876D01*
X293476Y-28794D02*
X294176D01*
X293476Y-28894D02*
X294176D01*
X290276D02*
X290876D01*
X293476Y-28994D02*
X294176D01*
X293476Y-29094D02*
X294176D01*
X293476Y-29194D02*
X294176D01*
X290276D02*
X290876D01*
X293476Y-29294D02*
X294176D01*
X293476Y-29394D02*
X294176D01*
X293476Y-29494D02*
X294176D01*
X290276D02*
X290876D01*
X293476Y-29594D02*
X294176D01*
X290276D02*
X290876D01*
X293476Y-29694D02*
X294176D01*
X293476Y-29794D02*
X294176D01*
X293476Y-29894D02*
X294176D01*
X293476Y-29994D02*
X294176D01*
X293476Y-30094D02*
X294176D01*
X293476Y-30194D02*
X294176D01*
X288375Y-27794D02*
X289075D01*
X290276Y-28094D02*
X290876D01*
X290276Y-28194D02*
X290876D01*
X290276Y-28294D02*
X290876D01*
X290276Y-28394D02*
X290876D01*
X290276Y-28494D02*
X290876D01*
X290276Y-28594D02*
X290876D01*
X290276Y-28794D02*
X290876D01*
X290276Y-28994D02*
X290876D01*
X287075D02*
X288675D01*
X290276Y-29094D02*
X290876D01*
X287576D02*
X288775D01*
X287876Y-29194D02*
X288876D01*
X290276Y-29294D02*
X290876D01*
X288075D02*
X288976D01*
X290276Y-29394D02*
X290876D01*
X288176D02*
X289075D01*
X288276Y-29494D02*
X289075D01*
X288375Y-29594D02*
X289075D01*
X290276Y-29694D02*
X290876D01*
X288475D02*
X289176D01*
X290276Y-29794D02*
X290876D01*
X288475D02*
X289176D01*
X290276Y-29894D02*
X290876D01*
X288475D02*
X289176D01*
X290276Y-29994D02*
X290876D01*
X288475D02*
X289176D01*
X290276Y-30094D02*
X290876D01*
X288475D02*
X289176D01*
X290276Y-30194D02*
X290876D01*
X288475D02*
X289176D01*
X290276Y-30294D02*
X290876D01*
X293476D02*
X294176D01*
X293476Y-30394D02*
X294176D01*
X293476Y-30494D02*
X294176D01*
X293476Y-30594D02*
X294176D01*
X293476Y-30694D02*
X294176D01*
X293476Y-30794D02*
X294176D01*
X293476Y-30894D02*
X294176D01*
X293476Y-30994D02*
X294176D01*
X293476Y-31094D02*
X294176D01*
X293476Y-31194D02*
X294176D01*
X293476Y-31294D02*
X294176D01*
X293476Y-31394D02*
X294176D01*
X291675Y-34394D02*
X293176D01*
X291375Y-34494D02*
X293476D01*
X291176Y-34594D02*
X293576D01*
X291075Y-34694D02*
X293776D01*
X290876Y-34794D02*
X293876D01*
X292675Y-34894D02*
X293975D01*
X290876D02*
X292176D01*
X293075Y-34994D02*
X294075D01*
X290775D02*
X291775D01*
X293176Y-35094D02*
X294075D01*
X290675D02*
X291675D01*
X293375Y-35194D02*
X294176D01*
X290675D02*
X291476D01*
X293476Y-35294D02*
X294176D01*
X290576D02*
X291375D01*
X293476Y-35394D02*
X294176D01*
X290576D02*
X291276D01*
X293576Y-35494D02*
X294275D01*
X290576D02*
X291276D01*
X293576Y-35594D02*
X294275D01*
X288475Y-30294D02*
X289176D01*
X290276Y-30394D02*
X290876D01*
X288475D02*
X289176D01*
X290276Y-30494D02*
X290876D01*
X288375D02*
X289176D01*
X290276Y-30594D02*
X290876D01*
X288276D02*
X289075D01*
X290276Y-30694D02*
X290876D01*
X288176D02*
X289075D01*
X290276Y-30794D02*
X290876D01*
X288075D02*
X289075D01*
X290276Y-30894D02*
X290876D01*
X287876D02*
X288976D01*
X290276Y-30994D02*
X290876D01*
X285976D02*
X288876D01*
X290276Y-31094D02*
X290876D01*
X286075D02*
X288775D01*
X290276Y-31194D02*
X290876D01*
X286175D02*
X288675D01*
X290276Y-31294D02*
X290876D01*
X286375D02*
X288576D01*
X290276Y-31394D02*
X290876D01*
X286576D02*
X288375D01*
X286876Y-31494D02*
X288176D01*
X287576Y-34894D02*
X288876D01*
X287876Y-34994D02*
X288976D01*
X288075Y-35094D02*
X289075D01*
X288276Y-35194D02*
X289176D01*
X288375Y-35294D02*
X289176D01*
X288475Y-35394D02*
X289276D01*
X288576Y-35494D02*
X289375D01*
X288576Y-35594D02*
X289375D01*
X285175Y-27794D02*
X285876D01*
X285175Y-27894D02*
X285876D01*
X285175Y-27994D02*
X285876D01*
X285175Y-28094D02*
X285876D01*
X285175Y-28194D02*
X285876D01*
X285175Y-28294D02*
X285876D01*
X285175Y-28394D02*
X285876D01*
X285175Y-28494D02*
X287475D01*
X285175Y-28594D02*
X287976D01*
X285175Y-28694D02*
X288276D01*
X285175Y-28794D02*
X288475D01*
X285175Y-28894D02*
X288576D01*
X285175Y-28994D02*
X285876D01*
X285175Y-29094D02*
X285876D01*
X285175Y-29194D02*
X285876D01*
X285175Y-29294D02*
X285876D01*
X285175Y-29394D02*
X285876D01*
X285175Y-29494D02*
X285876D01*
X285175Y-29594D02*
X285876D01*
X285175Y-29694D02*
X285876D01*
X285175Y-29794D02*
X285876D01*
X285175Y-29894D02*
X285876D01*
X285175Y-29994D02*
X285876D01*
X285175Y-30094D02*
X285876D01*
X285175Y-30194D02*
X285976D01*
X285175Y-30294D02*
X286075D01*
X285175Y-30394D02*
X286075D01*
X285175Y-30494D02*
X286175D01*
X285175Y-30594D02*
X286375D01*
X285175Y-30694D02*
X286475D01*
X285175Y-30794D02*
X286676D01*
X285175Y-30894D02*
X286876D01*
X283075Y-27894D02*
X283775D01*
X283175Y-27994D02*
X283775D01*
X283175Y-28094D02*
X283775D01*
X283175Y-28194D02*
X283775D01*
X283175Y-28294D02*
X283775D01*
X283175Y-28394D02*
X283775D01*
X283175Y-28494D02*
X283775D01*
X283175Y-28594D02*
X283775D01*
X283175Y-28694D02*
X283775D01*
X283175Y-28794D02*
X283775D01*
X283175Y-28894D02*
X283775D01*
X283175Y-28994D02*
X283775D01*
X283175Y-29094D02*
X283775D01*
X283175Y-29194D02*
X283775D01*
X283175Y-29294D02*
X283775D01*
X283175Y-29394D02*
X283775D01*
X283175Y-29494D02*
X283775D01*
X283175Y-29594D02*
X283775D01*
X283175Y-29694D02*
X283775D01*
X283175Y-29794D02*
X283775D01*
X283175Y-29894D02*
X283775D01*
X283175Y-29994D02*
X283775D01*
X283175Y-30094D02*
X283775D01*
X283175Y-30194D02*
X283775D01*
X283175Y-30294D02*
X283775D01*
X283175Y-30394D02*
X283775D01*
X283175Y-30494D02*
X283775D01*
X283175Y-30594D02*
X283775D01*
X283175Y-30694D02*
X283775D01*
X283175Y-30794D02*
X283775D01*
X283175Y-30894D02*
X283775D01*
X283175Y-30994D02*
X283775D01*
X285175D02*
X285876D01*
X285075Y-31094D02*
X285775D01*
X285075Y-31194D02*
X285775D01*
X285075Y-31294D02*
X285775D01*
X285075Y-31394D02*
X285775D01*
X283276Y-32694D02*
X283875D01*
X283276Y-32794D02*
X283875D01*
X283276Y-32894D02*
X283875D01*
X283276Y-32994D02*
X283875D01*
X283276Y-33094D02*
X283875D01*
X283276Y-33194D02*
X283875D01*
X283276Y-33294D02*
X283875D01*
X283276Y-33394D02*
X283875D01*
X283276Y-33494D02*
X283875D01*
X283276Y-33694D02*
X283875D01*
X283276Y-33794D02*
X283875D01*
X283276Y-34094D02*
X283875D01*
X286576Y-34394D02*
X288075D01*
X286375Y-34494D02*
X288276D01*
X286175Y-34594D02*
X288475D01*
X285976Y-34694D02*
X288675D01*
X285876Y-34794D02*
X288775D01*
X285775Y-34894D02*
X287075D01*
X283276D02*
X283875D01*
X285676Y-34994D02*
X286775D01*
X285576Y-35094D02*
X286576D01*
X285475Y-35194D02*
X286375D01*
X285475Y-35294D02*
X286276D01*
X283276D02*
X283875D01*
X285375Y-35394D02*
X286175D01*
X285375Y-35494D02*
X286175D01*
X285276Y-35594D02*
X286075D01*
X283175Y-31094D02*
X283775D01*
X283175Y-31194D02*
X283775D01*
X283175Y-31294D02*
X283775D01*
X283175Y-31394D02*
X283775D01*
X283276Y-32294D02*
X283875D01*
X283276Y-32394D02*
X283875D01*
X283276Y-32494D02*
X283875D01*
X283276Y-32594D02*
X283875D01*
X283276Y-33594D02*
X283875D01*
X283276Y-33894D02*
X283875D01*
X283276Y-33994D02*
X283875D01*
X283276Y-34194D02*
X283875D01*
X283276Y-34294D02*
X283875D01*
X283276Y-34394D02*
X283875D01*
X281175D02*
X281875D01*
X283276Y-34494D02*
X283875D01*
X281175D02*
X281875D01*
X283276Y-34594D02*
X283875D01*
X283276Y-34694D02*
X283875D01*
X283276Y-34794D02*
X283875D01*
X281175D02*
X281875D01*
X281175Y-34894D02*
X281875D01*
X283276Y-34994D02*
X283875D01*
X281175D02*
X281875D01*
X283276Y-35094D02*
X283875D01*
X281175D02*
X281875D01*
X283276Y-35194D02*
X283875D01*
X281175D02*
X281875D01*
X281175Y-35294D02*
X281875D01*
X283276Y-35394D02*
X283875D01*
X281175D02*
X281875D01*
X283276Y-35494D02*
X283875D01*
X293576Y-35694D02*
X294275D01*
X293576Y-35794D02*
X294275D01*
X293576Y-35894D02*
X294275D01*
X293476Y-35994D02*
X294176D01*
X293476Y-36094D02*
X294176D01*
X293375Y-36194D02*
X294176D01*
X293176Y-36294D02*
X294176D01*
X292975Y-36394D02*
X294075D01*
X292776Y-36494D02*
X293975D01*
X292375Y-36594D02*
X293876D01*
X291975Y-36694D02*
X293776D01*
X291675Y-36794D02*
X293675D01*
X291375Y-36894D02*
X293476D01*
X293776Y-38094D02*
X294375D01*
X293675Y-38194D02*
X294375D01*
X293675Y-38294D02*
X294375D01*
X293675Y-38394D02*
X294375D01*
X293576Y-38494D02*
X294375D01*
X293576Y-38594D02*
X294275D01*
X293476Y-38694D02*
X294275D01*
X293275Y-38794D02*
X294176D01*
X293176Y-38894D02*
X294176D01*
X292876Y-38994D02*
X294075D01*
X290876Y-39094D02*
X293975D01*
X290975Y-39194D02*
X293876D01*
X291276Y-39394D02*
X293576D01*
X291975Y-39594D02*
X292876D01*
X290476Y-35594D02*
X291176D01*
X290476Y-35694D02*
X291176D01*
X290476Y-35794D02*
X291176D01*
X290476Y-35894D02*
X291176D01*
X288976Y-36694D02*
X289675D01*
X288976Y-36794D02*
X289675D01*
X288976Y-36894D02*
X289675D01*
X291176Y-36994D02*
X293176D01*
X288976D02*
X289675D01*
X290975Y-37094D02*
X292876D01*
X290876Y-37194D02*
X292476D01*
X288976D02*
X289675D01*
X290775Y-37294D02*
X292075D01*
X290675Y-37394D02*
X291775D01*
X290675Y-37494D02*
X291576D01*
X290576Y-37594D02*
X291476D01*
X290576Y-37694D02*
X291375D01*
X290476Y-37794D02*
X291276D01*
X290476Y-37894D02*
X291176D01*
X290476Y-37994D02*
X291176D01*
X290476Y-38094D02*
X291176D01*
X290476Y-38194D02*
X291176D01*
X290476Y-38294D02*
X291176D01*
X290476Y-38394D02*
X291176D01*
X290476Y-38494D02*
X291176D01*
X290576Y-38594D02*
X291276D01*
X290576Y-38694D02*
X291375D01*
X290576Y-38794D02*
X291476D01*
X290675Y-38894D02*
X291675D01*
X290775Y-38994D02*
X291975D01*
X291075Y-39294D02*
X293675D01*
X291476Y-39494D02*
X293275D01*
X288675Y-35694D02*
X289375D01*
X285276D02*
X285976D01*
X288675Y-35794D02*
X289475D01*
X285175D02*
X285976D01*
X288775Y-35894D02*
X289475D01*
X285175D02*
X285876D01*
X288775Y-35994D02*
X289576D01*
X285175D02*
X285876D01*
X288876Y-36094D02*
X289576D01*
X285075D02*
X285775D01*
X288876Y-36194D02*
X289576D01*
X285075D02*
X285775D01*
X288876Y-36294D02*
X289576D01*
X285075D02*
X285775D01*
X288876Y-36394D02*
X289576D01*
X285075D02*
X285775D01*
X288976Y-36494D02*
X289576D01*
X288976Y-36594D02*
X289576D01*
X285075Y-36794D02*
X285676D01*
X285075Y-36894D02*
X285676D01*
X288976Y-37094D02*
X289675D01*
X285075D02*
X285676D01*
X285075Y-37194D02*
X285676D01*
X288976Y-37294D02*
X289576D01*
X285075D02*
X285676D01*
X288976Y-37394D02*
X289576D01*
X288976Y-37494D02*
X289576D01*
X285075D02*
X285775D01*
X288876Y-37594D02*
X289576D01*
X285075D02*
X285775D01*
X288876Y-37694D02*
X289576D01*
X285075D02*
X285775D01*
X283276Y-35594D02*
X283875D01*
X283276Y-35694D02*
X283875D01*
X283276Y-35794D02*
X283875D01*
X283276Y-35894D02*
X283875D01*
X283276Y-35994D02*
X283875D01*
X283276Y-36094D02*
X283875D01*
X283276Y-36194D02*
X283875D01*
X281175D02*
X281875D01*
X283276Y-36294D02*
X283875D01*
X281175D02*
X281875D01*
X283276Y-36394D02*
X283875D01*
X285075Y-36494D02*
X285676D01*
X283276D02*
X283875D01*
X285075Y-36594D02*
X285676D01*
X283276D02*
X283875D01*
X285075Y-36694D02*
X285676D01*
X283276D02*
X283875D01*
X281175D02*
X281875D01*
X283276Y-36794D02*
X283875D01*
X283276Y-36894D02*
X283875D01*
X285075Y-36994D02*
X285676D01*
X283276D02*
X283875D01*
X281175D02*
X281875D01*
X283276Y-37094D02*
X283875D01*
X281175D02*
X281875D01*
X283276Y-37194D02*
X283875D01*
X283276Y-37294D02*
X283875D01*
X281175D02*
X281875D01*
X285075Y-37394D02*
X285676D01*
X283276D02*
X283875D01*
X283276Y-37494D02*
X283875D01*
X283276Y-37594D02*
X283875D01*
X288876Y-37794D02*
X289576D01*
X288876Y-37894D02*
X289576D01*
X288775Y-37994D02*
X289475D01*
X288775Y-38094D02*
X289475D01*
X288675Y-38194D02*
X289475D01*
X288675Y-38294D02*
X289375D01*
X288576Y-38394D02*
X289375D01*
X288475Y-38494D02*
X289276D01*
X288375Y-38594D02*
X289276D01*
X285375D02*
X286276D01*
X288276Y-38694D02*
X289176D01*
X285475D02*
X286375D01*
X285576Y-38794D02*
X286475D01*
X288176D02*
X289075D01*
X285676Y-38894D02*
X286676D01*
X287976D02*
X288976D01*
X287675Y-38994D02*
X288976D01*
X285775D02*
X286976D01*
X285876Y-39094D02*
X288876D01*
X285976Y-39194D02*
X288675D01*
X286075Y-39294D02*
X288576D01*
X286276Y-39394D02*
X288375D01*
X286475Y-39494D02*
X288176D01*
X286976Y-39594D02*
X287775D01*
X283276Y-37694D02*
X283875D01*
X283276Y-37794D02*
X283875D01*
X285075D02*
X285775D01*
X285175Y-37894D02*
X285876D01*
X283276D02*
X283875D01*
X285175Y-37994D02*
X285876D01*
X283276D02*
X283875D01*
X281175D02*
X281875D01*
X281175Y-38094D02*
X281875D01*
X283276D02*
X283875D01*
X285175D02*
X285876D01*
X285276Y-38194D02*
X285976D01*
X283276D02*
X283875D01*
X281175D02*
X281875D01*
X285276Y-38294D02*
X286075D01*
X283276D02*
X283875D01*
X285276Y-38394D02*
X286075D01*
X283276D02*
X283875D01*
X285375Y-38494D02*
X286175D01*
X283276D02*
X283875D01*
X283276Y-38594D02*
X283875D01*
X283276Y-38694D02*
X283875D01*
X283276Y-38794D02*
X283875D01*
X283276Y-38894D02*
X283875D01*
X283276Y-38994D02*
X283875D01*
X283276Y-39094D02*
X283875D01*
X283276Y-39194D02*
X283875D01*
X283276Y-39294D02*
X283875D01*
X283276Y-39394D02*
X283875D01*
X283276Y-39494D02*
X283875D01*
X280276Y-28494D02*
X280875D01*
X280276Y-28594D02*
X280875D01*
X280276Y-28694D02*
X280875D01*
X280276Y-28794D02*
X280875D01*
X280276Y-28894D02*
X280875D01*
X280276Y-28994D02*
X280875D01*
X280276Y-29094D02*
X280875D01*
X280276Y-29194D02*
X280875D01*
X280276Y-29294D02*
X280875D01*
X280276Y-29394D02*
X280875D01*
X280175Y-27994D02*
X280875D01*
X280175Y-28094D02*
X280875D01*
X280175Y-28294D02*
X280875D01*
X280175Y-28194D02*
X280875D01*
X280175Y-28394D02*
X280875D01*
X280175Y-29494D02*
X280875D01*
X280175Y-29594D02*
X280875D01*
X280175Y-29694D02*
X280875D01*
X280175Y-29794D02*
X280875D01*
X280175Y-29894D02*
X280875D01*
X280076Y-27894D02*
X280875D01*
X280076Y-29994D02*
X280775D01*
X280076Y-30094D02*
X280775D01*
X276776D02*
X277476D01*
X276776Y-28294D02*
X277376D01*
X276776Y-28394D02*
X277376D01*
X276776Y-28994D02*
X277376D01*
X276776Y-29094D02*
X277376D01*
X276776Y-29494D02*
X277376D01*
X276776Y-29694D02*
X277376D01*
X276776Y-29794D02*
X277376D01*
X281175Y-34594D02*
X281875D01*
X281175Y-34694D02*
X281875D01*
X279976Y-30194D02*
X280775D01*
X279976Y-30294D02*
X280676D01*
X279875Y-30394D02*
X280676D01*
X279875Y-30494D02*
X280575D01*
X279776Y-30594D02*
X280575D01*
X279676Y-30694D02*
X280475D01*
X279475Y-30794D02*
X280475D01*
X279275Y-30894D02*
X280376D01*
X278275Y-31494D02*
X279575D01*
X277676Y-31194D02*
X280076D01*
X277476Y-30994D02*
X280276D01*
X277575Y-31094D02*
X280175D01*
X277976Y-31394D02*
X279776D01*
X277776Y-31294D02*
X279976D01*
X277976Y-34494D02*
X278575D01*
X277976Y-34594D02*
X278575D01*
X277976Y-34694D02*
X278575D01*
X277976Y-35094D02*
X278575D01*
X277976Y-34394D02*
X278575D01*
X277976Y-34794D02*
X278575D01*
X277976Y-34894D02*
X278575D01*
X277976Y-34994D02*
X278575D01*
X276776Y-30894D02*
X278275D01*
X276776Y-30794D02*
X278076D01*
X276776Y-30694D02*
X277875D01*
X276776Y-30594D02*
X277776D01*
X276776Y-30494D02*
X277676D01*
X276776Y-30294D02*
X277575D01*
X276776Y-30394D02*
X277575D01*
X276776Y-30194D02*
X277476D01*
X276776Y-28694D02*
X277376D01*
X276776Y-28494D02*
X277376D01*
X276776Y-28094D02*
X277376D01*
X276776Y-28794D02*
X277376D01*
X276776Y-27994D02*
X277376D01*
X276776Y-27894D02*
X277376D01*
X276776Y-28894D02*
X277376D01*
X276776Y-28194D02*
X277376D01*
X276776Y-28594D02*
X277376D01*
X276776Y-29194D02*
X277376D01*
X276776Y-29294D02*
X277376D01*
X276776Y-29594D02*
X277376D01*
X274776Y-27894D02*
X275376D01*
X274675Y-27994D02*
X275376D01*
X274675Y-28194D02*
X275376D01*
X274675Y-28094D02*
X275376D01*
X274675Y-28294D02*
X275275D01*
X274575Y-28394D02*
X275275D01*
X274575Y-28494D02*
X275275D01*
X274575Y-28594D02*
X275175D01*
X274476Y-28694D02*
X275175D01*
X274476Y-28894D02*
X275175D01*
X274476Y-28794D02*
X275175D01*
X274476Y-28994D02*
X275076D01*
X274376Y-29094D02*
X275076D01*
X274376Y-29194D02*
X275076D01*
X274376Y-29294D02*
X274975D01*
X274376Y-29394D02*
X274975D01*
X274275Y-29494D02*
X274975D01*
X274275Y-29594D02*
X274875D01*
X274275Y-29694D02*
X274875D01*
X274176Y-29794D02*
X274875D01*
X276776Y-29894D02*
X277376D01*
X276776Y-29994D02*
X277376D01*
X276776Y-31394D02*
X277376D01*
X276776Y-30994D02*
X277376D01*
X276776Y-31094D02*
X277376D01*
X276776Y-31294D02*
X277376D01*
X276776Y-31194D02*
X277376D01*
X275676Y-34994D02*
X276275D01*
X275676Y-34094D02*
X276275D01*
X275676Y-34294D02*
X276275D01*
X275676Y-33994D02*
X276275D01*
X275676Y-33594D02*
X276275D01*
X275676Y-33894D02*
X276275D01*
X275676Y-33494D02*
X276275D01*
X275676Y-33694D02*
X276275D01*
X275676Y-35194D02*
X276275D01*
X275676Y-33294D02*
X276275D01*
X275676Y-33194D02*
X276275D01*
X275676Y-33794D02*
X276275D01*
X275676Y-34194D02*
X276275D01*
X275676Y-35094D02*
X276275D01*
X275676Y-33394D02*
X276275D01*
X274575Y-34494D02*
X277275D01*
X274575Y-34594D02*
X277275D01*
X274575Y-34694D02*
X277275D01*
X274575Y-34794D02*
X277275D01*
X274575Y-34394D02*
X277275D01*
X274575Y-34894D02*
X277275D01*
X274176Y-29894D02*
X274875D01*
X274176Y-29994D02*
X274776D01*
X274176Y-30094D02*
X274776D01*
X274076Y-30194D02*
X274776D01*
X281175Y-37194D02*
X281875D01*
X281175Y-36894D02*
X281875D01*
X281175Y-35994D02*
X281875D01*
X281175Y-37394D02*
X281875D01*
X281175Y-35494D02*
X281875D01*
X281175Y-36794D02*
X281875D01*
X281175Y-35894D02*
X281875D01*
X281175Y-35594D02*
X281875D01*
X281175Y-35794D02*
X281875D01*
X281175Y-35694D02*
X281875D01*
X281175Y-36594D02*
X281875D01*
X281175Y-36094D02*
X281875D01*
X281175Y-36494D02*
X281875D01*
X281175Y-36394D02*
X281875D01*
X281175Y-37494D02*
X281875D01*
X281175Y-37594D02*
X281875D01*
X281175Y-37694D02*
X281875D01*
X277976Y-36194D02*
X278575D01*
X277976Y-37194D02*
X278575D01*
X277976Y-37094D02*
X278575D01*
X277976Y-36294D02*
X278575D01*
X277976Y-35594D02*
X278575D01*
X277976Y-37394D02*
X278575D01*
X277976Y-37294D02*
X278575D01*
X277976Y-35894D02*
X278575D01*
X277976Y-36994D02*
X278575D01*
X277976Y-36494D02*
X278575D01*
X277976Y-35994D02*
X278575D01*
X277976Y-36094D02*
X278575D01*
X277976Y-35694D02*
X278575D01*
X277976Y-35794D02*
X278575D01*
X277976Y-37594D02*
X278575D01*
X281175Y-37794D02*
X281875D01*
X281175Y-37894D02*
X281875D01*
X281076Y-38294D02*
X281875D01*
X281076Y-38394D02*
X281775D01*
X281076Y-38494D02*
X281775D01*
X280976Y-38594D02*
X281775D01*
X280875Y-38694D02*
X281676D01*
X280775Y-38794D02*
X281676D01*
X280676Y-38894D02*
X281575D01*
X280376Y-38994D02*
X281575D01*
X279776Y-39594D02*
X280575D01*
X279275Y-39494D02*
X280976D01*
X279076Y-39394D02*
X281175D01*
X278676Y-39094D02*
X281475D01*
X278776Y-39194D02*
X281376D01*
X278875Y-39294D02*
X281276D01*
X277976Y-38994D02*
X279676D01*
X277976Y-38894D02*
X279376D01*
X277976Y-38794D02*
X279175D01*
X277976Y-38694D02*
X279076D01*
X277976Y-38594D02*
X278976D01*
X277976Y-38494D02*
X278875D01*
X277976Y-38294D02*
X278776D01*
X277976Y-38394D02*
X278776D01*
X277976Y-38094D02*
X278676D01*
X277976Y-38194D02*
X278676D01*
X277976Y-39094D02*
X278575D01*
X277976Y-39394D02*
X278575D01*
X277976Y-39494D02*
X278575D01*
X277976Y-36894D02*
X278575D01*
X277976Y-36694D02*
X278575D01*
X277976Y-36794D02*
X278575D01*
X277976Y-35494D02*
X278575D01*
X277976Y-36394D02*
X278575D01*
X277976Y-36594D02*
X278575D01*
X277976Y-35394D02*
X278575D01*
X277976Y-35294D02*
X278575D01*
X277976Y-35194D02*
X278575D01*
X275676Y-36094D02*
X276275D01*
X275676Y-36894D02*
X276275D01*
X275676Y-36694D02*
X276275D01*
X275676Y-35994D02*
X276275D01*
X275676Y-37194D02*
X276275D01*
X275676Y-36194D02*
X276275D01*
X275676Y-36794D02*
X276275D01*
X275676Y-35794D02*
X276275D01*
X275676Y-37394D02*
X276275D01*
X275676Y-35594D02*
X276275D01*
X275676Y-35894D02*
X276275D01*
X275676Y-36294D02*
X276275D01*
X275676Y-36994D02*
X276275D01*
X275676Y-36394D02*
X276275D01*
X275676Y-35294D02*
X276275D01*
X275676Y-37094D02*
X276275D01*
X275676Y-37294D02*
X276275D01*
X275676Y-35394D02*
X276275D01*
X275676Y-35694D02*
X276275D01*
X275676Y-35494D02*
X276275D01*
X275676Y-36494D02*
X276275D01*
X275676Y-36594D02*
X276275D01*
X275676Y-37494D02*
X276275D01*
X277976D02*
X278575D01*
X277976Y-39294D02*
X278575D01*
X277976Y-37994D02*
X278575D01*
X277976Y-37794D02*
X278575D01*
X277976Y-37894D02*
X278575D01*
X277976Y-37694D02*
X278575D01*
X277976Y-39194D02*
X278575D01*
X275676Y-38294D02*
X276275D01*
X275676Y-38494D02*
X276275D01*
X275676Y-38094D02*
X276275D01*
X275676Y-37994D02*
X276275D01*
X275676Y-37894D02*
X276275D01*
X275676Y-37794D02*
X276275D01*
X275676Y-37694D02*
X276275D01*
X275676Y-37594D02*
X276275D01*
X275676Y-38394D02*
X276275D01*
X275676Y-38194D02*
X276275D01*
X275575Y-38694D02*
X276275D01*
X275575Y-38594D02*
X276275D01*
X275575Y-38794D02*
X276275D01*
X275476Y-38894D02*
X276275D01*
X275275Y-38994D02*
X276175D01*
X274575Y-39094D02*
X276175D01*
X274575Y-39194D02*
X276076D01*
X274575Y-39294D02*
X276076D01*
X274476Y-39394D02*
X275975D01*
X274776Y-39594D02*
X275476D01*
X274476Y-39494D02*
X275776D01*
X274575Y-38994D02*
X274675D01*
X274076Y-16394D02*
X274776D01*
X274076Y-16494D02*
X274776D01*
X274076Y-16594D02*
X274776D01*
X274076Y-16694D02*
X274776D01*
X274076Y-16794D02*
X274776D01*
X274076Y-16894D02*
X274776D01*
X274076Y-17094D02*
X274776D01*
X274076Y-17194D02*
X274776D01*
X274076Y-17294D02*
X274776D01*
X274076Y-17394D02*
X274776D01*
X273076Y-17494D02*
X275676D01*
X273076Y-17594D02*
X275676D01*
X271275D02*
X271975D01*
X273076Y-17694D02*
X275676D01*
X271275D02*
X271975D01*
X273076Y-17794D02*
X275676D01*
X273076Y-17894D02*
X275676D01*
X273076Y-17994D02*
X275676D01*
X274076Y-18194D02*
X274776D01*
X274076Y-18294D02*
X274776D01*
X274076Y-18494D02*
X274776D01*
X274076Y-18594D02*
X274776D01*
X274076Y-18694D02*
X274776D01*
X274076Y-18794D02*
X274776D01*
X274076Y-18894D02*
X274776D01*
X274076Y-18994D02*
X274776D01*
X274076Y-19094D02*
X274776D01*
X274076Y-19394D02*
X274776D01*
X274076Y-19494D02*
X274776D01*
X274076Y-19594D02*
X274776D01*
X274076Y-19694D02*
X274776D01*
X271375Y-15694D02*
X271876D01*
X271275Y-15794D02*
X271975D01*
X271176Y-15894D02*
X272076D01*
X271176Y-15994D02*
X272076D01*
X271176Y-16094D02*
X272076D01*
X271176Y-16194D02*
X272076D01*
X271176Y-16294D02*
X271975D01*
X271275Y-16394D02*
X271975D01*
X271476Y-16494D02*
X271776D01*
X271275Y-17494D02*
X271975D01*
X271275Y-17794D02*
X271975D01*
X271275Y-17894D02*
X271975D01*
X271275Y-17994D02*
X271975D01*
X271275Y-18094D02*
X271975D01*
X271275Y-18194D02*
X271975D01*
X271275Y-18294D02*
X271975D01*
X271275Y-18394D02*
X271975D01*
X271275Y-18494D02*
X271975D01*
X271275Y-18594D02*
X271975D01*
X271275Y-18694D02*
X271975D01*
X271275Y-18794D02*
X271975D01*
X271275Y-18894D02*
X271975D01*
X271275Y-18994D02*
X271975D01*
X271275Y-19094D02*
X271975D01*
X271275Y-19194D02*
X271975D01*
X271275Y-19294D02*
X271975D01*
X269476D02*
X270176D01*
X271275Y-19394D02*
X271975D01*
X271275Y-19494D02*
X271975D01*
X271275Y-19594D02*
X271975D01*
X271275Y-19694D02*
X271975D01*
X271275Y-19794D02*
X271975D01*
X271275Y-19894D02*
X271975D01*
X274076Y-20394D02*
X274776D01*
X274076Y-20494D02*
X274776D01*
X274076Y-20694D02*
X274776D01*
X274076Y-20794D02*
X274776D01*
X274076Y-20894D02*
X274776D01*
X274076Y-20994D02*
X274776D01*
X274076Y-21094D02*
X274776D01*
X274076Y-21194D02*
X274776D01*
X274076Y-21294D02*
X274776D01*
X274076Y-21394D02*
X274776D01*
X274076Y-21494D02*
X274776D01*
X273975Y-21894D02*
X274776D01*
X273875Y-21994D02*
X274675D01*
X273675Y-22094D02*
X274675D01*
X272975D02*
X273275D01*
X272975Y-22194D02*
X274675D01*
X272975Y-22294D02*
X274575D01*
X272975Y-22394D02*
X274476D01*
X272975Y-22494D02*
X274376D01*
X272975Y-22594D02*
X274275D01*
X273275Y-22694D02*
X273875D01*
X272176Y-26394D02*
X272776D01*
X272176Y-26494D02*
X272875D01*
X272176Y-26594D02*
X272875D01*
X272076Y-26694D02*
X272875D01*
X272076Y-26794D02*
X272975D01*
X272076Y-26894D02*
X272975D01*
X271975Y-26994D02*
X272975D01*
X271975Y-27094D02*
X273076D01*
X271975Y-27194D02*
X273076D01*
X271876Y-27294D02*
X273076D01*
X271275Y-19994D02*
X271975D01*
X269476D02*
X270176D01*
X271275Y-20094D02*
X271975D01*
X271275Y-20194D02*
X271975D01*
X271275Y-20294D02*
X271975D01*
X271275Y-20394D02*
X271975D01*
X269476D02*
X270176D01*
X271275Y-20494D02*
X271975D01*
X271275Y-20594D02*
X271975D01*
X269476D02*
X270176D01*
X271275Y-20694D02*
X271975D01*
X269476D02*
X270176D01*
X271275Y-20794D02*
X271975D01*
X269476D02*
X270176D01*
X271275Y-20894D02*
X271975D01*
X271275Y-20994D02*
X271975D01*
X271275Y-21094D02*
X271975D01*
X271275Y-21194D02*
X271975D01*
X271275Y-21294D02*
X271975D01*
X271275Y-21394D02*
X271975D01*
X271275Y-21494D02*
X271975D01*
X271275Y-21594D02*
X271975D01*
X271275Y-21694D02*
X271975D01*
X271275Y-21794D02*
X271975D01*
X271275Y-21894D02*
X271975D01*
X271275Y-21994D02*
X271975D01*
X271275Y-22094D02*
X271975D01*
X271275Y-22194D02*
X271975D01*
X271275Y-22294D02*
X271975D01*
X271275Y-22394D02*
X271975D01*
X271275Y-22494D02*
X271975D01*
X271275Y-22594D02*
X271975D01*
X267776Y-17394D02*
X268176D01*
X267176Y-17494D02*
X268776D01*
X266975Y-17594D02*
X268975D01*
X266775Y-17694D02*
X269176D01*
X266675Y-17794D02*
X269275D01*
X266576Y-17894D02*
X269375D01*
X268275Y-17994D02*
X269476D01*
X266476D02*
X267675D01*
X268576Y-18094D02*
X269576D01*
X268776Y-18194D02*
X269675D01*
X268876Y-18294D02*
X269776D01*
X268975Y-18394D02*
X269776D01*
X269075Y-18494D02*
X269876D01*
X269176Y-18594D02*
X269876D01*
X269176Y-18694D02*
X269975D01*
X269275Y-18794D02*
X269975D01*
X269275Y-18894D02*
X270075D01*
X269375Y-18994D02*
X270075D01*
X269375Y-19094D02*
X270075D01*
X269375Y-19194D02*
X270075D01*
X269476Y-19394D02*
X270176D01*
X269476Y-19494D02*
X270176D01*
X269476Y-19594D02*
X270176D01*
X269476Y-19694D02*
X270176D01*
X269476Y-19794D02*
X270176D01*
X269476Y-19894D02*
X270176D01*
X269476Y-20094D02*
X270176D01*
X269476Y-20194D02*
X270176D01*
X269476Y-20294D02*
X270176D01*
X269476Y-20494D02*
X270176D01*
X269476Y-20894D02*
X270075D01*
X269375Y-20994D02*
X270075D01*
X263576Y-17994D02*
X264775D01*
X266375Y-18094D02*
X267375D01*
X263876D02*
X264876D01*
X266276Y-18194D02*
X267176D01*
X264075D02*
X264976D01*
X266276Y-18294D02*
X267075D01*
X264176D02*
X264976D01*
X266176Y-18394D02*
X266975D01*
X264276D02*
X264976D01*
X266176Y-18494D02*
X266876D01*
X264375D02*
X265075D01*
X266075Y-18594D02*
X266876D01*
X264375D02*
X265075D01*
X266075Y-18694D02*
X266775D01*
X264375D02*
X265075D01*
X266075Y-18794D02*
X266775D01*
X264375D02*
X265075D01*
X265975Y-18894D02*
X266675D01*
X264375D02*
X265075D01*
X265975Y-18994D02*
X266675D01*
X264375D02*
X265075D01*
X265975Y-19094D02*
X266675D01*
X264375D02*
X265075D01*
X265975Y-19194D02*
X266675D01*
X264276D02*
X265075D01*
X264176Y-19294D02*
X264976D01*
X264075Y-19394D02*
X264976D01*
X263775Y-19494D02*
X264876D01*
X263576Y-19594D02*
X264775D01*
X263176Y-19694D02*
X264675D01*
X262775Y-19794D02*
X264576D01*
X262475Y-19894D02*
X264475D01*
X269375Y-21094D02*
X270075D01*
X269375Y-21194D02*
X270075D01*
X269275Y-21294D02*
X269975D01*
X269275Y-21394D02*
X269975D01*
X269176Y-21494D02*
X269876D01*
X269075Y-21594D02*
X269876D01*
X268975Y-21694D02*
X269776D01*
X268876Y-21794D02*
X269776D01*
X268776Y-21894D02*
X269675D01*
X268576Y-21994D02*
X269576D01*
X268375Y-22094D02*
X269576D01*
X266476D02*
X267576D01*
X266576Y-22194D02*
X269476D01*
X266675Y-22294D02*
X269275D01*
X266775Y-22394D02*
X269176D01*
X266975Y-22494D02*
X268975D01*
X267276Y-22594D02*
X268776D01*
X267675Y-22694D02*
X268275D01*
X269176Y-26394D02*
X269876D01*
X269176Y-26494D02*
X269876D01*
X269176Y-26594D02*
X269876D01*
X269275Y-26694D02*
X269975D01*
X269275Y-26794D02*
X269975D01*
X269275Y-26894D02*
X269975D01*
X266876D02*
X267975D01*
X269375Y-26994D02*
X270075D01*
X267176D02*
X268075D01*
X269375Y-27094D02*
X270075D01*
X267276D02*
X268176D01*
X269375Y-27194D02*
X270075D01*
X267375D02*
X268275D01*
X267476Y-27294D02*
X268275D01*
X265975Y-20994D02*
X266675D01*
X265975Y-21094D02*
X266675D01*
X265975Y-21194D02*
X266675D01*
X264576D02*
X265276D01*
X265975Y-21294D02*
X266675D01*
X264576D02*
X265276D01*
X266075Y-21394D02*
X266775D01*
X264475D02*
X265176D01*
X266075Y-21494D02*
X266775D01*
X264475D02*
X265176D01*
X266075Y-21594D02*
X266876D01*
X264375D02*
X265176D01*
X266176Y-21694D02*
X266975D01*
X264375D02*
X265176D01*
X266176Y-21794D02*
X267075D01*
X264276D02*
X265075D01*
X266276Y-21894D02*
X267176D01*
X264075D02*
X265075D01*
X266375Y-21994D02*
X267375D01*
X263976D02*
X264976D01*
X263576Y-22094D02*
X264876D01*
X265876Y-26294D02*
X266876D01*
X265476Y-26394D02*
X267276D01*
X265276Y-26494D02*
X267476D01*
X265075Y-26594D02*
X267675D01*
X264976Y-26694D02*
X267776D01*
X264876Y-26794D02*
X267876D01*
X264775Y-26894D02*
X265876D01*
X264775Y-26994D02*
X265675D01*
X264675Y-27094D02*
X265576D01*
X264675Y-27194D02*
X265375D01*
X264576Y-27294D02*
X265375D01*
X271876Y-27394D02*
X273076D01*
X272575Y-27494D02*
X273176D01*
X271876D02*
X272476D01*
X272575Y-27594D02*
X273176D01*
X271876D02*
X272476D01*
X272575Y-27694D02*
X273176D01*
X271776D02*
X272476D01*
X272675Y-27794D02*
X273275D01*
X272675Y-27894D02*
X273275D01*
X271776D02*
X272375D01*
X272675Y-27994D02*
X273275D01*
X272675Y-28094D02*
X273376D01*
X272776Y-28194D02*
X273376D01*
X272776Y-28294D02*
X273376D01*
X272776Y-28394D02*
X273476D01*
X272875Y-28494D02*
X273476D01*
X272875Y-28594D02*
X273476D01*
X272875Y-28694D02*
X273575D01*
X272975Y-28794D02*
X273575D01*
X272975Y-28894D02*
X273575D01*
X272975Y-28994D02*
X273675D01*
X273076Y-29094D02*
X273675D01*
X273076Y-29194D02*
X273675D01*
X273076Y-29294D02*
X273675D01*
X273176Y-29394D02*
X273776D01*
X273176Y-29494D02*
X273776D01*
X273176Y-29594D02*
X273776D01*
X273275Y-29694D02*
X273875D01*
X273275Y-29794D02*
X273875D01*
X273275Y-29894D02*
X273875D01*
X273376Y-29994D02*
X273975D01*
X273376Y-30094D02*
X273975D01*
X271776Y-27794D02*
X272375D01*
X271675Y-27994D02*
X272375D01*
X271675Y-28094D02*
X272275D01*
X271675Y-28194D02*
X272275D01*
X271575Y-28294D02*
X272275D01*
X271575Y-28394D02*
X272176D01*
X271575Y-28494D02*
X272176D01*
X271476Y-28594D02*
X272176D01*
X271476Y-28694D02*
X272076D01*
X271476Y-28794D02*
X272076D01*
X271375Y-28894D02*
X272076D01*
X271375Y-28994D02*
X271975D01*
X271375Y-29094D02*
X271975D01*
X271375Y-29194D02*
X271975D01*
X269975D02*
X270575D01*
X271275Y-29294D02*
X271975D01*
X269975D02*
X270675D01*
X271275Y-29394D02*
X271876D01*
X270075D02*
X270675D01*
X271275Y-29494D02*
X271876D01*
X270075D02*
X270675D01*
X270075Y-29594D02*
X270675D01*
X271176D02*
X271876D01*
X270075Y-29694D02*
X270776D01*
X271176D02*
X271776D01*
X270176Y-29794D02*
X270776D01*
X271176D02*
X271776D01*
X271076Y-29894D02*
X271776D01*
X270176D02*
X270776D01*
X271076Y-29994D02*
X271675D01*
X270176D02*
X270876D01*
X271076Y-30094D02*
X271675D01*
X273376Y-30194D02*
X273975D01*
X273376Y-30294D02*
X274675D01*
X273476Y-30394D02*
X274675D01*
X273476Y-30494D02*
X274675D01*
X273476Y-30594D02*
X274675D01*
X273575Y-30694D02*
X274575D01*
X273575Y-30794D02*
X274575D01*
X273575Y-30894D02*
X274575D01*
X273675Y-30994D02*
X274476D01*
X273675Y-31094D02*
X274476D01*
X273675Y-31194D02*
X274476D01*
X273776Y-31294D02*
X274476D01*
X273776Y-31394D02*
X274376D01*
X272975Y-32594D02*
X273376D01*
X272776Y-32794D02*
X273575D01*
X272776Y-33094D02*
X273575D01*
X272776Y-33194D02*
X273575D01*
X272875Y-34494D02*
X273476D01*
X272875Y-34594D02*
X273476D01*
X272875Y-34694D02*
X273476D01*
X272875Y-34794D02*
X273476D01*
X272875Y-34894D02*
X273476D01*
X272875Y-34994D02*
X273476D01*
X272875Y-35094D02*
X273476D01*
X272875Y-35194D02*
X273476D01*
X272875Y-35294D02*
X273476D01*
X272875Y-35394D02*
X273476D01*
X272875Y-35494D02*
X273476D01*
X272875Y-35594D02*
X273476D01*
X272875Y-35694D02*
X273476D01*
X272875Y-35794D02*
X273476D01*
X272875Y-35894D02*
X273476D01*
X270275Y-30094D02*
X270876D01*
X270975Y-30194D02*
X271675D01*
X270275D02*
X270876D01*
X270975Y-30294D02*
X271575D01*
X270275D02*
X270876D01*
X270375Y-30394D02*
X271575D01*
X270375Y-30494D02*
X271575D01*
X270375Y-30594D02*
X271476D01*
X270375Y-30694D02*
X271476D01*
X270476Y-30794D02*
X271476D01*
X270476Y-30894D02*
X271375D01*
X270476Y-30994D02*
X271375D01*
X270575Y-31094D02*
X271375D01*
X270575Y-31194D02*
X271275D01*
X270575Y-31294D02*
X271275D01*
X270575Y-31394D02*
X271275D01*
X272776Y-32694D02*
X273476D01*
X272675Y-32894D02*
X273575D01*
X272675Y-32994D02*
X273575D01*
X272776Y-33294D02*
X273476D01*
X272975Y-33394D02*
X273275D01*
X272875Y-34394D02*
X273476D01*
X269675Y-34894D02*
X270975D01*
X269975Y-34994D02*
X271076D01*
X270176Y-35094D02*
X271176D01*
X270375Y-35194D02*
X271275D01*
X270476Y-35294D02*
X271275D01*
X270575Y-35394D02*
X271375D01*
X270675Y-35494D02*
X271476D01*
X270675Y-35594D02*
X271476D01*
X270776Y-35694D02*
X271476D01*
X270776Y-35794D02*
X271575D01*
X269375Y-27294D02*
X270075D01*
X269476Y-27394D02*
X270176D01*
X267576D02*
X268275D01*
X269476Y-27494D02*
X270176D01*
X267675D02*
X268375D01*
X269476Y-27594D02*
X270176D01*
X267675D02*
X268375D01*
X269576Y-27694D02*
X270176D01*
X267675D02*
X268375D01*
X269576Y-27794D02*
X270275D01*
X267675D02*
X268375D01*
X269576Y-27894D02*
X270275D01*
X269675Y-27994D02*
X270275D01*
X269675Y-28094D02*
X270275D01*
X269675Y-28194D02*
X270375D01*
X269675Y-28294D02*
X270375D01*
X269776Y-28394D02*
X270375D01*
X269776Y-28494D02*
X270476D01*
X269776Y-28594D02*
X270476D01*
X269876Y-28694D02*
X270476D01*
X269876Y-28794D02*
X270476D01*
X269876Y-28894D02*
X270575D01*
X269876Y-28994D02*
X270575D01*
X269975Y-29094D02*
X270575D01*
X267476Y-29394D02*
X268375D01*
X267576Y-29494D02*
X268375D01*
X267675Y-29594D02*
X268375D01*
X267776Y-29694D02*
X268476D01*
X267776Y-29794D02*
X268476D01*
X267776Y-29894D02*
X268476D01*
X267776Y-29994D02*
X268476D01*
X267776Y-30094D02*
X268476D01*
X264576Y-27394D02*
X265276D01*
X264576Y-27494D02*
X265276D01*
X264475Y-27594D02*
X265176D01*
X264475Y-27694D02*
X265176D01*
X264475Y-27794D02*
X265176D01*
X264475Y-27894D02*
X265176D01*
X264475Y-27994D02*
X265176D01*
X264475Y-28094D02*
X265176D01*
X264475Y-28194D02*
X265176D01*
X264475Y-28294D02*
X265176D01*
X264475Y-28394D02*
X265176D01*
X264475Y-28494D02*
X266775D01*
X264475Y-28594D02*
X267276D01*
X264475Y-28694D02*
X267576D01*
X264475Y-28794D02*
X267776D01*
X264475Y-28894D02*
X267876D01*
X264475Y-28994D02*
X265176D01*
X266375D02*
X267975D01*
X264475Y-29094D02*
X265176D01*
X266876D02*
X268075D01*
X267176Y-29194D02*
X268176D01*
X264475D02*
X265176D01*
X267375Y-29294D02*
X268275D01*
X264475D02*
X265176D01*
X264475Y-29394D02*
X265176D01*
X264475Y-29494D02*
X265176D01*
X264475Y-29594D02*
X265176D01*
X264475Y-29694D02*
X265176D01*
X264475Y-29794D02*
X265176D01*
X264475Y-29894D02*
X265176D01*
X264475Y-29994D02*
X265176D01*
X264475Y-30094D02*
X265176D01*
X267776Y-30194D02*
X268476D01*
X267776Y-30294D02*
X268476D01*
X267776Y-30394D02*
X268476D01*
X267675Y-30494D02*
X268476D01*
X267576Y-30594D02*
X268375D01*
X267476Y-30694D02*
X268375D01*
X267375Y-30794D02*
X268375D01*
X267176Y-30894D02*
X268275D01*
X265276Y-30994D02*
X268176D01*
X265375Y-31094D02*
X268075D01*
X265476Y-31194D02*
X267975D01*
X265675Y-31294D02*
X267876D01*
X265876Y-31394D02*
X267675D01*
X266176Y-31494D02*
X267476D01*
X268675Y-34394D02*
X270176D01*
X265476D02*
X266075D01*
X268476Y-34494D02*
X270375D01*
X268275Y-34594D02*
X270575D01*
X265476D02*
X266075D01*
X268075Y-34694D02*
X270776D01*
X267975Y-34794D02*
X270876D01*
X267876Y-34894D02*
X269176D01*
X265476D02*
X266075D01*
X267776Y-34994D02*
X268876D01*
X267675Y-35094D02*
X268675D01*
X267576Y-35194D02*
X268476D01*
X267576Y-35294D02*
X268375D01*
X267476Y-35394D02*
X268275D01*
X267476Y-35494D02*
X268275D01*
X267375Y-35594D02*
X268176D01*
X267375Y-35694D02*
X268075D01*
X267276Y-35794D02*
X268075D01*
X264475Y-30194D02*
X265276D01*
X264475Y-30294D02*
X265375D01*
X264475Y-30394D02*
X265375D01*
X264475Y-30494D02*
X265476D01*
X264475Y-30594D02*
X265675D01*
X264475Y-30694D02*
X265775D01*
X264475Y-30794D02*
X265975D01*
X264475Y-30894D02*
X266176D01*
X264475Y-30994D02*
X265176D01*
X264375Y-31094D02*
X265075D01*
X264375Y-31194D02*
X265075D01*
X264375Y-31294D02*
X265075D01*
X264375Y-31394D02*
X265075D01*
X263176Y-34394D02*
X264475D01*
X265476Y-34494D02*
X266075D01*
X262876D02*
X264775D01*
X262775Y-34594D02*
X264876D01*
X265476Y-34694D02*
X266075D01*
X262675D02*
X265075D01*
X265476Y-34794D02*
X266075D01*
X262576D02*
X265176D01*
X264176Y-34894D02*
X265276D01*
X265476Y-34994D02*
X266075D01*
X264475D02*
X265375D01*
X264675Y-35094D02*
X266075D01*
X264876Y-35194D02*
X266075D01*
X264976Y-35294D02*
X266075D01*
X265075Y-35394D02*
X266075D01*
X265075Y-35494D02*
X266075D01*
X265176Y-35594D02*
X266075D01*
X265276Y-35694D02*
X266075D01*
X265276Y-35794D02*
X266075D01*
X262475Y-17494D02*
X264075D01*
X261876Y-17794D02*
X264576D01*
X261976Y-17694D02*
X264475D01*
X262175Y-17594D02*
X264276D01*
X262175Y-19994D02*
X264276D01*
X261775Y-17894D02*
X264675D01*
X262976Y-17394D02*
X263475D01*
X261976Y-20094D02*
X263976D01*
X261876Y-20194D02*
X263675D01*
X261676Y-20294D02*
X263176D01*
X261676Y-17994D02*
X262976D01*
X261576Y-20394D02*
X262876D01*
X261576Y-18094D02*
X262675D01*
X261475Y-20494D02*
X262576D01*
X261475Y-18194D02*
X262475D01*
X261475Y-20594D02*
X262375D01*
X261475Y-18294D02*
X262276D01*
X261375Y-20694D02*
X262276D01*
X261375Y-18394D02*
X262175D01*
X261375Y-18494D02*
X262175D01*
X261375Y-20794D02*
X262175D01*
X261375Y-18594D02*
X262075D01*
X261375Y-18694D02*
X262075D01*
X261375Y-20894D02*
X262075D01*
X261375Y-18794D02*
X261976D01*
X261375Y-18894D02*
X261976D01*
X261276Y-20994D02*
X262075D01*
X261276Y-21094D02*
X261976D01*
X261276Y-21194D02*
X261976D01*
X261276Y-21294D02*
X261976D01*
X261276Y-21394D02*
X261976D01*
X261676Y-22194D02*
X264775D01*
X261775Y-22294D02*
X264675D01*
X261876Y-22394D02*
X264576D01*
X262876Y-22694D02*
X263576D01*
X262375Y-22594D02*
X264075D01*
X262075Y-22494D02*
X264375D01*
X262475Y-26494D02*
X263075D01*
X262475Y-26594D02*
X263075D01*
X262475Y-26694D02*
X263075D01*
X262475Y-26894D02*
X263075D01*
X262475Y-26794D02*
X263075D01*
X262475Y-26394D02*
X263075D01*
X262375Y-27694D02*
X263075D01*
X262276Y-27494D02*
X263075D01*
X262276Y-27594D02*
X263075D01*
X262175Y-27394D02*
X263075D01*
X262075Y-27294D02*
X263075D01*
X261976Y-27194D02*
X263075D01*
X261876Y-27094D02*
X263075D01*
X261676Y-26994D02*
X263075D01*
X261576Y-22094D02*
X262775D01*
X261475Y-21994D02*
X262475D01*
X261475Y-21894D02*
X262375D01*
X261276Y-26894D02*
X262375D01*
X261375Y-21794D02*
X262175D01*
X261375Y-21594D02*
X262075D01*
X261375Y-21694D02*
X262075D01*
X261276Y-21494D02*
X261976D01*
X260676Y-26794D02*
X262375D01*
X260676Y-26694D02*
X262276D01*
X260676Y-26594D02*
X262175D01*
X260676Y-26494D02*
X261976D01*
X260676Y-26394D02*
X261876D01*
X260676Y-26294D02*
X261576D01*
X260676Y-26894D02*
X260976D01*
X259475Y-27794D02*
X260175D01*
X259376Y-27594D02*
X260075D01*
X259376Y-27694D02*
X260075D01*
X259276Y-27494D02*
X259976D01*
X259175Y-27394D02*
X259976D01*
X259075Y-27294D02*
X259875D01*
X258976Y-27194D02*
X259875D01*
X258875Y-27094D02*
X259775D01*
X258775Y-26994D02*
X259676D01*
X258475Y-26894D02*
X259576D01*
X257575Y-26294D02*
X258576D01*
X257276Y-26394D02*
X258875D01*
X257076Y-26494D02*
X259075D01*
X256875Y-26594D02*
X259276D01*
X256775Y-26694D02*
X259376D01*
X256676Y-26794D02*
X259475D01*
X256575Y-26894D02*
X257676D01*
X256475Y-26994D02*
X257475D01*
X256475Y-27094D02*
X257276D01*
X256376Y-27194D02*
X257175D01*
X256276Y-27294D02*
X257076D01*
X256276Y-27394D02*
X257076D01*
X256276Y-27494D02*
X256976D01*
X256175Y-27594D02*
X256875D01*
X256175Y-27694D02*
X256875D01*
X256175Y-27794D02*
X256875D01*
X262475Y-29094D02*
X263075D01*
X262475Y-28394D02*
X263075D01*
X262475Y-28994D02*
X263075D01*
X262475Y-28694D02*
X263075D01*
X262475Y-29194D02*
X263075D01*
X262475Y-27994D02*
X263075D01*
X262475Y-28594D02*
X263075D01*
X262475Y-28094D02*
X263075D01*
X262475Y-28794D02*
X263075D01*
X262475Y-28194D02*
X263075D01*
X262475Y-28494D02*
X263075D01*
X262475Y-28894D02*
X263075D01*
X262475Y-28294D02*
X263075D01*
X262475Y-29294D02*
X263075D01*
X262475Y-29394D02*
X263075D01*
X262475Y-29494D02*
X263075D01*
X262475Y-29594D02*
X263075D01*
X262475Y-29694D02*
X263075D01*
X262475Y-29794D02*
X263075D01*
X262475Y-29894D02*
X263075D01*
X262475Y-29994D02*
X263075D01*
X262475Y-30094D02*
X263075D01*
X262475Y-30194D02*
X263075D01*
X262375Y-27794D02*
X263075D01*
X262375Y-27894D02*
X263075D01*
X259676Y-29094D02*
X260276D01*
X259676Y-29194D02*
X260276D01*
X259676Y-29294D02*
X260276D01*
X259676Y-29394D02*
X260276D01*
X259576Y-28294D02*
X260276D01*
X259576Y-28194D02*
X260276D01*
X259576Y-28394D02*
X260276D01*
X262475Y-34894D02*
X263775D01*
X262375Y-34994D02*
X263375D01*
X262375Y-35094D02*
X263276D01*
X262475Y-30294D02*
X263075D01*
X262475Y-30394D02*
X263075D01*
X262475Y-30494D02*
X263075D01*
X262475Y-30594D02*
X263075D01*
X262475Y-30694D02*
X263075D01*
X262475Y-30794D02*
X263075D01*
X262475Y-30894D02*
X263075D01*
X262475Y-30994D02*
X263075D01*
X262475Y-31094D02*
X263075D01*
X262475Y-31194D02*
X263075D01*
X262475Y-31394D02*
X263075D01*
X262375Y-35194D02*
X263176D01*
X262475Y-31294D02*
X263075D01*
X262276Y-35294D02*
X263075D01*
X262276Y-35394D02*
X262976D01*
X262276Y-35494D02*
X262976D01*
X262276Y-35594D02*
X262976D01*
X262175Y-35794D02*
X262876D01*
X262175Y-35694D02*
X262876D01*
X260276Y-35594D02*
X260976D01*
X260276Y-35794D02*
X260976D01*
X260276Y-35694D02*
X260976D01*
X260276Y-35494D02*
X260976D01*
X260175Y-35394D02*
X260876D01*
X260175Y-35294D02*
X260876D01*
X260075Y-35194D02*
X260876D01*
X259875Y-35094D02*
X260775D01*
X259775Y-34994D02*
X260775D01*
X259376Y-34894D02*
X260676D01*
X259576Y-29694D02*
X260276D01*
X259576Y-29794D02*
X260276D01*
X259576Y-29494D02*
X260276D01*
X259576Y-29594D02*
X260276D01*
X259576Y-28094D02*
X260276D01*
X259475Y-29894D02*
X260175D01*
X259475Y-29994D02*
X260175D01*
X259475Y-27994D02*
X260175D01*
X259475Y-27894D02*
X260175D01*
X259376Y-30094D02*
X260175D01*
X259376Y-30194D02*
X260075D01*
X259276Y-30294D02*
X260075D01*
X259175Y-30394D02*
X259976D01*
X259075Y-30494D02*
X259976D01*
X258976Y-30594D02*
X259875D01*
X258875Y-30694D02*
X259775D01*
X256076Y-28594D02*
X260276D01*
X256076Y-28794D02*
X260276D01*
X256076Y-28494D02*
X260276D01*
X256076Y-28894D02*
X260276D01*
X256076Y-28694D02*
X260276D01*
X256076Y-28994D02*
X260276D01*
X256376Y-30394D02*
X256676D01*
X256276Y-30494D02*
X256775D01*
X256175Y-30594D02*
X256875D01*
X256175Y-27894D02*
X256775D01*
X256076Y-27994D02*
X256775D01*
X256076Y-28094D02*
X256775D01*
X256076Y-28194D02*
X256775D01*
X256076Y-28294D02*
X256775D01*
X256076Y-28394D02*
X256676D01*
X258775Y-30794D02*
X259775D01*
X258576Y-30894D02*
X259676D01*
X258376Y-34394D02*
X259875D01*
X258075Y-34494D02*
X260175D01*
X257775Y-34694D02*
X260475D01*
X257875Y-34594D02*
X260276D01*
X257575Y-34794D02*
X260576D01*
X258075Y-30994D02*
X259576D01*
X257575Y-34894D02*
X258875D01*
X256575Y-31094D02*
X259475D01*
X256775Y-31294D02*
X259175D01*
X257475Y-34994D02*
X258475D01*
X257276Y-31494D02*
X258676D01*
X256676Y-31194D02*
X259276D01*
X256976Y-31394D02*
X258976D01*
X257376Y-35094D02*
X258376D01*
X257376Y-35194D02*
X258175D01*
X257276Y-35294D02*
X258075D01*
X257276Y-35494D02*
X257976D01*
X257276Y-35394D02*
X257976D01*
X257175Y-35694D02*
X257875D01*
X257175Y-35794D02*
X257875D01*
X257175Y-35594D02*
X257875D01*
X257175Y-35894D02*
X257875D01*
X256475Y-30994D02*
X257875D01*
X256376Y-30894D02*
X257376D01*
X256276Y-30794D02*
X257175D01*
X256175Y-30694D02*
X256976D01*
X270876Y-35894D02*
X271575D01*
X272875Y-35994D02*
X273476D01*
X272875Y-36094D02*
X273476D01*
X270975D02*
X271675D01*
X272875Y-36194D02*
X273476D01*
X270975D02*
X271675D01*
X272875Y-36294D02*
X273476D01*
X270975D02*
X271675D01*
X272875Y-36394D02*
X273476D01*
X270975D02*
X271675D01*
X272875Y-36494D02*
X273476D01*
X271076D02*
X271675D01*
X272875Y-36594D02*
X273476D01*
X271076D02*
X271675D01*
X272875Y-36694D02*
X273476D01*
X271076D02*
X271776D01*
X272875Y-36794D02*
X273476D01*
X271076D02*
X271776D01*
X272875Y-36894D02*
X273476D01*
X271076D02*
X271776D01*
X272875Y-36994D02*
X273476D01*
X271076D02*
X271776D01*
X272875Y-37094D02*
X273476D01*
X271076D02*
X271776D01*
X272875Y-37194D02*
X273476D01*
X271076D02*
X271776D01*
X272875Y-37294D02*
X273476D01*
X271076D02*
X271675D01*
X272875Y-37394D02*
X273476D01*
X271076D02*
X271675D01*
X272875Y-37494D02*
X273476D01*
X271076D02*
X271675D01*
X267276Y-35894D02*
X267975D01*
X270876Y-35994D02*
X271575D01*
X267276D02*
X267975D01*
X267176Y-36094D02*
X267876D01*
X265476D02*
X266075D01*
X267176Y-36194D02*
X267876D01*
X265476D02*
X266075D01*
X267176Y-36294D02*
X267876D01*
X265476D02*
X266075D01*
X267176Y-36394D02*
X267876D01*
X265476D02*
X266075D01*
X265476Y-36494D02*
X266075D01*
X267176D02*
X267776D01*
X265476Y-36594D02*
X266075D01*
X267176D02*
X267776D01*
X265476Y-36694D02*
X266075D01*
X267176D02*
X267776D01*
X265476Y-36794D02*
X266075D01*
X267176D02*
X267776D01*
X265476Y-36894D02*
X266075D01*
X267176D02*
X267776D01*
X265476Y-36994D02*
X266075D01*
X267176D02*
X267776D01*
X265476Y-37094D02*
X266075D01*
X267176D02*
X267776D01*
X267176Y-37194D02*
X267776D01*
X265476D02*
X266075D01*
X267176Y-37294D02*
X267776D01*
X267176Y-37394D02*
X267776D01*
X265476D02*
X266075D01*
X267176Y-37494D02*
X267876D01*
X265476D02*
X266075D01*
X270975Y-37594D02*
X271675D01*
X272875D02*
X273476D01*
X270975Y-37694D02*
X271675D01*
X272875D02*
X273476D01*
X272875Y-37794D02*
X273476D01*
X270975D02*
X271675D01*
X270876Y-37894D02*
X271675D01*
X272875D02*
X273476D01*
X270876Y-37994D02*
X271575D01*
X272875D02*
X273476D01*
X270876Y-38094D02*
X271575D01*
X272875D02*
X273476D01*
X270776Y-38194D02*
X271575D01*
X272875D02*
X273476D01*
X270776Y-38294D02*
X271476D01*
X272875D02*
X273476D01*
X270675Y-38394D02*
X271476D01*
X272875D02*
X273476D01*
X272875Y-38494D02*
X273476D01*
X270575D02*
X271375D01*
X272875Y-38594D02*
X273476D01*
X270476D02*
X271375D01*
X272875Y-38694D02*
X273476D01*
X272875Y-38794D02*
X273476D01*
X272875Y-38894D02*
X273476D01*
X272875Y-38994D02*
X273476D01*
X272875Y-39094D02*
X273476D01*
X272875Y-39194D02*
X273476D01*
X272875Y-39294D02*
X273476D01*
X272875Y-39394D02*
X273476D01*
X272875Y-39494D02*
X273476D01*
X267176Y-37594D02*
X267876D01*
X267176Y-37694D02*
X267876D01*
X265476D02*
X266075D01*
X267176Y-37794D02*
X267876D01*
X265476D02*
X266075D01*
X267276Y-37894D02*
X267975D01*
X265476D02*
X266075D01*
X267276Y-37994D02*
X267975D01*
X267276Y-38094D02*
X267975D01*
X267375Y-38194D02*
X268075D01*
X267375Y-38294D02*
X268176D01*
X265476D02*
X266075D01*
X267375Y-38394D02*
X268176D01*
X265476D02*
X266075D01*
X267476Y-38494D02*
X268275D01*
X267476Y-38594D02*
X268375D01*
X270375Y-38694D02*
X271275D01*
X267576D02*
X268476D01*
X270275Y-38794D02*
X271176D01*
X267675D02*
X268576D01*
X270075Y-38894D02*
X271076D01*
X267776D02*
X268776D01*
X269776Y-38994D02*
X271076D01*
X267876D02*
X269075D01*
X267975Y-39094D02*
X270876D01*
X268075Y-39194D02*
X270776D01*
X268176Y-39294D02*
X270675D01*
X268375Y-39394D02*
X270476D01*
X265476D02*
X266075D01*
X268576Y-39494D02*
X270275D01*
X269075Y-39594D02*
X269876D01*
X265375Y-35894D02*
X266075D01*
X262175D02*
X262876D01*
X265375Y-35994D02*
X266075D01*
X262175D02*
X262876D01*
X262175Y-36094D02*
X262876D01*
X262175Y-36194D02*
X262876D01*
X262175Y-36294D02*
X262876D01*
X262175Y-36394D02*
X262876D01*
X262175Y-36494D02*
X262876D01*
X262175Y-36594D02*
X262876D01*
X262175Y-36694D02*
X262876D01*
X262175Y-36794D02*
X262876D01*
X262175Y-36894D02*
X262876D01*
X262175Y-36994D02*
X262876D01*
X262175Y-37094D02*
X262876D01*
X262175Y-37194D02*
X262876D01*
X265476Y-37294D02*
X266075D01*
X262175D02*
X262876D01*
X262175Y-37394D02*
X262876D01*
X262175Y-37494D02*
X262876D01*
X265476Y-37594D02*
X266075D01*
X262175D02*
X262876D01*
X262175Y-37694D02*
X262876D01*
X262175Y-37794D02*
X262876D01*
X262175Y-37894D02*
X262876D01*
X265476Y-37994D02*
X266075D01*
X262175D02*
X262876D01*
X265476Y-38094D02*
X266075D01*
X262175D02*
X262876D01*
X260475D02*
X261075D01*
X265476Y-38194D02*
X266075D01*
X262175D02*
X262876D01*
X260276Y-35894D02*
X260976D01*
X260175Y-35994D02*
X260876D01*
X260175Y-36094D02*
X260876D01*
X260075Y-36194D02*
X260876D01*
X259875Y-36294D02*
X260876D01*
X259676Y-36394D02*
X260775D01*
X259475Y-36494D02*
X260676D01*
X259075Y-36594D02*
X260576D01*
X258676Y-36694D02*
X260475D01*
X258376Y-36794D02*
X260375D01*
X258075Y-36894D02*
X260175D01*
X257875Y-36994D02*
X259875D01*
X257676Y-37094D02*
X259576D01*
X257575Y-37194D02*
X259175D01*
X257475Y-37294D02*
X258775D01*
X257376Y-37394D02*
X258475D01*
X257376Y-37494D02*
X258276D01*
X257276Y-37594D02*
X258175D01*
X257276Y-37694D02*
X258075D01*
X257175Y-37794D02*
X257976D01*
X257175Y-37894D02*
X257875D01*
X257175Y-37994D02*
X257875D01*
X257175Y-38094D02*
X257875D01*
X260375Y-38194D02*
X261075D01*
X257175D02*
X257875D01*
X260375Y-38294D02*
X261075D01*
X257175D02*
X257875D01*
X262175D02*
X262876D01*
X262175Y-38394D02*
X262876D01*
X260375D02*
X261075D01*
X265476Y-38494D02*
X266075D01*
X262175D02*
X262876D01*
X260276D02*
X261075D01*
X265476Y-38594D02*
X266075D01*
X262175D02*
X262876D01*
X260276D02*
X260976D01*
X265476Y-38694D02*
X266075D01*
X262175D02*
X262876D01*
X260175D02*
X260976D01*
X265476Y-38794D02*
X266075D01*
X262175D02*
X262876D01*
X259976D02*
X260876D01*
X265476Y-38894D02*
X266075D01*
X262175D02*
X262876D01*
X259875D02*
X260876D01*
X265476Y-38994D02*
X266075D01*
X262175D02*
X262876D01*
X259576D02*
X260775D01*
X265476Y-39094D02*
X266075D01*
X262175D02*
X262876D01*
X265476Y-39194D02*
X266075D01*
X262175D02*
X262876D01*
X257676D02*
X260576D01*
X265476Y-39294D02*
X266075D01*
X262175D02*
X262876D01*
X262175Y-39394D02*
X262876D01*
X265476Y-39494D02*
X266075D01*
X262175D02*
X262876D01*
X257175Y-38394D02*
X257875D01*
X257175Y-38494D02*
X257875D01*
X257276Y-38594D02*
X257976D01*
X257276Y-38694D02*
X258075D01*
X257276Y-38794D02*
X258175D01*
X257376Y-38894D02*
X258376D01*
X257475Y-38994D02*
X258676D01*
X257575Y-39094D02*
X260676D01*
X257775Y-39294D02*
X260375D01*
X257976Y-39394D02*
X260276D01*
X258175Y-39494D02*
X259976D01*
X258676Y-39594D02*
X259576D01*
M02*
