G04*
G04 #@! TF.GenerationSoftware,Altium Limited,Altium Designer,21.8.1 (53)*
G04*
G04 Layer_Physical_Order=3*
G04 Layer_Color=36540*
%FSLAX25Y25*%
%MOIN*%
G70*
G04*
G04 #@! TF.SameCoordinates,D7649F9F-AB44-4DDD-A0E2-BCBC4CF329E9*
G04*
G04*
G04 #@! TF.FilePolarity,Positive*
G04*
G01*
G75*
%ADD106C,0.07874*%
%ADD115C,0.07874*%
%ADD116C,0.03150*%
%ADD117C,0.03543*%
%ADD118C,0.05906*%
%ADD119C,0.04724*%
%ADD122C,0.02756*%
%ADD124C,0.05906*%
%ADD127C,0.03937*%
G36*
X14885Y-3937D02*
X15059Y-4290D01*
X14961Y-4418D01*
X14703Y-5041D01*
X14615Y-5709D01*
X14703Y-6377D01*
X14961Y-6999D01*
X15371Y-7534D01*
X15905Y-7944D01*
X16528Y-8202D01*
X17196Y-8290D01*
X17864Y-8202D01*
X18486Y-7944D01*
X19021Y-7534D01*
X19431Y-6999D01*
X19689Y-6377D01*
X19777Y-5709D01*
X19689Y-5041D01*
X19431Y-4418D01*
X19333Y-4290D01*
X19507Y-3937D01*
X26569D01*
X26743Y-4290D01*
X26645Y-4418D01*
X26387Y-5041D01*
X26299Y-5709D01*
X26387Y-6377D01*
X26645Y-6999D01*
X27055Y-7534D01*
X27589Y-7944D01*
X28212Y-8202D01*
X28880Y-8290D01*
X29548Y-8202D01*
X30170Y-7944D01*
X30705Y-7534D01*
X31115Y-6999D01*
X31373Y-6377D01*
X31461Y-5709D01*
X31373Y-5041D01*
X31115Y-4418D01*
X31017Y-4290D01*
X31191Y-3937D01*
X38253D01*
X38427Y-4290D01*
X38328Y-4418D01*
X38071Y-5041D01*
X37983Y-5709D01*
X38071Y-6377D01*
X38328Y-6999D01*
X38739Y-7534D01*
X39273Y-7944D01*
X39896Y-8202D01*
X40564Y-8290D01*
X41232Y-8202D01*
X41854Y-7944D01*
X42389Y-7534D01*
X42799Y-6999D01*
X43057Y-6377D01*
X43145Y-5709D01*
X43057Y-5041D01*
X42799Y-4418D01*
X42701Y-4290D01*
X42875Y-3937D01*
X49937D01*
X50111Y-4290D01*
X50013Y-4418D01*
X49755Y-5041D01*
X49667Y-5709D01*
X49755Y-6377D01*
X50013Y-6999D01*
X50423Y-7534D01*
X50957Y-7944D01*
X51580Y-8202D01*
X52248Y-8290D01*
X52916Y-8202D01*
X53539Y-7944D01*
X54073Y-7534D01*
X54483Y-6999D01*
X54741Y-6377D01*
X54829Y-5709D01*
X54741Y-5041D01*
X54483Y-4418D01*
X54385Y-4290D01*
X54559Y-3937D01*
X61621D01*
X61795Y-4290D01*
X61697Y-4418D01*
X61439Y-5041D01*
X61351Y-5709D01*
X61439Y-6377D01*
X61697Y-6999D01*
X62107Y-7534D01*
X62641Y-7944D01*
X63264Y-8202D01*
X63932Y-8290D01*
X64600Y-8202D01*
X65223Y-7944D01*
X65757Y-7534D01*
X66167Y-6999D01*
X66425Y-6377D01*
X66513Y-5709D01*
X66425Y-5041D01*
X66167Y-4418D01*
X66069Y-4290D01*
X66243Y-3937D01*
X73305D01*
X73479Y-4290D01*
X73381Y-4418D01*
X73123Y-5041D01*
X73035Y-5709D01*
X73123Y-6377D01*
X73381Y-6999D01*
X73791Y-7534D01*
X74325Y-7944D01*
X74948Y-8202D01*
X75616Y-8290D01*
X76284Y-8202D01*
X76907Y-7944D01*
X77441Y-7534D01*
X77851Y-6999D01*
X78109Y-6377D01*
X78197Y-5709D01*
X78109Y-5041D01*
X77851Y-4418D01*
X77753Y-4290D01*
X77927Y-3937D01*
X84989D01*
X85163Y-4290D01*
X85065Y-4418D01*
X84807Y-5041D01*
X84719Y-5709D01*
X84807Y-6377D01*
X85065Y-6999D01*
X85475Y-7534D01*
X86009Y-7944D01*
X86632Y-8202D01*
X87300Y-8290D01*
X87968Y-8202D01*
X88591Y-7944D01*
X89125Y-7534D01*
X89535Y-6999D01*
X89793Y-6377D01*
X89881Y-5709D01*
X89793Y-5041D01*
X89535Y-4418D01*
X89437Y-4290D01*
X89611Y-3937D01*
X96673D01*
X96847Y-4290D01*
X96749Y-4418D01*
X96491Y-5041D01*
X96403Y-5709D01*
X96491Y-6377D01*
X96749Y-6999D01*
X97159Y-7534D01*
X97693Y-7944D01*
X98316Y-8202D01*
X98984Y-8290D01*
X99652Y-8202D01*
X100275Y-7944D01*
X100809Y-7534D01*
X101219Y-6999D01*
X101477Y-6377D01*
X101565Y-5709D01*
X101477Y-5041D01*
X101219Y-4418D01*
X101121Y-4290D01*
X101295Y-3937D01*
X108357D01*
X108531Y-4290D01*
X108433Y-4418D01*
X108175Y-5041D01*
X108087Y-5709D01*
X108175Y-6377D01*
X108433Y-6999D01*
X108843Y-7534D01*
X109377Y-7944D01*
X110000Y-8202D01*
X110668Y-8290D01*
X111336Y-8202D01*
X111959Y-7944D01*
X112493Y-7534D01*
X112903Y-6999D01*
X113161Y-6377D01*
X113249Y-5709D01*
X113161Y-5041D01*
X112903Y-4418D01*
X112805Y-4290D01*
X112979Y-3937D01*
X120041D01*
X120215Y-4290D01*
X120117Y-4418D01*
X119859Y-5041D01*
X119771Y-5709D01*
X119859Y-6377D01*
X120117Y-6999D01*
X120527Y-7534D01*
X121061Y-7944D01*
X121684Y-8202D01*
X122352Y-8290D01*
X123020Y-8202D01*
X123643Y-7944D01*
X124177Y-7534D01*
X124587Y-6999D01*
X124845Y-6377D01*
X124933Y-5709D01*
X124845Y-5041D01*
X124587Y-4418D01*
X124489Y-4290D01*
X124663Y-3937D01*
X131725D01*
X131899Y-4290D01*
X131801Y-4418D01*
X131543Y-5041D01*
X131455Y-5709D01*
X131543Y-6377D01*
X131801Y-6999D01*
X132211Y-7534D01*
X132746Y-7944D01*
X133368Y-8202D01*
X134036Y-8290D01*
X134704Y-8202D01*
X135327Y-7944D01*
X135861Y-7534D01*
X136271Y-6999D01*
X136529Y-6377D01*
X136617Y-5709D01*
X136529Y-5041D01*
X136271Y-4418D01*
X136173Y-4290D01*
X136347Y-3937D01*
X143409D01*
X143583Y-4290D01*
X143485Y-4418D01*
X143227Y-5041D01*
X143139Y-5709D01*
X143227Y-6377D01*
X143485Y-6999D01*
X143895Y-7534D01*
X144430Y-7944D01*
X145052Y-8202D01*
X145720Y-8290D01*
X146388Y-8202D01*
X147011Y-7944D01*
X147545Y-7534D01*
X147955Y-6999D01*
X148213Y-6377D01*
X148301Y-5709D01*
X148213Y-5041D01*
X147955Y-4418D01*
X147857Y-4290D01*
X148031Y-3937D01*
X155093D01*
X155267Y-4290D01*
X155169Y-4418D01*
X154911Y-5041D01*
X154823Y-5709D01*
X154911Y-6377D01*
X155169Y-6999D01*
X155579Y-7534D01*
X156114Y-7944D01*
X156736Y-8202D01*
X157404Y-8290D01*
X158072Y-8202D01*
X158695Y-7944D01*
X159229Y-7534D01*
X159639Y-6999D01*
X159897Y-6377D01*
X159985Y-5709D01*
X159897Y-5041D01*
X159639Y-4418D01*
X159541Y-4290D01*
X159715Y-3937D01*
X166777D01*
X166951Y-4290D01*
X166853Y-4418D01*
X166595Y-5041D01*
X166507Y-5709D01*
X166595Y-6377D01*
X166853Y-6999D01*
X167263Y-7534D01*
X167798Y-7944D01*
X168420Y-8202D01*
X169088Y-8290D01*
X169756Y-8202D01*
X170379Y-7944D01*
X170913Y-7534D01*
X171323Y-6999D01*
X171581Y-6377D01*
X171669Y-5709D01*
X171581Y-5041D01*
X171323Y-4418D01*
X171225Y-4290D01*
X171399Y-3937D01*
X178461D01*
X178635Y-4290D01*
X178537Y-4418D01*
X178279Y-5041D01*
X178191Y-5709D01*
X178279Y-6377D01*
X178537Y-6999D01*
X178947Y-7534D01*
X179481Y-7944D01*
X180104Y-8202D01*
X180772Y-8290D01*
X181440Y-8202D01*
X182063Y-7944D01*
X182597Y-7534D01*
X183007Y-6999D01*
X183265Y-6377D01*
X183353Y-5709D01*
X183265Y-5041D01*
X183007Y-4418D01*
X182909Y-4290D01*
X183083Y-3937D01*
X190145Y-3937D01*
X190319Y-4290D01*
X190221Y-4418D01*
X189963Y-5041D01*
X189875Y-5709D01*
X189963Y-6377D01*
X190221Y-6999D01*
X190631Y-7534D01*
X191166Y-7944D01*
X191788Y-8202D01*
X192456Y-8290D01*
X193124Y-8202D01*
X193747Y-7944D01*
X194281Y-7534D01*
X194691Y-6999D01*
X194949Y-6377D01*
X195037Y-5709D01*
X194949Y-5041D01*
X194691Y-4418D01*
X194593Y-4290D01*
X194767Y-3937D01*
X201829D01*
X202003Y-4290D01*
X201905Y-4418D01*
X201647Y-5041D01*
X201559Y-5709D01*
X201647Y-6377D01*
X201905Y-6999D01*
X202315Y-7534D01*
X202850Y-7944D01*
X203472Y-8202D01*
X204140Y-8290D01*
X204808Y-8202D01*
X205431Y-7944D01*
X205965Y-7534D01*
X206376Y-6999D01*
X206633Y-6377D01*
X206721Y-5709D01*
X206633Y-5041D01*
X206376Y-4418D01*
X206277Y-4290D01*
X206451Y-3937D01*
X213513D01*
X213687Y-4290D01*
X213589Y-4418D01*
X213331Y-5041D01*
X213243Y-5709D01*
X213331Y-6377D01*
X213589Y-6999D01*
X213999Y-7534D01*
X214534Y-7944D01*
X215156Y-8202D01*
X215824Y-8290D01*
X216492Y-8202D01*
X217115Y-7944D01*
X217649Y-7534D01*
X218059Y-6999D01*
X218317Y-6377D01*
X218405Y-5709D01*
X218317Y-5041D01*
X218059Y-4418D01*
X217961Y-4290D01*
X218135Y-3937D01*
X225197D01*
X225371Y-4290D01*
X225273Y-4418D01*
X225015Y-5041D01*
X224927Y-5709D01*
X225015Y-6377D01*
X225273Y-6999D01*
X225683Y-7534D01*
X226218Y-7944D01*
X226840Y-8202D01*
X227508Y-8290D01*
X228176Y-8202D01*
X228799Y-7944D01*
X229333Y-7534D01*
X229744Y-6999D01*
X230001Y-6377D01*
X230089Y-5709D01*
X230001Y-5041D01*
X229744Y-4418D01*
X229645Y-4290D01*
X229819Y-3937D01*
X236881D01*
X237055Y-4290D01*
X236957Y-4418D01*
X236699Y-5041D01*
X236611Y-5709D01*
X236699Y-6377D01*
X236957Y-6999D01*
X237367Y-7534D01*
X237902Y-7944D01*
X238524Y-8202D01*
X239192Y-8290D01*
X239860Y-8202D01*
X240483Y-7944D01*
X241017Y-7534D01*
X241427Y-6999D01*
X241685Y-6377D01*
X241773Y-5709D01*
X241685Y-5041D01*
X241427Y-4418D01*
X241329Y-4290D01*
X241503Y-3937D01*
X248565D01*
X248739Y-4290D01*
X248641Y-4418D01*
X248383Y-5041D01*
X248295Y-5709D01*
X248383Y-6377D01*
X248641Y-6999D01*
X249051Y-7534D01*
X249586Y-7944D01*
X250208Y-8202D01*
X250876Y-8290D01*
X251544Y-8202D01*
X252167Y-7944D01*
X252701Y-7534D01*
X253112Y-6999D01*
X253369Y-6377D01*
X253457Y-5709D01*
X253369Y-5041D01*
X253112Y-4418D01*
X253013Y-4290D01*
X253187Y-3937D01*
X260249D01*
X260423Y-4290D01*
X260325Y-4418D01*
X260067Y-5041D01*
X259979Y-5709D01*
X260067Y-6377D01*
X260325Y-6999D01*
X260735Y-7534D01*
X261270Y-7944D01*
X261892Y-8202D01*
X262560Y-8290D01*
X263228Y-8202D01*
X263851Y-7944D01*
X264385Y-7534D01*
X264796Y-6999D01*
X265053Y-6377D01*
X265141Y-5709D01*
X265053Y-5041D01*
X264796Y-4418D01*
X264697Y-4290D01*
X264872Y-3937D01*
X271933D01*
X272107Y-4290D01*
X272009Y-4418D01*
X271751Y-5041D01*
X271663Y-5709D01*
X271751Y-6377D01*
X272009Y-6999D01*
X272419Y-7534D01*
X272954Y-7944D01*
X273576Y-8202D01*
X274244Y-8290D01*
X274912Y-8202D01*
X275535Y-7944D01*
X276069Y-7534D01*
X276480Y-6999D01*
X276737Y-6377D01*
X276825Y-5709D01*
X276737Y-5041D01*
X276480Y-4418D01*
X276381Y-4290D01*
X276555Y-3937D01*
X283617D01*
X283791Y-4290D01*
X283693Y-4418D01*
X283435Y-5041D01*
X283347Y-5709D01*
X283435Y-6377D01*
X283693Y-6999D01*
X284103Y-7534D01*
X284638Y-7944D01*
X285260Y-8202D01*
X285928Y-8290D01*
X286596Y-8202D01*
X287219Y-7944D01*
X287753Y-7534D01*
X288164Y-6999D01*
X288422Y-6377D01*
X288509Y-5709D01*
X288422Y-5041D01*
X288164Y-4418D01*
X288065Y-4290D01*
X288240Y-3937D01*
X295301D01*
X295475Y-4290D01*
X295377Y-4418D01*
X295119Y-5041D01*
X295031Y-5709D01*
X295119Y-6377D01*
X295377Y-6999D01*
X295787Y-7534D01*
X296322Y-7944D01*
X296944Y-8202D01*
X297612Y-8290D01*
X298280Y-8202D01*
X298903Y-7944D01*
X299437Y-7534D01*
X299848Y-6999D01*
X300106Y-6377D01*
X300193Y-5709D01*
X300106Y-5041D01*
X299848Y-4418D01*
X299749Y-4290D01*
X299923Y-3937D01*
X306985D01*
X307159Y-4290D01*
X307061Y-4418D01*
X306803Y-5041D01*
X306715Y-5709D01*
X306803Y-6377D01*
X307061Y-6999D01*
X307471Y-7534D01*
X308006Y-7944D01*
X308628Y-8202D01*
X309296Y-8290D01*
X309964Y-8202D01*
X310587Y-7944D01*
X311122Y-7534D01*
X311532Y-6999D01*
X311789Y-6377D01*
X311877Y-5709D01*
X311789Y-5041D01*
X311532Y-4418D01*
X311433Y-4290D01*
X311608Y-3937D01*
X318669D01*
X318843Y-4290D01*
X318745Y-4418D01*
X318487Y-5041D01*
X318399Y-5709D01*
X318487Y-6377D01*
X318745Y-6999D01*
X319155Y-7534D01*
X319690Y-7944D01*
X320312Y-8202D01*
X320980Y-8290D01*
X321648Y-8202D01*
X322271Y-7944D01*
X322806Y-7534D01*
X323216Y-6999D01*
X323474Y-6377D01*
X323562Y-5709D01*
X323474Y-5041D01*
X323216Y-4418D01*
X323117Y-4290D01*
X323292Y-3937D01*
X330353D01*
X330527Y-4290D01*
X330429Y-4418D01*
X330171Y-5041D01*
X330083Y-5709D01*
X330171Y-6377D01*
X330429Y-6999D01*
X330839Y-7534D01*
X331374Y-7944D01*
X331996Y-8202D01*
X332664Y-8290D01*
X333332Y-8202D01*
X333955Y-7944D01*
X334489Y-7534D01*
X334900Y-6999D01*
X335157Y-6377D01*
X335245Y-5709D01*
X335157Y-5041D01*
X334900Y-4418D01*
X334802Y-4290D01*
X334976Y-3937D01*
X342037D01*
X342211Y-4290D01*
X342113Y-4418D01*
X341855Y-5041D01*
X341767Y-5709D01*
X341855Y-6377D01*
X342113Y-6999D01*
X342523Y-7534D01*
X343058Y-7944D01*
X343680Y-8202D01*
X344348Y-8290D01*
X345016Y-8202D01*
X345639Y-7944D01*
X346174Y-7534D01*
X346584Y-6999D01*
X346842Y-6377D01*
X346930Y-5709D01*
X346842Y-5041D01*
X346584Y-4418D01*
X346485Y-4290D01*
X346660Y-3937D01*
X353721D01*
X353895Y-4290D01*
X353797Y-4418D01*
X353539Y-5041D01*
X353451Y-5709D01*
X353539Y-6377D01*
X353797Y-6999D01*
X354207Y-7534D01*
X354742Y-7944D01*
X355364Y-8202D01*
X356032Y-8290D01*
X356700Y-8202D01*
X357323Y-7944D01*
X357857Y-7534D01*
X358268Y-6999D01*
X358526Y-6377D01*
X358613Y-5709D01*
X358526Y-5041D01*
X358268Y-4418D01*
X358170Y-4290D01*
X358344Y-3937D01*
X365405D01*
X365579Y-4290D01*
X365481Y-4418D01*
X365223Y-5041D01*
X365135Y-5709D01*
X365223Y-6377D01*
X365481Y-6999D01*
X365891Y-7534D01*
X366426Y-7944D01*
X367048Y-8202D01*
X367716Y-8290D01*
X368385Y-8202D01*
X369007Y-7944D01*
X369542Y-7534D01*
X369685Y-7347D01*
X370079Y-7480D01*
X370079Y-171657D01*
X369980Y-171744D01*
X365846D01*
X364999Y-171855D01*
X364208Y-172183D01*
X363530Y-172703D01*
X363009Y-173382D01*
X362682Y-174172D01*
X362570Y-175020D01*
X362682Y-175868D01*
X363009Y-176658D01*
X363530Y-177336D01*
X364208Y-177857D01*
X364999Y-178184D01*
X365846Y-178296D01*
X369685D01*
X370079Y-178649D01*
Y-205673D01*
X369980Y-205759D01*
X365846D01*
X364999Y-205871D01*
X364208Y-206198D01*
X363530Y-206719D01*
X363009Y-207397D01*
X362682Y-208188D01*
X362570Y-209035D01*
X362682Y-209883D01*
X363009Y-210673D01*
X363530Y-211352D01*
X364208Y-211873D01*
X364999Y-212200D01*
X365846Y-212312D01*
X369685D01*
X370079Y-212664D01*
Y-228740D01*
X369685Y-228874D01*
X369542Y-228687D01*
X369007Y-228276D01*
X368385Y-228019D01*
X367716Y-227931D01*
X367048Y-228019D01*
X366426Y-228276D01*
X365891Y-228687D01*
X365481Y-229221D01*
X365223Y-229844D01*
X365135Y-230512D01*
X365223Y-231180D01*
X365481Y-231802D01*
X365579Y-231930D01*
X365405Y-232283D01*
X358344D01*
X358170Y-231930D01*
X358268Y-231802D01*
X358526Y-231180D01*
X358613Y-230512D01*
X358526Y-229844D01*
X358268Y-229221D01*
X357857Y-228687D01*
X357323Y-228276D01*
X356700Y-228019D01*
X356032Y-227931D01*
X355364Y-228019D01*
X354742Y-228276D01*
X354207Y-228687D01*
X353797Y-229221D01*
X353539Y-229844D01*
X353451Y-230512D01*
X353539Y-231180D01*
X353797Y-231802D01*
X353895Y-231930D01*
X353721Y-232283D01*
X346660D01*
X346485Y-231930D01*
X346584Y-231802D01*
X346842Y-231180D01*
X346930Y-230512D01*
X346842Y-229844D01*
X346584Y-229221D01*
X346174Y-228687D01*
X345639Y-228276D01*
X345016Y-228019D01*
X344348Y-227931D01*
X343680Y-228019D01*
X343058Y-228276D01*
X342523Y-228687D01*
X342113Y-229221D01*
X341855Y-229844D01*
X341767Y-230512D01*
X341855Y-231180D01*
X342113Y-231802D01*
X342211Y-231930D01*
X342037Y-232283D01*
X334976D01*
X334801Y-231930D01*
X334900Y-231802D01*
X335157Y-231180D01*
X335245Y-230512D01*
X335157Y-229844D01*
X334900Y-229221D01*
X334489Y-228687D01*
X333955Y-228276D01*
X333332Y-228019D01*
X332664Y-227931D01*
X331996Y-228019D01*
X331374Y-228276D01*
X330839Y-228687D01*
X330429Y-229221D01*
X330171Y-229844D01*
X330083Y-230512D01*
X330171Y-231180D01*
X330429Y-231802D01*
X330527Y-231930D01*
X330353Y-232283D01*
X323291D01*
X323117Y-231930D01*
X323216Y-231802D01*
X323474Y-231180D01*
X323562Y-230512D01*
X323474Y-229844D01*
X323216Y-229221D01*
X322806Y-228687D01*
X322271Y-228276D01*
X321648Y-228019D01*
X320980Y-227931D01*
X320312Y-228019D01*
X319690Y-228276D01*
X319155Y-228687D01*
X318745Y-229221D01*
X318487Y-229844D01*
X318399Y-230512D01*
X318487Y-231180D01*
X318745Y-231802D01*
X318843Y-231930D01*
X318669Y-232283D01*
X311608D01*
X311433Y-231930D01*
X311532Y-231802D01*
X311789Y-231180D01*
X311877Y-230512D01*
X311789Y-229844D01*
X311532Y-229221D01*
X311122Y-228687D01*
X310587Y-228276D01*
X309964Y-228019D01*
X309296Y-227931D01*
X308628Y-228019D01*
X308006Y-228276D01*
X307471Y-228687D01*
X307061Y-229221D01*
X306803Y-229844D01*
X306715Y-230512D01*
X306803Y-231180D01*
X307061Y-231802D01*
X307159Y-231930D01*
X306985Y-232283D01*
X299923D01*
X299749Y-231930D01*
X299848Y-231802D01*
X300106Y-231180D01*
X300193Y-230512D01*
X300106Y-229844D01*
X299848Y-229221D01*
X299437Y-228687D01*
X298903Y-228276D01*
X298280Y-228019D01*
X297612Y-227931D01*
X296944Y-228019D01*
X296322Y-228276D01*
X295787Y-228687D01*
X295377Y-229221D01*
X295119Y-229844D01*
X295031Y-230512D01*
X295119Y-231180D01*
X295377Y-231802D01*
X295475Y-231930D01*
X295301Y-232283D01*
X288240D01*
X288065Y-231930D01*
X288164Y-231802D01*
X288422Y-231180D01*
X288509Y-230512D01*
X288422Y-229844D01*
X288164Y-229221D01*
X287753Y-228687D01*
X287219Y-228276D01*
X286596Y-228019D01*
X285928Y-227931D01*
X285260Y-228019D01*
X284638Y-228276D01*
X284103Y-228687D01*
X283693Y-229221D01*
X283435Y-229844D01*
X283347Y-230512D01*
X283435Y-231180D01*
X283693Y-231802D01*
X283791Y-231930D01*
X283617Y-232283D01*
X276555D01*
X276381Y-231930D01*
X276480Y-231802D01*
X276737Y-231180D01*
X276825Y-230512D01*
X276737Y-229844D01*
X276480Y-229221D01*
X276069Y-228687D01*
X275535Y-228276D01*
X274912Y-228019D01*
X274244Y-227931D01*
X273576Y-228019D01*
X272954Y-228276D01*
X272419Y-228687D01*
X272009Y-229221D01*
X271751Y-229844D01*
X271663Y-230512D01*
X271751Y-231180D01*
X272009Y-231802D01*
X272107Y-231930D01*
X271933Y-232283D01*
X264871D01*
X264697Y-231930D01*
X264796Y-231802D01*
X265053Y-231180D01*
X265141Y-230512D01*
X265053Y-229844D01*
X264796Y-229221D01*
X264385Y-228687D01*
X263851Y-228276D01*
X263228Y-228019D01*
X262560Y-227931D01*
X261892Y-228019D01*
X261270Y-228276D01*
X260735Y-228687D01*
X260325Y-229221D01*
X260067Y-229844D01*
X259979Y-230512D01*
X260067Y-231180D01*
X260325Y-231802D01*
X260423Y-231930D01*
X260249Y-232283D01*
X253187D01*
X253013Y-231930D01*
X253112Y-231802D01*
X253369Y-231180D01*
X253457Y-230512D01*
X253369Y-229844D01*
X253112Y-229221D01*
X252701Y-228687D01*
X252167Y-228276D01*
X251544Y-228019D01*
X250876Y-227931D01*
X250208Y-228019D01*
X249586Y-228276D01*
X249051Y-228687D01*
X248641Y-229221D01*
X248383Y-229844D01*
X248295Y-230512D01*
X248383Y-231180D01*
X248641Y-231802D01*
X248739Y-231930D01*
X248565Y-232283D01*
X241503D01*
X241329Y-231930D01*
X241427Y-231802D01*
X241685Y-231180D01*
X241773Y-230512D01*
X241685Y-229844D01*
X241427Y-229221D01*
X241017Y-228687D01*
X240483Y-228276D01*
X239860Y-228019D01*
X239192Y-227931D01*
X238524Y-228019D01*
X237902Y-228276D01*
X237367Y-228687D01*
X236957Y-229221D01*
X236699Y-229844D01*
X236611Y-230512D01*
X236699Y-231180D01*
X236957Y-231802D01*
X237055Y-231930D01*
X236881Y-232283D01*
X229819D01*
X229645Y-231930D01*
X229744Y-231802D01*
X230001Y-231180D01*
X230089Y-230512D01*
X230001Y-229844D01*
X229744Y-229221D01*
X229333Y-228687D01*
X228799Y-228276D01*
X228176Y-228019D01*
X227508Y-227931D01*
X226840Y-228019D01*
X226218Y-228276D01*
X225683Y-228687D01*
X225273Y-229221D01*
X225015Y-229844D01*
X224927Y-230512D01*
X225015Y-231180D01*
X225273Y-231802D01*
X225371Y-231930D01*
X225197Y-232283D01*
X218135D01*
X217961Y-231930D01*
X218059Y-231802D01*
X218317Y-231180D01*
X218405Y-230512D01*
X218317Y-229844D01*
X218059Y-229221D01*
X217649Y-228687D01*
X217115Y-228276D01*
X216492Y-228019D01*
X215824Y-227931D01*
X215156Y-228019D01*
X214534Y-228276D01*
X213999Y-228687D01*
X213589Y-229221D01*
X213331Y-229844D01*
X213243Y-230512D01*
X213331Y-231180D01*
X213589Y-231802D01*
X213687Y-231930D01*
X213513Y-232283D01*
X206451D01*
X206277Y-231930D01*
X206376Y-231802D01*
X206633Y-231180D01*
X206721Y-230512D01*
X206633Y-229844D01*
X206376Y-229221D01*
X205965Y-228687D01*
X205431Y-228276D01*
X204808Y-228019D01*
X204140Y-227931D01*
X203472Y-228019D01*
X202850Y-228276D01*
X202315Y-228687D01*
X201905Y-229221D01*
X201647Y-229844D01*
X201559Y-230512D01*
X201647Y-231180D01*
X201905Y-231802D01*
X202003Y-231930D01*
X201829Y-232283D01*
X194767D01*
X194593Y-231930D01*
X194691Y-231802D01*
X194949Y-231180D01*
X195037Y-230512D01*
X194949Y-229844D01*
X194691Y-229221D01*
X194281Y-228687D01*
X193747Y-228276D01*
X193124Y-228019D01*
X192456Y-227931D01*
X191788Y-228019D01*
X191166Y-228276D01*
X190631Y-228687D01*
X190221Y-229221D01*
X189963Y-229844D01*
X189875Y-230512D01*
X189963Y-231180D01*
X190221Y-231802D01*
X190319Y-231930D01*
X190145Y-232283D01*
X183083Y-232283D01*
X182909Y-231930D01*
X183007Y-231802D01*
X183265Y-231180D01*
X183353Y-230512D01*
X183265Y-229844D01*
X183007Y-229221D01*
X182597Y-228687D01*
X182063Y-228276D01*
X181440Y-228019D01*
X180772Y-227931D01*
X180104Y-228019D01*
X179481Y-228276D01*
X178947Y-228687D01*
X178537Y-229221D01*
X178279Y-229844D01*
X178191Y-230512D01*
X178279Y-231180D01*
X178537Y-231802D01*
X178635Y-231930D01*
X178461Y-232283D01*
X171399D01*
X171225Y-231930D01*
X171323Y-231802D01*
X171581Y-231180D01*
X171669Y-230512D01*
X171581Y-229844D01*
X171323Y-229221D01*
X170913Y-228687D01*
X170379Y-228276D01*
X169756Y-228019D01*
X169088Y-227931D01*
X168420Y-228019D01*
X167798Y-228276D01*
X167263Y-228687D01*
X166853Y-229221D01*
X166595Y-229844D01*
X166507Y-230512D01*
X166595Y-231180D01*
X166853Y-231802D01*
X166951Y-231930D01*
X166777Y-232283D01*
X159715D01*
X159541Y-231930D01*
X159639Y-231802D01*
X159897Y-231180D01*
X159985Y-230512D01*
X159897Y-229844D01*
X159639Y-229221D01*
X159229Y-228687D01*
X158695Y-228276D01*
X158072Y-228019D01*
X157404Y-227931D01*
X156736Y-228019D01*
X156114Y-228276D01*
X155579Y-228687D01*
X155169Y-229221D01*
X154911Y-229844D01*
X154823Y-230512D01*
X154911Y-231180D01*
X155169Y-231802D01*
X155267Y-231930D01*
X155093Y-232283D01*
X148031D01*
X147857Y-231930D01*
X147955Y-231802D01*
X148213Y-231180D01*
X148301Y-230512D01*
X148213Y-229844D01*
X147955Y-229221D01*
X147545Y-228687D01*
X147011Y-228276D01*
X146388Y-228019D01*
X145720Y-227931D01*
X145052Y-228019D01*
X144430Y-228276D01*
X143895Y-228687D01*
X143485Y-229221D01*
X143227Y-229844D01*
X143139Y-230512D01*
X143227Y-231180D01*
X143485Y-231802D01*
X143583Y-231930D01*
X143409Y-232283D01*
X136347D01*
X136173Y-231930D01*
X136271Y-231802D01*
X136529Y-231180D01*
X136617Y-230512D01*
X136529Y-229844D01*
X136271Y-229221D01*
X135861Y-228687D01*
X135327Y-228276D01*
X134704Y-228019D01*
X134036Y-227931D01*
X133368Y-228019D01*
X132746Y-228276D01*
X132211Y-228687D01*
X131801Y-229221D01*
X131543Y-229844D01*
X131455Y-230512D01*
X131543Y-231180D01*
X131801Y-231802D01*
X131899Y-231930D01*
X131725Y-232283D01*
X124663D01*
X124489Y-231930D01*
X124587Y-231802D01*
X124845Y-231180D01*
X124933Y-230512D01*
X124845Y-229844D01*
X124587Y-229221D01*
X124177Y-228687D01*
X123643Y-228276D01*
X123020Y-228019D01*
X122352Y-227931D01*
X121684Y-228019D01*
X121061Y-228276D01*
X120527Y-228687D01*
X120117Y-229221D01*
X119859Y-229844D01*
X119771Y-230512D01*
X119859Y-231180D01*
X120117Y-231802D01*
X120215Y-231930D01*
X120041Y-232283D01*
X112979D01*
X112805Y-231930D01*
X112903Y-231802D01*
X113161Y-231180D01*
X113249Y-230512D01*
X113161Y-229844D01*
X112903Y-229221D01*
X112493Y-228687D01*
X111959Y-228276D01*
X111336Y-228019D01*
X110668Y-227931D01*
X110000Y-228019D01*
X109377Y-228276D01*
X108843Y-228687D01*
X108433Y-229221D01*
X108175Y-229844D01*
X108087Y-230512D01*
X108175Y-231180D01*
X108433Y-231802D01*
X108531Y-231930D01*
X108357Y-232283D01*
X107503D01*
X107503Y-232283D01*
Y-123031D01*
X107412Y-122571D01*
X107151Y-122180D01*
X107151Y-122180D01*
X104198Y-119227D01*
X103807Y-118966D01*
X103347Y-118875D01*
X103346Y-118875D01*
X79725D01*
X79724Y-118875D01*
X79264Y-118966D01*
X78873Y-119227D01*
X78873Y-119227D01*
X70367Y-127733D01*
X60039D01*
X60039Y-18701D01*
X54134Y-12795D01*
X3937D01*
Y-8174D01*
X4331Y-7989D01*
X4844Y-8202D01*
X5512Y-8290D01*
X6180Y-8202D01*
X6802Y-7944D01*
X7337Y-7534D01*
X7747Y-6999D01*
X8005Y-6377D01*
X8093Y-5709D01*
X8005Y-5041D01*
X7747Y-4418D01*
X7649Y-4290D01*
X7823Y-3937D01*
X14885D01*
D02*
G37*
G36*
X41274Y-49986D02*
X40852Y-50023D01*
X38960Y-50295D01*
X38909Y-50326D01*
X36682Y-48099D01*
X36713Y-48048D01*
X36745Y-47955D01*
X36777Y-47821D01*
X36844Y-47431D01*
X36949Y-46536D01*
X37022Y-45734D01*
X41274Y-49986D01*
D02*
G37*
G36*
X25020Y-52994D02*
X24752Y-53280D01*
X24512Y-53570D01*
X24300Y-53865D01*
X24117Y-54164D01*
X23963Y-54469D01*
X23838Y-54778D01*
X23741Y-55092D01*
X23673Y-55411D01*
X23633Y-55735D01*
X23622Y-56063D01*
X19724Y-52166D01*
X20053Y-52154D01*
X20376Y-52115D01*
X20695Y-52047D01*
X21009Y-51950D01*
X21318Y-51824D01*
X21623Y-51670D01*
X21923Y-51487D01*
X22218Y-51276D01*
X22508Y-51036D01*
X22793Y-50767D01*
X25020Y-52994D01*
D02*
G37*
G36*
Y-66774D02*
X24752Y-67059D01*
X24512Y-67349D01*
X24300Y-67644D01*
X24117Y-67944D01*
X23963Y-68248D01*
X23838Y-68558D01*
X23741Y-68872D01*
X23673Y-69191D01*
X23633Y-69514D01*
X23622Y-69842D01*
X19724Y-65945D01*
X20053Y-65934D01*
X20376Y-65894D01*
X20695Y-65826D01*
X21009Y-65729D01*
X21318Y-65604D01*
X21623Y-65450D01*
X21923Y-65267D01*
X22218Y-65055D01*
X22508Y-64815D01*
X22793Y-64547D01*
X25020Y-66774D01*
D02*
G37*
G36*
X33201Y-68401D02*
X33316Y-68505D01*
X33472Y-68597D01*
X33669Y-68677D01*
X33906Y-68744D01*
X34184Y-68800D01*
X34502Y-68842D01*
X35261Y-68892D01*
X35702Y-68898D01*
X33119Y-73622D01*
X31197Y-73448D01*
X33126Y-68284D01*
X33201Y-68401D01*
D02*
G37*
G36*
X24304Y-79382D02*
X24020Y-79684D01*
X23776Y-79978D01*
X23574Y-80266D01*
X23412Y-80547D01*
X23291Y-80822D01*
X23210Y-81090D01*
X23171Y-81351D01*
X23172Y-81605D01*
X23214Y-81853D01*
X23297Y-82094D01*
X18190Y-80019D01*
X18356Y-79942D01*
X18537Y-79840D01*
X18733Y-79714D01*
X19172Y-79387D01*
X19671Y-78962D01*
X20535Y-78140D01*
X24304Y-79382D01*
D02*
G37*
G36*
X36370Y-84455D02*
X34452Y-87548D01*
X34146Y-87257D01*
X33855Y-87012D01*
X33579Y-86811D01*
X33318Y-86656D01*
X33071Y-86546D01*
X32840Y-86481D01*
X32623Y-86461D01*
X32422Y-86487D01*
X32235Y-86557D01*
X32063Y-86673D01*
X32836Y-81528D01*
X36370Y-84455D01*
D02*
G37*
G36*
X24565Y-93491D02*
X24283Y-93791D01*
X24038Y-94086D01*
X23831Y-94377D01*
X23662Y-94664D01*
X23532Y-94946D01*
X23439Y-95223D01*
X23385Y-95496D01*
X23369Y-95765D01*
X23390Y-96030D01*
X23450Y-96290D01*
X18609Y-93654D01*
X18832Y-93580D01*
X19063Y-93482D01*
X19302Y-93360D01*
X19550Y-93214D01*
X19806Y-93044D01*
X20342Y-92633D01*
X20623Y-92391D01*
X21209Y-91836D01*
X24565Y-93491D01*
D02*
G37*
G36*
X39880Y-97990D02*
X36104D01*
X36126Y-97939D01*
X36146Y-97848D01*
X36163Y-97716D01*
X36191Y-97332D01*
X36220Y-95669D01*
X39764D01*
X39880Y-97990D01*
D02*
G37*
G36*
X33039Y-99274D02*
X33040Y-99422D01*
X33080Y-99591D01*
X33158Y-99781D01*
X33274Y-99993D01*
X33428Y-100224D01*
X33620Y-100478D01*
X34120Y-101047D01*
X34428Y-101363D01*
X30867Y-104484D01*
X27940Y-101044D01*
X33076Y-99147D01*
X33039Y-99274D01*
D02*
G37*
G36*
X16246Y-107656D02*
X16175Y-107711D01*
X15386Y-108739D01*
X14890Y-109936D01*
X14721Y-111221D01*
X14890Y-112505D01*
X15386Y-113702D01*
X15812Y-114258D01*
X19267Y-110803D01*
X19685Y-111221D01*
X20103Y-110803D01*
X23558Y-114258D01*
X23984Y-113702D01*
X24287Y-112971D01*
X24713D01*
X25057Y-113802D01*
X25877Y-114871D01*
X26946Y-115691D01*
X28192Y-116207D01*
X29528Y-116383D01*
X30864Y-116207D01*
X32109Y-115691D01*
X32127Y-115677D01*
X32480Y-115851D01*
Y-120369D01*
X32127Y-120544D01*
X32109Y-120529D01*
X30864Y-120014D01*
X29528Y-119838D01*
X28192Y-120014D01*
X26946Y-120529D01*
X25877Y-121350D01*
X25057Y-122419D01*
X24803Y-123031D01*
X24409D01*
X24156Y-122419D01*
X23335Y-121350D01*
X22266Y-120529D01*
X21021Y-120014D01*
X19685Y-119838D01*
X18349Y-120014D01*
X17104Y-120529D01*
X16035Y-121350D01*
X15214Y-122419D01*
X14699Y-123664D01*
X14523Y-125000D01*
X14699Y-126336D01*
X15214Y-127581D01*
X16035Y-128650D01*
X17104Y-129471D01*
X18349Y-129986D01*
X19685Y-130162D01*
X21021Y-129986D01*
X22266Y-129471D01*
X23335Y-128650D01*
X24156Y-127581D01*
X24409Y-126969D01*
X24803D01*
X25057Y-127581D01*
X25877Y-128650D01*
X26946Y-129471D01*
X28192Y-129986D01*
X29528Y-130162D01*
X30864Y-129986D01*
X32109Y-129471D01*
X32804Y-128937D01*
X60039Y-128937D01*
Y-128937D01*
X70866D01*
X79724Y-120079D01*
X103347D01*
X106299Y-123031D01*
Y-232283D01*
X101295D01*
X101121Y-231930D01*
X101219Y-231802D01*
X101477Y-231180D01*
X101565Y-230512D01*
X101477Y-229844D01*
X101219Y-229221D01*
X100809Y-228687D01*
X100275Y-228276D01*
X99652Y-228019D01*
X98984Y-227931D01*
X98316Y-228019D01*
X97693Y-228276D01*
X97159Y-228687D01*
X96749Y-229221D01*
X96491Y-229844D01*
X96403Y-230512D01*
X96491Y-231180D01*
X96749Y-231802D01*
X96847Y-231930D01*
X96673Y-232283D01*
X89611D01*
X89437Y-231930D01*
X89535Y-231802D01*
X89793Y-231180D01*
X89881Y-230512D01*
X89793Y-229844D01*
X89535Y-229221D01*
X89125Y-228687D01*
X88591Y-228276D01*
X87968Y-228019D01*
X87300Y-227931D01*
X86632Y-228019D01*
X86009Y-228276D01*
X85475Y-228687D01*
X85065Y-229221D01*
X84807Y-229844D01*
X84719Y-230512D01*
X84807Y-231180D01*
X85065Y-231802D01*
X85163Y-231930D01*
X84989Y-232283D01*
X77927D01*
X77753Y-231930D01*
X77851Y-231802D01*
X78109Y-231180D01*
X78197Y-230512D01*
X78109Y-229844D01*
X77851Y-229221D01*
X77441Y-228687D01*
X76907Y-228276D01*
X76284Y-228019D01*
X75616Y-227931D01*
X74948Y-228019D01*
X74325Y-228276D01*
X73791Y-228687D01*
X73381Y-229221D01*
X73123Y-229844D01*
X73035Y-230512D01*
X73123Y-231180D01*
X73381Y-231802D01*
X73479Y-231930D01*
X73305Y-232283D01*
X66243D01*
X66069Y-231930D01*
X66167Y-231802D01*
X66425Y-231180D01*
X66513Y-230512D01*
X66425Y-229844D01*
X66167Y-229221D01*
X65757Y-228687D01*
X65223Y-228276D01*
X64600Y-228019D01*
X63932Y-227931D01*
X63264Y-228019D01*
X62641Y-228276D01*
X62107Y-228687D01*
X61697Y-229221D01*
X61439Y-229844D01*
X61351Y-230512D01*
X61439Y-231180D01*
X61697Y-231802D01*
X61795Y-231930D01*
X61621Y-232283D01*
X54559D01*
X54385Y-231930D01*
X54483Y-231802D01*
X54741Y-231180D01*
X54829Y-230512D01*
X54741Y-229844D01*
X54483Y-229221D01*
X54073Y-228687D01*
X53539Y-228276D01*
X52916Y-228019D01*
X52248Y-227931D01*
X51580Y-228019D01*
X50957Y-228276D01*
X50423Y-228687D01*
X50013Y-229221D01*
X49755Y-229844D01*
X49667Y-230512D01*
X49755Y-231180D01*
X50013Y-231802D01*
X50111Y-231930D01*
X49937Y-232283D01*
X42875D01*
X42701Y-231930D01*
X42799Y-231802D01*
X43057Y-231180D01*
X43145Y-230512D01*
X43057Y-229844D01*
X42799Y-229221D01*
X42389Y-228687D01*
X41854Y-228276D01*
X41232Y-228019D01*
X40564Y-227931D01*
X39896Y-228019D01*
X39273Y-228276D01*
X38739Y-228687D01*
X38328Y-229221D01*
X38071Y-229844D01*
X37983Y-230512D01*
X38071Y-231180D01*
X38328Y-231802D01*
X38427Y-231930D01*
X38253Y-232283D01*
X31191D01*
X31017Y-231930D01*
X31115Y-231802D01*
X31373Y-231180D01*
X31461Y-230512D01*
X31373Y-229844D01*
X31115Y-229221D01*
X30705Y-228687D01*
X30170Y-228276D01*
X29548Y-228019D01*
X28880Y-227931D01*
X28212Y-228019D01*
X27589Y-228276D01*
X27055Y-228687D01*
X26645Y-229221D01*
X26387Y-229844D01*
X26299Y-230512D01*
X26387Y-231180D01*
X26645Y-231802D01*
X26743Y-231930D01*
X26569Y-232283D01*
X19507D01*
X19333Y-231930D01*
X19431Y-231802D01*
X19689Y-231180D01*
X19777Y-230512D01*
X19689Y-229844D01*
X19431Y-229221D01*
X19021Y-228687D01*
X18486Y-228276D01*
X17864Y-228019D01*
X17196Y-227931D01*
X16528Y-228019D01*
X15905Y-228276D01*
X15371Y-228687D01*
X14961Y-229221D01*
X14703Y-229844D01*
X14615Y-230512D01*
X14703Y-231180D01*
X14961Y-231802D01*
X15059Y-231930D01*
X14885Y-232283D01*
X7823D01*
X7649Y-231930D01*
X7747Y-231802D01*
X8005Y-231180D01*
X8093Y-230512D01*
X8005Y-229844D01*
X7747Y-229221D01*
X7337Y-228687D01*
X6802Y-228276D01*
X6180Y-228019D01*
X5512Y-227931D01*
X4844Y-228019D01*
X4331Y-228231D01*
X3937Y-228046D01*
Y-107283D01*
X16119D01*
X16246Y-107656D01*
D02*
G37*
%LPC*%
G36*
X328839Y-15332D02*
X328170Y-15420D01*
X327548Y-15678D01*
X327013Y-16088D01*
X326603Y-16623D01*
X326345Y-17245D01*
X326257Y-17913D01*
X326345Y-18581D01*
X326603Y-19204D01*
X327013Y-19738D01*
X327548Y-20149D01*
X328170Y-20407D01*
X328839Y-20494D01*
X329507Y-20407D01*
X330129Y-20149D01*
X330664Y-19738D01*
X331074Y-19204D01*
X331332Y-18581D01*
X331420Y-17913D01*
X331332Y-17245D01*
X331074Y-16623D01*
X330664Y-16088D01*
X330129Y-15678D01*
X329507Y-15420D01*
X328839Y-15332D01*
D02*
G37*
G36*
X226969Y-17683D02*
X225941Y-17818D01*
X224983Y-18215D01*
X224633Y-18483D01*
X226969Y-20818D01*
X229304Y-18483D01*
X228954Y-18215D01*
X227996Y-17818D01*
X226969Y-17683D01*
D02*
G37*
G36*
X162303Y-18580D02*
X161635Y-18668D01*
X161013Y-18926D01*
X160478Y-19336D01*
X160068Y-19871D01*
X159810Y-20493D01*
X159722Y-21161D01*
X159810Y-21829D01*
X160068Y-22452D01*
X160478Y-22986D01*
X161013Y-23397D01*
X161635Y-23655D01*
X162303Y-23742D01*
X162971Y-23655D01*
X163594Y-23397D01*
X164128Y-22986D01*
X164539Y-22452D01*
X164796Y-21829D01*
X164884Y-21161D01*
X164796Y-20493D01*
X164539Y-19871D01*
X164128Y-19336D01*
X163594Y-18926D01*
X162971Y-18668D01*
X162303Y-18580D01*
D02*
G37*
G36*
X168701Y-18679D02*
X168033Y-18767D01*
X167410Y-19025D01*
X166876Y-19435D01*
X166465Y-19969D01*
X166208Y-20592D01*
X166120Y-21260D01*
X166208Y-21928D01*
X166465Y-22550D01*
X166876Y-23085D01*
X167410Y-23495D01*
X168033Y-23753D01*
X168701Y-23841D01*
X169369Y-23753D01*
X169991Y-23495D01*
X170526Y-23085D01*
X170936Y-22550D01*
X171194Y-21928D01*
X171282Y-21260D01*
X171194Y-20592D01*
X170936Y-19969D01*
X170526Y-19435D01*
X169991Y-19025D01*
X169369Y-18767D01*
X168701Y-18679D01*
D02*
G37*
G36*
X230139Y-19318D02*
X227804Y-21654D01*
X230139Y-23989D01*
X230408Y-23639D01*
X230804Y-22681D01*
X230940Y-21654D01*
X230804Y-20626D01*
X230408Y-19668D01*
X230139Y-19318D01*
D02*
G37*
G36*
X223798D02*
X223530Y-19668D01*
X223133Y-20626D01*
X222997Y-21654D01*
X223133Y-22681D01*
X223530Y-23639D01*
X223798Y-23989D01*
X226133Y-21654D01*
X223798Y-19318D01*
D02*
G37*
G36*
X118898Y-19419D02*
X118230Y-19507D01*
X117607Y-19765D01*
X117072Y-20175D01*
X116662Y-20709D01*
X116404Y-21332D01*
X116316Y-22000D01*
X116404Y-22668D01*
X116662Y-23291D01*
X117072Y-23825D01*
X117607Y-24235D01*
X118230Y-24493D01*
X118898Y-24581D01*
X119566Y-24493D01*
X120188Y-24235D01*
X120723Y-23825D01*
X121133Y-23291D01*
X121391Y-22668D01*
X121479Y-22000D01*
X121391Y-21332D01*
X121133Y-20709D01*
X120723Y-20175D01*
X120188Y-19765D01*
X119566Y-19507D01*
X118898Y-19419D01*
D02*
G37*
G36*
X226969Y-22489D02*
X224633Y-24824D01*
X224983Y-25093D01*
X225941Y-25489D01*
X226969Y-25624D01*
X227996Y-25489D01*
X228954Y-25093D01*
X229304Y-24824D01*
X226969Y-22489D01*
D02*
G37*
G36*
X191102Y-17520D02*
X182835D01*
Y-25787D01*
X191102D01*
Y-17520D01*
D02*
G37*
G36*
X216968Y-17484D02*
X215889Y-17626D01*
X214884Y-18043D01*
X214020Y-18705D01*
X213358Y-19569D01*
X212941Y-20574D01*
X212799Y-21654D01*
X212941Y-22733D01*
X213358Y-23738D01*
X214020Y-24602D01*
X214884Y-25264D01*
X215889Y-25681D01*
X216968Y-25823D01*
X218048Y-25681D01*
X219053Y-25264D01*
X219917Y-24602D01*
X220579Y-23738D01*
X220996Y-22733D01*
X221138Y-21654D01*
X220996Y-20574D01*
X220579Y-19569D01*
X219917Y-18705D01*
X219053Y-18043D01*
X218048Y-17626D01*
X216968Y-17484D01*
D02*
G37*
G36*
X206968D02*
X205889Y-17626D01*
X204884Y-18043D01*
X204020Y-18705D01*
X203358Y-19569D01*
X202941Y-20574D01*
X202799Y-21654D01*
X202941Y-22733D01*
X203358Y-23738D01*
X204020Y-24602D01*
X204884Y-25264D01*
X205889Y-25681D01*
X206968Y-25823D01*
X208048Y-25681D01*
X209053Y-25264D01*
X209917Y-24602D01*
X210579Y-23738D01*
X210996Y-22733D01*
X211138Y-21654D01*
X210996Y-20574D01*
X210579Y-19569D01*
X209917Y-18705D01*
X209053Y-18043D01*
X208048Y-17626D01*
X206968Y-17484D01*
D02*
G37*
G36*
X196968D02*
X195889Y-17626D01*
X194884Y-18043D01*
X194020Y-18705D01*
X193358Y-19569D01*
X192941Y-20574D01*
X192799Y-21654D01*
X192941Y-22733D01*
X193358Y-23738D01*
X194020Y-24602D01*
X194884Y-25264D01*
X195889Y-25681D01*
X196968Y-25823D01*
X198048Y-25681D01*
X199053Y-25264D01*
X199917Y-24602D01*
X200579Y-23738D01*
X200996Y-22733D01*
X201138Y-21654D01*
X200996Y-20574D01*
X200579Y-19569D01*
X199917Y-18705D01*
X199053Y-18043D01*
X198048Y-17626D01*
X196968Y-17484D01*
D02*
G37*
G36*
X354823Y-32633D02*
X353487Y-32809D01*
X352242Y-33325D01*
X351173Y-34145D01*
X350352Y-35214D01*
X350098Y-35827D01*
X349705D01*
X349451Y-35214D01*
X348631Y-34145D01*
X347561Y-33325D01*
X346316Y-32809D01*
X344980Y-32633D01*
X343644Y-32809D01*
X342399Y-33325D01*
X341330Y-34145D01*
X340510Y-35214D01*
X339994Y-36459D01*
X339818Y-37795D01*
X339994Y-39131D01*
X340510Y-40376D01*
X341330Y-41445D01*
X342399Y-42266D01*
X343644Y-42782D01*
X344980Y-42957D01*
X346316Y-42782D01*
X347561Y-42266D01*
X348631Y-41445D01*
X349451Y-40376D01*
X349705Y-39764D01*
X350098D01*
X350352Y-40376D01*
X351173Y-41445D01*
X352242Y-42266D01*
X353487Y-42782D01*
X354823Y-42957D01*
X356159Y-42782D01*
X357404Y-42266D01*
X358473Y-41445D01*
X359294Y-40376D01*
X359809Y-39131D01*
X359985Y-37795D01*
X359809Y-36459D01*
X359294Y-35214D01*
X358473Y-34145D01*
X357404Y-33325D01*
X356159Y-32809D01*
X354823Y-32633D01*
D02*
G37*
G36*
X245472Y-31474D02*
X244804Y-31562D01*
X244182Y-31820D01*
X243647Y-32230D01*
X243237Y-32765D01*
X242979Y-33387D01*
X242891Y-34055D01*
X242979Y-34723D01*
X243237Y-35346D01*
X243647Y-35880D01*
X244182Y-36290D01*
X244804Y-36548D01*
X245472Y-36636D01*
X246141Y-36548D01*
X246763Y-36290D01*
X247298Y-35880D01*
X247708Y-35346D01*
X247966Y-34723D01*
X248054Y-34055D01*
X247966Y-33387D01*
X247708Y-32765D01*
X247298Y-32230D01*
X246763Y-31820D01*
X246141Y-31562D01*
X245472Y-31474D01*
D02*
G37*
G36*
X216339Y-33049D02*
X215671Y-33137D01*
X215048Y-33395D01*
X214513Y-33805D01*
X214103Y-34339D01*
X213845Y-34962D01*
X213757Y-35630D01*
X213845Y-36298D01*
X214103Y-36920D01*
X214513Y-37455D01*
X215048Y-37865D01*
X215671Y-38123D01*
X216339Y-38211D01*
X217007Y-38123D01*
X217629Y-37865D01*
X218164Y-37455D01*
X218574Y-36920D01*
X218832Y-36298D01*
X218920Y-35630D01*
X218832Y-34962D01*
X218574Y-34339D01*
X218164Y-33805D01*
X217629Y-33395D01*
X217007Y-33137D01*
X216339Y-33049D01*
D02*
G37*
G36*
X196654D02*
X195985Y-33137D01*
X195363Y-33395D01*
X194828Y-33805D01*
X194418Y-34339D01*
X194160Y-34962D01*
X194072Y-35630D01*
X194160Y-36298D01*
X194418Y-36920D01*
X194828Y-37455D01*
X195363Y-37865D01*
X195985Y-38123D01*
X196654Y-38211D01*
X197322Y-38123D01*
X197944Y-37865D01*
X198479Y-37455D01*
X198889Y-36920D01*
X199147Y-36298D01*
X199235Y-35630D01*
X199147Y-34962D01*
X198889Y-34339D01*
X198479Y-33805D01*
X197944Y-33395D01*
X197322Y-33137D01*
X196654Y-33049D01*
D02*
G37*
G36*
X140650Y-33344D02*
X139981Y-33432D01*
X139359Y-33690D01*
X138824Y-34100D01*
X138414Y-34635D01*
X138156Y-35257D01*
X138068Y-35925D01*
X138156Y-36593D01*
X138414Y-37216D01*
X138824Y-37750D01*
X139359Y-38160D01*
X139981Y-38418D01*
X140650Y-38506D01*
X141318Y-38418D01*
X141940Y-38160D01*
X142475Y-37750D01*
X142885Y-37216D01*
X143143Y-36593D01*
X143231Y-35925D01*
X143143Y-35257D01*
X142885Y-34635D01*
X142475Y-34100D01*
X141940Y-33690D01*
X141318Y-33432D01*
X140650Y-33344D01*
D02*
G37*
G36*
X132283Y-35017D02*
X131615Y-35105D01*
X130993Y-35363D01*
X130458Y-35773D01*
X130048Y-36308D01*
X129790Y-36930D01*
X129702Y-37598D01*
X129790Y-38267D01*
X130048Y-38889D01*
X130458Y-39424D01*
X130993Y-39834D01*
X131615Y-40092D01*
X132283Y-40180D01*
X132951Y-40092D01*
X133574Y-39834D01*
X134109Y-39424D01*
X134519Y-38889D01*
X134777Y-38267D01*
X134865Y-37598D01*
X134777Y-36930D01*
X134519Y-36308D01*
X134109Y-35773D01*
X133574Y-35363D01*
X132951Y-35105D01*
X132283Y-35017D01*
D02*
G37*
G36*
X118898Y-41614D02*
X118230Y-41702D01*
X117607Y-41959D01*
X117072Y-42370D01*
X116662Y-42904D01*
X116404Y-43527D01*
X116316Y-44195D01*
X116404Y-44863D01*
X116662Y-45485D01*
X117072Y-46020D01*
X117607Y-46430D01*
X118230Y-46688D01*
X118898Y-46776D01*
X119566Y-46688D01*
X120188Y-46430D01*
X120723Y-46020D01*
X121133Y-45485D01*
X121391Y-44863D01*
X121479Y-44195D01*
X121391Y-43527D01*
X121133Y-42904D01*
X120723Y-42370D01*
X120188Y-41959D01*
X119566Y-41702D01*
X118898Y-41614D01*
D02*
G37*
G36*
X354823Y-46413D02*
X353487Y-46588D01*
X352242Y-47104D01*
X351173Y-47925D01*
X350352Y-48994D01*
X350098Y-49606D01*
X349705D01*
X349451Y-48994D01*
X348631Y-47925D01*
X347562Y-47104D01*
X346316Y-46588D01*
X344980Y-46413D01*
X343644Y-46588D01*
X342399Y-47104D01*
X341330Y-47925D01*
X340510Y-48994D01*
X339994Y-50239D01*
X339818Y-51575D01*
X339994Y-52911D01*
X340510Y-54156D01*
X341330Y-55225D01*
X342399Y-56046D01*
X343644Y-56561D01*
X344980Y-56737D01*
X346316Y-56561D01*
X347562Y-56046D01*
X348631Y-55225D01*
X349451Y-54156D01*
X349705Y-53543D01*
X350098D01*
X350352Y-54156D01*
X351173Y-55225D01*
X352242Y-56046D01*
X353487Y-56561D01*
X354823Y-56737D01*
X356159Y-56561D01*
X357404Y-56046D01*
X358473Y-55225D01*
X359294Y-54156D01*
X359809Y-52911D01*
X359985Y-51575D01*
X359809Y-50239D01*
X359294Y-48994D01*
X358473Y-47925D01*
X357404Y-47104D01*
X356159Y-46588D01*
X354823Y-46413D01*
D02*
G37*
G36*
X153150Y-45155D02*
X152482Y-45243D01*
X151859Y-45501D01*
X151324Y-45911D01*
X150914Y-46446D01*
X150656Y-47068D01*
X150568Y-47736D01*
X150656Y-48404D01*
X150914Y-49027D01*
X151324Y-49561D01*
X151859Y-49972D01*
X152482Y-50229D01*
X153150Y-50317D01*
X153818Y-50229D01*
X154440Y-49972D01*
X154975Y-49561D01*
X155385Y-49027D01*
X155643Y-48404D01*
X155731Y-47736D01*
X155643Y-47068D01*
X155385Y-46446D01*
X154975Y-45911D01*
X154440Y-45501D01*
X153818Y-45243D01*
X153150Y-45155D01*
D02*
G37*
G36*
X250394Y-47813D02*
X249726Y-47901D01*
X249103Y-48158D01*
X248569Y-48569D01*
X248158Y-49103D01*
X247901Y-49726D01*
X247813Y-50394D01*
X247901Y-51062D01*
X248158Y-51684D01*
X248569Y-52219D01*
X249103Y-52629D01*
X249726Y-52887D01*
X250394Y-52975D01*
X251062Y-52887D01*
X251684Y-52629D01*
X252219Y-52219D01*
X252629Y-51684D01*
X252887Y-51062D01*
X252975Y-50394D01*
X252887Y-49726D01*
X252629Y-49103D01*
X252219Y-48569D01*
X251684Y-48158D01*
X251062Y-47901D01*
X250394Y-47813D01*
D02*
G37*
G36*
X198228Y-51553D02*
X197560Y-51641D01*
X196938Y-51898D01*
X196403Y-52309D01*
X195993Y-52843D01*
X195735Y-53466D01*
X195647Y-54134D01*
X195735Y-54802D01*
X195993Y-55424D01*
X196403Y-55959D01*
X196938Y-56369D01*
X197560Y-56627D01*
X198228Y-56715D01*
X198896Y-56627D01*
X199519Y-56369D01*
X200054Y-55959D01*
X200464Y-55424D01*
X200722Y-54802D01*
X200810Y-54134D01*
X200722Y-53466D01*
X200464Y-52843D01*
X200054Y-52309D01*
X199519Y-51898D01*
X198896Y-51641D01*
X198228Y-51553D01*
D02*
G37*
G36*
X256496Y-55490D02*
X255828Y-55578D01*
X255205Y-55836D01*
X254671Y-56246D01*
X254261Y-56780D01*
X254003Y-57403D01*
X253915Y-58071D01*
X254003Y-58739D01*
X254261Y-59361D01*
X254671Y-59896D01*
X255205Y-60306D01*
X255828Y-60564D01*
X256496Y-60652D01*
X257164Y-60564D01*
X257787Y-60306D01*
X258321Y-59896D01*
X258731Y-59361D01*
X258989Y-58739D01*
X259077Y-58071D01*
X258989Y-57403D01*
X258731Y-56780D01*
X258321Y-56246D01*
X257787Y-55836D01*
X257164Y-55578D01*
X256496Y-55490D01*
D02*
G37*
G36*
X354823Y-60192D02*
X353487Y-60368D01*
X352242Y-60884D01*
X351173Y-61704D01*
X350352Y-62773D01*
X350098Y-63386D01*
X349705D01*
X349451Y-62773D01*
X348631Y-61704D01*
X347561Y-60884D01*
X346316Y-60368D01*
X344980Y-60192D01*
X343644Y-60368D01*
X342399Y-60884D01*
X341330Y-61704D01*
X340510Y-62773D01*
X339994Y-64018D01*
X339818Y-65354D01*
X339994Y-66690D01*
X340510Y-67936D01*
X341330Y-69005D01*
X342399Y-69825D01*
X343644Y-70341D01*
X344980Y-70517D01*
X346316Y-70341D01*
X347561Y-69825D01*
X348631Y-69005D01*
X349451Y-67936D01*
X349705Y-67323D01*
X350098D01*
X350352Y-67936D01*
X351173Y-69005D01*
X352242Y-69825D01*
X353487Y-70341D01*
X354823Y-70517D01*
X356159Y-70341D01*
X357404Y-69825D01*
X358473Y-69005D01*
X359294Y-67936D01*
X359809Y-66690D01*
X359985Y-65354D01*
X359809Y-64018D01*
X359294Y-62773D01*
X358473Y-61704D01*
X357404Y-60884D01*
X356159Y-60368D01*
X354823Y-60192D01*
D02*
G37*
G36*
X272933Y-62281D02*
X272265Y-62369D01*
X271642Y-62627D01*
X271108Y-63037D01*
X270698Y-63572D01*
X270440Y-64194D01*
X270352Y-64862D01*
X270440Y-65530D01*
X270698Y-66153D01*
X271108Y-66687D01*
X271642Y-67098D01*
X272265Y-67355D01*
X272933Y-67443D01*
X273601Y-67355D01*
X274224Y-67098D01*
X274758Y-66687D01*
X275168Y-66153D01*
X275426Y-65530D01*
X275514Y-64862D01*
X275426Y-64194D01*
X275168Y-63572D01*
X274758Y-63037D01*
X274224Y-62627D01*
X273601Y-62369D01*
X272933Y-62281D01*
D02*
G37*
G36*
X177559Y-62576D02*
X176891Y-62664D01*
X176268Y-62922D01*
X175734Y-63332D01*
X175324Y-63867D01*
X175066Y-64489D01*
X174978Y-65158D01*
X175066Y-65825D01*
X175324Y-66448D01*
X175734Y-66983D01*
X176268Y-67393D01*
X176891Y-67651D01*
X177559Y-67739D01*
X178227Y-67651D01*
X178850Y-67393D01*
X179384Y-66983D01*
X179794Y-66448D01*
X180052Y-65825D01*
X180140Y-65158D01*
X180052Y-64489D01*
X179794Y-63867D01*
X179384Y-63332D01*
X178850Y-62922D01*
X178227Y-62664D01*
X177559Y-62576D01*
D02*
G37*
G36*
X118898Y-63809D02*
X118230Y-63897D01*
X117607Y-64154D01*
X117072Y-64565D01*
X116662Y-65099D01*
X116404Y-65722D01*
X116316Y-66390D01*
X116404Y-67058D01*
X116662Y-67680D01*
X117072Y-68215D01*
X117607Y-68625D01*
X118230Y-68883D01*
X118898Y-68971D01*
X119566Y-68883D01*
X120188Y-68625D01*
X120723Y-68215D01*
X121133Y-67680D01*
X121391Y-67058D01*
X121479Y-66390D01*
X121391Y-65722D01*
X121133Y-65099D01*
X120723Y-64565D01*
X120188Y-64154D01*
X119566Y-63897D01*
X118898Y-63809D01*
D02*
G37*
G36*
X186614Y-64545D02*
X185946Y-64633D01*
X185324Y-64891D01*
X184789Y-65301D01*
X184379Y-65835D01*
X184121Y-66458D01*
X184033Y-67126D01*
X184121Y-67794D01*
X184379Y-68417D01*
X184789Y-68951D01*
X185324Y-69361D01*
X185946Y-69619D01*
X186614Y-69707D01*
X187282Y-69619D01*
X187905Y-69361D01*
X188439Y-68951D01*
X188849Y-68417D01*
X189107Y-67794D01*
X189195Y-67126D01*
X189107Y-66458D01*
X188849Y-65835D01*
X188439Y-65301D01*
X187905Y-64891D01*
X187282Y-64633D01*
X186614Y-64545D01*
D02*
G37*
G36*
X134646Y-64643D02*
X133978Y-64731D01*
X133355Y-64989D01*
X132820Y-65399D01*
X132410Y-65934D01*
X132152Y-66556D01*
X132064Y-67224D01*
X132152Y-67892D01*
X132410Y-68515D01*
X132820Y-69050D01*
X133355Y-69460D01*
X133978Y-69718D01*
X134646Y-69806D01*
X135314Y-69718D01*
X135936Y-69460D01*
X136471Y-69050D01*
X136881Y-68515D01*
X137139Y-67892D01*
X137227Y-67224D01*
X137139Y-66556D01*
X136881Y-65934D01*
X136471Y-65399D01*
X135936Y-64989D01*
X135314Y-64731D01*
X134646Y-64643D01*
D02*
G37*
G36*
X217126Y-64939D02*
X216458Y-65026D01*
X215835Y-65284D01*
X215301Y-65695D01*
X214891Y-66229D01*
X214633Y-66852D01*
X214545Y-67520D01*
X214633Y-68188D01*
X214891Y-68810D01*
X215301Y-69345D01*
X215835Y-69755D01*
X216458Y-70013D01*
X217126Y-70101D01*
X217794Y-70013D01*
X218417Y-69755D01*
X218951Y-69345D01*
X219361Y-68810D01*
X219619Y-68188D01*
X219707Y-67520D01*
X219619Y-66852D01*
X219361Y-66229D01*
X218951Y-65695D01*
X218417Y-65284D01*
X217794Y-65026D01*
X217126Y-64939D01*
D02*
G37*
G36*
X329921Y-65824D02*
X329253Y-65912D01*
X328631Y-66170D01*
X328096Y-66580D01*
X327686Y-67115D01*
X327428Y-67738D01*
X327340Y-68405D01*
X327428Y-69074D01*
X327686Y-69696D01*
X328096Y-70231D01*
X328631Y-70641D01*
X329253Y-70899D01*
X329921Y-70987D01*
X330589Y-70899D01*
X331212Y-70641D01*
X331746Y-70231D01*
X332157Y-69696D01*
X332414Y-69074D01*
X332502Y-68405D01*
X332414Y-67738D01*
X332157Y-67115D01*
X331746Y-66580D01*
X331212Y-66170D01*
X330589Y-65912D01*
X329921Y-65824D01*
D02*
G37*
G36*
X152362Y-69860D02*
X151694Y-69948D01*
X151072Y-70206D01*
X150537Y-70616D01*
X150127Y-71150D01*
X149869Y-71773D01*
X149815Y-72183D01*
X149404Y-72439D01*
X149093Y-72310D01*
X148425Y-72222D01*
X147757Y-72310D01*
X147135Y-72568D01*
X146600Y-72978D01*
X146190Y-73513D01*
X145932Y-74135D01*
X145844Y-74803D01*
X145932Y-75471D01*
X146190Y-76094D01*
X146600Y-76628D01*
X147135Y-77039D01*
X147757Y-77296D01*
X148425Y-77384D01*
X149093Y-77296D01*
X149716Y-77039D01*
X150250Y-76628D01*
X150661Y-76094D01*
X150918Y-75471D01*
X150972Y-75061D01*
X151383Y-74805D01*
X151694Y-74934D01*
X152362Y-75022D01*
X153030Y-74934D01*
X153653Y-74676D01*
X154187Y-74266D01*
X154597Y-73731D01*
X154855Y-73109D01*
X154943Y-72441D01*
X154855Y-71773D01*
X154597Y-71150D01*
X154187Y-70616D01*
X153653Y-70206D01*
X153030Y-69948D01*
X152362Y-69860D01*
D02*
G37*
G36*
X190551Y-68679D02*
X189883Y-68767D01*
X189261Y-69024D01*
X188726Y-69435D01*
X188316Y-69969D01*
X188058Y-70592D01*
X187970Y-71260D01*
X188058Y-71928D01*
X188316Y-72550D01*
X188726Y-73085D01*
X189261Y-73495D01*
X189883Y-73753D01*
X190551Y-73841D01*
X191219Y-73753D01*
X191842Y-73495D01*
X192376Y-73085D01*
X192787Y-72550D01*
X193044Y-71928D01*
X193132Y-71260D01*
X193044Y-70592D01*
X192787Y-69969D01*
X192376Y-69435D01*
X191842Y-69024D01*
X191219Y-68767D01*
X190551Y-68679D01*
D02*
G37*
G36*
X207283Y-73403D02*
X206615Y-73491D01*
X205993Y-73749D01*
X205458Y-74159D01*
X205117Y-74604D01*
X204676Y-74677D01*
X204581Y-74553D01*
X204047Y-74143D01*
X203424Y-73885D01*
X202756Y-73797D01*
X202088Y-73885D01*
X201465Y-74143D01*
X200931Y-74553D01*
X200521Y-75087D01*
X200263Y-75710D01*
X200175Y-76378D01*
X200263Y-77046D01*
X200521Y-77668D01*
X200931Y-78203D01*
X201465Y-78613D01*
X202088Y-78871D01*
X202756Y-78959D01*
X203424Y-78871D01*
X204047Y-78613D01*
X204581Y-78203D01*
X204923Y-77758D01*
X205363Y-77685D01*
X205458Y-77809D01*
X205993Y-78220D01*
X206615Y-78477D01*
X207283Y-78565D01*
X207951Y-78477D01*
X208574Y-78220D01*
X209109Y-77809D01*
X209519Y-77275D01*
X209777Y-76652D01*
X209865Y-75984D01*
X209777Y-75316D01*
X209519Y-74694D01*
X209109Y-74159D01*
X208574Y-73749D01*
X207951Y-73491D01*
X207283Y-73403D01*
D02*
G37*
G36*
X354823Y-73972D02*
X353487Y-74147D01*
X352242Y-74663D01*
X351173Y-75484D01*
X350352Y-76553D01*
X350098Y-77165D01*
X349705D01*
X349451Y-76553D01*
X348631Y-75484D01*
X347562Y-74663D01*
X346316Y-74147D01*
X344980Y-73972D01*
X343644Y-74147D01*
X342399Y-74663D01*
X341330Y-75484D01*
X340510Y-76553D01*
X339994Y-77798D01*
X339818Y-79134D01*
X339994Y-80470D01*
X340510Y-81715D01*
X341330Y-82784D01*
X342399Y-83605D01*
X343644Y-84120D01*
X344980Y-84296D01*
X346316Y-84120D01*
X347562Y-83605D01*
X348631Y-82784D01*
X349451Y-81715D01*
X349705Y-81102D01*
X350098D01*
X350352Y-81715D01*
X351173Y-82784D01*
X352242Y-83605D01*
X353487Y-84120D01*
X354823Y-84296D01*
X356159Y-84120D01*
X357404Y-83605D01*
X358473Y-82784D01*
X359294Y-81715D01*
X359809Y-80470D01*
X359985Y-79134D01*
X359809Y-77798D01*
X359294Y-76553D01*
X358473Y-75484D01*
X357404Y-74663D01*
X356159Y-74147D01*
X354823Y-73972D01*
D02*
G37*
G36*
X236221Y-72616D02*
X235552Y-72704D01*
X234930Y-72961D01*
X234395Y-73372D01*
X233985Y-73906D01*
X233727Y-74529D01*
X233639Y-75197D01*
X233727Y-75865D01*
X233985Y-76487D01*
X234395Y-77022D01*
X234930Y-77432D01*
X235552Y-77690D01*
X236221Y-77778D01*
X236889Y-77690D01*
X237511Y-77432D01*
X238046Y-77022D01*
X238456Y-76487D01*
X238714Y-75865D01*
X238802Y-75197D01*
X238714Y-74529D01*
X238456Y-73906D01*
X238046Y-73372D01*
X237511Y-72961D01*
X236889Y-72704D01*
X236221Y-72616D01*
D02*
G37*
G36*
X142913Y-74781D02*
X142245Y-74869D01*
X141623Y-75127D01*
X141088Y-75537D01*
X140678Y-76072D01*
X140420Y-76694D01*
X140332Y-77362D01*
X140420Y-78030D01*
X140678Y-78653D01*
X141088Y-79187D01*
X141623Y-79598D01*
X142245Y-79855D01*
X142913Y-79943D01*
X143581Y-79855D01*
X144204Y-79598D01*
X144738Y-79187D01*
X145149Y-78653D01*
X145407Y-78030D01*
X145494Y-77362D01*
X145407Y-76694D01*
X145149Y-76072D01*
X144738Y-75537D01*
X144204Y-75127D01*
X143581Y-74869D01*
X142913Y-74781D01*
D02*
G37*
G36*
X154134Y-75175D02*
X153466Y-75263D01*
X152843Y-75521D01*
X152309Y-75931D01*
X151899Y-76465D01*
X151641Y-77088D01*
X151553Y-77756D01*
X151641Y-78424D01*
X151899Y-79046D01*
X152309Y-79581D01*
X152843Y-79991D01*
X153466Y-80249D01*
X154134Y-80337D01*
X154802Y-80249D01*
X155424Y-79991D01*
X155959Y-79581D01*
X156369Y-79046D01*
X156627Y-78424D01*
X156715Y-77756D01*
X156627Y-77088D01*
X156369Y-76465D01*
X155959Y-75931D01*
X155424Y-75521D01*
X154802Y-75263D01*
X154134Y-75175D01*
D02*
G37*
G36*
X251575Y-75765D02*
X250907Y-75853D01*
X250284Y-76111D01*
X249750Y-76521D01*
X249340Y-77056D01*
X249082Y-77678D01*
X248994Y-78347D01*
X249082Y-79014D01*
X249340Y-79637D01*
X249750Y-80172D01*
X250284Y-80582D01*
X250907Y-80840D01*
X251575Y-80928D01*
X252243Y-80840D01*
X252865Y-80582D01*
X253400Y-80172D01*
X253810Y-79637D01*
X254068Y-79014D01*
X254156Y-78347D01*
X254068Y-77678D01*
X253810Y-77056D01*
X253400Y-76521D01*
X252865Y-76111D01*
X252243Y-75853D01*
X251575Y-75765D01*
D02*
G37*
G36*
X222441D02*
X221773Y-75853D01*
X221150Y-76111D01*
X220616Y-76521D01*
X220206Y-77056D01*
X219948Y-77678D01*
X219860Y-78347D01*
X219948Y-79014D01*
X220206Y-79637D01*
X220616Y-80172D01*
X221150Y-80582D01*
X221773Y-80840D01*
X222441Y-80928D01*
X223109Y-80840D01*
X223731Y-80582D01*
X224266Y-80172D01*
X224676Y-79637D01*
X224934Y-79014D01*
X225022Y-78347D01*
X224934Y-77678D01*
X224676Y-77056D01*
X224266Y-76521D01*
X223731Y-76111D01*
X223109Y-75853D01*
X222441Y-75765D01*
D02*
G37*
G36*
X292421Y-77537D02*
X291753Y-77625D01*
X291131Y-77883D01*
X290596Y-78293D01*
X290186Y-78828D01*
X289928Y-79450D01*
X289840Y-80118D01*
X289928Y-80786D01*
X290186Y-81409D01*
X290596Y-81943D01*
X291131Y-82353D01*
X291753Y-82611D01*
X292421Y-82699D01*
X293089Y-82611D01*
X293712Y-82353D01*
X294246Y-81943D01*
X294657Y-81409D01*
X294914Y-80786D01*
X295002Y-80118D01*
X294914Y-79450D01*
X294657Y-78828D01*
X294246Y-78293D01*
X293712Y-77883D01*
X293089Y-77625D01*
X292421Y-77537D01*
D02*
G37*
G36*
X276575Y-79899D02*
X275907Y-79987D01*
X275284Y-80245D01*
X274750Y-80655D01*
X274340Y-81190D01*
X274082Y-81812D01*
X273994Y-82480D01*
X274082Y-83148D01*
X274340Y-83771D01*
X274750Y-84305D01*
X275284Y-84716D01*
X275907Y-84974D01*
X276575Y-85061D01*
X277243Y-84974D01*
X277865Y-84716D01*
X278400Y-84305D01*
X278810Y-83771D01*
X279068Y-83148D01*
X279156Y-82480D01*
X279068Y-81812D01*
X278810Y-81190D01*
X278400Y-80655D01*
X277865Y-80245D01*
X277243Y-79987D01*
X276575Y-79899D01*
D02*
G37*
G36*
X264567Y-74584D02*
X263899Y-74672D01*
X263276Y-74930D01*
X262742Y-75340D01*
X262332Y-75875D01*
X262074Y-76497D01*
X261986Y-77165D01*
X262074Y-77833D01*
X262332Y-78456D01*
X262742Y-78991D01*
X263276Y-79401D01*
X263880Y-79650D01*
X263902Y-79715D01*
X263923Y-80059D01*
X263473Y-80245D01*
X262939Y-80655D01*
X262528Y-81190D01*
X262271Y-81812D01*
X262183Y-82480D01*
X262271Y-83148D01*
X262528Y-83771D01*
X262939Y-84305D01*
X263473Y-84716D01*
X264096Y-84974D01*
X264764Y-85061D01*
X265432Y-84974D01*
X266054Y-84716D01*
X266589Y-84305D01*
X266999Y-83771D01*
X267257Y-83148D01*
X267345Y-82480D01*
X267257Y-81812D01*
X266999Y-81190D01*
X266589Y-80655D01*
X266054Y-80245D01*
X265451Y-79995D01*
X265428Y-79931D01*
X265408Y-79587D01*
X265858Y-79401D01*
X266392Y-78991D01*
X266802Y-78456D01*
X267060Y-77833D01*
X267148Y-77165D01*
X267060Y-76497D01*
X266802Y-75875D01*
X266392Y-75340D01*
X265858Y-74930D01*
X265235Y-74672D01*
X264567Y-74584D01*
D02*
G37*
G36*
X286614Y-80096D02*
X285946Y-80184D01*
X285324Y-80442D01*
X284789Y-80852D01*
X284379Y-81387D01*
X284121Y-82009D01*
X284033Y-82677D01*
X284121Y-83345D01*
X284379Y-83968D01*
X284789Y-84502D01*
X285324Y-84913D01*
X285946Y-85170D01*
X286614Y-85258D01*
X287282Y-85170D01*
X287905Y-84913D01*
X288439Y-84502D01*
X288849Y-83968D01*
X289107Y-83345D01*
X289195Y-82677D01*
X289107Y-82009D01*
X288849Y-81387D01*
X288439Y-80852D01*
X287905Y-80442D01*
X287282Y-80184D01*
X286614Y-80096D01*
D02*
G37*
G36*
X225984D02*
X225316Y-80184D01*
X224694Y-80442D01*
X224159Y-80852D01*
X223749Y-81387D01*
X223491Y-82009D01*
X223403Y-82677D01*
X223491Y-83345D01*
X223749Y-83968D01*
X224159Y-84502D01*
X224694Y-84913D01*
X225316Y-85170D01*
X225984Y-85258D01*
X226652Y-85170D01*
X227275Y-84913D01*
X227809Y-84502D01*
X228220Y-83968D01*
X228477Y-83345D01*
X228565Y-82677D01*
X228477Y-82009D01*
X228220Y-81387D01*
X227809Y-80852D01*
X227275Y-80442D01*
X226652Y-80184D01*
X225984Y-80096D01*
D02*
G37*
G36*
X122441Y-85017D02*
X121773Y-85105D01*
X121150Y-85363D01*
X120616Y-85773D01*
X120206Y-86308D01*
X119825Y-86199D01*
X119566Y-86091D01*
X118898Y-86003D01*
X118230Y-86091D01*
X117607Y-86349D01*
X117072Y-86759D01*
X116662Y-87294D01*
X116404Y-87916D01*
X116316Y-88585D01*
X116404Y-89253D01*
X116662Y-89875D01*
X117072Y-90410D01*
X117607Y-90820D01*
X118230Y-91078D01*
X118898Y-91166D01*
X119566Y-91078D01*
X120188Y-90820D01*
X120723Y-90410D01*
X121133Y-89875D01*
X121513Y-89984D01*
X121773Y-90092D01*
X122441Y-90180D01*
X123109Y-90092D01*
X123732Y-89834D01*
X124266Y-89424D01*
X124676Y-88889D01*
X124934Y-88266D01*
X125022Y-87598D01*
X124934Y-86930D01*
X124676Y-86308D01*
X124266Y-85773D01*
X123732Y-85363D01*
X123109Y-85105D01*
X122441Y-85017D01*
D02*
G37*
G36*
X292717Y-83442D02*
X292049Y-83530D01*
X291426Y-83788D01*
X290891Y-84198D01*
X290481Y-84733D01*
X290223Y-85356D01*
X290135Y-86024D01*
X290213Y-86611D01*
X290029Y-86769D01*
X289860Y-86836D01*
X289480Y-86544D01*
X288857Y-86286D01*
X288189Y-86198D01*
X287521Y-86286D01*
X286898Y-86544D01*
X286364Y-86954D01*
X285954Y-87489D01*
X285696Y-88112D01*
X285608Y-88779D01*
X285696Y-89448D01*
X285954Y-90070D01*
X286364Y-90605D01*
X286898Y-91015D01*
X287521Y-91273D01*
X288189Y-91361D01*
X288857Y-91273D01*
X289480Y-91015D01*
X290014Y-90605D01*
X290424Y-90070D01*
X290682Y-89448D01*
X290770Y-88779D01*
X290693Y-88193D01*
X290876Y-88034D01*
X291046Y-87967D01*
X291426Y-88259D01*
X292049Y-88517D01*
X292717Y-88605D01*
X293385Y-88517D01*
X294007Y-88259D01*
X294542Y-87849D01*
X294952Y-87314D01*
X295210Y-86692D01*
X295298Y-86024D01*
X295210Y-85356D01*
X294952Y-84733D01*
X294542Y-84198D01*
X294007Y-83788D01*
X293385Y-83530D01*
X292717Y-83442D01*
D02*
G37*
G36*
X354823Y-87751D02*
X353487Y-87927D01*
X352242Y-88443D01*
X351173Y-89263D01*
X350352Y-90332D01*
X350098Y-90945D01*
X349705D01*
X349451Y-90332D01*
X348631Y-89263D01*
X347561Y-88443D01*
X346316Y-87927D01*
X344980Y-87751D01*
X343644Y-87927D01*
X342399Y-88443D01*
X341330Y-89263D01*
X340510Y-90332D01*
X339994Y-91577D01*
X339818Y-92913D01*
X339994Y-94249D01*
X340510Y-95495D01*
X341330Y-96564D01*
X342399Y-97384D01*
X343644Y-97900D01*
X344980Y-98076D01*
X346316Y-97900D01*
X347561Y-97384D01*
X348631Y-96564D01*
X349451Y-95495D01*
X349705Y-94882D01*
X350098D01*
X350352Y-95495D01*
X351173Y-96564D01*
X352242Y-97384D01*
X353487Y-97900D01*
X354823Y-98076D01*
X356159Y-97900D01*
X357404Y-97384D01*
X358473Y-96564D01*
X359294Y-95495D01*
X359809Y-94249D01*
X359985Y-92913D01*
X359809Y-91577D01*
X359294Y-90332D01*
X358473Y-89263D01*
X357404Y-88443D01*
X356159Y-87927D01*
X354823Y-87751D01*
D02*
G37*
G36*
X143110Y-90332D02*
X142442Y-90420D01*
X141820Y-90678D01*
X141285Y-91088D01*
X140875Y-91623D01*
X140617Y-92245D01*
X140529Y-92913D01*
X140617Y-93581D01*
X140875Y-94204D01*
X141285Y-94739D01*
X141820Y-95149D01*
X142442Y-95407D01*
X143110Y-95495D01*
X143778Y-95407D01*
X144401Y-95149D01*
X144935Y-94739D01*
X145346Y-94204D01*
X145603Y-93581D01*
X145691Y-92913D01*
X145603Y-92245D01*
X145346Y-91623D01*
X144935Y-91088D01*
X144401Y-90678D01*
X143778Y-90420D01*
X143110Y-90332D01*
D02*
G37*
G36*
X306931Y-90964D02*
X306263Y-91052D01*
X305640Y-91310D01*
X305106Y-91720D01*
X304696Y-92254D01*
X304438Y-92877D01*
X304350Y-93545D01*
X304438Y-94213D01*
X304696Y-94836D01*
X305106Y-95370D01*
X305640Y-95780D01*
X306263Y-96038D01*
X306931Y-96126D01*
X307599Y-96038D01*
X308221Y-95780D01*
X308756Y-95370D01*
X309166Y-94836D01*
X309424Y-94213D01*
X309512Y-93545D01*
X309424Y-92877D01*
X309166Y-92254D01*
X308756Y-91720D01*
X308221Y-91310D01*
X307599Y-91052D01*
X306931Y-90964D01*
D02*
G37*
G36*
X198622Y-96238D02*
X197954Y-96326D01*
X197332Y-96584D01*
X196797Y-96994D01*
X196387Y-97528D01*
X196129Y-98151D01*
X196041Y-98819D01*
X196129Y-99487D01*
X196387Y-100110D01*
X196797Y-100644D01*
X197332Y-101054D01*
X197954Y-101312D01*
X198622Y-101400D01*
X199290Y-101312D01*
X199913Y-101054D01*
X200447Y-100644D01*
X200857Y-100110D01*
X201115Y-99487D01*
X201203Y-98819D01*
X201115Y-98151D01*
X200857Y-97528D01*
X200447Y-96994D01*
X199913Y-96584D01*
X199290Y-96326D01*
X198622Y-96238D01*
D02*
G37*
G36*
X250591Y-97222D02*
X249922Y-97310D01*
X249300Y-97568D01*
X248765Y-97978D01*
X248355Y-98513D01*
X248097Y-99135D01*
X248009Y-99803D01*
X248097Y-100471D01*
X248355Y-101094D01*
X248765Y-101628D01*
X249300Y-102039D01*
X249922Y-102296D01*
X250591Y-102384D01*
X251259Y-102296D01*
X251881Y-102039D01*
X252416Y-101628D01*
X252826Y-101094D01*
X253084Y-100471D01*
X253172Y-99803D01*
X253084Y-99135D01*
X252826Y-98513D01*
X252416Y-97978D01*
X251881Y-97568D01*
X251259Y-97310D01*
X250591Y-97222D01*
D02*
G37*
G36*
X303248Y-97616D02*
X302580Y-97704D01*
X301958Y-97961D01*
X301423Y-98372D01*
X301013Y-98906D01*
X300755Y-99529D01*
X300667Y-100197D01*
X300755Y-100865D01*
X301013Y-101487D01*
X301423Y-102022D01*
X301958Y-102432D01*
X302580Y-102690D01*
X303248Y-102778D01*
X303916Y-102690D01*
X304539Y-102432D01*
X305073Y-102022D01*
X305483Y-101487D01*
X305741Y-100865D01*
X305829Y-100197D01*
X305741Y-99529D01*
X305483Y-98906D01*
X305073Y-98372D01*
X304539Y-97961D01*
X303916Y-97704D01*
X303248Y-97616D01*
D02*
G37*
G36*
X354823Y-101531D02*
X353487Y-101707D01*
X352242Y-102222D01*
X351173Y-103043D01*
X350352Y-104112D01*
X350098Y-104724D01*
X349705D01*
X349451Y-104112D01*
X348631Y-103043D01*
X347562Y-102222D01*
X346316Y-101707D01*
X344980Y-101531D01*
X343644Y-101707D01*
X342399Y-102222D01*
X341330Y-103043D01*
X340510Y-104112D01*
X339994Y-105357D01*
X339818Y-106693D01*
X339994Y-108029D01*
X340510Y-109274D01*
X341330Y-110343D01*
X342399Y-111164D01*
X343644Y-111679D01*
X344980Y-111855D01*
X346316Y-111679D01*
X347562Y-111164D01*
X348631Y-110343D01*
X349451Y-109274D01*
X349705Y-108661D01*
X350098D01*
X350352Y-109274D01*
X351173Y-110343D01*
X352242Y-111164D01*
X353487Y-111679D01*
X354823Y-111855D01*
X356159Y-111679D01*
X357404Y-111164D01*
X358473Y-110343D01*
X359294Y-109274D01*
X359809Y-108029D01*
X359985Y-106693D01*
X359809Y-105357D01*
X359294Y-104112D01*
X358473Y-103043D01*
X357404Y-102222D01*
X356159Y-101707D01*
X354823Y-101531D01*
D02*
G37*
G36*
X194291Y-101946D02*
X193623Y-102034D01*
X193001Y-102292D01*
X192466Y-102702D01*
X192056Y-103237D01*
X191798Y-103859D01*
X191710Y-104528D01*
X191798Y-105196D01*
X192056Y-105818D01*
X192466Y-106353D01*
X193001Y-106763D01*
X193623Y-107021D01*
X194291Y-107109D01*
X194959Y-107021D01*
X195582Y-106763D01*
X196116Y-106353D01*
X196527Y-105818D01*
X196784Y-105196D01*
X196872Y-104528D01*
X196784Y-103859D01*
X196527Y-103237D01*
X196116Y-102702D01*
X195582Y-102292D01*
X194959Y-102034D01*
X194291Y-101946D01*
D02*
G37*
G36*
X138701Y-102488D02*
X138033Y-102576D01*
X137410Y-102834D01*
X136875Y-103244D01*
X136465Y-103778D01*
X136207Y-104401D01*
X136119Y-105069D01*
X136207Y-105737D01*
X136465Y-106360D01*
X136875Y-106894D01*
X137410Y-107304D01*
X138033Y-107562D01*
X138701Y-107650D01*
X139369Y-107562D01*
X139991Y-107304D01*
X140526Y-106894D01*
X140936Y-106360D01*
X141194Y-105737D01*
X141282Y-105069D01*
X141194Y-104401D01*
X140936Y-103778D01*
X140526Y-103244D01*
X139991Y-102834D01*
X139369Y-102576D01*
X138701Y-102488D01*
D02*
G37*
G36*
X153347Y-105096D02*
X152678Y-105184D01*
X152056Y-105442D01*
X151521Y-105852D01*
X151111Y-106387D01*
X150853Y-107009D01*
X150765Y-107677D01*
X150853Y-108345D01*
X151111Y-108968D01*
X151521Y-109502D01*
X152056Y-109913D01*
X152678Y-110170D01*
X153347Y-110258D01*
X154015Y-110170D01*
X154637Y-109913D01*
X155172Y-109502D01*
X155582Y-108968D01*
X155840Y-108345D01*
X155928Y-107677D01*
X155840Y-107009D01*
X155582Y-106387D01*
X155172Y-105852D01*
X154637Y-105442D01*
X154015Y-105184D01*
X153347Y-105096D01*
D02*
G37*
G36*
X299803Y-106868D02*
X299135Y-106956D01*
X298513Y-107213D01*
X297978Y-107624D01*
X297568Y-108158D01*
X297310Y-108781D01*
X297222Y-109449D01*
X297310Y-110117D01*
X297568Y-110739D01*
X297978Y-111274D01*
X298513Y-111684D01*
X299135Y-111942D01*
X299803Y-112030D01*
X300471Y-111942D01*
X301094Y-111684D01*
X301628Y-111274D01*
X302039Y-110739D01*
X302296Y-110117D01*
X302384Y-109449D01*
X302296Y-108781D01*
X302039Y-108158D01*
X301628Y-107624D01*
X301094Y-107213D01*
X300471Y-106956D01*
X299803Y-106868D01*
D02*
G37*
G36*
X211417Y-111395D02*
X210749Y-111483D01*
X210127Y-111741D01*
X209592Y-112151D01*
X209182Y-112686D01*
X209096Y-112894D01*
X208542Y-112664D01*
X207874Y-112576D01*
X207206Y-112664D01*
X206583Y-112922D01*
X206049Y-113332D01*
X205639Y-113867D01*
X205381Y-114489D01*
X205293Y-115157D01*
X205381Y-115825D01*
X205639Y-116448D01*
X206046Y-116979D01*
X205714Y-117410D01*
X205457Y-118033D01*
X205369Y-118701D01*
X205457Y-119369D01*
X205714Y-119991D01*
X206125Y-120526D01*
X206659Y-120936D01*
X207282Y-121194D01*
X207950Y-121282D01*
X208618Y-121194D01*
X209240Y-120936D01*
X209775Y-120526D01*
X210185Y-119991D01*
X210443Y-119369D01*
X210531Y-118701D01*
X210443Y-118033D01*
X210185Y-117410D01*
X209778Y-116880D01*
X210109Y-116448D01*
X210195Y-116240D01*
X210749Y-116470D01*
X211417Y-116558D01*
X212085Y-116470D01*
X212708Y-116212D01*
X213243Y-115802D01*
X213259Y-115780D01*
X213755D01*
X213923Y-115998D01*
X214458Y-116409D01*
X215080Y-116666D01*
X215748Y-116754D01*
X216416Y-116666D01*
X217039Y-116409D01*
X217573Y-115998D01*
X217983Y-115464D01*
X218241Y-114841D01*
X218329Y-114173D01*
X218241Y-113505D01*
X217983Y-112883D01*
X217573Y-112348D01*
X217039Y-111938D01*
X216416Y-111680D01*
X215748Y-111592D01*
X215080Y-111680D01*
X214458Y-111938D01*
X213923Y-112348D01*
X213906Y-112370D01*
X213410Y-112370D01*
X213243Y-112151D01*
X212708Y-111741D01*
X212085Y-111483D01*
X211417Y-111395D01*
D02*
G37*
G36*
X118898Y-108198D02*
X118230Y-108286D01*
X117607Y-108544D01*
X117072Y-108954D01*
X116662Y-109489D01*
X116404Y-110111D01*
X116316Y-110780D01*
X116404Y-111448D01*
X116662Y-112070D01*
X117072Y-112605D01*
X117607Y-113015D01*
X118230Y-113273D01*
X118898Y-113361D01*
X119566Y-113273D01*
X120188Y-113015D01*
X120723Y-112605D01*
X121133Y-112070D01*
X121391Y-111448D01*
X121479Y-110780D01*
X121391Y-110111D01*
X121133Y-109489D01*
X120723Y-108954D01*
X120188Y-108544D01*
X119566Y-108286D01*
X118898Y-108198D01*
D02*
G37*
G36*
X281496Y-109525D02*
X280828Y-109613D01*
X280205Y-109871D01*
X279671Y-110281D01*
X279261Y-110816D01*
X279003Y-111438D01*
X278915Y-112106D01*
X279003Y-112774D01*
X279261Y-113397D01*
X279671Y-113931D01*
X280205Y-114342D01*
X280828Y-114600D01*
X281496Y-114687D01*
X282164Y-114600D01*
X282787Y-114342D01*
X283321Y-113931D01*
X283731Y-113397D01*
X283989Y-112774D01*
X284077Y-112106D01*
X283989Y-111438D01*
X283731Y-110816D01*
X283321Y-110281D01*
X282787Y-109871D01*
X282164Y-109613D01*
X281496Y-109525D01*
D02*
G37*
G36*
X256319Y-106100D02*
X255651Y-106188D01*
X255028Y-106446D01*
X254494Y-106856D01*
X254084Y-107390D01*
X253826Y-108013D01*
X253738Y-108681D01*
X253826Y-109349D01*
X254084Y-109972D01*
X254494Y-110506D01*
X255028Y-110916D01*
X255651Y-111174D01*
X256272Y-111256D01*
X256475Y-111533D01*
X256510Y-111593D01*
X256426Y-111702D01*
X256168Y-112324D01*
X256080Y-112992D01*
X256168Y-113660D01*
X256426Y-114283D01*
X256836Y-114817D01*
X257371Y-115227D01*
X257993Y-115485D01*
X258661Y-115573D01*
X259330Y-115485D01*
X259952Y-115227D01*
X260487Y-114817D01*
X260897Y-114283D01*
X261155Y-113660D01*
X261243Y-112992D01*
X261155Y-112324D01*
X260897Y-111702D01*
X260487Y-111167D01*
X259952Y-110757D01*
X259330Y-110499D01*
X258709Y-110417D01*
X258505Y-110141D01*
X258471Y-110081D01*
X258554Y-109972D01*
X258812Y-109349D01*
X258900Y-108681D01*
X258812Y-108013D01*
X258554Y-107390D01*
X258144Y-106856D01*
X257610Y-106446D01*
X256987Y-106188D01*
X256319Y-106100D01*
D02*
G37*
G36*
X138976Y-110706D02*
X138308Y-110794D01*
X137686Y-111052D01*
X137151Y-111462D01*
X136741Y-111997D01*
X136483Y-112619D01*
X136395Y-113287D01*
X136483Y-113955D01*
X136741Y-114578D01*
X137151Y-115112D01*
X137686Y-115523D01*
X138308Y-115781D01*
X138976Y-115868D01*
X139644Y-115781D01*
X140267Y-115523D01*
X140802Y-115112D01*
X141212Y-114578D01*
X141470Y-113955D01*
X141558Y-113287D01*
X141470Y-112619D01*
X141212Y-111997D01*
X140802Y-111462D01*
X140267Y-111052D01*
X139644Y-110794D01*
X138976Y-110706D01*
D02*
G37*
G36*
X252067Y-111789D02*
X251399Y-111877D01*
X250776Y-112135D01*
X250242Y-112545D01*
X249832Y-113080D01*
X249574Y-113702D01*
X249486Y-114370D01*
X249574Y-115038D01*
X249832Y-115661D01*
X250242Y-116195D01*
X250776Y-116605D01*
X251399Y-116863D01*
X252067Y-116951D01*
X252735Y-116863D01*
X253358Y-116605D01*
X253892Y-116195D01*
X254302Y-115661D01*
X254560Y-115038D01*
X254648Y-114370D01*
X254560Y-113702D01*
X254302Y-113080D01*
X253892Y-112545D01*
X253358Y-112135D01*
X252735Y-111877D01*
X252067Y-111789D01*
D02*
G37*
G36*
X126181Y-112183D02*
X125513Y-112271D01*
X124890Y-112529D01*
X124356Y-112939D01*
X123946Y-113473D01*
X123688Y-114096D01*
X123600Y-114764D01*
X123688Y-115432D01*
X123946Y-116054D01*
X124356Y-116589D01*
X124890Y-116999D01*
X125513Y-117257D01*
X126181Y-117345D01*
X126849Y-117257D01*
X127472Y-116999D01*
X128006Y-116589D01*
X128416Y-116054D01*
X128674Y-115432D01*
X128762Y-114764D01*
X128674Y-114096D01*
X128416Y-113473D01*
X128006Y-112939D01*
X127472Y-112529D01*
X126849Y-112271D01*
X126181Y-112183D01*
D02*
G37*
G36*
X354823Y-115310D02*
X353487Y-115486D01*
X352242Y-116002D01*
X351173Y-116822D01*
X350352Y-117891D01*
X350098Y-118504D01*
X349705D01*
X349451Y-117891D01*
X348631Y-116822D01*
X347561Y-116002D01*
X346316Y-115486D01*
X344980Y-115310D01*
X343644Y-115486D01*
X342399Y-116002D01*
X341330Y-116822D01*
X340510Y-117891D01*
X339994Y-119136D01*
X339818Y-120472D01*
X339994Y-121809D01*
X340510Y-123054D01*
X341330Y-124123D01*
X342399Y-124943D01*
X343644Y-125459D01*
X344980Y-125635D01*
X346316Y-125459D01*
X347561Y-124943D01*
X348631Y-124123D01*
X349451Y-123054D01*
X349705Y-122441D01*
X350098D01*
X350352Y-123054D01*
X351173Y-124123D01*
X352242Y-124943D01*
X353487Y-125459D01*
X354823Y-125635D01*
X356159Y-125459D01*
X357404Y-124943D01*
X358473Y-124123D01*
X359294Y-123054D01*
X359809Y-121809D01*
X359985Y-120472D01*
X359809Y-119136D01*
X359294Y-117891D01*
X358473Y-116822D01*
X357404Y-116002D01*
X356159Y-115486D01*
X354823Y-115310D01*
D02*
G37*
G36*
X153937Y-113757D02*
X153269Y-113845D01*
X152647Y-114103D01*
X152112Y-114513D01*
X151702Y-115048D01*
X151444Y-115671D01*
X151356Y-116339D01*
X151444Y-117007D01*
X151702Y-117629D01*
X152112Y-118164D01*
X152647Y-118574D01*
X153269Y-118832D01*
X153937Y-118920D01*
X154605Y-118832D01*
X155228Y-118574D01*
X155762Y-118164D01*
X156172Y-117629D01*
X156430Y-117007D01*
X156518Y-116339D01*
X156430Y-115671D01*
X156172Y-115048D01*
X155762Y-114513D01*
X155228Y-114103D01*
X154605Y-113845D01*
X153937Y-113757D01*
D02*
G37*
G36*
X189567Y-115726D02*
X188899Y-115814D01*
X188276Y-116072D01*
X187742Y-116482D01*
X187332Y-117016D01*
X187074Y-117639D01*
X186986Y-118307D01*
X187074Y-118975D01*
X187332Y-119598D01*
X187742Y-120132D01*
X188276Y-120542D01*
X188899Y-120800D01*
X189567Y-120888D01*
X190235Y-120800D01*
X190858Y-120542D01*
X191392Y-120132D01*
X191802Y-119598D01*
X192060Y-118975D01*
X192148Y-118307D01*
X192060Y-117639D01*
X191802Y-117016D01*
X191392Y-116482D01*
X190858Y-116072D01*
X190235Y-115814D01*
X189567Y-115726D01*
D02*
G37*
G36*
X317717Y-119171D02*
X317049Y-119259D01*
X316426Y-119517D01*
X315891Y-119927D01*
X315481Y-120461D01*
X315223Y-121084D01*
X315135Y-121752D01*
X315223Y-122420D01*
X315481Y-123043D01*
X315891Y-123577D01*
X316426Y-123987D01*
X317049Y-124245D01*
X317717Y-124333D01*
X318385Y-124245D01*
X319007Y-123987D01*
X319542Y-123577D01*
X319952Y-123043D01*
X320210Y-122420D01*
X320298Y-121752D01*
X320210Y-121084D01*
X319952Y-120461D01*
X319542Y-119927D01*
X319007Y-119517D01*
X318385Y-119259D01*
X317717Y-119171D01*
D02*
G37*
G36*
X303248Y-120746D02*
X302580Y-120834D01*
X301958Y-121091D01*
X301423Y-121502D01*
X301013Y-122036D01*
X300755Y-122659D01*
X300667Y-123327D01*
X300755Y-123995D01*
X301013Y-124617D01*
X301423Y-125152D01*
X301958Y-125562D01*
X302580Y-125820D01*
X303248Y-125908D01*
X303916Y-125820D01*
X304539Y-125562D01*
X305073Y-125152D01*
X305483Y-124617D01*
X305741Y-123995D01*
X305829Y-123327D01*
X305741Y-122659D01*
X305483Y-122036D01*
X305073Y-121502D01*
X304539Y-121091D01*
X303916Y-120834D01*
X303248Y-120746D01*
D02*
G37*
G36*
X297953Y-126541D02*
X296925Y-126676D01*
X295967Y-127073D01*
X295617Y-127341D01*
X297953Y-129677D01*
X300288Y-127341D01*
X299938Y-127073D01*
X298980Y-126676D01*
X297953Y-126541D01*
D02*
G37*
G36*
X354823Y-129090D02*
X353487Y-129266D01*
X352242Y-129781D01*
X351173Y-130602D01*
X350352Y-131671D01*
X350098Y-132283D01*
X349705D01*
X349451Y-131671D01*
X348631Y-130602D01*
X347562Y-129781D01*
X346316Y-129266D01*
X344980Y-129090D01*
X343644Y-129266D01*
X342399Y-129781D01*
X341330Y-130602D01*
X340510Y-131671D01*
X339994Y-132916D01*
X339818Y-134252D01*
X339994Y-135588D01*
X340510Y-136833D01*
X341330Y-137902D01*
X342399Y-138723D01*
X343644Y-139238D01*
X344980Y-139414D01*
X346316Y-139238D01*
X347562Y-138723D01*
X348631Y-137902D01*
X349451Y-136833D01*
X349705Y-136221D01*
X350098D01*
X350352Y-136833D01*
X351173Y-137902D01*
X352242Y-138723D01*
X353487Y-139238D01*
X354823Y-139414D01*
X356159Y-139238D01*
X357404Y-138723D01*
X358473Y-137902D01*
X359294Y-136833D01*
X359809Y-135588D01*
X359985Y-134252D01*
X359809Y-132916D01*
X359294Y-131671D01*
X358473Y-130602D01*
X357404Y-129781D01*
X356159Y-129266D01*
X354823Y-129090D01*
D02*
G37*
G36*
X301123Y-128176D02*
X298788Y-130512D01*
X301123Y-132847D01*
X301392Y-132497D01*
X301788Y-131540D01*
X301924Y-130512D01*
X301788Y-129484D01*
X301392Y-128526D01*
X301123Y-128176D01*
D02*
G37*
G36*
X294782Y-128176D02*
X294514Y-128526D01*
X294117Y-129484D01*
X293982Y-130512D01*
X294117Y-131540D01*
X294514Y-132497D01*
X294782Y-132847D01*
X297118Y-130512D01*
X294782Y-128176D01*
D02*
G37*
G36*
X127362Y-128718D02*
X126694Y-128806D01*
X126072Y-129064D01*
X125537Y-129474D01*
X125127Y-130009D01*
X124869Y-130631D01*
X124781Y-131299D01*
X124869Y-131967D01*
X125127Y-132590D01*
X125537Y-133124D01*
X126072Y-133535D01*
X126694Y-133792D01*
X127362Y-133880D01*
X128030Y-133792D01*
X128653Y-133535D01*
X129187Y-133124D01*
X129597Y-132590D01*
X129855Y-131967D01*
X129943Y-131299D01*
X129855Y-130631D01*
X129597Y-130009D01*
X129187Y-129474D01*
X128653Y-129064D01*
X128030Y-128806D01*
X127362Y-128718D01*
D02*
G37*
G36*
X297953Y-131347D02*
X295617Y-133682D01*
X295967Y-133951D01*
X296925Y-134347D01*
X297953Y-134483D01*
X298980Y-134347D01*
X299938Y-133951D01*
X300288Y-133682D01*
X297953Y-131347D01*
D02*
G37*
G36*
X262087Y-126378D02*
X253819D01*
Y-134646D01*
X262087D01*
Y-126378D01*
D02*
G37*
G36*
X213189Y-129505D02*
X212521Y-129593D01*
X211898Y-129851D01*
X211363Y-130261D01*
X210953Y-130796D01*
X210695Y-131418D01*
X210607Y-132086D01*
X210695Y-132754D01*
X210953Y-133377D01*
X211363Y-133912D01*
X211898Y-134322D01*
X212521Y-134580D01*
X213189Y-134668D01*
X213857Y-134580D01*
X214479Y-134322D01*
X215014Y-133912D01*
X215424Y-133377D01*
X215682Y-132754D01*
X215770Y-132086D01*
X215682Y-131418D01*
X215424Y-130796D01*
X215014Y-130261D01*
X214479Y-129851D01*
X213857Y-129593D01*
X213189Y-129505D01*
D02*
G37*
G36*
X168701Y-129506D02*
X168033Y-129593D01*
X167410Y-129851D01*
X166876Y-130262D01*
X166465Y-130796D01*
X166208Y-131419D01*
X166120Y-132087D01*
X166208Y-132755D01*
X166465Y-133377D01*
X166876Y-133912D01*
X167410Y-134322D01*
X168033Y-134580D01*
X168701Y-134668D01*
X169369Y-134580D01*
X169991Y-134322D01*
X170526Y-133912D01*
X170936Y-133377D01*
X171194Y-132755D01*
X171282Y-132087D01*
X171194Y-131419D01*
X170936Y-130796D01*
X170526Y-130262D01*
X169991Y-129851D01*
X169369Y-129593D01*
X168701Y-129506D01*
D02*
G37*
G36*
X287953Y-126342D02*
X286874Y-126484D01*
X285868Y-126901D01*
X285004Y-127564D01*
X284342Y-128427D01*
X283925Y-129433D01*
X283783Y-130512D01*
X283925Y-131591D01*
X284342Y-132597D01*
X285004Y-133460D01*
X285868Y-134123D01*
X286874Y-134539D01*
X287953Y-134681D01*
X289032Y-134539D01*
X290037Y-134123D01*
X290901Y-133460D01*
X291564Y-132597D01*
X291980Y-131591D01*
X292122Y-130512D01*
X291980Y-129433D01*
X291564Y-128427D01*
X290901Y-127564D01*
X290037Y-126901D01*
X289032Y-126484D01*
X287953Y-126342D01*
D02*
G37*
G36*
X277953D02*
X276874Y-126484D01*
X275868Y-126901D01*
X275005Y-127564D01*
X274342Y-128427D01*
X273925Y-129433D01*
X273783Y-130512D01*
X273925Y-131591D01*
X274342Y-132597D01*
X275005Y-133460D01*
X275868Y-134123D01*
X276874Y-134539D01*
X277953Y-134681D01*
X279032Y-134539D01*
X280037Y-134123D01*
X280901Y-133460D01*
X281564Y-132597D01*
X281980Y-131591D01*
X282122Y-130512D01*
X281980Y-129433D01*
X281564Y-128427D01*
X280901Y-127564D01*
X280037Y-126901D01*
X279032Y-126484D01*
X277953Y-126342D01*
D02*
G37*
G36*
X267953D02*
X266874Y-126484D01*
X265868Y-126901D01*
X265004Y-127564D01*
X264342Y-128427D01*
X263925Y-129433D01*
X263783Y-130512D01*
X263925Y-131591D01*
X264342Y-132597D01*
X265004Y-133460D01*
X265868Y-134123D01*
X266874Y-134539D01*
X267953Y-134681D01*
X269032Y-134539D01*
X270038Y-134123D01*
X270901Y-133460D01*
X271564Y-132597D01*
X271980Y-131591D01*
X272122Y-130512D01*
X271980Y-129433D01*
X271564Y-128427D01*
X270901Y-127564D01*
X270038Y-126901D01*
X269032Y-126484D01*
X267953Y-126342D01*
D02*
G37*
G36*
X193504Y-130883D02*
X192836Y-130971D01*
X192213Y-131229D01*
X191679Y-131639D01*
X191269Y-132174D01*
X191011Y-132797D01*
X190923Y-133465D01*
X191011Y-134133D01*
X191269Y-134755D01*
X191679Y-135290D01*
X192213Y-135700D01*
X192836Y-135958D01*
X193504Y-136046D01*
X194172Y-135958D01*
X194794Y-135700D01*
X195329Y-135290D01*
X195739Y-134755D01*
X195997Y-134133D01*
X196085Y-133465D01*
X195997Y-132797D01*
X195739Y-132174D01*
X195329Y-131639D01*
X194794Y-131229D01*
X194172Y-130971D01*
X193504Y-130883D01*
D02*
G37*
G36*
X225000Y-133049D02*
X224332Y-133137D01*
X223709Y-133395D01*
X223175Y-133805D01*
X222765Y-134339D01*
X222507Y-134962D01*
X222419Y-135630D01*
X222507Y-136298D01*
X222765Y-136920D01*
X223175Y-137455D01*
X223709Y-137865D01*
X224332Y-138123D01*
X225000Y-138211D01*
X225668Y-138123D01*
X226291Y-137865D01*
X226825Y-137455D01*
X227235Y-136920D01*
X227493Y-136298D01*
X227581Y-135630D01*
X227493Y-134962D01*
X227235Y-134339D01*
X226825Y-133805D01*
X226291Y-133395D01*
X225668Y-133137D01*
X225000Y-133049D01*
D02*
G37*
G36*
X258465Y-137970D02*
X257797Y-138058D01*
X257174Y-138316D01*
X256639Y-138726D01*
X256229Y-139261D01*
X255971Y-139883D01*
X255883Y-140551D01*
X255971Y-141219D01*
X256229Y-141842D01*
X256639Y-142376D01*
X257174Y-142787D01*
X257797Y-143044D01*
X258465Y-143132D01*
X259133Y-143044D01*
X259755Y-142787D01*
X260290Y-142376D01*
X260700Y-141842D01*
X260958Y-141219D01*
X261046Y-140551D01*
X260958Y-139883D01*
X260700Y-139261D01*
X260290Y-138726D01*
X259755Y-138316D01*
X259133Y-138058D01*
X258465Y-137970D01*
D02*
G37*
G36*
X153150Y-139742D02*
X152482Y-139830D01*
X151859Y-140087D01*
X151324Y-140498D01*
X150914Y-141032D01*
X150656Y-141655D01*
X150568Y-142323D01*
X150656Y-142991D01*
X150759Y-143240D01*
X150436Y-143488D01*
X150110Y-143237D01*
X149487Y-142979D01*
X148819Y-142891D01*
X148151Y-142979D01*
X147528Y-143237D01*
X146994Y-143647D01*
X146584Y-144182D01*
X146326Y-144804D01*
X146238Y-145472D01*
X146326Y-146141D01*
X146584Y-146763D01*
X146994Y-147298D01*
X147528Y-147708D01*
X148151Y-147966D01*
X148819Y-148054D01*
X149487Y-147966D01*
X150110Y-147708D01*
X150644Y-147298D01*
X151054Y-146763D01*
X151312Y-146141D01*
X151400Y-145472D01*
X151312Y-144804D01*
X151209Y-144556D01*
X151532Y-144307D01*
X151859Y-144558D01*
X152482Y-144816D01*
X153150Y-144904D01*
X153818Y-144816D01*
X154440Y-144558D01*
X154975Y-144148D01*
X155385Y-143613D01*
X155643Y-142991D01*
X155731Y-142323D01*
X155643Y-141655D01*
X155385Y-141032D01*
X154975Y-140498D01*
X154440Y-140087D01*
X153818Y-139830D01*
X153150Y-139742D01*
D02*
G37*
G36*
X292323Y-139939D02*
X291655Y-140026D01*
X291032Y-140284D01*
X290498Y-140695D01*
X290088Y-141229D01*
X289830Y-141852D01*
X289742Y-142520D01*
X289830Y-143188D01*
X290088Y-143810D01*
X290498Y-144345D01*
X291032Y-144755D01*
X291655Y-145013D01*
X292323Y-145101D01*
X292991Y-145013D01*
X293613Y-144755D01*
X294148Y-144345D01*
X294558Y-143810D01*
X294816Y-143188D01*
X294904Y-142520D01*
X294816Y-141852D01*
X294558Y-141229D01*
X294148Y-140695D01*
X293613Y-140284D01*
X292991Y-140026D01*
X292323Y-139939D01*
D02*
G37*
G36*
X213386Y-140529D02*
X212718Y-140617D01*
X212095Y-140875D01*
X211561Y-141285D01*
X211151Y-141820D01*
X210893Y-142442D01*
X210805Y-143110D01*
X210893Y-143778D01*
X211151Y-144401D01*
X211561Y-144935D01*
X212095Y-145346D01*
X212718Y-145603D01*
X213386Y-145691D01*
X214054Y-145603D01*
X214676Y-145346D01*
X215211Y-144935D01*
X215621Y-144401D01*
X215879Y-143778D01*
X215967Y-143110D01*
X215879Y-142442D01*
X215621Y-141820D01*
X215211Y-141285D01*
X214676Y-140875D01*
X214054Y-140617D01*
X213386Y-140529D01*
D02*
G37*
G36*
X196653Y-145233D02*
X195809Y-145401D01*
X195092Y-145880D01*
X194882Y-146195D01*
X194488D01*
X194278Y-145880D01*
X193561Y-145401D01*
X192717Y-145233D01*
X191872Y-145401D01*
X191155Y-145880D01*
X190945Y-146195D01*
X190551D01*
X190341Y-145880D01*
X189624Y-145401D01*
X188779Y-145233D01*
X187935Y-145401D01*
X187218Y-145880D01*
X186740Y-146596D01*
X186572Y-147441D01*
X186740Y-148286D01*
X187218Y-149002D01*
X187533Y-149213D01*
Y-149606D01*
X187218Y-149817D01*
X186740Y-150533D01*
X186572Y-151378D01*
X186740Y-152223D01*
X187218Y-152939D01*
X187533Y-153150D01*
Y-153543D01*
X187218Y-153754D01*
X186740Y-154470D01*
X186572Y-155315D01*
X186740Y-156160D01*
X187218Y-156876D01*
X187533Y-157087D01*
Y-157480D01*
X187218Y-157691D01*
X186740Y-158407D01*
X186572Y-159252D01*
X186740Y-160097D01*
X187218Y-160813D01*
X187935Y-161292D01*
X188779Y-161460D01*
X189624Y-161292D01*
X190341Y-160813D01*
X190551Y-160498D01*
X190945D01*
X191155Y-160813D01*
X191872Y-161292D01*
X192717Y-161460D01*
X193561Y-161292D01*
X194278Y-160813D01*
X194488Y-160498D01*
X194882D01*
X195092Y-160813D01*
X195809Y-161292D01*
X196653Y-161460D01*
X197498Y-161292D01*
X198215Y-160813D01*
X198693Y-160097D01*
X198861Y-159252D01*
X198693Y-158407D01*
X198215Y-157691D01*
X197900Y-157480D01*
Y-157087D01*
X198215Y-156876D01*
X198693Y-156160D01*
X198861Y-155315D01*
X198693Y-154470D01*
X198215Y-153754D01*
X197900Y-153543D01*
Y-153150D01*
X198215Y-152939D01*
X198693Y-152223D01*
X198861Y-151378D01*
X198693Y-150533D01*
X198215Y-149817D01*
X197900Y-149606D01*
Y-149213D01*
X198215Y-149002D01*
X198693Y-148286D01*
X198861Y-147441D01*
X198693Y-146596D01*
X198215Y-145880D01*
X197498Y-145401D01*
X196653Y-145233D01*
D02*
G37*
G36*
X118551Y-141513D02*
X117883Y-141601D01*
X117261Y-141859D01*
X116726Y-142269D01*
X116316Y-142804D01*
X116058Y-143426D01*
X115970Y-144095D01*
X116058Y-144763D01*
X116316Y-145385D01*
X116726Y-145920D01*
X117261Y-146330D01*
X117883Y-146588D01*
X118551Y-146676D01*
X119219Y-146588D01*
X119842Y-146330D01*
X120376Y-145920D01*
X120786Y-145385D01*
X121044Y-144763D01*
X121132Y-144095D01*
X121044Y-143426D01*
X120786Y-142804D01*
X120376Y-142269D01*
X119842Y-141859D01*
X119219Y-141601D01*
X118551Y-141513D01*
D02*
G37*
G36*
X245669Y-141513D02*
X245001Y-141601D01*
X244379Y-141859D01*
X243844Y-142269D01*
X243434Y-142804D01*
X243176Y-143426D01*
X243088Y-144095D01*
X243176Y-144763D01*
X243434Y-145385D01*
X243844Y-145920D01*
X244379Y-146330D01*
X245001Y-146588D01*
X245669Y-146676D01*
X246337Y-146588D01*
X246960Y-146330D01*
X247494Y-145920D01*
X247905Y-145385D01*
X248163Y-144763D01*
X248250Y-144095D01*
X248163Y-143426D01*
X247905Y-142804D01*
X247494Y-142269D01*
X246960Y-141859D01*
X246337Y-141601D01*
X245669Y-141513D01*
D02*
G37*
G36*
X180905Y-143285D02*
X180237Y-143373D01*
X179615Y-143631D01*
X179080Y-144041D01*
X178670Y-144576D01*
X178412Y-145198D01*
X178324Y-145866D01*
X178412Y-146534D01*
X178670Y-147157D01*
X179080Y-147691D01*
X179615Y-148101D01*
X180237Y-148359D01*
X180905Y-148447D01*
X181574Y-148359D01*
X182196Y-148101D01*
X182731Y-147691D01*
X183141Y-147157D01*
X183399Y-146534D01*
X183487Y-145866D01*
X183399Y-145198D01*
X183141Y-144576D01*
X182731Y-144041D01*
X182196Y-143631D01*
X181574Y-143373D01*
X180905Y-143285D01*
D02*
G37*
G36*
X161221Y-139545D02*
X160552Y-139633D01*
X159930Y-139891D01*
X159395Y-140301D01*
X158985Y-140835D01*
X158727Y-141458D01*
X158639Y-142126D01*
X158727Y-142794D01*
X158985Y-143417D01*
X159395Y-143951D01*
X159590Y-144100D01*
X159641Y-144491D01*
X159576Y-144576D01*
X159318Y-145198D01*
X159230Y-145866D01*
X159318Y-146534D01*
X159576Y-147157D01*
X159986Y-147691D01*
X160521Y-148101D01*
X161143Y-148359D01*
X161811Y-148447D01*
X162479Y-148359D01*
X163102Y-148101D01*
X163636Y-147691D01*
X164046Y-147157D01*
X164304Y-146534D01*
X164392Y-145866D01*
X164304Y-145198D01*
X164046Y-144576D01*
X163636Y-144041D01*
X163221Y-143722D01*
X163456Y-143417D01*
X163714Y-142794D01*
X163802Y-142126D01*
X163714Y-141458D01*
X163456Y-140835D01*
X163046Y-140301D01*
X162511Y-139891D01*
X161889Y-139633D01*
X161221Y-139545D01*
D02*
G37*
G36*
X220472Y-144860D02*
X219804Y-144948D01*
X219182Y-145206D01*
X218647Y-145616D01*
X218237Y-146150D01*
X217979Y-146773D01*
X217891Y-147441D01*
X217979Y-148109D01*
X218237Y-148732D01*
X218647Y-149266D01*
X219182Y-149676D01*
X219804Y-149934D01*
X220472Y-150022D01*
X221141Y-149934D01*
X221763Y-149676D01*
X222298Y-149266D01*
X222708Y-148732D01*
X222966Y-148109D01*
X223054Y-147441D01*
X222966Y-146773D01*
X222708Y-146150D01*
X222298Y-145616D01*
X221763Y-145206D01*
X221141Y-144948D01*
X220472Y-144860D01*
D02*
G37*
G36*
X170472Y-145450D02*
X169804Y-145538D01*
X169182Y-145796D01*
X168647Y-146206D01*
X168237Y-146741D01*
X167979Y-147363D01*
X167891Y-148031D01*
X167979Y-148699D01*
X168237Y-149322D01*
X168647Y-149857D01*
X169182Y-150267D01*
X169804Y-150525D01*
X170472Y-150613D01*
X171141Y-150525D01*
X171763Y-150267D01*
X172298Y-149857D01*
X172708Y-149322D01*
X172966Y-148699D01*
X173054Y-148031D01*
X172966Y-147363D01*
X172708Y-146741D01*
X172298Y-146206D01*
X171763Y-145796D01*
X171141Y-145538D01*
X170472Y-145450D01*
D02*
G37*
G36*
X265354Y-146238D02*
X264686Y-146326D01*
X264064Y-146584D01*
X263529Y-146994D01*
X263119Y-147528D01*
X262861Y-148151D01*
X262773Y-148819D01*
X262861Y-149487D01*
X263119Y-150110D01*
X263529Y-150644D01*
X264064Y-151054D01*
X264686Y-151312D01*
X265354Y-151400D01*
X266022Y-151312D01*
X266645Y-151054D01*
X267179Y-150644D01*
X267590Y-150110D01*
X267847Y-149487D01*
X267935Y-148819D01*
X267847Y-148151D01*
X267590Y-147528D01*
X267179Y-146994D01*
X266645Y-146584D01*
X266022Y-146326D01*
X265354Y-146238D01*
D02*
G37*
G36*
X166535Y-151946D02*
X165867Y-152034D01*
X165245Y-152292D01*
X164710Y-152702D01*
X164300Y-153237D01*
X164042Y-153859D01*
X163954Y-154528D01*
X164042Y-155196D01*
X164300Y-155818D01*
X164710Y-156353D01*
X165245Y-156763D01*
X165867Y-157021D01*
X166535Y-157109D01*
X167203Y-157021D01*
X167826Y-156763D01*
X168361Y-156353D01*
X168771Y-155818D01*
X169029Y-155196D01*
X169117Y-154528D01*
X169029Y-153859D01*
X168771Y-153237D01*
X168361Y-152702D01*
X167826Y-152292D01*
X167203Y-152034D01*
X166535Y-151946D01*
D02*
G37*
G36*
X203937Y-153128D02*
X203269Y-153216D01*
X202646Y-153473D01*
X202112Y-153884D01*
X201702Y-154418D01*
X201444Y-155041D01*
X201356Y-155709D01*
X201444Y-156377D01*
X201702Y-156999D01*
X202112Y-157534D01*
X202646Y-157944D01*
X203269Y-158202D01*
X203937Y-158290D01*
X204605Y-158202D01*
X205228Y-157944D01*
X205762Y-157534D01*
X206172Y-156999D01*
X206430Y-156377D01*
X206518Y-155709D01*
X206430Y-155041D01*
X206172Y-154418D01*
X205762Y-153884D01*
X205228Y-153473D01*
X204605Y-153216D01*
X203937Y-153128D01*
D02*
G37*
G36*
X173622Y-153324D02*
X172954Y-153412D01*
X172332Y-153670D01*
X171797Y-154080D01*
X171387Y-154615D01*
X171129Y-155237D01*
X171041Y-155905D01*
X171129Y-156574D01*
X171387Y-157196D01*
X171797Y-157731D01*
X172332Y-158141D01*
X172954Y-158399D01*
X173622Y-158487D01*
X174290Y-158399D01*
X174913Y-158141D01*
X175447Y-157731D01*
X175857Y-157196D01*
X176115Y-156574D01*
X176203Y-155905D01*
X176115Y-155237D01*
X175857Y-154615D01*
X175447Y-154080D01*
X174913Y-153670D01*
X174290Y-153412D01*
X173622Y-153324D01*
D02*
G37*
G36*
X328740Y-154210D02*
X328072Y-154298D01*
X327450Y-154556D01*
X326915Y-154966D01*
X326505Y-155501D01*
X326247Y-156123D01*
X326159Y-156791D01*
X326247Y-157459D01*
X326505Y-158082D01*
X326915Y-158616D01*
X327450Y-159027D01*
X328072Y-159284D01*
X328740Y-159372D01*
X329408Y-159284D01*
X330031Y-159027D01*
X330565Y-158616D01*
X330976Y-158082D01*
X331233Y-157459D01*
X331321Y-156791D01*
X331233Y-156123D01*
X330976Y-155501D01*
X330565Y-154966D01*
X330031Y-154556D01*
X329408Y-154298D01*
X328740Y-154210D01*
D02*
G37*
G36*
X316929Y-154506D02*
X316261Y-154593D01*
X315639Y-154851D01*
X315104Y-155262D01*
X314694Y-155796D01*
X314436Y-156419D01*
X314348Y-157087D01*
X314436Y-157755D01*
X314694Y-158377D01*
X315104Y-158912D01*
X315639Y-159322D01*
X316261Y-159580D01*
X316929Y-159668D01*
X317597Y-159580D01*
X318220Y-159322D01*
X318754Y-158912D01*
X319164Y-158377D01*
X319422Y-157755D01*
X319510Y-157087D01*
X319422Y-156419D01*
X319164Y-155796D01*
X318754Y-155262D01*
X318220Y-154851D01*
X317597Y-154593D01*
X316929Y-154506D01*
D02*
G37*
G36*
X295472Y-155883D02*
X294804Y-155971D01*
X294181Y-156229D01*
X293647Y-156639D01*
X293236Y-157174D01*
X292979Y-157796D01*
X292891Y-158464D01*
X292979Y-159132D01*
X293236Y-159755D01*
X293647Y-160289D01*
X294181Y-160700D01*
X294804Y-160957D01*
X295472Y-161045D01*
X296140Y-160957D01*
X296762Y-160700D01*
X297297Y-160289D01*
X297707Y-159755D01*
X297965Y-159132D01*
X298053Y-158464D01*
X297965Y-157796D01*
X297707Y-157174D01*
X297297Y-156639D01*
X296762Y-156229D01*
X296140Y-155971D01*
X295472Y-155883D01*
D02*
G37*
G36*
X223228Y-158442D02*
X222560Y-158530D01*
X221938Y-158788D01*
X221403Y-159198D01*
X220993Y-159733D01*
X220735Y-160356D01*
X220647Y-161024D01*
X220735Y-161692D01*
X220993Y-162314D01*
X221403Y-162849D01*
X221938Y-163259D01*
X222560Y-163517D01*
X223228Y-163605D01*
X223896Y-163517D01*
X224519Y-163259D01*
X225054Y-162849D01*
X225464Y-162314D01*
X225722Y-161692D01*
X225810Y-161024D01*
X225722Y-160356D01*
X225464Y-159733D01*
X225054Y-159198D01*
X224519Y-158788D01*
X223896Y-158530D01*
X223228Y-158442D01*
D02*
G37*
G36*
X249803Y-158541D02*
X249135Y-158629D01*
X248513Y-158887D01*
X247978Y-159297D01*
X247568Y-159832D01*
X247310Y-160454D01*
X247222Y-161122D01*
X247310Y-161790D01*
X247568Y-162413D01*
X247978Y-162947D01*
X248513Y-163357D01*
X249135Y-163615D01*
X249803Y-163703D01*
X250471Y-163615D01*
X251094Y-163357D01*
X251628Y-162947D01*
X252039Y-162413D01*
X252296Y-161790D01*
X252384Y-161122D01*
X252296Y-160454D01*
X252039Y-159832D01*
X251628Y-159297D01*
X251094Y-158887D01*
X250471Y-158629D01*
X249803Y-158541D01*
D02*
G37*
G36*
X118551Y-160411D02*
X117883Y-160499D01*
X117261Y-160757D01*
X116726Y-161167D01*
X116316Y-161702D01*
X116058Y-162324D01*
X115970Y-162992D01*
X116058Y-163660D01*
X116316Y-164283D01*
X116726Y-164817D01*
X117261Y-165227D01*
X117883Y-165485D01*
X118551Y-165573D01*
X119219Y-165485D01*
X119842Y-165227D01*
X120376Y-164817D01*
X120786Y-164283D01*
X121044Y-163660D01*
X121132Y-162992D01*
X121044Y-162324D01*
X120786Y-161702D01*
X120376Y-161167D01*
X119842Y-160757D01*
X119219Y-160499D01*
X118551Y-160411D01*
D02*
G37*
G36*
X170276Y-164151D02*
X169607Y-164239D01*
X168985Y-164497D01*
X168450Y-164907D01*
X168040Y-165442D01*
X167930Y-165709D01*
X167503D01*
X167393Y-165442D01*
X166983Y-164907D01*
X166448Y-164497D01*
X165825Y-164239D01*
X165157Y-164151D01*
X164489Y-164239D01*
X163867Y-164497D01*
X163332Y-164907D01*
X162922Y-165442D01*
X162664Y-166064D01*
X162576Y-166732D01*
X162664Y-167400D01*
X162922Y-168023D01*
X163332Y-168557D01*
X163867Y-168968D01*
X164489Y-169226D01*
X165157Y-169313D01*
X165825Y-169226D01*
X166448Y-168968D01*
X166983Y-168557D01*
X167393Y-168023D01*
X167503Y-167756D01*
X167930D01*
X168040Y-168023D01*
X168450Y-168557D01*
X168985Y-168968D01*
X169607Y-169226D01*
X170276Y-169313D01*
X170944Y-169226D01*
X171566Y-168968D01*
X172101Y-168557D01*
X172511Y-168023D01*
X172769Y-167400D01*
X172857Y-166732D01*
X172769Y-166064D01*
X172511Y-165442D01*
X172101Y-164907D01*
X171566Y-164497D01*
X170944Y-164239D01*
X170276Y-164151D01*
D02*
G37*
G36*
X240551Y-165824D02*
X239883Y-165912D01*
X239261Y-166170D01*
X238726Y-166580D01*
X238316Y-167115D01*
X238058Y-167737D01*
X237970Y-168405D01*
X238058Y-169074D01*
X238316Y-169696D01*
X238726Y-170231D01*
X239261Y-170641D01*
X239883Y-170899D01*
X240551Y-170987D01*
X241219Y-170899D01*
X241842Y-170641D01*
X242376Y-170231D01*
X242787Y-169696D01*
X243044Y-169074D01*
X243132Y-168405D01*
X243044Y-167737D01*
X242787Y-167115D01*
X242376Y-166580D01*
X241842Y-166170D01*
X241219Y-165912D01*
X240551Y-165824D01*
D02*
G37*
G36*
X311811Y-167301D02*
X311143Y-167389D01*
X310520Y-167647D01*
X309986Y-168057D01*
X309576Y-168591D01*
X309318Y-169214D01*
X309230Y-169882D01*
X309318Y-170550D01*
X309576Y-171172D01*
X309986Y-171707D01*
X310520Y-172117D01*
X311143Y-172375D01*
X311811Y-172463D01*
X312479Y-172375D01*
X313102Y-172117D01*
X313636Y-171707D01*
X314046Y-171172D01*
X314304Y-170550D01*
X314392Y-169882D01*
X314304Y-169214D01*
X314046Y-168591D01*
X313636Y-168057D01*
X313102Y-167647D01*
X312479Y-167389D01*
X311811Y-167301D01*
D02*
G37*
G36*
X148819Y-169663D02*
X148151Y-169751D01*
X147528Y-170009D01*
X146994Y-170419D01*
X146584Y-170954D01*
X146326Y-171576D01*
X146238Y-172244D01*
X146326Y-172912D01*
X146584Y-173535D01*
X146994Y-174069D01*
X147528Y-174479D01*
X148151Y-174737D01*
X148819Y-174825D01*
X149487Y-174737D01*
X150110Y-174479D01*
X150644Y-174069D01*
X151054Y-173535D01*
X151312Y-172912D01*
X151400Y-172244D01*
X151312Y-171576D01*
X151054Y-170954D01*
X150644Y-170419D01*
X150110Y-170009D01*
X149487Y-169751D01*
X148819Y-169663D01*
D02*
G37*
G36*
X252756Y-170057D02*
X252088Y-170145D01*
X251465Y-170403D01*
X250931Y-170813D01*
X250521Y-171347D01*
X250263Y-171970D01*
X250175Y-172638D01*
X250263Y-173306D01*
X250521Y-173928D01*
X250931Y-174463D01*
X251465Y-174873D01*
X252088Y-175131D01*
X252756Y-175219D01*
X253424Y-175131D01*
X254047Y-174873D01*
X254581Y-174463D01*
X254991Y-173928D01*
X255249Y-173306D01*
X255337Y-172638D01*
X255249Y-171970D01*
X254991Y-171347D01*
X254581Y-170813D01*
X254047Y-170403D01*
X253424Y-170145D01*
X252756Y-170057D01*
D02*
G37*
G36*
X265945Y-174387D02*
X265277Y-174475D01*
X264654Y-174733D01*
X264120Y-175143D01*
X263710Y-175678D01*
X263452Y-176301D01*
X263364Y-176969D01*
X263452Y-177637D01*
X263710Y-178259D01*
X264120Y-178794D01*
X264654Y-179204D01*
X265277Y-179462D01*
X265945Y-179550D01*
X266613Y-179462D01*
X267235Y-179204D01*
X267770Y-178794D01*
X268180Y-178259D01*
X268438Y-177637D01*
X268526Y-176969D01*
X268438Y-176301D01*
X268180Y-175678D01*
X267770Y-175143D01*
X267235Y-174733D01*
X266613Y-174475D01*
X265945Y-174387D01*
D02*
G37*
G36*
X342618Y-174978D02*
X341950Y-175066D01*
X341328Y-175324D01*
X340793Y-175734D01*
X340383Y-176268D01*
X340125Y-176891D01*
X340037Y-177559D01*
X340125Y-178227D01*
X340383Y-178850D01*
X340793Y-179384D01*
X341328Y-179794D01*
X341950Y-180052D01*
X342618Y-180140D01*
X343286Y-180052D01*
X343909Y-179794D01*
X344443Y-179384D01*
X344853Y-178850D01*
X345111Y-178227D01*
X345199Y-177559D01*
X345111Y-176891D01*
X344853Y-176268D01*
X344443Y-175734D01*
X343909Y-175324D01*
X343286Y-175066D01*
X342618Y-174978D01*
D02*
G37*
G36*
X237008Y-176946D02*
X236340Y-177034D01*
X235717Y-177292D01*
X235183Y-177702D01*
X234773Y-178237D01*
X234515Y-178859D01*
X234427Y-179528D01*
X234515Y-180196D01*
X234773Y-180818D01*
X235183Y-181353D01*
X235717Y-181763D01*
X236340Y-182021D01*
X237008Y-182109D01*
X237676Y-182021D01*
X238298Y-181763D01*
X238833Y-181353D01*
X239243Y-180818D01*
X239501Y-180196D01*
X239589Y-179528D01*
X239501Y-178859D01*
X239243Y-178237D01*
X238833Y-177702D01*
X238298Y-177292D01*
X237676Y-177034D01*
X237008Y-176946D01*
D02*
G37*
G36*
X190748Y-172419D02*
X190080Y-172507D01*
X189457Y-172765D01*
X188923Y-173175D01*
X188513Y-173709D01*
X188255Y-174332D01*
X188167Y-175000D01*
X188255Y-175668D01*
X188513Y-176291D01*
X188923Y-176825D01*
X189457Y-177235D01*
X189725Y-177346D01*
Y-177772D01*
X189457Y-177883D01*
X188923Y-178293D01*
X188513Y-178828D01*
X188255Y-179450D01*
X188167Y-180118D01*
X188255Y-180786D01*
X188513Y-181409D01*
X188923Y-181943D01*
X189457Y-182353D01*
X190080Y-182611D01*
X190748Y-182699D01*
X191416Y-182611D01*
X192039Y-182353D01*
X192573Y-181943D01*
X192983Y-181409D01*
X193241Y-180786D01*
X193329Y-180118D01*
X193241Y-179450D01*
X192983Y-178828D01*
X192573Y-178293D01*
X192039Y-177883D01*
X191771Y-177772D01*
Y-177346D01*
X192039Y-177235D01*
X192573Y-176825D01*
X192983Y-176291D01*
X193241Y-175668D01*
X193329Y-175000D01*
X193241Y-174332D01*
X192983Y-173709D01*
X192573Y-173175D01*
X192039Y-172765D01*
X191416Y-172507D01*
X190748Y-172419D01*
D02*
G37*
G36*
X353524Y-171744D02*
X349390D01*
X348542Y-171855D01*
X347752Y-172183D01*
X347073Y-172703D01*
X346553Y-173382D01*
X346225Y-174172D01*
X346114Y-175020D01*
X346225Y-175868D01*
X346553Y-176658D01*
X347073Y-177336D01*
X347752Y-177857D01*
X348542Y-178184D01*
X349390Y-178296D01*
X351761D01*
X351894Y-178690D01*
X351718Y-178824D01*
X351308Y-179359D01*
X351050Y-179982D01*
X350962Y-180650D01*
X351050Y-181318D01*
X351308Y-181940D01*
X351718Y-182475D01*
X352253Y-182885D01*
X352875Y-183143D01*
X353543Y-183231D01*
X354211Y-183143D01*
X354834Y-182885D01*
X355368Y-182475D01*
X355779Y-181940D01*
X356036Y-181318D01*
X356124Y-180650D01*
X356036Y-179982D01*
X355779Y-179359D01*
X355368Y-178824D01*
X354834Y-178414D01*
X354839Y-177990D01*
X355162Y-177857D01*
X355840Y-177336D01*
X356361Y-176658D01*
X356688Y-175868D01*
X356800Y-175020D01*
X356688Y-174172D01*
X356361Y-173382D01*
X355840Y-172703D01*
X355162Y-172183D01*
X354372Y-171855D01*
X353524Y-171744D01*
D02*
G37*
G36*
X254331Y-179112D02*
X253663Y-179200D01*
X253040Y-179458D01*
X252506Y-179868D01*
X252095Y-180402D01*
X251837Y-181025D01*
X251750Y-181693D01*
X251837Y-182361D01*
X252095Y-182984D01*
X252506Y-183518D01*
X253040Y-183928D01*
X253663Y-184186D01*
X254331Y-184274D01*
X254999Y-184186D01*
X255621Y-183928D01*
X256156Y-183518D01*
X256566Y-182984D01*
X256824Y-182361D01*
X256912Y-181693D01*
X256824Y-181025D01*
X256566Y-180402D01*
X256156Y-179868D01*
X255621Y-179458D01*
X254999Y-179200D01*
X254331Y-179112D01*
D02*
G37*
G36*
X118551Y-179584D02*
X117883Y-179672D01*
X117261Y-179930D01*
X116726Y-180340D01*
X116316Y-180875D01*
X116058Y-181497D01*
X115970Y-182165D01*
X116058Y-182833D01*
X116316Y-183456D01*
X116726Y-183991D01*
X117261Y-184401D01*
X117883Y-184659D01*
X118551Y-184747D01*
X119219Y-184659D01*
X119842Y-184401D01*
X120376Y-183991D01*
X120786Y-183456D01*
X121044Y-182833D01*
X121132Y-182165D01*
X121044Y-181497D01*
X120786Y-180875D01*
X120376Y-180340D01*
X119842Y-179930D01*
X119219Y-179672D01*
X118551Y-179584D01*
D02*
G37*
G36*
X259449Y-182261D02*
X258781Y-182349D01*
X258158Y-182607D01*
X257624Y-183017D01*
X257213Y-183552D01*
X256956Y-184175D01*
X256868Y-184843D01*
X256956Y-185511D01*
X257213Y-186133D01*
X257624Y-186668D01*
X258158Y-187078D01*
X258781Y-187336D01*
X259449Y-187424D01*
X260117Y-187336D01*
X260739Y-187078D01*
X261274Y-186668D01*
X261684Y-186133D01*
X261942Y-185511D01*
X262030Y-184843D01*
X261942Y-184175D01*
X261684Y-183552D01*
X261274Y-183017D01*
X260739Y-182607D01*
X260117Y-182349D01*
X259449Y-182261D01*
D02*
G37*
G36*
X333661Y-187183D02*
X332993Y-187271D01*
X332371Y-187529D01*
X331836Y-187939D01*
X331426Y-188473D01*
X331168Y-189096D01*
X331080Y-189764D01*
X331168Y-190432D01*
X331426Y-191054D01*
X331836Y-191589D01*
X332371Y-191999D01*
X332993Y-192257D01*
X333661Y-192345D01*
X334330Y-192257D01*
X334952Y-191999D01*
X335487Y-191589D01*
X335897Y-191054D01*
X336155Y-190432D01*
X336243Y-189764D01*
X336155Y-189096D01*
X335897Y-188473D01*
X335487Y-187939D01*
X334952Y-187529D01*
X334330Y-187271D01*
X333661Y-187183D01*
D02*
G37*
G36*
X191535Y-189348D02*
X190867Y-189436D01*
X190245Y-189694D01*
X189710Y-190104D01*
X189300Y-190639D01*
X189042Y-191261D01*
X188954Y-191929D01*
X189042Y-192597D01*
X189300Y-193220D01*
X189710Y-193754D01*
X190245Y-194165D01*
X190867Y-194422D01*
X191535Y-194510D01*
X192203Y-194422D01*
X192826Y-194165D01*
X193361Y-193754D01*
X193771Y-193220D01*
X194029Y-192597D01*
X194117Y-191929D01*
X194029Y-191261D01*
X193771Y-190639D01*
X193361Y-190104D01*
X192826Y-189694D01*
X192203Y-189436D01*
X191535Y-189348D01*
D02*
G37*
G36*
X251772Y-191710D02*
X251104Y-191798D01*
X250481Y-192056D01*
X249946Y-192466D01*
X249536Y-193001D01*
X249278Y-193623D01*
X249190Y-194291D01*
X249278Y-194959D01*
X249536Y-195582D01*
X249946Y-196116D01*
X250481Y-196527D01*
X251104Y-196784D01*
X251772Y-196872D01*
X252440Y-196784D01*
X253062Y-196527D01*
X253597Y-196116D01*
X254007Y-195582D01*
X254265Y-194959D01*
X254353Y-194291D01*
X254265Y-193623D01*
X254007Y-193001D01*
X253597Y-192466D01*
X253062Y-192056D01*
X252440Y-191798D01*
X251772Y-191710D01*
D02*
G37*
G36*
X203543Y-193482D02*
X202875Y-193570D01*
X202253Y-193828D01*
X201718Y-194238D01*
X201308Y-194772D01*
X201050Y-195395D01*
X200962Y-196063D01*
X201050Y-196731D01*
X201308Y-197353D01*
X201718Y-197888D01*
X202253Y-198298D01*
X202875Y-198556D01*
X203543Y-198644D01*
X204211Y-198556D01*
X204834Y-198298D01*
X205368Y-197888D01*
X205779Y-197353D01*
X206036Y-196731D01*
X206124Y-196063D01*
X206036Y-195395D01*
X205779Y-194772D01*
X205368Y-194238D01*
X204834Y-193828D01*
X204211Y-193570D01*
X203543Y-193482D01*
D02*
G37*
G36*
X278740Y-194269D02*
X278072Y-194357D01*
X277450Y-194615D01*
X276915Y-195025D01*
X276505Y-195560D01*
X276247Y-196182D01*
X276159Y-196850D01*
X276247Y-197518D01*
X276505Y-198141D01*
X276915Y-198676D01*
X277450Y-199086D01*
X278072Y-199344D01*
X278740Y-199432D01*
X279408Y-199344D01*
X280031Y-199086D01*
X280565Y-198676D01*
X280976Y-198141D01*
X281233Y-197518D01*
X281321Y-196850D01*
X281233Y-196182D01*
X280976Y-195560D01*
X280565Y-195025D01*
X280031Y-194615D01*
X279408Y-194357D01*
X278740Y-194269D01*
D02*
G37*
G36*
X118551Y-198600D02*
X117883Y-198688D01*
X117261Y-198946D01*
X116726Y-199356D01*
X116316Y-199890D01*
X116058Y-200513D01*
X115970Y-201181D01*
X116058Y-201849D01*
X116316Y-202472D01*
X116726Y-203006D01*
X117261Y-203416D01*
X117883Y-203674D01*
X118551Y-203762D01*
X119219Y-203674D01*
X119842Y-203416D01*
X120376Y-203006D01*
X120786Y-202472D01*
X121044Y-201849D01*
X121132Y-201181D01*
X121044Y-200513D01*
X120786Y-199890D01*
X120376Y-199356D01*
X119842Y-198946D01*
X119219Y-198688D01*
X118551Y-198600D01*
D02*
G37*
G36*
X268307Y-203817D02*
X267639Y-203905D01*
X267017Y-204162D01*
X266482Y-204573D01*
X266463Y-204597D01*
X266153Y-204359D01*
X265530Y-204101D01*
X264862Y-204013D01*
X264194Y-204101D01*
X263572Y-204359D01*
X263037Y-204769D01*
X262627Y-205304D01*
X262369Y-205926D01*
X262281Y-206594D01*
X262369Y-207262D01*
X262627Y-207885D01*
X263037Y-208420D01*
X263572Y-208830D01*
X264194Y-209088D01*
X264862Y-209176D01*
X265530Y-209088D01*
X266153Y-208830D01*
X266687Y-208420D01*
X266731Y-208414D01*
X267017Y-208633D01*
X267639Y-208891D01*
X268307Y-208979D01*
X268975Y-208891D01*
X269598Y-208633D01*
X270132Y-208223D01*
X270542Y-207688D01*
X270800Y-207066D01*
X270888Y-206398D01*
X270800Y-205730D01*
X270542Y-205107D01*
X270132Y-204573D01*
X269598Y-204162D01*
X268975Y-203905D01*
X268307Y-203817D01*
D02*
G37*
G36*
X153544Y-205079D02*
X152876Y-205167D01*
X152254Y-205424D01*
X151719Y-205835D01*
X151309Y-206369D01*
X151257Y-206494D01*
X150831D01*
X150780Y-206369D01*
X150369Y-205835D01*
X149835Y-205424D01*
X149212Y-205167D01*
X148544Y-205079D01*
X147876Y-205167D01*
X147254Y-205424D01*
X146719Y-205835D01*
X146309Y-206369D01*
X146257Y-206494D01*
X145831D01*
X145780Y-206369D01*
X145369Y-205835D01*
X144835Y-205424D01*
X144212Y-205167D01*
X143544Y-205079D01*
X142876Y-205167D01*
X142254Y-205424D01*
X141719Y-205835D01*
X141309Y-206369D01*
X141257Y-206494D01*
X140831D01*
X140780Y-206369D01*
X140369Y-205835D01*
X139835Y-205424D01*
X139212Y-205167D01*
X138544Y-205079D01*
X137876Y-205167D01*
X137254Y-205424D01*
X136719Y-205835D01*
X136309Y-206369D01*
X136051Y-206992D01*
X135963Y-207660D01*
X136051Y-208328D01*
X136309Y-208950D01*
X136719Y-209485D01*
X137254Y-209895D01*
X137876Y-210153D01*
X138544Y-210241D01*
X139212Y-210153D01*
X139835Y-209895D01*
X140369Y-209485D01*
X140780Y-208950D01*
X140831Y-208826D01*
X141257D01*
X141309Y-208950D01*
X141719Y-209485D01*
X142254Y-209895D01*
X142876Y-210153D01*
X143544Y-210241D01*
X144212Y-210153D01*
X144835Y-209895D01*
X145369Y-209485D01*
X145780Y-208950D01*
X145831Y-208826D01*
X146257D01*
X146309Y-208950D01*
X146719Y-209485D01*
X147254Y-209895D01*
X147876Y-210153D01*
X148544Y-210241D01*
X149212Y-210153D01*
X149835Y-209895D01*
X150369Y-209485D01*
X150780Y-208950D01*
X150831Y-208826D01*
X151257D01*
X151309Y-208950D01*
X151719Y-209485D01*
X152254Y-209895D01*
X152876Y-210153D01*
X153544Y-210241D01*
X154212Y-210153D01*
X154835Y-209895D01*
X155369Y-209485D01*
X155780Y-208950D01*
X156037Y-208328D01*
X156125Y-207660D01*
X156037Y-206992D01*
X155780Y-206369D01*
X155369Y-205835D01*
X154835Y-205424D01*
X154212Y-205167D01*
X153544Y-205079D01*
D02*
G37*
G36*
X289764Y-202143D02*
X289096Y-202231D01*
X288473Y-202489D01*
X287939Y-202899D01*
X287528Y-203434D01*
X287271Y-204056D01*
X287183Y-204724D01*
X287271Y-205393D01*
X287528Y-206015D01*
X287939Y-206550D01*
X288473Y-206960D01*
X289096Y-207218D01*
X289764Y-207306D01*
X290432Y-207218D01*
X291054Y-206960D01*
X291589Y-206550D01*
X291999Y-206015D01*
X292257Y-205393D01*
X292345Y-204724D01*
X292257Y-204056D01*
X291999Y-203434D01*
X291589Y-202899D01*
X291054Y-202489D01*
X290432Y-202231D01*
X289764Y-202143D01*
D02*
G37*
G36*
X300197Y-203718D02*
X299529Y-203806D01*
X298906Y-204064D01*
X298372Y-204474D01*
X297961Y-205009D01*
X297704Y-205631D01*
X297616Y-206299D01*
X297704Y-206967D01*
X297961Y-207590D01*
X298372Y-208124D01*
X298906Y-208535D01*
X299529Y-208792D01*
X300197Y-208880D01*
X300865Y-208792D01*
X301487Y-208535D01*
X302022Y-208124D01*
X302432Y-207590D01*
X302690Y-206967D01*
X302778Y-206299D01*
X302690Y-205631D01*
X302432Y-205009D01*
X302022Y-204474D01*
X301487Y-204064D01*
X300865Y-203806D01*
X300197Y-203718D01*
D02*
G37*
G36*
X342815Y-204702D02*
X342147Y-204790D01*
X341524Y-205048D01*
X340990Y-205458D01*
X340580Y-205993D01*
X340322Y-206615D01*
X340234Y-207283D01*
X340322Y-207951D01*
X340580Y-208574D01*
X340990Y-209109D01*
X341524Y-209519D01*
X342147Y-209777D01*
X342815Y-209865D01*
X343483Y-209777D01*
X344106Y-209519D01*
X344640Y-209109D01*
X345050Y-208574D01*
X345308Y-207951D01*
X345396Y-207283D01*
X345308Y-206615D01*
X345050Y-205993D01*
X344640Y-205458D01*
X344106Y-205048D01*
X343483Y-204790D01*
X342815Y-204702D01*
D02*
G37*
G36*
X353543Y-200824D02*
X352875Y-200912D01*
X352253Y-201170D01*
X351718Y-201580D01*
X351308Y-202115D01*
X351050Y-202737D01*
X350962Y-203405D01*
X351050Y-204074D01*
X351308Y-204696D01*
X351718Y-205231D01*
X351894Y-205366D01*
X351761Y-205759D01*
X349390D01*
X348542Y-205871D01*
X347752Y-206198D01*
X347073Y-206719D01*
X346553Y-207397D01*
X346225Y-208188D01*
X346114Y-209035D01*
X346225Y-209883D01*
X346553Y-210673D01*
X347073Y-211352D01*
X347752Y-211873D01*
X348542Y-212200D01*
X349390Y-212312D01*
X353524D01*
X354372Y-212200D01*
X355162Y-211873D01*
X355840Y-211352D01*
X356361Y-210673D01*
X356688Y-209883D01*
X356800Y-209035D01*
X356688Y-208188D01*
X356361Y-207397D01*
X355840Y-206719D01*
X355162Y-206198D01*
X354839Y-206065D01*
X354834Y-205641D01*
X355368Y-205231D01*
X355779Y-204696D01*
X356036Y-204074D01*
X356124Y-203405D01*
X356036Y-202737D01*
X355779Y-202115D01*
X355368Y-201580D01*
X354834Y-201170D01*
X354211Y-200912D01*
X353543Y-200824D01*
D02*
G37*
G36*
X262402Y-209624D02*
X261734Y-209712D01*
X261111Y-209969D01*
X260577Y-210380D01*
X260166Y-210914D01*
X259908Y-211537D01*
X259820Y-212205D01*
X259908Y-212873D01*
X260166Y-213495D01*
X260577Y-214030D01*
X261111Y-214440D01*
X261734Y-214698D01*
X262402Y-214786D01*
X263070Y-214698D01*
X263692Y-214440D01*
X264227Y-214030D01*
X264637Y-213495D01*
X264895Y-212873D01*
X264983Y-212205D01*
X264895Y-211537D01*
X264637Y-210914D01*
X264227Y-210380D01*
X263692Y-209969D01*
X263070Y-209712D01*
X262402Y-209624D01*
D02*
G37*
G36*
X254134Y-213954D02*
X253466Y-214042D01*
X252843Y-214300D01*
X252309Y-214710D01*
X251899Y-215245D01*
X251641Y-215867D01*
X251553Y-216535D01*
X251641Y-217203D01*
X251899Y-217826D01*
X252309Y-218361D01*
X252843Y-218771D01*
X253466Y-219029D01*
X254134Y-219117D01*
X254802Y-219029D01*
X255424Y-218771D01*
X255959Y-218361D01*
X256369Y-217826D01*
X256627Y-217203D01*
X256715Y-216535D01*
X256627Y-215867D01*
X256369Y-215245D01*
X255959Y-214710D01*
X255424Y-214300D01*
X254802Y-214042D01*
X254134Y-213954D01*
D02*
G37*
G36*
X112795Y-214198D02*
X112127Y-214286D01*
X111505Y-214544D01*
X110970Y-214954D01*
X110560Y-215489D01*
X110302Y-216111D01*
X110214Y-216779D01*
X110302Y-217448D01*
X110560Y-218070D01*
X110970Y-218605D01*
X111505Y-219015D01*
X112127Y-219273D01*
X112795Y-219361D01*
X113463Y-219273D01*
X114086Y-219015D01*
X114620Y-218605D01*
X115031Y-218070D01*
X115288Y-217448D01*
X115376Y-216779D01*
X115288Y-216111D01*
X115031Y-215489D01*
X114620Y-214954D01*
X114086Y-214544D01*
X113463Y-214286D01*
X112795Y-214198D01*
D02*
G37*
G36*
X297244Y-213944D02*
X296268Y-214073D01*
X295358Y-214450D01*
X294577Y-215049D01*
X293977Y-215830D01*
X293600Y-216740D01*
X293472Y-217717D01*
X293600Y-218693D01*
X293977Y-219603D01*
X294577Y-220384D01*
X295358Y-220984D01*
X296268Y-221360D01*
X297244Y-221489D01*
X298220Y-221360D01*
X299130Y-220984D01*
X299912Y-220384D01*
X300511Y-219603D01*
X300888Y-218693D01*
X301016Y-217717D01*
X300888Y-216740D01*
X300511Y-215830D01*
X299912Y-215049D01*
X299130Y-214450D01*
X298220Y-214073D01*
X297244Y-213944D01*
D02*
G37*
G36*
X19685Y-112056D02*
X16648Y-115093D01*
X17203Y-115519D01*
X18400Y-116015D01*
X19685Y-116184D01*
X20970Y-116015D01*
X22167Y-115519D01*
X22722Y-115093D01*
X19685Y-112056D01*
D02*
G37*
G36*
X29528Y-133617D02*
X28192Y-133793D01*
X26946Y-134309D01*
X25877Y-135129D01*
X25057Y-136198D01*
X24803Y-136811D01*
X24409D01*
X24156Y-136198D01*
X23335Y-135129D01*
X22266Y-134309D01*
X21021Y-133793D01*
X19685Y-133617D01*
X18349Y-133793D01*
X17104Y-134309D01*
X16035Y-135129D01*
X15214Y-136198D01*
X14699Y-137443D01*
X14523Y-138779D01*
X14699Y-140116D01*
X15214Y-141361D01*
X16035Y-142430D01*
X17104Y-143250D01*
X18349Y-143766D01*
X19685Y-143942D01*
X21021Y-143766D01*
X22266Y-143250D01*
X23335Y-142430D01*
X24156Y-141361D01*
X24409Y-140748D01*
X24803D01*
X25057Y-141361D01*
X25877Y-142430D01*
X26946Y-143250D01*
X28192Y-143766D01*
X29528Y-143942D01*
X30864Y-143766D01*
X32109Y-143250D01*
X33178Y-142430D01*
X33998Y-141361D01*
X34514Y-140116D01*
X34690Y-138779D01*
X34514Y-137443D01*
X33998Y-136198D01*
X33178Y-135129D01*
X32109Y-134309D01*
X30864Y-133793D01*
X29528Y-133617D01*
D02*
G37*
G36*
X76772Y-135214D02*
X76104Y-135302D01*
X75481Y-135560D01*
X74946Y-135970D01*
X74536Y-136505D01*
X74278Y-137127D01*
X74190Y-137795D01*
X74278Y-138463D01*
X74536Y-139086D01*
X74946Y-139620D01*
X75481Y-140031D01*
X76104Y-140288D01*
X76772Y-140376D01*
X77440Y-140288D01*
X78062Y-140031D01*
X78597Y-139620D01*
X79007Y-139086D01*
X79265Y-138463D01*
X79353Y-137795D01*
X79265Y-137127D01*
X79007Y-136505D01*
X78597Y-135970D01*
X78062Y-135560D01*
X77440Y-135302D01*
X76772Y-135214D01*
D02*
G37*
G36*
X67716Y-138757D02*
X67049Y-138845D01*
X66426Y-139103D01*
X65891Y-139513D01*
X65481Y-140048D01*
X65223Y-140671D01*
X65135Y-141339D01*
X65223Y-142007D01*
X65481Y-142629D01*
X65891Y-143164D01*
X66426Y-143574D01*
X67049Y-143832D01*
X67716Y-143920D01*
X68385Y-143832D01*
X69007Y-143574D01*
X69542Y-143164D01*
X69952Y-142629D01*
X70210Y-142007D01*
X70298Y-141339D01*
X70210Y-140671D01*
X69952Y-140048D01*
X69542Y-139513D01*
X69007Y-139103D01*
X68385Y-138845D01*
X67716Y-138757D01*
D02*
G37*
G36*
X88386Y-143088D02*
X87718Y-143176D01*
X87095Y-143434D01*
X86561Y-143844D01*
X86150Y-144379D01*
X86009Y-144720D01*
X85772Y-144974D01*
X85521Y-144918D01*
X85117Y-144751D01*
X84449Y-144663D01*
X83781Y-144751D01*
X83158Y-145009D01*
X82624Y-145419D01*
X82213Y-145954D01*
X81956Y-146576D01*
X81868Y-147244D01*
X81956Y-147912D01*
X82213Y-148535D01*
X82624Y-149069D01*
X83158Y-149479D01*
X83781Y-149737D01*
X84449Y-149825D01*
X85117Y-149737D01*
X85739Y-149479D01*
X86274Y-149069D01*
X86684Y-148535D01*
X86825Y-148194D01*
X87063Y-147939D01*
X87314Y-147995D01*
X87718Y-148162D01*
X88386Y-148250D01*
X89054Y-148162D01*
X89676Y-147905D01*
X90211Y-147494D01*
X90621Y-146960D01*
X90879Y-146337D01*
X90967Y-145669D01*
X90879Y-145001D01*
X90621Y-144379D01*
X90211Y-143844D01*
X89676Y-143434D01*
X89054Y-143176D01*
X88386Y-143088D01*
D02*
G37*
G36*
X29528Y-147397D02*
X28192Y-147573D01*
X26946Y-148088D01*
X25877Y-148909D01*
X25057Y-149978D01*
X24803Y-150591D01*
X24409D01*
X24156Y-149978D01*
X23335Y-148909D01*
X22266Y-148088D01*
X21021Y-147573D01*
X19685Y-147397D01*
X18349Y-147573D01*
X17104Y-148088D01*
X16035Y-148909D01*
X15214Y-149978D01*
X14699Y-151223D01*
X14523Y-152559D01*
X14699Y-153895D01*
X15214Y-155140D01*
X16035Y-156209D01*
X17104Y-157030D01*
X18349Y-157545D01*
X19685Y-157721D01*
X21021Y-157545D01*
X22266Y-157030D01*
X23335Y-156209D01*
X24156Y-155140D01*
X24409Y-154528D01*
X24803D01*
X25057Y-155140D01*
X25877Y-156209D01*
X26946Y-157030D01*
X28192Y-157545D01*
X29528Y-157721D01*
X30864Y-157545D01*
X32109Y-157030D01*
X33178Y-156209D01*
X33998Y-155140D01*
X34514Y-153895D01*
X34690Y-152559D01*
X34514Y-151223D01*
X33998Y-149978D01*
X33178Y-148909D01*
X32109Y-148088D01*
X30864Y-147573D01*
X29528Y-147397D01*
D02*
G37*
G36*
X76772Y-152045D02*
X76104Y-152133D01*
X75481Y-152391D01*
X74946Y-152801D01*
X74536Y-153335D01*
X74278Y-153958D01*
X74190Y-154626D01*
X74278Y-155294D01*
X74536Y-155917D01*
X74946Y-156451D01*
X75481Y-156861D01*
X76104Y-157119D01*
X76772Y-157207D01*
X77440Y-157119D01*
X78062Y-156861D01*
X78597Y-156451D01*
X79007Y-155917D01*
X79265Y-155294D01*
X79353Y-154626D01*
X79265Y-153958D01*
X79007Y-153335D01*
X78597Y-152801D01*
X78062Y-152391D01*
X77440Y-152133D01*
X76772Y-152045D01*
D02*
G37*
G36*
X67716Y-155933D02*
X67049Y-156021D01*
X66426Y-156278D01*
X65891Y-156689D01*
X65481Y-157223D01*
X65223Y-157846D01*
X65135Y-158514D01*
X65223Y-159182D01*
X65481Y-159804D01*
X65891Y-160339D01*
X66426Y-160749D01*
X67049Y-161007D01*
X67716Y-161095D01*
X68385Y-161007D01*
X69007Y-160749D01*
X69542Y-160339D01*
X69952Y-159804D01*
X70210Y-159182D01*
X70298Y-158514D01*
X70210Y-157846D01*
X69952Y-157223D01*
X69542Y-156689D01*
X69007Y-156278D01*
X68385Y-156021D01*
X67716Y-155933D01*
D02*
G37*
G36*
X29528Y-161176D02*
X28192Y-161352D01*
X26946Y-161868D01*
X25877Y-162688D01*
X25057Y-163758D01*
X24803Y-164370D01*
X24409D01*
X24156Y-163758D01*
X23335Y-162688D01*
X22266Y-161868D01*
X21021Y-161352D01*
X19685Y-161176D01*
X18349Y-161352D01*
X17104Y-161868D01*
X16035Y-162688D01*
X15214Y-163758D01*
X14699Y-165003D01*
X14523Y-166339D01*
X14699Y-167675D01*
X15214Y-168920D01*
X16035Y-169989D01*
X17104Y-170809D01*
X18349Y-171325D01*
X19685Y-171501D01*
X21021Y-171325D01*
X22266Y-170809D01*
X23335Y-169989D01*
X24156Y-168920D01*
X24409Y-168307D01*
X24803D01*
X25057Y-168920D01*
X25877Y-169989D01*
X26946Y-170809D01*
X28192Y-171325D01*
X29528Y-171501D01*
X30864Y-171325D01*
X32109Y-170809D01*
X33178Y-169989D01*
X33998Y-168920D01*
X34514Y-167675D01*
X34690Y-166339D01*
X34514Y-165003D01*
X33998Y-163758D01*
X33178Y-162688D01*
X32109Y-161868D01*
X30864Y-161352D01*
X29528Y-161176D01*
D02*
G37*
G36*
X84055Y-162183D02*
X83387Y-162271D01*
X82765Y-162528D01*
X82230Y-162939D01*
X81820Y-163473D01*
X81562Y-164096D01*
X81474Y-164764D01*
X81562Y-165432D01*
X81820Y-166054D01*
X82230Y-166589D01*
X82765Y-166999D01*
X83387Y-167257D01*
X84055Y-167345D01*
X84723Y-167257D01*
X85346Y-166999D01*
X85880Y-166589D01*
X86290Y-166054D01*
X86548Y-165432D01*
X86636Y-164764D01*
X86548Y-164096D01*
X86290Y-163473D01*
X85880Y-162939D01*
X85346Y-162528D01*
X84723Y-162271D01*
X84055Y-162183D01*
D02*
G37*
G36*
X76772Y-169269D02*
X76104Y-169357D01*
X75481Y-169615D01*
X74946Y-170025D01*
X74536Y-170560D01*
X74278Y-171182D01*
X74190Y-171850D01*
X74278Y-172519D01*
X74536Y-173141D01*
X74946Y-173676D01*
X75481Y-174086D01*
X76104Y-174344D01*
X76772Y-174432D01*
X77440Y-174344D01*
X78062Y-174086D01*
X78597Y-173676D01*
X79007Y-173141D01*
X79265Y-172519D01*
X79353Y-171850D01*
X79265Y-171182D01*
X79007Y-170560D01*
X78597Y-170025D01*
X78062Y-169615D01*
X77440Y-169357D01*
X76772Y-169269D01*
D02*
G37*
G36*
X29528Y-174956D02*
X28192Y-175132D01*
X26946Y-175647D01*
X25877Y-176468D01*
X25057Y-177537D01*
X24803Y-178150D01*
X24409D01*
X24156Y-177537D01*
X23335Y-176468D01*
X22266Y-175647D01*
X21021Y-175132D01*
X19685Y-174956D01*
X18349Y-175132D01*
X17104Y-175647D01*
X16035Y-176468D01*
X15214Y-177537D01*
X14699Y-178782D01*
X14523Y-180118D01*
X14699Y-181454D01*
X15214Y-182699D01*
X16035Y-183768D01*
X17104Y-184589D01*
X18349Y-185105D01*
X19685Y-185280D01*
X21021Y-185105D01*
X22266Y-184589D01*
X23335Y-183768D01*
X24156Y-182699D01*
X24409Y-182087D01*
X24803D01*
X25057Y-182699D01*
X25877Y-183768D01*
X26946Y-184589D01*
X28192Y-185105D01*
X29528Y-185280D01*
X30864Y-185105D01*
X32109Y-184589D01*
X33178Y-183768D01*
X33998Y-182699D01*
X34514Y-181454D01*
X34690Y-180118D01*
X34514Y-178782D01*
X33998Y-177537D01*
X33178Y-176468D01*
X32109Y-175647D01*
X30864Y-175132D01*
X29528Y-174956D01*
D02*
G37*
G36*
X67716Y-173108D02*
X67049Y-173196D01*
X66426Y-173454D01*
X65891Y-173864D01*
X65481Y-174398D01*
X65223Y-175021D01*
X65135Y-175689D01*
X65223Y-176357D01*
X65481Y-176979D01*
X65891Y-177514D01*
X66426Y-177924D01*
X67049Y-178182D01*
X67716Y-178270D01*
X68385Y-178182D01*
X69007Y-177924D01*
X69542Y-177514D01*
X69952Y-176979D01*
X70210Y-176357D01*
X70298Y-175689D01*
X70210Y-175021D01*
X69952Y-174398D01*
X69542Y-173864D01*
X69007Y-173454D01*
X68385Y-173196D01*
X67716Y-173108D01*
D02*
G37*
G36*
X84055Y-180883D02*
X83387Y-180971D01*
X82765Y-181229D01*
X82230Y-181639D01*
X81820Y-182174D01*
X81562Y-182797D01*
X81474Y-183465D01*
X81562Y-184133D01*
X81820Y-184755D01*
X82230Y-185290D01*
X82765Y-185700D01*
X83387Y-185958D01*
X84055Y-186046D01*
X84723Y-185958D01*
X85346Y-185700D01*
X85880Y-185290D01*
X86290Y-184755D01*
X86548Y-184133D01*
X86636Y-183465D01*
X86548Y-182797D01*
X86290Y-182174D01*
X85880Y-181639D01*
X85346Y-181229D01*
X84723Y-180971D01*
X84055Y-180883D01*
D02*
G37*
G36*
X76772Y-186494D02*
X76104Y-186582D01*
X75481Y-186839D01*
X74946Y-187250D01*
X74536Y-187784D01*
X74278Y-188407D01*
X74190Y-189075D01*
X74278Y-189743D01*
X74536Y-190365D01*
X74946Y-190900D01*
X75481Y-191310D01*
X76104Y-191568D01*
X76772Y-191656D01*
X77440Y-191568D01*
X78062Y-191310D01*
X78597Y-190900D01*
X79007Y-190365D01*
X79265Y-189743D01*
X79353Y-189075D01*
X79265Y-188407D01*
X79007Y-187784D01*
X78597Y-187250D01*
X78062Y-186839D01*
X77440Y-186582D01*
X76772Y-186494D01*
D02*
G37*
G36*
X29528Y-188735D02*
X28192Y-188911D01*
X26946Y-189427D01*
X25877Y-190247D01*
X25057Y-191316D01*
X24803Y-191929D01*
X24409D01*
X24156Y-191316D01*
X23335Y-190247D01*
X22266Y-189427D01*
X21021Y-188911D01*
X19685Y-188735D01*
X18349Y-188911D01*
X17104Y-189427D01*
X16035Y-190247D01*
X15214Y-191316D01*
X14699Y-192562D01*
X14523Y-193898D01*
X14699Y-195234D01*
X15214Y-196479D01*
X16035Y-197548D01*
X17104Y-198368D01*
X18349Y-198884D01*
X19685Y-199060D01*
X21021Y-198884D01*
X22266Y-198368D01*
X23335Y-197548D01*
X24156Y-196479D01*
X24409Y-195866D01*
X24803D01*
X25057Y-196479D01*
X25877Y-197548D01*
X26946Y-198368D01*
X28192Y-198884D01*
X29528Y-199060D01*
X30864Y-198884D01*
X32109Y-198368D01*
X33178Y-197548D01*
X33998Y-196479D01*
X34514Y-195234D01*
X34690Y-193898D01*
X34514Y-192562D01*
X33998Y-191316D01*
X33178Y-190247D01*
X32109Y-189427D01*
X30864Y-188911D01*
X29528Y-188735D01*
D02*
G37*
G36*
X67716Y-190283D02*
X67049Y-190371D01*
X66426Y-190629D01*
X65891Y-191039D01*
X65481Y-191574D01*
X65223Y-192196D01*
X65135Y-192864D01*
X65223Y-193532D01*
X65481Y-194155D01*
X65891Y-194689D01*
X66426Y-195099D01*
X67049Y-195357D01*
X67716Y-195445D01*
X68385Y-195357D01*
X69007Y-195099D01*
X69542Y-194689D01*
X69952Y-194155D01*
X70210Y-193532D01*
X70298Y-192864D01*
X70210Y-192196D01*
X69952Y-191574D01*
X69542Y-191039D01*
X69007Y-190629D01*
X68385Y-190371D01*
X67716Y-190283D01*
D02*
G37*
G36*
X84055Y-199387D02*
X83387Y-199475D01*
X82765Y-199733D01*
X82230Y-200143D01*
X81820Y-200678D01*
X81562Y-201301D01*
X81474Y-201969D01*
X81562Y-202637D01*
X81820Y-203259D01*
X82230Y-203794D01*
X82765Y-204204D01*
X83387Y-204462D01*
X84055Y-204550D01*
X84723Y-204462D01*
X85346Y-204204D01*
X85880Y-203794D01*
X86290Y-203259D01*
X86548Y-202637D01*
X86636Y-201969D01*
X86548Y-201301D01*
X86290Y-200678D01*
X85880Y-200143D01*
X85346Y-199733D01*
X84723Y-199475D01*
X84055Y-199387D01*
D02*
G37*
G36*
X76772Y-203718D02*
X76104Y-203806D01*
X75481Y-204064D01*
X74946Y-204474D01*
X74536Y-205009D01*
X74278Y-205631D01*
X74190Y-206299D01*
X74278Y-206967D01*
X74536Y-207590D01*
X74946Y-208124D01*
X75481Y-208535D01*
X76104Y-208792D01*
X76772Y-208880D01*
X77440Y-208792D01*
X78062Y-208535D01*
X78597Y-208124D01*
X79007Y-207590D01*
X79265Y-206967D01*
X79353Y-206299D01*
X79265Y-205631D01*
X79007Y-205009D01*
X78597Y-204474D01*
X78062Y-204064D01*
X77440Y-203806D01*
X76772Y-203718D01*
D02*
G37*
G36*
X67716Y-207458D02*
X67049Y-207546D01*
X66426Y-207804D01*
X65891Y-208214D01*
X65481Y-208749D01*
X65223Y-209371D01*
X65135Y-210039D01*
X65223Y-210707D01*
X65481Y-211330D01*
X65891Y-211864D01*
X66426Y-212275D01*
X67049Y-212532D01*
X67716Y-212620D01*
X68385Y-212532D01*
X69007Y-212275D01*
X69542Y-211864D01*
X69952Y-211330D01*
X70210Y-210707D01*
X70298Y-210039D01*
X70210Y-209371D01*
X69952Y-208749D01*
X69542Y-208214D01*
X69007Y-207804D01*
X68385Y-207546D01*
X67716Y-207458D01*
D02*
G37*
%LPD*%
D106*
X29528Y-42323D02*
D03*
X19685D02*
D03*
Y-111221D02*
D03*
X29528Y-97441D02*
D03*
X19685Y-97441D02*
D03*
Y-56102D02*
D03*
X29528D02*
D03*
X19685Y-69882D02*
D03*
X29528D02*
D03*
X19685Y-83661D02*
D03*
X29528D02*
D03*
D115*
Y-56102D02*
X46850D01*
X40945Y-46063D02*
X46850D01*
X37421Y-32461D02*
X48228D01*
X29528Y-22638D02*
X47835D01*
X19685Y-32480D02*
X29528Y-22638D01*
X19685Y-42323D02*
Y-32480D01*
X29528Y-40354D02*
X37421Y-32461D01*
X29528Y-42323D02*
Y-40354D01*
D116*
X19685Y-56102D02*
X26575Y-49213D01*
X19685Y-69882D02*
X26378Y-63189D01*
X26575Y-49213D02*
X37795D01*
X40945Y-46063D01*
X26378Y-63189D02*
X36417D01*
D117*
X44685Y-87795D02*
X49016D01*
X33661Y-76772D02*
X44685Y-87795D01*
X43701Y-94685D02*
X45669Y-96653D01*
X43701Y-94685D02*
Y-94291D01*
Y-96260D02*
Y-94685D01*
X33071Y-83661D02*
X43701Y-94291D01*
X29528Y-83661D02*
X33071D01*
X43701Y-96260D02*
X45079Y-97638D01*
X25000Y-90551D02*
X32874D01*
X37992Y-95669D01*
Y-99410D02*
Y-95669D01*
X24409Y-76772D02*
X33661D01*
X19685Y-81496D02*
X24409Y-76772D01*
X19685Y-83661D02*
Y-81496D01*
Y-97441D02*
Y-95866D01*
X25000Y-90551D01*
X45669Y-97638D02*
X46949Y-98917D01*
X45669Y-97638D02*
Y-97638D01*
Y-96653D01*
X45079Y-97638D02*
X45669D01*
X46654D01*
X45669Y-96653D02*
X46654Y-97638D01*
X45079D02*
X46358Y-98917D01*
X46949D01*
D118*
X37008Y-64567D02*
X47441D01*
X39764Y-72441D02*
X45177Y-77854D01*
D119*
X29331Y-71260D02*
X38583D01*
X46457Y-109646D02*
X46850Y-108268D01*
X46801Y-111614D02*
X46850Y-111663D01*
X29528Y-99803D02*
Y-97441D01*
Y-69882D02*
X30709Y-71063D01*
X38583Y-71260D02*
X39764Y-72441D01*
X37992Y-99410D02*
X46850Y-108268D01*
X46457Y-109646D02*
X46850Y-111663D01*
X29528Y-99803D02*
X40551Y-110827D01*
Y-115551D02*
Y-110827D01*
X46501Y-111751D02*
X46801Y-111614D01*
X46501Y-111751D02*
X47439Y-113862D01*
X47935Y-113708D01*
X40551Y-115551D02*
X46850Y-121850D01*
D122*
X323441Y-17914D02*
D03*
X264961Y-45571D02*
D03*
X301378Y-152559D02*
D03*
X237008Y-186614D02*
D03*
X136364Y-56762D02*
D03*
X251772Y-176181D02*
D03*
X237008Y-193688D02*
D03*
X127362Y-207087D02*
D03*
Y-182874D02*
D03*
Y-164370D02*
D03*
Y-145276D02*
D03*
X214370Y-152165D02*
D03*
X173425Y-160846D02*
D03*
X239567Y-130315D02*
D03*
X264469Y-68209D02*
D03*
X251575Y-73819D02*
D03*
X102756Y-144095D02*
D03*
X99410Y-141142D02*
D03*
X102756Y-125197D02*
D03*
X173031Y-132087D02*
D03*
X154134Y-111614D02*
D03*
X153347Y-103740D02*
D03*
X154134Y-82087D02*
D03*
X168701Y-35630D02*
D03*
X192323D02*
D03*
X212008D02*
D03*
X250591Y-95472D02*
D03*
X199409Y-133465D02*
D03*
X261810Y-149606D02*
D03*
X292126Y-155512D02*
D03*
X285039Y-189764D02*
D03*
X249213Y-46850D02*
D03*
X311024Y-206102D02*
D03*
X280118Y-208465D02*
D03*
Y-205512D02*
D03*
X175197Y-21260D02*
D03*
X218307Y-132087D02*
D03*
X100787Y-211417D02*
D03*
X99410Y-160039D02*
D03*
X102756Y-163976D02*
D03*
X99410Y-179134D02*
D03*
X102362Y-182480D02*
D03*
X99606Y-198228D02*
D03*
X102559Y-201181D02*
D03*
X133268Y-118799D02*
D03*
D124*
X226969Y-21654D02*
D03*
X297953Y-130512D02*
D03*
D127*
X43898Y-20669D02*
D03*
X47835D02*
D03*
Y-30512D02*
D03*
X43898D02*
D03*
X47441Y-44094D02*
D03*
X43504D02*
D03*
X46850Y-54134D02*
D03*
X42913D02*
D03*
X47638Y-63779D02*
D03*
X43701D02*
D03*
X45276Y-76575D02*
D03*
X42323Y-73819D02*
D03*
X48819Y-87303D02*
D03*
X44882D02*
D03*
X46949Y-98917D02*
D03*
X43701Y-96260D02*
D03*
X46457Y-109843D02*
D03*
X47638Y-113386D02*
D03*
X43701Y-119095D02*
D03*
X46850Y-121850D02*
D03*
M02*
