G04*
G04 #@! TF.GenerationSoftware,Altium Limited,Altium Designer,21.8.1 (53)*
G04*
G04 Layer_Color=32896*
%FSLAX25Y25*%
%MOIN*%
G70*
G04*
G04 #@! TF.SameCoordinates,D7649F9F-AB44-4DDD-A0E2-BCBC4CF329E9*
G04*
G04*
G04 #@! TF.FilePolarity,Positive*
G04*
G01*
G75*
%ADD11C,0.01000*%
%ADD20C,0.00709*%
%ADD21R,3.74016X0.11811*%
%ADD128C,0.00100*%
%ADD129C,0.00472*%
G36*
X294951Y-55479D02*
X290242Y-60562D01*
X289767Y-66570D01*
X294788Y-71716D01*
X294514Y-71966D01*
X289717Y-67070D01*
X289630Y-68194D01*
X289617Y-68356D01*
X289593Y-68506D01*
Y-68656D01*
X289580Y-68768D01*
X289568Y-68881D01*
Y-68956D01*
Y-69006D01*
Y-69018D01*
Y-69143D01*
X289555Y-69243D01*
Y-69318D01*
X289543Y-69368D01*
Y-69405D01*
X289530Y-69430D01*
Y-69443D01*
X289518Y-69530D01*
X289493Y-69592D01*
X289468Y-69630D01*
X289455Y-69643D01*
X289405Y-69668D01*
X289368Y-69680D01*
X289343Y-69692D01*
Y-70329D01*
X288531D01*
Y-69692D01*
X285146D01*
X285071Y-69805D01*
X284984Y-69905D01*
X284896Y-70005D01*
X284809Y-70080D01*
X284609Y-70192D01*
X284422Y-70267D01*
X284247Y-70317D01*
X284097Y-70342D01*
X284047Y-70354D01*
X283972D01*
X283772Y-70342D01*
X283585Y-70292D01*
X283422Y-70230D01*
X283285Y-70155D01*
X283160Y-70092D01*
X283085Y-70030D01*
X283023Y-69980D01*
X283010Y-69967D01*
X282873Y-69817D01*
X282773Y-69655D01*
X282711Y-69493D01*
X282661Y-69330D01*
X282636Y-69193D01*
X282611Y-69093D01*
Y-69018D01*
Y-69006D01*
Y-68993D01*
Y-68831D01*
X279650Y-72028D01*
X279326Y-71766D01*
X283672Y-67070D01*
X283085Y-60874D01*
X281961D01*
Y-59201D01*
X281999D01*
X278389Y-55516D01*
Y-54929D01*
X282586Y-59201D01*
X282935D01*
X282873Y-58402D01*
X282761Y-58464D01*
X282661Y-58489D01*
X282586Y-58501D01*
X282561D01*
X282461Y-58489D01*
X282373Y-58476D01*
X282298Y-58439D01*
X282223Y-58402D01*
X282173Y-58376D01*
X282136Y-58339D01*
X282111Y-58327D01*
X282099Y-58314D01*
X282036Y-58239D01*
X281986Y-58164D01*
X281961Y-58089D01*
X281936Y-58014D01*
X281924Y-57952D01*
X281911Y-57902D01*
Y-57877D01*
Y-57864D01*
X281924Y-57777D01*
X281936Y-57690D01*
X282011Y-57552D01*
X282049Y-57502D01*
X282074Y-57465D01*
X282099Y-57440D01*
X282111Y-57427D01*
X282186Y-57365D01*
X282261Y-57315D01*
X282336Y-57290D01*
X282411Y-57265D01*
X282473Y-57252D01*
X282523Y-57240D01*
X282561D01*
X282686Y-57252D01*
X282786Y-57290D01*
X282873Y-57327D01*
X282948Y-57377D01*
X283010Y-57427D01*
X283048Y-57477D01*
X283073Y-57502D01*
X283085Y-57515D01*
X283173Y-57415D01*
X283285Y-57327D01*
X283510Y-57152D01*
X283622Y-57090D01*
X283710Y-57040D01*
X283760Y-57003D01*
X283785Y-56990D01*
X283984Y-56890D01*
X284209Y-56815D01*
X284459Y-56740D01*
X284697Y-56690D01*
X284909Y-56653D01*
X284996Y-56640D01*
X285084Y-56628D01*
X285146Y-56615D01*
X285196Y-56603D01*
X285246D01*
Y-56391D01*
X287519D01*
Y-56528D01*
X287769Y-56553D01*
X287881Y-56565D01*
X287981Y-56578D01*
X288069Y-56590D01*
X288131D01*
X288181Y-56603D01*
X288194D01*
X288419Y-56640D01*
X288506Y-56653D01*
X288593Y-56665D01*
X288656Y-56678D01*
X288706D01*
X288743Y-56690D01*
X288756D01*
Y-56628D01*
X289605D01*
Y-56953D01*
X289817Y-57065D01*
X289980Y-57178D01*
X290117Y-57277D01*
X290217Y-57365D01*
X290292Y-57452D01*
X290342Y-57515D01*
X290367Y-57552D01*
X290379Y-57565D01*
X290429Y-57665D01*
X290479Y-57740D01*
X290504Y-57802D01*
X290529Y-57852D01*
X290554Y-57877D01*
Y-57902D01*
X290567Y-57914D01*
X291066D01*
Y-58426D01*
X290429D01*
X290292Y-59863D01*
X294951Y-54817D01*
Y-55479D01*
D02*
G37*
G36*
X294376Y-77798D02*
X279863D01*
Y-75638D01*
X294376D01*
Y-77798D01*
D02*
G37*
G36*
X307725Y-56657D02*
X308104Y-56672D01*
X308469Y-56715D01*
X308819Y-56774D01*
X309154Y-56832D01*
X309475Y-56890D01*
X309781Y-56963D01*
X310058Y-57036D01*
X310320Y-57124D01*
X310554Y-57197D01*
X310743Y-57255D01*
X310918Y-57313D01*
X311049Y-57372D01*
X311152Y-57415D01*
X311224Y-57430D01*
X311239Y-57444D01*
X311910Y-57765D01*
X312216Y-57940D01*
X312522Y-58115D01*
X312799Y-58290D01*
X313061Y-58480D01*
X313309Y-58655D01*
X313543Y-58815D01*
X313747Y-58975D01*
X313922Y-59121D01*
X314082Y-59267D01*
X314213Y-59369D01*
X314315Y-59471D01*
X314403Y-59544D01*
X314446Y-59588D01*
X314461Y-59602D01*
X314942Y-60127D01*
X315176Y-60404D01*
X315380Y-60681D01*
X315569Y-60944D01*
X315744Y-61221D01*
X315904Y-61468D01*
X316050Y-61716D01*
X316182Y-61935D01*
X316298Y-62139D01*
X316400Y-62329D01*
X316473Y-62489D01*
X316531Y-62620D01*
X316575Y-62708D01*
X316604Y-62781D01*
X316619Y-62795D01*
X316750Y-63145D01*
X316867Y-63481D01*
X316984Y-63831D01*
X317071Y-64180D01*
X317202Y-64837D01*
X317261Y-65143D01*
X317290Y-65434D01*
X317333Y-65697D01*
X317348Y-65945D01*
X317362Y-66163D01*
X317377Y-66353D01*
X317392Y-66499D01*
Y-66615D01*
Y-66674D01*
Y-66703D01*
X317377Y-67082D01*
X317362Y-67461D01*
X317319Y-67825D01*
X317275Y-68175D01*
X317217Y-68511D01*
X317144Y-68831D01*
X317071Y-69138D01*
X316998Y-69415D01*
X316940Y-69677D01*
X316867Y-69910D01*
X316794Y-70100D01*
X316736Y-70275D01*
X316692Y-70406D01*
X316648Y-70508D01*
X316634Y-70581D01*
X316619Y-70596D01*
X316298Y-71252D01*
X316123Y-71573D01*
X315948Y-71864D01*
X315773Y-72141D01*
X315584Y-72418D01*
X315409Y-72651D01*
X315248Y-72885D01*
X315088Y-73089D01*
X314942Y-73264D01*
X314796Y-73424D01*
X314680Y-73555D01*
X314592Y-73657D01*
X314519Y-73745D01*
X314476Y-73789D01*
X314461Y-73803D01*
X314199Y-74051D01*
X313922Y-74299D01*
X313645Y-74518D01*
X313382Y-74722D01*
X313105Y-74911D01*
X312843Y-75101D01*
X312580Y-75261D01*
X312332Y-75407D01*
X312114Y-75524D01*
X311910Y-75640D01*
X311720Y-75742D01*
X311560Y-75815D01*
X311428Y-75874D01*
X311341Y-75932D01*
X311268Y-75946D01*
X311253Y-75961D01*
X310904Y-76092D01*
X310568Y-76209D01*
X310218Y-76326D01*
X309868Y-76413D01*
X309212Y-76544D01*
X308906Y-76603D01*
X308614Y-76632D01*
X308352Y-76675D01*
X308104Y-76690D01*
X307886Y-76705D01*
X307696Y-76719D01*
X307550Y-76734D01*
X307346D01*
X306967Y-76719D01*
X306588Y-76705D01*
X305873Y-76617D01*
X305524Y-76559D01*
X305203Y-76486D01*
X304897Y-76413D01*
X304620Y-76340D01*
X304357Y-76282D01*
X304138Y-76209D01*
X303934Y-76136D01*
X303759Y-76078D01*
X303628Y-76034D01*
X303526Y-75990D01*
X303453Y-75976D01*
X303439Y-75961D01*
X302768Y-75640D01*
X302462Y-75480D01*
X302156Y-75290D01*
X301879Y-75115D01*
X301616Y-74940D01*
X301368Y-74765D01*
X301135Y-74590D01*
X300931Y-74430D01*
X300756Y-74284D01*
X300595Y-74153D01*
X300464Y-74037D01*
X300362Y-73934D01*
X300289Y-73861D01*
X300246Y-73818D01*
X300231Y-73803D01*
X299750Y-73264D01*
X299531Y-72987D01*
X299327Y-72724D01*
X299137Y-72447D01*
X298963Y-72185D01*
X298802Y-71922D01*
X298656Y-71675D01*
X298525Y-71456D01*
X298409Y-71252D01*
X298306Y-71062D01*
X298234Y-70902D01*
X298175Y-70771D01*
X298117Y-70683D01*
X298102Y-70610D01*
X298088Y-70596D01*
X297942Y-70246D01*
X297825Y-69910D01*
X297709Y-69560D01*
X297621Y-69225D01*
X297475Y-68569D01*
X297432Y-68248D01*
X297388Y-67971D01*
X297359Y-67694D01*
X297330Y-67446D01*
X297315Y-67242D01*
X297301Y-67053D01*
X297286Y-66907D01*
Y-66790D01*
Y-66732D01*
Y-66703D01*
X297301Y-66309D01*
X297315Y-65930D01*
X297359Y-65566D01*
X297417Y-65216D01*
X297475Y-64866D01*
X297534Y-64545D01*
X297607Y-64253D01*
X297679Y-63962D01*
X297767Y-63714D01*
X297840Y-63481D01*
X297898Y-63276D01*
X297957Y-63116D01*
X298015Y-62970D01*
X298059Y-62883D01*
X298073Y-62810D01*
X298088Y-62795D01*
X298409Y-62139D01*
X298584Y-61818D01*
X298759Y-61527D01*
X298933Y-61250D01*
X299108Y-60987D01*
X299283Y-60739D01*
X299458Y-60521D01*
X299619Y-60317D01*
X299764Y-60127D01*
X299896Y-59981D01*
X300012Y-59850D01*
X300100Y-59733D01*
X300173Y-59661D01*
X300217Y-59617D01*
X300231Y-59602D01*
X300756Y-59121D01*
X301033Y-58888D01*
X301295Y-58684D01*
X301572Y-58494D01*
X301835Y-58319D01*
X302097Y-58159D01*
X302331Y-58013D01*
X302564Y-57882D01*
X302768Y-57765D01*
X302958Y-57663D01*
X303118Y-57590D01*
X303249Y-57532D01*
X303337Y-57474D01*
X303410Y-57459D01*
X303424Y-57444D01*
X303774Y-57299D01*
X304124Y-57182D01*
X304474Y-57065D01*
X304809Y-56978D01*
X305145Y-56905D01*
X305465Y-56832D01*
X305786Y-56788D01*
X306078Y-56745D01*
X306340Y-56715D01*
X306588Y-56686D01*
X306807Y-56672D01*
X306996Y-56657D01*
X307142Y-56643D01*
X307346D01*
X307725Y-56657D01*
D02*
G37*
%LPC*%
G36*
X287094Y-56765D02*
X285646D01*
Y-57115D01*
X287094D01*
Y-56765D01*
D02*
G37*
G36*
X287644Y-57003D02*
X287519D01*
Y-57465D01*
X285246D01*
Y-57053D01*
X285034Y-57090D01*
X284834Y-57127D01*
X284659Y-57165D01*
X284522Y-57203D01*
X284409Y-57227D01*
X284322Y-57252D01*
X284272Y-57265D01*
X284259Y-57277D01*
X284122Y-57327D01*
X284010Y-57365D01*
X283910Y-57415D01*
X283835Y-57452D01*
X283772Y-57477D01*
X283722Y-57502D01*
X283697Y-57527D01*
X283685D01*
X283560Y-57615D01*
X283472Y-57690D01*
X283422Y-57740D01*
X283410Y-57765D01*
X283360Y-57827D01*
X283335Y-57877D01*
X283323Y-57902D01*
Y-57914D01*
X288756D01*
Y-57165D01*
X288568Y-57115D01*
X288356Y-57078D01*
X288156Y-57053D01*
X287956Y-57028D01*
X287782Y-57015D01*
X287644Y-57003D01*
D02*
G37*
G36*
X289605Y-57465D02*
Y-57914D01*
X290055D01*
X290042Y-57864D01*
X290005Y-57802D01*
X289980Y-57765D01*
X289967Y-57740D01*
X289917Y-57690D01*
X289867Y-57640D01*
X289742Y-57552D01*
X289692Y-57515D01*
X289643Y-57490D01*
X289617Y-57477D01*
X289605Y-57465D01*
D02*
G37*
G36*
X282373Y-59576D02*
Y-60500D01*
X283035D01*
Y-60263D01*
X282373Y-59576D01*
D02*
G37*
G36*
X289980Y-58426D02*
X283298D01*
X283335Y-59201D01*
X283572D01*
Y-60237D01*
X284721Y-61387D01*
Y-60849D01*
X287569D01*
Y-61786D01*
X285071D01*
X286857Y-63622D01*
X289817Y-60400D01*
X289980Y-58426D01*
D02*
G37*
G36*
X289767Y-61087D02*
X287144Y-63897D01*
X289343Y-66133D01*
X289767Y-61087D01*
D02*
G37*
G36*
X283572Y-60800D02*
Y-60874D01*
X283522D01*
X284022Y-66670D01*
X286607Y-63897D01*
X283572Y-60800D01*
D02*
G37*
G36*
X286882Y-64184D02*
X284072Y-67232D01*
X284109Y-67657D01*
X284309Y-67694D01*
X284484Y-67744D01*
X284634Y-67807D01*
X284759Y-67881D01*
X284871Y-67956D01*
X284946Y-68006D01*
X284996Y-68056D01*
X285009Y-68069D01*
X285121Y-68206D01*
X285209Y-68369D01*
X285271Y-68518D01*
X285309Y-68668D01*
X285333Y-68793D01*
X285358Y-68893D01*
Y-68968D01*
Y-68980D01*
Y-68993D01*
X285346Y-69068D01*
Y-69093D01*
Y-69105D01*
X285333Y-69168D01*
Y-69193D01*
Y-69205D01*
X289093D01*
X289280Y-66670D01*
X286882Y-64184D01*
D02*
G37*
G36*
X284022Y-68244D02*
X283972D01*
X283860Y-68256D01*
X283760Y-68281D01*
X283672Y-68319D01*
X283597Y-68356D01*
X283547Y-68393D01*
X283497Y-68431D01*
X283472Y-68456D01*
X283460Y-68468D01*
X283385Y-68556D01*
X283335Y-68643D01*
X283298Y-68731D01*
X283273Y-68806D01*
X283260Y-68881D01*
X283248Y-68943D01*
Y-68980D01*
Y-68993D01*
X283260Y-69105D01*
X283285Y-69205D01*
X283310Y-69293D01*
X283348Y-69368D01*
X283398Y-69430D01*
X283422Y-69480D01*
X283448Y-69505D01*
X283460Y-69518D01*
X283547Y-69592D01*
X283635Y-69643D01*
X283710Y-69692D01*
X283797Y-69717D01*
X283860Y-69730D01*
X283922Y-69742D01*
X283972D01*
X284085Y-69730D01*
X284184Y-69705D01*
X284284Y-69668D01*
X284359Y-69630D01*
X284422Y-69592D01*
X284472Y-69555D01*
X284497Y-69530D01*
X284509Y-69518D01*
X284584Y-69430D01*
X284634Y-69343D01*
X284671Y-69255D01*
X284697Y-69168D01*
X284709Y-69105D01*
X284721Y-69043D01*
Y-69006D01*
Y-68993D01*
X284709Y-68881D01*
X284684Y-68781D01*
X284647Y-68693D01*
X284609Y-68618D01*
X284572Y-68556D01*
X284534Y-68506D01*
X284509Y-68481D01*
X284497Y-68468D01*
X284409Y-68393D01*
X284309Y-68344D01*
X284222Y-68294D01*
X284147Y-68269D01*
X284072Y-68256D01*
X284022Y-68244D01*
D02*
G37*
%LPD*%
G36*
X284109Y-68568D02*
X284222Y-68606D01*
X284297Y-68656D01*
X284309Y-68668D01*
X284322Y-68681D01*
X284372Y-68731D01*
X284409Y-68781D01*
X284447Y-68881D01*
X284472Y-68956D01*
Y-68980D01*
Y-68993D01*
X284459Y-69055D01*
X284447Y-69130D01*
X284397Y-69230D01*
X284347Y-69305D01*
X284322Y-69318D01*
Y-69330D01*
X284259Y-69380D01*
X284197Y-69418D01*
X284085Y-69455D01*
X284034Y-69468D01*
X284010Y-69480D01*
X283972D01*
X283822Y-69443D01*
X283710Y-69393D01*
X283635Y-69305D01*
X283572Y-69218D01*
X283547Y-69143D01*
X283535Y-69068D01*
X283522Y-69018D01*
Y-68993D01*
Y-68931D01*
X283547Y-68868D01*
X283585Y-68768D01*
X283635Y-68706D01*
X283647Y-68681D01*
X283660D01*
X283710Y-68631D01*
X283760Y-68606D01*
X283860Y-68556D01*
X283935Y-68543D01*
X284034D01*
X284109Y-68568D01*
D02*
G37*
%LPC*%
G36*
X307521Y-58071D02*
X307011D01*
X306690Y-58100D01*
X306063Y-58174D01*
X305771Y-58232D01*
X305494Y-58290D01*
X305232Y-58348D01*
X304999Y-58407D01*
X304780Y-58480D01*
X304576Y-58538D01*
X304401Y-58596D01*
X304255Y-58655D01*
X304138Y-58698D01*
X304051Y-58728D01*
X303993Y-58742D01*
X303978Y-58757D01*
X303410Y-59034D01*
X302885Y-59340D01*
X302637Y-59486D01*
X302418Y-59646D01*
X302199Y-59792D01*
X302010Y-59938D01*
X301835Y-60069D01*
X301689Y-60200D01*
X301558Y-60317D01*
X301441Y-60419D01*
X301354Y-60492D01*
X301295Y-60550D01*
X301252Y-60594D01*
X301237Y-60608D01*
X300829Y-61060D01*
X300464Y-61527D01*
X300144Y-61979D01*
X299881Y-62416D01*
X299779Y-62606D01*
X299677Y-62781D01*
X299589Y-62941D01*
X299531Y-63087D01*
X299473Y-63189D01*
X299429Y-63276D01*
X299415Y-63335D01*
X299400Y-63349D01*
X299283Y-63641D01*
X299167Y-63947D01*
X299006Y-64530D01*
X298875Y-65099D01*
X298831Y-65361D01*
X298802Y-65609D01*
X298773Y-65842D01*
X298744Y-66061D01*
X298729Y-66236D01*
Y-66397D01*
X298715Y-66528D01*
Y-66630D01*
Y-66688D01*
Y-66703D01*
Y-67038D01*
X298744Y-67359D01*
X298817Y-67986D01*
X298875Y-68277D01*
X298933Y-68554D01*
X298992Y-68817D01*
X299050Y-69050D01*
X299123Y-69269D01*
X299181Y-69473D01*
X299240Y-69648D01*
X299298Y-69794D01*
X299342Y-69910D01*
X299371Y-69998D01*
X299385Y-70056D01*
X299400Y-70071D01*
X299677Y-70639D01*
X299969Y-71164D01*
X300129Y-71412D01*
X300275Y-71645D01*
X300435Y-71850D01*
X300581Y-72039D01*
X300712Y-72214D01*
X300829Y-72374D01*
X300939Y-72498D01*
X300333Y-73103D01*
X300931Y-73716D01*
X301543Y-73102D01*
X301689Y-73235D01*
X302156Y-73599D01*
X302608Y-73920D01*
X303045Y-74182D01*
X303235Y-74284D01*
X303410Y-74386D01*
X303570Y-74474D01*
X303716Y-74532D01*
X303818Y-74590D01*
X303905Y-74634D01*
X303963Y-74649D01*
X303978Y-74663D01*
X304284Y-74780D01*
X304576Y-74882D01*
X305174Y-75057D01*
X305742Y-75174D01*
X306005Y-75217D01*
X306253Y-75247D01*
X306486Y-75276D01*
X306705Y-75305D01*
X306879Y-75319D01*
X307040D01*
X307171Y-75334D01*
X307346D01*
X307681Y-75319D01*
X308002Y-75305D01*
X308629Y-75232D01*
X308921Y-75174D01*
X309198Y-75115D01*
X309460Y-75057D01*
X309694Y-74999D01*
X309912Y-74940D01*
X310116Y-74882D01*
X310291Y-74824D01*
X310437Y-74765D01*
X310554Y-74722D01*
X310641Y-74693D01*
X310700Y-74663D01*
X310714D01*
X311283Y-74386D01*
X311808Y-74080D01*
X312055Y-73934D01*
X312289Y-73774D01*
X312493Y-73628D01*
X312682Y-73482D01*
X312857Y-73351D01*
X313018Y-73220D01*
X313149Y-73118D01*
X313266Y-73016D01*
X313353Y-72943D01*
X313411Y-72870D01*
X313455Y-72841D01*
X313470Y-72826D01*
X313878Y-72374D01*
X314242Y-71908D01*
X314563Y-71441D01*
X314826Y-71004D01*
X314942Y-70814D01*
X315030Y-70639D01*
X315117Y-70479D01*
X315190Y-70333D01*
X315234Y-70231D01*
X315278Y-70144D01*
X315292Y-70085D01*
X315307Y-70071D01*
X315423Y-69765D01*
X315526Y-69473D01*
X315700Y-68875D01*
X315817Y-68307D01*
X315861Y-68044D01*
X315890Y-67796D01*
X315919Y-67563D01*
X315948Y-67344D01*
X315963Y-67169D01*
Y-67009D01*
X315977Y-66878D01*
Y-66776D01*
Y-66717D01*
Y-66703D01*
X315963Y-66367D01*
X315948Y-66047D01*
X315875Y-65434D01*
X315817Y-65143D01*
X315759Y-64866D01*
X315700Y-64603D01*
X315642Y-64355D01*
X315584Y-64137D01*
X315526Y-63947D01*
X315467Y-63772D01*
X315409Y-63626D01*
X315365Y-63510D01*
X315336Y-63422D01*
X315307Y-63364D01*
Y-63349D01*
X315030Y-62781D01*
X314738Y-62256D01*
X314578Y-62008D01*
X314432Y-61789D01*
X314286Y-61571D01*
X314140Y-61381D01*
X313995Y-61206D01*
X313878Y-61060D01*
X313761Y-60929D01*
X313728Y-60891D01*
X314330Y-60287D01*
X313761Y-59690D01*
X313140Y-60311D01*
X313018Y-60200D01*
X312551Y-59821D01*
X312085Y-59515D01*
X311647Y-59238D01*
X311458Y-59136D01*
X311283Y-59034D01*
X311122Y-58946D01*
X310977Y-58888D01*
X310874Y-58829D01*
X310787Y-58786D01*
X310729Y-58771D01*
X310714Y-58757D01*
X310408Y-58640D01*
X310116Y-58523D01*
X309519Y-58363D01*
X308950Y-58232D01*
X308687Y-58188D01*
X308440Y-58159D01*
X308206Y-58130D01*
X307988Y-58100D01*
X307813Y-58086D01*
X307652D01*
X307521Y-58071D01*
D02*
G37*
%LPD*%
G36*
X313470Y-60608D02*
X313484Y-60623D01*
X313513Y-60667D01*
X313586Y-60725D01*
X313659Y-60812D01*
X313728Y-60891D01*
X312715Y-61906D01*
X311543D01*
X309657Y-63790D01*
X309606Y-63831D01*
X309548Y-63889D01*
X309519Y-63918D01*
X309504Y-63933D01*
X309494Y-63952D01*
X309657Y-63790D01*
X309679Y-63772D01*
X309781Y-63699D01*
X309898Y-63641D01*
X310029Y-63597D01*
X310189Y-63554D01*
X310218Y-63539D01*
X310291Y-63524D01*
X310422Y-63510D01*
X310612Y-63495D01*
X311129D01*
X312715Y-61906D01*
X313674D01*
Y-71193D01*
X312085D01*
Y-67651D01*
X310656D01*
X310466Y-67636D01*
X310306D01*
X310145Y-67621D01*
X310014D01*
X309898Y-67607D01*
X309781Y-67592D01*
X309606Y-67577D01*
X309489Y-67563D01*
X309431Y-67548D01*
X309402D01*
X309227Y-67490D01*
X309067Y-67417D01*
X308921Y-67359D01*
X308804Y-67286D01*
X308702Y-67213D01*
X308629Y-67155D01*
X308585Y-67126D01*
X308571Y-67111D01*
X308425Y-66965D01*
X308294Y-66819D01*
X308177Y-66659D01*
X308095Y-66536D01*
X309362Y-65266D01*
X309373Y-65303D01*
X309402Y-65376D01*
X309431Y-65449D01*
X309446Y-65478D01*
X309460Y-65493D01*
X309548Y-65609D01*
X309635Y-65711D01*
X309723Y-65784D01*
X309795Y-65857D01*
X309868Y-65901D01*
X309927Y-65930D01*
X309956Y-65959D01*
X309970D01*
X310029Y-65988D01*
X310102Y-66003D01*
X310277Y-66032D01*
X310481Y-66061D01*
X310700Y-66076D01*
X310904D01*
X311079Y-66090D01*
X312085D01*
Y-63495D01*
X311129D01*
X309362Y-65266D01*
X309344Y-65201D01*
X309314Y-65070D01*
X309285Y-64939D01*
Y-64778D01*
Y-64764D01*
Y-64705D01*
X309300Y-64618D01*
X309314Y-64501D01*
X309344Y-64385D01*
X309373Y-64239D01*
X309431Y-64078D01*
X309494Y-63952D01*
X307761Y-65684D01*
X307769Y-65726D01*
X307827Y-65974D01*
X307915Y-66207D01*
X307929Y-66236D01*
X307958Y-66294D01*
X308017Y-66397D01*
X308090Y-66528D01*
X308095Y-66536D01*
X306603Y-68032D01*
Y-71193D01*
X305203D01*
Y-70202D01*
X305057Y-70406D01*
X304911Y-70581D01*
X304780Y-70727D01*
X304649Y-70843D01*
X304547Y-70931D01*
X304459Y-71004D01*
X304401Y-71033D01*
X304386Y-71048D01*
X304197Y-71150D01*
X304022Y-71223D01*
X303861Y-71281D01*
X303701Y-71310D01*
X303584Y-71339D01*
X303482Y-71354D01*
X303288D01*
X301543Y-73102D01*
X301237Y-72826D01*
X301222Y-72812D01*
X301179Y-72768D01*
X301120Y-72710D01*
X301047Y-72622D01*
X300945Y-72506D01*
X300939Y-72498D01*
X302405Y-71034D01*
X302228Y-70902D01*
X302039Y-70727D01*
X301879Y-70566D01*
X301835Y-70508D01*
X301791Y-70464D01*
X301777Y-70435D01*
X301762Y-70421D01*
X301631Y-70231D01*
X301529Y-70042D01*
X301427Y-69823D01*
X301354Y-69619D01*
X301222Y-69167D01*
X301135Y-68744D01*
X301106Y-68540D01*
X301091Y-68365D01*
X301062Y-68190D01*
Y-68044D01*
X301047Y-67927D01*
Y-67840D01*
Y-67782D01*
Y-67767D01*
Y-67461D01*
X301077Y-67169D01*
X301106Y-66892D01*
X301150Y-66644D01*
X301208Y-66411D01*
X301266Y-66207D01*
X301325Y-66003D01*
X301383Y-65842D01*
X301456Y-65682D01*
X301514Y-65551D01*
X301572Y-65434D01*
X301631Y-65347D01*
X301675Y-65274D01*
X301704Y-65230D01*
X301718Y-65201D01*
X301733Y-65186D01*
X301864Y-65026D01*
X301995Y-64895D01*
X302126Y-64778D01*
X302272Y-64676D01*
X302418Y-64589D01*
X302549Y-64530D01*
X302826Y-64414D01*
X303060Y-64355D01*
X303162Y-64341D01*
X303249Y-64326D01*
X303322Y-64312D01*
X303599D01*
X303774Y-64341D01*
X303934Y-64385D01*
X304095Y-64443D01*
X304372Y-64589D01*
X304620Y-64764D01*
X304824Y-64939D01*
X304970Y-65099D01*
X305028Y-65157D01*
X305072Y-65201D01*
X305086Y-65230D01*
X305101Y-65245D01*
Y-61906D01*
X306603D01*
Y-66841D01*
X305105Y-68337D01*
X305115Y-68248D01*
X305145Y-68015D01*
Y-67913D01*
X305159Y-67825D01*
Y-67752D01*
Y-67694D01*
Y-67665D01*
Y-67651D01*
X305145Y-67300D01*
X305086Y-67009D01*
X305028Y-66761D01*
X304940Y-66542D01*
X304868Y-66382D01*
X304795Y-66265D01*
X304751Y-66207D01*
X304736Y-66178D01*
X304620Y-66018D01*
X304488Y-65901D01*
X304328Y-65828D01*
X304182Y-65770D01*
X304051Y-65741D01*
X303934Y-65711D01*
X303832D01*
X303628Y-65726D01*
X303453Y-65784D01*
X303307Y-65857D01*
X303176Y-65945D01*
X303089Y-66032D01*
X303016Y-66105D01*
X302972Y-66163D01*
X302958Y-66178D01*
X302885Y-66280D01*
X302826Y-66397D01*
X302739Y-66644D01*
X302666Y-66922D01*
X302622Y-67198D01*
X302593Y-67461D01*
Y-67563D01*
X302578Y-67665D01*
Y-67738D01*
Y-67796D01*
Y-67840D01*
Y-67855D01*
X302593Y-68059D01*
X302608Y-68248D01*
X302622Y-68423D01*
X302651Y-68584D01*
X302680Y-68729D01*
X302710Y-68861D01*
X302783Y-69079D01*
X302841Y-69240D01*
X302899Y-69356D01*
X302943Y-69429D01*
X302958Y-69444D01*
X303103Y-69604D01*
X303235Y-69721D01*
X303380Y-69808D01*
X303512Y-69867D01*
X303561Y-69879D01*
X305105Y-68337D01*
X305086Y-68496D01*
X305028Y-68758D01*
X304955Y-69021D01*
X304853Y-69240D01*
Y-69254D01*
X304838Y-69269D01*
X304780Y-69356D01*
X304707Y-69473D01*
X304591Y-69604D01*
X304445Y-69735D01*
X304255Y-69837D01*
X304036Y-69910D01*
X303920Y-69925D01*
X303774D01*
X303716Y-69910D01*
X303628Y-69896D01*
X303561Y-69879D01*
X302405Y-71034D01*
X302462Y-71077D01*
X302739Y-71223D01*
X302899Y-71281D01*
X303060Y-71325D01*
X303220Y-71354D01*
X303288D01*
X306603Y-68032D01*
Y-66841D01*
X307761Y-65684D01*
X307725Y-65493D01*
X307696Y-65259D01*
X307681Y-65055D01*
X307667Y-64895D01*
Y-64837D01*
Y-64793D01*
Y-64764D01*
Y-64749D01*
X307681Y-64370D01*
X307740Y-64020D01*
X307813Y-63714D01*
X307886Y-63451D01*
X307973Y-63233D01*
X308017Y-63145D01*
X308046Y-63072D01*
X308075Y-63014D01*
X308104Y-62970D01*
X308119Y-62956D01*
Y-62941D01*
X308279Y-62708D01*
X308469Y-62504D01*
X308658Y-62358D01*
X308833Y-62227D01*
X308994Y-62139D01*
X309125Y-62081D01*
X309212Y-62052D01*
X309227Y-62037D01*
X309242D01*
X309329Y-62008D01*
X309446Y-61993D01*
X309562Y-61979D01*
X309708Y-61964D01*
X310014Y-61935D01*
X310335Y-61920D01*
X310641Y-61906D01*
X311543D01*
X313140Y-60311D01*
X313470Y-60608D01*
D02*
G37*
D11*
X338671Y-120235D02*
G03*
X338671Y-120235I-3828J0D01*
G01*
Y-134077D02*
G03*
X338671Y-134077I-3828J0D01*
G01*
X328829D02*
G03*
X328829Y-134077I-3828J0D01*
G01*
Y-120235D02*
G03*
X328829Y-120235I-3828J0D01*
G01*
Y-106394D02*
G03*
X328829Y-106394I-3828J0D01*
G01*
X338671D02*
G03*
X338671Y-106394I-3828J0D01*
G01*
X328829Y-92894D02*
G03*
X328829Y-92894I-3828J0D01*
G01*
X338671D02*
G03*
X338671Y-92894I-3828J0D01*
G01*
X328829Y-78894D02*
G03*
X328829Y-78894I-3828J0D01*
G01*
X338671D02*
G03*
X338671Y-78894I-3828J0D01*
G01*
X328829Y-65394D02*
G03*
X328829Y-65394I-3828J0D01*
G01*
X338671D02*
G03*
X338671Y-65394I-3828J0D01*
G01*
X328829Y-51394D02*
G03*
X328829Y-51394I-3828J0D01*
G01*
X338671D02*
G03*
X338671Y-51394I-3828J0D01*
G01*
Y-37894D02*
G03*
X338671Y-37894I-3828J0D01*
G01*
X328829D02*
G03*
X328829Y-37894I-3828J0D01*
G01*
X59242Y-41929D02*
G03*
X59242Y-41929I-3828J0D01*
G01*
X69084D02*
G03*
X69084Y-41929I-3828J0D01*
G01*
X59242Y-55709D02*
G03*
X59242Y-55709I-3828J0D01*
G01*
X69084D02*
G03*
X69084Y-55709I-3828J0D01*
G01*
X59242Y-69488D02*
G03*
X59242Y-69488I-3828J0D01*
G01*
X69084D02*
G03*
X69084Y-69488I-3828J0D01*
G01*
X59242Y-83268D02*
G03*
X59242Y-83268I-3828J0D01*
G01*
X69084D02*
G03*
X69084Y-83268I-3828J0D01*
G01*
X59242Y-97047D02*
G03*
X59242Y-97047I-3828J0D01*
G01*
X69084D02*
G03*
X69084Y-97047I-3828J0D01*
G01*
X59242Y-110827D02*
G03*
X59242Y-110827I-3828J0D01*
G01*
X69084D02*
G03*
X69084Y-110827I-3828J0D01*
G01*
Y-124327D02*
G03*
X69084Y-124327I-3828J0D01*
G01*
X59242D02*
G03*
X59242Y-124327I-3828J0D01*
G01*
X69084Y-138327D02*
G03*
X69084Y-138327I-3828J0D01*
G01*
X59242D02*
G03*
X59242Y-138327I-3828J0D01*
G01*
X69084Y-151827D02*
G03*
X69084Y-151827I-3828J0D01*
G01*
X59242D02*
G03*
X59242Y-151827I-3828J0D01*
G01*
X69084Y-165827D02*
G03*
X69084Y-165827I-3828J0D01*
G01*
X59242D02*
G03*
X59242Y-165827I-3828J0D01*
G01*
X69084Y-179327D02*
G03*
X69084Y-179327I-3828J0D01*
G01*
X59242D02*
G03*
X59242Y-179327I-3828J0D01*
G01*
X69084Y-193327D02*
G03*
X69084Y-193327I-3828J0D01*
G01*
X59242D02*
G03*
X59242Y-193327I-3828J0D01*
G01*
X316339Y-42258D02*
Y-44882D01*
Y-43570D01*
X315683Y-42914D01*
X315027Y-42258D01*
X314371D01*
X311747Y-44882D02*
X310435D01*
X309779Y-44226D01*
Y-42914D01*
X310435Y-42258D01*
X311747D01*
X312403Y-42914D01*
Y-44226D01*
X311747Y-44882D01*
X308467Y-40946D02*
Y-44882D01*
X306499D01*
X305843Y-44226D01*
Y-43570D01*
Y-42914D01*
X306499Y-42258D01*
X308467D01*
X303875Y-44882D02*
X302564D01*
X301907Y-44226D01*
Y-42914D01*
X302564Y-42258D01*
X303875D01*
X304531Y-42914D01*
Y-44226D01*
X303875Y-44882D01*
X297972Y-42258D02*
X299940D01*
X300596Y-42914D01*
Y-44226D01*
X299940Y-44882D01*
X297972D01*
X296004D02*
X294692D01*
X294036Y-44226D01*
Y-42914D01*
X294692Y-42258D01*
X296004D01*
X296660Y-42914D01*
Y-44226D01*
X296004Y-44882D01*
X292724D02*
Y-42258D01*
X290756D01*
X290100Y-42914D01*
Y-44882D01*
X288132Y-41602D02*
Y-42258D01*
X288788D01*
X287476D01*
X288132D01*
Y-44226D01*
X287476Y-44882D01*
X285509Y-42258D02*
Y-44882D01*
Y-43570D01*
X284853Y-42914D01*
X284197Y-42258D01*
X283541D01*
X280917Y-44882D02*
X279605D01*
X278949Y-44226D01*
Y-42914D01*
X279605Y-42258D01*
X280917D01*
X281573Y-42914D01*
Y-44226D01*
X280917Y-44882D01*
X277637D02*
X276325D01*
X276981D01*
Y-40946D01*
X277637D01*
X274357Y-44882D02*
X273045D01*
X273701D01*
Y-40946D01*
X274357D01*
X269110Y-44882D02*
X270422D01*
X271078Y-44226D01*
Y-42914D01*
X270422Y-42258D01*
X269110D01*
X268454Y-42914D01*
Y-43570D01*
X271078D01*
X267142Y-42258D02*
Y-44882D01*
Y-43570D01*
X266486Y-42914D01*
X265830Y-42258D01*
X265174D01*
X316339Y-47639D02*
Y-51575D01*
Y-49607D01*
X313715D01*
Y-47639D01*
Y-51575D01*
X312403Y-47639D02*
Y-51575D01*
X311091Y-50263D01*
X309779Y-51575D01*
Y-47639D01*
X300596Y-48295D02*
X299940Y-47639D01*
X298628D01*
X297972Y-48295D01*
Y-50919D01*
X298628Y-51575D01*
X299940D01*
X300596Y-50919D01*
Y-48295D01*
X296660Y-51575D02*
Y-50919D01*
X296004D01*
Y-51575D01*
X296660D01*
X293380D02*
X292068D01*
X292724D01*
Y-47639D01*
X293380Y-48295D01*
X290100Y-51575D02*
Y-50919D01*
X289444D01*
Y-51575D01*
X290100D01*
X286821Y-48295D02*
X286165Y-47639D01*
X284853D01*
X284197Y-48295D01*
Y-50919D01*
X284853Y-51575D01*
X286165D01*
X286821Y-50919D01*
Y-48295D01*
D20*
X321041Y-140125D02*
X339741D01*
X320768Y-113189D02*
X339469D01*
X320768Y-85630D02*
X339469D01*
X320768Y-58071D02*
X339469D01*
X320768Y-31201D02*
X339469D01*
X60236Y-104331D02*
X70079D01*
X50394D02*
X60236D01*
Y-198031D02*
Y-104331D01*
X50394Y-90551D02*
X60236D01*
X70079D01*
X50394Y-76378D02*
X60236D01*
X70079D01*
X50394Y-62992D02*
X60236D01*
X70079D01*
X50394Y-48819D02*
X60236D01*
X70079D01*
X50394Y-35039D02*
X60236D01*
X70079D01*
X327309Y-121735D02*
Y-118980D01*
X325932D01*
X325473Y-119439D01*
Y-120358D01*
X325932Y-120817D01*
X327309D01*
X326391D02*
X325473Y-121735D01*
X324554Y-118980D02*
X322718Y-121735D01*
Y-118980D02*
X324554Y-121735D01*
X327309Y-107994D02*
Y-105239D01*
X325932D01*
X325473Y-105699D01*
Y-106617D01*
X325932Y-107076D01*
X327309D01*
X326391D02*
X325473Y-107994D01*
X324554D02*
Y-106158D01*
X323636Y-105239D01*
X322718Y-106158D01*
Y-107994D01*
Y-106617D01*
X324554D01*
X327309Y-94254D02*
Y-91499D01*
X325932D01*
X325473Y-91958D01*
Y-92876D01*
X325932Y-93336D01*
X327309D01*
X326391D02*
X325473Y-94254D01*
X324554Y-91499D02*
Y-94254D01*
X323177D01*
X322718Y-93795D01*
Y-93336D01*
X323177Y-92876D01*
X324554D01*
X323177D01*
X322718Y-92417D01*
Y-91958D01*
X323177Y-91499D01*
X324554D01*
X327309Y-77759D02*
X325473D01*
X326391D01*
Y-80514D01*
X324554Y-77759D02*
Y-80514D01*
X323177D01*
X322718Y-80054D01*
Y-79595D01*
X323177Y-79136D01*
X324554D01*
X323177D01*
X322718Y-78677D01*
Y-78218D01*
X323177Y-77759D01*
X324554D01*
X327309Y-66773D02*
Y-64018D01*
X325932D01*
X325473Y-64477D01*
Y-65396D01*
X325932Y-65855D01*
X327309D01*
X326391D02*
X325473Y-66773D01*
X324554D02*
Y-64936D01*
X323636Y-64018D01*
X322718Y-64936D01*
Y-66773D01*
Y-65396D01*
X324554D01*
X325473Y-50737D02*
X325932Y-50278D01*
X326850D01*
X327309Y-50737D01*
Y-52573D01*
X326850Y-53033D01*
X325932D01*
X325473Y-52573D01*
X324554Y-50278D02*
Y-53033D01*
X322718D01*
X325473Y-36996D02*
X325932Y-36537D01*
X326850D01*
X327309Y-36996D01*
Y-38833D01*
X326850Y-39292D01*
X325932D01*
X325473Y-38833D01*
X324554Y-36537D02*
Y-39292D01*
Y-37915D01*
X322718D01*
Y-36537D01*
Y-39292D01*
X337210Y-118880D02*
X335373D01*
X336291D01*
Y-121635D01*
X334454Y-118880D02*
X332618Y-121635D01*
Y-118880D02*
X334454Y-121635D01*
X337210Y-107895D02*
Y-105140D01*
X335832D01*
X335373Y-105599D01*
Y-106517D01*
X335832Y-106976D01*
X337210D01*
X336291D02*
X335373Y-107895D01*
X334454D02*
Y-106058D01*
X333536Y-105140D01*
X332618Y-106058D01*
Y-107895D01*
Y-106517D01*
X334454D01*
X337210Y-94154D02*
Y-91399D01*
X335832D01*
X335373Y-91858D01*
Y-92777D01*
X335832Y-93236D01*
X337210D01*
X336291D02*
X335373Y-94154D01*
X334454Y-91399D02*
Y-94154D01*
X333077D01*
X332618Y-93695D01*
Y-93236D01*
X333077Y-92777D01*
X334454D01*
X333077D01*
X332618Y-92317D01*
Y-91858D01*
X333077Y-91399D01*
X334454D01*
X337210Y-77659D02*
X335373D01*
X336291D01*
Y-80414D01*
X334454D02*
Y-78577D01*
X333536Y-77659D01*
X332618Y-78577D01*
Y-80414D01*
Y-79036D01*
X334454D01*
X337210Y-66673D02*
Y-63918D01*
X335832D01*
X335373Y-64377D01*
Y-65296D01*
X335832Y-65755D01*
X337210D01*
X336291D02*
X335373Y-66673D01*
X334454Y-63918D02*
Y-66673D01*
X333077D01*
X332618Y-66214D01*
Y-65755D01*
X333077Y-65296D01*
X334454D01*
X333077D01*
X332618Y-64836D01*
Y-64377D01*
X333077Y-63918D01*
X334454D01*
X335373Y-50637D02*
X335832Y-50178D01*
X336750D01*
X337210Y-50637D01*
Y-52473D01*
X336750Y-52933D01*
X335832D01*
X335373Y-52473D01*
X334454Y-50178D02*
Y-52933D01*
X332618D01*
X335373Y-36896D02*
X335832Y-36437D01*
X336750D01*
X337210Y-36896D01*
Y-38733D01*
X336750Y-39192D01*
X335832D01*
X335373Y-38733D01*
X334454Y-36437D02*
Y-39192D01*
Y-37815D01*
X332618D01*
Y-36437D01*
Y-39192D01*
X56103Y-43307D02*
Y-40552D01*
X57480Y-41930D01*
X55644D01*
X54725Y-43307D02*
X53807D01*
X54266D01*
Y-40552D01*
X54725Y-41011D01*
X66339Y-43307D02*
Y-40552D01*
X67716Y-41930D01*
X65880D01*
X64961Y-41011D02*
X64502Y-40552D01*
X63584D01*
X63125Y-41011D01*
Y-42848D01*
X63584Y-43307D01*
X64502D01*
X64961Y-42848D01*
Y-41011D01*
X57480Y-54791D02*
X57021Y-54332D01*
X56103D01*
X55644Y-54791D01*
Y-55250D01*
X56103Y-55709D01*
X56562D01*
X56103D01*
X55644Y-56168D01*
Y-56627D01*
X56103Y-57087D01*
X57021D01*
X57480Y-56627D01*
X54725Y-57087D02*
X53807D01*
X54266D01*
Y-54332D01*
X54725Y-54791D01*
X67716D02*
X67257Y-54332D01*
X66339D01*
X65880Y-54791D01*
Y-55250D01*
X66339Y-55709D01*
X66798D01*
X66339D01*
X65880Y-56168D01*
Y-56627D01*
X66339Y-57087D01*
X67257D01*
X67716Y-56627D01*
X64961Y-54791D02*
X64502Y-54332D01*
X63584D01*
X63125Y-54791D01*
Y-56627D01*
X63584Y-57087D01*
X64502D01*
X64961Y-56627D01*
Y-54791D01*
X55644Y-70866D02*
X57480D01*
X55644Y-69029D01*
Y-68570D01*
X56103Y-68111D01*
X57021D01*
X57480Y-68570D01*
X54725Y-70866D02*
X53807D01*
X54266D01*
Y-68111D01*
X54725Y-68570D01*
X65486Y-70866D02*
X67323D01*
X65486Y-69029D01*
Y-68570D01*
X65945Y-68111D01*
X66864D01*
X67323Y-68570D01*
X64568D02*
X64109Y-68111D01*
X63190D01*
X62731Y-68570D01*
Y-70407D01*
X63190Y-70866D01*
X64109D01*
X64568Y-70407D01*
Y-68570D01*
X57087Y-84646D02*
X56168D01*
X56627D01*
Y-81891D01*
X57087Y-82350D01*
X54791Y-84646D02*
X53872D01*
X54332D01*
Y-81891D01*
X54791Y-82350D01*
X67323Y-84646D02*
X66404D01*
X66864D01*
Y-81891D01*
X67323Y-82350D01*
X65027D02*
X64568Y-81891D01*
X63649D01*
X63190Y-82350D01*
Y-84187D01*
X63649Y-84646D01*
X64568D01*
X65027Y-84187D01*
Y-82350D01*
X57480Y-96129D02*
X57021Y-95670D01*
X56103D01*
X55644Y-96129D01*
Y-97966D01*
X56103Y-98425D01*
X57021D01*
X57480Y-97966D01*
Y-96129D01*
X54725Y-98425D02*
X53807D01*
X54266D01*
Y-95670D01*
X54725Y-96129D01*
X67323D02*
X66864Y-95670D01*
X65945D01*
X65486Y-96129D01*
Y-97966D01*
X65945Y-98425D01*
X66864D01*
X67323Y-97966D01*
Y-96129D01*
X64568D02*
X64109Y-95670D01*
X63190D01*
X62731Y-96129D01*
Y-97966D01*
X63190Y-98425D01*
X64109D01*
X64568Y-97966D01*
Y-96129D01*
X66245Y-109370D02*
X67164D01*
X67623Y-109829D01*
Y-111666D01*
X67164Y-112125D01*
X66245D01*
X65786Y-111666D01*
Y-109829D01*
X66245Y-109370D01*
X63031Y-109829D02*
X63490Y-109370D01*
X64409D01*
X64868Y-109829D01*
Y-111666D01*
X64409Y-112125D01*
X63490D01*
X63031Y-111666D01*
X57623Y-109470D02*
X56704D01*
X57164D01*
Y-112225D01*
X57623D01*
X56704D01*
X53490Y-109929D02*
X53949Y-109470D01*
X54868D01*
X55327Y-109929D01*
Y-111766D01*
X54868Y-112225D01*
X53949D01*
X53490Y-111766D01*
X66245Y-122770D02*
X67164D01*
X67623Y-123229D01*
Y-125066D01*
X67164Y-125525D01*
X66245D01*
X65786Y-125066D01*
Y-123229D01*
X66245Y-122770D01*
X63490Y-125525D02*
Y-122770D01*
X64868Y-124148D01*
X63031D01*
X57723Y-122870D02*
X56805D01*
X57264D01*
Y-125625D01*
X57723D01*
X56805D01*
X54049D02*
Y-122870D01*
X55427Y-124248D01*
X53590D01*
X57623Y-136970D02*
X56704D01*
X57164D01*
Y-139725D01*
X57623D01*
X56704D01*
X55327Y-137429D02*
X54868Y-136970D01*
X53949D01*
X53490Y-137429D01*
Y-137889D01*
X53949Y-138348D01*
X54409D01*
X53949D01*
X53490Y-138807D01*
Y-139266D01*
X53949Y-139725D01*
X54868D01*
X55327Y-139266D01*
X66145Y-136970D02*
X67064D01*
X67523Y-137429D01*
Y-139266D01*
X67064Y-139725D01*
X66145D01*
X65686Y-139266D01*
Y-137429D01*
X66145Y-136970D01*
X64768Y-137429D02*
X64309Y-136970D01*
X63390D01*
X62931Y-137429D01*
Y-137889D01*
X63390Y-138348D01*
X63850D01*
X63390D01*
X62931Y-138807D01*
Y-139266D01*
X63390Y-139725D01*
X64309D01*
X64768Y-139266D01*
X66145Y-150270D02*
X67064D01*
X67523Y-150729D01*
Y-152566D01*
X67064Y-153025D01*
X66145D01*
X65686Y-152566D01*
Y-150729D01*
X66145Y-150270D01*
X62931Y-153025D02*
X64768D01*
X62931Y-151189D01*
Y-150729D01*
X63390Y-150270D01*
X64309D01*
X64768Y-150729D01*
X57523Y-150370D02*
X56604D01*
X57064D01*
Y-153125D01*
X57523D01*
X56604D01*
X53390D02*
X55227D01*
X53390Y-151288D01*
Y-150829D01*
X53850Y-150370D01*
X54768D01*
X55227Y-150829D01*
X65623Y-164245D02*
X66541D01*
X67000Y-164704D01*
Y-166541D01*
X66541Y-167000D01*
X65623D01*
X65163Y-166541D01*
Y-164704D01*
X65623Y-164245D01*
X64245Y-167000D02*
X63327D01*
X63786D01*
Y-164245D01*
X64245Y-164704D01*
X57100Y-164445D02*
X56182D01*
X56641D01*
Y-167200D01*
X57100D01*
X56182D01*
X54804D02*
X53886D01*
X54345D01*
Y-164445D01*
X54804Y-164904D01*
X66245Y-177870D02*
X67164D01*
X67623Y-178329D01*
Y-180166D01*
X67164Y-180625D01*
X66245D01*
X65786Y-180166D01*
Y-178329D01*
X66245Y-177870D01*
X64868Y-178329D02*
X64409Y-177870D01*
X63490D01*
X63031Y-178329D01*
Y-180166D01*
X63490Y-180625D01*
X64409D01*
X64868Y-180166D01*
Y-178329D01*
X57623Y-177970D02*
X56704D01*
X57164D01*
Y-180725D01*
X57623D01*
X56704D01*
X55327Y-178429D02*
X54868Y-177970D01*
X53949D01*
X53490Y-178429D01*
Y-180266D01*
X53949Y-180725D01*
X54868D01*
X55327Y-180266D01*
Y-178429D01*
X68110Y-204331D02*
X67192D01*
X67651D01*
Y-201576D01*
X68110Y-202035D01*
X63978Y-204331D02*
X65814D01*
X63978Y-202494D01*
Y-202035D01*
X64437Y-201576D01*
X65355D01*
X65814Y-202035D01*
X63059Y-202953D02*
X61223D01*
X58468Y-204331D02*
X60304D01*
X58468Y-202494D01*
Y-202035D01*
X58927Y-201576D01*
X59845D01*
X60304Y-202035D01*
X56172Y-204331D02*
Y-201576D01*
X57549Y-202953D01*
X55713D01*
X54794Y-201576D02*
Y-203412D01*
X53876Y-204331D01*
X52958Y-203412D01*
Y-201576D01*
D21*
X187008Y-5906D02*
D03*
Y-230315D02*
D03*
D128*
X298085Y-39002D02*
X302285D01*
X297785Y-38902D02*
X302585D01*
X297585Y-38802D02*
X302785D01*
X297385Y-38702D02*
X302985D01*
X297285Y-38602D02*
X303085D01*
X297185Y-38502D02*
X303185D01*
X297085Y-38402D02*
X303285D01*
X296985Y-38302D02*
X303385D01*
X296885Y-38202D02*
X303485D01*
X296885Y-38102D02*
X303485D01*
X296785Y-38002D02*
X303585D01*
X296685Y-37802D02*
X303685D01*
X296685Y-37702D02*
X303685D01*
X296585Y-37602D02*
X303785D01*
X296585Y-37502D02*
X303785D01*
X296785Y-37902D02*
X303685D01*
X296585Y-37302D02*
X303885D01*
X296585Y-37402D02*
X303885D01*
X296585Y-37202D02*
X303985D01*
X296585Y-37102D02*
X303985D01*
X296585Y-37002D02*
X304085D01*
X296585Y-36902D02*
X304085D01*
X296585Y-36802D02*
X304185D01*
X296585Y-36702D02*
X304185D01*
X296585Y-36602D02*
X304285D01*
X296585Y-36502D02*
X304285D01*
X296585Y-36402D02*
X304385D01*
X296685Y-36302D02*
X304385D01*
X296685Y-36202D02*
X304485D01*
X296685Y-36102D02*
X304485D01*
X296785Y-36002D02*
X304585D01*
X296785Y-35902D02*
X304585D01*
X296885Y-35802D02*
X304685D01*
X295885Y-24802D02*
X303285D01*
X295885Y-25502D02*
X303285D01*
X295885Y-25002D02*
X303285D01*
X295885Y-25602D02*
X303285D01*
X295885Y-25702D02*
X303285D01*
X295885Y-24502D02*
X303285D01*
X295885Y-24402D02*
X303285D01*
X295885Y-24902D02*
X303285D01*
X295885Y-24602D02*
X303285D01*
X295885Y-24702D02*
X303285D01*
X295885Y-25402D02*
X303285D01*
X295885Y-25302D02*
X303285D01*
X295885Y-26502D02*
X303285D01*
X295885Y-26402D02*
X303285D01*
X295885Y-26302D02*
X303285D01*
X295885Y-26202D02*
X303285D01*
X295885Y-26102D02*
X303285D01*
X295885Y-26002D02*
X303285D01*
X295885Y-24302D02*
X303285D01*
X295885Y-25902D02*
X303285D01*
X295885Y-25802D02*
X303285D01*
X295885Y-25202D02*
X303285D01*
X295885Y-25102D02*
X303285D01*
X295885Y-24202D02*
X303285D01*
X295885Y-24102D02*
X303285D01*
X295885Y-26702D02*
X303385D01*
X295885Y-26602D02*
X303385D01*
X295885Y-26802D02*
X303385D01*
X295885Y-26902D02*
X303385D01*
X295885Y-27102D02*
X303485D01*
X295885Y-24002D02*
X303285D01*
X295885Y-23902D02*
X303285D01*
X295885Y-23802D02*
X303285D01*
X295885Y-23702D02*
X303285D01*
X295885Y-23602D02*
X303285D01*
X295885Y-23502D02*
X303285D01*
X295885Y-23402D02*
X303285D01*
X295885Y-23302D02*
X303285D01*
X295885Y-23202D02*
X303285D01*
X295885Y-23102D02*
X303285D01*
X295885Y-23002D02*
X303285D01*
X295885Y-22902D02*
X303285D01*
X295885Y-22802D02*
X303285D01*
X295885Y-22702D02*
X303285D01*
X295885Y-22602D02*
X303285D01*
X295885Y-22502D02*
X303285D01*
X295885Y-22402D02*
X303285D01*
X295885Y-22302D02*
X303285D01*
X295885Y-22202D02*
X303285D01*
X295885Y-22102D02*
X303285D01*
X295985Y-22002D02*
X303285D01*
X295985Y-21902D02*
X303285D01*
X295985Y-21802D02*
X303285D01*
X295985Y-21702D02*
X303285D01*
X295985Y-21602D02*
X303285D01*
X296085Y-21502D02*
X303285D01*
X296985Y-35602D02*
X304685D01*
X296985Y-35702D02*
X304685D01*
X297085Y-35502D02*
X304785D01*
X297085Y-35402D02*
X304785D01*
X297185Y-35202D02*
X304885D01*
X297185Y-35302D02*
X304885D01*
X297285Y-35002D02*
X304985D01*
X297285Y-35102D02*
X304985D01*
X297385Y-34802D02*
X305085D01*
X297385Y-34902D02*
X305085D01*
X297485Y-34702D02*
X305185D01*
X297585Y-34602D02*
X305185D01*
X297585Y-34502D02*
X305285D01*
X297685Y-34402D02*
X305285D01*
X297685Y-34302D02*
X305385D01*
X297785Y-34202D02*
X305385D01*
X297785Y-34102D02*
X305485D01*
X297885Y-34002D02*
X305485D01*
X297885Y-33902D02*
X305585D01*
X297985Y-33802D02*
X305585D01*
X297985Y-33702D02*
X305685D01*
X298085Y-33602D02*
X305685D01*
X298085Y-33502D02*
X305785D01*
X298185Y-33402D02*
X305785D01*
X298285Y-33302D02*
X305885D01*
X298285Y-33202D02*
X305985D01*
X298385Y-33102D02*
X305985D01*
X298385Y-33002D02*
X306085D01*
X298485Y-32902D02*
X306285D01*
X298485Y-32802D02*
X306385D01*
X298585Y-32702D02*
X306585D01*
X298585Y-32602D02*
X306785D01*
X295885Y-27002D02*
X303485D01*
X295885Y-27302D02*
X303585D01*
X295885Y-27202D02*
X303585D01*
X295985Y-27402D02*
X303685D01*
X295985Y-27502D02*
X303785D01*
X295985Y-27602D02*
X303885D01*
X295985Y-27702D02*
X303985D01*
X295985Y-27802D02*
X304085D01*
X296085Y-27902D02*
X304285D01*
X296085Y-28002D02*
X304585D01*
X296085Y-21402D02*
X304685D01*
X296185Y-21302D02*
X304685D01*
X296185Y-21202D02*
X304685D01*
X296285Y-21102D02*
X304685D01*
X296385Y-21002D02*
X304685D01*
X296385Y-20902D02*
X304685D01*
X296485Y-20802D02*
X304685D01*
X296585Y-20702D02*
X304785D01*
X296685Y-20602D02*
X304785D01*
X296785Y-20502D02*
X304885D01*
X298685Y-32502D02*
X307085D01*
X305485Y-20602D02*
X306185D01*
X305385Y-20502D02*
X306285D01*
X305585Y-20702D02*
X306185D01*
X305685Y-21002D02*
X306085D01*
X305685Y-21102D02*
X306085D01*
X305685Y-21202D02*
X306085D01*
X305685Y-21302D02*
X306085D01*
X305685Y-21402D02*
X306085D01*
X305685Y-20902D02*
X306085D01*
X305685Y-20802D02*
X306085D01*
X296085Y-28102D02*
X317285D01*
X309885Y-37602D02*
X317185D01*
X309885Y-37502D02*
X317185D01*
X310085Y-38002D02*
X316985D01*
X309985Y-37902D02*
X317085D01*
X309985Y-37802D02*
X317085D01*
X309985Y-37702D02*
X317085D01*
X310185Y-38202D02*
X316885D01*
X310585Y-38602D02*
X316485D01*
X310685Y-38702D02*
X316385D01*
X311085Y-38902D02*
X315985D01*
X311385Y-39002D02*
X315685D01*
X309885Y-37402D02*
X317185D01*
X310885Y-38802D02*
X316185D01*
X309885Y-37302D02*
X317185D01*
X310485Y-38502D02*
X316585D01*
X310385Y-38402D02*
X316685D01*
X310285Y-38302D02*
X316785D01*
X310185Y-38102D02*
X316985D01*
X309885Y-37202D02*
X317285D01*
X309885Y-37102D02*
X317285D01*
X309885Y-37002D02*
X317285D01*
X309885Y-36902D02*
X317285D01*
X309885Y-36802D02*
X317285D01*
X309885Y-36702D02*
X317285D01*
X309885Y-36602D02*
X317285D01*
X309885Y-36502D02*
X317285D01*
X309885Y-36402D02*
X317285D01*
X309885Y-36302D02*
X317285D01*
X309885Y-36202D02*
X317285D01*
X309885Y-36102D02*
X317285D01*
X309885Y-36002D02*
X317285D01*
X309885Y-35902D02*
X317285D01*
X309885Y-35802D02*
X317285D01*
X309885Y-35702D02*
X317285D01*
X309885Y-35602D02*
X317285D01*
X309885Y-35502D02*
X317285D01*
X309885Y-35402D02*
X317285D01*
X309885Y-35302D02*
X317285D01*
X309885Y-35202D02*
X317285D01*
X309885Y-35102D02*
X317285D01*
X309885Y-35002D02*
X317285D01*
X309885Y-34902D02*
X317285D01*
X309885Y-34802D02*
X317285D01*
X309885Y-34702D02*
X317285D01*
X309885Y-34602D02*
X317285D01*
X309885Y-34502D02*
X317285D01*
X309785Y-34302D02*
X317285D01*
X298685Y-32402D02*
X317285D01*
X298785Y-32102D02*
X317285D01*
X298685Y-31102D02*
X317285D01*
X298685Y-31002D02*
X317285D01*
X298585Y-30902D02*
X317285D01*
X298585Y-30802D02*
X317285D01*
X298485Y-30702D02*
X317285D01*
X298485Y-30602D02*
X317285D01*
X298385Y-30502D02*
X317285D01*
X298285Y-30402D02*
X317285D01*
X298185Y-30302D02*
X317285D01*
X298085Y-30202D02*
X317285D01*
X297985Y-30102D02*
X317285D01*
X297885Y-30002D02*
X317285D01*
X297785Y-29902D02*
X317285D01*
X297685Y-29802D02*
X317285D01*
X297585Y-29702D02*
X317285D01*
X297485Y-29602D02*
X317285D01*
X297385Y-29502D02*
X317285D01*
X297285Y-29402D02*
X317285D01*
X297185Y-29302D02*
X317285D01*
X297085Y-29202D02*
X317285D01*
X296985Y-29102D02*
X317285D01*
X296885Y-29002D02*
X317285D01*
X296785Y-28902D02*
X317285D01*
X296685Y-28802D02*
X317285D01*
X296585Y-28702D02*
X317285D01*
X296485Y-28602D02*
X317285D01*
X296385Y-28502D02*
X317285D01*
X296285Y-28402D02*
X317285D01*
X296285Y-28302D02*
X317285D01*
X296185Y-28202D02*
X317285D01*
X309785Y-34202D02*
X317285D01*
X309785Y-34102D02*
X317285D01*
X309785Y-34002D02*
X317285D01*
X309785Y-33902D02*
X317285D01*
X309685Y-33802D02*
X317285D01*
X309685Y-33702D02*
X317285D01*
X309685Y-33602D02*
X317285D01*
X309585Y-33502D02*
X317285D01*
X309485Y-33402D02*
X317285D01*
X309485Y-33302D02*
X317285D01*
X309385Y-33202D02*
X317285D01*
X309285Y-33102D02*
X317285D01*
X309185Y-33002D02*
X317285D01*
X309085Y-32902D02*
X317285D01*
X308985Y-32802D02*
X317285D01*
X308785Y-32702D02*
X317285D01*
X308585Y-32602D02*
X317285D01*
X308185Y-32502D02*
X317285D01*
X298785Y-32302D02*
X317285D01*
X298785Y-32202D02*
X317285D01*
X298785Y-32002D02*
X317285D01*
X298785Y-31902D02*
X317285D01*
X298785Y-31802D02*
X317285D01*
X298785Y-31702D02*
X317285D01*
X298785Y-31602D02*
X317285D01*
X298785Y-31502D02*
X317285D01*
X298785Y-31402D02*
X317285D01*
X298785Y-31302D02*
X317285D01*
X298785Y-31202D02*
X317285D01*
X309885Y-22702D02*
X317285D01*
X309885Y-22602D02*
X317285D01*
X309885Y-22502D02*
X317285D01*
X309885Y-27702D02*
X317285D01*
X309885Y-34402D02*
X317285D01*
X309885Y-28002D02*
X317285D01*
X309885Y-27902D02*
X317285D01*
X309885Y-27802D02*
X317285D01*
X309885Y-27602D02*
X317285D01*
X309885Y-27502D02*
X317285D01*
X309885Y-27402D02*
X317285D01*
X309885Y-27302D02*
X317285D01*
X309885Y-27202D02*
X317285D01*
X309885Y-27102D02*
X317285D01*
X309885Y-27002D02*
X317285D01*
X309885Y-26902D02*
X317285D01*
X309885Y-26802D02*
X317285D01*
X309885Y-26702D02*
X317285D01*
X310685Y-26602D02*
X317285D01*
X310785Y-25902D02*
X317285D01*
X310685Y-25802D02*
X317285D01*
X309885Y-25702D02*
X317285D01*
X309885Y-25602D02*
X317285D01*
X309885Y-25502D02*
X317285D01*
X309885Y-25402D02*
X317285D01*
X309885Y-25302D02*
X317285D01*
X310685Y-25202D02*
X317285D01*
X310785Y-25102D02*
X317285D01*
X310785Y-24502D02*
X317285D01*
X310685Y-24402D02*
X317285D01*
X309885Y-24302D02*
X317285D01*
X309885Y-24202D02*
X317285D01*
X309885Y-24102D02*
X317285D01*
X309885Y-24002D02*
X317285D01*
X309885Y-23902D02*
X317285D01*
X310685Y-23802D02*
X317285D01*
X310685Y-23002D02*
X317285D01*
X309885Y-22902D02*
X317285D01*
X309885Y-22802D02*
X317285D01*
X309885Y-22402D02*
X317285D01*
X310785Y-26502D02*
X317285D01*
X310885Y-26402D02*
X317285D01*
X310885Y-26302D02*
X317285D01*
X310885Y-26202D02*
X317285D01*
X310885Y-26102D02*
X317285D01*
X310885Y-26002D02*
X317285D01*
X310885Y-25002D02*
X317285D01*
X310885Y-24902D02*
X317285D01*
X310885Y-24802D02*
X317285D01*
X310885Y-24702D02*
X317285D01*
X310885Y-24602D02*
X317285D01*
X310785Y-23702D02*
X317285D01*
X310885Y-23602D02*
X317285D01*
X310885Y-23502D02*
X317285D01*
X310885Y-23402D02*
X317285D01*
X310885Y-23302D02*
X317285D01*
X310885Y-23202D02*
X317285D01*
X310785Y-23102D02*
X317285D01*
X307085Y-21402D02*
X307485D01*
X307085Y-21302D02*
X307485D01*
X307085Y-21202D02*
X307485D01*
X307085Y-21102D02*
X307485D01*
X307085Y-21002D02*
X307485D01*
X307085Y-20902D02*
X307485D01*
X306985Y-20802D02*
X307485D01*
X306985Y-20702D02*
X307485D01*
X306885Y-20602D02*
X307585D01*
X306785Y-20502D02*
X307685D01*
X296885Y-20402D02*
X317285D01*
X296985Y-20302D02*
X317285D01*
X297085Y-20202D02*
X317285D01*
X297185Y-20102D02*
X317285D01*
X297285Y-20002D02*
X317285D01*
X297385Y-19902D02*
X317285D01*
X297485Y-19802D02*
X317285D01*
X297585Y-19702D02*
X317285D01*
X297685Y-19602D02*
X317285D01*
X297785Y-19502D02*
X317285D01*
X297885Y-19402D02*
X317285D01*
X297985Y-19302D02*
X317285D01*
X298085Y-19202D02*
X317285D01*
X298185Y-19102D02*
X317285D01*
X298285Y-19002D02*
X317285D01*
X298385Y-18902D02*
X317285D01*
X298485Y-18802D02*
X317285D01*
X298585Y-18702D02*
X317185D01*
X298685Y-18602D02*
X317185D01*
X298785Y-18502D02*
X317185D01*
X298885Y-18402D02*
X317185D01*
X298985Y-18302D02*
X317085D01*
X309885Y-22302D02*
X317285D01*
X309885Y-22202D02*
X317285D01*
X309885Y-22102D02*
X317285D01*
X309885Y-22002D02*
X317285D01*
X309885Y-21902D02*
X317285D01*
X309885Y-21802D02*
X317285D01*
X309885Y-21702D02*
X317285D01*
X309885Y-21602D02*
X317285D01*
X309885Y-21502D02*
X317285D01*
X308485Y-21402D02*
X317285D01*
X308485Y-21302D02*
X317285D01*
X308485Y-21202D02*
X317285D01*
X308485Y-21102D02*
X317285D01*
X308485Y-21002D02*
X317285D01*
X308485Y-20902D02*
X317285D01*
X308385Y-20802D02*
X317285D01*
X308385Y-20702D02*
X317285D01*
X308285Y-20602D02*
X317285D01*
X308185Y-20502D02*
X317285D01*
X299085Y-18202D02*
X317085D01*
X299185Y-18102D02*
X316985D01*
X299285Y-18002D02*
X316985D01*
X299385Y-17902D02*
X316885D01*
X299485Y-17802D02*
X316885D01*
X299585Y-17702D02*
X316785D01*
X299685Y-17602D02*
X316685D01*
X299785Y-17502D02*
X316585D01*
X299985Y-17402D02*
X316485D01*
X300085Y-17302D02*
X316285D01*
X300285Y-17202D02*
X316085D01*
X300485Y-17102D02*
X315885D01*
X301085Y-17002D02*
X315285D01*
D129*
X326149Y-133399D02*
X326477Y-133071D01*
X327133D01*
X327461Y-133399D01*
Y-134711D01*
X327133Y-135039D01*
X326477D01*
X326149Y-134711D01*
Y-134055D01*
X326805D01*
X325493Y-135039D02*
Y-133071D01*
X324181Y-135039D01*
Y-133071D01*
X323525D02*
Y-135039D01*
X322541D01*
X322213Y-134711D01*
Y-133399D01*
X322541Y-133071D01*
X323525D01*
X336188Y-133498D02*
X336516Y-133170D01*
X337172D01*
X337500Y-133498D01*
Y-134810D01*
X337172Y-135138D01*
X336516D01*
X336188Y-134810D01*
Y-134154D01*
X336844D01*
X335532Y-135138D02*
Y-133170D01*
X334220Y-135138D01*
Y-133170D01*
X333564D02*
Y-135138D01*
X332580D01*
X332252Y-134810D01*
Y-133498D01*
X332580Y-133170D01*
X333564D01*
X57800Y-192532D02*
Y-193844D01*
X57144Y-194500D01*
X56488Y-193844D01*
Y-192532D01*
X54520Y-192860D02*
X54848Y-192532D01*
X55504D01*
X55832Y-192860D01*
Y-194172D01*
X55504Y-194500D01*
X54848D01*
X54520Y-194172D01*
X52552Y-192860D02*
X52880Y-192532D01*
X53536D01*
X53864Y-192860D01*
Y-194172D01*
X53536Y-194500D01*
X52880D01*
X52552Y-194172D01*
X66488Y-192760D02*
X66816Y-192432D01*
X67472D01*
X67800Y-192760D01*
Y-194072D01*
X67472Y-194400D01*
X66816D01*
X66488Y-194072D01*
Y-193416D01*
X67144D01*
X65832Y-194400D02*
Y-192432D01*
X64520Y-194400D01*
Y-192432D01*
X63864D02*
Y-194400D01*
X62880D01*
X62552Y-194072D01*
Y-192760D01*
X62880Y-192432D01*
X63864D01*
M02*
