G04*
G04 #@! TF.GenerationSoftware,Altium Limited,Altium Designer,22.8.2 (66)*
G04*
G04 Layer_Color=32896*
%FSLAX25Y25*%
%MOIN*%
G70*
G04*
G04 #@! TF.SameCoordinates,809C7C0D-4B7E-4495-91C7-DCE54D4B07AE*
G04*
G04*
G04 #@! TF.FilePolarity,Positive*
G04*
G01*
G75*
%ADD10C,0.01000*%
%ADD20C,0.00709*%
%ADD21R,3.74016X0.11811*%
%ADD124C,0.00100*%
%ADD125C,0.00472*%
G36*
X308103Y-56669D02*
X308838Y-56774D01*
X309493Y-56905D01*
X310071Y-57036D01*
X310333Y-57115D01*
X310569Y-57194D01*
X310753Y-57272D01*
X310937Y-57325D01*
X311068Y-57377D01*
X311173Y-57430D01*
X311225Y-57456D01*
X311251D01*
X311908Y-57771D01*
X312537Y-58112D01*
X313088Y-58479D01*
X313561Y-58821D01*
X313954Y-59136D01*
X314112Y-59267D01*
X314243Y-59372D01*
X314348Y-59477D01*
X314427Y-59555D01*
X314453Y-59582D01*
X314479Y-59608D01*
X314951Y-60133D01*
X315398Y-60684D01*
X315765Y-61208D01*
X316054Y-61707D01*
X316316Y-62153D01*
X316395Y-62337D01*
X316473Y-62494D01*
X316552Y-62625D01*
X316604Y-62730D01*
X316631Y-62783D01*
Y-62809D01*
X316893Y-63491D01*
X317077Y-64174D01*
X317208Y-64830D01*
X317287Y-65433D01*
X317339Y-65696D01*
Y-65932D01*
X317366Y-66168D01*
X317392Y-66351D01*
Y-66483D01*
Y-66588D01*
Y-66666D01*
Y-66693D01*
X317366Y-67454D01*
X317261Y-68188D01*
X317156Y-68844D01*
X316998Y-69422D01*
X316946Y-69684D01*
X316867Y-69920D01*
X316814Y-70104D01*
X316736Y-70288D01*
X316709Y-70419D01*
X316657Y-70524D01*
X316631Y-70576D01*
Y-70602D01*
X316316Y-71258D01*
X315949Y-71888D01*
X315607Y-72439D01*
X315266Y-72912D01*
X314951Y-73305D01*
X314820Y-73462D01*
X314715Y-73594D01*
X314610Y-73699D01*
X314531Y-73777D01*
X314505Y-73804D01*
X314479Y-73830D01*
X313954Y-74302D01*
X313403Y-74748D01*
X312852Y-75116D01*
X312354Y-75404D01*
X311934Y-75667D01*
X311750Y-75745D01*
X311593Y-75824D01*
X311461Y-75903D01*
X311356Y-75955D01*
X311304Y-75982D01*
X311278D01*
X310569Y-76244D01*
X309887Y-76428D01*
X309231Y-76559D01*
X308628Y-76638D01*
X308339Y-76690D01*
X308103D01*
X307893Y-76716D01*
X307709Y-76743D01*
X307342D01*
X306581Y-76716D01*
X305872Y-76611D01*
X305216Y-76506D01*
X304639Y-76349D01*
X304377Y-76297D01*
X304140Y-76218D01*
X303957Y-76165D01*
X303773Y-76086D01*
X303642Y-76060D01*
X303537Y-76008D01*
X303485Y-75982D01*
X303458D01*
X302776Y-75667D01*
X302172Y-75299D01*
X301622Y-74958D01*
X301149Y-74617D01*
X300782Y-74302D01*
X300624Y-74171D01*
X300493Y-74066D01*
X300388Y-73961D01*
X300309Y-73882D01*
X300283Y-73856D01*
X300257Y-73830D01*
X299785Y-73305D01*
X299339Y-72754D01*
X298971Y-72203D01*
X298656Y-71704D01*
X298420Y-71285D01*
X298341Y-71101D01*
X298236Y-70943D01*
X298184Y-70812D01*
X298131Y-70707D01*
X298105Y-70655D01*
Y-70629D01*
X297843Y-69920D01*
X297633Y-69238D01*
X297502Y-68582D01*
X297397Y-67978D01*
X297371Y-67690D01*
X297344Y-67454D01*
X297318Y-67244D01*
X297292Y-67060D01*
Y-66903D01*
Y-66798D01*
Y-66719D01*
Y-66693D01*
X297318Y-65932D01*
X297423Y-65223D01*
X297554Y-64541D01*
X297686Y-63964D01*
X297764Y-63727D01*
X297843Y-63491D01*
X297922Y-63281D01*
X297974Y-63124D01*
X298027Y-62993D01*
X298079Y-62888D01*
X298105Y-62835D01*
Y-62809D01*
X298420Y-62153D01*
X298761Y-61523D01*
X299129Y-60998D01*
X299470Y-60526D01*
X299785Y-60133D01*
X299916Y-59975D01*
X300021Y-59844D01*
X300126Y-59739D01*
X300204Y-59660D01*
X300231Y-59634D01*
X300257Y-59608D01*
X300782Y-59136D01*
X301307Y-58689D01*
X301858Y-58322D01*
X302356Y-58007D01*
X302776Y-57771D01*
X302960Y-57692D01*
X303117Y-57587D01*
X303248Y-57535D01*
X303353Y-57482D01*
X303406Y-57456D01*
X303432D01*
X304114Y-57194D01*
X304823Y-56984D01*
X305479Y-56853D01*
X306082Y-56748D01*
X306345Y-56721D01*
X306581Y-56695D01*
X306817Y-56669D01*
X307001Y-56643D01*
X307342D01*
X308103Y-56669D01*
D02*
G37*
G36*
X294951Y-55480D02*
X290250Y-60563D01*
X289778Y-66568D01*
X294793Y-71718D01*
X294523Y-71966D01*
X289733Y-67063D01*
X289643Y-68187D01*
X289598Y-68502D01*
X289576Y-68772D01*
Y-68884D01*
Y-68952D01*
Y-68997D01*
Y-69019D01*
Y-69154D01*
X289553Y-69244D01*
Y-69312D01*
Y-69379D01*
X289531Y-69424D01*
Y-69447D01*
X289508Y-69537D01*
X289486Y-69604D01*
X289463Y-69627D01*
Y-69649D01*
X289396Y-69672D01*
X289373Y-69694D01*
X289351D01*
Y-70324D01*
X288519D01*
Y-69694D01*
X285145D01*
X284988Y-69919D01*
X284808Y-70077D01*
X284605Y-70189D01*
X284425Y-70256D01*
X284245Y-70301D01*
X284111Y-70346D01*
X283976D01*
X283773Y-70324D01*
X283593Y-70279D01*
X283413Y-70234D01*
X283278Y-70144D01*
X283166Y-70077D01*
X283076Y-70031D01*
X283031Y-69986D01*
X283009Y-69964D01*
X282874Y-69807D01*
X282784Y-69649D01*
X282694Y-69492D01*
X282649Y-69334D01*
X282626Y-69199D01*
X282604Y-69087D01*
Y-69019D01*
Y-68997D01*
Y-68840D01*
X279658Y-72033D01*
X279320Y-71763D01*
X283661Y-67063D01*
X283076Y-60878D01*
X281951D01*
Y-59214D01*
X281996D01*
X278376Y-55525D01*
Y-54941D01*
X282581Y-59214D01*
X282941D01*
X282874Y-58404D01*
X282761Y-58449D01*
X282671Y-58472D01*
X282581Y-58494D01*
X282559D01*
X282379Y-58472D01*
X282221Y-58404D01*
X282131Y-58337D01*
X282109Y-58314D01*
X281996Y-58157D01*
X281929Y-58022D01*
X281907Y-57909D01*
Y-57864D01*
X281929Y-57684D01*
X281996Y-57550D01*
X282086Y-57460D01*
X282109Y-57437D01*
X282266Y-57325D01*
X282401Y-57257D01*
X282514Y-57235D01*
X282559D01*
X282784Y-57280D01*
X282941Y-57370D01*
X283031Y-57460D01*
X283076Y-57482D01*
Y-57505D01*
X283166Y-57415D01*
X283278Y-57325D01*
X283503Y-57145D01*
X283616Y-57077D01*
X283706Y-57032D01*
X283751Y-57010D01*
X283773Y-56987D01*
X283976Y-56897D01*
X284201Y-56807D01*
X284673Y-56695D01*
X284898Y-56650D01*
X285078Y-56628D01*
X285190Y-56605D01*
X285235D01*
Y-56380D01*
X287529D01*
Y-56537D01*
X287776Y-56560D01*
X287979Y-56582D01*
X288069D01*
X288136Y-56605D01*
X288181D01*
X288406Y-56628D01*
X288586Y-56672D01*
X288721Y-56695D01*
X288766D01*
Y-56628D01*
X289598D01*
Y-56942D01*
X289823Y-57055D01*
X289981Y-57167D01*
X290115Y-57280D01*
X290228Y-57370D01*
X290295Y-57460D01*
X290340Y-57527D01*
X290385Y-57550D01*
Y-57572D01*
X290430Y-57662D01*
X290475Y-57752D01*
X290543Y-57842D01*
X290565Y-57887D01*
Y-57909D01*
X291060D01*
Y-58427D01*
X290430D01*
X290295Y-59866D01*
X294951Y-54806D01*
Y-55480D01*
D02*
G37*
G36*
X294366Y-77790D02*
X279860D01*
Y-75631D01*
X294366D01*
Y-77790D01*
D02*
G37*
%LPC*%
G36*
X313771Y-59686D02*
X313144Y-60313D01*
X313482Y-60631D01*
X313534Y-60684D01*
X313666Y-60841D01*
X313728Y-60911D01*
X314348Y-60290D01*
X313771Y-59686D01*
D02*
G37*
G36*
X312091Y-63491D02*
X311153D01*
X309359Y-65289D01*
X309362Y-65302D01*
X309441Y-65459D01*
X309467Y-65486D01*
Y-65512D01*
X309625Y-65722D01*
X309808Y-65853D01*
X309940Y-65932D01*
X309966Y-65958D01*
X309992D01*
X310123Y-66010D01*
X310281Y-66037D01*
X310491Y-66063D01*
X310700D01*
X310910Y-66089D01*
X312091D01*
Y-63491D01*
D02*
G37*
G36*
X309572Y-63885D02*
X309520Y-63911D01*
Y-63937D01*
X307773Y-65684D01*
X307788Y-65748D01*
X307840Y-65984D01*
X307919Y-66220D01*
Y-66246D01*
X307972Y-66299D01*
X308024Y-66404D01*
X308103Y-66535D01*
X308108Y-66542D01*
X309359Y-65289D01*
X309310Y-65092D01*
X309283Y-64777D01*
Y-64751D01*
Y-64698D01*
Y-64620D01*
X309310Y-64515D01*
X309388Y-64252D01*
X309520Y-63937D01*
X309572Y-63885D01*
D02*
G37*
G36*
X307657Y-58086D02*
X307368D01*
X306712Y-58112D01*
X306082Y-58191D01*
X305505Y-58296D01*
X305006Y-58427D01*
X304587Y-58558D01*
X304403Y-58611D01*
X304272Y-58663D01*
X304140Y-58716D01*
X304062Y-58742D01*
X304009Y-58768D01*
X303983D01*
X303406Y-59030D01*
X302881Y-59345D01*
X302409Y-59660D01*
X302015Y-59949D01*
X301700Y-60211D01*
X301464Y-60448D01*
X301307Y-60579D01*
X301254Y-60605D01*
Y-60631D01*
X300834Y-61077D01*
X300467Y-61550D01*
X300152Y-61996D01*
X299890Y-62415D01*
X299706Y-62809D01*
X299549Y-63098D01*
X299496Y-63203D01*
X299444Y-63281D01*
X299417Y-63334D01*
Y-63360D01*
X299181Y-63964D01*
X299024Y-64541D01*
X298892Y-65118D01*
X298814Y-65617D01*
X298761Y-66063D01*
Y-66246D01*
X298735Y-66404D01*
Y-66509D01*
Y-66614D01*
Y-66666D01*
Y-66693D01*
X298761Y-67349D01*
X298840Y-67978D01*
X298945Y-68556D01*
X299076Y-69054D01*
X299207Y-69474D01*
X299260Y-69658D01*
X299312Y-69789D01*
X299365Y-69920D01*
X299391Y-69999D01*
X299417Y-70051D01*
Y-70078D01*
X299680Y-70655D01*
X299995Y-71180D01*
X300309Y-71652D01*
X300598Y-72046D01*
X300861Y-72387D01*
X300959Y-72498D01*
X300336Y-73121D01*
X300939Y-73725D01*
X301551Y-73112D01*
X301700Y-73253D01*
X302146Y-73594D01*
X302619Y-73909D01*
X303038Y-74171D01*
X303406Y-74381D01*
X303721Y-74538D01*
X303826Y-74591D01*
X303904Y-74643D01*
X303957Y-74670D01*
X303983D01*
X304587Y-74879D01*
X305190Y-75037D01*
X305741Y-75168D01*
X306266Y-75247D01*
X306712Y-75299D01*
X306896D01*
X307053Y-75326D01*
X307342D01*
X307998Y-75299D01*
X308628Y-75221D01*
X309205Y-75116D01*
X309703Y-74985D01*
X310123Y-74879D01*
X310307Y-74827D01*
X310438Y-74774D01*
X310569Y-74722D01*
X310648Y-74696D01*
X310700Y-74670D01*
X310727D01*
X311304Y-74381D01*
X311829Y-74092D01*
X312301Y-73777D01*
X312695Y-73489D01*
X313036Y-73226D01*
X313272Y-73016D01*
X313429Y-72885D01*
X313456Y-72833D01*
X313482D01*
X313902Y-72387D01*
X314243Y-71914D01*
X314558Y-71442D01*
X314820Y-71022D01*
X315030Y-70629D01*
X315188Y-70340D01*
X315240Y-70235D01*
X315293Y-70156D01*
X315319Y-70104D01*
Y-70078D01*
X315529Y-69474D01*
X315686Y-68871D01*
X315817Y-68319D01*
X315896Y-67795D01*
X315949Y-67349D01*
Y-67165D01*
X315975Y-67007D01*
Y-66903D01*
Y-66798D01*
Y-66745D01*
Y-66719D01*
X315949Y-66063D01*
X315870Y-65433D01*
X315765Y-64882D01*
X315634Y-64357D01*
X315529Y-63964D01*
X315476Y-63780D01*
X315424Y-63622D01*
X315371Y-63518D01*
X315345Y-63439D01*
X315319Y-63386D01*
Y-63360D01*
X315030Y-62783D01*
X314741Y-62258D01*
X314427Y-61812D01*
X314138Y-61392D01*
X313876Y-61077D01*
X313728Y-60911D01*
X312724Y-61917D01*
X311540D01*
X309572Y-63885D01*
X309703Y-63780D01*
X309913Y-63649D01*
X310202Y-63544D01*
X310228D01*
X310307Y-63518D01*
X310438Y-63491D01*
X311153D01*
X312724Y-61917D01*
X313692D01*
Y-71206D01*
X312091D01*
Y-67664D01*
X310648D01*
X310307Y-67637D01*
X310018D01*
X309782Y-67611D01*
X309625Y-67585D01*
X309493D01*
X309441Y-67558D01*
X309415D01*
X309074Y-67427D01*
X308811Y-67296D01*
X308706Y-67217D01*
X308628Y-67165D01*
X308601Y-67112D01*
X308575D01*
X308313Y-66824D01*
X308108Y-66542D01*
X306607Y-68046D01*
Y-66850D01*
X305098Y-68360D01*
X305111Y-68267D01*
X305138Y-68031D01*
X305164Y-67847D01*
Y-67716D01*
Y-67664D01*
X305138Y-67322D01*
X305085Y-67007D01*
X305033Y-66771D01*
X304954Y-66561D01*
X304875Y-66404D01*
X304797Y-66273D01*
X304770Y-66220D01*
X304744Y-66194D01*
X304639Y-66037D01*
X304482Y-65932D01*
X304350Y-65827D01*
X304193Y-65774D01*
X304062Y-65748D01*
X303957Y-65722D01*
X303852D01*
X303642Y-65748D01*
X303458Y-65800D01*
X303327Y-65879D01*
X303196Y-65958D01*
X303091Y-66037D01*
X303012Y-66115D01*
X302986Y-66168D01*
X302960Y-66194D01*
X302829Y-66404D01*
X302750Y-66640D01*
X302645Y-67191D01*
X302619Y-67454D01*
X302592Y-67664D01*
Y-67795D01*
Y-67821D01*
Y-67847D01*
X302619Y-68241D01*
X302671Y-68582D01*
X302724Y-68871D01*
X302776Y-69080D01*
X302855Y-69238D01*
X302907Y-69369D01*
X302934Y-69422D01*
X302960Y-69448D01*
X303091Y-69605D01*
X303248Y-69736D01*
X303380Y-69815D01*
X303511Y-69894D01*
X303555Y-69903D01*
X302426Y-71031D01*
X302225Y-70891D01*
X302041Y-70734D01*
X301884Y-70576D01*
X301779Y-70471D01*
X301753Y-70419D01*
X301517Y-70051D01*
X301333Y-69605D01*
X301228Y-69185D01*
X301123Y-68739D01*
X301070Y-68372D01*
X301044Y-68057D01*
Y-67926D01*
Y-67847D01*
Y-67795D01*
Y-67768D01*
X301070Y-67165D01*
X301149Y-66640D01*
X301254Y-66194D01*
X301385Y-65853D01*
X301517Y-65564D01*
X301622Y-65354D01*
X301700Y-65249D01*
X301726Y-65197D01*
X301989Y-64908D01*
X302277Y-64698D01*
X302566Y-64541D01*
X302829Y-64436D01*
X303065Y-64384D01*
X303248Y-64331D01*
X303432D01*
X303773Y-64357D01*
X304114Y-64462D01*
X304377Y-64620D01*
X304639Y-64777D01*
X304823Y-64961D01*
X304980Y-65092D01*
X305085Y-65197D01*
X305111Y-65249D01*
Y-61917D01*
X306607D01*
Y-66850D01*
X307773Y-65684D01*
X307735Y-65512D01*
X307709Y-65276D01*
X307683Y-65066D01*
Y-64908D01*
Y-64777D01*
Y-64751D01*
X307709Y-64384D01*
X307762Y-64016D01*
X307814Y-63727D01*
X307893Y-63439D01*
X307998Y-63229D01*
X308050Y-63072D01*
X308103Y-62967D01*
X308129Y-62940D01*
X308286Y-62704D01*
X308470Y-62520D01*
X308654Y-62363D01*
X308838Y-62232D01*
X308995Y-62153D01*
X309126Y-62101D01*
X309205Y-62048D01*
X309231D01*
X309441Y-61996D01*
X309703Y-61969D01*
X310018Y-61943D01*
X310333D01*
X310622Y-61917D01*
X311540D01*
X313144Y-60313D01*
X313036Y-60211D01*
X312563Y-59844D01*
X312091Y-59529D01*
X311671Y-59267D01*
X311278Y-59057D01*
X310989Y-58899D01*
X310884Y-58847D01*
X310806Y-58794D01*
X310753Y-58768D01*
X310727D01*
X310123Y-58532D01*
X309520Y-58375D01*
X308969Y-58243D01*
X308444Y-58165D01*
X307998Y-58112D01*
X307814D01*
X307657Y-58086D01*
D02*
G37*
%LPD*%
G36*
X305033Y-68792D02*
X304954Y-69028D01*
X304849Y-69264D01*
X304823Y-69290D01*
X304797Y-69369D01*
X304692Y-69500D01*
X304587Y-69631D01*
X304429Y-69763D01*
X304272Y-69868D01*
X304035Y-69920D01*
X303799Y-69946D01*
X303721D01*
X303642Y-69920D01*
X303555Y-69903D01*
X305098Y-68360D01*
X305033Y-68792D01*
D02*
G37*
G36*
X306607Y-71206D02*
X305216D01*
Y-70209D01*
X305059Y-70419D01*
X304928Y-70576D01*
X304797Y-70734D01*
X304665Y-70838D01*
X304560Y-70943D01*
X304482Y-70996D01*
X304429Y-71022D01*
X304403Y-71048D01*
X304219Y-71153D01*
X304035Y-71232D01*
X303721Y-71311D01*
X303590Y-71337D01*
X303485Y-71363D01*
X303406D01*
X303304Y-71355D01*
X301551Y-73112D01*
X301254Y-72833D01*
X301228Y-72807D01*
X301202Y-72780D01*
X301070Y-72623D01*
X300959Y-72498D01*
X302426Y-71031D01*
X302487Y-71075D01*
X302750Y-71232D01*
X303065Y-71337D01*
X303304Y-71355D01*
X306607Y-68046D01*
Y-71206D01*
D02*
G37*
%LPC*%
G36*
X287102Y-56762D02*
X285640D01*
Y-57122D01*
X287102D01*
Y-56762D01*
D02*
G37*
G36*
X287642Y-56987D02*
X287529D01*
Y-57460D01*
X285235D01*
Y-57055D01*
X285010Y-57100D01*
X284830Y-57122D01*
X284650Y-57167D01*
X284515Y-57190D01*
X284403Y-57235D01*
X284335Y-57257D01*
X284291Y-57280D01*
X284268D01*
X284021Y-57370D01*
X283841Y-57437D01*
X283728Y-57505D01*
X283683Y-57527D01*
X283548Y-57617D01*
X283481Y-57707D01*
X283436Y-57752D01*
X283413Y-57775D01*
X283346Y-57864D01*
X283323Y-57909D01*
X288766D01*
Y-57167D01*
X288564Y-57122D01*
X288361Y-57077D01*
X288159Y-57032D01*
X287956Y-57010D01*
X287799D01*
X287642Y-56987D01*
D02*
G37*
G36*
X289598Y-57460D02*
Y-57909D01*
X290048D01*
X290025Y-57864D01*
X290003Y-57819D01*
X289981Y-57775D01*
X289958Y-57752D01*
X289868Y-57639D01*
X289733Y-57550D01*
X289643Y-57482D01*
X289598Y-57460D01*
D02*
G37*
G36*
X282379Y-59574D02*
Y-60496D01*
X283031D01*
Y-60271D01*
X282379Y-59574D01*
D02*
G37*
G36*
X289981Y-58427D02*
X283301D01*
X283346Y-59214D01*
X283571D01*
Y-60248D01*
X284718Y-61395D01*
Y-60856D01*
X287574D01*
Y-61778D01*
X285078D01*
X286854Y-63622D01*
X289823Y-60406D01*
X289981Y-58427D01*
D02*
G37*
G36*
X289778Y-61080D02*
X287147Y-63892D01*
X289351Y-66141D01*
X289778Y-61080D01*
D02*
G37*
G36*
X283571Y-60811D02*
Y-60878D01*
X283526D01*
X284021Y-66681D01*
X286607Y-63892D01*
X283571Y-60811D01*
D02*
G37*
G36*
X286877Y-64184D02*
X284066Y-67243D01*
X284111Y-67648D01*
X284313Y-67670D01*
X284470Y-67738D01*
X284628Y-67805D01*
X284763Y-67873D01*
X284875Y-67940D01*
X284943Y-68007D01*
X284988Y-68052D01*
X285010Y-68075D01*
X285123Y-68210D01*
X285213Y-68367D01*
X285280Y-68525D01*
X285325Y-68660D01*
X285348Y-68795D01*
X285370Y-68907D01*
Y-68975D01*
Y-68997D01*
X285348Y-69064D01*
Y-69087D01*
Y-69109D01*
X285325Y-69177D01*
Y-69199D01*
X289103D01*
X289283Y-66681D01*
X286877Y-64184D01*
D02*
G37*
G36*
X284021Y-68255D02*
X283976D01*
X283751Y-68300D01*
X283593Y-68367D01*
X283503Y-68435D01*
X283458Y-68480D01*
X283346Y-68637D01*
X283278Y-68817D01*
X283256Y-68952D01*
Y-68975D01*
Y-68997D01*
X283278Y-69199D01*
X283346Y-69357D01*
X283436Y-69469D01*
X283458Y-69514D01*
X283616Y-69649D01*
X283796Y-69717D01*
X283931Y-69739D01*
X283976D01*
X284178Y-69694D01*
X284335Y-69627D01*
X284448Y-69559D01*
X284493Y-69514D01*
X284628Y-69334D01*
X284695Y-69177D01*
X284718Y-69042D01*
Y-69019D01*
Y-68997D01*
X284673Y-68772D01*
X284605Y-68615D01*
X284538Y-68525D01*
X284493Y-68480D01*
X284313Y-68345D01*
X284133Y-68277D01*
X284021Y-68255D01*
D02*
G37*
%LPD*%
G36*
X284111Y-68570D02*
X284201Y-68615D01*
X284291Y-68660D01*
X284313Y-68682D01*
X284403Y-68795D01*
X284448Y-68884D01*
X284470Y-68975D01*
Y-68997D01*
X284448Y-69132D01*
X284381Y-69222D01*
X284335Y-69312D01*
X284313Y-69334D01*
X284201Y-69424D01*
X284088Y-69469D01*
X283998Y-69492D01*
X283976D01*
X283818Y-69447D01*
X283706Y-69402D01*
X283638Y-69312D01*
X283571Y-69222D01*
X283526Y-69064D01*
Y-69019D01*
Y-68997D01*
X283548Y-68862D01*
X283593Y-68772D01*
X283638Y-68705D01*
X283661Y-68682D01*
X283773Y-68592D01*
X283863Y-68570D01*
X283953Y-68547D01*
X283976D01*
X284111Y-68570D01*
D02*
G37*
D10*
X338671Y-120235D02*
G03*
X338671Y-120235I-3828J0D01*
G01*
Y-134077D02*
G03*
X338671Y-134077I-3828J0D01*
G01*
X328829D02*
G03*
X328829Y-134077I-3828J0D01*
G01*
Y-120235D02*
G03*
X328829Y-120235I-3828J0D01*
G01*
Y-106394D02*
G03*
X328829Y-106394I-3828J0D01*
G01*
X338671D02*
G03*
X338671Y-106394I-3828J0D01*
G01*
X328829Y-92894D02*
G03*
X328829Y-92894I-3828J0D01*
G01*
X338671D02*
G03*
X338671Y-92894I-3828J0D01*
G01*
X328829Y-78894D02*
G03*
X328829Y-78894I-3828J0D01*
G01*
X338671D02*
G03*
X338671Y-78894I-3828J0D01*
G01*
X328829Y-65394D02*
G03*
X328829Y-65394I-3828J0D01*
G01*
X338671D02*
G03*
X338671Y-65394I-3828J0D01*
G01*
X328829Y-51394D02*
G03*
X328829Y-51394I-3828J0D01*
G01*
X338671D02*
G03*
X338671Y-51394I-3828J0D01*
G01*
Y-37894D02*
G03*
X338671Y-37894I-3828J0D01*
G01*
X328829D02*
G03*
X328829Y-37894I-3828J0D01*
G01*
X59242Y-41929D02*
G03*
X59242Y-41929I-3828J0D01*
G01*
X69084D02*
G03*
X69084Y-41929I-3828J0D01*
G01*
X59242Y-55709D02*
G03*
X59242Y-55709I-3828J0D01*
G01*
X69084D02*
G03*
X69084Y-55709I-3828J0D01*
G01*
X59242Y-69488D02*
G03*
X59242Y-69488I-3828J0D01*
G01*
X69084D02*
G03*
X69084Y-69488I-3828J0D01*
G01*
X59242Y-83268D02*
G03*
X59242Y-83268I-3828J0D01*
G01*
X69084D02*
G03*
X69084Y-83268I-3828J0D01*
G01*
X59242Y-97047D02*
G03*
X59242Y-97047I-3828J0D01*
G01*
X69084D02*
G03*
X69084Y-97047I-3828J0D01*
G01*
X59242Y-110827D02*
G03*
X59242Y-110827I-3828J0D01*
G01*
X69084D02*
G03*
X69084Y-110827I-3828J0D01*
G01*
Y-124327D02*
G03*
X69084Y-124327I-3828J0D01*
G01*
X59242D02*
G03*
X59242Y-124327I-3828J0D01*
G01*
X69084Y-138327D02*
G03*
X69084Y-138327I-3828J0D01*
G01*
X59242D02*
G03*
X59242Y-138327I-3828J0D01*
G01*
X69084Y-151827D02*
G03*
X69084Y-151827I-3828J0D01*
G01*
X59242D02*
G03*
X59242Y-151827I-3828J0D01*
G01*
X69084Y-165827D02*
G03*
X69084Y-165827I-3828J0D01*
G01*
X59242D02*
G03*
X59242Y-165827I-3828J0D01*
G01*
X69084Y-179327D02*
G03*
X69084Y-179327I-3828J0D01*
G01*
X59242D02*
G03*
X59242Y-179327I-3828J0D01*
G01*
X69084Y-193327D02*
G03*
X69084Y-193327I-3828J0D01*
G01*
X59242D02*
G03*
X59242Y-193327I-3828J0D01*
G01*
X316339Y-47639D02*
Y-51575D01*
Y-49607D01*
X313715D01*
Y-47639D01*
Y-51575D01*
X312403Y-47639D02*
Y-51575D01*
X311091Y-50263D01*
X309779Y-51575D01*
Y-47639D01*
X300596Y-48295D02*
X299940Y-47639D01*
X298628D01*
X297972Y-48295D01*
Y-50919D01*
X298628Y-51575D01*
X299940D01*
X300596Y-50919D01*
Y-48295D01*
X296660Y-51575D02*
Y-50919D01*
X296004D01*
Y-51575D01*
X296660D01*
X293380D02*
X292068D01*
X292724D01*
Y-47639D01*
X293380Y-48295D01*
X290100Y-51575D02*
Y-50919D01*
X289444D01*
Y-51575D01*
X290100D01*
X286821Y-48295D02*
X286165Y-47639D01*
X284853D01*
X284197Y-48295D01*
Y-50919D01*
X284853Y-51575D01*
X286165D01*
X286821Y-50919D01*
Y-48295D01*
X316339Y-42258D02*
Y-44882D01*
Y-43570D01*
X315683Y-42914D01*
X315027Y-42258D01*
X314371D01*
X311747Y-44882D02*
X310435D01*
X309779Y-44226D01*
Y-42914D01*
X310435Y-42258D01*
X311747D01*
X312403Y-42914D01*
Y-44226D01*
X311747Y-44882D01*
X308467Y-40946D02*
Y-44882D01*
X306499D01*
X305843Y-44226D01*
Y-43570D01*
Y-42914D01*
X306499Y-42258D01*
X308467D01*
X303875Y-44882D02*
X302564D01*
X301907Y-44226D01*
Y-42914D01*
X302564Y-42258D01*
X303875D01*
X304531Y-42914D01*
Y-44226D01*
X303875Y-44882D01*
X297972Y-42258D02*
X299940D01*
X300596Y-42914D01*
Y-44226D01*
X299940Y-44882D01*
X297972D01*
X296004D02*
X294692D01*
X294036Y-44226D01*
Y-42914D01*
X294692Y-42258D01*
X296004D01*
X296660Y-42914D01*
Y-44226D01*
X296004Y-44882D01*
X292724D02*
Y-42258D01*
X290756D01*
X290100Y-42914D01*
Y-44882D01*
X288132Y-41602D02*
Y-42258D01*
X288788D01*
X287476D01*
X288132D01*
Y-44226D01*
X287476Y-44882D01*
X285509Y-42258D02*
Y-44882D01*
Y-43570D01*
X284853Y-42914D01*
X284197Y-42258D01*
X283541D01*
X280917Y-44882D02*
X279605D01*
X278949Y-44226D01*
Y-42914D01*
X279605Y-42258D01*
X280917D01*
X281573Y-42914D01*
Y-44226D01*
X280917Y-44882D01*
X277637D02*
X276325D01*
X276981D01*
Y-40946D01*
X277637D01*
X274357Y-44882D02*
X273045D01*
X273701D01*
Y-40946D01*
X274357D01*
X269110Y-44882D02*
X270422D01*
X271078Y-44226D01*
Y-42914D01*
X270422Y-42258D01*
X269110D01*
X268454Y-42914D01*
Y-43570D01*
X271078D01*
X267142Y-42258D02*
Y-44882D01*
Y-43570D01*
X266486Y-42914D01*
X265830Y-42258D01*
X265174D01*
D20*
X321041Y-140125D02*
X339741D01*
X320768Y-113189D02*
X339469D01*
X320768Y-85630D02*
X339469D01*
X320768Y-58071D02*
X339469D01*
X320768Y-31201D02*
X339469D01*
X60236Y-104331D02*
X70079D01*
X50394D02*
X60236D01*
Y-198031D02*
Y-104331D01*
X50394Y-90551D02*
X60236D01*
X70079D01*
X50394Y-76378D02*
X60236D01*
X70079D01*
X50394Y-62992D02*
X60236D01*
X70079D01*
X50394Y-48819D02*
X60236D01*
X70079D01*
X50394Y-35039D02*
X60236D01*
X70079D01*
X325473Y-133180D02*
X325932Y-132720D01*
X326850D01*
X327309Y-133180D01*
Y-135016D01*
X326850Y-135476D01*
X325932D01*
X325473Y-135016D01*
X324554Y-132720D02*
X322718D01*
X323636D01*
Y-135476D01*
X327309Y-121735D02*
Y-118980D01*
X325932D01*
X325473Y-119439D01*
Y-120358D01*
X325932Y-120817D01*
X327309D01*
X326391D02*
X325473Y-121735D01*
X324554Y-118980D02*
X322718Y-121735D01*
Y-118980D02*
X324554Y-121735D01*
X327309Y-107994D02*
Y-105239D01*
X325932D01*
X325473Y-105699D01*
Y-106617D01*
X325932Y-107076D01*
X327309D01*
X326391D02*
X325473Y-107994D01*
X324554D02*
Y-105239D01*
X323177D01*
X322718Y-105699D01*
Y-106617D01*
X323177Y-107076D01*
X324554D01*
X327309Y-94254D02*
Y-91499D01*
X325932D01*
X325473Y-91958D01*
Y-92876D01*
X325932Y-93336D01*
X327309D01*
X326391D02*
X325473Y-94254D01*
X324554D02*
Y-91499D01*
X322718Y-94254D01*
Y-91499D01*
X327309Y-77759D02*
X325473D01*
X326391D01*
Y-80514D01*
X324554D02*
Y-77759D01*
X322718Y-80514D01*
Y-77759D01*
X327309Y-66773D02*
Y-64018D01*
X325932D01*
X325473Y-64477D01*
Y-65396D01*
X325932Y-65855D01*
X327309D01*
X326391D02*
X325473Y-66773D01*
X324554D02*
Y-64018D01*
X323177D01*
X322718Y-64477D01*
Y-65396D01*
X323177Y-65855D01*
X324554D01*
X325473Y-50737D02*
X325932Y-50278D01*
X326850D01*
X327309Y-50737D01*
Y-52573D01*
X326850Y-53033D01*
X325932D01*
X325473Y-52573D01*
X324554Y-53033D02*
Y-50278D01*
X322718Y-53033D01*
Y-50278D01*
X325473Y-36996D02*
X325932Y-36537D01*
X326850D01*
X327309Y-36996D01*
Y-38833D01*
X326850Y-39292D01*
X325932D01*
X325473Y-38833D01*
X324554Y-39292D02*
Y-36537D01*
X323177D01*
X322718Y-36996D01*
Y-37915D01*
X323177Y-38374D01*
X324554D01*
X337210Y-132621D02*
X335373D01*
X336291D01*
Y-135375D01*
X334454Y-132621D02*
X332618Y-135375D01*
Y-132621D02*
X334454Y-135375D01*
X337210Y-121635D02*
Y-118880D01*
X335832D01*
X335373Y-119339D01*
Y-120257D01*
X335832Y-120717D01*
X337210D01*
X336291D02*
X335373Y-121635D01*
X334454Y-118880D02*
X332618D01*
X333536D01*
Y-121635D01*
X337210Y-107895D02*
Y-105140D01*
X335832D01*
X335373Y-105599D01*
Y-106517D01*
X335832Y-106976D01*
X337210D01*
X336291D02*
X335373Y-107895D01*
X334454D02*
Y-105140D01*
X333077D01*
X332618Y-105599D01*
Y-106517D01*
X333077Y-106976D01*
X334454D01*
X337210Y-94154D02*
Y-91399D01*
X335832D01*
X335373Y-91858D01*
Y-92777D01*
X335832Y-93236D01*
X337210D01*
X336291D02*
X335373Y-94154D01*
X334454D02*
Y-91399D01*
X332618Y-94154D01*
Y-91399D01*
X337210Y-77659D02*
X335373D01*
X336291D01*
Y-80414D01*
X334454D02*
Y-77659D01*
X333077D01*
X332618Y-78118D01*
Y-79036D01*
X333077Y-79495D01*
X334454D01*
X337210Y-66673D02*
Y-63918D01*
X335832D01*
X335373Y-64377D01*
Y-65296D01*
X335832Y-65755D01*
X337210D01*
X336291D02*
X335373Y-66673D01*
X334454D02*
Y-63918D01*
X332618Y-66673D01*
Y-63918D01*
X335373Y-50637D02*
X335832Y-50178D01*
X336750D01*
X337210Y-50637D01*
Y-52473D01*
X336750Y-52933D01*
X335832D01*
X335373Y-52473D01*
X334454Y-52933D02*
Y-50178D01*
X332618Y-52933D01*
Y-50178D01*
X335373Y-36896D02*
X335832Y-36437D01*
X336750D01*
X337210Y-36896D01*
Y-38733D01*
X336750Y-39192D01*
X335832D01*
X335373Y-38733D01*
X334454Y-39192D02*
Y-36437D01*
X333077D01*
X332618Y-36896D01*
Y-37815D01*
X333077Y-38274D01*
X334454D01*
X56103Y-43307D02*
Y-40552D01*
X57480Y-41930D01*
X55644D01*
X54725Y-43307D02*
X53807D01*
X54266D01*
Y-40552D01*
X54725Y-41011D01*
X66339Y-43307D02*
Y-40552D01*
X67716Y-41930D01*
X65880D01*
X64961Y-41011D02*
X64502Y-40552D01*
X63584D01*
X63125Y-41011D01*
Y-42848D01*
X63584Y-43307D01*
X64502D01*
X64961Y-42848D01*
Y-41011D01*
X57480Y-54791D02*
X57021Y-54332D01*
X56103D01*
X55644Y-54791D01*
Y-55250D01*
X56103Y-55709D01*
X56562D01*
X56103D01*
X55644Y-56168D01*
Y-56627D01*
X56103Y-57087D01*
X57021D01*
X57480Y-56627D01*
X54725Y-57087D02*
X53807D01*
X54266D01*
Y-54332D01*
X54725Y-54791D01*
X67716D02*
X67257Y-54332D01*
X66339D01*
X65880Y-54791D01*
Y-55250D01*
X66339Y-55709D01*
X66798D01*
X66339D01*
X65880Y-56168D01*
Y-56627D01*
X66339Y-57087D01*
X67257D01*
X67716Y-56627D01*
X64961Y-54791D02*
X64502Y-54332D01*
X63584D01*
X63125Y-54791D01*
Y-56627D01*
X63584Y-57087D01*
X64502D01*
X64961Y-56627D01*
Y-54791D01*
X55644Y-70866D02*
X57480D01*
X55644Y-69029D01*
Y-68570D01*
X56103Y-68111D01*
X57021D01*
X57480Y-68570D01*
X54725Y-70866D02*
X53807D01*
X54266D01*
Y-68111D01*
X54725Y-68570D01*
X65486Y-70866D02*
X67323D01*
X65486Y-69029D01*
Y-68570D01*
X65945Y-68111D01*
X66864D01*
X67323Y-68570D01*
X64568D02*
X64109Y-68111D01*
X63190D01*
X62731Y-68570D01*
Y-70407D01*
X63190Y-70866D01*
X64109D01*
X64568Y-70407D01*
Y-68570D01*
X57087Y-84646D02*
X56168D01*
X56627D01*
Y-81891D01*
X57087Y-82350D01*
X54791Y-84646D02*
X53872D01*
X54332D01*
Y-81891D01*
X54791Y-82350D01*
X67323Y-84646D02*
X66404D01*
X66864D01*
Y-81891D01*
X67323Y-82350D01*
X65027D02*
X64568Y-81891D01*
X63649D01*
X63190Y-82350D01*
Y-84187D01*
X63649Y-84646D01*
X64568D01*
X65027Y-84187D01*
Y-82350D01*
X57480Y-96129D02*
X57021Y-95670D01*
X56103D01*
X55644Y-96129D01*
Y-97966D01*
X56103Y-98425D01*
X57021D01*
X57480Y-97966D01*
Y-96129D01*
X54725Y-98425D02*
X53807D01*
X54266D01*
Y-95670D01*
X54725Y-96129D01*
X67323D02*
X66864Y-95670D01*
X65945D01*
X65486Y-96129D01*
Y-97966D01*
X65945Y-98425D01*
X66864D01*
X67323Y-97966D01*
Y-96129D01*
X64568D02*
X64109Y-95670D01*
X63190D01*
X62731Y-96129D01*
Y-97966D01*
X63190Y-98425D01*
X64109D01*
X64568Y-97966D01*
Y-96129D01*
X66245Y-109370D02*
X67164D01*
X67623Y-109829D01*
Y-111666D01*
X67164Y-112125D01*
X66245D01*
X65786Y-111666D01*
Y-109829D01*
X66245Y-109370D01*
X63031Y-109829D02*
X63490Y-109370D01*
X64409D01*
X64868Y-109829D01*
Y-111666D01*
X64409Y-112125D01*
X63490D01*
X63031Y-111666D01*
X57623Y-109470D02*
X56704D01*
X57164D01*
Y-112225D01*
X57623D01*
X56704D01*
X53490Y-109929D02*
X53949Y-109470D01*
X54868D01*
X55327Y-109929D01*
Y-111766D01*
X54868Y-112225D01*
X53949D01*
X53490Y-111766D01*
X66245Y-122770D02*
X67164D01*
X67623Y-123229D01*
Y-125066D01*
X67164Y-125525D01*
X66245D01*
X65786Y-125066D01*
Y-123229D01*
X66245Y-122770D01*
X63490Y-125525D02*
Y-122770D01*
X64868Y-124148D01*
X63031D01*
X57723Y-122870D02*
X56805D01*
X57264D01*
Y-125625D01*
X57723D01*
X56805D01*
X54049D02*
Y-122870D01*
X55427Y-124248D01*
X53590D01*
X57623Y-136970D02*
X56704D01*
X57164D01*
Y-139725D01*
X57623D01*
X56704D01*
X55327Y-137429D02*
X54868Y-136970D01*
X53949D01*
X53490Y-137429D01*
Y-137889D01*
X53949Y-138348D01*
X54409D01*
X53949D01*
X53490Y-138807D01*
Y-139266D01*
X53949Y-139725D01*
X54868D01*
X55327Y-139266D01*
X66145Y-136970D02*
X67064D01*
X67523Y-137429D01*
Y-139266D01*
X67064Y-139725D01*
X66145D01*
X65686Y-139266D01*
Y-137429D01*
X66145Y-136970D01*
X64768Y-137429D02*
X64309Y-136970D01*
X63390D01*
X62931Y-137429D01*
Y-137889D01*
X63390Y-138348D01*
X63850D01*
X63390D01*
X62931Y-138807D01*
Y-139266D01*
X63390Y-139725D01*
X64309D01*
X64768Y-139266D01*
X66145Y-150270D02*
X67064D01*
X67523Y-150729D01*
Y-152566D01*
X67064Y-153025D01*
X66145D01*
X65686Y-152566D01*
Y-150729D01*
X66145Y-150270D01*
X62931Y-153025D02*
X64768D01*
X62931Y-151189D01*
Y-150729D01*
X63390Y-150270D01*
X64309D01*
X64768Y-150729D01*
X57523Y-150370D02*
X56604D01*
X57064D01*
Y-153125D01*
X57523D01*
X56604D01*
X53390D02*
X55227D01*
X53390Y-151288D01*
Y-150829D01*
X53850Y-150370D01*
X54768D01*
X55227Y-150829D01*
X65623Y-164245D02*
X66541D01*
X67000Y-164704D01*
Y-166541D01*
X66541Y-167000D01*
X65623D01*
X65163Y-166541D01*
Y-164704D01*
X65623Y-164245D01*
X64245Y-167000D02*
X63327D01*
X63786D01*
Y-164245D01*
X64245Y-164704D01*
X57100Y-164445D02*
X56182D01*
X56641D01*
Y-167200D01*
X57100D01*
X56182D01*
X54804D02*
X53886D01*
X54345D01*
Y-164445D01*
X54804Y-164904D01*
X66245Y-177870D02*
X67164D01*
X67623Y-178329D01*
Y-180166D01*
X67164Y-180625D01*
X66245D01*
X65786Y-180166D01*
Y-178329D01*
X66245Y-177870D01*
X64868Y-178329D02*
X64409Y-177870D01*
X63490D01*
X63031Y-178329D01*
Y-180166D01*
X63490Y-180625D01*
X64409D01*
X64868Y-180166D01*
Y-178329D01*
X57623Y-177970D02*
X56704D01*
X57164D01*
Y-180725D01*
X57623D01*
X56704D01*
X55327Y-178429D02*
X54868Y-177970D01*
X53949D01*
X53490Y-178429D01*
Y-180266D01*
X53949Y-180725D01*
X54868D01*
X55327Y-180266D01*
Y-178429D01*
X68110Y-204331D02*
X67192D01*
X67651D01*
Y-201576D01*
X68110Y-202035D01*
X63978Y-204331D02*
X65814D01*
X63978Y-202494D01*
Y-202035D01*
X64437Y-201576D01*
X65355D01*
X65814Y-202035D01*
X63059Y-202953D02*
X61223D01*
X58468Y-204331D02*
X60304D01*
X58468Y-202494D01*
Y-202035D01*
X58927Y-201576D01*
X59845D01*
X60304Y-202035D01*
X56172Y-204331D02*
Y-201576D01*
X57549Y-202953D01*
X55713D01*
X54794Y-201576D02*
Y-203412D01*
X53876Y-204331D01*
X52958Y-203412D01*
Y-201576D01*
D21*
X187008Y-5906D02*
D03*
Y-230315D02*
D03*
D124*
X298085Y-39002D02*
X302285D01*
X311385D02*
X315685D01*
X297785Y-38902D02*
X302585D01*
X311085D02*
X315985D01*
X297585Y-38802D02*
X302785D01*
X310885D02*
X316185D01*
X297385Y-38702D02*
X302985D01*
X310685D02*
X316385D01*
X297285Y-38602D02*
X303085D01*
X310585D02*
X316485D01*
X297185Y-38502D02*
X303185D01*
X310485D02*
X316585D01*
X297085Y-38402D02*
X303285D01*
X310385D02*
X316685D01*
X296985Y-38302D02*
X303385D01*
X310285D02*
X316785D01*
X296885Y-38202D02*
X303485D01*
X310185D02*
X316885D01*
X296885Y-38102D02*
X303485D01*
X310185D02*
X316985D01*
X296785Y-38002D02*
X303585D01*
X310085D02*
X316985D01*
X296785Y-37902D02*
X303685D01*
X309985D02*
X317085D01*
X296685Y-37802D02*
X303685D01*
X309985D02*
X317085D01*
X296685Y-37702D02*
X303685D01*
X309985D02*
X317085D01*
X296585Y-37602D02*
X303785D01*
X309885D02*
X317185D01*
X296585Y-37502D02*
X303785D01*
X309885D02*
X317185D01*
X296585Y-37402D02*
X303885D01*
X309885D02*
X317185D01*
X296585Y-37302D02*
X303885D01*
X309885D02*
X317185D01*
X296585Y-37202D02*
X303985D01*
X309885D02*
X317285D01*
X296585Y-37102D02*
X303985D01*
X309885D02*
X317285D01*
X296585Y-37002D02*
X304085D01*
X309885D02*
X317285D01*
X296585Y-36902D02*
X304085D01*
X309885D02*
X317285D01*
X296585Y-36802D02*
X304185D01*
X309885D02*
X317285D01*
X296585Y-36702D02*
X304185D01*
X309885D02*
X317285D01*
X296585Y-36602D02*
X304285D01*
X309885D02*
X317285D01*
X296585Y-36502D02*
X304285D01*
X309885D02*
X317285D01*
X296585Y-36402D02*
X304385D01*
X309885D02*
X317285D01*
X296685Y-36302D02*
X304385D01*
X309885D02*
X317285D01*
X296685Y-36202D02*
X304485D01*
X309885D02*
X317285D01*
X296685Y-36102D02*
X304485D01*
X309885D02*
X317285D01*
X296785Y-36002D02*
X304585D01*
X309885D02*
X317285D01*
X296785Y-35902D02*
X304585D01*
X309885D02*
X317285D01*
X296885Y-35802D02*
X304685D01*
X309885D02*
X317285D01*
X296985Y-35702D02*
X304685D01*
X309885D02*
X317285D01*
X296985Y-35602D02*
X304685D01*
X309885D02*
X317285D01*
X297085Y-35502D02*
X304785D01*
X309885D02*
X317285D01*
X297085Y-35402D02*
X304785D01*
X309885D02*
X317285D01*
X297185Y-35302D02*
X304885D01*
X309885D02*
X317285D01*
X297185Y-35202D02*
X304885D01*
X309885D02*
X317285D01*
X297285Y-35102D02*
X304985D01*
X309885D02*
X317285D01*
X297285Y-35002D02*
X304985D01*
X309885D02*
X317285D01*
X297385Y-34902D02*
X305085D01*
X309885D02*
X317285D01*
X297385Y-34802D02*
X305085D01*
X309885D02*
X317285D01*
X297485Y-34702D02*
X305185D01*
X309885D02*
X317285D01*
X297585Y-34602D02*
X305185D01*
X309885D02*
X317285D01*
X297585Y-34502D02*
X305285D01*
X309885D02*
X317285D01*
X297685Y-34402D02*
X305285D01*
X309885D02*
X317285D01*
X297685Y-34302D02*
X305385D01*
X309785D02*
X317285D01*
X297785Y-34202D02*
X305385D01*
X309785D02*
X317285D01*
X297785Y-34102D02*
X305485D01*
X309785D02*
X317285D01*
X297885Y-34002D02*
X305485D01*
X309785D02*
X317285D01*
X297885Y-33902D02*
X305585D01*
X309785D02*
X317285D01*
X297985Y-33802D02*
X305585D01*
X309685D02*
X317285D01*
X297985Y-33702D02*
X305685D01*
X309685D02*
X317285D01*
X298085Y-33602D02*
X305685D01*
X309685D02*
X317285D01*
X298085Y-33502D02*
X305785D01*
X309585D02*
X317285D01*
X298185Y-33402D02*
X305785D01*
X309485D02*
X317285D01*
X298285Y-33302D02*
X305885D01*
X309485D02*
X317285D01*
X298285Y-33202D02*
X305985D01*
X309385D02*
X317285D01*
X298385Y-33102D02*
X305985D01*
X309285D02*
X317285D01*
X298385Y-33002D02*
X306085D01*
X309185D02*
X317285D01*
X298485Y-32902D02*
X306285D01*
X309085D02*
X317285D01*
X298485Y-32802D02*
X306385D01*
X308985D02*
X317285D01*
X298585Y-32702D02*
X306585D01*
X308785D02*
X317285D01*
X298585Y-32602D02*
X306785D01*
X308585D02*
X317285D01*
X298685Y-32502D02*
X307085D01*
X308185D02*
X317285D01*
X298685Y-32402D02*
X317285D01*
X298785Y-32302D02*
X317285D01*
X298785Y-32202D02*
X317285D01*
X298785Y-32102D02*
X317285D01*
X298785Y-32002D02*
X317285D01*
X298785Y-31902D02*
X317285D01*
X298785Y-31802D02*
X317285D01*
X298785Y-31702D02*
X317285D01*
X298785Y-31602D02*
X317285D01*
X298785Y-31502D02*
X317285D01*
X298785Y-31402D02*
X317285D01*
X298785Y-31302D02*
X317285D01*
X298785Y-31202D02*
X317285D01*
X298685Y-31102D02*
X317285D01*
X298685Y-31002D02*
X317285D01*
X298585Y-30902D02*
X317285D01*
X298585Y-30802D02*
X317285D01*
X298485Y-30702D02*
X317285D01*
X298485Y-30602D02*
X317285D01*
X298385Y-30502D02*
X317285D01*
X298285Y-30402D02*
X317285D01*
X298185Y-30302D02*
X317285D01*
X298085Y-30202D02*
X317285D01*
X297985Y-30102D02*
X317285D01*
X297885Y-30002D02*
X317285D01*
X297785Y-29902D02*
X317285D01*
X297685Y-29802D02*
X317285D01*
X297585Y-29702D02*
X317285D01*
X297485Y-29602D02*
X317285D01*
X297385Y-29502D02*
X317285D01*
X297285Y-29402D02*
X317285D01*
X297185Y-29302D02*
X317285D01*
X297085Y-29202D02*
X317285D01*
X296985Y-29102D02*
X317285D01*
X296885Y-29002D02*
X317285D01*
X296785Y-28902D02*
X317285D01*
X296685Y-28802D02*
X317285D01*
X296585Y-28702D02*
X317285D01*
X296485Y-28602D02*
X317285D01*
X296385Y-28502D02*
X317285D01*
X296285Y-28402D02*
X317285D01*
X296285Y-28302D02*
X317285D01*
X296185Y-28202D02*
X317285D01*
X296085Y-28102D02*
X317285D01*
X296085Y-28002D02*
X304585D01*
X309885D02*
X317285D01*
X296085Y-27902D02*
X304285D01*
X309885D02*
X317285D01*
X295985Y-27802D02*
X304085D01*
X309885D02*
X317285D01*
X295985Y-27702D02*
X303985D01*
X309885D02*
X317285D01*
X295985Y-27602D02*
X303885D01*
X309885D02*
X317285D01*
X295985Y-27502D02*
X303785D01*
X309885D02*
X317285D01*
X295985Y-27402D02*
X303685D01*
X309885D02*
X317285D01*
X295885Y-27302D02*
X303585D01*
X309885D02*
X317285D01*
X295885Y-27202D02*
X303585D01*
X309885D02*
X317285D01*
X295885Y-27102D02*
X303485D01*
X309885D02*
X317285D01*
X295885Y-27002D02*
X303485D01*
X309885D02*
X317285D01*
X295885Y-26902D02*
X303385D01*
X309885D02*
X317285D01*
X295885Y-26802D02*
X303385D01*
X309885D02*
X317285D01*
X295885Y-26702D02*
X303385D01*
X309885D02*
X317285D01*
X295885Y-26602D02*
X303385D01*
X310685D02*
X317285D01*
X295885Y-26502D02*
X303285D01*
X310785D02*
X317285D01*
X295885Y-26402D02*
X303285D01*
X310885D02*
X317285D01*
X295885Y-26302D02*
X303285D01*
X310885D02*
X317285D01*
X295885Y-26202D02*
X303285D01*
X310885D02*
X317285D01*
X295885Y-26102D02*
X303285D01*
X310885D02*
X317285D01*
X295885Y-26002D02*
X303285D01*
X310885D02*
X317285D01*
X295885Y-25902D02*
X303285D01*
X310785D02*
X317285D01*
X295885Y-25802D02*
X303285D01*
X310685D02*
X317285D01*
X295885Y-25702D02*
X303285D01*
X309885D02*
X317285D01*
X295885Y-25602D02*
X303285D01*
X309885D02*
X317285D01*
X295885Y-25502D02*
X303285D01*
X309885D02*
X317285D01*
X295885Y-25402D02*
X303285D01*
X309885D02*
X317285D01*
X295885Y-25302D02*
X303285D01*
X309885D02*
X317285D01*
X295885Y-25202D02*
X303285D01*
X310685D02*
X317285D01*
X295885Y-25102D02*
X303285D01*
X310785D02*
X317285D01*
X295885Y-25002D02*
X303285D01*
X310885D02*
X317285D01*
X295885Y-24902D02*
X303285D01*
X310885D02*
X317285D01*
X295885Y-24802D02*
X303285D01*
X310885D02*
X317285D01*
X295885Y-24702D02*
X303285D01*
X310885D02*
X317285D01*
X295885Y-24602D02*
X303285D01*
X310885D02*
X317285D01*
X295885Y-24502D02*
X303285D01*
X310785D02*
X317285D01*
X295885Y-24402D02*
X303285D01*
X310685D02*
X317285D01*
X295885Y-24302D02*
X303285D01*
X309885D02*
X317285D01*
X295885Y-24202D02*
X303285D01*
X309885D02*
X317285D01*
X295885Y-24102D02*
X303285D01*
X309885D02*
X317285D01*
X295885Y-24002D02*
X303285D01*
X309885D02*
X317285D01*
X295885Y-23902D02*
X303285D01*
X309885D02*
X317285D01*
X295885Y-23802D02*
X303285D01*
X310685D02*
X317285D01*
X295885Y-23702D02*
X303285D01*
X310785D02*
X317285D01*
X295885Y-23602D02*
X303285D01*
X310885D02*
X317285D01*
X295885Y-23502D02*
X303285D01*
X310885D02*
X317285D01*
X295885Y-23402D02*
X303285D01*
X310885D02*
X317285D01*
X295885Y-23302D02*
X303285D01*
X310885D02*
X317285D01*
X295885Y-23202D02*
X303285D01*
X310885D02*
X317285D01*
X295885Y-23102D02*
X303285D01*
X310785D02*
X317285D01*
X295885Y-23002D02*
X303285D01*
X310685D02*
X317285D01*
X295885Y-22902D02*
X303285D01*
X309885D02*
X317285D01*
X295885Y-22802D02*
X303285D01*
X309885D02*
X317285D01*
X295885Y-22702D02*
X303285D01*
X309885D02*
X317285D01*
X295885Y-22602D02*
X303285D01*
X309885D02*
X317285D01*
X295885Y-22502D02*
X303285D01*
X309885D02*
X317285D01*
X295885Y-22402D02*
X303285D01*
X309885D02*
X317285D01*
X295885Y-22302D02*
X303285D01*
X309885D02*
X317285D01*
X295885Y-22202D02*
X303285D01*
X309885D02*
X317285D01*
X295885Y-22102D02*
X303285D01*
X309885D02*
X317285D01*
X295985Y-22002D02*
X303285D01*
X309885D02*
X317285D01*
X295985Y-21902D02*
X303285D01*
X309885D02*
X317285D01*
X295985Y-21802D02*
X303285D01*
X309885D02*
X317285D01*
X295985Y-21702D02*
X303285D01*
X309885D02*
X317285D01*
X295985Y-21602D02*
X303285D01*
X309885D02*
X317285D01*
X296085Y-21502D02*
X303285D01*
X309885D02*
X317285D01*
X296085Y-21402D02*
X304685D01*
X305685D02*
X306085D01*
X307085D02*
X307485D01*
X308485D02*
X317285D01*
X296185Y-21302D02*
X304685D01*
X305685D02*
X306085D01*
X307085D02*
X307485D01*
X308485D02*
X317285D01*
X296185Y-21202D02*
X304685D01*
X305685D02*
X306085D01*
X307085D02*
X307485D01*
X308485D02*
X317285D01*
X296285Y-21102D02*
X304685D01*
X305685D02*
X306085D01*
X307085D02*
X307485D01*
X308485D02*
X317285D01*
X296385Y-21002D02*
X304685D01*
X305685D02*
X306085D01*
X307085D02*
X307485D01*
X308485D02*
X317285D01*
X296385Y-20902D02*
X304685D01*
X305685D02*
X306085D01*
X307085D02*
X307485D01*
X308485D02*
X317285D01*
X296485Y-20802D02*
X304685D01*
X305685D02*
X306085D01*
X306985D02*
X307485D01*
X308385D02*
X317285D01*
X296585Y-20702D02*
X304785D01*
X305585D02*
X306185D01*
X306985D02*
X307485D01*
X308385D02*
X317285D01*
X296685Y-20602D02*
X304785D01*
X305485D02*
X306185D01*
X306885D02*
X307585D01*
X308285D02*
X317285D01*
X296785Y-20502D02*
X304885D01*
X305385D02*
X306285D01*
X306785D02*
X307685D01*
X308185D02*
X317285D01*
X296885Y-20402D02*
X317285D01*
X296985Y-20302D02*
X317285D01*
X297085Y-20202D02*
X317285D01*
X297185Y-20102D02*
X317285D01*
X297285Y-20002D02*
X317285D01*
X297385Y-19902D02*
X317285D01*
X297485Y-19802D02*
X317285D01*
X297585Y-19702D02*
X317285D01*
X297685Y-19602D02*
X317285D01*
X297785Y-19502D02*
X317285D01*
X297885Y-19402D02*
X317285D01*
X297985Y-19302D02*
X317285D01*
X298085Y-19202D02*
X317285D01*
X298185Y-19102D02*
X317285D01*
X298285Y-19002D02*
X317285D01*
X298385Y-18902D02*
X317285D01*
X298485Y-18802D02*
X317285D01*
X298585Y-18702D02*
X317185D01*
X298685Y-18602D02*
X317185D01*
X298785Y-18502D02*
X317185D01*
X298885Y-18402D02*
X317185D01*
X298985Y-18302D02*
X317085D01*
X299085Y-18202D02*
X317085D01*
X299185Y-18102D02*
X316985D01*
X299285Y-18002D02*
X316985D01*
X299385Y-17902D02*
X316885D01*
X299485Y-17802D02*
X316885D01*
X299585Y-17702D02*
X316785D01*
X299685Y-17602D02*
X316685D01*
X299785Y-17502D02*
X316585D01*
X299985Y-17402D02*
X316485D01*
X300085Y-17302D02*
X316285D01*
X300285Y-17202D02*
X316085D01*
X300485Y-17102D02*
X315885D01*
X301085Y-17002D02*
X315285D01*
D125*
X57800Y-192532D02*
Y-193844D01*
X57144Y-194500D01*
X56488Y-193844D01*
Y-192532D01*
X54520Y-192860D02*
X54848Y-192532D01*
X55504D01*
X55832Y-192860D01*
Y-194172D01*
X55504Y-194500D01*
X54848D01*
X54520Y-194172D01*
X52552Y-192860D02*
X52880Y-192532D01*
X53536D01*
X53864Y-192860D01*
Y-194172D01*
X53536Y-194500D01*
X52880D01*
X52552Y-194172D01*
X66488Y-192760D02*
X66816Y-192432D01*
X67472D01*
X67800Y-192760D01*
Y-194072D01*
X67472Y-194400D01*
X66816D01*
X66488Y-194072D01*
Y-193416D01*
X67144D01*
X65832Y-194400D02*
Y-192432D01*
X64520Y-194400D01*
Y-192432D01*
X63864D02*
Y-194400D01*
X62880D01*
X62552Y-194072D01*
Y-192760D01*
X62880Y-192432D01*
X63864D01*
M02*
