%FSTAX25Y25*%
%MOIN*%
%SFA1B1*%

%IPPOS*%
%AMD11*
4,1,8,0.014500,0.012800,-0.014500,0.012800,-0.020900,0.006400,-0.020900,-0.006400,-0.014500,-0.012800,0.014500,-0.012800,0.020900,-0.006400,0.020900,0.006400,0.014500,0.012800,0.0*
1,1,0.012800,0.014500,0.006400*
1,1,0.012800,-0.014500,0.006400*
1,1,0.012800,-0.014500,-0.006400*
1,1,0.012800,0.014500,-0.006400*
%
%AMD24*
4,1,8,-0.087100,-0.042300,0.087100,-0.042300,0.108300,-0.021200,0.108300,0.021200,0.087100,0.042300,-0.087100,0.042300,-0.108300,0.021200,-0.108300,-0.021200,-0.087100,-0.042300,0.0*
1,1,0.042320,-0.087100,-0.021200*
1,1,0.042320,0.087100,-0.021200*
1,1,0.042320,0.087100,0.021200*
1,1,0.042320,-0.087100,0.021200*
%
%ADD10R,0.031500X0.031500*%
G04~CAMADD=11~8~0.0~0.0~417.3~255.9~64.0~0.0~15~0.0~0.0~0.0~0.0~0~0.0~0.0~0.0~0.0~0~0.0~0.0~0.0~0.0~417.3~255.9*
%ADD11D11*%
%ADD12R,0.049210X0.025590*%
%ADD13R,0.039760X0.028540*%
%ADD14R,0.039370X0.028150*%
%ADD15R,0.030710X0.039370*%
%ADD16R,0.031500X0.039370*%
%ADD17R,0.039370X0.028540*%
%ADD18R,0.049210X0.062990*%
%ADD19O,0.086610X0.023620*%
%ADD20R,0.045280X0.035430*%
%ADD21R,0.080000X0.026000*%
%ADD22R,0.045280X0.070870*%
%ADD23O,0.027560X0.098420*%
G04~CAMADD=24~8~0.0~0.0~2165.4~846.5~211.6~0.0~15~0.0~0.0~0.0~0.0~0~0.0~0.0~0.0~0.0~0~0.0~0.0~0.0~180.0~2166.0~847.0*
%ADD24D24*%
%ADD25R,0.070870X0.045280*%
%ADD26R,0.049210X0.078740*%
%ADD27R,0.030000X0.030000*%
%ADD28R,0.059050X0.076770*%
%ADD29R,0.047240X0.157480*%
%ADD30O,0.061020X0.009840*%
%ADD31O,0.009840X0.061020*%
%ADD32O,0.011810X0.082680*%
%ADD33O,0.082680X0.011810*%
%ADD34R,0.035430X0.015750*%
%ADD36R,0.062990X0.031500*%
%ADD37R,0.023620X0.035430*%
%ADD38R,0.035430X0.023620*%
%ADD39R,0.096460X0.096460*%
%ADD40R,0.031500X0.031500*%
%ADD41O,0.098420X0.027560*%
%ADD42R,0.030000X0.030000*%
%ADD43R,0.096460X0.096460*%
%ADD77R,0.036610X0.048420*%
%ADD78R,0.036610X0.048420*%
%LNrobocontroller-1*%
%LPD*%
G36*
X0067126Y-0089764D02*
Y-0098032D01*
X0050394*
Y-0095079*
X0052559*
Y-0092618*
X0050394*
Y-0089764*
X0054331*
Y-0088189*
X0057579*
Y-0089764*
X0063976*
Y-0088189*
X0067126*
Y-0089764*
G37*
G36*
Y-0084055D02*
Y-008563D01*
X0063976*
Y-0084055*
X0057579*
Y-008563*
X0054331*
Y-0084055*
X0050394*
Y-0081201*
X0052559*
Y-007874*
X0050394*
Y-0075787*
X0067126*
Y-0084055*
G37*
G36*
Y-0107874D02*
Y-0109449D01*
X0063976*
Y-0107874*
X0057579*
Y-0109449*
X0054331*
Y-0107874*
X0050394*
Y-010502*
X0052559*
Y-0102559*
X0050394*
Y-0099606*
X0067126*
Y-0107874*
G37*
G36*
X0066929Y-0131693D02*
Y-0133268D01*
X0063779*
Y-0131693*
X0057382*
Y-0133268*
X0054134*
Y-0131693*
X0050197*
Y-0128839*
X0052362*
Y-0126378*
X0050197*
Y-0123425*
X0066929*
Y-0131693*
G37*
G36*
Y-0113583D02*
Y-012185D01*
X0050197*
Y-0118898*
X0052362*
Y-0116437*
X0050197*
Y-0113583*
X0054134*
Y-0112008*
X0057382*
Y-0113583*
X0063779*
Y-0112008*
X0066929*
Y-0113583*
G37*
G36*
X0067028Y-0036791D02*
Y-0038366D01*
X0063878*
Y-0036791*
X005748*
Y-0038366*
X0054232*
Y-0036791*
X0050295*
Y-0033937*
X0052461*
Y-0031477*
X0050295*
Y-0028524*
X0067028*
Y-0036791*
G37*
G36*
Y-0018681D02*
Y-0026949D01*
X0050295*
Y-0023996*
X0052461*
Y-0021535*
X0050295*
Y-0018681*
X0054232*
Y-0017106*
X005748*
Y-0018681*
X0063878*
Y-0017106*
X0067028*
Y-0018681*
G37*
G36*
X0067126Y-0042323D02*
Y-0050591D01*
X0050394*
Y-0047638*
X0052559*
Y-0045177*
X0050394*
Y-0042323*
X0054331*
Y-0040748*
X0057579*
Y-0042323*
X0063976*
Y-0040748*
X0067126*
Y-0042323*
G37*
G36*
Y-0065945D02*
Y-0074213D01*
X0050394*
Y-007126*
X0052559*
Y-0068799*
X0050394*
Y-0065945*
X0054331*
Y-006437*
X0057579*
Y-0065945*
X0063976*
Y-006437*
X0067126*
Y-0065945*
G37*
G36*
Y-0060433D02*
Y-0062008D01*
X0063976*
Y-0060433*
X0057579*
Y-0062008*
X0054331*
Y-0060433*
X0050394*
Y-0057579*
X0052559*
Y-0055118*
X0050394*
Y-0052165*
X0067126*
Y-0060433*
G37*
G54D10*
X0263976Y-0220866D03*
X0258071D03*
X0286024Y-0215354D03*
X0291929D03*
X0286024Y-0220866D03*
X0291929D03*
X0149016Y-0088829D03*
X014311D03*
X0144095Y-0057874D03*
X015D03*
X0102756Y-0204921D03*
X009685D03*
X0142913Y-0080905D03*
X0148819D03*
X0149016Y-0096949D03*
X014311D03*
Y-0113189D03*
X0149016D03*
X0130118Y-0107677D03*
X0136024D03*
X0102756Y-0129134D03*
X009685D03*
X0166732Y-0135236D03*
X0172638D03*
X0193504Y-0136417D03*
X0199409D03*
X0213779Y-013563D03*
X0219685D03*
X0228937D03*
X0234842D03*
X027874Y-0192913D03*
X0284646D03*
X0240551Y-0179552D03*
X0246457D03*
X0240551Y-0172478D03*
X0246457D03*
X0240551Y-0165404D03*
X0246457D03*
X0217323Y-0031496D03*
X0211417D03*
X0197835Y-003189D03*
X0191929D03*
X0156299Y-003563D03*
X0162205D03*
X0194685Y-0191929D03*
X0200591D03*
X0102362Y-0186221D03*
X0096457D03*
X0102756Y-0167323D03*
X009685D03*
X0102756Y-0148228D03*
X009685D03*
G54D11*
X0279919Y-0212205D03*
Y-0219685D03*
X0271258D03*
Y-0212205D03*
Y-0215945D03*
G54D12*
X0060532Y-0032461D03*
Y-0023012D03*
X0073819Y-0035236D03*
Y-0030236D03*
Y-0020236D03*
Y-0025236D03*
X0073917Y-0048878D03*
Y-0043878D03*
Y-0053878D03*
Y-0058878D03*
X006063Y-0046654D03*
Y-0056102D03*
Y-0079724D03*
Y-0070276D03*
X0073917Y-00825D03*
Y-00775D03*
Y-00675D03*
Y-00725D03*
Y-0096319D03*
Y-0091319D03*
Y-0101319D03*
Y-0106319D03*
X006063Y-0094095D03*
Y-0103543D03*
X0060433Y-0127362D03*
Y-0117913D03*
X0073721Y-0130138D03*
Y-0125138D03*
Y-0115138D03*
Y-0120138D03*
G54D13*
X0052362Y-0025473D03*
X0052461Y-0049114D03*
Y-0072736D03*
Y-0096555D03*
X0052264Y-0120374D03*
G54D14*
X0052264Y-0020059D03*
X0052362Y-0043701D03*
Y-0067323D03*
Y-0091142D03*
X0052165Y-0114961D03*
G54D15*
X0065453Y-0019075D03*
X0065495Y-0036336D03*
X0065594Y-0059978D03*
X0065551Y-0042717D03*
Y-0066339D03*
X0065594Y-00836D03*
Y-0107419D03*
X0065551Y-0090158D03*
X0065354Y-0113976D03*
X0065397Y-0131238D03*
G54D16*
X0055807Y-0019075D03*
X0055895Y-0036336D03*
X0055994Y-0059978D03*
X0055905Y-0042717D03*
Y-0066339D03*
X0055994Y-00836D03*
Y-0107419D03*
X0055905Y-0090158D03*
X0055709Y-0113976D03*
X0055797Y-0131238D03*
G54D17*
X0052295Y-0030036D03*
X0052264Y-0035364D03*
X0052362Y-0059006D03*
X0052394Y-0053678D03*
Y-00773D03*
X0052362Y-0082628D03*
Y-0106447D03*
X0052394Y-0101119D03*
X0052197Y-0124938D03*
X0052165Y-0130266D03*
G54D18*
X0136221Y-0080315D03*
Y-0094882D03*
X0127559D03*
Y-0080315D03*
X0238779Y-0143701D03*
Y-0158268D03*
X0230118D03*
Y-0143701D03*
G54D19*
X0203543Y-0213602D03*
Y-0208602D03*
Y-0203602D03*
Y-0198602D03*
X0184646Y-0213602D03*
Y-0208602D03*
Y-0203602D03*
Y-0198602D03*
G54D20*
X0114468Y-0110827D03*
X0089862D03*
X0114468Y-0120827D03*
X0089862D03*
X0114468Y-0044242D03*
X0089862D03*
X0114468Y-0054242D03*
X0089862D03*
X0114468Y-0022047D03*
X0089862D03*
X0114468Y-0032047D03*
X0089862D03*
X0114468Y-0088632D03*
X0089862D03*
X0114468Y-0098632D03*
X0089862D03*
X0114468Y-0066437D03*
X0089862D03*
X0114468Y-0076437D03*
X0089862D03*
G54D21*
X0067669Y-0217087D03*
X0045669D03*
X0067669Y-0207087D03*
X0045669D03*
X0118504Y-0216614D03*
X0093504D03*
X0118504Y-0211614D03*
X0093504D03*
X0067669Y-0148386D03*
X0045669D03*
X0067669Y-0138386D03*
X0045669D03*
X0067669Y-0165561D03*
X0045669D03*
X0067669Y-0155561D03*
X0045669D03*
X0067669Y-0182736D03*
X0045669D03*
X0067669Y-0172736D03*
X0045669D03*
X0067669Y-0199911D03*
X0045669D03*
X0067669Y-0189911D03*
X0045669D03*
X0118504Y-0141142D03*
X0093504D03*
X0118504Y-0136142D03*
X0093504D03*
X0118504Y-0198228D03*
X0093504D03*
X0118504Y-0193228D03*
X0093504D03*
X0118504Y-0179213D03*
X0093504D03*
X0118504Y-0174213D03*
X0093504D03*
X0118504Y-0160039D03*
X0093504D03*
X0118504Y-0155039D03*
X0093504D03*
G54D22*
X0174213Y-0212402D03*
X0162402D03*
G54D23*
X0138524Y-0214854D03*
X0143524D03*
X0148524D03*
X0153524D03*
X0138524Y-0195562D03*
X0143524D03*
X0148524D03*
X0153524D03*
G54D24*
X0222441Y-0197441D03*
Y-0212598D03*
G54D25*
X0311024Y-0201575D03*
Y-0189764D03*
X0300197Y-0189961D03*
Y-0201772D03*
G54D26*
X0152563Y-0182283D03*
X0139563D03*
G54D27*
X0300252Y-0104537D03*
Y-0097037D03*
X0309252Y-0100787D03*
G54D28*
X0254823Y-0020177D03*
Y-0031004D03*
G54D29*
X0263779Y-0040551D03*
X0307874D03*
G54D30*
X0258366Y-0158465D03*
Y-0160433D03*
Y-0162401D03*
Y-016437D03*
Y-0166339D03*
Y-0168307D03*
Y-0170276D03*
Y-0172244D03*
Y-0174213D03*
Y-0176181D03*
Y-017815D03*
Y-0180118D03*
X0290059D03*
Y-017815D03*
Y-0176181D03*
Y-0174213D03*
Y-0172244D03*
Y-0170276D03*
Y-0168307D03*
Y-0166339D03*
Y-016437D03*
Y-0162401D03*
Y-0160433D03*
Y-0158465D03*
G54D31*
X0263386Y-0185138D03*
X0265354D03*
X0267323D03*
X0269291D03*
X027126D03*
X0273228D03*
X0275197D03*
X0277165D03*
X0279134D03*
X0281102D03*
X0283071D03*
X0285039D03*
Y-0153445D03*
X0283071D03*
X0281102D03*
X0279134D03*
X0277165D03*
X0275197D03*
X0273228D03*
X027126D03*
X0269291D03*
X0267323D03*
X0265354D03*
X0263386D03*
G54D32*
X0167913Y-0042126D03*
X0169882D03*
X017185D03*
X0173819D03*
X0175787D03*
X0177756D03*
X0179724D03*
X0181693D03*
X0183661D03*
X018563D03*
X0187598D03*
X0189567D03*
X0191535D03*
X0193504D03*
X0195473D03*
X0197441D03*
X0199409D03*
X0201378D03*
X0203346D03*
X0205315D03*
X0207283D03*
X0209252D03*
X0211221D03*
X0213189D03*
X0215158D03*
X0217126D03*
X0219094D03*
X0221063D03*
X0223031D03*
X0225D03*
X0226969D03*
X0228937D03*
X0230906D03*
X0232874D03*
X0234842D03*
X0236811D03*
Y-0125591D03*
X0234842D03*
X0232874D03*
X0230906D03*
X0228937D03*
X0226969D03*
X0225D03*
X0223031D03*
X0221063D03*
X0219094D03*
X0217126D03*
X0215158D03*
X0213189D03*
X0211221D03*
X0209252D03*
X0207283D03*
X0205315D03*
X0203346D03*
X0201378D03*
X0199409D03*
X0197441D03*
X0195473D03*
X0193504D03*
X0191535D03*
X0189567D03*
X0187598D03*
X018563D03*
X0183661D03*
X0181693D03*
X0179724D03*
X0177756D03*
X0175787D03*
X0173819D03*
X017185D03*
X0169882D03*
X0167913D03*
G54D33*
X0244094Y-0049409D03*
Y-0051378D03*
Y-0053346D03*
Y-0055315D03*
Y-0057284D03*
Y-0059252D03*
Y-0061221D03*
Y-0063189D03*
Y-0065158D03*
Y-0067126D03*
Y-0069095D03*
Y-0071063D03*
Y-0073032D03*
Y-0075D03*
Y-0076968D03*
Y-0078937D03*
Y-0080905D03*
Y-0082874D03*
Y-0084842D03*
Y-0086811D03*
Y-0088779D03*
Y-0090748D03*
Y-0092716D03*
Y-0094685D03*
Y-0096653D03*
Y-0098622D03*
Y-0100591D03*
Y-0102559D03*
Y-0104527D03*
Y-0106496D03*
Y-0108465D03*
Y-0110433D03*
Y-0112402D03*
Y-011437D03*
Y-0116339D03*
Y-0118307D03*
X016063D03*
Y-0116339D03*
Y-011437D03*
Y-0112402D03*
Y-0110433D03*
Y-0108465D03*
Y-0106496D03*
Y-0104527D03*
Y-0102559D03*
Y-0100591D03*
Y-0098622D03*
Y-0096653D03*
Y-0094685D03*
Y-0092716D03*
Y-0090748D03*
Y-0088779D03*
Y-0086811D03*
Y-0084842D03*
Y-0082874D03*
Y-0080905D03*
Y-0078937D03*
Y-0076968D03*
Y-0075D03*
Y-0073032D03*
Y-0071063D03*
Y-0069095D03*
Y-0067126D03*
Y-0065158D03*
Y-0063189D03*
Y-0061221D03*
Y-0059252D03*
Y-0057284D03*
Y-0055315D03*
Y-0053346D03*
Y-0051378D03*
Y-0049409D03*
G54D34*
X0208012Y-0160846D03*
Y-0155847D03*
Y-0150847D03*
Y-0145846D03*
X0177421Y-0160846D03*
Y-0155847D03*
Y-0150847D03*
Y-0145846D03*
G54D36*
X0314764Y-0212205D03*
X0301378D03*
X0254134Y-0212795D03*
X0240748D03*
G54D37*
X0307283Y-0080905D03*
X0301378D03*
X011437Y-0186221D03*
X0108465D03*
X0149409Y-0105069D03*
X0143504D03*
X0114764Y-0129134D03*
X0108858D03*
X0114764Y-0204921D03*
X0108858D03*
X0301378Y-0073425D03*
X0307283D03*
X0301575Y-0089173D03*
X030748D03*
X0301772Y-0112008D03*
X0307677D03*
Y-0119685D03*
X0301772D03*
X0301969Y-0144095D03*
X0307874D03*
X0301772Y-0170079D03*
X0307677D03*
X0292323Y-0199409D03*
X0286417D03*
X026811Y-0193307D03*
X0262205D03*
X0246063Y-0193701D03*
X0240158D03*
X0246063Y-0186627D03*
X0240158D03*
X0266142Y-0145472D03*
X0272047D03*
X0273425Y-007441D03*
X026752D03*
Y-0083465D03*
X0273425D03*
X0188583Y-0185827D03*
X0182677D03*
X0188583Y-0191929D03*
X0182677D03*
X0145473Y-0172244D03*
X0139567D03*
X0114764Y-016752D03*
X0108858D03*
X0114764Y-0148031D03*
X0108858D03*
G54D38*
X0081299Y-0024803D03*
Y-0018898D03*
Y-0036614D03*
Y-0030709D03*
Y-0048425D03*
Y-004252D03*
Y-0060236D03*
Y-0054331D03*
X0076772Y-0214961D03*
Y-0209055D03*
X0084055Y-0205906D03*
Y-0211811D03*
X0076772Y-0197736D03*
Y-0191831D03*
X0084055Y-0187402D03*
Y-0193307D03*
X0121063Y-0093209D03*
Y-0099114D03*
Y-0114764D03*
Y-0120669D03*
X0127362Y-0135827D03*
Y-0141732D03*
X0081299Y-0072047D03*
Y-0066142D03*
Y-0083858D03*
Y-0077953D03*
Y-0095669D03*
Y-0089764D03*
Y-010748D03*
Y-0101575D03*
Y-0119291D03*
Y-0113386D03*
Y-0131102D03*
Y-0125197D03*
X0076772Y-0146457D03*
Y-0140551D03*
X0084449Y-014252D03*
Y-0136614D03*
Y-0151181D03*
Y-0157087D03*
X0076772Y-0163287D03*
Y-0157382D03*
X0084055Y-0168701D03*
Y-0174606D03*
X0076772Y-0180512D03*
Y-0174606D03*
X0127362Y-0173721D03*
Y-0179626D03*
Y-0192667D03*
Y-0198573D03*
Y-021752D03*
Y-0211614D03*
X021437Y-0155118D03*
Y-0161024D03*
X0245669Y-0147047D03*
Y-0152953D03*
X0301378Y-0155512D03*
Y-0161417D03*
X0308858Y-0175787D03*
Y-0181693D03*
X0300394Y-0175984D03*
Y-018189D03*
X0291535Y-019311D03*
Y-0187205D03*
X0255118Y-0188386D03*
Y-0194291D03*
X0168701Y-0030512D03*
Y-0024606D03*
X0127362Y-0154774D03*
Y-0160679D03*
X0121063Y-0070079D03*
Y-0075984D03*
Y-0060039D03*
Y-0054134D03*
X0121653Y-0038386D03*
Y-003248D03*
G54D39*
X0167717Y-0173819D03*
Y-0198228D03*
G54D40*
X0169882Y-0154528D03*
Y-0160433D03*
X0292323Y-0145866D03*
Y-0151772D03*
X0258465Y-0143701D03*
Y-0149606D03*
X0254331Y-0100591D03*
Y-0094685D03*
X0253937Y-0078937D03*
Y-0073032D03*
X0255118Y-004685D03*
Y-0052756D03*
X0245472Y-0037598D03*
Y-0043504D03*
X0175197Y-0024606D03*
Y-0030512D03*
G54D41*
X0289764Y-0109862D03*
Y-0104862D03*
Y-0099862D03*
Y-0094862D03*
X0270472Y-0109862D03*
Y-0104862D03*
Y-0099862D03*
Y-0094862D03*
G54D42*
X0290167Y-008341D03*
X0282667D03*
X0286417Y-007441D03*
G54D43*
X0197835Y-0177559D03*
X0222244D03*
G54D77*
X0197165Y-0158976D03*
Y-0153347D03*
Y-0147717D03*
G54D78*
X0192717Y-0158976D03*
Y-0153347D03*
Y-0147717D03*
X0188268Y-0158976D03*
Y-0153347D03*
Y-0147717D03*
M02*