%FSTAX25Y25*%
%MOIN*%
%SFA1B1*%

%IPPOS*%
%ADD56C,0.010000*%
%ADD71C,0.001000*%
%ADD75C,0.007090*%
%ADD76R,3.740160X0.118110*%
%ADD119C,0.002000*%
%ADD120C,0.004720*%
%LNrobocontroller-1*%
%LPD*%
G36*
X0311638Y-0084061D02*
X0312365Y-0084157D01*
X031269Y-0084214*
X0313015Y-0084272*
X0313321Y-0084348*
X0313608Y-0084425*
X0313857Y-0084501*
X0314087Y-0084578*
X0314278Y-0084635*
X031445Y-0084693*
X0314584Y-008475*
X0314699Y-0084788*
X0314756Y-0084807*
X0314775Y-0084827*
X0315445Y-0085152*
X0316057Y-0085496*
X0316612Y-008586*
X031686Y-0086032*
X0317071Y-0086204*
X0317281Y-0086357*
X0317473Y-008651*
X0317625Y-0086644*
X0317759Y-0086759*
X0317874Y-0086854*
X0317951Y-0086931*
X0317989Y-0086969*
X0318008Y-0086988*
X0318486Y-0087505*
X0318926Y-008806*
X031929Y-0088595*
X0319596Y-0089093*
X031973Y-0089303*
X0319845Y-0089513*
X031994Y-0089705*
X0320017Y-0089858*
X0320093Y-0089992*
X0320132Y-0090087*
X0320151Y-0090145*
X032017Y-0090164*
X0320419Y-0090852*
X032061Y-0091541*
X0320744Y-0092192*
X0320801Y-0092498*
X0320839Y-0092804*
X0320878Y-0093072*
X0320897Y-0093301*
X0320916Y-0093531*
Y-0093703*
X0320935Y-0093856*
Y-0093971*
Y-0094047*
Y-0094066*
X0320897Y-0094813*
X032082Y-0095539*
X0320763Y-0095865*
X0320686Y-009619*
X0320629Y-0096496*
X0320552Y-0096783*
X0320476Y-0097031*
X0320419Y-0097261*
X0320342Y-0097452*
X0320285Y-0097625*
X0320246Y-0097759*
X0320208Y-0097873*
X032017Y-0097931*
Y-009795*
X0319845Y-0098619*
X03195Y-0099231*
X0319137Y-0099786*
X0318965Y-0100035*
X0318793Y-0100245*
X0318639Y-0100456*
X0318486Y-0100647*
X0318353Y-01008*
X0318238Y-0100934*
X0318142Y-0101049*
X0318066Y-0101125*
X0318027Y-0101164*
X0318008Y-0101183*
X0317473Y-0101661*
X0316918Y-0102101*
X0316382Y-0102464*
X0315885Y-010277*
X0315655Y-0102904*
X0315445Y-0103019*
X0315253Y-0103096*
X03151Y-0103191*
X0314967Y-0103249*
X0314871Y-0103287*
X0314813Y-0103325*
X0314794*
X0314106Y-0103574*
X0313417Y-0103765*
X0312767Y-0103899*
X031246Y-0103957*
X0312154Y-0103995*
X0311887Y-0104033*
X0311638Y-0104052*
X0311427Y-0104071*
X0311236*
X0311102Y-010409*
X0310892*
X0310127Y-0104052*
X0309419Y-0103976*
X0308749Y-0103842*
X0308462Y-0103784*
X0308175Y-0103708*
X0307908Y-0103631*
X0307678Y-0103574*
X0307487Y-0103498*
X0307314Y-010344*
X0307181Y-0103402*
X0307066Y-0103364*
X0307008Y-0103325*
X0306989*
X030632Y-0103019*
X0305708Y-0102675*
X0305421Y-0102484*
X0305172Y-0102311*
X0304923Y-0102139*
X0304694Y-0101967*
X0304502Y-0101814*
X0304311Y-0101661*
X0304158Y-0101527*
X0304024Y-0101412*
X0303928Y-0101317*
X0303852Y-010124*
X0303814Y-0101202*
X0303795Y-0101183*
X0303316Y-0100647*
X0302895Y-0100092*
X0302513Y-0099557*
X0302207Y-0099059*
X0302092Y-009883*
X0301977Y-0098619*
X0301882Y-0098428*
X0301786Y-0098275*
X0301729Y-0098141*
X030169Y-0098045*
X0301652Y-0097988*
Y-0097969*
X0301384Y-009728*
X0301193Y-0096592*
X030104Y-0095941*
X0300982Y-0095635*
X0300944Y-0095329*
X0300906Y-0095061*
X0300887Y-0094813*
X0300868Y-0094602*
Y-0094411*
X0300849Y-0094277*
Y-0094162*
Y-0094086*
Y-0094066*
X0300887Y-0093301*
X0300982Y-0092574*
X030104Y-009223*
X0301097Y-0091924*
X0301174Y-0091618*
X030125Y-0091331*
X0301327Y-0091082*
X0301403Y-0090852*
X0301461Y-0090642*
X0301518Y-0090489*
X0301575Y-0090336*
X0301614Y-009024*
X0301633Y-0090183*
X0301652Y-0090164*
X0301977Y-0089513*
X0302322Y-0088901*
X0302666Y-0088366*
X0302857Y-0088117*
X030301Y-0087887*
X0303182Y-0087696*
X0303316Y-0087505*
X030345Y-0087352*
X0303565Y-0087237*
X0303661Y-0087122*
X0303737Y-0087046*
X0303775Y-0087007*
X0303795Y-0086988*
X0304311Y-0086491*
X0304847Y-008607*
X0305382Y-0085707*
X030588Y-0085381*
X0306109Y-0085267*
X030632Y-0085152*
X0306511Y-0085056*
X0306664Y-0084961*
X0306798Y-0084903*
X0306894Y-0084865*
X0306951Y-0084827*
X030697*
X0307659Y-0084559*
X0308348Y-0084368*
X0309017Y-0084214*
X0309323Y-0084157*
X030961Y-0084119*
X0309897Y-008408*
X0310127Y-0084061*
X0310356Y-0084042*
X0310528*
X0310681Y-0084023*
X0310892*
X0311638Y-0084061*
G37*
G36*
X0298494Y-0082829D02*
X0293787Y-008793D01*
X0293312Y-0093932*
X029833Y-0099082*
X0298051Y-0099328*
X0293263Y-0094424*
X029318Y-0095556*
X0293148Y-0095867*
X0293131Y-0096015*
Y-009613*
X0293115Y-0096228*
Y-009631*
Y-0096359*
Y-0096376*
Y-0096507*
X0293098Y-0096605*
Y-0096671*
Y-0096737*
X0293082Y-0096769*
Y-0096786*
Y-0096802*
X0293066Y-0096884*
X0293033Y-009695*
X0293017Y-0096983*
X0293Y-0096999*
X0292951Y-0097032*
X0292918Y-0097048*
X0292885Y-0097065*
Y-0097688*
X0292065*
Y-0097065*
X0288687*
X0288523Y-0097278*
X0288342Y-0097442*
X0288146Y-0097557*
X0287949Y-0097639*
X0287785Y-0097688*
X0287637Y-0097704*
X0287539Y-0097721*
X0287506*
X0287309Y-0097704*
X0287129Y-0097655*
X0286965Y-0097589*
X0286817Y-0097524*
X0286702Y-0097458*
X028662Y-0097393*
X0286571Y-0097343*
X0286555Y-0097327*
X0286424Y-0097179*
X0286325Y-0097015*
X0286243Y-0096851*
X0286194Y-0096687*
X0286161Y-0096556*
X0286145Y-0096458*
Y-0096392*
Y-0096359*
Y-0096195*
X0283193Y-0099393*
X0282865Y-0099131*
X0287211Y-0094424*
X028662Y-0088225*
X0285489*
Y-0086569*
X0285538*
X028193Y-0082879*
Y-0082288*
X0286128Y-0086569*
X0286473*
X0286407Y-0085765*
X0286309Y-0085814*
X028621Y-0085847*
X0286145Y-0085863*
X0286112*
X0286014Y-0085847*
X0285915Y-0085831*
X0285768Y-0085765*
X0285669Y-0085716*
X0285636Y-0085683*
X0285571Y-0085601*
X0285522Y-0085535*
X0285456Y-0085371*
Y-0085322*
X028544Y-0085273*
Y-008524*
Y-0085224*
X0285456Y-0085125*
X0285472Y-0085043*
X0285538Y-0084896*
X028562Y-0084814*
X0285636Y-0084781*
X0285653*
X0285735Y-0084715*
X0285801Y-0084666*
X0285948Y-0084601*
X0286014*
X0286063Y-0084584*
X0286112*
X0286227Y-0084601*
X0286325Y-008465*
X0286489Y-0084748*
X0286588Y-008483*
X0286604Y-0084863*
X028662Y-0084879*
X0286719Y-0084781*
X0286817Y-0084683*
X0287047Y-0084519*
X0287162Y-0084453*
X0287244Y-0084404*
X0287309Y-0084371*
X0287326Y-0084355*
X0287523Y-0084256*
X0287752Y-0084174*
X0287998Y-0084109*
X0288228Y-0084059*
X0288441Y-008401*
X0288621Y-0083977*
X0288687*
X0288736Y-0083961*
X0288785*
Y-0083748*
X0291065*
Y-0083879*
X0291311Y-0083912*
X0291524Y-0083928*
X0291622Y-0083945*
X0291688*
X0291721Y-0083961*
X0291737*
X029195Y-0083994*
X0292147Y-0084027*
X0292213*
X0292262Y-0084043*
X0292311*
Y-0083977*
X0293148*
Y-0084305*
X0293361Y-008442*
X0293525Y-0084535*
X0293656Y-0084633*
X0293755Y-0084732*
X0293836Y-0084814*
X0293886Y-0084879*
X0293902Y-0084912*
X0293918Y-0084929*
X0293968Y-0085027*
X0294017Y-0085109*
X029405Y-0085175*
X0294082Y-0085207*
X0294099Y-0085257*
X0294115Y-0085273*
X0294607*
Y-0085781*
X0293968*
X0293836Y-0087225*
X0298494Y-0082173*
Y-0082829*
G37*
G36*
X029792Y-0105166D02*
X0283406D01*
Y-0103001*
X029792*
Y-0105166*
G37*
%LNrobocontroller-2*%
%LPC*%
G36*
X03173Y-0087046D02*
X0316674Y-0087672D01*
X0317013Y-0087983*
X0317033Y-0088002*
X0317071Y-008804*
X0317128Y-0088098*
X0317205Y-0088194*
X0317272Y-0088261*
X031627Y-0089265*
X0317224*
Y-0098562*
X0315636*
Y-0095023*
X0314201*
X0313857Y-0095004*
X0313551Y-0094985*
X0313321Y-0094965*
X0313149Y-0094946*
X0313034Y-0094927*
X0312958Y-0094908*
X0312939*
X0312614Y-0094774*
X031248Y-0094717*
X0312365Y-009464*
X0312269Y-0094564*
X0312193Y-0094525*
X0312154Y-0094487*
X0312135Y-0094468*
X0311982Y-0094334*
X0311848Y-0094181*
X0311734Y-0094028*
X0311642Y-0093899*
X0310146Y-0095397*
Y-0098562*
X0308749*
Y-0097567*
X0308596Y-0097778*
X0308462Y-009795*
X0308328Y-0098084*
X0308194Y-0098218*
X030808Y-0098313*
X0308003Y-0098371*
X0307946Y-0098409*
X0307927Y-0098428*
X0307754Y-0098524*
X0307563Y-00986*
X030741Y-0098638*
X0307257Y-0098677*
X0307142Y-0098696*
X0307028Y-0098715*
X0306833*
X0305082Y-0100468*
X0305229Y-0100609*
X0305708Y-0100972*
X0306167Y-0101278*
X0306588Y-0101546*
X0306779Y-0101661*
X030697Y-0101757*
X0307123Y-0101833*
X0307257Y-010191*
X0307372Y-0101948*
X0307448Y-0101986*
X0307506Y-0102024*
X0307525*
X0308118Y-0102254*
X0308711Y-0102407*
X0309285Y-0102522*
X0309801Y-0102618*
X0310031Y-0102637*
X0310241Y-0102656*
X0310433Y-0102675*
X0310586*
X031072Y-0102694*
X0310892*
X0311542Y-0102656*
X0312174Y-0102579*
X0312747Y-0102484*
X0312996Y-0102426*
X0313245Y-010235*
X0313455Y-0102292*
X0313666Y-0102235*
X0313838Y-0102178*
X0313991Y-010212*
X0314106Y-0102082*
X0314182Y-0102044*
X031424Y-0102024*
X0314259*
X0314832Y-0101757*
X0315349Y-0101451*
X0315827Y-0101145*
X0316229Y-0100857*
X0316401Y-0100724*
X0316554Y-010059*
X0316688Y-0100475*
X0316803Y-0100379*
X0316899Y-0100303*
X0316956Y-0100245*
X0316994Y-0100207*
X0317013Y-0100188*
X0317434Y-0099729*
X0317798Y-009927*
X0318104Y-0098811*
X0318372Y-0098371*
X0318486Y-0098179*
X0318582Y-0097988*
X0318659Y-0097835*
X0318735Y-0097701*
X0318773Y-0097586*
X0318812Y-009751*
X031885Y-0097452*
Y-0097433*
X0319079Y-009684*
X0319233Y-0096228*
X0319347Y-0095673*
X0319443Y-0095157*
X0319462Y-0094927*
X0319481Y-0094717*
X03195Y-0094525*
Y-0094372*
X0319519Y-0094239*
Y-0094143*
Y-0094086*
Y-0094066*
X0319481Y-0093416*
X0319405Y-0092785*
X0319309Y-009223*
X0319252Y-0091962*
X0319175Y-0091733*
X0319118Y-0091503*
X031906Y-0091312*
X0319003Y-009114*
X0318946Y-0090987*
X0318907Y-0090872*
X0318869Y-0090795*
X031885Y-0090738*
Y-0090719*
X0318582Y-0090145*
X0318276Y-0089628*
X031797Y-008915*
X0317683Y-0088748*
X0317549Y-0088576*
X0317415Y-0088423*
X03173Y-0088289*
X0317272Y-0088261*
X0317874Y-0087658*
X03173Y-0087046*
G37*
G36*
X0311064Y-0085439D02*
X0310892D01*
X0310241Y-0085477*
X030961Y-0085553*
X0309036Y-0085649*
X0308787Y-0085726*
X0308539Y-0085783*
X0308328Y-008584*
X0308118Y-0085917*
X0307946Y-0085974*
X0307793Y-0086013*
X0307678Y-008607*
X0307601Y-0086089*
X0307544Y-0086127*
X0307525*
X0306951Y-0086395*
X0306434Y-0086701*
X0305956Y-0087007*
X0305555Y-0087313*
X0305382Y-0087447*
X0305229Y-0087581*
X0305095Y-0087696*
X0305Y-0087792*
X0304904Y-0087868*
X0304847Y-0087926*
X0304808Y-0087964*
X0304789Y-0087983*
X0304388Y-0088423*
X0304024Y-0088901*
X0303699Y-008936*
X0303431Y-0089781*
X0303335Y-0089973*
X030324Y-0090164*
X0303144Y-0090317*
X0303087Y-0090451*
X0303029Y-0090566*
X0302991Y-0090642*
X0302953Y-0090699*
Y-0090719*
X0302723Y-0091312*
X0302551Y-0091905*
X0302436Y-0092459*
X0302341Y-0092976*
X0302322Y-0093205*
X0302302Y-0093416*
X0302283Y-0093607*
Y-009376*
X0302264Y-0093894*
Y-009399*
Y-0094047*
Y-0094066*
X0302302Y-0094717*
X0302379Y-0095348*
X0302475Y-0095922*
X0302551Y-0096171*
X0302608Y-0096419*
X0302666Y-009663*
X0302742Y-009684*
X03028Y-0097012*
X0302838Y-0097165*
X0302895Y-009728*
X0302915Y-0097357*
X0302953Y-0097414*
Y-0097433*
X0303221Y-0098007*
X0303527Y-0098524*
X0303833Y-0099002*
X030412Y-0099404*
X0304273Y-0099576*
X0304388Y-0099729*
X0304502Y-0099862*
X0305957Y-0098405*
X0306014Y-0098447*
X0306301Y-0098581*
X0306607Y-0098677*
X0306779Y-0098715*
X0306833*
X0310146Y-0095397*
Y-009421*
X0311306Y-0093049*
X0311313Y-0093091*
X0311389Y-0093339*
X0311466Y-0093569*
X0311485Y-0093588*
X0311504Y-0093665*
X0311561Y-009376*
X0311638Y-0093894*
X0311642Y-0093899*
X0312905Y-0092634*
X0312881Y-0092574*
X0312862Y-009244*
X0312843Y-0092153*
Y-0092134*
Y-0092077*
X0312862Y-0092*
Y-0091886*
X03129Y-0091752*
X0312939Y-0091599*
X0312977Y-0091446*
X0313047Y-0091305*
X0313173Y-0091179*
X0313226Y-009114*
X0313321Y-0091063*
X0313455Y-0091006*
X0313589Y-0090948*
X0313742Y-009091*
X0313761Y-0090891*
X0313838Y-0090872*
X0313972Y-0090852*
X0314684*
X031627Y-0089265*
X0315084*
X0313173Y-0091179*
X0313149Y-0091197*
X0313092Y-0091254*
X0313073Y-0091273*
X0313053Y-0091293*
X0313047Y-0091305*
X0311306Y-0093049*
X0311274Y-0092861*
X0311255Y-0092632*
X0311236Y-0092421*
X0311217Y-0092268*
Y-0092153*
Y-0092115*
X0311236Y-0091733*
X0311294Y-0091388*
X0311351Y-0091082*
X0311427Y-0090814*
X0311523Y-0090604*
X031158Y-0090451*
X0311638Y-0090355*
X0311657Y-0090317*
X0311829Y-0090087*
X0312001Y-0089877*
X0312193Y-0089724*
X0312384Y-0089609*
X0312537Y-0089513*
X0312671Y-0089456*
X0312747Y-0089437*
X0312786Y-0089418*
X0312881Y-0089399*
X0312977Y-008936*
X0313245Y-0089322*
X031357Y-0089303*
X0313876Y-0089284*
X0314182Y-0089265*
X0315084*
X0316674Y-0087672*
X0316554Y-0087562*
X0316095Y-0087199*
X0315636Y-0086874*
X0315196Y-0086625*
X0315005Y-008651*
X0314813Y-0086414*
X031466Y-0086319*
X0314527Y-0086261*
X0314412Y-0086204*
X0314335Y-0086166*
X0314278Y-0086127*
X0314259*
X0313666Y-0085898*
X0313053Y-0085726*
X0312499Y-0085611*
X0311982Y-0085515*
X0311753Y-0085496*
X0311542Y-0085477*
X0311351Y-0085458*
X0311198*
X0311064Y-0085439*
G37*
G36*
X0315636Y-0090852D02*
X0314684D01*
X0312905Y-0092634*
X0312919Y-009267*
X0312939Y-0092746*
X0312977Y-0092804*
X0312996Y-0092842*
Y-0092861*
X0313168Y-0093072*
X031334Y-0093205*
X0313417Y-0093263*
X0313474Y-0093301*
X0313513Y-009332*
X0313532*
X0313647Y-0093359*
X0313819Y-0093397*
X0314029Y-0093416*
X031424Y-0093435*
X031445Y-0093454*
X0315636*
Y-0090852*
G37*
G36*
X0304502Y-0099862D02*
X030389Y-0100475D01*
X0304483Y-0101068*
X0305082Y-0100468*
X0304789Y-0100188*
X030477Y-0100169*
X0304732Y-0100131*
X0304675Y-0100073*
X0304598Y-0099978*
X0304502Y-0099863*
Y-0099862*
G37*
G36*
X0293525Y-0085781D02*
X0286834D01*
X0286883Y-0086569*
X0287112*
Y-0087602*
X0288261Y-008875*
Y-0088209*
X0291114*
Y-0089143*
X0288621*
X0290409Y-009098*
X0293361Y-0087766*
X0293525Y-0085781*
G37*
G36*
X0285915Y-0086946D02*
Y-0087848D01*
X0286571*
Y-0087618*
X0285915Y-0086946*
G37*
G36*
X0290425Y-0091538D02*
X0287604Y-0094588D01*
X0287654Y-0095015*
X028785Y-0095047*
X0288015Y-0095097*
X0288178Y-0095162*
X028831Y-0095244*
X0288408Y-009531*
X028849Y-0095359*
X0288539Y-0095408*
X0288556Y-0095425*
X028867Y-0095572*
X0288753Y-009572*
X0288818Y-0095884*
X0288851Y-0096031*
X0288884Y-0096163*
X02889Y-0096261*
Y-0096327*
Y-0096359*
Y-0096441*
Y-0096458*
Y-0096474*
X0288884Y-009654*
Y-0096556*
Y-0096573*
X0292639*
X029282Y-0094031*
X0290425Y-0091538*
G37*
G36*
X0287555Y-0095605D02*
X0287506D01*
X0287391Y-0095621*
X0287309Y-0095638*
X0287145Y-009572*
X028708Y-0095769*
X0287031Y-0095802*
X0287014Y-0095818*
X0286998Y-0095835*
X0286932Y-0095917*
X0286866Y-0095999*
X0286817Y-0096179*
X0286801Y-0096245*
X0286785Y-009631*
Y-0096343*
Y-0096359*
X0286801Y-0096474*
X0286817Y-0096573*
X0286883Y-0096737*
X0286932Y-0096802*
X0286965Y-0096835*
X0286981Y-0096868*
X0286998Y-0096884*
X028708Y-009695*
X0287162Y-0096999*
X0287326Y-0097065*
X0287408Y-0097081*
X0287457Y-0097097*
X0287506*
X0287621Y-0097081*
X0287719Y-0097065*
X02879Y-0096983*
X0287965Y-009695*
X0287998Y-0096917*
X0288031Y-0096901*
X0288047Y-0096884*
X0288113Y-0096802*
X0288162Y-0096704*
X0288228Y-009654*
X0288244Y-0096458*
X0288261Y-0096409*
Y-0096376*
Y-0096359*
X0288244Y-0096245*
X0288228Y-0096146*
X0288146Y-0095982*
X0288096Y-0095917*
X0288064Y-0095867*
X0288047Y-0095851*
X0288031Y-0095835*
X0287949Y-0095753*
X028785Y-0095703*
X0287686Y-0095638*
X0287604Y-0095621*
X0287555Y-0095605*
G37*
G36*
X0293312Y-0088438D02*
X0290688Y-0091259D01*
X0292885Y-0093489*
X0293312Y-0088438*
G37*
G36*
X0287112Y-0088159D02*
Y-0088225D01*
X0287063*
X0287555Y-0094031*
X0290146Y-0091259*
X0287112Y-0088159*
G37*
G36*
X0293164Y-008483D02*
X0293148D01*
Y-0085273*
X029359*
X0293574Y-0085224*
X0293541Y-0085158*
X0293525Y-0085109*
X0293509Y-0085093*
X029341Y-0084994*
X0293295Y-0084912*
X0293197Y-0084847*
X0293164Y-008483*
G37*
G36*
X0290638Y-0084125D02*
X0289179D01*
Y-0084469*
X0290638*
Y-0084125*
G37*
G36*
X029118Y-0084355D02*
X0291065D01*
Y-008483*
X0288785*
Y-0084404*
X0288572Y-0084437*
X0288375Y-0084486*
X0288211Y-0084519*
X0288064Y-0084551*
X0287949Y-0084584*
X0287867Y-0084617*
X0287818Y-0084633*
X0287801*
X028767Y-0084683*
X0287555Y-0084715*
X0287457Y-0084765*
X0287375Y-0084797*
X0287309Y-008483*
X028726Y-0084863*
X0287244Y-0084879*
X0287227*
X0287096Y-0084978*
X0287014Y-0085043*
X0286965Y-0085109*
X0286948Y-0085125*
X0286899Y-0085191*
X0286866Y-008524*
X028685Y-0085257*
Y-0085273*
X0292311*
Y-0084519*
X0292114Y-0084469*
X0291901Y-0084437*
X0291688Y-0084404*
X0291491Y-0084387*
X0291327Y-0084371*
X029118Y-0084355*
G37*
%LNrobocontroller-3*%
%LPD*%
G36*
X0310146Y-009421D02*
X030866Y-0095698D01*
X0308634Y-0095865*
X0308577Y-0096132*
X0308501Y-0096381*
X0308405Y-0096611*
X0308386Y-0096649*
X0308328Y-0096725*
X0308252Y-009684*
X0308137Y-0096974*
X0307984Y-0097108*
X0307793Y-0097223*
X0307582Y-009728*
X0307334Y-0097299*
X0307257*
X0307161Y-009728*
X0307103Y-0097257*
X0305957Y-0098405*
X0305784Y-0098275*
X0305574Y-0098103*
X030544Y-009795*
X0305344Y-0097835*
X0305306Y-0097816*
Y-0097797*
X0305076Y-0097414*
X0304904Y-0096993*
X030477Y-0096534*
X0304694Y-0096113*
X0304636Y-0095731*
X0304617Y-0095559*
Y-0095425*
X0304598Y-009531*
Y-0095214*
Y-0095157*
Y-0095138*
Y-0094832*
X0304636Y-0094545*
X0304655Y-0094258*
X0304713Y-0094009*
X0304751Y-0093779*
X0304808Y-0093569*
X0304885Y-0093378*
X0304942Y-0093205*
X0305Y-0093053*
X0305076Y-0092919*
X0305134Y-0092804*
X0305172Y-0092727*
X0305229Y-0092651*
X0305248Y-0092593*
X0305287Y-0092574*
Y-0092555*
X0305421Y-0092402*
X0305555Y-0092268*
X0305822Y-0092039*
X0306109Y-0091886*
X0306377Y-009179*
X0306607Y-0091713*
X0306798Y-0091694*
X0306874Y-0091675*
X0307142*
X0307314Y-0091713*
X030764Y-0091809*
X0307927Y-0091962*
X0308175Y-0092134*
X0308367Y-0092306*
X030852Y-0092459*
X0308615Y-0092574*
X0308654Y-0092593*
Y-0089265*
X0310146*
Y-009421*
G37*
G36*
X0287637Y-0095917D02*
X0287752Y-0095966D01*
X0287834Y-0096015*
X0287867Y-0096031*
X0287949Y-009613*
X0287998Y-0096245*
X0288015Y-0096327*
Y-0096343*
Y-0096359*
X0287998Y-0096491*
X0287932Y-0096605*
X0287883Y-0096671*
X0287867Y-0096704*
X0287736Y-0096786*
X0287621Y-0096835*
X0287539Y-0096851*
X0287506*
X0287358Y-0096819*
X0287244Y-0096753*
X0287178Y-0096671*
X0287112Y-0096589*
X028708Y-0096507*
X0287063Y-0096425*
Y-0096376*
Y-0096359*
X028708Y-0096228*
X0287129Y-0096113*
X0287178Y-0096048*
X0287194Y-0096031*
X0287293Y-0095949*
X0287391Y-0095917*
X0287473Y-00959*
X0287506*
X0287637Y-0095917*
G37*
%LNrobocontroller-4*%
%LPC*%
G36*
X0307487Y-0093072D02*
X0307391D01*
X0307181Y-0093091*
X0307008Y-0093148*
X0306855Y-0093225*
X0306741Y-0093301*
X0306645Y-0093397*
X0306568Y-0093473*
X030653Y-0093531*
X0306511Y-009355*
X0306377Y-009376*
X0306281Y-0094028*
X0306224Y-0094296*
X0306167Y-0094564*
X0306148Y-0094813*
X0306128Y-0095023*
Y-0095099*
Y-0095157*
Y-0095195*
Y-0095214*
X0306148Y-0095616*
X0306205Y-0095941*
X0306262Y-0096228*
X030632Y-0096438*
X0306396Y-0096611*
X0306454Y-0096706*
X0306492Y-0096783*
X0306511Y-0096802*
X0306645Y-0096974*
X0306798Y-0097089*
X0306932Y-0097185*
X0307066Y-0097242*
X0307103Y-0097257*
X030866Y-0095698*
X0308673Y-0095616*
X0308692Y-0095386*
X0308711Y-0095195*
Y-0095118*
Y-0095061*
Y-0095042*
Y-0095023*
X0308692Y-0094678*
X0308654Y-0094372*
X0308577Y-0094124*
X0308501Y-0093913*
X0308424Y-009376*
X0308348Y-0093646*
X0308309Y-0093569*
X030829Y-009355*
X0308175Y-0093397*
X0308041Y-0093282*
X0307888Y-0093186*
X0307735Y-0093129*
X0307601Y-0093091*
X0307487Y-0093072*
G37*
%LNrobocontroller-5*%
%LPD*%
G54D56*
X0059242Y-0041929D02*
D01*
X0059232Y-0041661*
X0059204Y-0041396*
X0059158Y-0041133*
X0059093Y-0040873*
X0059011Y-0040619*
X0058911Y-0040372*
X0058793Y-0040131*
X005866Y-00399*
X005851Y-0039678*
X0058346Y-0039468*
X0058167Y-0039269*
X0057975Y-0039084*
X005777Y-0038912*
X0057554Y-0038755*
X0057328Y-0038613*
X0057092Y-0038488*
X0056847Y-0038379*
X0056596Y-0038288*
X005634Y-0038214*
X0056078Y-0038159*
X0055814Y-0038121*
X0055547Y-0038103*
X005528*
X0055013Y-0038121*
X0054749Y-0038159*
X0054487Y-0038214*
X0054231Y-0038288*
X005398Y-0038379*
X0053735Y-0038488*
X0053499Y-0038613*
X0053273Y-0038755*
X0053057Y-0038912*
X0052852Y-0039084*
X005266Y-0039269*
X0052481Y-0039468*
X0052317Y-0039678*
X0052167Y-00399*
X0052034Y-0040131*
X0051916Y-0040372*
X0051816Y-0040619*
X0051734Y-0040873*
X0051669Y-0041133*
X0051623Y-0041396*
X0051595Y-0041661*
X0051586Y-0041929*
X0051595Y-0042196*
X0051623Y-0042461*
X0051669Y-0042724*
X0051734Y-0042984*
X0051816Y-0043238*
X0051916Y-0043485*
X0052034Y-0043726*
X0052167Y-0043957*
X0052317Y-0044179*
X0052481Y-0044389*
X005266Y-0044588*
X0052852Y-0044773*
X0053057Y-0044945*
X0053273Y-0045102*
X00535Y-0045244*
X0053735Y-0045369*
X005398Y-0045478*
X0054231Y-0045569*
X0054487Y-0045643*
X0054749Y-0045698*
X0055013Y-0045736*
X005528Y-0045754*
X0055547*
X0055814Y-0045736*
X0056078Y-0045698*
X005634Y-0045643*
X0056596Y-0045569*
X0056847Y-0045478*
X0057092Y-0045369*
X0057328Y-0045244*
X0057554Y-0045102*
X005777Y-0044945*
X0057975Y-0044773*
X0058167Y-0044588*
X0058346Y-0044389*
X005851Y-0044179*
X005866Y-0043957*
X0058793Y-0043726*
X0058911Y-0043485*
X0059011Y-0043238*
X0059093Y-0042984*
X0059158Y-0042724*
X0059204Y-0042461*
X0059232Y-0042196*
X0059242Y-0041929*
X0069084D02*
D01*
X0069074Y-0041661*
X0069046Y-0041396*
X0069Y-0041133*
X0068935Y-0040873*
X0068853Y-0040619*
X0068753Y-0040372*
X0068635Y-0040131*
X0068502Y-00399*
X0068352Y-0039678*
X0068188Y-0039468*
X0068009Y-0039269*
X0067817Y-0039084*
X0067612Y-0038912*
X0067396Y-0038755*
X006717Y-0038613*
X0066934Y-0038488*
X0066689Y-0038379*
X0066438Y-0038288*
X0066182Y-0038214*
X006592Y-0038159*
X0065656Y-0038121*
X0065389Y-0038103*
X0065122*
X0064855Y-0038121*
X0064591Y-0038159*
X0064329Y-0038214*
X0064073Y-0038288*
X0063822Y-0038379*
X0063577Y-0038488*
X0063341Y-0038613*
X0063115Y-0038755*
X0062899Y-0038912*
X0062694Y-0039084*
X0062502Y-0039269*
X0062323Y-0039468*
X0062159Y-0039678*
X0062009Y-00399*
X0061876Y-0040131*
X0061758Y-0040372*
X0061658Y-0040619*
X0061576Y-0040873*
X0061511Y-0041133*
X0061465Y-0041396*
X0061437Y-0041661*
X0061428Y-0041929*
X0061437Y-0042196*
X0061465Y-0042461*
X0061511Y-0042724*
X0061576Y-0042984*
X0061658Y-0043238*
X0061758Y-0043485*
X0061876Y-0043726*
X0062009Y-0043957*
X0062159Y-0044179*
X0062323Y-0044389*
X0062502Y-0044588*
X0062694Y-0044773*
X0062899Y-0044945*
X0063115Y-0045102*
X0063342Y-0045244*
X0063577Y-0045369*
X0063822Y-0045478*
X0064073Y-0045569*
X0064329Y-0045643*
X0064591Y-0045698*
X0064855Y-0045736*
X0065122Y-0045754*
X0065389*
X0065656Y-0045736*
X006592Y-0045698*
X0066182Y-0045643*
X0066438Y-0045569*
X0066689Y-0045478*
X0066934Y-0045369*
X006717Y-0045244*
X0067396Y-0045102*
X0067612Y-0044945*
X0067817Y-0044773*
X0068009Y-0044588*
X0068188Y-0044389*
X0068352Y-0044179*
X0068502Y-0043957*
X0068635Y-0043726*
X0068753Y-0043485*
X0068853Y-0043238*
X0068935Y-0042984*
X0069Y-0042724*
X0069046Y-0042461*
X0069074Y-0042196*
X0069084Y-0041929*
X0059242Y-0055709D02*
D01*
X0059232Y-0055441*
X0059204Y-0055176*
X0059158Y-0054913*
X0059093Y-0054653*
X0059011Y-0054399*
X0058911Y-0054152*
X0058793Y-0053911*
X005866Y-005368*
X005851Y-0053458*
X0058346Y-0053248*
X0058167Y-0053049*
X0057975Y-0052864*
X005777Y-0052692*
X0057554Y-0052535*
X0057328Y-0052393*
X0057092Y-0052268*
X0056847Y-0052159*
X0056596Y-0052068*
X005634Y-0051994*
X0056078Y-0051939*
X0055814Y-0051901*
X0055547Y-0051883*
X005528*
X0055013Y-0051901*
X0054749Y-0051939*
X0054487Y-0051994*
X0054231Y-0052068*
X005398Y-0052159*
X0053735Y-0052268*
X0053499Y-0052393*
X0053273Y-0052535*
X0053057Y-0052692*
X0052852Y-0052864*
X005266Y-0053049*
X0052481Y-0053248*
X0052317Y-0053458*
X0052167Y-005368*
X0052034Y-0053911*
X0051916Y-0054152*
X0051816Y-0054399*
X0051734Y-0054653*
X0051669Y-0054913*
X0051623Y-0055176*
X0051595Y-0055441*
X0051586Y-0055709*
X0051595Y-0055976*
X0051623Y-0056241*
X0051669Y-0056504*
X0051734Y-0056764*
X0051816Y-0057018*
X0051916Y-0057265*
X0052034Y-0057506*
X0052167Y-0057737*
X0052317Y-0057959*
X0052481Y-0058169*
X005266Y-0058368*
X0052852Y-0058553*
X0053057Y-0058725*
X0053273Y-0058882*
X00535Y-0059024*
X0053735Y-0059149*
X005398Y-0059258*
X0054231Y-0059349*
X0054487Y-0059423*
X0054749Y-0059478*
X0055013Y-0059516*
X005528Y-0059534*
X0055547*
X0055814Y-0059516*
X0056078Y-0059478*
X005634Y-0059423*
X0056596Y-0059349*
X0056847Y-0059258*
X0057092Y-0059149*
X0057328Y-0059024*
X0057554Y-0058882*
X005777Y-0058725*
X0057975Y-0058553*
X0058167Y-0058368*
X0058346Y-0058169*
X005851Y-0057959*
X005866Y-0057737*
X0058793Y-0057506*
X0058911Y-0057265*
X0059011Y-0057018*
X0059093Y-0056764*
X0059158Y-0056504*
X0059204Y-0056241*
X0059232Y-0055976*
X0059242Y-0055709*
X0069084D02*
D01*
X0069074Y-0055441*
X0069046Y-0055176*
X0069Y-0054913*
X0068935Y-0054653*
X0068853Y-0054399*
X0068753Y-0054152*
X0068635Y-0053911*
X0068502Y-005368*
X0068352Y-0053458*
X0068188Y-0053248*
X0068009Y-0053049*
X0067817Y-0052864*
X0067612Y-0052692*
X0067396Y-0052535*
X006717Y-0052393*
X0066934Y-0052268*
X0066689Y-0052159*
X0066438Y-0052068*
X0066182Y-0051994*
X006592Y-0051939*
X0065656Y-0051901*
X0065389Y-0051883*
X0065122*
X0064855Y-0051901*
X0064591Y-0051939*
X0064329Y-0051994*
X0064073Y-0052068*
X0063822Y-0052159*
X0063577Y-0052268*
X0063341Y-0052393*
X0063115Y-0052535*
X0062899Y-0052692*
X0062694Y-0052864*
X0062502Y-0053049*
X0062323Y-0053248*
X0062159Y-0053458*
X0062009Y-005368*
X0061876Y-0053911*
X0061758Y-0054152*
X0061658Y-0054399*
X0061576Y-0054653*
X0061511Y-0054913*
X0061465Y-0055176*
X0061437Y-0055441*
X0061428Y-0055709*
X0061437Y-0055976*
X0061465Y-0056241*
X0061511Y-0056504*
X0061576Y-0056764*
X0061658Y-0057018*
X0061758Y-0057265*
X0061876Y-0057506*
X0062009Y-0057737*
X0062159Y-0057959*
X0062323Y-0058169*
X0062502Y-0058368*
X0062694Y-0058553*
X0062899Y-0058725*
X0063115Y-0058882*
X0063342Y-0059024*
X0063577Y-0059149*
X0063822Y-0059258*
X0064073Y-0059349*
X0064329Y-0059423*
X0064591Y-0059478*
X0064855Y-0059516*
X0065122Y-0059534*
X0065389*
X0065656Y-0059516*
X006592Y-0059478*
X0066182Y-0059423*
X0066438Y-0059349*
X0066689Y-0059258*
X0066934Y-0059149*
X006717Y-0059024*
X0067396Y-0058882*
X0067612Y-0058725*
X0067817Y-0058553*
X0068009Y-0058368*
X0068188Y-0058169*
X0068352Y-0057959*
X0068502Y-0057737*
X0068635Y-0057506*
X0068753Y-0057265*
X0068853Y-0057018*
X0068935Y-0056764*
X0069Y-0056504*
X0069046Y-0056241*
X0069074Y-0055976*
X0069084Y-0055709*
X0059242Y-0069488D02*
D01*
X0059232Y-006922*
X0059204Y-0068955*
X0059158Y-0068692*
X0059093Y-0068432*
X0059011Y-0068178*
X0058911Y-0067931*
X0058793Y-006769*
X005866Y-0067459*
X005851Y-0067237*
X0058346Y-0067027*
X0058167Y-0066828*
X0057975Y-0066643*
X005777Y-0066471*
X0057554Y-0066314*
X0057328Y-0066172*
X0057092Y-0066047*
X0056847Y-0065938*
X0056596Y-0065847*
X005634Y-0065773*
X0056078Y-0065718*
X0055814Y-006568*
X0055547Y-0065662*
X005528*
X0055013Y-006568*
X0054749Y-0065718*
X0054487Y-0065773*
X0054231Y-0065847*
X005398Y-0065938*
X0053735Y-0066047*
X0053499Y-0066172*
X0053273Y-0066314*
X0053057Y-0066471*
X0052852Y-0066643*
X005266Y-0066828*
X0052481Y-0067027*
X0052317Y-0067237*
X0052167Y-0067459*
X0052034Y-006769*
X0051916Y-0067931*
X0051816Y-0068178*
X0051734Y-0068432*
X0051669Y-0068692*
X0051623Y-0068955*
X0051595Y-006922*
X0051586Y-0069488*
X0051595Y-0069755*
X0051623Y-007002*
X0051669Y-0070283*
X0051734Y-0070543*
X0051816Y-0070797*
X0051916Y-0071044*
X0052034Y-0071285*
X0052167Y-0071516*
X0052317Y-0071738*
X0052481Y-0071948*
X005266Y-0072147*
X0052852Y-0072332*
X0053057Y-0072504*
X0053273Y-0072661*
X00535Y-0072803*
X0053735Y-0072928*
X005398Y-0073037*
X0054231Y-0073128*
X0054487Y-0073202*
X0054749Y-0073257*
X0055013Y-0073295*
X005528Y-0073313*
X0055547*
X0055814Y-0073295*
X0056078Y-0073257*
X005634Y-0073202*
X0056596Y-0073128*
X0056847Y-0073037*
X0057092Y-0072928*
X0057328Y-0072803*
X0057554Y-0072661*
X005777Y-0072504*
X0057975Y-0072332*
X0058167Y-0072147*
X0058346Y-0071948*
X005851Y-0071738*
X005866Y-0071516*
X0058793Y-0071285*
X0058911Y-0071044*
X0059011Y-0070797*
X0059093Y-0070543*
X0059158Y-0070283*
X0059204Y-007002*
X0059232Y-0069755*
X0059242Y-0069488*
X0069084D02*
D01*
X0069074Y-006922*
X0069046Y-0068955*
X0069Y-0068692*
X0068935Y-0068432*
X0068853Y-0068178*
X0068753Y-0067931*
X0068635Y-006769*
X0068502Y-0067459*
X0068352Y-0067237*
X0068188Y-0067027*
X0068009Y-0066828*
X0067817Y-0066643*
X0067612Y-0066471*
X0067396Y-0066314*
X006717Y-0066172*
X0066934Y-0066047*
X0066689Y-0065938*
X0066438Y-0065847*
X0066182Y-0065773*
X006592Y-0065718*
X0065656Y-006568*
X0065389Y-0065662*
X0065122*
X0064855Y-006568*
X0064591Y-0065718*
X0064329Y-0065773*
X0064073Y-0065847*
X0063822Y-0065938*
X0063577Y-0066047*
X0063341Y-0066172*
X0063115Y-0066314*
X0062899Y-0066471*
X0062694Y-0066643*
X0062502Y-0066828*
X0062323Y-0067027*
X0062159Y-0067237*
X0062009Y-0067459*
X0061876Y-006769*
X0061758Y-0067931*
X0061658Y-0068178*
X0061576Y-0068432*
X0061511Y-0068692*
X0061465Y-0068955*
X0061437Y-006922*
X0061428Y-0069488*
X0061437Y-0069755*
X0061465Y-007002*
X0061511Y-0070283*
X0061576Y-0070543*
X0061658Y-0070797*
X0061758Y-0071044*
X0061876Y-0071285*
X0062009Y-0071516*
X0062159Y-0071738*
X0062323Y-0071948*
X0062502Y-0072147*
X0062694Y-0072332*
X0062899Y-0072504*
X0063115Y-0072661*
X0063342Y-0072803*
X0063577Y-0072928*
X0063822Y-0073037*
X0064073Y-0073128*
X0064329Y-0073202*
X0064591Y-0073257*
X0064855Y-0073295*
X0065122Y-0073313*
X0065389*
X0065656Y-0073295*
X006592Y-0073257*
X0066182Y-0073202*
X0066438Y-0073128*
X0066689Y-0073037*
X0066934Y-0072928*
X006717Y-0072803*
X0067396Y-0072661*
X0067612Y-0072504*
X0067817Y-0072332*
X0068009Y-0072147*
X0068188Y-0071948*
X0068352Y-0071738*
X0068502Y-0071516*
X0068635Y-0071285*
X0068753Y-0071044*
X0068853Y-0070797*
X0068935Y-0070543*
X0069Y-0070283*
X0069046Y-007002*
X0069074Y-0069755*
X0069084Y-0069488*
X0059242Y-0083268D02*
D01*
X0059232Y-0083*
X0059204Y-0082735*
X0059158Y-0082472*
X0059093Y-0082212*
X0059011Y-0081958*
X0058911Y-0081711*
X0058793Y-008147*
X005866Y-0081239*
X005851Y-0081017*
X0058346Y-0080807*
X0058167Y-0080608*
X0057975Y-0080423*
X005777Y-0080251*
X0057554Y-0080094*
X0057328Y-0079952*
X0057092Y-0079827*
X0056847Y-0079718*
X0056596Y-0079627*
X005634Y-0079553*
X0056078Y-0079498*
X0055814Y-007946*
X0055547Y-0079442*
X005528*
X0055013Y-007946*
X0054749Y-0079498*
X0054487Y-0079553*
X0054231Y-0079627*
X005398Y-0079718*
X0053735Y-0079827*
X0053499Y-0079952*
X0053273Y-0080094*
X0053057Y-0080251*
X0052852Y-0080423*
X005266Y-0080608*
X0052481Y-0080807*
X0052317Y-0081017*
X0052167Y-0081239*
X0052034Y-008147*
X0051916Y-0081711*
X0051816Y-0081958*
X0051734Y-0082212*
X0051669Y-0082472*
X0051623Y-0082735*
X0051595Y-0083*
X0051586Y-0083268*
X0051595Y-0083535*
X0051623Y-00838*
X0051669Y-0084063*
X0051734Y-0084323*
X0051816Y-0084577*
X0051916Y-0084824*
X0052034Y-0085065*
X0052167Y-0085296*
X0052317Y-0085518*
X0052481Y-0085728*
X005266Y-0085927*
X0052852Y-0086112*
X0053057Y-0086284*
X0053273Y-0086441*
X00535Y-0086583*
X0053735Y-0086708*
X005398Y-0086817*
X0054231Y-0086908*
X0054487Y-0086982*
X0054749Y-0087037*
X0055013Y-0087075*
X005528Y-0087093*
X0055547*
X0055814Y-0087075*
X0056078Y-0087037*
X005634Y-0086982*
X0056596Y-0086908*
X0056847Y-0086817*
X0057092Y-0086708*
X0057328Y-0086583*
X0057554Y-0086441*
X005777Y-0086284*
X0057975Y-0086112*
X0058167Y-0085927*
X0058346Y-0085728*
X005851Y-0085518*
X005866Y-0085296*
X0058793Y-0085065*
X0058911Y-0084824*
X0059011Y-0084577*
X0059093Y-0084323*
X0059158Y-0084063*
X0059204Y-00838*
X0059232Y-0083535*
X0059242Y-0083268*
X0069084D02*
D01*
X0069074Y-0083*
X0069046Y-0082735*
X0069Y-0082472*
X0068935Y-0082212*
X0068853Y-0081958*
X0068753Y-0081711*
X0068635Y-008147*
X0068502Y-0081239*
X0068352Y-0081017*
X0068188Y-0080807*
X0068009Y-0080608*
X0067817Y-0080423*
X0067612Y-0080251*
X0067396Y-0080094*
X006717Y-0079952*
X0066934Y-0079827*
X0066689Y-0079718*
X0066438Y-0079627*
X0066182Y-0079553*
X006592Y-0079498*
X0065656Y-007946*
X0065389Y-0079442*
X0065122*
X0064855Y-007946*
X0064591Y-0079498*
X0064329Y-0079553*
X0064073Y-0079627*
X0063822Y-0079718*
X0063577Y-0079827*
X0063341Y-0079952*
X0063115Y-0080094*
X0062899Y-0080251*
X0062694Y-0080423*
X0062502Y-0080608*
X0062323Y-0080807*
X0062159Y-0081017*
X0062009Y-0081239*
X0061876Y-008147*
X0061758Y-0081711*
X0061658Y-0081958*
X0061576Y-0082212*
X0061511Y-0082472*
X0061465Y-0082735*
X0061437Y-0083*
X0061428Y-0083268*
X0061437Y-0083535*
X0061465Y-00838*
X0061511Y-0084063*
X0061576Y-0084323*
X0061658Y-0084577*
X0061758Y-0084824*
X0061876Y-0085065*
X0062009Y-0085296*
X0062159Y-0085518*
X0062323Y-0085728*
X0062502Y-0085927*
X0062694Y-0086112*
X0062899Y-0086284*
X0063115Y-0086441*
X0063342Y-0086583*
X0063577Y-0086708*
X0063822Y-0086817*
X0064073Y-0086908*
X0064329Y-0086982*
X0064591Y-0087037*
X0064855Y-0087075*
X0065122Y-0087093*
X0065389*
X0065656Y-0087075*
X006592Y-0087037*
X0066182Y-0086982*
X0066438Y-0086908*
X0066689Y-0086817*
X0066934Y-0086708*
X006717Y-0086583*
X0067396Y-0086441*
X0067612Y-0086284*
X0067817Y-0086112*
X0068009Y-0085927*
X0068188Y-0085728*
X0068352Y-0085518*
X0068502Y-0085296*
X0068635Y-0085065*
X0068753Y-0084824*
X0068853Y-0084577*
X0068935Y-0084323*
X0069Y-0084063*
X0069046Y-00838*
X0069074Y-0083535*
X0069084Y-0083268*
X0059242Y-0097047D02*
D01*
X0059232Y-0096779*
X0059204Y-0096514*
X0059158Y-0096251*
X0059093Y-0095991*
X0059011Y-0095737*
X0058911Y-009549*
X0058793Y-0095249*
X005866Y-0095018*
X005851Y-0094796*
X0058346Y-0094586*
X0058167Y-0094387*
X0057975Y-0094202*
X005777Y-009403*
X0057554Y-0093873*
X0057328Y-0093731*
X0057092Y-0093606*
X0056847Y-0093497*
X0056596Y-0093406*
X005634Y-0093332*
X0056078Y-0093277*
X0055814Y-0093239*
X0055547Y-0093221*
X005528*
X0055013Y-0093239*
X0054749Y-0093277*
X0054487Y-0093332*
X0054231Y-0093406*
X005398Y-0093497*
X0053735Y-0093606*
X0053499Y-0093731*
X0053273Y-0093873*
X0053057Y-009403*
X0052852Y-0094202*
X005266Y-0094387*
X0052481Y-0094586*
X0052317Y-0094796*
X0052167Y-0095018*
X0052034Y-0095249*
X0051916Y-009549*
X0051816Y-0095737*
X0051734Y-0095991*
X0051669Y-0096251*
X0051623Y-0096514*
X0051595Y-0096779*
X0051586Y-0097047*
X0051595Y-0097314*
X0051623Y-0097579*
X0051669Y-0097842*
X0051734Y-0098102*
X0051816Y-0098356*
X0051916Y-0098603*
X0052034Y-0098844*
X0052167Y-0099075*
X0052317Y-0099297*
X0052481Y-0099507*
X005266Y-0099706*
X0052852Y-0099891*
X0053057Y-0100063*
X0053273Y-010022*
X00535Y-0100362*
X0053735Y-0100487*
X005398Y-0100596*
X0054231Y-0100687*
X0054487Y-0100761*
X0054749Y-0100816*
X0055013Y-0100854*
X005528Y-0100872*
X0055547*
X0055814Y-0100854*
X0056078Y-0100816*
X005634Y-0100761*
X0056596Y-0100687*
X0056847Y-0100596*
X0057092Y-0100487*
X0057328Y-0100362*
X0057554Y-010022*
X005777Y-0100063*
X0057975Y-0099891*
X0058167Y-0099706*
X0058346Y-0099507*
X005851Y-0099297*
X005866Y-0099075*
X0058793Y-0098844*
X0058911Y-0098603*
X0059011Y-0098356*
X0059093Y-0098102*
X0059158Y-0097842*
X0059204Y-0097579*
X0059232Y-0097314*
X0059242Y-0097047*
X0069084D02*
D01*
X0069074Y-0096779*
X0069046Y-0096514*
X0069Y-0096251*
X0068935Y-0095991*
X0068853Y-0095737*
X0068753Y-009549*
X0068635Y-0095249*
X0068502Y-0095018*
X0068352Y-0094796*
X0068188Y-0094586*
X0068009Y-0094387*
X0067817Y-0094202*
X0067612Y-009403*
X0067396Y-0093873*
X006717Y-0093731*
X0066934Y-0093606*
X0066689Y-0093497*
X0066438Y-0093406*
X0066182Y-0093332*
X006592Y-0093277*
X0065656Y-0093239*
X0065389Y-0093221*
X0065122*
X0064855Y-0093239*
X0064591Y-0093277*
X0064329Y-0093332*
X0064073Y-0093406*
X0063822Y-0093497*
X0063577Y-0093606*
X0063341Y-0093731*
X0063115Y-0093873*
X0062899Y-009403*
X0062694Y-0094202*
X0062502Y-0094387*
X0062323Y-0094586*
X0062159Y-0094796*
X0062009Y-0095018*
X0061876Y-0095249*
X0061758Y-009549*
X0061658Y-0095737*
X0061576Y-0095991*
X0061511Y-0096251*
X0061465Y-0096514*
X0061437Y-0096779*
X0061428Y-0097047*
X0061437Y-0097314*
X0061465Y-0097579*
X0061511Y-0097842*
X0061576Y-0098102*
X0061658Y-0098356*
X0061758Y-0098603*
X0061876Y-0098844*
X0062009Y-0099075*
X0062159Y-0099297*
X0062323Y-0099507*
X0062502Y-0099706*
X0062694Y-0099891*
X0062899Y-0100063*
X0063115Y-010022*
X0063342Y-0100362*
X0063577Y-0100487*
X0063822Y-0100596*
X0064073Y-0100687*
X0064329Y-0100761*
X0064591Y-0100816*
X0064855Y-0100854*
X0065122Y-0100872*
X0065389*
X0065656Y-0100854*
X006592Y-0100816*
X0066182Y-0100761*
X0066438Y-0100687*
X0066689Y-0100596*
X0066934Y-0100487*
X006717Y-0100362*
X0067396Y-010022*
X0067612Y-0100063*
X0067817Y-0099891*
X0068009Y-0099706*
X0068188Y-0099507*
X0068352Y-0099297*
X0068502Y-0099075*
X0068635Y-0098844*
X0068753Y-0098603*
X0068853Y-0098356*
X0068935Y-0098102*
X0069Y-0097842*
X0069046Y-0097579*
X0069074Y-0097314*
X0069084Y-0097047*
X0059242Y-0110827D02*
D01*
X0059232Y-0110559*
X0059204Y-0110294*
X0059158Y-0110031*
X0059093Y-0109771*
X0059011Y-0109517*
X0058911Y-010927*
X0058793Y-0109029*
X005866Y-0108798*
X005851Y-0108576*
X0058346Y-0108366*
X0058167Y-0108167*
X0057975Y-0107982*
X005777Y-010781*
X0057554Y-0107653*
X0057328Y-0107511*
X0057092Y-0107386*
X0056847Y-0107277*
X0056596Y-0107186*
X005634Y-0107112*
X0056078Y-0107057*
X0055814Y-0107019*
X0055547Y-0107001*
X005528*
X0055013Y-0107019*
X0054749Y-0107057*
X0054487Y-0107112*
X0054231Y-0107186*
X005398Y-0107277*
X0053735Y-0107386*
X0053499Y-0107511*
X0053273Y-0107653*
X0053057Y-010781*
X0052852Y-0107982*
X005266Y-0108167*
X0052481Y-0108366*
X0052317Y-0108576*
X0052167Y-0108798*
X0052034Y-0109029*
X0051916Y-010927*
X0051816Y-0109517*
X0051734Y-0109771*
X0051669Y-0110031*
X0051623Y-0110294*
X0051595Y-0110559*
X0051586Y-0110827*
X0051595Y-0111094*
X0051623Y-0111359*
X0051669Y-0111622*
X0051734Y-0111882*
X0051816Y-0112136*
X0051916Y-0112383*
X0052034Y-0112624*
X0052167Y-0112855*
X0052317Y-0113077*
X0052481Y-0113287*
X005266Y-0113486*
X0052852Y-0113671*
X0053057Y-0113843*
X0053273Y-0114*
X00535Y-0114142*
X0053735Y-0114267*
X005398Y-0114376*
X0054231Y-0114467*
X0054487Y-0114541*
X0054749Y-0114596*
X0055013Y-0114634*
X005528Y-0114652*
X0055547*
X0055814Y-0114634*
X0056078Y-0114596*
X005634Y-0114541*
X0056596Y-0114467*
X0056847Y-0114376*
X0057092Y-0114267*
X0057328Y-0114142*
X0057554Y-0114*
X005777Y-0113843*
X0057975Y-0113671*
X0058167Y-0113486*
X0058346Y-0113287*
X005851Y-0113077*
X005866Y-0112855*
X0058793Y-0112624*
X0058911Y-0112383*
X0059011Y-0112136*
X0059093Y-0111882*
X0059158Y-0111622*
X0059204Y-0111359*
X0059232Y-0111094*
X0059242Y-0110827*
X0069084D02*
D01*
X0069074Y-0110559*
X0069046Y-0110294*
X0069Y-0110031*
X0068935Y-0109771*
X0068853Y-0109517*
X0068753Y-010927*
X0068635Y-0109029*
X0068502Y-0108798*
X0068352Y-0108576*
X0068188Y-0108366*
X0068009Y-0108167*
X0067817Y-0107982*
X0067612Y-010781*
X0067396Y-0107653*
X006717Y-0107511*
X0066934Y-0107386*
X0066689Y-0107277*
X0066438Y-0107186*
X0066182Y-0107112*
X006592Y-0107057*
X0065656Y-0107019*
X0065389Y-0107001*
X0065122*
X0064855Y-0107019*
X0064591Y-0107057*
X0064329Y-0107112*
X0064073Y-0107186*
X0063822Y-0107277*
X0063577Y-0107386*
X0063341Y-0107511*
X0063115Y-0107653*
X0062899Y-010781*
X0062694Y-0107982*
X0062502Y-0108167*
X0062323Y-0108366*
X0062159Y-0108576*
X0062009Y-0108798*
X0061876Y-0109029*
X0061758Y-010927*
X0061658Y-0109517*
X0061576Y-0109771*
X0061511Y-0110031*
X0061465Y-0110294*
X0061437Y-0110559*
X0061428Y-0110827*
X0061437Y-0111094*
X0061465Y-0111359*
X0061511Y-0111622*
X0061576Y-0111882*
X0061658Y-0112136*
X0061758Y-0112383*
X0061876Y-0112624*
X0062009Y-0112855*
X0062159Y-0113077*
X0062323Y-0113287*
X0062502Y-0113486*
X0062694Y-0113671*
X0062899Y-0113843*
X0063115Y-0114*
X0063342Y-0114142*
X0063577Y-0114267*
X0063822Y-0114376*
X0064073Y-0114467*
X0064329Y-0114541*
X0064591Y-0114596*
X0064855Y-0114634*
X0065122Y-0114652*
X0065389*
X0065656Y-0114634*
X006592Y-0114596*
X0066182Y-0114541*
X0066438Y-0114467*
X0066689Y-0114376*
X0066934Y-0114267*
X006717Y-0114142*
X0067396Y-0114*
X0067612Y-0113843*
X0067817Y-0113671*
X0068009Y-0113486*
X0068188Y-0113287*
X0068352Y-0113077*
X0068502Y-0112855*
X0068635Y-0112624*
X0068753Y-0112383*
X0068853Y-0112136*
X0068935Y-0111882*
X0069Y-0111622*
X0069046Y-0111359*
X0069074Y-0111094*
X0069084Y-0110827*
Y-0124327D02*
D01*
X0069074Y-0124059*
X0069046Y-0123794*
X0069Y-0123531*
X0068935Y-0123271*
X0068853Y-0123017*
X0068753Y-012277*
X0068635Y-0122529*
X0068502Y-0122298*
X0068352Y-0122076*
X0068188Y-0121866*
X0068009Y-0121667*
X0067817Y-0121482*
X0067612Y-012131*
X0067396Y-0121153*
X006717Y-0121011*
X0066934Y-0120886*
X0066689Y-0120777*
X0066438Y-0120686*
X0066182Y-0120612*
X006592Y-0120557*
X0065656Y-0120519*
X0065389Y-0120501*
X0065122*
X0064855Y-0120519*
X0064591Y-0120557*
X0064329Y-0120612*
X0064073Y-0120686*
X0063822Y-0120777*
X0063577Y-0120886*
X0063341Y-0121011*
X0063115Y-0121153*
X0062899Y-012131*
X0062694Y-0121482*
X0062502Y-0121667*
X0062323Y-0121866*
X0062159Y-0122076*
X0062009Y-0122298*
X0061876Y-0122529*
X0061758Y-012277*
X0061658Y-0123017*
X0061576Y-0123271*
X0061511Y-0123531*
X0061465Y-0123794*
X0061437Y-0124059*
X0061428Y-0124327*
X0061437Y-0124594*
X0061465Y-0124859*
X0061511Y-0125122*
X0061576Y-0125382*
X0061658Y-0125636*
X0061758Y-0125883*
X0061876Y-0126124*
X0062009Y-0126355*
X0062159Y-0126577*
X0062323Y-0126787*
X0062502Y-0126986*
X0062694Y-0127171*
X0062899Y-0127343*
X0063115Y-01275*
X0063342Y-0127642*
X0063577Y-0127767*
X0063822Y-0127876*
X0064073Y-0127967*
X0064329Y-0128041*
X0064591Y-0128096*
X0064855Y-0128134*
X0065122Y-0128152*
X0065389*
X0065656Y-0128134*
X006592Y-0128096*
X0066182Y-0128041*
X0066438Y-0127967*
X0066689Y-0127876*
X0066934Y-0127767*
X006717Y-0127642*
X0067396Y-01275*
X0067612Y-0127343*
X0067817Y-0127171*
X0068009Y-0126986*
X0068188Y-0126787*
X0068352Y-0126577*
X0068502Y-0126355*
X0068635Y-0126124*
X0068753Y-0125883*
X0068853Y-0125636*
X0068935Y-0125382*
X0069Y-0125122*
X0069046Y-0124859*
X0069074Y-0124594*
X0069084Y-0124327*
X0059242D02*
D01*
X0059232Y-0124059*
X0059204Y-0123794*
X0059158Y-0123531*
X0059093Y-0123271*
X0059011Y-0123017*
X0058911Y-012277*
X0058793Y-0122529*
X005866Y-0122298*
X005851Y-0122076*
X0058346Y-0121866*
X0058167Y-0121667*
X0057975Y-0121482*
X005777Y-012131*
X0057554Y-0121153*
X0057328Y-0121011*
X0057092Y-0120886*
X0056847Y-0120777*
X0056596Y-0120686*
X005634Y-0120612*
X0056078Y-0120557*
X0055814Y-0120519*
X0055547Y-0120501*
X005528*
X0055013Y-0120519*
X0054749Y-0120557*
X0054487Y-0120612*
X0054231Y-0120686*
X005398Y-0120777*
X0053735Y-0120886*
X0053499Y-0121011*
X0053273Y-0121153*
X0053057Y-012131*
X0052852Y-0121482*
X005266Y-0121667*
X0052481Y-0121866*
X0052317Y-0122076*
X0052167Y-0122298*
X0052034Y-0122529*
X0051916Y-012277*
X0051816Y-0123017*
X0051734Y-0123271*
X0051669Y-0123531*
X0051623Y-0123794*
X0051595Y-0124059*
X0051586Y-0124327*
X0051595Y-0124594*
X0051623Y-0124859*
X0051669Y-0125122*
X0051734Y-0125382*
X0051816Y-0125636*
X0051916Y-0125883*
X0052034Y-0126124*
X0052167Y-0126355*
X0052317Y-0126577*
X0052481Y-0126787*
X005266Y-0126986*
X0052852Y-0127171*
X0053057Y-0127343*
X0053273Y-01275*
X00535Y-0127642*
X0053735Y-0127767*
X005398Y-0127876*
X0054231Y-0127967*
X0054487Y-0128041*
X0054749Y-0128096*
X0055013Y-0128134*
X005528Y-0128152*
X0055547*
X0055814Y-0128134*
X0056078Y-0128096*
X005634Y-0128041*
X0056596Y-0127967*
X0056847Y-0127876*
X0057092Y-0127767*
X0057328Y-0127642*
X0057554Y-01275*
X005777Y-0127343*
X0057975Y-0127171*
X0058167Y-0126986*
X0058346Y-0126787*
X005851Y-0126577*
X005866Y-0126355*
X0058793Y-0126124*
X0058911Y-0125883*
X0059011Y-0125636*
X0059093Y-0125382*
X0059158Y-0125122*
X0059204Y-0124859*
X0059232Y-0124594*
X0059242Y-0124327*
X0069084Y-0138327D02*
D01*
X0069074Y-0138059*
X0069046Y-0137794*
X0069Y-0137531*
X0068935Y-0137271*
X0068853Y-0137017*
X0068753Y-013677*
X0068635Y-0136529*
X0068502Y-0136298*
X0068352Y-0136076*
X0068188Y-0135866*
X0068009Y-0135667*
X0067817Y-0135482*
X0067612Y-013531*
X0067396Y-0135153*
X006717Y-0135011*
X0066934Y-0134886*
X0066689Y-0134777*
X0066438Y-0134686*
X0066182Y-0134612*
X006592Y-0134557*
X0065656Y-0134519*
X0065389Y-0134501*
X0065122*
X0064855Y-0134519*
X0064591Y-0134557*
X0064329Y-0134612*
X0064073Y-0134686*
X0063822Y-0134777*
X0063577Y-0134886*
X0063341Y-0135011*
X0063115Y-0135153*
X0062899Y-013531*
X0062694Y-0135482*
X0062502Y-0135667*
X0062323Y-0135866*
X0062159Y-0136076*
X0062009Y-0136298*
X0061876Y-0136529*
X0061758Y-013677*
X0061658Y-0137017*
X0061576Y-0137271*
X0061511Y-0137531*
X0061465Y-0137794*
X0061437Y-0138059*
X0061428Y-0138327*
X0061437Y-0138594*
X0061465Y-0138859*
X0061511Y-0139122*
X0061576Y-0139382*
X0061658Y-0139636*
X0061758Y-0139883*
X0061876Y-0140124*
X0062009Y-0140355*
X0062159Y-0140577*
X0062323Y-0140787*
X0062502Y-0140986*
X0062694Y-0141171*
X0062899Y-0141343*
X0063115Y-01415*
X0063342Y-0141642*
X0063577Y-0141767*
X0063822Y-0141876*
X0064073Y-0141967*
X0064329Y-0142041*
X0064591Y-0142096*
X0064855Y-0142134*
X0065122Y-0142152*
X0065389*
X0065656Y-0142134*
X006592Y-0142096*
X0066182Y-0142041*
X0066438Y-0141967*
X0066689Y-0141876*
X0066934Y-0141767*
X006717Y-0141642*
X0067396Y-01415*
X0067612Y-0141343*
X0067817Y-0141171*
X0068009Y-0140986*
X0068188Y-0140787*
X0068352Y-0140577*
X0068502Y-0140355*
X0068635Y-0140124*
X0068753Y-0139883*
X0068853Y-0139636*
X0068935Y-0139382*
X0069Y-0139122*
X0069046Y-0138859*
X0069074Y-0138594*
X0069084Y-0138327*
X0059242D02*
D01*
X0059232Y-0138059*
X0059204Y-0137794*
X0059158Y-0137531*
X0059093Y-0137271*
X0059011Y-0137017*
X0058911Y-013677*
X0058793Y-0136529*
X005866Y-0136298*
X005851Y-0136076*
X0058346Y-0135866*
X0058167Y-0135667*
X0057975Y-0135482*
X005777Y-013531*
X0057554Y-0135153*
X0057328Y-0135011*
X0057092Y-0134886*
X0056847Y-0134777*
X0056596Y-0134686*
X005634Y-0134612*
X0056078Y-0134557*
X0055814Y-0134519*
X0055547Y-0134501*
X005528*
X0055013Y-0134519*
X0054749Y-0134557*
X0054487Y-0134612*
X0054231Y-0134686*
X005398Y-0134777*
X0053735Y-0134886*
X0053499Y-0135011*
X0053273Y-0135153*
X0053057Y-013531*
X0052852Y-0135482*
X005266Y-0135667*
X0052481Y-0135866*
X0052317Y-0136076*
X0052167Y-0136298*
X0052034Y-0136529*
X0051916Y-013677*
X0051816Y-0137017*
X0051734Y-0137271*
X0051669Y-0137531*
X0051623Y-0137794*
X0051595Y-0138059*
X0051586Y-0138327*
X0051595Y-0138594*
X0051623Y-0138859*
X0051669Y-0139122*
X0051734Y-0139382*
X0051816Y-0139636*
X0051916Y-0139883*
X0052034Y-0140124*
X0052167Y-0140355*
X0052317Y-0140577*
X0052481Y-0140787*
X005266Y-0140986*
X0052852Y-0141171*
X0053057Y-0141343*
X0053273Y-01415*
X00535Y-0141642*
X0053735Y-0141767*
X005398Y-0141876*
X0054231Y-0141967*
X0054487Y-0142041*
X0054749Y-0142096*
X0055013Y-0142134*
X005528Y-0142152*
X0055547*
X0055814Y-0142134*
X0056078Y-0142096*
X005634Y-0142041*
X0056596Y-0141967*
X0056847Y-0141876*
X0057092Y-0141767*
X0057328Y-0141642*
X0057554Y-01415*
X005777Y-0141343*
X0057975Y-0141171*
X0058167Y-0140986*
X0058346Y-0140787*
X005851Y-0140577*
X005866Y-0140355*
X0058793Y-0140124*
X0058911Y-0139883*
X0059011Y-0139636*
X0059093Y-0139382*
X0059158Y-0139122*
X0059204Y-0138859*
X0059232Y-0138594*
X0059242Y-0138327*
X0069084Y-0151827D02*
D01*
X0069074Y-0151559*
X0069046Y-0151294*
X0069Y-0151031*
X0068935Y-0150771*
X0068853Y-0150517*
X0068753Y-015027*
X0068635Y-0150029*
X0068502Y-0149798*
X0068352Y-0149576*
X0068188Y-0149366*
X0068009Y-0149167*
X0067817Y-0148982*
X0067612Y-014881*
X0067396Y-0148653*
X006717Y-0148511*
X0066934Y-0148386*
X0066689Y-0148277*
X0066438Y-0148186*
X0066182Y-0148112*
X006592Y-0148057*
X0065656Y-0148019*
X0065389Y-0148001*
X0065122*
X0064855Y-0148019*
X0064591Y-0148057*
X0064329Y-0148112*
X0064073Y-0148186*
X0063822Y-0148277*
X0063577Y-0148386*
X0063341Y-0148511*
X0063115Y-0148653*
X0062899Y-014881*
X0062694Y-0148982*
X0062502Y-0149167*
X0062323Y-0149366*
X0062159Y-0149576*
X0062009Y-0149798*
X0061876Y-0150029*
X0061758Y-015027*
X0061658Y-0150517*
X0061576Y-0150771*
X0061511Y-0151031*
X0061465Y-0151294*
X0061437Y-0151559*
X0061428Y-0151827*
X0061437Y-0152094*
X0061465Y-0152359*
X0061511Y-0152622*
X0061576Y-0152882*
X0061658Y-0153136*
X0061758Y-0153383*
X0061876Y-0153624*
X0062009Y-0153855*
X0062159Y-0154077*
X0062323Y-0154287*
X0062502Y-0154486*
X0062694Y-0154671*
X0062899Y-0154843*
X0063115Y-0155*
X0063342Y-0155142*
X0063577Y-0155267*
X0063822Y-0155376*
X0064073Y-0155467*
X0064329Y-0155541*
X0064591Y-0155596*
X0064855Y-0155634*
X0065122Y-0155652*
X0065389*
X0065656Y-0155634*
X006592Y-0155596*
X0066182Y-0155541*
X0066438Y-0155467*
X0066689Y-0155376*
X0066934Y-0155267*
X006717Y-0155142*
X0067396Y-0155*
X0067612Y-0154843*
X0067817Y-0154671*
X0068009Y-0154486*
X0068188Y-0154287*
X0068352Y-0154077*
X0068502Y-0153855*
X0068635Y-0153624*
X0068753Y-0153383*
X0068853Y-0153136*
X0068935Y-0152882*
X0069Y-0152622*
X0069046Y-0152359*
X0069074Y-0152094*
X0069084Y-0151827*
X0059242D02*
D01*
X0059232Y-0151559*
X0059204Y-0151294*
X0059158Y-0151031*
X0059093Y-0150771*
X0059011Y-0150517*
X0058911Y-015027*
X0058793Y-0150029*
X005866Y-0149798*
X005851Y-0149576*
X0058346Y-0149366*
X0058167Y-0149167*
X0057975Y-0148982*
X005777Y-014881*
X0057554Y-0148653*
X0057328Y-0148511*
X0057092Y-0148386*
X0056847Y-0148277*
X0056596Y-0148186*
X005634Y-0148112*
X0056078Y-0148057*
X0055814Y-0148019*
X0055547Y-0148001*
X005528*
X0055013Y-0148019*
X0054749Y-0148057*
X0054487Y-0148112*
X0054231Y-0148186*
X005398Y-0148277*
X0053735Y-0148386*
X0053499Y-0148511*
X0053273Y-0148653*
X0053057Y-014881*
X0052852Y-0148982*
X005266Y-0149167*
X0052481Y-0149366*
X0052317Y-0149576*
X0052167Y-0149798*
X0052034Y-0150029*
X0051916Y-015027*
X0051816Y-0150517*
X0051734Y-0150771*
X0051669Y-0151031*
X0051623Y-0151294*
X0051595Y-0151559*
X0051586Y-0151827*
X0051595Y-0152094*
X0051623Y-0152359*
X0051669Y-0152622*
X0051734Y-0152882*
X0051816Y-0153136*
X0051916Y-0153383*
X0052034Y-0153624*
X0052167Y-0153855*
X0052317Y-0154077*
X0052481Y-0154287*
X005266Y-0154486*
X0052852Y-0154671*
X0053057Y-0154843*
X0053273Y-0155*
X00535Y-0155142*
X0053735Y-0155267*
X005398Y-0155376*
X0054231Y-0155467*
X0054487Y-0155541*
X0054749Y-0155596*
X0055013Y-0155634*
X005528Y-0155652*
X0055547*
X0055814Y-0155634*
X0056078Y-0155596*
X005634Y-0155541*
X0056596Y-0155467*
X0056847Y-0155376*
X0057092Y-0155267*
X0057328Y-0155142*
X0057554Y-0155*
X005777Y-0154843*
X0057975Y-0154671*
X0058167Y-0154486*
X0058346Y-0154287*
X005851Y-0154077*
X005866Y-0153855*
X0058793Y-0153624*
X0058911Y-0153383*
X0059011Y-0153136*
X0059093Y-0152882*
X0059158Y-0152622*
X0059204Y-0152359*
X0059232Y-0152094*
X0059242Y-0151827*
X0069084Y-0165827D02*
D01*
X0069074Y-0165559*
X0069046Y-0165294*
X0069Y-0165031*
X0068935Y-0164771*
X0068853Y-0164517*
X0068753Y-016427*
X0068635Y-0164029*
X0068502Y-0163798*
X0068352Y-0163576*
X0068188Y-0163366*
X0068009Y-0163167*
X0067817Y-0162982*
X0067612Y-016281*
X0067396Y-0162653*
X006717Y-0162511*
X0066934Y-0162386*
X0066689Y-0162277*
X0066438Y-0162186*
X0066182Y-0162112*
X006592Y-0162057*
X0065656Y-0162019*
X0065389Y-0162001*
X0065122*
X0064855Y-0162019*
X0064591Y-0162057*
X0064329Y-0162112*
X0064073Y-0162186*
X0063822Y-0162277*
X0063577Y-0162386*
X0063341Y-0162511*
X0063115Y-0162653*
X0062899Y-016281*
X0062694Y-0162982*
X0062502Y-0163167*
X0062323Y-0163366*
X0062159Y-0163576*
X0062009Y-0163798*
X0061876Y-0164029*
X0061758Y-016427*
X0061658Y-0164517*
X0061576Y-0164771*
X0061511Y-0165031*
X0061465Y-0165294*
X0061437Y-0165559*
X0061428Y-0165827*
X0061437Y-0166094*
X0061465Y-0166359*
X0061511Y-0166622*
X0061576Y-0166882*
X0061658Y-0167136*
X0061758Y-0167383*
X0061876Y-0167624*
X0062009Y-0167855*
X0062159Y-0168077*
X0062323Y-0168287*
X0062502Y-0168486*
X0062694Y-0168671*
X0062899Y-0168843*
X0063115Y-0169*
X0063342Y-0169142*
X0063577Y-0169267*
X0063822Y-0169376*
X0064073Y-0169467*
X0064329Y-0169541*
X0064591Y-0169596*
X0064855Y-0169634*
X0065122Y-0169652*
X0065389*
X0065656Y-0169634*
X006592Y-0169596*
X0066182Y-0169541*
X0066438Y-0169467*
X0066689Y-0169376*
X0066934Y-0169267*
X006717Y-0169142*
X0067396Y-0169*
X0067612Y-0168843*
X0067817Y-0168671*
X0068009Y-0168486*
X0068188Y-0168287*
X0068352Y-0168077*
X0068502Y-0167855*
X0068635Y-0167624*
X0068753Y-0167383*
X0068853Y-0167136*
X0068935Y-0166882*
X0069Y-0166622*
X0069046Y-0166359*
X0069074Y-0166094*
X0069084Y-0165827*
X0059242D02*
D01*
X0059232Y-0165559*
X0059204Y-0165294*
X0059158Y-0165031*
X0059093Y-0164771*
X0059011Y-0164517*
X0058911Y-016427*
X0058793Y-0164029*
X005866Y-0163798*
X005851Y-0163576*
X0058346Y-0163366*
X0058167Y-0163167*
X0057975Y-0162982*
X005777Y-016281*
X0057554Y-0162653*
X0057328Y-0162511*
X0057092Y-0162386*
X0056847Y-0162277*
X0056596Y-0162186*
X005634Y-0162112*
X0056078Y-0162057*
X0055814Y-0162019*
X0055547Y-0162001*
X005528*
X0055013Y-0162019*
X0054749Y-0162057*
X0054487Y-0162112*
X0054231Y-0162186*
X005398Y-0162277*
X0053735Y-0162386*
X0053499Y-0162511*
X0053273Y-0162653*
X0053057Y-016281*
X0052852Y-0162982*
X005266Y-0163167*
X0052481Y-0163366*
X0052317Y-0163576*
X0052167Y-0163798*
X0052034Y-0164029*
X0051916Y-016427*
X0051816Y-0164517*
X0051734Y-0164771*
X0051669Y-0165031*
X0051623Y-0165294*
X0051595Y-0165559*
X0051586Y-0165827*
X0051595Y-0166094*
X0051623Y-0166359*
X0051669Y-0166622*
X0051734Y-0166882*
X0051816Y-0167136*
X0051916Y-0167383*
X0052034Y-0167624*
X0052167Y-0167855*
X0052317Y-0168077*
X0052481Y-0168287*
X005266Y-0168486*
X0052852Y-0168671*
X0053057Y-0168843*
X0053273Y-0169*
X00535Y-0169142*
X0053735Y-0169267*
X005398Y-0169376*
X0054231Y-0169467*
X0054487Y-0169541*
X0054749Y-0169596*
X0055013Y-0169634*
X005528Y-0169652*
X0055547*
X0055814Y-0169634*
X0056078Y-0169596*
X005634Y-0169541*
X0056596Y-0169467*
X0056847Y-0169376*
X0057092Y-0169267*
X0057328Y-0169142*
X0057554Y-0169*
X005777Y-0168843*
X0057975Y-0168671*
X0058167Y-0168486*
X0058346Y-0168287*
X005851Y-0168077*
X005866Y-0167855*
X0058793Y-0167624*
X0058911Y-0167383*
X0059011Y-0167136*
X0059093Y-0166882*
X0059158Y-0166622*
X0059204Y-0166359*
X0059232Y-0166094*
X0059242Y-0165827*
X0069084Y-0179327D02*
D01*
X0069074Y-0179059*
X0069046Y-0178794*
X0069Y-0178531*
X0068935Y-0178271*
X0068853Y-0178017*
X0068753Y-017777*
X0068635Y-0177529*
X0068502Y-0177298*
X0068352Y-0177076*
X0068188Y-0176866*
X0068009Y-0176667*
X0067817Y-0176482*
X0067612Y-017631*
X0067396Y-0176153*
X006717Y-0176011*
X0066934Y-0175886*
X0066689Y-0175777*
X0066438Y-0175686*
X0066182Y-0175612*
X006592Y-0175557*
X0065656Y-0175519*
X0065389Y-0175501*
X0065122*
X0064855Y-0175519*
X0064591Y-0175557*
X0064329Y-0175612*
X0064073Y-0175686*
X0063822Y-0175777*
X0063577Y-0175886*
X0063341Y-0176011*
X0063115Y-0176153*
X0062899Y-017631*
X0062694Y-0176482*
X0062502Y-0176667*
X0062323Y-0176866*
X0062159Y-0177076*
X0062009Y-0177298*
X0061876Y-0177529*
X0061758Y-017777*
X0061658Y-0178017*
X0061576Y-0178271*
X0061511Y-0178531*
X0061465Y-0178794*
X0061437Y-0179059*
X0061428Y-0179327*
X0061437Y-0179594*
X0061465Y-0179859*
X0061511Y-0180122*
X0061576Y-0180382*
X0061658Y-0180636*
X0061758Y-0180883*
X0061876Y-0181124*
X0062009Y-0181355*
X0062159Y-0181577*
X0062323Y-0181787*
X0062502Y-0181986*
X0062694Y-0182171*
X0062899Y-0182343*
X0063115Y-01825*
X0063342Y-0182642*
X0063577Y-0182767*
X0063822Y-0182876*
X0064073Y-0182967*
X0064329Y-0183041*
X0064591Y-0183096*
X0064855Y-0183134*
X0065122Y-0183152*
X0065389*
X0065656Y-0183134*
X006592Y-0183096*
X0066182Y-0183041*
X0066438Y-0182967*
X0066689Y-0182876*
X0066934Y-0182767*
X006717Y-0182642*
X0067396Y-01825*
X0067612Y-0182343*
X0067817Y-0182171*
X0068009Y-0181986*
X0068188Y-0181787*
X0068352Y-0181577*
X0068502Y-0181355*
X0068635Y-0181124*
X0068753Y-0180883*
X0068853Y-0180636*
X0068935Y-0180382*
X0069Y-0180122*
X0069046Y-0179859*
X0069074Y-0179594*
X0069084Y-0179327*
X0059242D02*
D01*
X0059232Y-0179059*
X0059204Y-0178794*
X0059158Y-0178531*
X0059093Y-0178271*
X0059011Y-0178017*
X0058911Y-017777*
X0058793Y-0177529*
X005866Y-0177298*
X005851Y-0177076*
X0058346Y-0176866*
X0058167Y-0176667*
X0057975Y-0176482*
X005777Y-017631*
X0057554Y-0176153*
X0057328Y-0176011*
X0057092Y-0175886*
X0056847Y-0175777*
X0056596Y-0175686*
X005634Y-0175612*
X0056078Y-0175557*
X0055814Y-0175519*
X0055547Y-0175501*
X005528*
X0055013Y-0175519*
X0054749Y-0175557*
X0054487Y-0175612*
X0054231Y-0175686*
X005398Y-0175777*
X0053735Y-0175886*
X0053499Y-0176011*
X0053273Y-0176153*
X0053057Y-017631*
X0052852Y-0176482*
X005266Y-0176667*
X0052481Y-0176866*
X0052317Y-0177076*
X0052167Y-0177298*
X0052034Y-0177529*
X0051916Y-017777*
X0051816Y-0178017*
X0051734Y-0178271*
X0051669Y-0178531*
X0051623Y-0178794*
X0051595Y-0179059*
X0051586Y-0179327*
X0051595Y-0179594*
X0051623Y-0179859*
X0051669Y-0180122*
X0051734Y-0180382*
X0051816Y-0180636*
X0051916Y-0180883*
X0052034Y-0181124*
X0052167Y-0181355*
X0052317Y-0181577*
X0052481Y-0181787*
X005266Y-0181986*
X0052852Y-0182171*
X0053057Y-0182343*
X0053273Y-01825*
X00535Y-0182642*
X0053735Y-0182767*
X005398Y-0182876*
X0054231Y-0182967*
X0054487Y-0183041*
X0054749Y-0183096*
X0055013Y-0183134*
X005528Y-0183152*
X0055547*
X0055814Y-0183134*
X0056078Y-0183096*
X005634Y-0183041*
X0056596Y-0182967*
X0056847Y-0182876*
X0057092Y-0182767*
X0057328Y-0182642*
X0057554Y-01825*
X005777Y-0182343*
X0057975Y-0182171*
X0058167Y-0181986*
X0058346Y-0181787*
X005851Y-0181577*
X005866Y-0181355*
X0058793Y-0181124*
X0058911Y-0180883*
X0059011Y-0180636*
X0059093Y-0180382*
X0059158Y-0180122*
X0059204Y-0179859*
X0059232Y-0179594*
X0059242Y-0179327*
X0069084Y-0193327D02*
D01*
X0069074Y-0193059*
X0069046Y-0192794*
X0069Y-0192531*
X0068935Y-0192271*
X0068853Y-0192017*
X0068753Y-019177*
X0068635Y-0191529*
X0068502Y-0191298*
X0068352Y-0191076*
X0068188Y-0190866*
X0068009Y-0190667*
X0067817Y-0190482*
X0067612Y-019031*
X0067396Y-0190153*
X006717Y-0190011*
X0066934Y-0189886*
X0066689Y-0189777*
X0066438Y-0189686*
X0066182Y-0189612*
X006592Y-0189557*
X0065656Y-0189519*
X0065389Y-0189501*
X0065122*
X0064855Y-0189519*
X0064591Y-0189557*
X0064329Y-0189612*
X0064073Y-0189686*
X0063822Y-0189777*
X0063577Y-0189886*
X0063341Y-0190011*
X0063115Y-0190153*
X0062899Y-019031*
X0062694Y-0190482*
X0062502Y-0190667*
X0062323Y-0190866*
X0062159Y-0191076*
X0062009Y-0191298*
X0061876Y-0191529*
X0061758Y-019177*
X0061658Y-0192017*
X0061576Y-0192271*
X0061511Y-0192531*
X0061465Y-0192794*
X0061437Y-0193059*
X0061428Y-0193327*
X0061437Y-0193594*
X0061465Y-0193859*
X0061511Y-0194122*
X0061576Y-0194382*
X0061658Y-0194636*
X0061758Y-0194883*
X0061876Y-0195124*
X0062009Y-0195355*
X0062159Y-0195577*
X0062323Y-0195787*
X0062502Y-0195986*
X0062694Y-0196171*
X0062899Y-0196343*
X0063115Y-01965*
X0063342Y-0196642*
X0063577Y-0196767*
X0063822Y-0196876*
X0064073Y-0196967*
X0064329Y-0197041*
X0064591Y-0197096*
X0064855Y-0197134*
X0065122Y-0197152*
X0065389*
X0065656Y-0197134*
X006592Y-0197096*
X0066182Y-0197041*
X0066438Y-0196967*
X0066689Y-0196876*
X0066934Y-0196767*
X006717Y-0196642*
X0067396Y-01965*
X0067612Y-0196343*
X0067817Y-0196171*
X0068009Y-0195986*
X0068188Y-0195787*
X0068352Y-0195577*
X0068502Y-0195355*
X0068635Y-0195124*
X0068753Y-0194883*
X0068853Y-0194636*
X0068935Y-0194382*
X0069Y-0194122*
X0069046Y-0193859*
X0069074Y-0193594*
X0069084Y-0193327*
X0059242D02*
D01*
X0059232Y-0193059*
X0059204Y-0192794*
X0059158Y-0192531*
X0059093Y-0192271*
X0059011Y-0192017*
X0058911Y-019177*
X0058793Y-0191529*
X005866Y-0191298*
X005851Y-0191076*
X0058346Y-0190866*
X0058167Y-0190667*
X0057975Y-0190482*
X005777Y-019031*
X0057554Y-0190153*
X0057328Y-0190011*
X0057092Y-0189886*
X0056847Y-0189777*
X0056596Y-0189686*
X005634Y-0189612*
X0056078Y-0189557*
X0055814Y-0189519*
X0055547Y-0189501*
X005528*
X0055013Y-0189519*
X0054749Y-0189557*
X0054487Y-0189612*
X0054231Y-0189686*
X005398Y-0189777*
X0053735Y-0189886*
X0053499Y-0190011*
X0053273Y-0190153*
X0053057Y-019031*
X0052852Y-0190482*
X005266Y-0190667*
X0052481Y-0190866*
X0052317Y-0191076*
X0052167Y-0191298*
X0052034Y-0191529*
X0051916Y-019177*
X0051816Y-0192017*
X0051734Y-0192271*
X0051669Y-0192531*
X0051623Y-0192794*
X0051595Y-0193059*
X0051586Y-0193327*
X0051595Y-0193594*
X0051623Y-0193859*
X0051669Y-0194122*
X0051734Y-0194382*
X0051816Y-0194636*
X0051916Y-0194883*
X0052034Y-0195124*
X0052167Y-0195355*
X0052317Y-0195577*
X0052481Y-0195787*
X005266Y-0195986*
X0052852Y-0196171*
X0053057Y-0196343*
X0053273Y-01965*
X00535Y-0196642*
X0053735Y-0196767*
X005398Y-0196876*
X0054231Y-0196967*
X0054487Y-0197041*
X0054749Y-0197096*
X0055013Y-0197134*
X005528Y-0197152*
X0055547*
X0055814Y-0197134*
X0056078Y-0197096*
X005634Y-0197041*
X0056596Y-0196967*
X0056847Y-0196876*
X0057092Y-0196767*
X0057328Y-0196642*
X0057554Y-01965*
X005777Y-0196343*
X0057975Y-0196171*
X0058167Y-0195986*
X0058346Y-0195787*
X005851Y-0195577*
X005866Y-0195355*
X0058793Y-0195124*
X0058911Y-0194883*
X0059011Y-0194636*
X0059093Y-0194382*
X0059158Y-0194122*
X0059204Y-0193859*
X0059232Y-0193594*
X0059242Y-0193327*
X0319882Y-006962D02*
Y-0072244D01*
Y-0070932*
X0319226Y-0070276*
X031857Y-006962*
X0317914*
X031529Y-0072244D02*
X0313978D01*
X0313322Y-0071588*
Y-0070276*
X0313978Y-006962*
X031529*
X0315946Y-0070276*
Y-0071588*
X031529Y-0072244*
X031201Y-0068308D02*
Y-0072244D01*
X0310043*
X0309387Y-0071588*
Y-0070932*
Y-0070276*
X0310043Y-006962*
X031201*
X0307419Y-0072244D02*
X0306107D01*
X0305451Y-0071588*
Y-0070276*
X0306107Y-006962*
X0307419*
X0308075Y-0070276*
Y-0071588*
X0307419Y-0072244*
X0301515Y-006962D02*
X0303483D01*
X0304139Y-0070276*
Y-0071588*
X0303483Y-0072244*
X0301515*
X0299547D02*
X0298235D01*
X0297579Y-0071588*
Y-0070276*
X0298235Y-006962*
X0299547*
X0300203Y-0070276*
Y-0071588*
X0299547Y-0072244*
X0296268D02*
Y-006962D01*
X02943*
X0293644Y-0070276*
Y-0072244*
X0291676Y-0068964D02*
Y-006962D01*
X0292332*
X029102*
X0291676*
Y-0071588*
X029102Y-0072244*
X0289052Y-006962D02*
Y-0072244D01*
Y-0070932*
X0288396Y-0070276*
X028774Y-006962*
X0287084*
X028446Y-0072244D02*
X0283148D01*
X0282492Y-0071588*
Y-0070276*
X0283148Y-006962*
X028446*
X0285116Y-0070276*
Y-0071588*
X028446Y-0072244*
X0281181D02*
X0279869D01*
X0280524*
Y-0068308*
X0281181*
X0277901Y-0072244D02*
X0276589D01*
X0277245*
Y-0068308*
X0277901*
X0272653Y-0072244D02*
X0273965D01*
X0274621Y-0071588*
Y-0070276*
X0273965Y-006962*
X0272653*
X0271997Y-0070276*
Y-0070932*
X0274621*
X0270685Y-006962D02*
Y-0072244D01*
Y-0070932*
X0270029Y-0070276*
X0269373Y-006962*
X0268717*
X0319882Y-0075001D02*
Y-0078937D01*
Y-0076969*
X0317258*
Y-0075001*
Y-0078937*
X0315946Y-0075001D02*
Y-0078937D01*
X0314634Y-0077625*
X0313322Y-0078937*
Y-0075001*
X0304139Y-0075657D02*
X0303483Y-0075001D01*
X0302171*
X0301515Y-0075657*
Y-0078281*
X0302171Y-0078937*
X0303483*
X0304139Y-0078281*
Y-0075657*
X0300203Y-0078937D02*
Y-0078281D01*
X0299547*
Y-0078937*
X0300203*
X0296923D02*
X0295612D01*
X0296268*
Y-0075001*
X0296923Y-0075657*
X0293644Y-0078937D02*
Y-0078281D01*
X0292988*
Y-0078937*
X0293644*
X0290364Y-0075657D02*
X0289708Y-0075001D01*
X0288396*
X028774Y-0075657*
Y-0078281*
X0288396Y-0078937*
X0289708*
X0290364Y-0078281*
Y-0075657*
X0279332Y-0194488D02*
X0278348Y-0193504D01*
Y-0191536*
X0279332Y-0190552*
X0280316*
X02813Y-0191536*
X0282284Y-0190552*
X0283268*
X0284252Y-0191536*
Y-0193504*
X0283268Y-0194488*
X0282284*
X02813Y-0193504*
X0280316Y-0194488*
X0279332*
X02813Y-0193504D02*
Y-0191536D01*
X0278346Y-0162205D02*
Y-0160237D01*
Y-0161221*
X028425*
X0283266Y-0162205*
G54D71*
X0304727Y-0043281D02*
X0318927D01*
X0304127Y-0043381D02*
X0319527D01*
X0303927Y-0043481D02*
X0319727D01*
X0303727Y-0043581D02*
X0319927D01*
X0303627Y-0043681D02*
X0320127D01*
X0303427Y-0043781D02*
X0320227D01*
X0303327Y-0043881D02*
X0320327D01*
X0303227Y-0043981D02*
X0320427D01*
X0303127Y-0044081D02*
X0320527D01*
X0303027Y-0044181D02*
X0320527D01*
X0302927Y-0044281D02*
X0320627D01*
X0302827Y-0044381D02*
X0320627D01*
X0302727Y-0044481D02*
X0320727D01*
X0302627Y-0044581D02*
X0320727D01*
X0302527Y-0044681D02*
X0320827D01*
X0302427Y-0044781D02*
X0320827D01*
X0302327Y-0044881D02*
X0320827D01*
X0302227Y-0044981D02*
X0320827D01*
X0302127Y-0045081D02*
X0320927D01*
X0302027Y-0045181D02*
X0320927D01*
X0301927Y-0045281D02*
X0320927D01*
X0301827Y-0045381D02*
X0320927D01*
X0301727Y-0045481D02*
X0320927D01*
X0301627Y-0045581D02*
X0320927D01*
X0301527Y-0045681D02*
X0320927D01*
X0301427Y-0045781D02*
X0320927D01*
X0301327Y-0045881D02*
X0320927D01*
X0301227Y-0045981D02*
X0320927D01*
X0301127Y-0046081D02*
X0320927D01*
X0301027Y-0046181D02*
X0320927D01*
X0300927Y-0046281D02*
X0320927D01*
X0300827Y-0046381D02*
X0320927D01*
X0300727Y-0046481D02*
X0320927D01*
X0300627Y-0046581D02*
X0320927D01*
X0300527Y-0046681D02*
X0320927D01*
X0311827Y-0046781D02*
X0320927D01*
X0310427D02*
X0311327D01*
X0309027D02*
X0309927D01*
X0300427D02*
X0308527D01*
X0311927Y-0046881D02*
X0320927D01*
X0310527D02*
X0311227D01*
X0309127D02*
X0309827D01*
X0300327D02*
X0308427D01*
X0312027Y-0046981D02*
X0320927D01*
X0310627D02*
X0311127D01*
X0309227D02*
X0309827D01*
X0300227D02*
X0308427D01*
X0312027Y-0047081D02*
X0320927D01*
X0310627D02*
X0311127D01*
X0309327D02*
X0309727D01*
X0300127D02*
X0308327D01*
X0312127Y-0047181D02*
X0320927D01*
X0310727D02*
X0311127D01*
X0309327D02*
X0309727D01*
X0300027D02*
X0308327D01*
X0312127Y-0047281D02*
X0320927D01*
X0310727D02*
X0311127D01*
X0309327D02*
X0309727D01*
X0300027D02*
X0308327D01*
X0312127Y-0047381D02*
X0320927D01*
X0310727D02*
X0311127D01*
X0309327D02*
X0309727D01*
X0299927D02*
X0308327D01*
X0312127Y-0047481D02*
X0320927D01*
X0310727D02*
X0311127D01*
X0309327D02*
X0309727D01*
X0299827D02*
X0308327D01*
X0312127Y-0047581D02*
X0320927D01*
X0310727D02*
X0311127D01*
X0309327D02*
X0309727D01*
X0299827D02*
X0308327D01*
X0312127Y-0047681D02*
X0320927D01*
X0310727D02*
X0311127D01*
X0309327D02*
X0309727D01*
X0299727D02*
X0308327D01*
X0313527Y-0047781D02*
X0320927D01*
X0299727D02*
X0306927D01*
X0313527Y-0047881D02*
X0320927D01*
X0299627D02*
X0306927D01*
X0313527Y-0047981D02*
X0320927D01*
X0299627D02*
X0306927D01*
X0313527Y-0048081D02*
X0320927D01*
X0299627D02*
X0306927D01*
X0313527Y-0048181D02*
X0320927D01*
X0299627D02*
X0306927D01*
X0313527Y-0048281D02*
X0320927D01*
X0299627D02*
X0306927D01*
X0313527Y-0048381D02*
X0320927D01*
X0299527D02*
X0306927D01*
X0313527Y-0048481D02*
X0320927D01*
X0299527D02*
X0306927D01*
X0313527Y-0048581D02*
X0320927D01*
X0299527D02*
X0306927D01*
X0313527Y-0048681D02*
X0320927D01*
X0299527D02*
X0306927D01*
X0313527Y-0048781D02*
X0320927D01*
X0299527D02*
X0306927D01*
X0313527Y-0048881D02*
X0320927D01*
X0299527D02*
X0306927D01*
X0313527Y-0048981D02*
X0320927D01*
X0299527D02*
X0306927D01*
X0313527Y-0049081D02*
X0320927D01*
X0299527D02*
X0306927D01*
X0313527Y-0049181D02*
X0320927D01*
X0299527D02*
X0306927D01*
X0314327Y-0049281D02*
X0320927D01*
X0299527D02*
X0306927D01*
X0314427Y-0049381D02*
X0320927D01*
X0299527D02*
X0306927D01*
X0314527Y-0049481D02*
X0320927D01*
X0299527D02*
X0306927D01*
X0314527Y-0049581D02*
X0320927D01*
X0299527D02*
X0306927D01*
X0314527Y-0049681D02*
X0320927D01*
X0299527D02*
X0306927D01*
X0314527Y-0049781D02*
X0320927D01*
X0299527D02*
X0306927D01*
X0314527Y-0049881D02*
X0320927D01*
X0299527D02*
X0306927D01*
X0314427Y-0049981D02*
X0320927D01*
X0299527D02*
X0306927D01*
X0314327Y-0050081D02*
X0320927D01*
X0299527D02*
X0306927D01*
X0313527Y-0050181D02*
X0320927D01*
X0299527D02*
X0306927D01*
X0313527Y-0050281D02*
X0320927D01*
X0299527D02*
X0306927D01*
X0313527Y-0050381D02*
X0320927D01*
X0299527D02*
X0306927D01*
X0313527Y-0050481D02*
X0320927D01*
X0299527D02*
X0306927D01*
X0313527Y-0050581D02*
X0320927D01*
X0299527D02*
X0306927D01*
X0314327Y-0050681D02*
X0320927D01*
X0299527D02*
X0306927D01*
X0314427Y-0050781D02*
X0320927D01*
X0299527D02*
X0306927D01*
X0314527Y-0050881D02*
X0320927D01*
X0299527D02*
X0306927D01*
X0314527Y-0050981D02*
X0320927D01*
X0299527D02*
X0306927D01*
X0314527Y-0051081D02*
X0320927D01*
X0299527D02*
X0306927D01*
X0314527Y-0051181D02*
X0320927D01*
X0299527D02*
X0306927D01*
X0314527Y-0051281D02*
X0320927D01*
X0299527D02*
X0306927D01*
X0314427Y-0051381D02*
X0320927D01*
X0299527D02*
X0306927D01*
X0314327Y-0051481D02*
X0320927D01*
X0299527D02*
X0306927D01*
X0313527Y-0051581D02*
X0320927D01*
X0299527D02*
X0306927D01*
X0313527Y-0051681D02*
X0320927D01*
X0299527D02*
X0306927D01*
X0313527Y-0051781D02*
X0320927D01*
X0299527D02*
X0306927D01*
X0313527Y-0051881D02*
X0320927D01*
X0299527D02*
X0306927D01*
X0313527Y-0051981D02*
X0320927D01*
X0299527D02*
X0306927D01*
X0314327Y-0052081D02*
X0320927D01*
X0299527D02*
X0306927D01*
X0314427Y-0052181D02*
X0320927D01*
X0299527D02*
X0306927D01*
X0314527Y-0052281D02*
X0320927D01*
X0299527D02*
X0306927D01*
X0314527Y-0052381D02*
X0320927D01*
X0299527D02*
X0306927D01*
X0314527Y-0052481D02*
X0320927D01*
X0299527D02*
X0306927D01*
X0314527Y-0052581D02*
X0320927D01*
X0299527D02*
X0306927D01*
X0314527Y-0052681D02*
X0320927D01*
X0299527D02*
X0306927D01*
X0314427Y-0052781D02*
X0320927D01*
X0299527D02*
X0306927D01*
X0314327Y-0052881D02*
X0320927D01*
X0299527D02*
X0307027D01*
X0313527Y-0052981D02*
X0320927D01*
X0299527D02*
X0307027D01*
X0313527Y-0053081D02*
X0320927D01*
X0299527D02*
X0307027D01*
X0313527Y-0053181D02*
X0320927D01*
X0299527D02*
X0307027D01*
X0313527Y-0053281D02*
X0320927D01*
X0299527D02*
X0307127D01*
X0313527Y-0053381D02*
X0320927D01*
X0299527D02*
X0307127D01*
X0313527Y-0053481D02*
X0320927D01*
X0299527D02*
X0307227D01*
X0313527Y-0053581D02*
X0320927D01*
X0299527D02*
X0307227D01*
X0313527Y-0053681D02*
X0320927D01*
X0299627D02*
X0307327D01*
X0313527Y-0053781D02*
X0320927D01*
X0299627D02*
X0307427D01*
X0313527Y-0053881D02*
X0320927D01*
X0299627D02*
X0307527D01*
X0313527Y-0053981D02*
X0320927D01*
X0299627D02*
X0307627D01*
X0313527Y-0054081D02*
X0320927D01*
X0299627D02*
X0307727D01*
X0313527Y-0054181D02*
X0320927D01*
X0299727D02*
X0307927D01*
X0313527Y-0054281D02*
X0320927D01*
X0299727D02*
X0308227D01*
X0299727Y-0054381D02*
X0320927D01*
X0299827Y-0054481D02*
X0320927D01*
X0299927Y-0054581D02*
X0320927D01*
X0299927Y-0054681D02*
X0320927D01*
X0300027Y-0054781D02*
X0320927D01*
X0300127Y-0054881D02*
X0320927D01*
X0300227Y-0054981D02*
X0320927D01*
X0300327Y-0055081D02*
X0320927D01*
X0300427Y-0055181D02*
X0320927D01*
X0300527Y-0055281D02*
X0320927D01*
X0300627Y-0055381D02*
X0320927D01*
X0300727Y-0055481D02*
X0320927D01*
X0300827Y-0055581D02*
X0320927D01*
X0300927Y-0055681D02*
X0320927D01*
X0301027Y-0055781D02*
X0320927D01*
X0301127Y-0055881D02*
X0320927D01*
X0301227Y-0055981D02*
X0320927D01*
X0301327Y-0056081D02*
X0320927D01*
X0301427Y-0056181D02*
X0320927D01*
X0301527Y-0056281D02*
X0320927D01*
X0301627Y-0056381D02*
X0320927D01*
X0301727Y-0056481D02*
X0320927D01*
X0301827Y-0056581D02*
X0320927D01*
X0301927Y-0056681D02*
X0320927D01*
X0302027Y-0056781D02*
X0320927D01*
X0302127Y-0056881D02*
X0320927D01*
X0302127Y-0056981D02*
X0320927D01*
X0302227Y-0057081D02*
X0320927D01*
X0302227Y-0057181D02*
X0320927D01*
X0302327Y-0057281D02*
X0320927D01*
X0302327Y-0057381D02*
X0320927D01*
X0302427Y-0057481D02*
X0320927D01*
X0302427Y-0057581D02*
X0320927D01*
X0302427Y-0057681D02*
X0320927D01*
X0302427Y-0057781D02*
X0320927D01*
X0302427Y-0057881D02*
X0320927D01*
X0302427Y-0057981D02*
X0320927D01*
X0302427Y-0058081D02*
X0320927D01*
X0302427Y-0058181D02*
X0320927D01*
X0302427Y-0058281D02*
X0320927D01*
X0302427Y-0058381D02*
X0320927D01*
X0302427Y-0058481D02*
X0320927D01*
X0302427Y-0058581D02*
X0320927D01*
X0302327Y-0058681D02*
X0320927D01*
X0311827Y-0058781D02*
X0320927D01*
X0302327D02*
X0310727D01*
X0312227Y-0058881D02*
X0320927D01*
X0302227D02*
X0310427D01*
X0312427Y-0058981D02*
X0320927D01*
X0302227D02*
X0310227D01*
X0312627Y-0059081D02*
X0320927D01*
X0302127D02*
X0310027D01*
X0312727Y-0059181D02*
X0320927D01*
X0302127D02*
X0309927D01*
X0312827Y-0059281D02*
X0320927D01*
X0302027D02*
X0309727D01*
X0312927Y-0059381D02*
X0320927D01*
X0302027D02*
X0309627D01*
X0313027Y-0059481D02*
X0320927D01*
X0301927D02*
X0309627D01*
X0313127Y-0059581D02*
X0320927D01*
X0301927D02*
X0309527D01*
X0313127Y-0059681D02*
X0320927D01*
X0301827D02*
X0309427D01*
X0313227Y-0059781D02*
X0320927D01*
X0301727D02*
X0309427D01*
X0313327Y-0059881D02*
X0320927D01*
X0301727D02*
X0309327D01*
X0313327Y-0059981D02*
X0320927D01*
X0301627D02*
X0309327D01*
X0313327Y-0060081D02*
X0320927D01*
X0301627D02*
X0309227D01*
X0313427Y-0060181D02*
X0320927D01*
X0301527D02*
X0309227D01*
X0313427Y-0060281D02*
X0320927D01*
X0301527D02*
X0309127D01*
X0313427Y-0060381D02*
X0320927D01*
X0301427D02*
X0309127D01*
X0313427Y-0060481D02*
X0320927D01*
X0301427D02*
X0309027D01*
X0313427Y-0060581D02*
X0320927D01*
X0301327D02*
X0309027D01*
X0313527Y-0060681D02*
X0320927D01*
X0301327D02*
X0308927D01*
X0313527Y-0060781D02*
X0320927D01*
X0301227D02*
X0308927D01*
X0313527Y-0060881D02*
X0320927D01*
X0301227D02*
X0308827D01*
X0313527Y-0060981D02*
X0320927D01*
X0301127D02*
X0308827D01*
X0313527Y-0061081D02*
X0320927D01*
X0301027D02*
X0308727D01*
X0313527Y-0061181D02*
X0320927D01*
X0301027D02*
X0308727D01*
X0313527Y-0061281D02*
X0320927D01*
X0300927D02*
X0308627D01*
X0313527Y-0061381D02*
X0320927D01*
X0300927D02*
X0308627D01*
X0313527Y-0061481D02*
X0320927D01*
X0300827D02*
X0308527D01*
X0313527Y-0061581D02*
X0320927D01*
X0300827D02*
X0308527D01*
X0313527Y-0061681D02*
X0320927D01*
X0300727D02*
X0308427D01*
X0313527Y-0061781D02*
X0320927D01*
X0300727D02*
X0308427D01*
X0313527Y-0061881D02*
X0320927D01*
X0300627D02*
X0308327D01*
X0313527Y-0061981D02*
X0320927D01*
X0300627D02*
X0308327D01*
X0313527Y-0062081D02*
X0320927D01*
X0300527D02*
X0308327D01*
X0313527Y-0062181D02*
X0320927D01*
X0300427D02*
X0308227D01*
X0313527Y-0062281D02*
X0320927D01*
X0300427D02*
X0308227D01*
X0313527Y-0062381D02*
X0320927D01*
X0300327D02*
X0308127D01*
X0313527Y-0062481D02*
X0320927D01*
X0300327D02*
X0308127D01*
X0313527Y-0062581D02*
X0320927D01*
X0300327D02*
X0308027D01*
X0313527Y-0062681D02*
X0320927D01*
X0300227D02*
X0308027D01*
X0313527Y-0062781D02*
X0320927D01*
X0300227D02*
X0307927D01*
X0313527Y-0062881D02*
X0320927D01*
X0300227D02*
X0307927D01*
X0313527Y-0062981D02*
X0320927D01*
X0300227D02*
X0307827D01*
X0313527Y-0063081D02*
X0320927D01*
X0300227D02*
X0307827D01*
X0313527Y-0063181D02*
X0320927D01*
X0300227D02*
X0307727D01*
X0313527Y-0063281D02*
X0320927D01*
X0300227D02*
X0307727D01*
X0313527Y-0063381D02*
X0320927D01*
X0300227D02*
X0307627D01*
X0313527Y-0063481D02*
X0320927D01*
X0300227D02*
X0307627D01*
X0313527Y-0063581D02*
X0320827D01*
X0300227D02*
X0307527D01*
X0313527Y-0063681D02*
X0320827D01*
X0300227D02*
X0307527D01*
X0313527Y-0063781D02*
X0320827D01*
X0300227D02*
X0307427D01*
X0313527Y-0063881D02*
X0320827D01*
X0300227D02*
X0307427D01*
X0313627Y-0063981D02*
X0320727D01*
X0300327D02*
X0307327D01*
X0313627Y-0064081D02*
X0320727D01*
X0300327D02*
X0307327D01*
X0313627Y-0064181D02*
X0320727D01*
X0300427D02*
X0307327D01*
X0313727Y-0064281D02*
X0320627D01*
X0300427D02*
X0307227D01*
X0313827Y-0064381D02*
X0320627D01*
X0300527D02*
X0307127D01*
X0313827Y-0064481D02*
X0320527D01*
X0300527D02*
X0307127D01*
X0313927Y-0064581D02*
X0320427D01*
X0300627D02*
X0307027D01*
X0314027Y-0064681D02*
X0320327D01*
X0300727D02*
X0306927D01*
X0314127Y-0064781D02*
X0320227D01*
X0300827D02*
X0306827D01*
X0314227Y-0064881D02*
X0320127D01*
X0300927D02*
X0306727D01*
X0314327Y-0064981D02*
X0320027D01*
X0301027D02*
X0306627D01*
X0314527Y-0065081D02*
X0319827D01*
X0301227D02*
X0306427D01*
X0314727Y-0065181D02*
X0319627D01*
X0301427D02*
X0306227D01*
X0315027Y-0065281D02*
X0319327D01*
X0301727D02*
X0305927D01*
G54D75*
X0060236Y-0104331D02*
X0070079D01*
X0050394D02*
X0060236D01*
Y-0198031D02*
Y-0104331D01*
X0050394Y-0090551D02*
X0060236D01*
X0070079*
X0050394Y-0076378D02*
X0060236D01*
X0070079*
X0050394Y-0062992D02*
X0060236D01*
X0070079*
X0050394Y-0048819D02*
X0060236D01*
X0070079*
X0050394Y-0035039D02*
X0060236D01*
X0070079*
X0056103Y-0043307D02*
Y-0040552D01*
X005748Y-004193*
X0055644*
X0054725Y-0043307D02*
X0053807D01*
X0054266*
Y-0040552*
X0054725Y-0041011*
X0066339Y-0043307D02*
Y-0040552D01*
X0067716Y-004193*
X006588*
X0064961Y-0041011D02*
X0064502Y-0040552D01*
X0063584*
X0063125Y-0041011*
Y-0042848*
X0063584Y-0043307*
X0064502*
X0064961Y-0042848*
Y-0041011*
X005748Y-0054791D02*
X0057021Y-0054332D01*
X0056103*
X0055644Y-0054791*
Y-005525*
X0056103Y-0055709*
X0056562*
X0056103*
X0055644Y-0056168*
Y-0056627*
X0056103Y-0057087*
X0057021*
X005748Y-0056627*
X0054725Y-0057087D02*
X0053807D01*
X0054266*
Y-0054332*
X0054725Y-0054791*
X0067716D02*
X0067257Y-0054332D01*
X0066339*
X006588Y-0054791*
Y-005525*
X0066339Y-0055709*
X0066798*
X0066339*
X006588Y-0056168*
Y-0056627*
X0066339Y-0057087*
X0067257*
X0067716Y-0056627*
X0064961Y-0054791D02*
X0064502Y-0054332D01*
X0063584*
X0063125Y-0054791*
Y-0056627*
X0063584Y-0057087*
X0064502*
X0064961Y-0056627*
Y-0054791*
X0055644Y-0070866D02*
X005748D01*
X0055644Y-0069029*
Y-006857*
X0056103Y-0068111*
X0057021*
X005748Y-006857*
X0054725Y-0070866D02*
X0053807D01*
X0054266*
Y-0068111*
X0054725Y-006857*
X0065486Y-0070866D02*
X0067323D01*
X0065486Y-0069029*
Y-006857*
X0065945Y-0068111*
X0066864*
X0067323Y-006857*
X0064568D02*
X0064109Y-0068111D01*
X006319*
X0062731Y-006857*
Y-0070407*
X006319Y-0070866*
X0064109*
X0064568Y-0070407*
Y-006857*
X0057087Y-0084646D02*
X0056168D01*
X0056627*
Y-0081891*
X0057087Y-008235*
X0054791Y-0084646D02*
X0053872D01*
X0054332*
Y-0081891*
X0054791Y-008235*
X0067323Y-0084646D02*
X0066404D01*
X0066864*
Y-0081891*
X0067323Y-008235*
X0065027D02*
X0064568Y-0081891D01*
X0063649*
X006319Y-008235*
Y-0084187*
X0063649Y-0084646*
X0064568*
X0065027Y-0084187*
Y-008235*
X005748Y-0096129D02*
X0057021Y-009567D01*
X0056103*
X0055644Y-0096129*
Y-0097966*
X0056103Y-0098425*
X0057021*
X005748Y-0097966*
Y-0096129*
X0054725Y-0098425D02*
X0053807D01*
X0054266*
Y-009567*
X0054725Y-0096129*
X0067323D02*
X0066864Y-009567D01*
X0065945*
X0065486Y-0096129*
Y-0097966*
X0065945Y-0098425*
X0066864*
X0067323Y-0097966*
Y-0096129*
X0064568D02*
X0064109Y-009567D01*
X006319*
X0062731Y-0096129*
Y-0097966*
X006319Y-0098425*
X0064109*
X0064568Y-0097966*
Y-0096129*
X0066245Y-010937D02*
X0067164D01*
X0067623Y-0109829*
Y-0111666*
X0067164Y-0112125*
X0066245*
X0065786Y-0111666*
Y-0109829*
X0066245Y-010937*
X0063031Y-0109829D02*
X006349Y-010937D01*
X0064409*
X0064868Y-0109829*
Y-0111666*
X0064409Y-0112125*
X006349*
X0063031Y-0111666*
X0057623Y-010947D02*
X0056704D01*
X0057164*
Y-0112225*
X0057623*
X0056704*
X005349Y-0109929D02*
X0053949Y-010947D01*
X0054868*
X0055327Y-0109929*
Y-0111766*
X0054868Y-0112225*
X0053949*
X005349Y-0111766*
X0066245Y-012277D02*
X0067164D01*
X0067623Y-0123229*
Y-0125066*
X0067164Y-0125525*
X0066245*
X0065786Y-0125066*
Y-0123229*
X0066245Y-012277*
X006349Y-0125525D02*
Y-012277D01*
X0064868Y-0124148*
X0063031*
X0057723Y-012287D02*
X0056805D01*
X0057264*
Y-0125625*
X0057723*
X0056805*
X0054049D02*
Y-012287D01*
X0055427Y-0124248*
X005359*
X0057623Y-013697D02*
X0056704D01*
X0057164*
Y-0139725*
X0057623*
X0056704*
X0055327Y-0137429D02*
X0054868Y-013697D01*
X0053949*
X005349Y-0137429*
Y-0137889*
X0053949Y-0138348*
X0054409*
X0053949*
X005349Y-0138807*
Y-0139266*
X0053949Y-0139725*
X0054868*
X0055327Y-0139266*
X0066145Y-013697D02*
X0067064D01*
X0067523Y-0137429*
Y-0139266*
X0067064Y-0139725*
X0066145*
X0065686Y-0139266*
Y-0137429*
X0066145Y-013697*
X0064768Y-0137429D02*
X0064309Y-013697D01*
X006339*
X0062931Y-0137429*
Y-0137889*
X006339Y-0138348*
X006385*
X006339*
X0062931Y-0138807*
Y-0139266*
X006339Y-0139725*
X0064309*
X0064768Y-0139266*
X0066145Y-015027D02*
X0067064D01*
X0067523Y-0150729*
Y-0152566*
X0067064Y-0153025*
X0066145*
X0065686Y-0152566*
Y-0150729*
X0066145Y-015027*
X0062931Y-0153025D02*
X0064768D01*
X0062931Y-0151189*
Y-0150729*
X006339Y-015027*
X0064309*
X0064768Y-0150729*
X0057523Y-015037D02*
X0056604D01*
X0057064*
Y-0153125*
X0057523*
X0056604*
X005339D02*
X0055227D01*
X005339Y-0151288*
Y-0150829*
X005385Y-015037*
X0054768*
X0055227Y-0150829*
X0065623Y-0164245D02*
X0066541D01*
X0067Y-0164704*
Y-0166541*
X0066541Y-0167*
X0065623*
X0065163Y-0166541*
Y-0164704*
X0065623Y-0164245*
X0064245Y-0167D02*
X0063327D01*
X0063786*
Y-0164245*
X0064245Y-0164704*
X00571Y-0164445D02*
X0056182D01*
X0056641*
Y-01672*
X00571*
X0056182*
X0054804D02*
X0053886D01*
X0054345*
Y-0164445*
X0054804Y-0164904*
X0066245Y-017787D02*
X0067164D01*
X0067623Y-0178329*
Y-0180166*
X0067164Y-0180625*
X0066245*
X0065786Y-0180166*
Y-0178329*
X0066245Y-017787*
X0064868Y-0178329D02*
X0064409Y-017787D01*
X006349*
X0063031Y-0178329*
Y-0180166*
X006349Y-0180625*
X0064409*
X0064868Y-0180166*
Y-0178329*
X0057623Y-017797D02*
X0056704D01*
X0057164*
Y-0180725*
X0057623*
X0056704*
X0055327Y-0178429D02*
X0054868Y-017797D01*
X0053949*
X005349Y-0178429*
Y-0180266*
X0053949Y-0180725*
X0054868*
X0055327Y-0180266*
Y-0178429*
X006811Y-0204331D02*
X0067192D01*
X0067651*
Y-0201576*
X006811Y-0202035*
X0063978Y-0204331D02*
X0065814D01*
X0063978Y-0202494*
Y-0202035*
X0064437Y-0201576*
X0065355*
X0065814Y-0202035*
X0063059Y-0202953D02*
X0061223D01*
X0058468Y-0204331D02*
X0060304D01*
X0058468Y-0202494*
Y-0202035*
X0058927Y-0201576*
X0059845*
X0060304Y-0202035*
X0056172Y-0204331D02*
Y-0201576D01*
X0057549Y-0202953*
X0055713*
X0054794Y-0201576D02*
Y-0203412D01*
X0053876Y-0204331*
X0052958Y-0203412*
Y-0201576*
X0249213Y-0187927D02*
Y-0189764D01*
X0251049Y-0187927*
X0251508*
X0251968Y-0188386*
Y-0189305*
X0251508Y-0189764*
Y-0182417D02*
X0251968Y-0182876D01*
Y-0183795*
X0251508Y-0184254*
X0249672*
X0249213Y-0183795*
Y-0182876*
X0249672Y-0182417*
X0249213Y-0181499D02*
X0251049D01*
X0251968Y-018058*
X0251049Y-0179662*
X0249213*
X025059*
Y-0181499*
X0249213Y-0178744D02*
X0251968D01*
X0249213Y-0176907*
X0251968*
Y-0173234D02*
X0249213D01*
Y-0171397*
X0253543Y-0189791D02*
Y-0188873D01*
Y-0189332*
X0256298*
X0255839Y-0189791*
Y-0182904D02*
X0256298Y-0183363D01*
Y-0184281*
X0255839Y-018474*
X0254002*
X0253543Y-0184281*
Y-0183363*
X0254002Y-0182904*
X0253543Y-0181985D02*
X025538D01*
X0256298Y-0181067*
X025538Y-0180149*
X0253543*
X0254921*
Y-0181985*
X0253543Y-017923D02*
X0256298D01*
X0253543Y-0177394*
X0256298*
Y-0173721D02*
X0253543D01*
X0254921*
Y-0171884*
X0256298*
X0253543*
X0247178Y-0189764D02*
X0247637Y-0189305D01*
Y-0188386*
X0247178Y-0187927*
X0246719*
X0246259Y-0188386*
Y-0188845*
Y-0188386*
X02458Y-0187927*
X0245341*
X0244882Y-0188386*
Y-0189305*
X0245341Y-0189764*
X0244882Y-0187009D02*
X0246719Y-0185172D01*
X0247637Y-0182417D02*
Y-0184254D01*
X0246259*
X0246719Y-0183335*
Y-0182876*
X0246259Y-0182417*
X0245341*
X0244882Y-0182876*
Y-0183795*
X0245341Y-0184254*
X0244882Y-0181499D02*
X0246719Y-0179662D01*
X0247637Y-0178744D02*
Y-0176907D01*
X0247178*
X0245341Y-0178744*
X0244882*
X0247178Y-0171397D02*
X0247637Y-0171856D01*
Y-0172775*
X0247178Y-0173234*
X0245341*
X0244882Y-0172775*
Y-0171856*
X0245341Y-0171397*
X0246259*
Y-0172315*
X0244882Y-0170479D02*
X0247637D01*
X0244882Y-0168642*
X0247637*
Y-0167724D02*
X0244882D01*
Y-0166346*
X0245341Y-0165887*
X0247178*
X0247637Y-0166346*
Y-0167724*
X0240551Y-0187993D02*
X0243306D01*
X0241929Y-018937*
Y-0187533*
X0240551Y-0186615D02*
X0242388Y-0184778D01*
X0243306Y-0182023D02*
X0242847Y-0182942D01*
X0241929Y-018386*
X024101*
X0240551Y-0183401*
Y-0182483*
X024101Y-0182023*
X024147*
X0241929Y-0182483*
Y-018386*
X0240551Y-0181105D02*
X0242388Y-0179268D01*
X0242847Y-017835D02*
X0243306Y-0177891D01*
Y-0176972*
X0242847Y-0176513*
X0242388*
X0241929Y-0176972*
X024147Y-0176513*
X024101*
X0240551Y-0176972*
Y-0177891*
X024101Y-017835*
X024147*
X0241929Y-0177891*
X0242388Y-017835*
X0242847*
X0241929Y-0177891D02*
Y-0176972D01*
X0240551Y-017284D02*
X0243306D01*
Y-0171462*
X0242847Y-0171003*
X0241929*
X024147Y-0171462*
Y-017284*
X0240551Y-0170085D02*
X0243306D01*
Y-0168707*
X0242847Y-0168248*
X0241929*
X024147Y-0168707*
Y-0170085*
X0240551Y-0166871D02*
Y-0165952D01*
X024101Y-0165493*
X0241929*
X0242388Y-0165952*
Y-0166871*
X0241929Y-016733*
X024101*
X0240551Y-0166871*
X0242847Y-0162738D02*
X0243306Y-0163197D01*
Y-0164116*
X0242847Y-0164575*
X024101*
X0240551Y-0164116*
Y-0163197*
X024101Y-0162738*
G54D76*
X0187008Y-0005906D03*
Y-0230315D03*
G54D119*
X0299377Y-0203628D02*
Y-0153028D01*
X0299177Y-0203628D02*
Y-0152828D01*
X0298977Y-0203628D02*
Y-0152828D01*
X0298777Y-0153228D02*
Y-0152828D01*
Y-0203628D02*
Y-0203228D01*
X0298577Y-0153228D02*
Y-0152828D01*
Y-0203628D02*
Y-0203228D01*
X0298377Y-0153228D02*
Y-0152828D01*
Y-0203628D02*
Y-0203228D01*
X0298177Y-0153228D02*
Y-0152828D01*
Y-0203628D02*
Y-0203228D01*
X0297977Y-0153228D02*
Y-0152828D01*
Y-0203628D02*
Y-0203228D01*
X0297777Y-0153228D02*
Y-0152828D01*
Y-0203628D02*
Y-0203228D01*
X0297577Y-0153228D02*
Y-0152828D01*
Y-0203628D02*
Y-0203228D01*
X0297377Y-0153228D02*
Y-0152828D01*
Y-0203628D02*
Y-0203228D01*
X0297177Y-0153228D02*
Y-0152828D01*
Y-0183828D02*
Y-0170828D01*
Y-0203628D02*
Y-0203228D01*
X0296977Y-0153228D02*
Y-0152828D01*
Y-0184028D02*
Y-0170628D01*
Y-0203628D02*
Y-0203228D01*
X0296777Y-0153228D02*
Y-0152828D01*
Y-0171028D02*
Y-0170628D01*
Y-0184028D02*
Y-0183628D01*
Y-0203628D02*
Y-0203228D01*
X0296577Y-0153228D02*
Y-0152828D01*
Y-0171028D02*
Y-0170628D01*
Y-0184028D02*
Y-0183628D01*
Y-0203628D02*
Y-0203228D01*
X0296377Y-0153228D02*
Y-0152828D01*
Y-0171028D02*
Y-0170628D01*
Y-0184028D02*
Y-0183628D01*
Y-0203628D02*
Y-0203228D01*
X0296177Y-0153228D02*
Y-0152828D01*
Y-0171028D02*
Y-0170628D01*
Y-0184028D02*
Y-0183628D01*
Y-0203628D02*
Y-0203228D01*
X0295977Y-0153228D02*
Y-0152828D01*
Y-0171028D02*
Y-0170628D01*
Y-0184028D02*
Y-0183628D01*
Y-0203628D02*
Y-0203228D01*
X0295777Y-0153228D02*
Y-0152828D01*
Y-0171028D02*
Y-0170628D01*
Y-0184028D02*
Y-0183628D01*
Y-0203628D02*
Y-0203228D01*
X0295577Y-0153228D02*
Y-0152828D01*
Y-0171028D02*
Y-0170628D01*
Y-0184028D02*
Y-0183628D01*
Y-0203628D02*
Y-0203228D01*
X0295377Y-0153228D02*
Y-0152828D01*
Y-0171028D02*
Y-0170628D01*
Y-0184028D02*
Y-0183628D01*
Y-0203628D02*
Y-0203228D01*
X0295177Y-0153228D02*
Y-0152828D01*
Y-0171028D02*
Y-0170628D01*
Y-0184028D02*
Y-0183628D01*
Y-0203628D02*
Y-0203228D01*
X0294977Y-0153228D02*
Y-0152828D01*
Y-0171028D02*
Y-0170628D01*
Y-0184028D02*
Y-0183628D01*
Y-0203628D02*
Y-0203228D01*
X0294777Y-0153228D02*
Y-0152828D01*
Y-0171028D02*
Y-0170628D01*
Y-0184028D02*
Y-0183628D01*
Y-0203628D02*
Y-0203228D01*
X0294577Y-0153228D02*
Y-0152828D01*
Y-0171028D02*
Y-0170628D01*
Y-0184028D02*
Y-0183628D01*
Y-0203628D02*
Y-0203228D01*
X0294377Y-0153228D02*
Y-0152828D01*
Y-0171028D02*
Y-0170628D01*
Y-0184028D02*
Y-0183628D01*
Y-0203628D02*
Y-0203228D01*
X0294177Y-0153228D02*
Y-0152828D01*
Y-0171028D02*
Y-0170628D01*
Y-0184028D02*
Y-0183628D01*
Y-0203628D02*
Y-0203228D01*
X0293977Y-0153228D02*
Y-0152828D01*
Y-0171028D02*
Y-0170628D01*
Y-0184028D02*
Y-0183628D01*
Y-0203628D02*
Y-0203228D01*
X0293777Y-0153228D02*
Y-0152828D01*
Y-0171028D02*
Y-0170628D01*
Y-0184028D02*
Y-0183628D01*
Y-0203628D02*
Y-0203228D01*
X0293577Y-0153228D02*
Y-0152828D01*
Y-0171028D02*
Y-0170628D01*
Y-0184028D02*
Y-0183628D01*
Y-0203628D02*
Y-0203228D01*
X0293377Y-0153228D02*
Y-0152828D01*
Y-0171028D02*
Y-0170628D01*
Y-0184028D02*
Y-0183628D01*
Y-0203628D02*
Y-0203228D01*
X0293177Y-0153228D02*
Y-0152828D01*
Y-0171028D02*
Y-0170628D01*
Y-0184028D02*
Y-0183628D01*
Y-0203628D02*
Y-0203228D01*
X0292977Y-0153228D02*
Y-0152828D01*
Y-0171028D02*
Y-0170628D01*
Y-0184028D02*
Y-0183628D01*
Y-0203628D02*
Y-0203228D01*
X0292777Y-0153228D02*
Y-0152828D01*
Y-0171028D02*
Y-0170628D01*
Y-0184028D02*
Y-0183628D01*
Y-0203628D02*
Y-0203228D01*
X0292577Y-0153228D02*
Y-0152828D01*
Y-0171028D02*
Y-0165828D01*
Y-0188828D02*
Y-0183628D01*
Y-0203628D02*
Y-0203228D01*
X0292377Y-0153228D02*
Y-0152828D01*
Y-0170828D02*
Y-0165628D01*
Y-0189028D02*
Y-0183828D01*
Y-0203628D02*
Y-0203228D01*
X0292177Y-0153228D02*
Y-0152828D01*
Y-0166028D02*
Y-0165628D01*
Y-0189028D02*
Y-0188628D01*
Y-0203628D02*
Y-0203228D01*
X0291977Y-0153228D02*
Y-0152828D01*
Y-0166028D02*
Y-0165628D01*
Y-0189028D02*
Y-0188628D01*
Y-0203628D02*
Y-0203228D01*
X0291777Y-0153228D02*
Y-0152828D01*
Y-0166028D02*
Y-0165628D01*
Y-0189028D02*
Y-0188628D01*
Y-0203628D02*
Y-0203228D01*
X0291577Y-0153228D02*
Y-0152828D01*
Y-0166028D02*
Y-0165628D01*
Y-0189028D02*
Y-0188628D01*
Y-0203628D02*
Y-0203228D01*
X0291377Y-0153228D02*
Y-0152828D01*
Y-0166028D02*
Y-0165628D01*
Y-0189028D02*
Y-0188628D01*
Y-0203628D02*
Y-0203228D01*
X0291177Y-0153228D02*
Y-0152828D01*
Y-0166028D02*
Y-0165628D01*
Y-0189028D02*
Y-0188628D01*
Y-0203628D02*
Y-0203228D01*
X0290977Y-0153228D02*
Y-0152828D01*
Y-0166028D02*
Y-0165628D01*
Y-0189028D02*
Y-0188628D01*
Y-0203628D02*
Y-0203228D01*
X0290777Y-0153228D02*
Y-0152828D01*
Y-0166028D02*
Y-0165628D01*
Y-0189028D02*
Y-0188628D01*
Y-0203628D02*
Y-0203228D01*
X0290577Y-0153228D02*
Y-0152828D01*
Y-0166028D02*
Y-0165628D01*
Y-0189028D02*
Y-0188628D01*
Y-0203628D02*
Y-0203228D01*
X0290377Y-0153228D02*
Y-0152828D01*
Y-0166028D02*
Y-0165628D01*
Y-0189028D02*
Y-0188628D01*
Y-0203628D02*
Y-0203228D01*
X0290177Y-0153228D02*
Y-0152828D01*
Y-0166028D02*
Y-0165628D01*
Y-0189028D02*
Y-0188628D01*
Y-0203628D02*
Y-0203228D01*
X0289977Y-0153228D02*
Y-0152828D01*
Y-0166028D02*
Y-0165628D01*
Y-0189028D02*
Y-0188628D01*
Y-0203628D02*
Y-0203228D01*
X0289777Y-0153228D02*
Y-0152828D01*
Y-0166028D02*
Y-0165628D01*
Y-0189028D02*
Y-0188628D01*
Y-0203628D02*
Y-0203228D01*
X0289577Y-0153228D02*
Y-0152828D01*
Y-0166028D02*
Y-0165628D01*
Y-0189028D02*
Y-0188628D01*
Y-0203628D02*
Y-0203228D01*
X0289377Y-0153228D02*
Y-0152828D01*
Y-0166028D02*
Y-0165628D01*
Y-0189028D02*
Y-0188628D01*
Y-0203628D02*
Y-0203228D01*
X0289177Y-0153228D02*
Y-0152828D01*
Y-0166028D02*
Y-0165628D01*
Y-0189028D02*
Y-0188628D01*
Y-0203628D02*
Y-0203228D01*
X0288977Y-0153228D02*
Y-0152828D01*
Y-0166028D02*
Y-0165628D01*
Y-0189028D02*
Y-0188628D01*
Y-0203628D02*
Y-0203228D01*
X0288777Y-0153228D02*
Y-0152828D01*
Y-0166028D02*
Y-0165628D01*
Y-0189028D02*
Y-0188628D01*
Y-0203628D02*
Y-0203228D01*
X0288577Y-0153228D02*
Y-0152828D01*
Y-0166028D02*
Y-0165628D01*
Y-0189028D02*
Y-0188628D01*
Y-0203628D02*
Y-0203228D01*
X0288377Y-0153228D02*
Y-0152828D01*
Y-0166028D02*
Y-0165628D01*
Y-0189028D02*
Y-0188628D01*
Y-0203628D02*
Y-0203228D01*
X0288177Y-0153228D02*
Y-0152828D01*
Y-0166028D02*
Y-0165628D01*
Y-0189028D02*
Y-0188628D01*
Y-0203628D02*
Y-0203228D01*
X0287977Y-0153228D02*
Y-0152828D01*
Y-0166028D02*
Y-0165628D01*
Y-0189028D02*
Y-0188628D01*
Y-0203628D02*
Y-0203228D01*
X0287777Y-0153228D02*
Y-0152828D01*
Y-0166028D02*
Y-0165628D01*
Y-0189028D02*
Y-0188628D01*
Y-0203628D02*
Y-0203228D01*
X0287577Y-0153228D02*
Y-0152828D01*
Y-0166028D02*
Y-0165628D01*
Y-0189028D02*
Y-0188628D01*
Y-0203628D02*
Y-0203228D01*
X0287377Y-0153228D02*
Y-0152828D01*
Y-0166028D02*
Y-0165628D01*
Y-0189028D02*
Y-0188628D01*
Y-0203628D02*
Y-0203228D01*
X0287177Y-0153228D02*
Y-0152828D01*
Y-0166028D02*
Y-0165628D01*
Y-0189028D02*
Y-0188628D01*
Y-0203628D02*
Y-0203228D01*
X0286977Y-0153228D02*
Y-0152828D01*
Y-0166028D02*
Y-0165628D01*
Y-0189028D02*
Y-0188628D01*
Y-0203628D02*
Y-0203228D01*
X0286777Y-0153228D02*
Y-0152828D01*
Y-0166028D02*
Y-0165628D01*
Y-0189028D02*
Y-0188628D01*
Y-0203628D02*
Y-0203228D01*
X0286577Y-0153228D02*
Y-0152828D01*
Y-0166028D02*
Y-0157628D01*
Y-0197028D02*
Y-0188628D01*
Y-0203628D02*
Y-0203228D01*
X0286377Y-0153228D02*
Y-0152828D01*
Y-0165828D02*
Y-0157428D01*
Y-0197228D02*
Y-0188828D01*
Y-0203628D02*
Y-0203228D01*
X0286177Y-0153228D02*
Y-0152828D01*
Y-0157828D02*
Y-0157428D01*
Y-0197228D02*
Y-0196828D01*
Y-0203628D02*
Y-0203228D01*
X0285977Y-0153228D02*
Y-0152828D01*
Y-0157828D02*
Y-0157428D01*
Y-0197228D02*
Y-0196828D01*
Y-0203628D02*
Y-0203228D01*
X0285777Y-0153228D02*
Y-0152828D01*
Y-0157828D02*
Y-0157428D01*
Y-0197228D02*
Y-0196828D01*
Y-0203628D02*
Y-0203228D01*
X0285577Y-0153228D02*
Y-0152828D01*
Y-0157828D02*
Y-0157428D01*
Y-0197228D02*
Y-0196828D01*
Y-0203628D02*
Y-0203228D01*
X0285377Y-0153228D02*
Y-0152828D01*
Y-0157828D02*
Y-0157428D01*
Y-0197228D02*
Y-0196828D01*
Y-0203628D02*
Y-0203228D01*
X0285177Y-0153228D02*
Y-0152828D01*
Y-0157828D02*
Y-0157428D01*
Y-0197228D02*
Y-0196828D01*
Y-0203628D02*
Y-0203228D01*
X0284977Y-0153228D02*
Y-0152828D01*
Y-0157828D02*
Y-0157428D01*
Y-0197228D02*
Y-0196828D01*
Y-0203628D02*
Y-0203228D01*
X0284777Y-0153228D02*
Y-0152828D01*
Y-0157828D02*
Y-0157428D01*
Y-0197228D02*
Y-0196828D01*
Y-0203628D02*
Y-0203228D01*
X0284577Y-0153228D02*
Y-0152828D01*
Y-0157828D02*
Y-0157428D01*
Y-0197228D02*
Y-0196828D01*
Y-0203628D02*
Y-0203228D01*
X0284377Y-0153228D02*
Y-0152828D01*
Y-0157828D02*
Y-0157428D01*
Y-0197228D02*
Y-0196828D01*
Y-0203628D02*
Y-0203228D01*
X0284177Y-0153228D02*
Y-0152828D01*
Y-0157828D02*
Y-0157428D01*
Y-0197228D02*
Y-0196828D01*
Y-0203628D02*
Y-0203228D01*
X0283977Y-0153228D02*
Y-0152828D01*
Y-0157828D02*
Y-0157428D01*
Y-0197228D02*
Y-0196828D01*
Y-0203628D02*
Y-0203228D01*
X0283777Y-0153228D02*
Y-0152828D01*
Y-0157828D02*
Y-0157428D01*
Y-0197228D02*
Y-0196828D01*
Y-0203628D02*
Y-0203228D01*
X0283577Y-0153228D02*
Y-0152828D01*
Y-0157828D02*
Y-0157428D01*
Y-0197228D02*
Y-0196828D01*
Y-0203628D02*
Y-0203228D01*
X0283377Y-0153228D02*
Y-0152828D01*
Y-0157828D02*
Y-0157428D01*
Y-0197228D02*
Y-0196828D01*
Y-0203628D02*
Y-0203228D01*
X0283177Y-0153228D02*
Y-0152828D01*
Y-0157828D02*
Y-0157428D01*
Y-0197228D02*
Y-0196828D01*
Y-0203628D02*
Y-0203228D01*
X0282977Y-0153228D02*
Y-0152828D01*
Y-0157828D02*
Y-0157428D01*
Y-0197228D02*
Y-0196828D01*
Y-0203628D02*
Y-0203228D01*
X0282777Y-0153228D02*
Y-0152828D01*
Y-0157828D02*
Y-0157428D01*
Y-0197228D02*
Y-0196828D01*
Y-0203628D02*
Y-0203228D01*
X0282577Y-0153228D02*
Y-0152828D01*
Y-0157828D02*
Y-0157428D01*
Y-0197228D02*
Y-0196828D01*
Y-0203628D02*
Y-0203228D01*
X0282377Y-0153228D02*
Y-0152828D01*
Y-0157828D02*
Y-0157428D01*
Y-0197228D02*
Y-0196828D01*
Y-0203628D02*
Y-0203228D01*
X0282177Y-0153228D02*
Y-0152828D01*
Y-0157828D02*
Y-0157428D01*
Y-0197228D02*
Y-0196828D01*
Y-0203628D02*
Y-0203228D01*
X0281977Y-0153228D02*
Y-0152828D01*
Y-0157828D02*
Y-0157428D01*
Y-0197228D02*
Y-0196828D01*
Y-0203628D02*
Y-0203228D01*
X0281777Y-0153228D02*
Y-0152828D01*
Y-0157828D02*
Y-0157428D01*
Y-0197228D02*
Y-0196828D01*
Y-0203628D02*
Y-0203228D01*
X0281577Y-0153228D02*
Y-0152828D01*
Y-0157828D02*
Y-0157428D01*
Y-0197228D02*
Y-0196828D01*
Y-0203628D02*
Y-0203228D01*
X0281377Y-0153228D02*
Y-0152828D01*
Y-0157828D02*
Y-0157428D01*
Y-0197228D02*
Y-0196828D01*
Y-0203628D02*
Y-0203228D01*
X0281177Y-0153228D02*
Y-0152828D01*
Y-0157828D02*
Y-0157428D01*
Y-0197228D02*
Y-0196828D01*
Y-0203628D02*
Y-0203228D01*
X0280977Y-0153228D02*
Y-0152828D01*
Y-0157828D02*
Y-0157428D01*
Y-0197228D02*
Y-0196828D01*
Y-0203628D02*
Y-0203228D01*
X0280777Y-0153228D02*
Y-0152828D01*
Y-0157828D02*
Y-0157428D01*
Y-0197228D02*
Y-0196828D01*
Y-0203628D02*
Y-0203228D01*
X0280577Y-0153228D02*
Y-0152828D01*
Y-0157828D02*
Y-0157428D01*
Y-0197228D02*
Y-0196828D01*
Y-0203628D02*
Y-0203228D01*
X0280377Y-0153228D02*
Y-0152828D01*
Y-0157828D02*
Y-0157428D01*
Y-0197228D02*
Y-0196828D01*
Y-0203628D02*
Y-0203228D01*
X0280177Y-0153228D02*
Y-0152828D01*
Y-0157828D02*
Y-0157428D01*
Y-0197228D02*
Y-0196828D01*
Y-0203628D02*
Y-0203228D01*
X0279977Y-0153228D02*
Y-0152828D01*
Y-0157828D02*
Y-0157428D01*
Y-0197228D02*
Y-0196828D01*
Y-0203628D02*
Y-0203228D01*
X0279777Y-0153228D02*
Y-0152828D01*
Y-0157828D02*
Y-0157428D01*
Y-0197228D02*
Y-0196828D01*
Y-0203628D02*
Y-0203228D01*
X0279577Y-0153228D02*
Y-0152828D01*
Y-0157828D02*
Y-0157428D01*
Y-0197228D02*
Y-0196828D01*
Y-0203628D02*
Y-0203228D01*
X0279377Y-0153228D02*
Y-0152828D01*
Y-0157828D02*
Y-0157428D01*
Y-0197228D02*
Y-0196828D01*
Y-0203628D02*
Y-0203228D01*
X0279177Y-0153228D02*
Y-0152828D01*
Y-0157828D02*
Y-0157428D01*
Y-0197228D02*
Y-0196828D01*
Y-0203628D02*
Y-0203228D01*
X0278977Y-0153228D02*
Y-0152828D01*
Y-0157828D02*
Y-0157428D01*
Y-0197228D02*
Y-0196828D01*
Y-0203628D02*
Y-0203228D01*
X0278777Y-0153228D02*
Y-0152828D01*
Y-0157828D02*
Y-0157428D01*
Y-0197228D02*
Y-0196828D01*
Y-0203628D02*
Y-0203228D01*
X0278577Y-0153228D02*
Y-0152828D01*
Y-0157828D02*
Y-0157428D01*
Y-0197228D02*
Y-0196828D01*
Y-0203628D02*
Y-0203228D01*
X0278377Y-0153228D02*
Y-0152828D01*
Y-0157828D02*
Y-0157428D01*
Y-0197228D02*
Y-0196828D01*
Y-0203628D02*
Y-0203228D01*
X0278177Y-0153228D02*
Y-0152828D01*
Y-0157828D02*
Y-0157428D01*
Y-0197228D02*
Y-0196828D01*
Y-0203628D02*
Y-0203228D01*
X0277977Y-0153228D02*
Y-0152828D01*
Y-0157828D02*
Y-0157428D01*
Y-0197228D02*
Y-0196828D01*
Y-0203628D02*
Y-0203228D01*
X0277777Y-0153228D02*
Y-0152828D01*
Y-0157828D02*
Y-0157428D01*
Y-0197228D02*
Y-0196828D01*
Y-0203628D02*
Y-0203228D01*
X0277577Y-0153228D02*
Y-0152828D01*
Y-0157828D02*
Y-0157428D01*
Y-0197228D02*
Y-0196828D01*
Y-0203628D02*
Y-0203228D01*
X0277377Y-0153228D02*
Y-0152828D01*
Y-0157828D02*
Y-0157428D01*
Y-0197228D02*
Y-0196828D01*
Y-0203628D02*
Y-0203228D01*
X0277177Y-0153228D02*
Y-0152828D01*
Y-0157828D02*
Y-0157428D01*
Y-0197228D02*
Y-0196828D01*
Y-0203628D02*
Y-0203228D01*
X0276977Y-0153228D02*
Y-0152828D01*
Y-0157828D02*
Y-0157428D01*
Y-0197228D02*
Y-0196828D01*
Y-0203628D02*
Y-0203228D01*
X0276777Y-0153228D02*
Y-0152828D01*
Y-0157828D02*
Y-0157428D01*
Y-0197228D02*
Y-0196828D01*
Y-0203628D02*
Y-0203228D01*
X0276577Y-0153228D02*
Y-0152828D01*
Y-0157828D02*
Y-0157428D01*
Y-0197228D02*
Y-0196828D01*
Y-0203628D02*
Y-0203228D01*
X0276377Y-0153228D02*
Y-0152828D01*
Y-0157828D02*
Y-0157428D01*
Y-0197228D02*
Y-0196828D01*
Y-0203628D02*
Y-0203228D01*
X0276177Y-0153228D02*
Y-0152828D01*
Y-0157828D02*
Y-0157428D01*
Y-0197228D02*
Y-0196828D01*
Y-0203628D02*
Y-0203228D01*
X0275977Y-0153228D02*
Y-0152828D01*
Y-0157828D02*
Y-0157428D01*
Y-0197228D02*
Y-0196828D01*
Y-0203628D02*
Y-0203228D01*
X0275777Y-0153228D02*
Y-0152828D01*
Y-0157828D02*
Y-0157428D01*
Y-0197228D02*
Y-0196828D01*
Y-0203628D02*
Y-0203228D01*
X0275577Y-0153228D02*
Y-0152828D01*
Y-0157828D02*
Y-0157428D01*
Y-0197228D02*
Y-0196828D01*
Y-0203628D02*
Y-0203228D01*
X0275377Y-0153228D02*
Y-0152828D01*
Y-0157828D02*
Y-0157428D01*
Y-0197228D02*
Y-0196828D01*
Y-0203628D02*
Y-0203228D01*
X0275177Y-0153228D02*
Y-0152828D01*
Y-0157828D02*
Y-0157428D01*
Y-0197228D02*
Y-0196828D01*
Y-0203628D02*
Y-0203228D01*
X0274977Y-0153228D02*
Y-0152828D01*
Y-0157828D02*
Y-0157428D01*
Y-0197228D02*
Y-0196828D01*
Y-0203628D02*
Y-0203228D01*
X0274777Y-0153228D02*
Y-0152828D01*
Y-0157828D02*
Y-0157428D01*
Y-0197228D02*
Y-0196828D01*
Y-0203628D02*
Y-0203228D01*
X0274577Y-0153228D02*
Y-0152828D01*
Y-0157828D02*
Y-0157428D01*
Y-0197228D02*
Y-0196828D01*
Y-0203628D02*
Y-0203228D01*
X0274377Y-0153228D02*
Y-0152828D01*
Y-0157828D02*
Y-0157428D01*
Y-0197228D02*
Y-0196828D01*
Y-0203628D02*
Y-0203228D01*
X0274177Y-0153228D02*
Y-0152828D01*
Y-0157828D02*
Y-0157428D01*
Y-0197228D02*
Y-0196828D01*
Y-0203628D02*
Y-0203228D01*
X0273977Y-0153228D02*
Y-0152828D01*
Y-0157828D02*
Y-0157428D01*
Y-0197228D02*
Y-0196828D01*
Y-0203628D02*
Y-0203228D01*
X0273777Y-0153228D02*
Y-0152828D01*
Y-0157828D02*
Y-0157428D01*
Y-0197228D02*
Y-0196828D01*
Y-0203628D02*
Y-0203228D01*
X0273577Y-0153228D02*
Y-0152828D01*
Y-0157828D02*
Y-0157428D01*
Y-0197228D02*
Y-0196828D01*
Y-0203628D02*
Y-0203228D01*
X0273377Y-0153228D02*
Y-0152828D01*
Y-0157828D02*
Y-0157428D01*
Y-0197228D02*
Y-0196828D01*
Y-0203628D02*
Y-0203228D01*
X0273177Y-0153228D02*
Y-0152828D01*
Y-0157828D02*
Y-0157428D01*
Y-0197228D02*
Y-0196828D01*
Y-0203628D02*
Y-0203228D01*
X0272977Y-0153228D02*
Y-0152828D01*
Y-0157828D02*
Y-0157428D01*
Y-0197228D02*
Y-0196828D01*
Y-0203628D02*
Y-0203228D01*
X0272777Y-0153228D02*
Y-0152828D01*
Y-0157828D02*
Y-0157428D01*
Y-0197228D02*
Y-0196828D01*
Y-0203628D02*
Y-0203228D01*
X0272577Y-0153228D02*
Y-0152828D01*
Y-0157828D02*
Y-0157428D01*
Y-0197228D02*
Y-0196828D01*
Y-0203628D02*
Y-0203228D01*
X0272377Y-0153228D02*
Y-0152828D01*
Y-0157828D02*
Y-0157428D01*
Y-0197228D02*
Y-0196828D01*
Y-0203628D02*
Y-0203228D01*
X0272177Y-0153228D02*
Y-0152828D01*
Y-0157828D02*
Y-0157428D01*
Y-0197228D02*
Y-0196828D01*
Y-0203628D02*
Y-0203228D01*
X0271977Y-0153228D02*
Y-0152828D01*
Y-0157828D02*
Y-0157428D01*
Y-0197228D02*
Y-0196828D01*
Y-0203628D02*
Y-0203228D01*
X0271777Y-0153228D02*
Y-0152828D01*
Y-0157828D02*
Y-0157428D01*
Y-0197228D02*
Y-0196828D01*
Y-0203628D02*
Y-0203228D01*
X0271577Y-0153228D02*
Y-0152828D01*
Y-0157828D02*
Y-0157428D01*
Y-0197228D02*
Y-0196828D01*
Y-0203628D02*
Y-0203228D01*
X0271377Y-0153228D02*
Y-0152828D01*
Y-0157828D02*
Y-0157428D01*
Y-0161828D02*
Y-0161428D01*
Y-0166228D02*
Y-0165828D01*
Y-0170628D02*
Y-0170428D01*
Y-0175228D02*
Y-0174828D01*
Y-0179628D02*
Y-0179228D01*
Y-0184028D02*
Y-0183628D01*
Y-0188428D02*
Y-0188028D01*
Y-0193028D02*
Y-0192628D01*
Y-0197228D02*
Y-0196828D01*
Y-0203628D02*
Y-0203228D01*
X0271177Y-0153228D02*
Y-0152828D01*
Y-0157828D02*
Y-0157428D01*
Y-0161828D02*
Y-0161428D01*
Y-0166228D02*
Y-0165828D01*
Y-0170628D02*
Y-0170428D01*
Y-0175228D02*
Y-0174828D01*
Y-0179628D02*
Y-0179228D01*
Y-0184028D02*
Y-0183628D01*
Y-0188428D02*
Y-0188028D01*
Y-0193028D02*
Y-0192628D01*
Y-0197228D02*
Y-0196828D01*
Y-0203628D02*
Y-0203228D01*
X0270977Y-0153228D02*
Y-0152828D01*
Y-0157828D02*
Y-0157428D01*
Y-0161828D02*
Y-0161428D01*
Y-0166228D02*
Y-0165828D01*
Y-0170628D02*
Y-0170428D01*
Y-0175228D02*
Y-0174828D01*
Y-0179628D02*
Y-0179228D01*
Y-0184028D02*
Y-0183628D01*
Y-0188428D02*
Y-0188028D01*
Y-0193028D02*
Y-0192628D01*
Y-0197228D02*
Y-0196828D01*
Y-0203628D02*
Y-0203228D01*
X0270777Y-0153228D02*
Y-0152828D01*
Y-0157828D02*
Y-0157428D01*
Y-0161828D02*
Y-0161428D01*
Y-0166228D02*
Y-0165828D01*
Y-0170628D02*
Y-0170428D01*
Y-0175228D02*
Y-0174828D01*
Y-0179628D02*
Y-0179228D01*
Y-0184028D02*
Y-0183628D01*
Y-0188428D02*
Y-0188028D01*
Y-0193028D02*
Y-0192628D01*
Y-0197228D02*
Y-0196828D01*
Y-0203628D02*
Y-0203228D01*
X0270577Y-0153228D02*
Y-0152828D01*
Y-0157828D02*
Y-0157428D01*
Y-0161828D02*
Y-0161428D01*
Y-0166228D02*
Y-0165828D01*
Y-0170628D02*
Y-0170428D01*
Y-0175228D02*
Y-0174828D01*
Y-0179628D02*
Y-0179228D01*
Y-0184028D02*
Y-0183628D01*
Y-0188428D02*
Y-0188028D01*
Y-0193028D02*
Y-0192628D01*
Y-0197228D02*
Y-0196828D01*
Y-0203628D02*
Y-0203228D01*
X0270377Y-0153228D02*
Y-0152828D01*
Y-0157828D02*
Y-0157428D01*
Y-0161828D02*
Y-0161428D01*
Y-0166228D02*
Y-0165828D01*
Y-0170628D02*
Y-0170428D01*
Y-0175228D02*
Y-0174828D01*
Y-0179628D02*
Y-0179228D01*
Y-0184028D02*
Y-0183628D01*
Y-0188428D02*
Y-0188028D01*
Y-0193028D02*
Y-0192628D01*
Y-0197228D02*
Y-0196828D01*
Y-0203628D02*
Y-0203228D01*
X0270177Y-0153228D02*
Y-0152828D01*
Y-0157828D02*
Y-0157428D01*
Y-0161828D02*
Y-0161428D01*
Y-0166228D02*
Y-0165828D01*
Y-0170628D02*
Y-0170428D01*
Y-0175228D02*
Y-0174828D01*
Y-0179628D02*
Y-0179228D01*
Y-0184028D02*
Y-0183628D01*
Y-0188428D02*
Y-0188028D01*
Y-0193028D02*
Y-0192628D01*
Y-0197228D02*
Y-0196828D01*
Y-0203628D02*
Y-0203228D01*
X0269977Y-0153228D02*
Y-0152828D01*
Y-0157828D02*
Y-0157428D01*
Y-0161828D02*
Y-0161428D01*
Y-0166228D02*
Y-0165828D01*
Y-0170628D02*
Y-0170428D01*
Y-0175228D02*
Y-0174828D01*
Y-0179628D02*
Y-0179228D01*
Y-0184028D02*
Y-0183628D01*
Y-0188428D02*
Y-0188028D01*
Y-0193028D02*
Y-0192628D01*
Y-0197228D02*
Y-0196828D01*
Y-0203628D02*
Y-0203228D01*
X0269777Y-0153228D02*
Y-0152828D01*
Y-0157828D02*
Y-0157428D01*
Y-0161828D02*
Y-0161428D01*
Y-0166228D02*
Y-0165828D01*
Y-0170628D02*
Y-0170428D01*
Y-0175228D02*
Y-0174828D01*
Y-0179628D02*
Y-0179228D01*
Y-0184028D02*
Y-0183628D01*
Y-0188428D02*
Y-0188028D01*
Y-0193028D02*
Y-0192628D01*
Y-0197228D02*
Y-0196828D01*
Y-0203628D02*
Y-0203228D01*
X0269577Y-0153228D02*
Y-0152828D01*
Y-0157828D02*
Y-0157428D01*
Y-0161828D02*
Y-0161428D01*
Y-0166228D02*
Y-0165828D01*
Y-0170628D02*
Y-0170428D01*
Y-0175228D02*
Y-0174828D01*
Y-0179628D02*
Y-0179228D01*
Y-0184028D02*
Y-0183628D01*
Y-0188428D02*
Y-0188028D01*
Y-0193028D02*
Y-0192628D01*
Y-0197228D02*
Y-0196828D01*
Y-0203628D02*
Y-0203228D01*
X0269377Y-0153228D02*
Y-0152828D01*
Y-0157828D02*
Y-0157428D01*
Y-0161828D02*
Y-0161428D01*
Y-0166228D02*
Y-0165828D01*
Y-0170628D02*
Y-0170428D01*
Y-0175228D02*
Y-0174828D01*
Y-0179628D02*
Y-0179228D01*
Y-0184028D02*
Y-0183628D01*
Y-0188428D02*
Y-0188028D01*
Y-0193028D02*
Y-0192628D01*
Y-0197228D02*
Y-0196828D01*
Y-0203628D02*
Y-0203228D01*
X0269177Y-0153228D02*
Y-0152828D01*
Y-0157828D02*
Y-0157428D01*
Y-0161828D02*
Y-0161428D01*
Y-0166228D02*
Y-0165828D01*
Y-0170628D02*
Y-0170428D01*
Y-0175228D02*
Y-0174828D01*
Y-0179628D02*
Y-0179228D01*
Y-0184028D02*
Y-0183628D01*
Y-0188428D02*
Y-0188028D01*
Y-0193028D02*
Y-0192628D01*
Y-0197228D02*
Y-0196828D01*
Y-0203628D02*
Y-0203228D01*
X0268977Y-0153228D02*
Y-0152828D01*
Y-0157828D02*
Y-0157428D01*
Y-0161828D02*
Y-0161428D01*
Y-0166228D02*
Y-0165828D01*
Y-0170628D02*
Y-0170428D01*
Y-0175228D02*
Y-0174828D01*
Y-0179628D02*
Y-0179228D01*
Y-0184028D02*
Y-0183628D01*
Y-0188428D02*
Y-0188028D01*
Y-0193028D02*
Y-0192628D01*
Y-0197228D02*
Y-0196828D01*
Y-0203628D02*
Y-0203228D01*
X0268777Y-0153228D02*
Y-0152828D01*
Y-0157828D02*
Y-0157428D01*
Y-0161828D02*
Y-0161428D01*
Y-0166228D02*
Y-0165828D01*
Y-0170628D02*
Y-0170428D01*
Y-0175228D02*
Y-0174828D01*
Y-0179628D02*
Y-0179228D01*
Y-0184028D02*
Y-0183628D01*
Y-0188428D02*
Y-0188028D01*
Y-0193028D02*
Y-0192628D01*
Y-0197228D02*
Y-0196828D01*
Y-0203628D02*
Y-0203228D01*
X0268577Y-0153228D02*
Y-0152828D01*
Y-0157828D02*
Y-0157428D01*
Y-0161828D02*
Y-0161428D01*
Y-0166228D02*
Y-0165828D01*
Y-0170628D02*
Y-0170428D01*
Y-0175228D02*
Y-0174828D01*
Y-0179628D02*
Y-0179228D01*
Y-0184028D02*
Y-0183628D01*
Y-0188428D02*
Y-0188028D01*
Y-0193028D02*
Y-0192628D01*
Y-0197228D02*
Y-0196828D01*
Y-0203628D02*
Y-0203228D01*
X0268377Y-0153228D02*
Y-0152828D01*
Y-0157828D02*
Y-0157428D01*
Y-0161828D02*
Y-0161428D01*
Y-0166228D02*
Y-0165828D01*
Y-0170628D02*
Y-0170428D01*
Y-0175228D02*
Y-0174828D01*
Y-0179628D02*
Y-0179228D01*
Y-0184028D02*
Y-0183628D01*
Y-0188428D02*
Y-0188028D01*
Y-0193028D02*
Y-0192628D01*
Y-0197228D02*
Y-0196828D01*
Y-0203628D02*
Y-0203228D01*
X0268177Y-0153228D02*
Y-0152828D01*
Y-0157828D02*
Y-0157428D01*
Y-0161828D02*
Y-0161428D01*
Y-0166228D02*
Y-0165828D01*
Y-0170628D02*
Y-0170428D01*
Y-0175228D02*
Y-0174828D01*
Y-0179628D02*
Y-0179228D01*
Y-0184028D02*
Y-0183628D01*
Y-0188428D02*
Y-0188028D01*
Y-0193028D02*
Y-0192628D01*
Y-0197228D02*
Y-0196828D01*
Y-0203628D02*
Y-0203228D01*
X0267977Y-0153228D02*
Y-0152828D01*
Y-0157828D02*
Y-0157428D01*
Y-0161828D02*
Y-0161428D01*
Y-0166228D02*
Y-0165828D01*
Y-0170628D02*
Y-0170428D01*
Y-0175228D02*
Y-0174828D01*
Y-0179628D02*
Y-0179228D01*
Y-0184028D02*
Y-0183628D01*
Y-0188428D02*
Y-0188028D01*
Y-0193028D02*
Y-0192628D01*
Y-0197228D02*
Y-0196828D01*
Y-0203628D02*
Y-0203228D01*
X0267777Y-0153228D02*
Y-0152828D01*
Y-0157828D02*
Y-0157428D01*
Y-0161828D02*
Y-0161428D01*
Y-0166228D02*
Y-0165828D01*
Y-0170628D02*
Y-0170428D01*
Y-0175228D02*
Y-0174828D01*
Y-0179628D02*
Y-0179228D01*
Y-0184028D02*
Y-0183628D01*
Y-0188428D02*
Y-0188028D01*
Y-0193028D02*
Y-0192628D01*
Y-0197228D02*
Y-0196828D01*
Y-0203628D02*
Y-0203228D01*
X0267577Y-0153228D02*
Y-0152828D01*
Y-0157828D02*
Y-0157428D01*
Y-0161828D02*
Y-0161428D01*
Y-0166228D02*
Y-0165828D01*
Y-0170628D02*
Y-0170428D01*
Y-0175228D02*
Y-0174828D01*
Y-0179628D02*
Y-0179228D01*
Y-0184028D02*
Y-0183628D01*
Y-0188428D02*
Y-0188028D01*
Y-0193028D02*
Y-0192628D01*
Y-0197228D02*
Y-0196828D01*
Y-0203628D02*
Y-0203228D01*
X0267377Y-0153228D02*
Y-0152828D01*
Y-0157828D02*
Y-0157428D01*
Y-0161828D02*
Y-0161428D01*
Y-0166228D02*
Y-0165828D01*
Y-0170628D02*
Y-0170428D01*
Y-0175228D02*
Y-0174828D01*
Y-0179628D02*
Y-0179228D01*
Y-0184028D02*
Y-0183628D01*
Y-0188428D02*
Y-0188028D01*
Y-0193028D02*
Y-0192628D01*
Y-0197228D02*
Y-0196828D01*
Y-0203628D02*
Y-0203228D01*
X0267177Y-0153228D02*
Y-0152828D01*
Y-0157828D02*
Y-0157428D01*
Y-0161828D02*
Y-0161428D01*
Y-0166228D02*
Y-0165828D01*
Y-0170628D02*
Y-0170428D01*
Y-0175228D02*
Y-0174828D01*
Y-0179628D02*
Y-0179228D01*
Y-0184028D02*
Y-0183628D01*
Y-0188428D02*
Y-0188028D01*
Y-0193028D02*
Y-0192628D01*
Y-0197228D02*
Y-0196828D01*
Y-0203628D02*
Y-0203228D01*
X0266977Y-0153228D02*
Y-0152828D01*
Y-0157828D02*
Y-0157428D01*
Y-0161828D02*
Y-0161428D01*
Y-0166228D02*
Y-0165828D01*
Y-0170628D02*
Y-0170428D01*
Y-0175228D02*
Y-0174828D01*
Y-0179628D02*
Y-0179228D01*
Y-0184028D02*
Y-0183628D01*
Y-0188428D02*
Y-0188028D01*
Y-0193028D02*
Y-0192628D01*
Y-0197228D02*
Y-0196828D01*
Y-0203628D02*
Y-0203228D01*
X0266777Y-0153228D02*
Y-0152828D01*
Y-0157828D02*
Y-0157428D01*
Y-0161828D02*
Y-0161428D01*
Y-0166228D02*
Y-0165828D01*
Y-0170628D02*
Y-0170428D01*
Y-0175228D02*
Y-0174828D01*
Y-0179628D02*
Y-0179228D01*
Y-0184028D02*
Y-0183628D01*
Y-0188428D02*
Y-0188028D01*
Y-0193028D02*
Y-0192628D01*
Y-0197228D02*
Y-0196828D01*
Y-0203628D02*
Y-0203228D01*
X0266577Y-0153228D02*
Y-0152828D01*
Y-0157828D02*
Y-0157428D01*
Y-0161828D02*
Y-0161428D01*
Y-0166228D02*
Y-0165828D01*
Y-0170628D02*
Y-0170428D01*
Y-0175228D02*
Y-0174828D01*
Y-0179628D02*
Y-0179228D01*
Y-0184028D02*
Y-0183628D01*
Y-0188428D02*
Y-0188028D01*
Y-0193028D02*
Y-0192628D01*
Y-0197228D02*
Y-0196828D01*
Y-0203628D02*
Y-0203228D01*
X0266377Y-0153228D02*
Y-0152828D01*
Y-0157828D02*
Y-0157428D01*
Y-0161828D02*
Y-0161428D01*
Y-0166228D02*
Y-0165828D01*
Y-0170628D02*
Y-0170428D01*
Y-0175228D02*
Y-0174828D01*
Y-0179628D02*
Y-0179228D01*
Y-0184028D02*
Y-0183628D01*
Y-0188428D02*
Y-0188028D01*
Y-0193028D02*
Y-0192628D01*
Y-0197228D02*
Y-0196828D01*
Y-0203628D02*
Y-0203228D01*
X0266177Y-0153228D02*
Y-0152828D01*
Y-0157828D02*
Y-0157428D01*
Y-0161828D02*
Y-0161428D01*
Y-0166228D02*
Y-0165828D01*
Y-0170628D02*
Y-0170428D01*
Y-0175228D02*
Y-0174828D01*
Y-0179628D02*
Y-0179228D01*
Y-0184028D02*
Y-0183628D01*
Y-0188428D02*
Y-0188028D01*
Y-0193028D02*
Y-0192628D01*
Y-0197228D02*
Y-0196828D01*
Y-0203628D02*
Y-0203228D01*
X0265977Y-0153228D02*
Y-0152828D01*
Y-0157828D02*
Y-0157428D01*
Y-0161828D02*
Y-0161428D01*
Y-0166228D02*
Y-0165828D01*
Y-0170628D02*
Y-0170428D01*
Y-0175228D02*
Y-0174828D01*
Y-0179628D02*
Y-0179228D01*
Y-0184028D02*
Y-0183628D01*
Y-0188428D02*
Y-0188028D01*
Y-0193028D02*
Y-0192628D01*
Y-0197228D02*
Y-0196828D01*
Y-0203628D02*
Y-0203228D01*
X0265777Y-0153228D02*
Y-0152828D01*
Y-0157828D02*
Y-0157428D01*
Y-0161828D02*
Y-0161428D01*
Y-0166228D02*
Y-0165828D01*
Y-0170628D02*
Y-0170428D01*
Y-0175228D02*
Y-0174828D01*
Y-0179628D02*
Y-0179228D01*
Y-0184028D02*
Y-0183628D01*
Y-0188428D02*
Y-0188028D01*
Y-0193028D02*
Y-0192628D01*
Y-0197228D02*
Y-0196828D01*
Y-0203628D02*
Y-0203228D01*
X0265577Y-0153228D02*
Y-0152828D01*
Y-0157828D02*
Y-0157428D01*
Y-0161828D02*
Y-0161428D01*
Y-0166228D02*
Y-0165828D01*
Y-0170628D02*
Y-0170428D01*
Y-0175228D02*
Y-0174828D01*
Y-0179628D02*
Y-0179228D01*
Y-0184028D02*
Y-0183628D01*
Y-0188428D02*
Y-0188028D01*
Y-0193028D02*
Y-0192628D01*
Y-0197228D02*
Y-0196828D01*
Y-0203628D02*
Y-0203228D01*
X0265377Y-0153228D02*
Y-0152828D01*
Y-0157828D02*
Y-0157428D01*
Y-0161828D02*
Y-0161428D01*
Y-0166228D02*
Y-0165828D01*
Y-0170628D02*
Y-0170428D01*
Y-0175228D02*
Y-0174828D01*
Y-0179628D02*
Y-0179228D01*
Y-0184028D02*
Y-0183628D01*
Y-0188428D02*
Y-0188028D01*
Y-0193028D02*
Y-0192628D01*
Y-0197228D02*
Y-0196828D01*
Y-0203628D02*
Y-0203228D01*
X0265177Y-0153228D02*
Y-0152828D01*
Y-0157828D02*
Y-0157428D01*
Y-0161828D02*
Y-0161428D01*
Y-0166228D02*
Y-0165828D01*
Y-0170628D02*
Y-0170428D01*
Y-0175228D02*
Y-0174828D01*
Y-0179628D02*
Y-0179228D01*
Y-0184028D02*
Y-0183628D01*
Y-0188428D02*
Y-0188028D01*
Y-0193028D02*
Y-0192628D01*
Y-0197228D02*
Y-0196828D01*
Y-0203628D02*
Y-0203228D01*
X0264977Y-0153228D02*
Y-0152828D01*
Y-0157828D02*
Y-0157428D01*
Y-0161828D02*
Y-0161428D01*
Y-0166228D02*
Y-0165828D01*
Y-0170628D02*
Y-0170428D01*
Y-0175228D02*
Y-0174828D01*
Y-0179628D02*
Y-0179228D01*
Y-0184028D02*
Y-0183628D01*
Y-0188428D02*
Y-0188028D01*
Y-0193028D02*
Y-0192628D01*
Y-0197228D02*
Y-0196828D01*
Y-0203628D02*
Y-0203228D01*
X0264777Y-0153228D02*
Y-0152828D01*
Y-0157828D02*
Y-0157428D01*
Y-0161828D02*
Y-0161428D01*
Y-0166228D02*
Y-0165828D01*
Y-0170628D02*
Y-0170428D01*
Y-0175228D02*
Y-0174828D01*
Y-0179628D02*
Y-0179228D01*
Y-0184028D02*
Y-0183628D01*
Y-0188428D02*
Y-0188028D01*
Y-0193028D02*
Y-0192628D01*
Y-0197228D02*
Y-0196828D01*
Y-0203628D02*
Y-0203228D01*
X0264577Y-0153228D02*
Y-0152828D01*
Y-0157828D02*
Y-0157428D01*
Y-0161828D02*
Y-0161428D01*
Y-0166228D02*
Y-0165828D01*
Y-0170628D02*
Y-0170428D01*
Y-0175228D02*
Y-0174828D01*
Y-0179628D02*
Y-0179228D01*
Y-0184028D02*
Y-0183628D01*
Y-0188428D02*
Y-0188028D01*
Y-0193028D02*
Y-0192628D01*
Y-0197228D02*
Y-0196828D01*
Y-0203628D02*
Y-0203228D01*
X0264377Y-0153228D02*
Y-0152828D01*
Y-0157828D02*
Y-0157428D01*
Y-0161828D02*
Y-0161428D01*
Y-0166228D02*
Y-0165828D01*
Y-0170628D02*
Y-0170428D01*
Y-0175228D02*
Y-0174828D01*
Y-0179628D02*
Y-0179228D01*
Y-0184028D02*
Y-0183628D01*
Y-0188428D02*
Y-0188028D01*
Y-0193028D02*
Y-0192628D01*
Y-0197228D02*
Y-0196828D01*
Y-0203628D02*
Y-0203228D01*
X0264177Y-0153228D02*
Y-0152828D01*
Y-0157828D02*
Y-0157428D01*
Y-0161828D02*
Y-0161428D01*
Y-0166228D02*
Y-0165828D01*
Y-0170628D02*
Y-0170428D01*
Y-0175228D02*
Y-0174828D01*
Y-0179628D02*
Y-0179228D01*
Y-0184028D02*
Y-0183628D01*
Y-0188428D02*
Y-0188028D01*
Y-0193028D02*
Y-0192628D01*
Y-0197228D02*
Y-0196828D01*
Y-0203628D02*
Y-0203228D01*
X0263977Y-0153228D02*
Y-0152828D01*
Y-0157828D02*
Y-0157428D01*
Y-0161828D02*
Y-0161428D01*
Y-0166228D02*
Y-0165828D01*
Y-0170628D02*
Y-0170428D01*
Y-0175228D02*
Y-0174828D01*
Y-0179628D02*
Y-0179228D01*
Y-0184028D02*
Y-0183628D01*
Y-0188428D02*
Y-0188028D01*
Y-0193028D02*
Y-0192628D01*
Y-0197228D02*
Y-0196828D01*
Y-0203628D02*
Y-0203228D01*
X0263777Y-0153228D02*
Y-0152828D01*
Y-0157828D02*
Y-0157428D01*
Y-0161828D02*
Y-0161428D01*
Y-0166228D02*
Y-0165828D01*
Y-0170628D02*
Y-0170428D01*
Y-0175228D02*
Y-0174828D01*
Y-0179628D02*
Y-0179228D01*
Y-0184028D02*
Y-0183628D01*
Y-0188428D02*
Y-0188028D01*
Y-0193028D02*
Y-0192628D01*
Y-0197228D02*
Y-0196828D01*
Y-0203628D02*
Y-0203228D01*
X0263577Y-0153228D02*
Y-0152828D01*
Y-0157828D02*
Y-0157428D01*
Y-0161828D02*
Y-0161428D01*
Y-0166228D02*
Y-0165828D01*
Y-0170628D02*
Y-0170428D01*
Y-0175228D02*
Y-0174828D01*
Y-0179628D02*
Y-0179228D01*
Y-0184028D02*
Y-0183628D01*
Y-0188428D02*
Y-0188028D01*
Y-0193028D02*
Y-0192628D01*
Y-0197228D02*
Y-0196828D01*
Y-0203628D02*
Y-0203228D01*
X0263377Y-0153228D02*
Y-0152828D01*
Y-0157828D02*
Y-0157428D01*
Y-0161828D02*
Y-0161428D01*
Y-0166228D02*
Y-0165828D01*
Y-0170628D02*
Y-0170428D01*
Y-0175228D02*
Y-0174828D01*
Y-0179628D02*
Y-0179228D01*
Y-0184028D02*
Y-0183628D01*
Y-0188428D02*
Y-0188028D01*
Y-0193028D02*
Y-0192628D01*
Y-0197228D02*
Y-0196828D01*
Y-0203628D02*
Y-0203228D01*
X0263177Y-0153228D02*
Y-0152828D01*
Y-0157828D02*
Y-0157428D01*
Y-0161828D02*
Y-0161428D01*
Y-0166228D02*
Y-0165828D01*
Y-0170828D02*
Y-0170428D01*
Y-0175228D02*
Y-0174828D01*
Y-0179628D02*
Y-0179228D01*
Y-0184028D02*
Y-0183628D01*
Y-0188428D02*
Y-0188028D01*
Y-0193028D02*
Y-0192628D01*
Y-0197228D02*
Y-0196828D01*
Y-0203628D02*
Y-0203228D01*
X0262977Y-0153228D02*
Y-0152828D01*
Y-0197228D02*
Y-0157428D01*
Y-0203628D02*
Y-0203228D01*
X0262777Y-0153228D02*
Y-0152828D01*
Y-0197028D02*
Y-0157628D01*
Y-0203628D02*
Y-0203228D01*
X0262577Y-0153228D02*
Y-0152828D01*
Y-0203628D02*
Y-0203228D01*
X0262377Y-0153228D02*
Y-0152828D01*
Y-0203628D02*
Y-0203228D01*
X0262177Y-0153228D02*
Y-0152828D01*
Y-0203628D02*
Y-0203228D01*
X0261977Y-0153228D02*
Y-0152828D01*
Y-0203628D02*
Y-0203228D01*
X0261777Y-0153228D02*
Y-0152828D01*
Y-0203628D02*
Y-0203228D01*
X0261577Y-0153228D02*
Y-0152828D01*
Y-0203628D02*
Y-0203228D01*
X0261377Y-0153228D02*
Y-0152828D01*
Y-0203628D02*
Y-0203228D01*
X0261177Y-0153228D02*
Y-0152828D01*
Y-0203628D02*
Y-0203228D01*
X0260977Y-0153228D02*
Y-0152828D01*
Y-0203628D02*
Y-0203228D01*
X0260777Y-0153228D02*
Y-0152828D01*
Y-0203628D02*
Y-0203228D01*
X0260577Y-0153228D02*
Y-0152828D01*
Y-0203628D02*
Y-0203228D01*
X0260377Y-0153228D02*
Y-0152828D01*
Y-0203628D02*
Y-0203228D01*
X0260177Y-0153228D02*
Y-0152828D01*
Y-0203628D02*
Y-0203228D01*
X0259977Y-0203628D02*
Y-0152828D01*
X0259777Y-0203628D02*
Y-0153028D01*
G54D120*
X00578Y-0192532D02*
Y-0193844D01*
X0057144Y-01945*
X0056488Y-0193844*
Y-0192532*
X005452Y-019286D02*
X0054848Y-0192532D01*
X0055504*
X0055832Y-019286*
Y-0194172*
X0055504Y-01945*
X0054848*
X005452Y-0194172*
X0052552Y-019286D02*
X005288Y-0192532D01*
X0053536*
X0053864Y-019286*
Y-0194172*
X0053536Y-01945*
X005288*
X0052552Y-0194172*
X0066488Y-019276D02*
X0066816Y-0192432D01*
X0067472*
X00678Y-019276*
Y-0194072*
X0067472Y-01944*
X0066816*
X0066488Y-0194072*
Y-0193416*
X0067144*
X0065832Y-01944D02*
Y-0192432D01*
X006452Y-01944*
Y-0192432*
X0063864D02*
Y-01944D01*
X006288*
X0062552Y-0194072*
Y-019276*
X006288Y-0192432*
X0063864*
M02*