%FSTAX25Y25*%
%MOIN*%
%SFA1B1*%

%IPPOS*%
%AMD11*
4,1,8,0.014500,0.012800,-0.014500,0.012800,-0.020900,0.006400,-0.020900,-0.006400,-0.014500,-0.012800,0.014500,-0.012800,0.020900,-0.006400,0.020900,0.006400,0.014500,0.012800,0.0*
1,1,0.012800,0.014500,0.006400*
1,1,0.012800,-0.014500,0.006400*
1,1,0.012800,-0.014500,-0.006400*
1,1,0.012800,0.014500,-0.006400*
%
%AMD24*
4,1,8,-0.087100,-0.042300,0.087100,-0.042300,0.108300,-0.021200,0.108300,0.021200,0.087100,0.042300,-0.087100,0.042300,-0.108300,0.021200,-0.108300,-0.021200,-0.087100,-0.042300,0.0*
1,1,0.042320,-0.087100,-0.021200*
1,1,0.042320,0.087100,-0.021200*
1,1,0.042320,0.087100,0.021200*
1,1,0.042320,-0.087100,0.021200*
%
%ADD10R,0.031500X0.031500*%
G04~CAMADD=11~8~0.0~0.0~417.3~255.9~64.0~0.0~15~0.0~0.0~0.0~0.0~0~0.0~0.0~0.0~0.0~0~0.0~0.0~0.0~0.0~417.3~255.9*
%ADD11D11*%
%ADD12R,0.049210X0.025590*%
%ADD13R,0.039760X0.028540*%
%ADD14R,0.039370X0.028150*%
%ADD15R,0.030710X0.039370*%
%ADD16R,0.031500X0.039370*%
%ADD17R,0.039370X0.028540*%
%ADD18R,0.049210X0.062990*%
%ADD19O,0.086610X0.023620*%
%ADD20R,0.045280X0.035430*%
%ADD21R,0.080000X0.026000*%
%ADD22R,0.045280X0.070870*%
%ADD23O,0.027560X0.098420*%
G04~CAMADD=24~8~0.0~0.0~2165.4~846.5~211.6~0.0~15~0.0~0.0~0.0~0.0~0~0.0~0.0~0.0~0.0~0~0.0~0.0~0.0~180.0~2166.0~847.0*
%ADD24D24*%
%ADD25R,0.070870X0.045280*%
%ADD26R,0.049210X0.078740*%
%ADD27R,0.030000X0.030000*%
%ADD28R,0.059050X0.076770*%
%ADD29R,0.047240X0.157480*%
%ADD30O,0.061020X0.009840*%
%ADD31O,0.009840X0.061020*%
%ADD32O,0.011810X0.082680*%
%ADD33O,0.082680X0.011810*%
%ADD34R,0.035430X0.015750*%
%ADD35R,0.133860X0.169290*%
%ADD36R,0.062990X0.031500*%
%ADD37R,0.023620X0.035430*%
%ADD38R,0.035430X0.023620*%
%ADD39R,0.096460X0.096460*%
%ADD40R,0.031500X0.031500*%
%ADD41O,0.098420X0.027560*%
%ADD42R,0.030000X0.030000*%
%ADD43R,0.096460X0.096460*%
%ADD44C,0.015750*%
%ADD45C,0.019680*%
%ADD46C,0.039370*%
%ADD47C,0.027560*%
%ADD48C,0.007870*%
%ADD49C,0.078740*%
%ADD50C,0.031500*%
%ADD51C,0.035430*%
%ADD52C,0.059050*%
%ADD53C,0.047240*%
%ADD54C,0.043310*%
%ADD55C,0.011810*%
%ADD56C,0.010000*%
%ADD57R,0.059050X0.059050*%
%ADD58C,0.059050*%
%ADD59R,0.053150X0.053150*%
%ADD60C,0.053150*%
%ADD61C,0.108270*%
%ADD62C,0.078740*%
%ADD63C,0.127950*%
%ADD64C,0.095280*%
%ADD65C,0.054690*%
%ADD66R,0.054690X0.054690*%
%ADD67C,0.051180*%
%ADD68C,0.027560*%
%ADD69C,0.019680*%
%ADD70C,0.039370*%
%LNrobocontroller-1*%
%LPD*%
G36*
X0076575Y-0098819D02*
X0071457D01*
X0070669Y-0099606*
Y-0103347*
X0071457Y-0104134*
X0076378*
Y-0108169*
X0068996*
X0068307Y-010748*
Y-0095669*
X0069488Y-0094488*
X0076575*
Y-0098819*
G37*
G36*
X0067126Y-0089764D02*
Y-0098032D01*
X0050394*
Y-0095079*
X0052559*
Y-0092618*
X0050394*
Y-0089764*
X0054331*
Y-0088189*
X0057579*
Y-0089764*
X0063976*
Y-0088189*
X0067126*
Y-0089764*
G37*
G36*
Y-0084055D02*
Y-008563D01*
X0063976*
Y-0084055*
X0057579*
Y-008563*
X0054331*
Y-0084055*
X0050394*
Y-0081201*
X0052559*
Y-007874*
X0050394*
Y-0075787*
X0067126*
Y-0084055*
G37*
G36*
Y-0107874D02*
Y-0109449D01*
X0063976*
Y-0107874*
X0057579*
Y-0109449*
X0054331*
Y-0107874*
X0050394*
Y-010502*
X0052559*
Y-0102559*
X0050394*
Y-0099606*
X0067126*
Y-0107874*
G37*
G36*
X0066929Y-0131693D02*
Y-0133268D01*
X0063779*
Y-0131693*
X0057382*
Y-0133268*
X0054134*
Y-0131693*
X0050197*
Y-0128839*
X0052362*
Y-0126378*
X0050197*
Y-0123425*
X0066929*
Y-0131693*
G37*
G36*
X0076378Y-0122638D02*
X007126D01*
X0070472Y-0123425*
Y-0127165*
X007126Y-0127953*
X0076181*
Y-0131988*
X0068799*
X006811Y-0131299*
Y-0119488*
X0069291Y-0118307*
X0076378*
Y-0122638*
G37*
G36*
X0066929Y-0113583D02*
Y-012185D01*
X0050197*
Y-0118898*
X0052362*
Y-0116437*
X0050197*
Y-0113583*
X0054134*
Y-0112008*
X0057382*
Y-0113583*
X0063779*
Y-0112008*
X0066929*
Y-0113583*
G37*
G36*
X0076575Y-0075D02*
X0071457D01*
X0070669Y-0075787*
Y-0079528*
X0071457Y-0080315*
X0076378*
Y-008435*
X0068996*
X0068307Y-0083661*
Y-007185*
X0069488Y-0070669*
X0076575*
Y-0075*
G37*
G36*
X0067028Y-0036791D02*
Y-0038366D01*
X0063878*
Y-0036791*
X005748*
Y-0038366*
X0054232*
Y-0036791*
X0050295*
Y-0033937*
X0052461*
Y-0031477*
X0050295*
Y-0028524*
X0067028*
Y-0036791*
G37*
G36*
X0076476Y-0027736D02*
X0071358D01*
X0070571Y-0028524*
Y-0032264*
X0071358Y-0033051*
X0076279*
Y-0037087*
X0068898*
X0068209Y-0036398*
Y-0024587*
X006939Y-0023406*
X0076476*
Y-0027736*
G37*
G36*
X0067028Y-0018681D02*
Y-0026949D01*
X0050295*
Y-0023996*
X0052461*
Y-0021535*
X0050295*
Y-0018681*
X0054232*
Y-0017106*
X005748*
Y-0018681*
X0063878*
Y-0017106*
X0067028*
Y-0018681*
G37*
G36*
X0067126Y-0042323D02*
Y-0050591D01*
X0050394*
Y-0047638*
X0052559*
Y-0045177*
X0050394*
Y-0042323*
X0054331*
Y-0040748*
X0057579*
Y-0042323*
X0063976*
Y-0040748*
X0067126*
Y-0042323*
G37*
G36*
Y-0065945D02*
Y-0074213D01*
X0050394*
Y-007126*
X0052559*
Y-0068799*
X0050394*
Y-0065945*
X0054331*
Y-006437*
X0057579*
Y-0065945*
X0063976*
Y-006437*
X0067126*
Y-0065945*
G37*
G36*
Y-0060433D02*
Y-0062008D01*
X0063976*
Y-0060433*
X0057579*
Y-0062008*
X0054331*
Y-0060433*
X0050394*
Y-0057579*
X0052559*
Y-0055118*
X0050394*
Y-0052165*
X0067126*
Y-0060433*
G37*
G36*
X0076575Y-0051378D02*
X0071457D01*
X0070669Y-0052165*
Y-0055905*
X0071457Y-0056693*
X0076378*
Y-0060728*
X0068996*
X0068307Y-0060039*
Y-0048228*
X0069488Y-0047047*
X0076575*
Y-0051378*
G37*
G54D10*
X0263976Y-0220866D03*
X0258071D03*
X0286024Y-0215354D03*
X0291929D03*
X0286024Y-0220866D03*
X0291929D03*
X0149016Y-0088829D03*
X014311D03*
X0144095Y-0057874D03*
X015D03*
X0102756Y-0204921D03*
X009685D03*
X0142913Y-0080905D03*
X0148819D03*
X0149016Y-0096949D03*
X014311D03*
Y-0113189D03*
X0149016D03*
X0130118Y-0107677D03*
X0136024D03*
X0102756Y-0129134D03*
X009685D03*
X0166732Y-0135236D03*
X0172638D03*
X0193504Y-0136417D03*
X0199409D03*
X0213779Y-013563D03*
X0219685D03*
X0228937D03*
X0234842D03*
X027874Y-0192913D03*
X0284646D03*
X0240551Y-0179552D03*
X0246457D03*
X0240551Y-0172478D03*
X0246457D03*
X0240551Y-0165404D03*
X0246457D03*
X0217323Y-0031496D03*
X0211417D03*
X0197835Y-003189D03*
X0191929D03*
X0156299Y-003563D03*
X0162205D03*
X0194685Y-0191929D03*
X0200591D03*
X0102362Y-0186221D03*
X0096457D03*
X0102756Y-0167323D03*
X009685D03*
X0102756Y-0148228D03*
X009685D03*
G54D11*
X0279919Y-0212205D03*
Y-0219685D03*
X0271258D03*
Y-0212205D03*
Y-0215945D03*
G54D12*
X0060532Y-0032461D03*
Y-0023012D03*
X0073819Y-0035236D03*
Y-0030236D03*
Y-0020236D03*
Y-0025236D03*
X0073917Y-0048878D03*
Y-0043878D03*
Y-0053878D03*
Y-0058878D03*
X006063Y-0046654D03*
Y-0056102D03*
Y-0079724D03*
Y-0070276D03*
X0073917Y-00825D03*
Y-00775D03*
Y-00675D03*
Y-00725D03*
Y-0096319D03*
Y-0091319D03*
Y-0101319D03*
Y-0106319D03*
X006063Y-0094095D03*
Y-0103543D03*
X0060433Y-0127362D03*
Y-0117913D03*
X0073721Y-0130138D03*
Y-0125138D03*
Y-0115138D03*
Y-0120138D03*
G54D13*
X0052362Y-0025473D03*
X0052461Y-0049114D03*
Y-0072736D03*
Y-0096555D03*
X0052264Y-0120374D03*
G54D14*
X0052264Y-0020059D03*
X0052362Y-0043701D03*
Y-0067323D03*
Y-0091142D03*
X0052165Y-0114961D03*
G54D15*
X0065453Y-0019075D03*
X0065495Y-0036336D03*
X0065594Y-0059978D03*
X0065551Y-0042717D03*
Y-0066339D03*
X0065594Y-00836D03*
Y-0107419D03*
X0065551Y-0090158D03*
X0065354Y-0113976D03*
X0065397Y-0131238D03*
G54D16*
X0055807Y-0019075D03*
X0055895Y-0036336D03*
X0055994Y-0059978D03*
X0055905Y-0042717D03*
Y-0066339D03*
X0055994Y-00836D03*
Y-0107419D03*
X0055905Y-0090158D03*
X0055709Y-0113976D03*
X0055797Y-0131238D03*
G54D17*
X0052295Y-0030036D03*
X0052264Y-0035364D03*
X0052362Y-0059006D03*
X0052394Y-0053678D03*
Y-00773D03*
X0052362Y-0082628D03*
Y-0106447D03*
X0052394Y-0101119D03*
X0052197Y-0124938D03*
X0052165Y-0130266D03*
G54D18*
X0136221Y-0080315D03*
Y-0094882D03*
X0127559D03*
Y-0080315D03*
X0238779Y-0143701D03*
Y-0158268D03*
X0230118D03*
Y-0143701D03*
G54D19*
X0203543Y-0213602D03*
Y-0208602D03*
Y-0203602D03*
Y-0198602D03*
X0184646Y-0213602D03*
Y-0208602D03*
Y-0203602D03*
Y-0198602D03*
G54D20*
X0114468Y-0110827D03*
X0089862D03*
X0114468Y-0120827D03*
X0089862D03*
X0114468Y-0044242D03*
X0089862D03*
X0114468Y-0054242D03*
X0089862D03*
X0114468Y-0022047D03*
X0089862D03*
X0114468Y-0032047D03*
X0089862D03*
X0114468Y-0088632D03*
X0089862D03*
X0114468Y-0098632D03*
X0089862D03*
X0114468Y-0066437D03*
X0089862D03*
X0114468Y-0076437D03*
X0089862D03*
G54D21*
X0067669Y-0217087D03*
X0045669D03*
X0067669Y-0207087D03*
X0045669D03*
X0118504Y-0216614D03*
X0093504D03*
X0118504Y-0211614D03*
X0093504D03*
X0067669Y-0148386D03*
X0045669D03*
X0067669Y-0138386D03*
X0045669D03*
X0067669Y-0165561D03*
X0045669D03*
X0067669Y-0155561D03*
X0045669D03*
X0067669Y-0182736D03*
X0045669D03*
X0067669Y-0172736D03*
X0045669D03*
X0067669Y-0199911D03*
X0045669D03*
X0067669Y-0189911D03*
X0045669D03*
X0118504Y-0141142D03*
X0093504D03*
X0118504Y-0136142D03*
X0093504D03*
X0118504Y-0198228D03*
X0093504D03*
X0118504Y-0193228D03*
X0093504D03*
X0118504Y-0179213D03*
X0093504D03*
X0118504Y-0174213D03*
X0093504D03*
X0118504Y-0160039D03*
X0093504D03*
X0118504Y-0155039D03*
X0093504D03*
G54D22*
X0174213Y-0212402D03*
X0162402D03*
G54D23*
X0138524Y-0214854D03*
X0143524D03*
X0148524D03*
X0153524D03*
X0138524Y-0195562D03*
X0143524D03*
X0148524D03*
X0153524D03*
G54D24*
X0222441Y-0197441D03*
Y-0212598D03*
G54D25*
X0311024Y-0201575D03*
Y-0189764D03*
X0300197Y-0189961D03*
Y-0201772D03*
G54D26*
X0152563Y-0182283D03*
X0139563D03*
G54D27*
X0300252Y-0104537D03*
Y-0097037D03*
X0309252Y-0100787D03*
G54D28*
X0254823Y-0020177D03*
Y-0031004D03*
G54D29*
X0263779Y-0040551D03*
X0307874D03*
G54D30*
X0258366Y-0158465D03*
Y-0160433D03*
Y-0162401D03*
Y-016437D03*
Y-0166339D03*
Y-0168307D03*
Y-0170276D03*
Y-0172244D03*
Y-0174213D03*
Y-0176181D03*
Y-017815D03*
Y-0180118D03*
X0290059D03*
Y-017815D03*
Y-0176181D03*
Y-0174213D03*
Y-0172244D03*
Y-0170276D03*
Y-0168307D03*
Y-0166339D03*
Y-016437D03*
Y-0162401D03*
Y-0160433D03*
Y-0158465D03*
G54D31*
X0263386Y-0185138D03*
X0265354D03*
X0267323D03*
X0269291D03*
X027126D03*
X0273228D03*
X0275197D03*
X0277165D03*
X0279134D03*
X0281102D03*
X0283071D03*
X0285039D03*
Y-0153445D03*
X0283071D03*
X0281102D03*
X0279134D03*
X0277165D03*
X0275197D03*
X0273228D03*
X027126D03*
X0269291D03*
X0267323D03*
X0265354D03*
X0263386D03*
G54D32*
X0167913Y-0042126D03*
X0169882D03*
X017185D03*
X0173819D03*
X0175787D03*
X0177756D03*
X0179724D03*
X0181693D03*
X0183661D03*
X018563D03*
X0187598D03*
X0189567D03*
X0191535D03*
X0193504D03*
X0195473D03*
X0197441D03*
X0199409D03*
X0201378D03*
X0203346D03*
X0205315D03*
X0207283D03*
X0209252D03*
X0211221D03*
X0213189D03*
X0215158D03*
X0217126D03*
X0219094D03*
X0221063D03*
X0223031D03*
X0225D03*
X0226969D03*
X0228937D03*
X0230906D03*
X0232874D03*
X0234842D03*
X0236811D03*
Y-0125591D03*
X0234842D03*
X0232874D03*
X0230906D03*
X0228937D03*
X0226969D03*
X0225D03*
X0223031D03*
X0221063D03*
X0219094D03*
X0217126D03*
X0215158D03*
X0213189D03*
X0211221D03*
X0209252D03*
X0207283D03*
X0205315D03*
X0203346D03*
X0201378D03*
X0199409D03*
X0197441D03*
X0195473D03*
X0193504D03*
X0191535D03*
X0189567D03*
X0187598D03*
X018563D03*
X0183661D03*
X0181693D03*
X0179724D03*
X0177756D03*
X0175787D03*
X0173819D03*
X017185D03*
X0169882D03*
X0167913D03*
G54D33*
X0244094Y-0049409D03*
Y-0051378D03*
Y-0053346D03*
Y-0055315D03*
Y-0057284D03*
Y-0059252D03*
Y-0061221D03*
Y-0063189D03*
Y-0065158D03*
Y-0067126D03*
Y-0069095D03*
Y-0071063D03*
Y-0073032D03*
Y-0075D03*
Y-0076968D03*
Y-0078937D03*
Y-0080905D03*
Y-0082874D03*
Y-0084842D03*
Y-0086811D03*
Y-0088779D03*
Y-0090748D03*
Y-0092716D03*
Y-0094685D03*
Y-0096653D03*
Y-0098622D03*
Y-0100591D03*
Y-0102559D03*
Y-0104527D03*
Y-0106496D03*
Y-0108465D03*
Y-0110433D03*
Y-0112402D03*
Y-011437D03*
Y-0116339D03*
Y-0118307D03*
X016063D03*
Y-0116339D03*
Y-011437D03*
Y-0112402D03*
Y-0110433D03*
Y-0108465D03*
Y-0106496D03*
Y-0104527D03*
Y-0102559D03*
Y-0100591D03*
Y-0098622D03*
Y-0096653D03*
Y-0094685D03*
Y-0092716D03*
Y-0090748D03*
Y-0088779D03*
Y-0086811D03*
Y-0084842D03*
Y-0082874D03*
Y-0080905D03*
Y-0078937D03*
Y-0076968D03*
Y-0075D03*
Y-0073032D03*
Y-0071063D03*
Y-0069095D03*
Y-0067126D03*
Y-0065158D03*
Y-0063189D03*
Y-0061221D03*
Y-0059252D03*
Y-0057284D03*
Y-0055315D03*
Y-0053346D03*
Y-0051378D03*
Y-0049409D03*
G54D34*
X0208012Y-0160846D03*
Y-0155847D03*
Y-0150847D03*
Y-0145846D03*
X0177421Y-0160846D03*
Y-0155847D03*
Y-0150847D03*
Y-0145846D03*
G54D35*
X0192717Y-0153347D03*
G54D36*
X0314764Y-0212205D03*
X0301378D03*
X0254134Y-0212795D03*
X0240748D03*
G54D37*
X0307283Y-0080905D03*
X0301378D03*
X011437Y-0186221D03*
X0108465D03*
X0149409Y-0105069D03*
X0143504D03*
X0114764Y-0129134D03*
X0108858D03*
X0114764Y-0204921D03*
X0108858D03*
X0301378Y-0073425D03*
X0307283D03*
X0301575Y-0089173D03*
X030748D03*
X0301772Y-0112008D03*
X0307677D03*
Y-0119685D03*
X0301772D03*
X0301969Y-0144095D03*
X0307874D03*
X0301772Y-0170079D03*
X0307677D03*
X0292323Y-0199409D03*
X0286417D03*
X026811Y-0193307D03*
X0262205D03*
X0246063Y-0193701D03*
X0240158D03*
X0246063Y-0186627D03*
X0240158D03*
X0266142Y-0145472D03*
X0272047D03*
X0273425Y-007441D03*
X026752D03*
Y-0083465D03*
X0273425D03*
X0188583Y-0185827D03*
X0182677D03*
X0188583Y-0191929D03*
X0182677D03*
X0145473Y-0172244D03*
X0139567D03*
X0114764Y-016752D03*
X0108858D03*
X0114764Y-0148031D03*
X0108858D03*
G54D38*
X0081299Y-0024803D03*
Y-0018898D03*
Y-0036614D03*
Y-0030709D03*
Y-0048425D03*
Y-004252D03*
Y-0060236D03*
Y-0054331D03*
X0076772Y-0214961D03*
Y-0209055D03*
X0084055Y-0205906D03*
Y-0211811D03*
X0076772Y-0197736D03*
Y-0191831D03*
X0084055Y-0187402D03*
Y-0193307D03*
X0121063Y-0093209D03*
Y-0099114D03*
Y-0114764D03*
Y-0120669D03*
X0127362Y-0135827D03*
Y-0141732D03*
X0081299Y-0072047D03*
Y-0066142D03*
Y-0083858D03*
Y-0077953D03*
Y-0095669D03*
Y-0089764D03*
Y-010748D03*
Y-0101575D03*
Y-0119291D03*
Y-0113386D03*
Y-0131102D03*
Y-0125197D03*
X0076772Y-0146457D03*
Y-0140551D03*
X0084449Y-014252D03*
Y-0136614D03*
Y-0151181D03*
Y-0157087D03*
X0076772Y-0163287D03*
Y-0157382D03*
X0084055Y-0168701D03*
Y-0174606D03*
X0076772Y-0180512D03*
Y-0174606D03*
X0127362Y-0173721D03*
Y-0179626D03*
Y-0192667D03*
Y-0198573D03*
Y-021752D03*
Y-0211614D03*
X021437Y-0155118D03*
Y-0161024D03*
X0245669Y-0147047D03*
Y-0152953D03*
X0301378Y-0155512D03*
Y-0161417D03*
X0308858Y-0175787D03*
Y-0181693D03*
X0300394Y-0175984D03*
Y-018189D03*
X0291535Y-019311D03*
Y-0187205D03*
X0255118Y-0188386D03*
Y-0194291D03*
X0168701Y-0030512D03*
Y-0024606D03*
X0127362Y-0154774D03*
Y-0160679D03*
X0121063Y-0070079D03*
Y-0075984D03*
Y-0060039D03*
Y-0054134D03*
X0121653Y-0038386D03*
Y-003248D03*
G54D39*
X0167717Y-0173819D03*
Y-0198228D03*
G54D40*
X0169882Y-0154528D03*
Y-0160433D03*
X0292323Y-0145866D03*
Y-0151772D03*
X0258465Y-0143701D03*
Y-0149606D03*
X0254331Y-0100591D03*
Y-0094685D03*
X0253937Y-0078937D03*
Y-0073032D03*
X0255118Y-004685D03*
Y-0052756D03*
X0245472Y-0037598D03*
Y-0043504D03*
X0175197Y-0024606D03*
Y-0030512D03*
G54D41*
X0289764Y-0109862D03*
Y-0104862D03*
Y-0099862D03*
Y-0094862D03*
X0270472Y-0109862D03*
Y-0104862D03*
Y-0099862D03*
Y-0094862D03*
G54D42*
X0290167Y-008341D03*
X0282667D03*
X0286417Y-007441D03*
G54D43*
X0197835Y-0177559D03*
X0222244D03*
G54D44*
X0294685Y-021811D02*
X0296457D01*
X0291929Y-0220866D02*
X0294685Y-021811D01*
X0291929Y-0215354D02*
Y-0215158D01*
Y-0220866D02*
Y-0215354D01*
X0291732Y-0214961D02*
X0291929Y-0215158D01*
X0279921Y-0212203D02*
Y-0205512D01*
Y-0214567D02*
Y-0212203D01*
Y-0214567D02*
X0280709Y-0215354D01*
X0286024*
X0262598Y-0212205D02*
X0266339Y-0215945D01*
X0271258*
X0254331Y-0216929D02*
X0258071Y-0220669D01*
Y-0220866D02*
Y-0220669D01*
X0279919Y-0212205D02*
X0279921Y-0212203D01*
X0245472Y-0043504D02*
X0249213Y-0047244D01*
X0166535Y-0154528D02*
X0169882D01*
X0170295Y-0160846D02*
X0173425D01*
X0140748Y-0057874D02*
D01*
X0144095*
X0153937D02*
X0154134Y-0058071D01*
X015Y-0057874D02*
X0153937D01*
X0142913Y-0077362D02*
D01*
Y-0080905D02*
Y-0077362D01*
X015Y-0082087D02*
X0154134D01*
X0148819Y-0080905D02*
X015Y-0082087D01*
X0139961Y-0113189D02*
X014311D01*
X0149016D02*
X0150591Y-0111614D01*
X0154134*
X0166732Y-0135236D02*
X0168701Y-0133268D01*
X0172638Y-0135236D02*
X0173031Y-0134843D01*
Y-0132087*
X0250591Y-007815D02*
X025315D01*
X0253937Y-0078937*
X0250591Y-0073819D02*
X025315D01*
X0253937Y-0073032*
X0250591Y-0099803D02*
X0253543D01*
X0254331Y-0100591*
X0250591Y-0095472D02*
X0253543D01*
X0254331Y-0094685*
X0216535Y-003189D02*
X0216929Y-0031496D01*
X0216535Y-0035236D02*
Y-003189D01*
X0211417Y-0031496D02*
X0211811Y-003189D01*
Y-0035236D02*
Y-003189D01*
X0196654Y-003563D02*
Y-0033071D01*
X0197835Y-003189*
X0192323Y-003563D02*
Y-0032283D01*
X0191929Y-003189D02*
X0192323Y-0032283D01*
X0307874Y-0052953D02*
Y-0040551D01*
X0286417Y-007441D02*
X0307874Y-0052953D01*
X0273425Y-007441D02*
X0286417D01*
X0152756Y-003563D02*
X0156299D01*
X0162205D02*
D01*
X0168701*
X0245472Y-0037598D02*
Y-0034055D01*
X0249606Y-0020276D02*
X0249705Y-0020177D01*
X0254823*
X0264035Y-0099862D02*
X0270472D01*
X0264035Y-0104862D02*
X0270472D01*
X0184646Y-0213602D02*
X0203543D01*
X0176437Y-0208602D02*
X0184646D01*
X0174213Y-0210827D02*
X0176437Y-0208602D01*
X0174213Y-0212402D02*
Y-0210827D01*
X0175413Y-0213602D02*
X0184646D01*
X0174213Y-0212402D02*
X0175413Y-0213602D01*
X0199409Y-0133465D02*
Y-0133268D01*
Y-0136417D02*
Y-0133465D01*
X0218307Y-0134252D02*
X0219685Y-013563D01*
X0213189Y-0135433D02*
Y-0132086D01*
X0067669Y-0141291D02*
Y-0138386D01*
Y-0141291D02*
X0067716Y-0141339D01*
X0067669Y-0158466D02*
X0067716Y-0158514D01*
X0067669Y-0158466D02*
Y-0155561D01*
Y-0175642D02*
X0067716Y-0175689D01*
X0067669Y-0175642D02*
Y-0172736D01*
Y-0192817D02*
X0067716Y-0192864D01*
X0067669Y-0192817D02*
Y-0189911D01*
X0118504Y-0144047D02*
X0118551Y-0144095D01*
X0118504Y-0144047D02*
Y-0141142D01*
Y-0162945D02*
X0118551Y-0162992D01*
X0118504Y-0162945D02*
Y-0160039D01*
Y-0182118D02*
X0118551Y-0182165D01*
X0118504Y-0182118D02*
Y-0179213D01*
Y-0201134D02*
X0118551Y-0201181D01*
X0118504Y-0201134D02*
Y-0198228D01*
X0067669Y-0209992D02*
X0067716Y-0210039D01*
X0067669Y-0209992D02*
Y-0207087D01*
X0112795Y-0216779D02*
X0112843Y-0216732D01*
X0115748*
X011885Y-0110827D02*
X0118898Y-011078D01*
X0114468Y-0110827D02*
X011885D01*
X0114468Y-0088632D02*
X011885D01*
X0118898Y-0088585*
X0114468Y-0066437D02*
X011885D01*
X0118898Y-006639*
X0114468Y-0044242D02*
X011885D01*
X0118898Y-0044195*
X0114468Y-0022047D02*
X011885D01*
X0118898Y-0022*
X0045669Y-0217087D02*
X0051024D01*
X0053543Y-0214567*
X0029528Y-0115354D02*
X0037008Y-0122835D01*
X0029528Y-0115354D02*
Y-0111221D01*
X0045906Y-0148622D02*
X0053543D01*
X0045669Y-0148386D02*
X0045906Y-0148622D01*
X0045669Y-0165561D02*
X0047057D01*
X0047244Y-0165748*
X0053543*
Y-0148622*
X0046004Y-0183071D02*
X0053543D01*
X0045669Y-0182736D02*
X0046004Y-0183071D01*
X0053543D02*
Y-0165748D01*
Y-0199606D02*
Y-0183071D01*
Y-0214567D02*
Y-0199606D01*
X0045669Y-0199911D02*
X0053238D01*
X0053543Y-0199606*
X0044882Y-0207087D02*
X0045669D01*
X0037008Y-0125D02*
Y-0122835D01*
Y-0125D02*
X0047047Y-0135039D01*
X0050591*
X0053543Y-0137992*
Y-0148622D02*
Y-0137992D01*
X0168701Y-0133268D02*
Y-0132087D01*
X0218307Y-0134252D02*
Y-0132087D01*
X0193504Y-0136417D02*
Y-0133465D01*
Y-0133268*
X0285039Y-019252D02*
Y-0189764D01*
X0284646Y-0192913D02*
X0285039Y-019252D01*
G54D45*
X0286024Y-0220866D02*
X0286614D01*
X0284252D02*
X0286024D01*
X0283071Y-0219685D02*
X0284252Y-0220866D01*
X0279919Y-0219685D02*
X0283071D01*
X0271063Y-0201378D02*
X0271258Y-0201573D01*
X0270866Y-0201181D02*
X0271063Y-0201378D01*
X0271258Y-0212205D02*
Y-0201573D01*
X027126Y-0219685D02*
X0273014D01*
X0275116Y-0217583*
Y-0213305*
X0274016Y-0212205D02*
X0275116Y-0213305D01*
X0271258Y-0212205D02*
X0274016D01*
X0264173Y-0220866D02*
X0265354Y-0219685D01*
X0271258*
X0280118Y-0208465D02*
Y-0205512D01*
X0262205Y-0038976D02*
X0263779Y-0040551D01*
X0254921Y-0038976D02*
X0262205D01*
X0254921D02*
Y-0031102D01*
X0254823Y-0031004D02*
X0254921Y-0031102D01*
X0203543Y-0208602D02*
X0210965D01*
X0176969Y-020374D02*
X0184508D01*
X0152563Y-0182283D02*
X0153524Y-0183245D01*
Y-0195562D02*
Y-0183245D01*
Y-0202736D02*
Y-0195562D01*
X0148524Y-0202736D02*
Y-0195562D01*
X0143524Y-0202736D02*
X0143544Y-0202756D01*
X0143524Y-0202736D02*
Y-0195562D01*
X0153524Y-021466D02*
Y-020768D01*
X0143524Y-0214854D02*
Y-020768D01*
Y-0215641D02*
Y-0214854D01*
X0148524D02*
Y-020768D01*
Y-0215641D02*
Y-0214854D01*
X0138524D02*
Y-020768D01*
Y-0215641D02*
Y-0214854D01*
X0161614Y-0202756D02*
X0162402Y-0203543D01*
G54D46*
X0271063Y-0201378D02*
X0281299D01*
X0234449D02*
X0271063D01*
X0050984Y-0068701D02*
Y-0063779D01*
X0047638D02*
X0050984D01*
X0045669D02*
X0047638D01*
X0222244Y-018563D02*
Y-0177559D01*
X0173228Y-020374D02*
X0176969D01*
X0167717Y-0198228D02*
X0173228Y-020374D01*
X0148544Y-020766D02*
X0153544D01*
X0143544D02*
X0148544D01*
X0138544D02*
X0143544D01*
X0162402Y-0212402D02*
Y-0203543D01*
X0167717Y-0198228*
X0222244Y-0197244D02*
D01*
Y-018563*
Y-0197244D02*
D01*
X0044882Y-0064567D02*
X0045669Y-0063779D01*
X005Y-0069685D02*
X0050984Y-0068701D01*
X004685Y-0125394D02*
X0047835Y-0126378D01*
X0051575Y-0116388D02*
X0052903Y-0117717D01*
X0230315Y-0197244D02*
X0234449Y-0201378D01*
X0222244Y-0197244D02*
X0230315D01*
X0043701Y-0119095D02*
X0046457Y-012185D01*
X0040551Y-0119095D02*
X0043701D01*
X0046457Y-012185D02*
X004685D01*
Y-0125394D02*
Y-012185D01*
Y-0113386D02*
X0051575D01*
Y-0116388D02*
Y-0113386D01*
G54D47*
X0297244Y-0212205D02*
X0301378D01*
X0295276Y-0210236D02*
X0297244Y-0212205D01*
X0289961Y-0210236D02*
X0295276D01*
X0281299Y-0201575D02*
X0289961Y-0210236D01*
X0210965Y-0208602D02*
X0216732Y-021437D01*
X0165157Y-017126D02*
X0167717Y-0173819D01*
X0165157Y-017126D02*
Y-0166732D01*
X0170276Y-017126D02*
Y-0166732D01*
X0167717Y-0173819D02*
X0170276Y-017126D01*
X0165157Y-0166732D02*
X0170276D01*
X0254134Y-0216535D02*
D01*
Y-0212795*
X0190748Y-0180118D02*
Y-0175D01*
X0195276D02*
X0197835Y-0177559D01*
X0190748Y-0175D02*
X0195276D01*
X0190748Y-0180118D02*
X0195276D01*
X0197835Y-0177559*
X0143544Y-0202756D02*
X0161614D01*
X0314764Y-0212205D02*
X0329724D01*
X0326811Y-0186008D02*
Y-0184606D01*
X0331102Y-0180315*
X0338189*
X0329724Y-0212205D02*
X0341142Y-0200787D01*
Y-0183268*
X0338189Y-0180315D02*
X0341142Y-0183268D01*
X0215354Y-0212795D02*
X0240748D01*
G54D48*
X0300197Y-0206299D02*
Y-0201772D01*
X0292126Y-0151772D02*
X029252Y-0151378D01*
X0292126Y-0158465D02*
Y-0155512D01*
X0258465Y-0149606D02*
X0262008D01*
X0299213Y-0125D02*
X0302165Y-0127953D01*
X0274213Y-0125D02*
X0299213D01*
X0258268Y-0109055D02*
X0274213Y-0125D01*
X026752Y-0087598D02*
D01*
Y-0083465D01*
X027874Y-0078937D02*
X0291339D01*
X0301575Y-0089173*
X0248819Y-0063189D02*
X025374Y-006811D01*
X0244094Y-0063189D02*
X0248819D01*
X0188189Y-0030433D02*
X0196968Y-0021654D01*
X0188189Y-0033661D02*
Y-0030433D01*
Y-0033661D02*
X0189567Y-0035039D01*
Y-0042126D02*
Y-0035039D01*
X0244094Y-0061221D02*
X025059D01*
X0258268Y-0068898*
X0251181Y-0059252D02*
X0259949Y-006802D01*
X025144Y-0057284D02*
X0261614Y-0067458D01*
X0244094Y-0057284D02*
X025144D01*
X0261614Y-0091535D02*
Y-0067458D01*
X0244094Y-0059252D02*
X0251181D01*
X0259949Y-0105618D02*
Y-006802D01*
X0252165Y-0055315D02*
X0263386Y-0066535D01*
X0244094Y-0055315D02*
X0252165D01*
X0263386Y-0088583D02*
Y-0066535D01*
X0258268Y-0109055D02*
Y-0068898D01*
X0259949Y-0105618D02*
X0264193Y-0109862D01*
X0270472*
X0264941Y-0094862D02*
X0270472D01*
X0261614Y-0091535D02*
X0264941Y-0094862D01*
X0263386Y-0088583D02*
X0266142Y-0091339D01*
X0276772*
X0279921Y-0111024D02*
Y-0094488D01*
X0276772Y-0091339D02*
X0279921Y-0094488D01*
X023563Y-0150394D02*
X0238487D01*
X0230118Y-0144882D02*
X023563Y-0150394D01*
X0208012Y-0160846D02*
X0208189Y-0161024D01*
X021437*
Y-0155118D02*
Y-0152165D01*
X0127362Y-0145276D02*
Y-0141732D01*
X0127047Y-0136142D02*
X0127362Y-0135827D01*
X0118504Y-0136142D02*
X0127047D01*
X0127362Y-016437D02*
Y-0160679D01*
X0118504Y-0155039D02*
X011877Y-0154774D01*
X0127362*
Y-0182874D02*
Y-0179626D01*
Y-0207087D02*
Y-0198573D01*
Y-0211614D02*
Y-0207087D01*
X0267323Y-019252D02*
X026811Y-0193307D01*
X0267323Y-019252D02*
Y-0185138D01*
X023702Y-0193701D02*
X0240158D01*
X0237008Y-0193688D02*
X023702Y-0193701D01*
X0251772Y-0194291D02*
D01*
X0255118*
X0254724Y-0187992D02*
X0255118Y-0188386D01*
X0251575Y-0187992D02*
X0254724D01*
X0247047Y-019252D02*
X0251575Y-0187992D01*
Y-0180016*
X0250627Y-0168307D02*
X0258366D01*
X0246457Y-0172478D02*
X0250627Y-0168307D01*
X0254921Y-0174213D02*
X0258366D01*
X025315Y-0175984D02*
X0254921Y-0174213D01*
X0252165Y-0175984D02*
X025315D01*
X0249213Y-0172244D02*
X0251378Y-0170079D01*
X0249213Y-0176796D02*
Y-0172244D01*
X0246457Y-0179552D02*
X0249213Y-0176796D01*
X0252756Y-0172638D02*
X025315Y-0172244D01*
X0251378Y-0170079D02*
X0258169D01*
X025315Y-0172244D02*
X0257972D01*
X0251575Y-0180016D02*
X0255409Y-0176181D01*
X0258366*
X0247392Y-0166339D02*
X0258366D01*
X0237008Y-0186614D02*
X023702Y-0186627D01*
X0240158*
X0237008Y-0179528D02*
X0237033Y-0179552D01*
X0240551*
X0246063Y-0186627D02*
X0246457Y-0186233D01*
Y-0179552*
X0258169Y-0170079D02*
X0258366Y-0170276D01*
X0245669Y-0147047D02*
Y-0144095D01*
Y-0152953D02*
X025315Y-0160433D01*
X0258366*
X0238779Y-0143701D02*
Y-0138779D01*
X0230118Y-0162992D02*
Y-0158268D01*
X0240551Y-0165404D02*
D01*
Y-0168898D02*
Y-0165404D01*
Y-0168898D02*
D01*
Y-0172478D02*
Y-0168898D01*
X0230118Y-0144882D02*
Y-0143701D01*
X0238487Y-0150394D02*
X0246457Y-0158363D01*
Y-0165404D02*
Y-0158363D01*
Y-0165404D02*
X0247392Y-0166339D01*
X0236811Y-0173558D02*
Y-0160236D01*
X0238779Y-0158268*
X0236811Y-0173558D02*
X0238844Y-0175591D01*
X0243344*
X0246457Y-0172478*
X014311Y-0092913D02*
Y-0088829D01*
Y-0096949D02*
Y-0092913D01*
X0136221Y-0080315D02*
Y-0075D01*
X0127559Y-0100197D02*
Y-0094882D01*
X0126821Y-0107677D02*
X0130118D01*
X0126772Y-0107726D02*
X0126821Y-0107677D01*
X0140157Y-0105118D02*
X0140207Y-0105069D01*
X0143504*
X0149409D02*
X0149606Y-0104872D01*
Y-0101772*
X0136024Y-0107677D02*
Y-0103937D01*
X0138189Y-0101772*
X0149606*
X0136811Y-0096063D02*
X0140945Y-0100197D01*
X0145768D02*
X0149016Y-0096949D01*
X0149606Y-0101772D02*
X0154724Y-0096653D01*
X016063*
X0282612Y-0083465D02*
X0282667Y-008341D01*
X0273425Y-0083465D02*
X0282612D01*
X0240354Y-0046063D02*
Y-0034252D01*
X012874Y-008189D02*
X0132283Y-0085433D01*
X014562D02*
X0149016Y-0088829D01*
X0152903Y-0092716*
X016063*
X0149016Y-0096949D02*
X015128Y-0094685D01*
X016063*
X0168701Y-0030512D02*
X0175197D01*
X0179724Y-0035039*
Y-0042126D02*
Y-0035039D01*
X026752Y-0073425D02*
Y-0070669D01*
X0311024Y-0206102D02*
Y-0201575D01*
X0308858Y-0181693D02*
X0309252Y-0182087D01*
Y-018937D02*
Y-0182087D01*
Y-018937D02*
X0309646Y-0189764D01*
X0311024*
X0300197Y-0189961D02*
X0300394Y-0189764D01*
Y-018189*
X0232283Y-0026181D02*
X0240354Y-0034252D01*
X0221496Y-0026181D02*
X0232283D01*
X0216968Y-0021654D02*
X0221496Y-0026181D01*
X0206968Y-0021654D02*
X0213465Y-002815D01*
X0229724*
X0236811Y-0035236*
Y-0042126D02*
Y-0035236D01*
X0250394Y-0050394D02*
X0252756Y-0048031D01*
X0255118Y-0053346D02*
Y-0053347D01*
X0244094Y-0053346D02*
X0255118D01*
X024941Y-0051378D02*
X0250394Y-0050394D01*
X0244094Y-0051378D02*
X024941D01*
X0247047Y-0049409D02*
X0249213Y-0047244D01*
X0244094Y-0049409D02*
X0247047D01*
X0249213Y-0047244D02*
Y-004685D01*
X0307677Y-0112008D02*
X0316142D01*
X0309252Y-0100787D02*
X0312402D01*
X0277165Y-0190869D02*
X027874Y-0192444D01*
X0277165Y-0190869D02*
Y-0185138D01*
X027874Y-019685D02*
D01*
Y-0192913D01*
Y-0192444*
X0283071Y-0188113*
Y-0185138*
X0285039Y-0189764D02*
Y-0185138D01*
X0292323Y-0187205D02*
X029252D01*
X0294882Y-0196457D02*
Y-0189764D01*
X0292323Y-0187205D02*
X0294882Y-0189764D01*
X0291535Y-0187205D02*
X0292323D01*
X0290551Y-019311D02*
X0291535D01*
X0287992Y-0190551D02*
X0290551Y-019311D01*
X0287992Y-0190551D02*
Y-0184843D01*
X0290059Y-0182776*
Y-0180118*
X029252Y-0187205D02*
X0295669Y-0184055D01*
Y-0177559*
X0294291Y-0176181D02*
X0295669Y-0177559D01*
X0290059Y-0176181D02*
X0294291D01*
X0308661Y-0175984D02*
X0308858Y-0175787D01*
X0300394Y-0175984D02*
X0308661D01*
X0294685Y-0170276D02*
X0300394Y-0175984D01*
X0290059Y-0170276D02*
X0294685D01*
X03Y-0168307D02*
X0301772Y-0170079D01*
X0290059Y-0168307D02*
X03D01*
X0301378Y-0155512D02*
Y-0152559D01*
X0292323Y-0145472D02*
Y-014252D01*
X0292126Y-0155512D02*
Y-0151772D01*
X026181Y-0149606D02*
X0262008D01*
X0263386Y-0150984*
X0258465Y-0143701D02*
Y-0140551D01*
X0263386Y-0153445D02*
Y-0150984D01*
X0265354Y-014626D02*
X0266142Y-0145472D01*
X0265354Y-0148819D02*
Y-014626D01*
Y-0153445D02*
Y-0148819D01*
X027126Y-014626D02*
X0272047Y-0145472D01*
X027126Y-0153445D02*
Y-014626D01*
X0277953Y-0130512D02*
X0285039Y-0137598D01*
Y-0153445D02*
Y-0137598D01*
X0287953Y-0130512D02*
X0298031Y-0140591D01*
Y-0160433D02*
Y-0140591D01*
X0296063Y-0162401D02*
X0298031Y-0160433D01*
X0290059Y-0162401D02*
X0296063D01*
X0293503Y-0160433D02*
X0295472Y-0158464D01*
X0290059Y-0160433D02*
X0293503D01*
X0292126Y-0158465D02*
D01*
X0290059D02*
X0292126D01*
X0301378Y-0164567D02*
X0313448D01*
X0293504D02*
X0301378D01*
Y-0161417*
X0293307Y-016437D02*
X0293504Y-0164567D01*
X0290059Y-016437D02*
X0293307D01*
Y-0166339D02*
X0293504Y-0166142D01*
X0290059Y-0166339D02*
X0293307D01*
X0293504Y-0166142D02*
X0312795D01*
X0313448Y-0164567D02*
X0319488Y-0170607D01*
X0312795Y-0166142D02*
X0317913Y-017126D01*
Y-018766D02*
Y-017126D01*
X0319488Y-0187008D02*
Y-0170607D01*
X0317913Y-018766D02*
X0321789Y-0191535D01*
X0319488Y-0187008D02*
X0322441Y-0189961D01*
X0329393*
X0321789Y-0191535D02*
X032874D01*
X0329393Y-0189961D02*
X0331496Y-0192064D01*
X032874Y-0191535D02*
X0329921Y-0192717D01*
X0331496Y-0194606D02*
Y-0192064D01*
X033274Y-019585D02*
X0334685D01*
X0331496Y-0194606D02*
X033274Y-019585D01*
X0329921Y-0194685D02*
Y-0192717D01*
X0328756Y-019585D02*
X0329921Y-0194685D01*
X0326811Y-019585D02*
X0328756D01*
X0222047Y-0185827D02*
X0222244Y-018563D01*
X0188583Y-0185827D02*
X0222047D01*
X0182677D02*
X0182697Y-0185846D01*
Y-0198602D02*
X0184646D01*
X0200256Y-0203602D02*
X0203543D01*
X0197638Y-0200984D02*
X0200256Y-0203602D01*
X0197638Y-0200984D02*
Y-0194882D01*
X0200591Y-0191929*
X0193504Y-0133268D02*
X0195473Y-0131299D01*
X0197441D02*
X0199409Y-0133268D01*
X0197441Y-0131299D02*
Y-0125984D01*
X0225Y-013563D02*
X0228937D01*
X0234842D02*
D01*
X0238189Y-0130315D02*
X0239567D01*
X0236811Y-0128937D02*
X0238189Y-0130315D01*
X0236811Y-0128937D02*
Y-0125591D01*
X0244094Y-0098622D02*
X024941D01*
X0250591Y-0099803*
X024941Y-0096653D02*
X0250591Y-0095472D01*
X0244094Y-0096653D02*
X024941D01*
X0244094Y-0076968D02*
X024941D01*
X0250591Y-007815*
X024941Y-0075D02*
X0250591Y-0073819D01*
X0244094Y-0075D02*
X024941D01*
X0215158Y-0042126D02*
Y-0036811D01*
X0216339Y-003563*
X0212008D02*
X0213189Y-0036811D01*
Y-0042126D02*
Y-0036811D01*
X0195473Y-0042126D02*
Y-0036811D01*
X0196654Y-003563*
X0192323D02*
X0193504Y-0036811D01*
Y-0042126D02*
Y-0036811D01*
X0167913Y-0042126D02*
Y-0036417D01*
X0168701Y-003563*
X0169882Y-0036811*
Y-0042126D02*
Y-0036811D01*
X0155315Y-0059252D02*
X016063D01*
X0154134Y-0058071D02*
X0155315Y-0059252D01*
Y-0078937D02*
X016063D01*
X0154134Y-0077756D02*
X0155315Y-0078937D01*
Y-0080905D02*
X016063D01*
X0154134Y-0082087D02*
X0155315Y-0080905D01*
X0153347Y-0107677D02*
X0154134Y-0108465D01*
X016063*
X0153347Y-010374D02*
X0156102Y-0106496D01*
X016063*
X0155315Y-0110433D02*
X016063D01*
X0154134Y-0111614D02*
X0155315Y-0110433D01*
X0154134Y-0111614D02*
X0154921Y-0112402D01*
X016063*
X0169882Y-0130905D02*
Y-0125591D01*
X017185Y-0130905D02*
X0173031Y-0132087D01*
X017185Y-0130905D02*
Y-0125591D01*
X0195473Y-0131299D02*
Y-0125984D01*
X0217126Y-0130905D02*
Y-0125591D01*
X0215158Y-0130117D02*
Y-0125591D01*
X0269882Y-017815D02*
X0290059D01*
X0267323Y-0180709D02*
X0269882Y-017815D01*
X0267323Y-0185138D02*
Y-0180709D01*
X0114468Y-0120827D02*
X0120906D01*
X0121063Y-0120669*
X0114951Y-0099114D02*
X0121063D01*
X0114468Y-0098632D02*
X0114951Y-0099114D01*
X0114468Y-0076437D02*
X0120728D01*
X0114576Y-0054134D02*
X0121063D01*
X0114468Y-0054242D02*
X0114576Y-0054134D01*
X0114901Y-003248D02*
X0121653D01*
X0114468Y-0032047D02*
X0114901Y-003248D01*
X0067669Y-0217087D02*
X0074055D01*
X0076181Y-0214961*
X0076772*
X0067669Y-0199911D02*
X0074597D01*
X0076772Y-0197736*
X0067669Y-0182736D02*
X0074154D01*
X0076378Y-0180512*
X0076772*
X0118504Y-0211614D02*
X0121457D01*
X0127362Y-021752*
X0131693Y-0085433D02*
X0132283D01*
X014562*
X0140945Y-0100197D02*
X0145768D01*
X0076181Y-0146457D02*
X0076772D01*
X0074252Y-0148386D02*
X0076181Y-0146457D01*
X0067669Y-0148386D02*
X0074252D01*
X0076279Y-0163287D02*
X0076772D01*
X0074006Y-0165561D02*
X0076279Y-0163287D01*
X0067669Y-0165561D02*
X0074006D01*
X0076772Y-0157382D02*
Y-0154626D01*
Y-0174606D02*
Y-017185D01*
Y-0191831D02*
Y-0189075D01*
Y-0209055D02*
Y-0206299D01*
X0118504Y-0193228D02*
X0119065Y-0192667D01*
X0127362*
X0118504Y-0174213D02*
X012687D01*
X0127362Y-0173721*
X0168701Y-0132087D02*
X0169882Y-0130905D01*
X0189567Y-0125591D02*
Y-0118307D01*
D01*
X0173287Y-0150847D02*
X0177421D01*
X0170472Y-0148031D02*
X0173287Y-0150847D01*
X0177421Y-0145846D02*
X0180886D01*
X0180905Y-0145866*
X0173681Y-0155847D02*
X0177421D01*
X0173622Y-0155905D02*
X0173681Y-0155847D01*
X0153937Y-0116339D02*
X016063D01*
X0153937D02*
D01*
X0208012Y-0150847D02*
X0211555D01*
X0194291Y-0104528D02*
Y-0104527D01*
X0198622Y-0098819D02*
X0202362Y-0102559D01*
X0193504Y-0125591D02*
Y-0117323D01*
X0211555Y-0150847D02*
X0214961Y-0147441D01*
X0220472*
X0127362Y-021752D02*
X0134843Y-0210039D01*
X0127362Y-0192667D02*
X0132874Y-0187155D01*
X0193504Y-0117323D02*
X0200591Y-0110236D01*
X0211811*
X0215748Y-0114173*
X0234842Y-013563D02*
Y-0125591D01*
X0239567Y-0055315D02*
X0244094D01*
X0201378Y-0125591D02*
Y-0115354D01*
X0204331Y-0112402*
X0209842*
X0211417Y-0113976*
X0207874Y-0155709D02*
X0208012Y-0155847D01*
X0203937Y-0155709D02*
X0207874D01*
X021437Y-0161024D02*
X0223228D01*
X016063Y-0049409D02*
X0167717D01*
X0186614Y-0068307*
X0183661Y-0058661D02*
Y-0042126D01*
Y-0058661D02*
X0197441Y-0072441D01*
X0148622Y-0075D02*
X016063D01*
X0148425Y-0074803D02*
X0148622Y-0075D01*
X0121063Y-0093209D02*
X0122441Y-0091831D01*
Y-0087598*
X0152953Y-0073032D02*
X016063D01*
X0152362Y-0072441D02*
X0152953Y-0073032D01*
X0155118Y-0071063D02*
X016063D01*
X0153937Y-0069882D02*
X0155118Y-0071063D01*
X012126Y-0069882D02*
X0153937D01*
X0121063Y-0070079D02*
X012126Y-0069882D01*
X0121063Y-0060039D02*
X0128347Y-0067323D01*
X015374*
X0155512Y-0069095*
X016063*
X0156496Y-0067126D02*
X016063D01*
X0153937Y-0064567D02*
X0156496Y-0067126D01*
X0138583Y-0064567D02*
X0153937D01*
X0127165Y-005315D02*
X0138583Y-0064567D01*
X0127165Y-005315D02*
Y-0043898D01*
X0121653Y-0038386D02*
X0127165Y-0043898D01*
X0121063Y-0114764D02*
X0126181D01*
X016063Y-0053346D02*
X0165748D01*
X0177559Y-0065158*
X018563Y-0054331D02*
Y-0042126D01*
Y-0054331D02*
X0207283Y-0075984D01*
X016063Y-0055315D02*
X0164961D01*
X0173031Y-0063386*
Y-0067913D02*
Y-0063386D01*
Y-0067913D02*
X019252Y-0087402D01*
X0233071*
X0237402Y-005315D02*
X0239567Y-0055315D01*
X0237402Y-005315D02*
Y-0049016D01*
X0240354Y-0046063*
X0236811Y-0047047D02*
Y-0042126D01*
X0228937Y-0049606D02*
Y-0042126D01*
X0259449Y-0190551D02*
X0262205Y-0193307D01*
X0259449Y-0190551D02*
Y-0184843D01*
X0263386Y-0185138D02*
Y-0179527D01*
X0265945Y-0176969*
X0255906Y-0180118D02*
X0258366D01*
X0254331Y-0181693D02*
X0255906Y-0180118D01*
X0189567Y-0052165D02*
Y-0042126D01*
Y-0052165D02*
X0204921Y-006752D01*
X0217126*
X0225984Y-0082677D02*
Y-0057874D01*
X0236811Y-0047047*
X0307677Y-0170079D02*
X0311614D01*
X0311811Y-0169882*
X0279921Y-0111024D02*
X0288386Y-0119488D01*
X0217126Y-0130905D02*
X0218307Y-0132087D01*
X0213189Y-0132086D02*
X0215158Y-0130117D01*
X0209252Y-0125591D02*
Y-0120003D01*
X0205315Y-0125591D02*
Y-0117717D01*
X0207874Y-0115157*
X020795Y-0118701D02*
X0209252Y-0120003D01*
X0221457Y-0057087D02*
X0228937Y-0049606D01*
X0221457Y-0073819D02*
Y-0057087D01*
X0127362Y-0135827D02*
Y-012126D01*
X0135039Y-0113583*
X0201378Y-0050984D02*
Y-0042126D01*
X0198228Y-0054134D02*
X0201378Y-0050984D01*
X0181693Y-0125591D02*
Y-012126D01*
X0183661Y-0125591D02*
Y-0120473D01*
X0181299Y-011811D02*
X0183661Y-0120473D01*
X0180118Y-0119685D02*
X0181693Y-012126D01*
X0167717Y-0119685D02*
X0180118D01*
X0166929Y-011811D02*
X0181299D01*
X0132874Y-0187155D02*
Y-0170214D01*
X0134843Y-0210039D02*
Y-0170472D01*
X0187598Y-0134252D02*
Y-0125591D01*
X0180905Y-0140945D02*
X0187598Y-0134252D01*
X018563Y-0131693D02*
Y-0125591D01*
X0178543Y-0138779D02*
X018563Y-0131693D01*
X0171063Y-0140945D02*
X0180905D01*
X0132874Y-0170214D02*
X0155709Y-0147379D01*
Y-0129331*
X0166929Y-011811*
X0134843Y-0170472D02*
X0157874Y-0147441D01*
Y-0129528*
X0167717Y-0119685*
X0161221Y-0142126D02*
X0164567Y-0138779D01*
X0178543*
X0166142Y-0145866D02*
X0171063Y-0140945D01*
X0161811Y-0145866D02*
X0166142D01*
X015315Y-0145669D02*
Y-0142323D01*
X0127362Y-0173721D02*
Y-0171457D01*
X015315Y-0145669*
X0127362Y-0154774D02*
X0139518D01*
X0148819Y-0145472*
X0286417Y-0199409D02*
X0289764Y-0202756D01*
Y-0204724D02*
Y-0202756D01*
X0236417Y-0102559D02*
X0244094D01*
X0234646Y-0100787D02*
X0236417Y-0102559D01*
X0234646Y-0100787D02*
Y-0095276D01*
X0233268Y-0093898D02*
X0234646Y-0095276D01*
X0231299Y-0093898D02*
X0233268D01*
X0230118Y-0095079D02*
X0231299Y-0093898D01*
X0230118Y-0101378D02*
Y-0095079D01*
X0228937Y-0102559D02*
X0230118Y-0101378D01*
X0219685D02*
Y-0095079D01*
X0220866Y-0093898*
X0222835*
X0224213Y-0095276*
Y-0100787D02*
Y-0095276D01*
X0225984Y-0102559D02*
X0228937D01*
X0218504D02*
D01*
X0219685Y-0101378*
X0224213Y-0100787D02*
X0225984Y-0102559D01*
X0209646Y-0101378D02*
Y-0095079D01*
X0210827Y-0093898*
X0212795*
X0214173Y-0095276*
Y-0100787D02*
Y-0095276D01*
X0208465Y-0102559D02*
D01*
X0209646Y-0101378*
X0202362Y-0102559D02*
X0208465D01*
X0215945D02*
X0218504D01*
X0214173Y-0100787D02*
X0215945Y-0102559D01*
X0230512Y-0104528D02*
X0231693Y-0105709D01*
Y-0112008D02*
Y-0105709D01*
Y-0112008D02*
X0232874Y-0113189D01*
X0234842*
X0236221Y-0111811*
Y-0106299*
X0237992Y-0104527*
X0221063Y-0104724D02*
X0222047Y-0105709D01*
Y-0112008D02*
Y-0105709D01*
Y-0112008D02*
X0223228Y-0113189D01*
X0225197*
X0226575Y-0111811*
Y-0106299*
X0228346Y-0104528*
X0237992Y-0104527D02*
X0244094D01*
X0228346Y-0104528D02*
X0230512D01*
X0218701Y-0104724D02*
X0221063D01*
X0215551Y-0107874D02*
X0218701Y-0104724D01*
X0211417Y-0107874D02*
X0215551D01*
X0209055Y-0105512D02*
X0211417Y-0107874D01*
X0204528Y-0105512D02*
X0209055D01*
X0202559Y-010748D02*
X0204528Y-0105512D01*
X0197244Y-010748D02*
X0202559D01*
X0194291Y-0104528D02*
X0197244Y-010748D01*
X0252756Y-0048031D02*
X0255118D01*
X0258366Y-0158465D02*
Y-0149705D01*
X0258465Y-0149606*
X0291732Y-0199606D02*
X0294882Y-0196457D01*
X0302165Y-0144095D02*
Y-0127953D01*
X0182697Y-0198602D02*
Y-0185846D01*
X0076772Y-0140551D02*
Y-0137795D01*
G54D49*
X0040945Y-0046063D02*
X005748D01*
X0054331Y-0056102D02*
X0055118Y-005689D01*
X0029528Y-0056102D02*
X0054331D01*
X0055905Y-004626D02*
X0057284D01*
X0037421Y-0032461D02*
X0060532D01*
X0029528Y-0022638D02*
X0055807D01*
X005748Y-0046063D02*
X0058661D01*
X0057284Y-004626D02*
X005748Y-0046063D01*
X0057874Y-0045669*
X0019685Y-003248D02*
X0029528Y-0022638D01*
X0019685Y-0042323D02*
Y-003248D01*
X0029528Y-0040354D02*
X0037421Y-0032461D01*
X0029528Y-0042323D02*
Y-0040354D01*
G54D50*
X0037795Y-0049213D02*
X0040945Y-0046063D01*
X0019685Y-0056102D02*
X0026575Y-0049213D01*
X0019685Y-0069882D02*
X0026378Y-0063189D01*
X0026575Y-0049213D02*
X0037795D01*
X0026378Y-0063189D02*
X0036417D01*
G54D51*
X0047441Y-0087795D02*
X0051378D01*
X0051772Y-0091732D02*
X0059449D01*
X0051378Y-0091634D02*
Y-0087795D01*
X0033661Y-0076772D02*
X0048622Y-0091732D01*
X0044094Y-0096457D02*
Y-0094685D01*
X0019685Y-0083661D02*
Y-0081496D01*
Y-0097441D02*
Y-0095866D01*
X0025Y-0090551*
X0032874*
X0037992Y-0095669*
X0019685Y-0081496D02*
X0024409Y-0076772D01*
X0037992Y-009941D02*
Y-0095669D01*
X0051378Y-0091634D02*
X0051476Y-0091732D01*
X0051772*
X0052362Y-0091142*
X0024409Y-0076772D02*
X0033661D01*
X0048622Y-0091732D02*
X0051476D01*
X0029528Y-0083661D02*
X0033071D01*
X0044094Y-0094685*
G54D52*
X0050591Y-0070276D02*
X006063D01*
X0044882Y-0064567D02*
X005Y-0069685D01*
X0050591Y-0070276*
X0037008Y-0064567D02*
X0044882D01*
X0047047Y-0079724D02*
X006063D01*
X0039764Y-0072441D02*
X0047047Y-0079724D01*
X0055895Y-0034055D02*
X005748D01*
X0052197Y-0126378D02*
X0052362D01*
G54D53*
X0029331Y-007126D02*
X0038583D01*
X0047835Y-0126378D02*
X0052197D01*
X0040551Y-0119095D02*
Y-0110827D01*
Y-0119095D02*
X004685Y-0125394D01*
X0052903Y-0117717D02*
X0056102D01*
X004685Y-0111663D02*
X0051575Y-0116388D01*
X0049803Y-0102165D02*
X0056496D01*
X0029528Y-0099803D02*
Y-0097441D01*
Y-0099803D02*
X0040551Y-0110827D01*
X0029528Y-0069882D02*
X0030709Y-0071063D01*
X0038583Y-007126D02*
X0039764Y-0072441D01*
X0037992Y-009941D02*
X004685Y-0108268D01*
Y-0113386D02*
Y-0108268D01*
G54D54*
X0043996Y-0096457D02*
X0049705Y-0102165D01*
G54D55*
X0341945Y-0119685D02*
X0345291Y-0123031D01*
X0173425Y-0160846D02*
X0177421D01*
X0175197Y-0024606D02*
Y-002126D01*
X0168701D02*
D01*
Y-0024606D02*
Y-002126D01*
X0290158Y-0086811D02*
X0290167Y-0086801D01*
Y-008341*
X0326228Y-0144095D02*
X0326362Y-0143961D01*
X0307874Y-0144095D02*
X0326228D01*
X0325787Y-0062795D02*
Y-0037795D01*
X0315158Y-0073425D02*
X0325787Y-0062795D01*
X0307283Y-0073425D02*
X0315158D01*
X0301378Y-0080905D02*
Y-0073425D01*
X0336961Y-0077362D02*
X0345362Y-0068961D01*
X0320276Y-0077362D02*
X0336961D01*
X0316732Y-0080905D02*
X0320276Y-0077362D01*
X0307283Y-0080905D02*
X0316732D01*
X031915Y-0089173D02*
X0326362Y-0081961D01*
X030748Y-0089173D02*
X031915D01*
X0345291Y-0123031D02*
X0345362Y-0122961D01*
X031687Y-0104862D02*
X0322638Y-011063D01*
X0289764Y-0099862D02*
X0297427D01*
X0300252Y-0097037*
X0289764Y-0104862D02*
X0299927D01*
X0300252Y-0104537*
X0352362Y-0102961D02*
Y-0102848D01*
X0301772Y-0119685D02*
Y-0112008D01*
X0188583Y-0191929D02*
D01*
X0191535*
X0194685*
X0203543Y-0196063D02*
D01*
Y-0198602D02*
Y-0196063D01*
X0145473Y-0172244D02*
X0148819D01*
X0139563Y-0172248D02*
X0139567Y-0172244D01*
X0139563Y-0182283D02*
Y-0172248D01*
X0138524Y-0183322D02*
X0139563Y-0182283D01*
X0138524Y-0195562D02*
Y-0183322D01*
X0093228Y-0136417D02*
X0093504Y-0136142D01*
X0085433Y-0136417D02*
X0093228D01*
X0093504Y-0136142D02*
X0093819Y-0135827D01*
X009626*
Y-0129724*
X009685Y-0129134*
X0093504Y-0136142D02*
X0106378D01*
X0108858Y-0133661*
Y-0129134*
D01*
X0114764D02*
Y-0126378D01*
X0113583Y-0125197D02*
X0114764Y-0126378D01*
X0102756Y-0125197D02*
X0113583D01*
X0102756Y-0129134D02*
Y-0125197D01*
X0093504Y-0141142D02*
X0099409D01*
X009941*
X0108858Y-0152559D02*
Y-0148031D01*
X0106102Y-0155315D02*
X0108858Y-0152559D01*
X0093779Y-0155315D02*
X0106102D01*
X0093504Y-0155039D02*
X0093779Y-0155315D01*
X0086496Y-0155039D02*
X0093504D01*
X0084449Y-0157087D02*
X0086496Y-0155039D01*
X0093504D02*
X009685D01*
X0102756Y-0148228D02*
Y-0144095D01*
X0110827*
X0114764Y-0148031*
X0093504Y-0216614D02*
X0098347D01*
X0084252Y-0211614D02*
X0093504D01*
X0084055Y-0211811D02*
X0084252Y-0211614D01*
X0093504D02*
X0095669D01*
X009685Y-0210433*
Y-0208465D02*
X0105315D01*
X0108858Y-0204921*
X009685Y-0210433D02*
Y-0208465D01*
Y-0204921*
X0111024Y-0201181D02*
X0114764Y-0204921D01*
X0102559Y-0201181D02*
X0111024D01*
X0102559Y-0204724D02*
Y-0201181D01*
Y-0204724D02*
X0102756Y-0204921D01*
X0093504Y-0198228D02*
X0099606D01*
X011063Y-018248D02*
X011437Y-0186221D01*
X0102362Y-018248D02*
X011063D01*
X0102362Y-0186221D02*
Y-018248D01*
X0093504Y-0179213D02*
X0099331D01*
X009941Y-0179134*
X0111221Y-0163976D02*
X0114764Y-016752D01*
X0102756Y-0163976D02*
X0111221D01*
X0102756Y-0167323D02*
Y-0163976D01*
X0093504Y-0160039D02*
X0099409D01*
X009941*
X0322638Y-011063D02*
X0341693D01*
X0345362Y-0106961*
X0324409Y-0106496D02*
X0338976D01*
X0342624Y-0102848*
X0300252Y-0097037D02*
X0314951D01*
X0324409Y-0106496*
X0307677Y-0119685D02*
X0341945D01*
X0073819Y-0030236D02*
X0080827D01*
X0081299Y-0030709*
X0073819Y-0020236D02*
X0075157Y-0018898D01*
X0081299*
X0082618Y-0024803D02*
X0089862Y-0032047D01*
X0081299Y-0024803D02*
X0082618D01*
X0073819Y-0035236D02*
X0077953Y-003937D01*
X0081299Y-0036614D02*
X0085295D01*
X0089862Y-0032047*
X0077953Y-003937D02*
X0090158D01*
X0094685Y-0034843*
Y-002687*
X0089862Y-0022047D02*
X0094685Y-002687D01*
X0073917Y-0043878D02*
X0077185D01*
X0078543Y-004252*
X0081299*
Y-0048425D02*
X0084045D01*
X0089862Y-0054242*
X0081299Y-0060236D02*
X0083868D01*
X0089862Y-0054242*
X0040748Y-0207087D02*
X0044882D01*
X0037205Y-0203543D02*
X0040748Y-0207087D01*
X0037205Y-0203543D02*
Y-0187795D01*
X0029528Y-0180118D02*
X0037205Y-0187795D01*
X0042421Y-0172736D02*
X0045669D01*
X0036417Y-0166732D02*
X0042421Y-0172736D01*
X0036417Y-0166732D02*
Y-0159449D01*
X0029528Y-0152559D02*
X0036417Y-0159449D01*
X0029528Y-0125D02*
X0029921D01*
X0043307Y-0138386*
X0029528Y-0166339D02*
X0038189Y-0175D01*
Y-0184646D02*
Y-0175D01*
Y-0184646D02*
X0043455Y-0189911D01*
X0045669*
X009685Y-0174213D02*
X0106299D01*
X0108858Y-0171653D02*
Y-016752D01*
X0106299Y-0174213D02*
X0108858Y-0171653D01*
X0102362Y-0186221D02*
D01*
X0096653Y-0193228D02*
X0105984D01*
X0093504D02*
X0096653D01*
X0096457Y-0193032D02*
X0096653Y-0193228D01*
X0096457Y-0193032D02*
Y-0186221D01*
X0108268Y-0186417D02*
X0108465Y-0186221D01*
X0108268Y-0190945D02*
Y-0186417D01*
X0105984Y-0193228D02*
X0108268Y-0190945D01*
X0093425Y-0193307D02*
X0093504Y-0193228D01*
X0084055Y-0193307D02*
X0093425D01*
X0084646Y-0174213D02*
X0093504D01*
X009685*
X0098347Y-0216614D02*
X0100787Y-0214173D01*
Y-0211417*
X0208012Y-0145846D02*
X021065D01*
X0213386Y-014311*
X0043307Y-0138386D02*
X0045669D01*
X0342624Y-0102848D02*
X0352362D01*
X0299927Y-0104862D02*
X031687D01*
X0084055Y-0174803D02*
X0084646Y-0174213D01*
X009685D02*
Y-0167323D01*
Y-0155039D02*
Y-0148228D01*
G54D56*
X0073917Y-0058878D02*
X0077835Y-0062795D01*
X0087992*
X0094291Y-0056496*
Y-0048671*
X0089862Y-0044242D02*
X0094291Y-0048671D01*
X007437Y-0054331D02*
X0081299D01*
X0073917Y-00675D02*
X0077382D01*
X007874Y-0066142*
X0081299*
Y-0072047D02*
X0085472D01*
X0089862Y-0076437*
X0081299Y-0083858D02*
X0082441D01*
X0073917Y-00825D02*
X0078031Y-0086614D01*
X0082441Y-0083858D02*
X0089862Y-0076437D01*
X0078031Y-0086614D02*
X0086024D01*
X0093701Y-0078937*
Y-0070276*
X0089862Y-0066437D02*
X0093701Y-0070276D01*
X0073917Y-0091319D02*
X007561D01*
X0077165Y-0089764*
X0081299*
X0089862Y-0088632D02*
X00906D01*
X0094291Y-0092323*
Y-0100058D02*
Y-0092323D01*
X0092659Y-0101691D02*
X0094291Y-0100058D01*
X0092601Y-0101691D02*
X0092659D01*
X0084055Y-0110236D02*
X0092601Y-0101691D01*
X007874Y-0110236D02*
X0084055D01*
X0074823Y-0106319D02*
X007874Y-0110236D01*
X0073917Y-0101319D02*
X0081043D01*
X0081299Y-0101575*
Y-010748D02*
X008248D01*
X0073721Y-0115138D02*
X0078563D01*
X0080315Y-0113386*
X0081299*
X0089862Y-0110827D02*
X0093898Y-0114862D01*
X0074823Y-0130138D02*
X0078543Y-0133858D01*
X0072264Y-0130138D02*
X0073721D01*
Y-0125138D02*
X008124D01*
X0081299Y-0125197*
X0093898Y-0125D02*
Y-0114862D01*
X0078543Y-0133858D02*
X0085039D01*
X0093898Y-0125*
X0089862Y-0126083D02*
Y-0120827D01*
X0084842Y-0131102D02*
X0089862Y-0126083D01*
X0081299Y-0131102D02*
X0084842D01*
X0088327Y-0119291D02*
X0089862Y-0120827D01*
X0081299Y-0119291D02*
X0088327D01*
X007437Y-0077953D02*
X0081299D01*
X0029528Y-0138779D02*
X0029921Y-0138386D01*
X0029528Y-0138779D02*
X0035827D01*
X0039567Y-014252*
Y-0151969D02*
Y-014252D01*
Y-0151969D02*
X0043159Y-0155561D01*
X0045669*
X0084055Y-0205906D02*
Y-0201969D01*
X0084449Y-014252D02*
X0085236D01*
X0088386Y-0145669*
X0084055Y-0168701D02*
Y-0164764D01*
Y-0187402D02*
Y-0183465D01*
X008248Y-010748D02*
X0086221Y-010374D01*
X0088376Y-0098632D02*
X0089862D01*
X0086221Y-010374D02*
Y-0100787D01*
X0088376Y-0098632*
X0081299Y-0095669D02*
X008189D01*
X0084852Y-0098632*
X0089862*
X0084449Y-0151181D02*
Y-0147244D01*
G54D57*
X0186969Y-0021654D03*
X0257953Y-0130512D03*
G54D58*
X0196968Y-0021654D03*
X0206968D03*
X0216968D03*
X0226969D03*
X0267953Y-0130512D03*
X0277953D03*
X0287953D03*
X0297953D03*
G54D59*
X0326811Y-0186008D03*
G54D60*
X0326811Y-019585D03*
X0334685D03*
Y-0186008D03*
G54D61*
X0345354Y-021463D03*
Y-0167228D03*
G54D62*
X0029528Y-0042323D03*
X0019685D03*
Y-0111221D03*
X0029528D03*
Y-0097441D03*
X0019685D03*
Y-0056102D03*
X0029528D03*
X0019685Y-0069882D03*
X0029528D03*
X0019685Y-0083661D03*
X0029528D03*
Y-0152559D03*
X0019685D03*
X0029528Y-0138779D03*
X0019685D03*
X0029528Y-0125D03*
X0019685D03*
Y-0166339D03*
X0029528D03*
Y-0180118D03*
Y-0193898D03*
X0019685Y-0180118D03*
Y-0193898D03*
G54D63*
X0362362Y-0141961D03*
Y-0029961D03*
G54D64*
X0348862Y-0148961D03*
Y-0022961D03*
G54D65*
X0326362Y-0143961D03*
Y-0134961D03*
Y-0098961D03*
Y-0089961D03*
Y-0081961D03*
Y-0072961D03*
Y-0036961D03*
Y-0027961D03*
X0352362Y-0110961D03*
Y-0118961D03*
Y-0126961D03*
X0345362Y-0106961D03*
Y-0114961D03*
Y-0122961D03*
Y-0130961D03*
X0352362Y-0048961D03*
Y-0056961D03*
Y-0064961D03*
X0345362Y-0044961D03*
Y-0052961D03*
Y-0060961D03*
Y-0068961D03*
G54D66*
X0352362Y-0102961D03*
Y-0040961D03*
G54D67*
X0297244Y-0217717D03*
G54D68*
X0300197Y-0206299D03*
X0005512Y-0005709D03*
X026752Y-0087598D03*
X027874Y-0078937D03*
X025374Y-006811D03*
X0166535Y-0154528D03*
X0173425Y-0160846D03*
X021437Y-0152165D03*
X0127362Y-0145276D03*
Y-016437D03*
Y-0182874D03*
Y-0207087D03*
X0237008Y-0193688D03*
X0251772Y-0194291D03*
X0252756Y-0172638D03*
X0251772Y-0176181D03*
X0237008Y-0186614D03*
Y-0179528D03*
X0245669Y-0144095D03*
X0238779Y-0138779D03*
X0230118Y-0162992D03*
X0240551Y-0168898D03*
X014311Y-0092913D03*
X0136221Y-0075D03*
X0127559Y-0100197D03*
X0126772Y-0107726D03*
X0140157Y-0105118D03*
X0140748Y-0057874D03*
X0142913Y-0077362D03*
X0139961Y-0113189D03*
X0175197Y-002126D03*
X0168701D03*
X0290158Y-0086811D03*
X026752Y-0070669D03*
X0017196Y-0005709D03*
X002888D03*
X0040564D03*
X0052248D03*
X0063932D03*
X0075616D03*
X00873D03*
X0098984D03*
X0110668D03*
X0122352D03*
X0134036D03*
X014572D03*
X0157404D03*
X0169088D03*
X0180772D03*
X0192456D03*
X020414D03*
X0215824D03*
X0227508D03*
X0239192D03*
X0250876D03*
X026256D03*
X0274244D03*
X0285928D03*
X0297612D03*
X0309296D03*
X032098D03*
X0332664D03*
X0344348D03*
X0356032D03*
X0367716D03*
Y-0230512D03*
X0356032D03*
X0344348D03*
X0332664D03*
X032098D03*
X0309296D03*
X0297612D03*
X0285928D03*
X0274244D03*
X026256D03*
X0250876D03*
X0239192D03*
X0227508D03*
X0215824D03*
X020414D03*
X0192456D03*
X0180772D03*
X0169088D03*
X0157404D03*
X014572D03*
X0134036D03*
X0122352D03*
X0110668D03*
X0098984D03*
X00873D03*
X0075616D03*
X0063932D03*
X0052248D03*
X0040564D03*
X002888D03*
X0017196D03*
X0005512D03*
X0165157Y-0166732D03*
X0170276D03*
X0280118Y-0205512D03*
Y-0208465D03*
X0311024Y-0206102D03*
X0152756Y-003563D03*
X0250394Y-0050394D03*
X0249213Y-004685D03*
X0245472Y-0034055D03*
X0249606Y-0020276D03*
X0254921Y-0038976D03*
X0316142Y-0112008D03*
X0312402Y-0100787D03*
X0263976Y-0099921D03*
Y-0104921D03*
X027874Y-019685D03*
X0285039Y-0189764D03*
X0301378Y-0152559D03*
X0292323Y-014252D03*
X0292126Y-0155512D03*
X026181Y-0149606D03*
X0258465Y-0140551D03*
X0265354Y-0148819D03*
X0295472Y-0158464D03*
X0262402Y-0212205D03*
X0254134Y-0216535D03*
X0190748Y-0175D03*
Y-0180118D03*
X0191535Y-0191929D03*
X0203543Y-0196063D03*
X0148819Y-0172244D03*
X0153544Y-020766D03*
X0148544D03*
X0143544D03*
X0138544D03*
X0193504Y-0133465D03*
X0199409D03*
X0225Y-013563D03*
X0239567Y-0130315D03*
X0250591Y-0099803D03*
Y-0095472D03*
Y-007815D03*
Y-0073819D03*
X0216339Y-003563D03*
X0212008D03*
X0196654D03*
X0192323D03*
X0168701D03*
X0154134Y-0058071D03*
Y-0077756D03*
Y-0082087D03*
X0153347Y-0107677D03*
Y-010374D03*
X0154134Y-0111614D03*
X0173031Y-0132087D03*
X0067716Y-0141339D03*
Y-0158514D03*
Y-0175689D03*
Y-0192864D03*
X0102756Y-0125197D03*
X009941Y-0141142D03*
X0102756Y-0144095D03*
X0118551D03*
Y-0162992D03*
Y-0182165D03*
Y-0201181D03*
X0067716Y-0210039D03*
X0112795Y-0216779D03*
X0118898Y-011078D03*
Y-0088585D03*
Y-006639D03*
Y-0044195D03*
Y-0022D03*
X0102559Y-0201181D03*
X0099606Y-0198228D03*
X0102362Y-018248D03*
X009941Y-0179134D03*
X0102756Y-0163976D03*
X009941Y-0160039D03*
X0084055Y-0201969D03*
X0088386Y-0145669D03*
X0076772Y-0154626D03*
Y-017185D03*
Y-0189075D03*
Y-0206299D03*
X0084055Y-0164764D03*
Y-0183465D03*
X0100787Y-0211417D03*
X0168701Y-0132087D03*
X0189567Y-0118307D03*
X0170472Y-0148031D03*
X0180905Y-0145866D03*
X0173622Y-0155905D03*
X0153937Y-0116339D03*
X0194291Y-0104528D03*
X0198622Y-0098819D03*
X0211417Y-0113976D03*
X0213386Y-014311D03*
X0220472Y-0147441D03*
X0215748Y-0114173D03*
X0207874Y-0115157D03*
X0203937Y-0155709D03*
X0223228Y-0161024D03*
X0186614Y-0068307D03*
X0197441Y-0072441D03*
X0148425Y-0074803D03*
X0122441Y-0087598D03*
X0152362Y-0072441D03*
X0126181Y-0114764D03*
X0177559Y-0065158D03*
X0233071Y-0087402D03*
X0259449Y-0184843D03*
X0265945Y-0176969D03*
X0254331Y-0181693D03*
X0207283Y-0075984D03*
X0217126Y-006752D03*
X0225984Y-0082677D03*
X0311811Y-0169882D03*
X0288386Y-0119488D03*
X0218307Y-0132087D03*
X0213189Y-0132086D03*
X020795Y-0118701D03*
X0221457Y-0073819D03*
X0135039Y-0113583D03*
X0198228Y-0054134D03*
X015315Y-0142323D03*
X0161221Y-0142126D03*
X0161811Y-0145866D03*
X0148819Y-0145472D03*
X0289764Y-0204724D03*
X0076772Y-0137795D03*
X0084449Y-0147244D03*
G54D69*
X0188779Y-0155315D03*
X0192717D03*
X0196653D03*
X0188779Y-0159252D03*
X0196653D03*
X0192717D03*
X0196653Y-0151378D03*
X0192717D03*
X0188779D03*
X0196653Y-0147441D03*
X0192717D03*
X0188779D03*
G54D70*
X0043898Y-0020669D03*
X0047835D03*
Y-0030512D03*
X0043898D03*
X0047441Y-0044094D03*
X0043504D03*
X004685Y-0054134D03*
X0042913D03*
X0047638Y-0063779D03*
X0043701D03*
X0045276Y-0076575D03*
X0042323Y-0073819D03*
X0048819Y-0087303D03*
X0044882D03*
X0046949Y-0098917D03*
X0043701Y-009626D03*
X0046457Y-0109843D03*
X0047638Y-0113386D03*
X0043701Y-0119095D03*
X004685Y-012185D03*
M02*