%FSTAX25Y25*%
%MOIN*%
%SFA1B1*%

%IPPOS*%
%ADD63C,0.127950*%
%ADD64C,0.095280*%
%ADD65C,0.054690*%
%ADD66R,0.054690X0.054690*%
%ADD71C,0.001000*%
%ADD112R,0.062990X0.062990*%
%ADD113C,0.062990*%
%ADD114R,0.057090X0.057090*%
%ADD115C,0.057090*%
%ADD116C,0.112200*%
%ADD117C,0.082680*%
%ADD118C,0.023620*%
%LNrobocontroller-1*%
%LPD*%
G54D63*
X0362362Y-0141961D03*
Y-0029961D03*
G54D64*
X0348862Y-0148961D03*
Y-0022961D03*
G54D65*
X0326362Y-0143961D03*
Y-0134961D03*
Y-0098961D03*
Y-0089961D03*
Y-0081961D03*
Y-0072961D03*
Y-0036961D03*
Y-0027961D03*
X0352362Y-0110961D03*
Y-0118961D03*
Y-0126961D03*
X0345362Y-0106961D03*
Y-0114961D03*
Y-0122961D03*
Y-0130961D03*
X0352362Y-0048961D03*
Y-0056961D03*
Y-0064961D03*
X0345362Y-0044961D03*
Y-0052961D03*
Y-0060961D03*
Y-0068961D03*
G54D66*
X0352362Y-0102961D03*
Y-0040961D03*
G54D71*
X0288127Y-0041181D02*
X0288727D01*
X0288127Y-0041281D02*
X0288727D01*
X0288127Y-0041381D02*
X0288727D01*
X0288127Y-0041481D02*
X0288727D01*
X0274427D02*
X0274927D01*
X0288127Y-0041581D02*
X0288727D01*
X0274327D02*
X0275027D01*
X0288127Y-0041681D02*
X0288727D01*
X0274227D02*
X0275127D01*
X0288127Y-0041781D02*
X0288727D01*
X0274227D02*
X0275127D01*
X0288127Y-0041881D02*
X0288727D01*
X0274227D02*
X0275127D01*
X0288127Y-0041981D02*
X0288727D01*
X0277127D02*
X0277827D01*
X0274227D02*
X0275127D01*
X0288127Y-0042081D02*
X0288727D01*
X0277127D02*
X0277827D01*
X0274227D02*
X0275027D01*
X0288127Y-0042181D02*
X0288727D01*
X0277127D02*
X0277827D01*
X0274327D02*
X0275027D01*
X0288127Y-0042281D02*
X0288727D01*
X0277127D02*
X0277827D01*
X0274527D02*
X0274827D01*
X0288127Y-0042381D02*
X0288727D01*
X0277127D02*
X0277827D01*
X0288127Y-0042481D02*
X0288727D01*
X0277127D02*
X0277827D01*
X0288127Y-0042581D02*
X0288727D01*
X0277127D02*
X0277827D01*
X0288127Y-0042681D02*
X0288727D01*
X0277127D02*
X0277827D01*
X0288127Y-0042781D02*
X0288727D01*
X0277127D02*
X0277827D01*
X0288127Y-0042881D02*
X0288727D01*
X0277127D02*
X0277827D01*
X0288127Y-0042981D02*
X0288727D01*
X0277127D02*
X0277827D01*
X0288127Y-0043081D02*
X0288727D01*
X0277127D02*
X0277827D01*
X0295027Y-0043181D02*
X0295427D01*
X0291827D02*
X0292327D01*
X0288127D02*
X0288727D01*
X0286327D02*
X0286827D01*
X0281227D02*
X0281727D01*
X0277127D02*
X0277827D01*
X0270827D02*
X0271227D01*
X0266027D02*
X0266527D01*
X0296527Y-0043281D02*
X0297227D01*
X0294727D02*
X0295827D01*
X0291327D02*
X0292827D01*
X0288127D02*
X0288727D01*
X0285927D02*
X0287327D01*
X0280727D02*
X0282227D01*
X0276127D02*
X0278727D01*
X0274327D02*
X0275027D01*
X0270227D02*
X0271827D01*
X0265527D02*
X0267127D01*
X0296527Y-0043381D02*
X0297227D01*
X0294727D02*
X0296027D01*
X0291127D02*
X0293127D01*
X0288127D02*
X0288727D01*
X0285627D02*
X0287527D01*
X0280427D02*
X0282527D01*
X0276127D02*
X0278727D01*
X0274327D02*
X0275027D01*
X0270027D02*
X0272027D01*
X0265227D02*
X0267327D01*
X0296527Y-0043481D02*
X0297227D01*
X0294727D02*
X0296227D01*
X0290927D02*
X0293327D01*
X0288127D02*
X0288727D01*
X0285527D02*
X0287727D01*
X0280327D02*
X0282627D01*
X0276127D02*
X0278727D01*
X0274327D02*
X0275027D01*
X0269827D02*
X0272227D01*
X0265027D02*
X0267527D01*
X0296527Y-0043581D02*
X0297227D01*
X0294727D02*
X0296327D01*
X0290727D02*
X0293427D01*
X0288127D02*
X0288727D01*
X0285327D02*
X0287827D01*
X0280127D02*
X0282827D01*
X0276127D02*
X0278727D01*
X0274327D02*
X0275027D01*
X0269727D02*
X0272327D01*
X0264927D02*
X0267627D01*
X0296527Y-0043681D02*
X0297227D01*
X0294727D02*
X0296427D01*
X0290627D02*
X0293527D01*
X0288127D02*
X0288727D01*
X0285227D02*
X0287927D01*
X0280027D02*
X0282927D01*
X0276127D02*
X0278727D01*
X0274327D02*
X0275027D01*
X0269627D02*
X0272427D01*
X0264827D02*
X0267727D01*
X0296527Y-0043781D02*
X0297227D01*
X0294727D02*
X0296427D01*
X0292427D02*
X0293627D01*
X0290527D02*
X0291827D01*
X0288127D02*
X0288727D01*
X0286927D02*
X0288027D01*
X0285227D02*
X0286427D01*
X0281727D02*
X0283027D01*
X0279927D02*
X0281227D01*
X0276127D02*
X0278727D01*
X0274327D02*
X0275027D01*
X0271327D02*
X0272527D01*
X0269527D02*
X0270727D01*
X0266627D02*
X0267827D01*
X0264727D02*
X0266027D01*
X0295627Y-0043881D02*
X0297227D01*
X0292727D02*
X0293727D01*
X0290427D02*
X0291527D01*
X0287327D02*
X0288727D01*
X0285127D02*
X0286127D01*
X0282127D02*
X0283127D01*
X0279827D02*
X0280927D01*
X0277127D02*
X0277827D01*
X0274327D02*
X0275027D01*
X0271627D02*
X0272627D01*
X0269427D02*
X0270427D01*
X0266927D02*
X0267927D01*
X0264627D02*
X0265727D01*
X0295827Y-0043981D02*
X0297227D01*
X0292927D02*
X0293827D01*
X0290327D02*
X0291327D01*
X0287527D02*
X0288727D01*
X0285027D02*
X0285927D01*
X0282227D02*
X0283227D01*
X0279727D02*
X0280727D01*
X0277127D02*
X0277827D01*
X0274327D02*
X0275027D01*
X0271827D02*
X0272727D01*
X0269327D02*
X0270227D01*
X0267127D02*
X0268027D01*
X0264527D02*
X0265527D01*
X0296027Y-0044081D02*
X0297227D01*
X0293027D02*
X0293927D01*
X0290227D02*
X0291127D01*
X0287627D02*
X0288727D01*
X0284927D02*
X0285827D01*
X0282427D02*
X0283327D01*
X0279627D02*
X0280527D01*
X0277127D02*
X0277827D01*
X0274327D02*
X0275027D01*
X0271927D02*
X0272827D01*
X0269327D02*
X0270127D01*
X0267227D02*
X0268027D01*
X0264527D02*
X0265327D01*
X0296127Y-0044181D02*
X0297227D01*
X0293127D02*
X0294027D01*
X0290227D02*
X0291027D01*
X0287727D02*
X0288727D01*
X0284927D02*
X0285727D01*
X0282527D02*
X0283327D01*
X0279627D02*
X0280427D01*
X0277127D02*
X0277827D01*
X0274327D02*
X0275027D01*
X0272027D02*
X0272827D01*
X0269227D02*
X0270027D01*
X0267327D02*
X0268027D01*
X0264427D02*
X0265227D01*
X0296227Y-0044281D02*
X0297227D01*
X0293227D02*
X0294027D01*
X0290127D02*
X0290927D01*
X0287827D02*
X0288727D01*
X0284827D02*
X0285627D01*
X0282627D02*
X0283427D01*
X0279527D02*
X0280327D01*
X0277127D02*
X0277827D01*
X0274327D02*
X0275027D01*
X0272127D02*
X0272927D01*
X0269227D02*
X0269927D01*
X0267427D02*
X0268127D01*
X0264427D02*
X0265227D01*
X0296327Y-0044381D02*
X0297227D01*
X0293327D02*
X0294127D01*
X0290127D02*
X0290927D01*
X0287927D02*
X0288727D01*
X0284827D02*
X0285627D01*
X0282727D02*
X0283527D01*
X0279427D02*
X0280227D01*
X0277127D02*
X0277827D01*
X0274327D02*
X0275027D01*
X0272227D02*
X0272927D01*
X0269127D02*
X0269927D01*
X0267427D02*
X0268127D01*
X0264427D02*
X0265127D01*
X0296327Y-0044481D02*
X0297227D01*
X0293327D02*
X0294127D01*
X0290027D02*
X0290827D01*
X0287927D02*
X0288727D01*
X0284827D02*
X0285527D01*
X0282727D02*
X0283527D01*
X0279427D02*
X0280227D01*
X0277127D02*
X0277827D01*
X0274327D02*
X0275027D01*
X0272227D02*
X0273027D01*
X0269127D02*
X0269827D01*
X0267427D02*
X0268127D01*
X0264427D02*
X0265127D01*
X0296427Y-0044581D02*
X0297227D01*
X0293427D02*
X0294227D01*
X0290027D02*
X0290727D01*
X0288027D02*
X0288727D01*
X0284727D02*
X0285527D01*
X0282827D02*
X0283527D01*
X0279427D02*
X0280127D01*
X0277127D02*
X0277827D01*
X0274327D02*
X0275027D01*
X0272327D02*
X0273027D01*
X0269127D02*
X0269827D01*
X0267427D02*
X0268127D01*
X0264427D02*
X0265027D01*
X0296427Y-0044681D02*
X0297227D01*
X0293527D02*
X0294227D01*
X0289927D02*
X0290727D01*
X0288027D02*
X0288727D01*
X0284727D02*
X0285427D01*
X0282827D02*
X0283627D01*
X0279327D02*
X0280127D01*
X0277127D02*
X0277827D01*
X0274327D02*
X0275027D01*
X0272327D02*
X0273127D01*
X0269027D02*
X0269727D01*
X0267427D02*
X0268127D01*
X0264427D02*
X0265027D01*
X0296527Y-0044781D02*
X0297227D01*
X0293527D02*
X0294227D01*
X0289927D02*
X0290627D01*
X0288127D02*
X0288727D01*
X0284727D02*
X0285427D01*
X0282927D02*
X0283627D01*
X0279327D02*
X0280027D01*
X0277127D02*
X0277827D01*
X0274327D02*
X0275027D01*
X0272427D02*
X0273127D01*
X0269027D02*
X0269727D01*
X0267427D02*
X0268127D01*
X0296527Y-0044881D02*
X0297227D01*
X0293627D02*
X0294327D01*
X0289927D02*
X0290627D01*
X0288127D02*
X0288727D01*
X0284727D02*
X0285327D01*
X0282927D02*
X0283627D01*
X0279327D02*
X0280027D01*
X0277127D02*
X0277827D01*
X0274327D02*
X0275027D01*
X0272427D02*
X0273127D01*
X0269027D02*
X0269727D01*
X0267427D02*
X0268127D01*
X0296527Y-0044981D02*
X0297227D01*
X0293627D02*
X0294327D01*
X0289927D02*
X0290627D01*
X0288127D02*
X0288727D01*
X0284627D02*
X0285327D01*
X0283027D02*
X0283727D01*
X0279227D02*
X0279927D01*
X0277127D02*
X0277827D01*
X0274327D02*
X0275027D01*
X0272427D02*
X0273127D01*
X0269027D02*
X0269727D01*
X0267327D02*
X0268127D01*
X0296527Y-0045081D02*
X0297227D01*
X0293627D02*
X0294327D01*
X0289827D02*
X0290527D01*
X0288127D02*
X0288727D01*
X0284627D02*
X0285327D01*
X0283027D02*
X0283727D01*
X0279227D02*
X0279927D01*
X0277127D02*
X0277827D01*
X0274327D02*
X0275027D01*
X0272527D02*
X0273227D01*
X0267227D02*
X0268027D01*
X0296527Y-0045181D02*
X0297227D01*
X0293627D02*
X0294327D01*
X0289827D02*
X0290527D01*
X0288127D02*
X0288727D01*
X0284627D02*
X0285327D01*
X0283027D02*
X0283727D01*
X0279227D02*
X0279927D01*
X0277127D02*
X0277827D01*
X0274327D02*
X0275027D01*
X0272527D02*
X0273227D01*
X0267127D02*
X0268027D01*
X0296527Y-0045281D02*
X0297227D01*
X0293727D02*
X0294327D01*
X0289827D02*
X0290527D01*
X0288127D02*
X0288727D01*
X0284627D02*
X0285327D01*
X0283027D02*
X0283727D01*
X0279227D02*
X0279927D01*
X0277127D02*
X0277827D01*
X0274327D02*
X0275027D01*
X0272527D02*
X0273227D01*
X0266827D02*
X0267927D01*
X0296527Y-0045381D02*
X0297227D01*
X0293727D02*
X0294427D01*
X0289827D02*
X0290527D01*
X0288127D02*
X0288727D01*
X0284627D02*
X0285327D01*
X0283127D02*
X0283727D01*
X0279227D02*
X0279827D01*
X0277127D02*
X0277827D01*
X0274327D02*
X0275027D01*
X0272527D02*
X0273227D01*
X0266627D02*
X0267827D01*
X0296527Y-0045481D02*
X0297227D01*
X0293727D02*
X0294427D01*
X0289827D02*
X0290427D01*
X0288127D02*
X0288727D01*
X0284627D02*
X0285227D01*
X0283127D02*
X0283727D01*
X0279227D02*
X0279827D01*
X0277127D02*
X0277827D01*
X0274327D02*
X0275027D01*
X0272527D02*
X0273227D01*
X0266227D02*
X0267727D01*
X0296527Y-0045581D02*
X0297227D01*
X0293727D02*
X0294427D01*
X0289827D02*
X0290427D01*
X0288127D02*
X0288727D01*
X0284627D02*
X0285227D01*
X0283127D02*
X0283727D01*
X0279227D02*
X0279827D01*
X0277127D02*
X0277827D01*
X0274327D02*
X0275027D01*
X0272527D02*
X0273227D01*
X0265827D02*
X0267627D01*
X0296527Y-0045681D02*
X0297227D01*
X0293727D02*
X0294427D01*
X0289827D02*
X0290427D01*
X0288127D02*
X0288727D01*
X0284627D02*
X0285227D01*
X0283127D02*
X0283827D01*
X0279227D02*
X0279827D01*
X0277127D02*
X0277827D01*
X0274327D02*
X0275027D01*
X0272527D02*
X0273227D01*
X0265527D02*
X0267527D01*
X0296527Y-0045781D02*
X0297227D01*
X0293727D02*
X0294427D01*
X0289827D02*
X0290427D01*
X0288127D02*
X0288727D01*
X0284627D02*
X0285227D01*
X0283127D02*
X0283827D01*
X0279227D02*
X0279827D01*
X0277127D02*
X0277827D01*
X0274327D02*
X0275027D01*
X0272527D02*
X0273227D01*
X0265227D02*
X0267327D01*
X0296527Y-0045881D02*
X0297227D01*
X0293727D02*
X0294427D01*
X0289827D02*
X0290427D01*
X0288127D02*
X0288727D01*
X0284627D02*
X0285227D01*
X0283127D02*
X0283827D01*
X0279227D02*
X0279827D01*
X0277127D02*
X0277827D01*
X0274327D02*
X0275027D01*
X0272527D02*
X0273227D01*
X0265027D02*
X0267027D01*
X0296527Y-0045981D02*
X0297227D01*
X0293727D02*
X0294427D01*
X0289827D02*
X0290427D01*
X0288127D02*
X0288727D01*
X0284627D02*
X0285227D01*
X0283127D02*
X0283827D01*
X0279227D02*
X0279827D01*
X0277127D02*
X0277827D01*
X0274327D02*
X0275027D01*
X0272527D02*
X0273227D01*
X0264927D02*
X0266727D01*
X0296527Y-0046081D02*
X0297227D01*
X0293727D02*
X0294427D01*
X0289827D02*
X0290427D01*
X0288127D02*
X0288727D01*
X0284627D02*
X0285227D01*
X0283127D02*
X0283727D01*
X0279227D02*
X0279827D01*
X0277127D02*
X0277827D01*
X0274327D02*
X0275027D01*
X0272527D02*
X0273227D01*
X0264727D02*
X0266227D01*
X0296527Y-0046181D02*
X0297227D01*
X0293727D02*
X0294427D01*
X0289827D02*
X0290427D01*
X0288127D02*
X0288727D01*
X0284627D02*
X0285227D01*
X0283127D02*
X0283727D01*
X0279227D02*
X0279827D01*
X0277127D02*
X0277827D01*
X0274327D02*
X0275027D01*
X0272527D02*
X0273227D01*
X0264627D02*
X0265927D01*
X0296527Y-0046281D02*
X0297227D01*
X0293727D02*
X0294427D01*
X0289827D02*
X0290527D01*
X0288127D02*
X0288727D01*
X0284627D02*
X0285327D01*
X0283127D02*
X0283727D01*
X0279227D02*
X0279827D01*
X0277127D02*
X0277827D01*
X0274327D02*
X0275027D01*
X0272527D02*
X0273227D01*
X0264527D02*
X0265627D01*
X0296527Y-0046381D02*
X0297227D01*
X0293727D02*
X0294327D01*
X0289827D02*
X0290527D01*
X0288127D02*
X0288727D01*
X0284627D02*
X0285327D01*
X0283127D02*
X0283727D01*
X0279227D02*
X0279927D01*
X0277127D02*
X0277827D01*
X0274327D02*
X0275027D01*
X0272527D02*
X0273227D01*
X0264527D02*
X0265427D01*
X0296527Y-0046481D02*
X0297227D01*
X0293627D02*
X0294327D01*
X0289827D02*
X0290527D01*
X0288127D02*
X0288727D01*
X0284627D02*
X0285327D01*
X0283027D02*
X0283727D01*
X0279227D02*
X0279927D01*
X0277127D02*
X0277827D01*
X0274327D02*
X0275027D01*
X0272527D02*
X0273227D01*
X0264427D02*
X0265327D01*
X0296527Y-0046581D02*
X0297227D01*
X0293627D02*
X0294327D01*
X0289827D02*
X0290527D01*
X0288127D02*
X0288727D01*
X0284627D02*
X0285327D01*
X0283027D02*
X0283727D01*
X0279227D02*
X0279927D01*
X0277127D02*
X0277827D01*
X0274327D02*
X0275027D01*
X0272527D02*
X0273227D01*
X0264427D02*
X0265227D01*
X0296527Y-0046681D02*
X0297227D01*
X0293627D02*
X0294327D01*
X0289927D02*
X0290527D01*
X0288127D02*
X0288727D01*
X0284627D02*
X0285327D01*
X0283027D02*
X0283727D01*
X0279227D02*
X0279927D01*
X0277127D02*
X0277827D01*
X0274327D02*
X0275027D01*
X0272527D02*
X0273127D01*
X0264427D02*
X0265127D01*
X0296527Y-0046781D02*
X0297227D01*
X0293627D02*
X0294327D01*
X0289927D02*
X0290627D01*
X0288127D02*
X0288727D01*
X0284727D02*
X0285427D01*
X0282927D02*
X0283727D01*
X0279327D02*
X0280027D01*
X0277127D02*
X0277827D01*
X0274327D02*
X0275027D01*
X0272427D02*
X0273127D01*
X0269027D02*
X0269727D01*
X0264327D02*
X0265127D01*
X0296527Y-0046881D02*
X0297227D01*
X0293527D02*
X0294227D01*
X0289927D02*
X0290627D01*
X0288127D02*
X0288727D01*
X0284727D02*
X0285427D01*
X0282927D02*
X0283627D01*
X0279327D02*
X0280027D01*
X0277127D02*
X0277827D01*
X0274327D02*
X0275027D01*
X0272427D02*
X0273127D01*
X0269027D02*
X0269727D01*
X0264327D02*
X0265027D01*
X0296527Y-0046981D02*
X0297227D01*
X0293527D02*
X0294227D01*
X0289927D02*
X0290727D01*
X0288127D02*
X0288727D01*
X0284727D02*
X0285427D01*
X0282927D02*
X0283627D01*
X0279327D02*
X0280027D01*
X0277127D02*
X0277827D01*
X0274327D02*
X0275027D01*
X0272427D02*
X0273127D01*
X0269027D02*
X0269727D01*
X0267627D02*
X0268327D01*
X0264327D02*
X0265027D01*
X0296527Y-0047081D02*
X0297227D01*
X0293427D02*
X0294227D01*
X0290027D02*
X0290727D01*
X0288027D02*
X0288727D01*
X0284727D02*
X0285527D01*
X0282827D02*
X0283627D01*
X0279427D02*
X0280127D01*
X0277127D02*
X0277827D01*
X0274327D02*
X0275027D01*
X0272327D02*
X0273027D01*
X0269027D02*
X0269727D01*
X0267627D02*
X0268327D01*
X0264327D02*
X0265027D01*
X0296527Y-0047181D02*
X0297227D01*
X0293427D02*
X0294127D01*
X0290027D02*
X0290827D01*
X0288027D02*
X0288727D01*
X0284827D02*
X0285527D01*
X0282727D02*
X0283527D01*
X0279427D02*
X0280227D01*
X0277127D02*
X0277827D01*
X0274327D02*
X0275027D01*
X0272327D02*
X0273027D01*
X0269127D02*
X0269827D01*
X0267527D02*
X0268227D01*
X0264327D02*
X0265027D01*
X0296527Y-0047281D02*
X0297227D01*
X0293327D02*
X0294127D01*
X0290127D02*
X0290827D01*
X0287927D02*
X0288727D01*
X0284827D02*
X0285627D01*
X0282727D02*
X0283527D01*
X0279427D02*
X0280227D01*
X0277127D02*
X0277827D01*
X0274327D02*
X0275027D01*
X0272227D02*
X0272927D01*
X0269127D02*
X0269827D01*
X0267527D02*
X0268227D01*
X0264327D02*
X0265027D01*
X0296527Y-0047381D02*
X0297227D01*
X0293227D02*
X0294027D01*
X0290127D02*
X0290927D01*
X0287827D02*
X0288727D01*
X0284827D02*
X0285627D01*
X0282627D02*
X0283427D01*
X0279527D02*
X0280327D01*
X0277127D02*
X0277827D01*
X0274327D02*
X0275027D01*
X0272127D02*
X0272927D01*
X0269127D02*
X0269927D01*
X0267427D02*
X0268227D01*
X0264427D02*
X0265127D01*
X0296527Y-0047481D02*
X0297227D01*
X0293127D02*
X0294027D01*
X0290227D02*
X0291027D01*
X0287727D02*
X0288727D01*
X0284927D02*
X0285727D01*
X0282527D02*
X0283427D01*
X0279527D02*
X0280427D01*
X0277127D02*
X0277827D01*
X0274327D02*
X0275027D01*
X0272027D02*
X0272827D01*
X0269227D02*
X0270027D01*
X0267427D02*
X0268227D01*
X0264427D02*
X0265127D01*
X0296527Y-0047581D02*
X0297227D01*
X0293027D02*
X0293927D01*
X0290227D02*
X0291127D01*
X0287627D02*
X0288727D01*
X0284927D02*
X0285827D01*
X0282427D02*
X0283327D01*
X0279627D02*
X0280527D01*
X0277127D02*
X0277827D01*
X0274327D02*
X0275027D01*
X0271927D02*
X0272827D01*
X0269227D02*
X0270127D01*
X0267327D02*
X0268127D01*
X0264427D02*
X0265227D01*
X0296527Y-0047681D02*
X0297227D01*
X0292927D02*
X0293827D01*
X0290327D02*
X0291327D01*
X0287527D02*
X0288727D01*
X0285027D02*
X0285927D01*
X0282327D02*
X0283227D01*
X0279727D02*
X0280627D01*
X0277027D02*
X0277827D01*
X0274327D02*
X0275027D01*
X0271827D02*
X0272727D01*
X0269327D02*
X0270227D01*
X0267127D02*
X0268127D01*
X0264527D02*
X0265427D01*
X0296527Y-0047781D02*
X0297227D01*
X0292727D02*
X0293827D01*
X0290427D02*
X0291427D01*
X0287327D02*
X0288727D01*
X0285127D02*
X0286127D01*
X0282127D02*
X0283127D01*
X0279827D02*
X0280827D01*
X0276927D02*
X0277727D01*
X0274327D02*
X0275027D01*
X0271627D02*
X0272627D01*
X0269427D02*
X0270427D01*
X0267027D02*
X0268027D01*
X0264527D02*
X0265527D01*
X0296527Y-0047881D02*
X0297227D01*
X0292427D02*
X0293727D01*
X0290527D02*
X0291727D01*
X0287027D02*
X0288727D01*
X0285227D02*
X0286427D01*
X0281827D02*
X0283027D01*
X0279927D02*
X0281127D01*
X0276727D02*
X0277727D01*
X0276027D02*
X0276327D01*
X0274327D02*
X0275027D01*
X0271427D02*
X0272627D01*
X0269527D02*
X0270627D01*
X0266627D02*
X0267927D01*
X0264627D02*
X0265827D01*
X0296527Y-0047981D02*
X0297227D01*
X0290627D02*
X0293627D01*
X0288127D02*
X0288727D01*
X0285227D02*
X0288027D01*
X0280027D02*
X0282927D01*
X0276027D02*
X0277727D01*
X0274327D02*
X0275027D01*
X0269627D02*
X0272527D01*
X0264727D02*
X0267827D01*
X0296527Y-0048081D02*
X0297227D01*
X0290727D02*
X0293427D01*
X0288127D02*
X0288727D01*
X0285327D02*
X0287927D01*
X0280127D02*
X0282827D01*
X0276027D02*
X0277627D01*
X0274327D02*
X0275027D01*
X0269727D02*
X0272327D01*
X0264827D02*
X0267727D01*
X0296527Y-0048181D02*
X0297227D01*
X0290927D02*
X0293327D01*
X0288127D02*
X0288727D01*
X0285527D02*
X0287727D01*
X0280227D02*
X0282727D01*
X0276027D02*
X0277527D01*
X0274327D02*
X0275027D01*
X0269827D02*
X0272227D01*
X0264927D02*
X0267627D01*
X0296527Y-0048281D02*
X0297227D01*
X0291027D02*
X0293127D01*
X0288127D02*
X0288727D01*
X0285627D02*
X0287627D01*
X0280427D02*
X0282527D01*
X0276027D02*
X0277427D01*
X0274327D02*
X0275027D01*
X0270027D02*
X0272027D01*
X0265127D02*
X0267427D01*
X0296527Y-0048381D02*
X0297227D01*
X0291327D02*
X0292927D01*
X0288127D02*
X0288727D01*
X0285827D02*
X0287327D01*
X0280727D02*
X0282227D01*
X0276027D02*
X0277327D01*
X0274327D02*
X0275027D01*
X0270327D02*
X0271827D01*
X0265427D02*
X0267127D01*
X0291727Y-0048481D02*
X0292427D01*
X0286327D02*
X0286927D01*
X0281127D02*
X0281827D01*
X0276327D02*
X0276927D01*
X0270727D02*
X0271327D01*
X0265927D02*
X0266627D01*
X0296527Y-0050081D02*
X0297227D01*
X0279827D02*
X0280427D01*
X0296527Y-0050181D02*
X0297227D01*
X0279827D02*
X0280427D01*
X0296527Y-0050281D02*
X0297227D01*
X0279827D02*
X0280427D01*
X0296527Y-0050381D02*
X0297227D01*
X0279827D02*
X0280427D01*
X0296527Y-0050481D02*
X0297227D01*
X0279827D02*
X0280427D01*
X0296527Y-0050581D02*
X0297227D01*
X0279827D02*
X0280427D01*
X0296527Y-0050681D02*
X0297227D01*
X0279827D02*
X0280427D01*
X0296527Y-0050781D02*
X0297227D01*
X0279827D02*
X0280427D01*
X0296527Y-0050881D02*
X0297227D01*
X0279827D02*
X0280427D01*
X0296527Y-0050981D02*
X0297227D01*
X0279827D02*
X0280427D01*
X0296527Y-0051081D02*
X0297227D01*
X0279827D02*
X0280427D01*
X0296527Y-0051181D02*
X0297227D01*
X0279827D02*
X0280427D01*
X0296527Y-0051281D02*
X0297227D01*
X0279827D02*
X0280427D01*
X0296527Y-0051381D02*
X0297227D01*
X0279827D02*
X0280427D01*
X0296527Y-0051481D02*
X0297227D01*
X0279827D02*
X0280427D01*
X0296527Y-0051581D02*
X0297227D01*
X0279827D02*
X0280427D01*
X0296527Y-0051681D02*
X0297227D01*
X0279827D02*
X0280427D01*
X0296527Y-0051781D02*
X0297227D01*
X0279827D02*
X0280427D01*
X0296527Y-0051881D02*
X0297227D01*
X0279827D02*
X0280427D01*
X0296527Y-0051981D02*
X0297227D01*
X0279827D02*
X0280427D01*
X0296527Y-0052081D02*
X0297227D01*
X0294427D02*
X0295427D01*
X0289627D02*
X0290627D01*
X0284427D02*
X0285327D01*
X0281527D02*
X0282427D01*
X0279827D02*
X0280427D01*
X0268927D02*
X0269927D01*
X0263727D02*
X0264627D01*
X0260627D02*
X0261627D01*
X0296527Y-0052181D02*
X0297227D01*
X0294127D02*
X0295727D01*
X0289227D02*
X0291027D01*
X0286227D02*
X0286827D01*
X0284427D02*
X0285627D01*
X0281127D02*
X0282727D01*
X0279827D02*
X0280427D01*
X0278227D02*
X0278927D01*
X0275227D02*
X0275827D01*
X0272227D02*
X0272927D01*
X0268527D02*
X0270327D01*
X0265527D02*
X0266127D01*
X0263727D02*
X0264927D01*
X0260327D02*
X0261927D01*
X0296527Y-0052281D02*
X0297227D01*
X0293927D02*
X0295927D01*
X0289027D02*
X0291227D01*
X0286227D02*
X0286827D01*
X0284427D02*
X0285727D01*
X0280927D02*
X0282927D01*
X0279827D02*
X0280427D01*
X0278127D02*
X0278827D01*
X0275227D02*
X0275927D01*
X0272227D02*
X0272927D01*
X0268327D02*
X0270527D01*
X0265527D02*
X0266127D01*
X0263727D02*
X0265027D01*
X0260127D02*
X0262127D01*
X0296527Y-0052381D02*
X0297227D01*
X0293827D02*
X0296127D01*
X0288827D02*
X0291427D01*
X0286227D02*
X0286827D01*
X0284427D02*
X0285927D01*
X0280827D02*
X0283127D01*
X0279827D02*
X0280427D01*
X0278127D02*
X0278827D01*
X0275227D02*
X0275927D01*
X0272227D02*
X0272927D01*
X0268127D02*
X0270727D01*
X0265527D02*
X0266127D01*
X0263727D02*
X0265227D01*
X0259927D02*
X0262327D01*
X0296527Y-0052481D02*
X0297227D01*
X0293727D02*
X0296227D01*
X0288727D02*
X0291527D01*
X0286227D02*
X0286827D01*
X0284427D02*
X0286027D01*
X0280727D02*
X0283227D01*
X0279827D02*
X0280427D01*
X0278127D02*
X0278827D01*
X0275127D02*
X0275927D01*
X0272327D02*
X0273027D01*
X0268027D02*
X0270827D01*
X0265527D02*
X0266127D01*
X0263727D02*
X0265327D01*
X0259827D02*
X0262427D01*
X0296527Y-0052581D02*
X0297227D01*
X0293627D02*
X0296327D01*
X0288627D02*
X0291627D01*
X0286227D02*
X0286827D01*
X0284427D02*
X0286127D01*
X0280627D02*
X0283327D01*
X0279827D02*
X0280427D01*
X0278127D02*
X0278827D01*
X0275127D02*
X0276027D01*
X0272327D02*
X0273027D01*
X0267927D02*
X0270927D01*
X0265527D02*
X0266127D01*
X0263727D02*
X0265427D01*
X0259727D02*
X0262527D01*
X0296527Y-0052681D02*
X0297227D01*
X0295427D02*
X0296427D01*
X0293527D02*
X0294727D01*
X0290627D02*
X0291727D01*
X0288527D02*
X0289627D01*
X0286227D02*
X0286827D01*
X0285027D02*
X0286127D01*
X0284427D02*
X0284727D01*
X0282227D02*
X0283427D01*
X0280527D02*
X0281427D01*
X0279827D02*
X0280427D01*
X0278027D02*
X0278727D01*
X0275127D02*
X0276027D01*
X0272327D02*
X0273027D01*
X0269927D02*
X0271027D01*
X0267827D02*
X0268927D01*
X0265527D02*
X0266127D01*
X0264327D02*
X0265427D01*
X0263727D02*
X0264027D01*
X0261527D02*
X0262627D01*
X0259627D02*
X0260727D01*
X0295727Y-0052781D02*
X0297227D01*
X0293527D02*
X0294427D01*
X0290927D02*
X0291827D01*
X0288527D02*
X0289427D01*
X0285427D02*
X0286827D01*
X0282527D02*
X0283527D01*
X0279827D02*
X0281227D01*
X0278027D02*
X0278727D01*
X0275027D02*
X0276027D01*
X0272427D02*
X0273127D01*
X0270227D02*
X0271127D01*
X0267827D02*
X0268727D01*
X0264727D02*
X0266127D01*
X0261827D02*
X0262727D01*
X0259527D02*
X0260527D01*
X0295827Y-0052881D02*
X0297227D01*
X0293427D02*
X0294327D01*
X0291027D02*
X0291927D01*
X0288427D02*
X0289327D01*
X0285627D02*
X0286827D01*
X0282627D02*
X0283527D01*
X0279827D02*
X0281027D01*
X0278027D02*
X0278727D01*
X0275027D02*
X0276127D01*
X0272427D02*
X0273127D01*
X0270327D02*
X0271227D01*
X0267727D02*
X0268627D01*
X0264927D02*
X0266127D01*
X0261927D02*
X0262827D01*
X0259527D02*
X0260327D01*
X0296027Y-0052981D02*
X0297227D01*
X0293427D02*
X0294227D01*
X0291127D02*
X0292027D01*
X0288427D02*
X0289127D01*
X0285727D02*
X0286827D01*
X0282727D02*
X0283627D01*
X0279827D02*
X0280927D01*
X0278027D02*
X0278627D01*
X0275027D02*
X0276127D01*
X0272427D02*
X0273127D01*
X0270427D02*
X0271327D01*
X0267727D02*
X0268427D01*
X0265027D02*
X0266127D01*
X0262027D02*
X0262927D01*
X0259427D02*
X0260227D01*
X0296127Y-0053081D02*
X0297227D01*
X0293427D02*
X0294127D01*
X0291227D02*
X0292027D01*
X0288327D02*
X0289127D01*
X0285827D02*
X0286827D01*
X0282827D02*
X0283627D01*
X0279827D02*
X0280827D01*
X0277927D02*
X0278627D01*
X0274927D02*
X0276127D01*
X0272427D02*
X0273127D01*
X0270527D02*
X0271327D01*
X0267627D02*
X0268427D01*
X0265127D02*
X0266127D01*
X0262127D02*
X0262927D01*
X0259327D02*
X0260127D01*
X0296227Y-0053181D02*
X0297227D01*
X0293427D02*
X0294127D01*
X0291327D02*
X0292027D01*
X0288327D02*
X0289027D01*
X0285927D02*
X0286827D01*
X0282927D02*
X0283727D01*
X0279827D02*
X0280727D01*
X0277927D02*
X0278627D01*
X0274927D02*
X0276127D01*
X0272527D02*
X0273227D01*
X0270627D02*
X0271327D01*
X0267627D02*
X0268327D01*
X0265227D02*
X0266127D01*
X0262227D02*
X0263027D01*
X0259327D02*
X0260127D01*
X0296227Y-0053281D02*
X0297227D01*
X0293327D02*
X0294027D01*
X0291427D02*
X0292127D01*
X0288327D02*
X0289027D01*
X0286027D02*
X0286827D01*
X0283027D02*
X0283727D01*
X0279827D02*
X0280627D01*
X0277927D02*
X0278627D01*
X0275627D02*
X0276227D01*
X0274927D02*
X0275527D01*
X0272527D02*
X0273227D01*
X0270727D02*
X0271427D01*
X0267627D02*
X0268327D01*
X0265327D02*
X0266127D01*
X0262327D02*
X0263027D01*
X0259327D02*
X0260027D01*
X0296327Y-0053381D02*
X0297227D01*
X0293327D02*
X0294027D01*
X0291427D02*
X0292127D01*
X0288227D02*
X0288927D01*
X0286027D02*
X0286827D01*
X0283027D02*
X0283827D01*
X0279827D02*
X0280627D01*
X0277827D02*
X0278527D01*
X0275627D02*
X0276227D01*
X0274927D02*
X0275527D01*
X0272527D02*
X0273227D01*
X0270727D02*
X0271427D01*
X0267527D02*
X0268227D01*
X0265327D02*
X0266127D01*
X0262427D02*
X0263127D01*
X0259227D02*
X0259927D01*
X0296427Y-0053481D02*
X0297227D01*
X0293327D02*
X0294027D01*
X0291427D02*
X0292127D01*
X0288227D02*
X0288927D01*
X0286127D02*
X0286827D01*
X0283127D02*
X0283827D01*
X0279827D02*
X0280527D01*
X0277827D02*
X0278527D01*
X0275627D02*
X0276227D01*
X0274827D02*
X0275527D01*
X0272627D02*
X0273227D01*
X0270727D02*
X0271427D01*
X0267527D02*
X0268227D01*
X0265427D02*
X0266127D01*
X0262427D02*
X0263127D01*
X0259227D02*
X0259927D01*
X0296427Y-0053581D02*
X0297227D01*
X0293327D02*
X0294027D01*
X0291427D02*
X0292127D01*
X0288227D02*
X0288927D01*
X0286127D02*
X0286827D01*
X0283127D02*
X0283827D01*
X0279827D02*
X0280527D01*
X0277827D02*
X0278527D01*
X0275727D02*
X0276327D01*
X0274827D02*
X0275427D01*
X0272627D02*
X0273327D01*
X0270727D02*
X0271427D01*
X0267527D02*
X0268227D01*
X0265427D02*
X0266127D01*
X0262527D02*
X0263227D01*
X0259227D02*
X0259927D01*
X0296527Y-0053681D02*
X0297227D01*
X0293327D02*
X0293927D01*
X0288227D02*
X0288927D01*
X0286127D02*
X0286827D01*
X0283127D02*
X0283927D01*
X0279827D02*
X0280427D01*
X0277827D02*
X0278427D01*
X0275727D02*
X0276327D01*
X0274827D02*
X0275427D01*
X0272627D02*
X0273327D01*
X0267527D02*
X0268227D01*
X0265427D02*
X0266127D01*
X0262527D02*
X0263227D01*
X0259227D02*
X0259827D01*
X0296527Y-0053781D02*
X0297227D01*
X0293327D02*
X0293927D01*
X0288227D02*
X0288927D01*
X0286227D02*
X0286827D01*
X0283227D02*
X0283927D01*
X0279827D02*
X0280427D01*
X0277727D02*
X0278427D01*
X0275727D02*
X0276327D01*
X0274727D02*
X0275427D01*
X0272727D02*
X0273327D01*
X0267527D02*
X0268227D01*
X0265527D02*
X0266127D01*
X0262527D02*
X0263227D01*
X0259127D02*
X0259827D01*
X0296527Y-0053881D02*
X0297227D01*
X0293327D02*
X0293927D01*
X0288227D02*
X0288927D01*
X0286227D02*
X0286827D01*
X0283227D02*
X0283927D01*
X0279827D02*
X0280427D01*
X0277727D02*
X0278427D01*
X0275727D02*
X0276427D01*
X0274727D02*
X0275327D01*
X0272727D02*
X0273327D01*
X0267527D02*
X0268227D01*
X0265527D02*
X0266127D01*
X0262627D02*
X0263327D01*
X0259127D02*
X0259827D01*
X0296527Y-0053981D02*
X0297227D01*
X0293327D02*
X0293927D01*
X0288227D02*
X0288927D01*
X0286227D02*
X0286827D01*
X0283227D02*
X0283927D01*
X0279827D02*
X0280427D01*
X0277727D02*
X0278427D01*
X0275827D02*
X0276427D01*
X0274727D02*
X0275327D01*
X0272727D02*
X0273427D01*
X0267527D02*
X0268227D01*
X0265527D02*
X0266127D01*
X0262627D02*
X0263327D01*
X0259127D02*
X0259827D01*
X0296527Y-0054081D02*
X0297227D01*
X0293327D02*
X0293927D01*
X0288227D02*
X0288927D01*
X0286227D02*
X0286827D01*
X0283227D02*
X0283927D01*
X0279827D02*
X0280427D01*
X0277727D02*
X0278327D01*
X0275827D02*
X0276427D01*
X0274627D02*
X0275327D01*
X0272727D02*
X0273427D01*
X0267527D02*
X0268227D01*
X0265527D02*
X0266127D01*
X0262627D02*
X0263327D01*
X0259127D02*
X0259827D01*
X0296527Y-0054181D02*
X0297227D01*
X0293327D02*
X0293927D01*
X0288227D02*
X0288927D01*
X0286227D02*
X0286827D01*
X0283227D02*
X0283927D01*
X0279827D02*
X0280427D01*
X0277627D02*
X0278327D01*
X0275827D02*
X0276527D01*
X0274627D02*
X0275227D01*
X0272827D02*
X0273427D01*
X0267527D02*
X0268227D01*
X0265527D02*
X0266127D01*
X0262627D02*
X0263327D01*
X0259127D02*
X0259727D01*
X0296527Y-0054281D02*
X0297227D01*
X0293327D02*
X0293927D01*
X0288227D02*
X0290527D01*
X0286227D02*
X0286827D01*
X0283327D02*
X0283927D01*
X0279827D02*
X0280427D01*
X0277627D02*
X0278327D01*
X0275927D02*
X0276527D01*
X0274627D02*
X0275227D01*
X0272827D02*
X0273527D01*
X0267527D02*
X0269827D01*
X0265527D02*
X0266127D01*
X0259127D02*
X0263327D01*
X0296527Y-0054381D02*
X0297227D01*
X0293327D02*
X0293927D01*
X0288227D02*
X0291027D01*
X0286227D02*
X0286827D01*
X0283327D02*
X0283927D01*
X0279827D02*
X0280427D01*
X0277627D02*
X0278227D01*
X0275927D02*
X0276527D01*
X0274527D02*
X0275227D01*
X0272827D02*
X0273527D01*
X0267527D02*
X0270327D01*
X0265527D02*
X0266127D01*
X0259127D02*
X0263327D01*
X0296527Y-0054481D02*
X0297227D01*
X0293327D02*
X0293927D01*
X0288227D02*
X0291327D01*
X0286227D02*
X0286827D01*
X0283327D02*
X0283927D01*
X0279827D02*
X0280427D01*
X0277527D02*
X0278227D01*
X0275927D02*
X0276627D01*
X0274527D02*
X0275127D01*
X0272927D02*
X0273527D01*
X0267527D02*
X0270627D01*
X0265527D02*
X0266127D01*
X0259127D02*
X0263327D01*
X0296527Y-0054581D02*
X0297227D01*
X0293327D02*
X0293927D01*
X0288227D02*
X0291527D01*
X0286227D02*
X0286827D01*
X0283327D02*
X0283927D01*
X0279827D02*
X0280427D01*
X0277527D02*
X0278227D01*
X0276027D02*
X0276627D01*
X0274527D02*
X0275127D01*
X0272927D02*
X0273527D01*
X0267527D02*
X0270827D01*
X0265527D02*
X0266127D01*
X0259127D02*
X0263327D01*
X0296527Y-0054681D02*
X0297227D01*
X0293327D02*
X0293927D01*
X0288227D02*
X0291627D01*
X0286227D02*
X0286827D01*
X0283327D02*
X0283927D01*
X0279827D02*
X0280427D01*
X0277527D02*
X0278227D01*
X0276027D02*
X0276627D01*
X0274427D02*
X0275127D01*
X0272927D02*
X0273627D01*
X0267527D02*
X0270927D01*
X0265527D02*
X0266127D01*
X0259127D02*
X0263327D01*
X0296527Y-0054781D02*
X0297227D01*
X0293327D02*
X0293927D01*
X0290127D02*
X0291727D01*
X0288227D02*
X0288927D01*
X0286227D02*
X0286827D01*
X0283327D02*
X0283927D01*
X0279827D02*
X0280427D01*
X0277527D02*
X0278127D01*
X0276027D02*
X0276727D01*
X0274427D02*
X0275027D01*
X0272927D02*
X0273627D01*
X0269427D02*
X0271027D01*
X0267527D02*
X0268227D01*
X0265527D02*
X0266127D01*
X0259127D02*
X0263327D01*
X0296527Y-0054881D02*
X0297227D01*
X0293327D02*
X0293927D01*
X0290627D02*
X0291827D01*
X0288227D02*
X0288927D01*
X0286227D02*
X0286827D01*
X0283327D02*
X0283927D01*
X0279827D02*
X0280427D01*
X0277427D02*
X0278127D01*
X0276127D02*
X0276727D01*
X0274427D02*
X0275027D01*
X0273027D02*
X0273627D01*
X0269927D02*
X0271127D01*
X0267527D02*
X0268227D01*
X0265527D02*
X0266127D01*
X0262727D02*
X0263327D01*
X0296527Y-0054981D02*
X0297227D01*
X0293327D02*
X0293927D01*
X0290927D02*
X0291927D01*
X0288227D02*
X0288927D01*
X0286227D02*
X0286827D01*
X0283327D02*
X0283927D01*
X0279827D02*
X0280427D01*
X0277427D02*
X0278127D01*
X0276127D02*
X0276727D01*
X0274427D02*
X0275027D01*
X0273027D02*
X0273627D01*
X0270227D02*
X0271227D01*
X0267527D02*
X0268227D01*
X0265527D02*
X0266127D01*
X0262727D02*
X0263327D01*
X0296527Y-0055081D02*
X0297227D01*
X0293327D02*
X0293927D01*
X0291127D02*
X0292027D01*
X0288227D02*
X0288927D01*
X0286227D02*
X0286827D01*
X0283327D02*
X0283927D01*
X0279827D02*
X0280427D01*
X0277427D02*
X0278027D01*
X0276127D02*
X0276727D01*
X0274327D02*
X0275027D01*
X0273027D02*
X0273727D01*
X0270427D02*
X0271327D01*
X0267527D02*
X0268227D01*
X0265527D02*
X0266127D01*
X0262727D02*
X0263327D01*
X0296527Y-0055181D02*
X0297227D01*
X0293327D02*
X0293927D01*
X0291227D02*
X0292127D01*
X0288227D02*
X0288927D01*
X0286227D02*
X0286827D01*
X0283327D02*
X0283927D01*
X0279827D02*
X0280427D01*
X0277427D02*
X0278027D01*
X0276227D02*
X0276827D01*
X0274327D02*
X0274927D01*
X0273127D02*
X0273727D01*
X0270527D02*
X0271427D01*
X0267527D02*
X0268227D01*
X0265527D02*
X0266127D01*
X0262727D02*
X0263327D01*
X0296527Y-0055281D02*
X0297227D01*
X0293327D02*
X0293927D01*
X0291327D02*
X0292127D01*
X0288227D02*
X0288927D01*
X0286227D02*
X0286827D01*
X0283227D02*
X0283927D01*
X0279827D02*
X0280427D01*
X0277327D02*
X0278027D01*
X0276227D02*
X0276827D01*
X0274327D02*
X0274927D01*
X0273127D02*
X0273727D01*
X0270627D02*
X0271427D01*
X0267527D02*
X0268227D01*
X0265527D02*
X0266127D01*
X0262627D02*
X0263327D01*
X0296527Y-0055381D02*
X0297227D01*
X0293327D02*
X0293927D01*
X0291427D02*
X0292127D01*
X0288227D02*
X0288927D01*
X0286227D02*
X0286827D01*
X0283227D02*
X0283927D01*
X0279827D02*
X0280427D01*
X0277327D02*
X0277927D01*
X0276227D02*
X0276827D01*
X0274227D02*
X0274927D01*
X0273127D02*
X0273727D01*
X0270727D02*
X0271427D01*
X0267527D02*
X0268227D01*
X0265527D02*
X0266127D01*
X0262627D02*
X0263327D01*
X0296527Y-0055481D02*
X0297227D01*
X0293327D02*
X0293927D01*
X0291527D02*
X0292227D01*
X0288227D02*
X0288927D01*
X0286227D02*
X0286827D01*
X0283227D02*
X0283927D01*
X0279827D02*
X0280427D01*
X0277327D02*
X0277927D01*
X0276327D02*
X0276927D01*
X0274227D02*
X0274827D01*
X0273127D02*
X0273827D01*
X0270827D02*
X0271527D01*
X0267527D02*
X0268227D01*
X0265527D02*
X0266127D01*
X0262627D02*
X0263327D01*
X0296527Y-0055581D02*
X0297227D01*
X0293327D02*
X0293927D01*
X0291527D02*
X0292227D01*
X0288227D02*
X0288927D01*
X0286227D02*
X0286827D01*
X0283227D02*
X0283927D01*
X0279827D02*
X0280427D01*
X0277227D02*
X0277927D01*
X0276327D02*
X0276927D01*
X0274227D02*
X0274827D01*
X0273227D02*
X0273827D01*
X0270827D02*
X0271527D01*
X0267527D02*
X0268227D01*
X0265527D02*
X0266127D01*
X0262627D02*
X0263327D01*
X0296527Y-0055681D02*
X0297227D01*
X0293327D02*
X0293927D01*
X0291527D02*
X0292227D01*
X0288227D02*
X0288927D01*
X0286227D02*
X0286827D01*
X0283227D02*
X0283927D01*
X0279827D02*
X0280427D01*
X0277227D02*
X0277927D01*
X0276327D02*
X0276927D01*
X0274127D02*
X0274827D01*
X0273227D02*
X0273827D01*
X0270827D02*
X0271527D01*
X0267527D02*
X0268227D01*
X0265527D02*
X0266127D01*
X0262527D02*
X0263227D01*
X0296527Y-0055781D02*
X0297227D01*
X0293327D02*
X0293927D01*
X0291527D02*
X0292227D01*
X0288227D02*
X0288927D01*
X0286227D02*
X0286827D01*
X0283127D02*
X0283827D01*
X0279827D02*
X0280427D01*
X0277227D02*
X0277827D01*
X0276427D02*
X0277027D01*
X0274127D02*
X0274727D01*
X0273227D02*
X0273927D01*
X0270827D02*
X0271527D01*
X0267527D02*
X0268227D01*
X0265527D02*
X0266127D01*
X0262527D02*
X0263227D01*
X0296527Y-0055881D02*
X0297227D01*
X0293327D02*
X0293927D01*
X0291527D02*
X0292227D01*
X0288227D02*
X0288927D01*
X0286227D02*
X0286827D01*
X0283127D02*
X0283827D01*
X0279827D02*
X0280527D01*
X0277227D02*
X0277827D01*
X0276427D02*
X0277027D01*
X0274127D02*
X0274727D01*
X0273327D02*
X0273927D01*
X0270827D02*
X0271527D01*
X0267527D02*
X0268227D01*
X0265527D02*
X0266127D01*
X0262427D02*
X0263227D01*
X0296527Y-0055981D02*
X0297227D01*
X0293327D02*
X0293927D01*
X0291527D02*
X0292227D01*
X0288227D02*
X0289027D01*
X0286227D02*
X0286827D01*
X0283027D02*
X0283827D01*
X0279827D02*
X0280527D01*
X0277127D02*
X0277827D01*
X0276427D02*
X0277027D01*
X0274027D02*
X0274727D01*
X0273327D02*
X0273927D01*
X0270827D02*
X0271527D01*
X0267527D02*
X0268327D01*
X0265527D02*
X0266127D01*
X0262427D02*
X0263127D01*
X0296527Y-0056081D02*
X0297227D01*
X0293327D02*
X0293927D01*
X0291527D02*
X0292227D01*
X0288227D02*
X0289127D01*
X0286227D02*
X0286827D01*
X0283027D02*
X0283727D01*
X0279827D02*
X0280627D01*
X0276427D02*
X0277727D01*
X0274027D02*
X0274627D01*
X0273327D02*
X0273927D01*
X0270827D02*
X0271527D01*
X0267527D02*
X0268427D01*
X0265527D02*
X0266127D01*
X0262327D02*
X0263127D01*
X0296527Y-0056181D02*
X0297227D01*
X0293327D02*
X0293927D01*
X0291527D02*
X0292227D01*
X0288227D02*
X0289127D01*
X0286227D02*
X0286827D01*
X0282927D02*
X0283727D01*
X0279827D02*
X0280627D01*
X0276527D02*
X0277727D01*
X0273427D02*
X0274627D01*
X0270827D02*
X0271527D01*
X0267527D02*
X0268427D01*
X0265527D02*
X0266127D01*
X0262227D02*
X0263027D01*
X0259427D02*
X0259727D01*
X0296527Y-0056281D02*
X0297227D01*
X0293327D02*
X0293927D01*
X0291427D02*
X0292227D01*
X0288227D02*
X0289227D01*
X0286227D02*
X0286827D01*
X0282927D02*
X0283627D01*
X0279827D02*
X0280727D01*
X0276527D02*
X0277727D01*
X0273427D02*
X0274627D01*
X0270727D02*
X0271527D01*
X0267527D02*
X0268527D01*
X0265527D02*
X0266127D01*
X0262127D02*
X0263027D01*
X0259327D02*
X0259827D01*
X0296527Y-0056381D02*
X0297227D01*
X0293327D02*
X0293927D01*
X0291327D02*
X0292127D01*
X0288227D02*
X0289427D01*
X0286227D02*
X0286827D01*
X0282827D02*
X0283627D01*
X0279827D02*
X0280827D01*
X0276527D02*
X0277727D01*
X0273427D02*
X0274527D01*
X0270627D02*
X0271427D01*
X0267527D02*
X0268727D01*
X0265527D02*
X0266127D01*
X0262027D02*
X0262927D01*
X0259227D02*
X0259927D01*
X0296527Y-0056481D02*
X0297227D01*
X0293327D02*
X0293927D01*
X0291227D02*
X0292127D01*
X0288227D02*
X0289527D01*
X0286227D02*
X0286827D01*
X0282727D02*
X0283527D01*
X0279827D02*
X0280927D01*
X0276627D02*
X0277627D01*
X0273427D02*
X0274527D01*
X0270527D02*
X0271427D01*
X0267527D02*
X0268827D01*
X0265527D02*
X0266127D01*
X0261927D02*
X0262827D01*
X0259227D02*
X0260027D01*
X0296527Y-0056581D02*
X0297227D01*
X0293327D02*
X0293927D01*
X0291127D02*
X0292127D01*
X0288227D02*
X0289727D01*
X0286227D02*
X0286827D01*
X0282527D02*
X0283527D01*
X0279827D02*
X0281127D01*
X0276627D02*
X0277627D01*
X0273527D02*
X0274527D01*
X0270427D02*
X0271427D01*
X0267527D02*
X0269027D01*
X0265527D02*
X0266127D01*
X0261827D02*
X0262827D01*
X0259327D02*
X0260227D01*
X0296527Y-0056681D02*
X0297227D01*
X0293327D02*
X0293927D01*
X0290927D02*
X0292027D01*
X0288227D02*
X0289927D01*
X0286227D02*
X0286827D01*
X0282327D02*
X0283427D01*
X0279827D02*
X0281327D01*
X0276627D02*
X0277627D01*
X0273527D02*
X0274427D01*
X0270227D02*
X0271327D01*
X0267527D02*
X0269227D01*
X0265527D02*
X0266127D01*
X0261627D02*
X0262727D01*
X0259427D02*
X0260427D01*
X0296527Y-0056781D02*
X0297227D01*
X0293327D02*
X0293927D01*
X0289027D02*
X0291927D01*
X0288227D02*
X0288927D01*
X0286227D02*
X0286827D01*
X0280527D02*
X0283327D01*
X0279827D02*
X0280427D01*
X0276727D02*
X0277527D01*
X0273527D02*
X0274427D01*
X0268327D02*
X0271227D01*
X0267527D02*
X0268227D01*
X0265527D02*
X0266127D01*
X0261127D02*
X0262627D01*
X0259527D02*
X0260927D01*
X0296527Y-0056881D02*
X0297227D01*
X0293327D02*
X0293927D01*
X0289127D02*
X0291827D01*
X0288127D02*
X0288827D01*
X0286227D02*
X0286827D01*
X0280627D02*
X0283227D01*
X0279827D02*
X0280427D01*
X0276727D02*
X0277527D01*
X0273627D02*
X0274427D01*
X0268427D02*
X0271127D01*
X0267427D02*
X0268127D01*
X0265527D02*
X0266127D01*
X0259627D02*
X0262527D01*
X0296527Y-0056981D02*
X0297227D01*
X0293327D02*
X0293927D01*
X0289227D02*
X0291727D01*
X0288127D02*
X0288827D01*
X0286227D02*
X0286827D01*
X0280727D02*
X0283127D01*
X0279827D02*
X0280427D01*
X0276727D02*
X0277527D01*
X0273627D02*
X0274327D01*
X0268527D02*
X0271027D01*
X0267427D02*
X0268127D01*
X0265527D02*
X0266127D01*
X0259727D02*
X0262327D01*
X0296527Y-0057081D02*
X0297227D01*
X0293327D02*
X0293927D01*
X0289427D02*
X0291627D01*
X0288127D02*
X0288827D01*
X0286227D02*
X0286827D01*
X0280827D02*
X0283027D01*
X0279827D02*
X0280427D01*
X0276827D02*
X0277527D01*
X0273627D02*
X0274327D01*
X0268727D02*
X0270927D01*
X0267427D02*
X0268127D01*
X0265527D02*
X0266127D01*
X0259827D02*
X0262227D01*
X0296527Y-0057181D02*
X0297227D01*
X0293327D02*
X0293927D01*
X0289627D02*
X0291427D01*
X0288127D02*
X0288827D01*
X0286227D02*
X0286827D01*
X0281027D02*
X0282827D01*
X0279827D02*
X0280427D01*
X0276827D02*
X0277427D01*
X0273627D02*
X0274327D01*
X0268927D02*
X0270727D01*
X0267427D02*
X0268127D01*
X0265527D02*
X0266127D01*
X0260027D02*
X0262027D01*
X0289927Y-0057281D02*
X0291227D01*
X0281327D02*
X0282627D01*
X0269227D02*
X0270527D01*
X0260327D02*
X0261727D01*
X0286327Y-0058081D02*
X0286927D01*
X0286327Y-0058181D02*
X0286927D01*
X0286327Y-0058281D02*
X0286927D01*
X0286327Y-0058381D02*
X0286927D01*
X0276027D02*
X0276427D01*
X0286327Y-0058481D02*
X0286927D01*
X0275827D02*
X0276527D01*
X0286327Y-0058581D02*
X0286927D01*
X0275827D02*
X0276627D01*
X0286327Y-0058681D02*
X0286927D01*
X0275727D02*
X0276627D01*
X0286327Y-0058781D02*
X0286927D01*
X0275727D02*
X0276627D01*
X0286327Y-0058881D02*
X0286927D01*
X0275827D02*
X0276627D01*
X0286327Y-0058981D02*
X0286927D01*
X0278727D02*
X0279327D01*
X0275827D02*
X0276627D01*
X0286327Y-0059081D02*
X0286927D01*
X0278727D02*
X0279327D01*
X0275827D02*
X0276527D01*
X0286327Y-0059181D02*
X0286927D01*
X0278727D02*
X0279327D01*
X0276027D02*
X0276327D01*
X0286327Y-0059281D02*
X0286927D01*
X0278727D02*
X0279327D01*
X0286327Y-0059381D02*
X0286927D01*
X0278727D02*
X0279327D01*
X0286327Y-0059481D02*
X0286927D01*
X0278727D02*
X0279327D01*
X0286327Y-0059581D02*
X0286927D01*
X0278727D02*
X0279327D01*
X0286327Y-0059681D02*
X0286927D01*
X0278727D02*
X0279327D01*
X0286327Y-0059781D02*
X0286927D01*
X0278727D02*
X0279327D01*
X0286327Y-0059881D02*
X0286927D01*
X0278727D02*
X0279327D01*
X0286327Y-0059981D02*
X0286927D01*
X0278727D02*
X0279327D01*
X0286327Y-0060081D02*
X0286927D01*
X0278727D02*
X0279327D01*
X0294727Y-0060181D02*
X0296227D01*
X0289627D02*
X0291127D01*
X0286327D02*
X0286927D01*
X0284227D02*
X0284927D01*
X0281027D02*
X0281627D01*
X0277627D02*
X0280327D01*
X0275927D02*
X0276527D01*
X0271727D02*
X0273227D01*
X0268527D02*
X0269127D01*
X0266227D02*
X0267527D01*
X0261427D02*
X0262927D01*
X0294427Y-0060281D02*
X0296527D01*
X0289427D02*
X0291327D01*
X0286327D02*
X0286927D01*
X0284227D02*
X0284927D01*
X0281027D02*
X0281627D01*
X0277627D02*
X0280327D01*
X0275927D02*
X0276527D01*
X0271527D02*
X0273427D01*
X0268527D02*
X0269127D01*
X0265927D02*
X0267827D01*
X0261127D02*
X0263227D01*
X0294227Y-0060381D02*
X0296627D01*
X0289227D02*
X0291527D01*
X0286327D02*
X0286927D01*
X0284227D02*
X0284927D01*
X0281027D02*
X0281627D01*
X0277627D02*
X0280327D01*
X0275927D02*
X0276527D01*
X0271327D02*
X0273627D01*
X0268527D02*
X0269127D01*
X0265827D02*
X0267927D01*
X0260927D02*
X0263327D01*
X0294127Y-0060481D02*
X0296827D01*
X0289027D02*
X0291727D01*
X0286327D02*
X0286927D01*
X0284227D02*
X0284927D01*
X0281027D02*
X0281627D01*
X0277627D02*
X0280327D01*
X0275927D02*
X0276527D01*
X0271127D02*
X0273827D01*
X0268527D02*
X0269127D01*
X0265727D02*
X0268127D01*
X0260827D02*
X0263527D01*
X0293927Y-0060581D02*
X0296927D01*
X0288927D02*
X0291827D01*
X0286327D02*
X0286927D01*
X0284227D02*
X0284927D01*
X0281027D02*
X0281627D01*
X0277627D02*
X0280327D01*
X0275927D02*
X0276527D01*
X0271027D02*
X0273927D01*
X0268527D02*
X0269127D01*
X0265627D02*
X0268227D01*
X0260627D02*
X0263627D01*
X0295727Y-0060681D02*
X0297027D01*
X0293927D02*
X0295227D01*
X0290627D02*
X0291927D01*
X0288827D02*
X0290127D01*
X0286327D02*
X0286927D01*
X0284227D02*
X0284927D01*
X0281027D02*
X0281627D01*
X0277627D02*
X0280327D01*
X0275927D02*
X0276527D01*
X0272727D02*
X0274027D01*
X0270927D02*
X0272227D01*
X0268527D02*
X0269127D01*
X0267227D02*
X0268327D01*
X0265527D02*
X0266827D01*
X0262427D02*
X0263727D01*
X0260627D02*
X0261927D01*
X0296127Y-0060781D02*
X0297127D01*
X0293827D02*
X0294827D01*
X0290927D02*
X0292027D01*
X0288727D02*
X0289827D01*
X0286327D02*
X0286927D01*
X0284227D02*
X0284927D01*
X0281027D02*
X0281627D01*
X0278727D02*
X0279327D01*
X0275927D02*
X0276527D01*
X0273027D02*
X0274127D01*
X0270827D02*
X0271927D01*
X0268527D02*
X0269127D01*
X0267527D02*
X0268427D01*
X0265427D02*
X0266427D01*
X0262827D02*
X0263827D01*
X0260527D02*
X0261527D01*
X0296227Y-0060881D02*
X0297127D01*
X0293727D02*
X0294727D01*
X0291127D02*
X0292127D01*
X0288627D02*
X0289627D01*
X0286327D02*
X0286927D01*
X0284227D02*
X0284927D01*
X0281027D02*
X0281627D01*
X0278727D02*
X0279327D01*
X0275927D02*
X0276527D01*
X0273227D02*
X0274227D01*
X0270727D02*
X0271727D01*
X0267727D02*
X0269127D01*
X0265427D02*
X0266327D01*
X0262927D02*
X0263827D01*
X0260427D02*
X0261427D01*
X0296427Y-0060981D02*
X0297227D01*
X0293727D02*
X0294527D01*
X0291327D02*
X0292227D01*
X0288527D02*
X0289427D01*
X0286327D02*
X0286927D01*
X0284227D02*
X0284927D01*
X0281027D02*
X0281627D01*
X0278727D02*
X0279327D01*
X0275927D02*
X0276527D01*
X0273427D02*
X0274327D01*
X0270627D02*
X0271527D01*
X0267927D02*
X0269127D01*
X0265427D02*
X0266227D01*
X0263127D02*
X0263927D01*
X0260427D02*
X0261227D01*
X0296527Y-0061081D02*
X0297227D01*
X0293627D02*
X0294427D01*
X0291427D02*
X0292227D01*
X0288527D02*
X0289327D01*
X0286327D02*
X0286927D01*
X0284227D02*
X0284927D01*
X0281027D02*
X0281627D01*
X0278727D02*
X0279327D01*
X0275927D02*
X0276527D01*
X0273527D02*
X0274327D01*
X0270627D02*
X0271427D01*
X0268027D02*
X0269127D01*
X0265327D02*
X0266127D01*
X0263227D02*
X0263927D01*
X0260327D02*
X0261127D01*
X0296527Y-0061181D02*
X0297227D01*
X0293627D02*
X0294327D01*
X0291527D02*
X0292327D01*
X0288427D02*
X0289227D01*
X0286327D02*
X0286927D01*
X0284227D02*
X0284927D01*
X0281027D02*
X0281627D01*
X0278727D02*
X0279327D01*
X0275927D02*
X0276527D01*
X0273627D02*
X0274427D01*
X0270527D02*
X0271327D01*
X0268127D02*
X0269127D01*
X0265327D02*
X0266027D01*
X0263227D02*
X0263927D01*
X0260327D02*
X0261027D01*
X0296627Y-0061281D02*
X0297327D01*
X0293627D02*
X0294327D01*
X0291627D02*
X0292427D01*
X0288427D02*
X0289227D01*
X0286327D02*
X0286927D01*
X0284227D02*
X0284927D01*
X0281027D02*
X0281627D01*
X0278727D02*
X0279327D01*
X0275927D02*
X0276527D01*
X0273727D02*
X0274527D01*
X0270527D02*
X0271327D01*
X0268127D02*
X0269127D01*
X0265327D02*
X0266027D01*
X0263327D02*
X0264027D01*
X0260327D02*
X0261027D01*
X0296627Y-0061381D02*
X0297327D01*
X0293527D02*
X0294227D01*
X0291627D02*
X0292427D01*
X0288327D02*
X0289127D01*
X0286327D02*
X0286927D01*
X0284227D02*
X0284927D01*
X0281027D02*
X0281627D01*
X0278727D02*
X0279327D01*
X0275927D02*
X0276527D01*
X0273727D02*
X0274527D01*
X0270427D02*
X0271227D01*
X0268227D02*
X0269127D01*
X0265327D02*
X0266027D01*
X0263327D02*
X0264027D01*
X0260227D02*
X0260927D01*
X0296627Y-0061481D02*
X0297327D01*
X0293527D02*
X0294227D01*
X0291727D02*
X0292427D01*
X0288327D02*
X0289027D01*
X0286327D02*
X0286927D01*
X0284227D02*
X0284927D01*
X0281027D02*
X0281627D01*
X0278727D02*
X0279327D01*
X0275927D02*
X0276527D01*
X0273827D02*
X0274527D01*
X0270427D02*
X0271127D01*
X0268327D02*
X0269127D01*
X0265227D02*
X0265927D01*
X0263327D02*
X0264027D01*
X0260227D02*
X0260927D01*
X0296627Y-0061581D02*
X0297327D01*
X0293527D02*
X0294227D01*
X0291727D02*
X0292527D01*
X0288227D02*
X0289027D01*
X0286327D02*
X0286927D01*
X0284227D02*
X0284927D01*
X0281027D02*
X0281627D01*
X0278727D02*
X0279327D01*
X0275927D02*
X0276527D01*
X0273827D02*
X0274627D01*
X0270327D02*
X0271127D01*
X0268327D02*
X0269127D01*
X0265227D02*
X0265927D01*
X0263327D02*
X0264027D01*
X0260227D02*
X0260927D01*
X0296627Y-0061681D02*
X0297327D01*
X0293527D02*
X0294227D01*
X0291827D02*
X0292527D01*
X0288227D02*
X0288927D01*
X0286327D02*
X0286927D01*
X0284227D02*
X0284927D01*
X0281027D02*
X0281627D01*
X0278727D02*
X0279327D01*
X0275927D02*
X0276527D01*
X0273927D02*
X0274627D01*
X0270327D02*
X0271027D01*
X0268427D02*
X0269127D01*
X0265227D02*
X0265927D01*
X0263327D02*
X0264027D01*
X0260227D02*
X0260927D01*
X0296527Y-0061781D02*
X0297227D01*
X0291827D02*
X0292627D01*
X0288227D02*
X0288927D01*
X0286327D02*
X0286927D01*
X0284227D02*
X0284927D01*
X0281027D02*
X0281627D01*
X0278727D02*
X0279327D01*
X0275927D02*
X0276527D01*
X0273927D02*
X0274627D01*
X0270327D02*
X0271027D01*
X0268427D02*
X0269127D01*
X0265227D02*
X0265927D01*
X0263227D02*
X0263927D01*
X0296527Y-0061881D02*
X0297227D01*
X0291927D02*
X0292627D01*
X0288127D02*
X0288827D01*
X0286327D02*
X0286927D01*
X0284227D02*
X0284927D01*
X0281027D02*
X0281627D01*
X0278727D02*
X0279327D01*
X0275927D02*
X0276527D01*
X0274027D02*
X0274727D01*
X0270227D02*
X0270927D01*
X0268527D02*
X0269127D01*
X0265227D02*
X0265927D01*
X0263227D02*
X0263927D01*
X0296427Y-0061981D02*
X0297227D01*
X0291927D02*
X0292627D01*
X0288127D02*
X0288827D01*
X0286327D02*
X0286927D01*
X0284227D02*
X0284927D01*
X0281027D02*
X0281627D01*
X0278727D02*
X0279327D01*
X0275927D02*
X0276527D01*
X0274027D02*
X0274727D01*
X0270227D02*
X0270927D01*
X0268527D02*
X0269127D01*
X0265227D02*
X0265927D01*
X0263127D02*
X0263927D01*
X0296227Y-0062081D02*
X0297227D01*
X0291927D02*
X0292627D01*
X0288127D02*
X0288827D01*
X0286327D02*
X0286927D01*
X0284227D02*
X0284927D01*
X0281027D02*
X0281627D01*
X0278727D02*
X0279327D01*
X0275927D02*
X0276527D01*
X0274027D02*
X0274727D01*
X0270227D02*
X0270927D01*
X0268527D02*
X0269127D01*
X0265227D02*
X0265927D01*
X0262927D02*
X0263927D01*
X0296027Y-0062181D02*
X0297127D01*
X0291927D02*
X0292627D01*
X0288127D02*
X0288827D01*
X0286327D02*
X0286927D01*
X0284227D02*
X0284927D01*
X0281027D02*
X0281627D01*
X0278727D02*
X0279327D01*
X0275927D02*
X0276527D01*
X0274027D02*
X0274727D01*
X0270227D02*
X0270927D01*
X0268527D02*
X0269127D01*
X0265227D02*
X0265927D01*
X0262727D02*
X0263827D01*
X0295827Y-0062281D02*
X0297027D01*
X0292027D02*
X0292627D01*
X0288127D02*
X0288727D01*
X0286327D02*
X0286927D01*
X0284227D02*
X0284927D01*
X0281027D02*
X0281627D01*
X0278727D02*
X0279327D01*
X0275927D02*
X0276527D01*
X0274127D02*
X0274727D01*
X0270227D02*
X0270827D01*
X0268527D02*
X0269127D01*
X0265227D02*
X0265927D01*
X0262527D02*
X0263727D01*
X0295427Y-0062381D02*
X0296927D01*
X0292027D02*
X0292627D01*
X0288127D02*
X0288727D01*
X0286327D02*
X0286927D01*
X0284227D02*
X0284927D01*
X0281027D02*
X0281627D01*
X0278727D02*
X0279327D01*
X0275927D02*
X0276527D01*
X0274127D02*
X0274727D01*
X0270227D02*
X0270827D01*
X0268527D02*
X0269127D01*
X0265227D02*
X0265927D01*
X0262127D02*
X0263627D01*
X0295027Y-0062481D02*
X0296827D01*
X0292027D02*
X0292727D01*
X0288127D02*
X0288727D01*
X0286327D02*
X0286927D01*
X0284227D02*
X0284927D01*
X0281027D02*
X0281627D01*
X0278727D02*
X0279327D01*
X0275927D02*
X0276527D01*
X0274127D02*
X0274827D01*
X0270227D02*
X0270827D01*
X0268527D02*
X0269127D01*
X0265227D02*
X0265927D01*
X0261727D02*
X0263527D01*
X0294727Y-0062581D02*
X0296727D01*
X0292027D02*
X0292727D01*
X0288127D02*
X0288727D01*
X0286327D02*
X0286927D01*
X0284227D02*
X0284927D01*
X0281027D02*
X0281627D01*
X0278727D02*
X0279327D01*
X0275927D02*
X0276527D01*
X0274127D02*
X0274827D01*
X0270227D02*
X0270827D01*
X0268527D02*
X0269127D01*
X0265227D02*
X0265927D01*
X0261427D02*
X0263427D01*
X0294427Y-0062681D02*
X0296527D01*
X0292027D02*
X0292727D01*
X0288127D02*
X0288727D01*
X0286327D02*
X0286927D01*
X0284227D02*
X0284927D01*
X0281027D02*
X0281627D01*
X0278727D02*
X0279327D01*
X0275927D02*
X0276527D01*
X0274127D02*
X0274827D01*
X0270227D02*
X0270827D01*
X0268527D02*
X0269127D01*
X0265227D02*
X0265927D01*
X0261127D02*
X0263227D01*
X0294227Y-0062781D02*
X0296227D01*
X0292027D02*
X0292727D01*
X0288127D02*
X0288727D01*
X0286327D02*
X0286927D01*
X0284227D02*
X0284927D01*
X0281027D02*
X0281627D01*
X0278727D02*
X0279327D01*
X0275927D02*
X0276527D01*
X0274127D02*
X0274827D01*
X0270227D02*
X0270827D01*
X0268527D02*
X0269127D01*
X0265227D02*
X0265927D01*
X0260927D02*
X0262927D01*
X0294027Y-0062881D02*
X0295927D01*
X0292027D02*
X0292727D01*
X0288127D02*
X0288727D01*
X0286327D02*
X0286927D01*
X0284227D02*
X0284927D01*
X0281027D02*
X0281627D01*
X0278727D02*
X0279327D01*
X0275927D02*
X0276527D01*
X0274127D02*
X0274827D01*
X0270227D02*
X0270827D01*
X0268527D02*
X0269127D01*
X0265227D02*
X0265927D01*
X0260727D02*
X0262627D01*
X0293927Y-0062981D02*
X0295527D01*
X0292027D02*
X0292727D01*
X0288127D02*
X0288727D01*
X0286327D02*
X0286927D01*
X0284227D02*
X0284927D01*
X0281027D02*
X0281627D01*
X0278727D02*
X0279327D01*
X0275927D02*
X0276527D01*
X0274127D02*
X0274827D01*
X0270227D02*
X0270827D01*
X0268527D02*
X0269127D01*
X0265227D02*
X0265927D01*
X0260627D02*
X0262227D01*
X0293827Y-0063081D02*
X0295127D01*
X0292027D02*
X0292627D01*
X0288127D02*
X0288727D01*
X0286327D02*
X0286927D01*
X0284227D02*
X0284927D01*
X0281027D02*
X0281627D01*
X0278727D02*
X0279327D01*
X0275927D02*
X0276527D01*
X0274127D02*
X0274727D01*
X0270227D02*
X0270827D01*
X0268527D02*
X0269127D01*
X0265227D02*
X0265927D01*
X0260527D02*
X0261827D01*
X0293727Y-0063181D02*
X0294827D01*
X0292027D02*
X0292627D01*
X0288127D02*
X0288727D01*
X0286327D02*
X0286927D01*
X0284227D02*
X0284927D01*
X0281027D02*
X0281627D01*
X0278727D02*
X0279327D01*
X0275927D02*
X0276527D01*
X0274127D02*
X0274727D01*
X0270227D02*
X0270827D01*
X0268527D02*
X0269127D01*
X0265227D02*
X0265927D01*
X0260427D02*
X0261527D01*
X0293727Y-0063281D02*
X0294627D01*
X0292027D02*
X0292627D01*
X0288127D02*
X0288827D01*
X0286327D02*
X0286927D01*
X0284227D02*
X0284927D01*
X0281027D02*
X0281627D01*
X0278727D02*
X0279327D01*
X0275927D02*
X0276527D01*
X0274127D02*
X0274727D01*
X0270227D02*
X0270927D01*
X0268527D02*
X0269127D01*
X0265227D02*
X0265927D01*
X0260427D02*
X0261327D01*
X0293627Y-0063381D02*
X0294527D01*
X0291927D02*
X0292627D01*
X0288127D02*
X0288827D01*
X0286327D02*
X0286927D01*
X0284227D02*
X0284927D01*
X0281027D02*
X0281627D01*
X0278727D02*
X0279327D01*
X0275927D02*
X0276527D01*
X0274027D02*
X0274727D01*
X0270227D02*
X0270927D01*
X0268527D02*
X0269127D01*
X0265227D02*
X0265927D01*
X0260327D02*
X0261227D01*
X0293627Y-0063481D02*
X0294427D01*
X0291927D02*
X0292627D01*
X0288127D02*
X0288827D01*
X0286327D02*
X0286927D01*
X0284227D02*
X0284927D01*
X0281027D02*
X0281627D01*
X0278727D02*
X0279327D01*
X0275927D02*
X0276527D01*
X0274027D02*
X0274727D01*
X0270227D02*
X0270927D01*
X0268527D02*
X0269127D01*
X0265227D02*
X0265927D01*
X0260327D02*
X0261127D01*
X0293527Y-0063581D02*
X0294327D01*
X0291927D02*
X0292627D01*
X0288127D02*
X0288827D01*
X0286327D02*
X0286927D01*
X0284227D02*
X0284927D01*
X0281027D02*
X0281627D01*
X0278727D02*
X0279327D01*
X0275927D02*
X0276527D01*
X0274027D02*
X0274727D01*
X0270227D02*
X0270927D01*
X0268527D02*
X0269127D01*
X0265227D02*
X0265927D01*
X0260227D02*
X0261027D01*
X0293527Y-0063681D02*
X0294227D01*
X0291927D02*
X0292627D01*
X0288227D02*
X0288927D01*
X0286327D02*
X0286927D01*
X0284227D02*
X0284927D01*
X0281027D02*
X0281627D01*
X0278727D02*
X0279327D01*
X0275927D02*
X0276527D01*
X0273927D02*
X0274727D01*
X0270327D02*
X0271027D01*
X0268527D02*
X0269127D01*
X0265227D02*
X0265927D01*
X0260227D02*
X0260927D01*
X0293527Y-0063781D02*
X0294227D01*
X0291827D02*
X0292527D01*
X0288227D02*
X0288927D01*
X0286327D02*
X0286927D01*
X0284227D02*
X0284927D01*
X0281027D02*
X0281627D01*
X0278727D02*
X0279327D01*
X0275927D02*
X0276527D01*
X0273927D02*
X0274627D01*
X0270327D02*
X0271027D01*
X0268527D02*
X0269127D01*
X0265227D02*
X0265927D01*
X0260227D02*
X0260927D01*
X0296827Y-0063881D02*
X0297427D01*
X0293527D02*
X0294227D01*
X0291827D02*
X0292527D01*
X0288227D02*
X0288927D01*
X0286327D02*
X0286927D01*
X0284227D02*
X0284927D01*
X0281027D02*
X0281727D01*
X0278727D02*
X0279327D01*
X0275927D02*
X0276527D01*
X0273927D02*
X0274627D01*
X0270327D02*
X0271027D01*
X0268527D02*
X0269127D01*
X0265227D02*
X0265927D01*
X0263527D02*
X0264127D01*
X0260227D02*
X0260927D01*
X0296727Y-0063981D02*
X0297427D01*
X0293527D02*
X0294227D01*
X0291727D02*
X0292527D01*
X0288327D02*
X0289027D01*
X0286327D02*
X0286927D01*
X0284227D02*
X0284927D01*
X0281027D02*
X0281727D01*
X0278727D02*
X0279327D01*
X0275927D02*
X0276527D01*
X0273827D02*
X0274627D01*
X0270427D02*
X0271127D01*
X0268527D02*
X0269127D01*
X0265227D02*
X0265927D01*
X0263427D02*
X0264127D01*
X0260227D02*
X0260927D01*
X0296727Y-0064081D02*
X0297427D01*
X0293527D02*
X0294227D01*
X0291727D02*
X0292427D01*
X0288327D02*
X0289127D01*
X0286327D02*
X0286927D01*
X0284127D02*
X0284927D01*
X0281027D02*
X0281827D01*
X0278727D02*
X0279327D01*
X0275927D02*
X0276527D01*
X0273827D02*
X0274527D01*
X0270427D02*
X0271227D01*
X0268527D02*
X0269127D01*
X0265227D02*
X0265927D01*
X0263427D02*
X0264127D01*
X0260227D02*
X0260927D01*
X0296727Y-0064181D02*
X0297427D01*
X0293527D02*
X0294227D01*
X0291627D02*
X0292427D01*
X0288327D02*
X0289127D01*
X0286327D02*
X0286927D01*
X0284127D02*
X0284827D01*
X0281027D02*
X0281827D01*
X0278727D02*
X0279327D01*
X0275927D02*
X0276527D01*
X0273727D02*
X0274527D01*
X0270427D02*
X0271227D01*
X0268527D02*
X0269127D01*
X0265227D02*
X0265927D01*
X0263427D02*
X0264127D01*
X0260227D02*
X0260927D01*
X0296627Y-0064281D02*
X0297427D01*
X0293527D02*
X0294227D01*
X0291527D02*
X0292327D01*
X0288427D02*
X0289227D01*
X0286327D02*
X0286927D01*
X0284127D02*
X0284827D01*
X0281027D02*
X0281927D01*
X0278727D02*
X0279327D01*
X0275927D02*
X0276527D01*
X0273627D02*
X0274427D01*
X0270527D02*
X0271327D01*
X0268527D02*
X0269127D01*
X0265227D02*
X0265927D01*
X0263327D02*
X0264127D01*
X0260227D02*
X0260927D01*
X0296627Y-0064381D02*
X0297327D01*
X0293627D02*
X0294327D01*
X0291427D02*
X0292327D01*
X0288427D02*
X0289327D01*
X0286327D02*
X0286927D01*
X0284027D02*
X0284827D01*
X0281027D02*
X0282027D01*
X0278627D02*
X0279327D01*
X0275927D02*
X0276527D01*
X0273527D02*
X0274427D01*
X0270527D02*
X0271427D01*
X0268527D02*
X0269127D01*
X0265227D02*
X0265927D01*
X0263327D02*
X0264027D01*
X0260327D02*
X0261027D01*
X0296527Y-0064481D02*
X0297327D01*
X0293627D02*
X0294427D01*
X0291327D02*
X0292227D01*
X0288527D02*
X0289427D01*
X0286327D02*
X0286927D01*
X0283927D02*
X0284727D01*
X0281027D02*
X0282127D01*
X0278627D02*
X0279327D01*
X0275927D02*
X0276527D01*
X0273427D02*
X0274327D01*
X0270627D02*
X0271527D01*
X0268527D02*
X0269127D01*
X0265227D02*
X0265927D01*
X0263227D02*
X0264027D01*
X0260327D02*
X0261127D01*
X0296327Y-0064581D02*
X0297227D01*
X0293627D02*
X0294527D01*
X0291227D02*
X0292127D01*
X0288627D02*
X0289527D01*
X0286327D02*
X0286927D01*
X0283827D02*
X0284727D01*
X0281027D02*
X0282227D01*
X0278627D02*
X0279327D01*
X0275927D02*
X0276527D01*
X0273327D02*
X0274227D01*
X0270727D02*
X0271627D01*
X0268527D02*
X0269127D01*
X0265227D02*
X0265927D01*
X0263027D02*
X0263927D01*
X0260327D02*
X0261227D01*
X0296227Y-0064681D02*
X0297227D01*
X0293727D02*
X0294727D01*
X0291027D02*
X0292027D01*
X0288727D02*
X0289727D01*
X0286327D02*
X0286927D01*
X0283727D02*
X0284627D01*
X0281027D02*
X0282427D01*
X0278527D02*
X0279327D01*
X0275927D02*
X0276527D01*
X0273127D02*
X0274127D01*
X0270827D02*
X0271827D01*
X0268527D02*
X0269127D01*
X0265227D02*
X0265927D01*
X0262927D02*
X0263927D01*
X0260427D02*
X0261427D01*
X0295927Y-0064781D02*
X0297127D01*
X0293827D02*
X0295027D01*
X0290727D02*
X0292027D01*
X0288827D02*
X0290027D01*
X0286327D02*
X0286927D01*
X0283427D02*
X0284627D01*
X0281027D02*
X0282727D01*
X0278327D02*
X0279227D01*
X0277627D02*
X0277727D01*
X0275927D02*
X0276527D01*
X0272827D02*
X0274127D01*
X0270927D02*
X0272127D01*
X0268527D02*
X0269127D01*
X0265227D02*
X0265927D01*
X0262627D02*
X0263827D01*
X0260527D02*
X0261727D01*
X0293927Y-0064881D02*
X0297027D01*
X0288927D02*
X0291927D01*
X0286327D02*
X0286927D01*
X0281727D02*
X0284527D01*
X0281027D02*
X0281627D01*
X0277627D02*
X0279227D01*
X0275927D02*
X0276527D01*
X0271027D02*
X0273927D01*
X0268527D02*
X0269127D01*
X0265227D02*
X0265927D01*
X0260627D02*
X0263727D01*
X0294027Y-0064981D02*
X0296927D01*
X0289027D02*
X0291727D01*
X0286327D02*
X0286927D01*
X0281827D02*
X0284427D01*
X0281027D02*
X0281627D01*
X0277627D02*
X0279127D01*
X0275927D02*
X0276527D01*
X0271127D02*
X0273827D01*
X0268527D02*
X0269127D01*
X0265227D02*
X0265927D01*
X0260727D02*
X0263627D01*
X0294127Y-0065081D02*
X0296727D01*
X0289127D02*
X0291627D01*
X0286327D02*
X0286927D01*
X0281927D02*
X0284327D01*
X0281027D02*
X0281627D01*
X0277627D02*
X0279127D01*
X0275927D02*
X0276527D01*
X0271227D02*
X0273727D01*
X0268527D02*
X0269127D01*
X0265227D02*
X0265927D01*
X0260827D02*
X0263427D01*
X0294327Y-0065181D02*
X0296627D01*
X0289327D02*
X0291427D01*
X0286327D02*
X0286927D01*
X0282127D02*
X0284227D01*
X0281027D02*
X0281627D01*
X0277527D02*
X0279027D01*
X0275927D02*
X0276527D01*
X0271427D02*
X0273527D01*
X0268527D02*
X0269127D01*
X0265227D02*
X0265927D01*
X0261027D02*
X0263327D01*
X0294527Y-0065281D02*
X0296327D01*
X0289527D02*
X0291227D01*
X0286327D02*
X0286927D01*
X0282327D02*
X0284027D01*
X0281027D02*
X0281627D01*
X0277527D02*
X0278827D01*
X0275927D02*
X0276527D01*
X0271627D02*
X0273327D01*
X0268527D02*
X0269127D01*
X0265227D02*
X0265927D01*
X0261227D02*
X0263027D01*
X0295027Y-0065381D02*
X0295927D01*
X0290027D02*
X0290827D01*
X0282827D02*
X0283627D01*
X0277827D02*
X0278527D01*
X0272127D02*
X0272927D01*
X0261727D02*
X0262627D01*
G54D112*
X0186969Y-0021654D03*
X0257953Y-0130512D03*
G54D113*
X0196968Y-0021654D03*
X0206968D03*
X0216968D03*
X0226969D03*
X0267953Y-0130512D03*
X0277953D03*
X0287953D03*
X0297953D03*
G54D114*
X0326811Y-0186008D03*
G54D115*
X0326811Y-019585D03*
X0334685D03*
Y-0186008D03*
G54D116*
X0345354Y-021463D03*
Y-0167228D03*
G54D117*
X0029528Y-0042323D03*
X0019685D03*
Y-0111221D03*
X0029528D03*
Y-0097441D03*
X0019685D03*
Y-0056102D03*
X0029528D03*
X0019685Y-0069882D03*
X0029528D03*
X0019685Y-0083661D03*
X0029528D03*
Y-0152559D03*
X0019685D03*
X0029528Y-0138779D03*
X0019685D03*
X0029528Y-0125D03*
X0019685D03*
Y-0166339D03*
X0029528D03*
Y-0180118D03*
Y-0193898D03*
X0019685Y-0180118D03*
Y-0193898D03*
G54D118*
X0188779Y-0155315D03*
X0192717D03*
X0196653D03*
X0188779Y-0159252D03*
X0196653D03*
X0192717D03*
X0196653Y-0151378D03*
X0192717D03*
X0188779D03*
X0196653Y-0147441D03*
X0192717D03*
X0188779D03*
M02*