%FSTAX25Y25*%
%MOIN*%
%SFA1B1*%

%IPPOS*%
%ADD49C,0.078740*%
%ADD50C,0.031500*%
%ADD51C,0.035430*%
%ADD52C,0.059050*%
%ADD53C,0.047240*%
%ADD58C,0.059050*%
%ADD62C,0.078740*%
%ADD65C,0.054690*%
%ADD68C,0.027560*%
%ADD70C,0.039370*%
%LNrobocontroller-1*%
%LPD*%
G36*
X0014885Y-0003937D02*
X0015059Y-000429D01*
X0014961Y-0004418*
X0014703Y-0005041*
X0014615Y-0005709*
X0014703Y-0006377*
X0014961Y-0006999*
X0015371Y-0007534*
X0015905Y-0007944*
X0016528Y-0008202*
X0017196Y-000829*
X0017864Y-0008202*
X0018486Y-0007944*
X0019021Y-0007534*
X0019431Y-0006999*
X0019689Y-0006377*
X0019777Y-0005709*
X0019689Y-0005041*
X0019431Y-0004418*
X0019333Y-000429*
X0019507Y-0003937*
X0026569*
X0026743Y-000429*
X0026645Y-0004418*
X0026387Y-0005041*
X0026299Y-0005709*
X0026387Y-0006377*
X0026645Y-0006999*
X0027055Y-0007534*
X0027589Y-0007944*
X0028212Y-0008202*
X002888Y-000829*
X0029548Y-0008202*
X003017Y-0007944*
X0030705Y-0007534*
X0031115Y-0006999*
X0031373Y-0006377*
X0031461Y-0005709*
X0031373Y-0005041*
X0031115Y-0004418*
X0031017Y-000429*
X0031191Y-0003937*
X0038253*
X0038427Y-000429*
X0038328Y-0004418*
X0038071Y-0005041*
X0037983Y-0005709*
X0038071Y-0006377*
X0038328Y-0006999*
X0038739Y-0007534*
X0039273Y-0007944*
X0039896Y-0008202*
X0040564Y-000829*
X0041232Y-0008202*
X0041854Y-0007944*
X0042389Y-0007534*
X0042799Y-0006999*
X0043057Y-0006377*
X0043145Y-0005709*
X0043057Y-0005041*
X0042799Y-0004418*
X0042701Y-000429*
X0042875Y-0003937*
X0049937*
X0050111Y-000429*
X0050013Y-0004418*
X0049755Y-0005041*
X0049667Y-0005709*
X0049755Y-0006377*
X0050013Y-0006999*
X0050423Y-0007534*
X0050957Y-0007944*
X005158Y-0008202*
X0052248Y-000829*
X0052916Y-0008202*
X0053539Y-0007944*
X0054073Y-0007534*
X0054483Y-0006999*
X0054741Y-0006377*
X0054829Y-0005709*
X0054741Y-0005041*
X0054483Y-0004418*
X0054385Y-000429*
X0054559Y-0003937*
X0061621*
X0061795Y-000429*
X0061697Y-0004418*
X0061439Y-0005041*
X0061351Y-0005709*
X0061439Y-0006377*
X0061697Y-0006999*
X0062107Y-0007534*
X0062641Y-0007944*
X0063264Y-0008202*
X0063932Y-000829*
X00646Y-0008202*
X0065223Y-0007944*
X0065757Y-0007534*
X0066167Y-0006999*
X0066425Y-0006377*
X0066513Y-0005709*
X0066425Y-0005041*
X0066167Y-0004418*
X0066069Y-000429*
X0066243Y-0003937*
X0073305*
X0073479Y-000429*
X0073381Y-0004418*
X0073123Y-0005041*
X0073035Y-0005709*
X0073123Y-0006377*
X0073381Y-0006999*
X0073791Y-0007534*
X0074325Y-0007944*
X0074948Y-0008202*
X0075616Y-000829*
X0076284Y-0008202*
X0076907Y-0007944*
X0077441Y-0007534*
X0077851Y-0006999*
X0078109Y-0006377*
X0078197Y-0005709*
X0078109Y-0005041*
X0077851Y-0004418*
X0077753Y-000429*
X0077927Y-0003937*
X0084989*
X0085163Y-000429*
X0085065Y-0004418*
X0084807Y-0005041*
X0084719Y-0005709*
X0084807Y-0006377*
X0085065Y-0006999*
X0085475Y-0007534*
X0086009Y-0007944*
X0086632Y-0008202*
X00873Y-000829*
X0087968Y-0008202*
X0088591Y-0007944*
X0089125Y-0007534*
X0089535Y-0006999*
X0089793Y-0006377*
X0089881Y-0005709*
X0089793Y-0005041*
X0089535Y-0004418*
X0089437Y-000429*
X0089611Y-0003937*
X0096673*
X0096847Y-000429*
X0096749Y-0004418*
X0096491Y-0005041*
X0096403Y-0005709*
X0096491Y-0006377*
X0096749Y-0006999*
X0097159Y-0007534*
X0097693Y-0007944*
X0098316Y-0008202*
X0098984Y-000829*
X0099652Y-0008202*
X0100275Y-0007944*
X0100809Y-0007534*
X0101219Y-0006999*
X0101477Y-0006377*
X0101565Y-0005709*
X0101477Y-0005041*
X0101219Y-0004418*
X0101121Y-000429*
X0101295Y-0003937*
X0108357*
X0108531Y-000429*
X0108433Y-0004418*
X0108175Y-0005041*
X0108087Y-0005709*
X0108175Y-0006377*
X0108433Y-0006999*
X0108843Y-0007534*
X0109377Y-0007944*
X011Y-0008202*
X0110668Y-000829*
X0111336Y-0008202*
X0111959Y-0007944*
X0112493Y-0007534*
X0112903Y-0006999*
X0113161Y-0006377*
X0113249Y-0005709*
X0113161Y-0005041*
X0112903Y-0004418*
X0112805Y-000429*
X0112979Y-0003937*
X0120041*
X0120215Y-000429*
X0120117Y-0004418*
X0119859Y-0005041*
X0119771Y-0005709*
X0119859Y-0006377*
X0120117Y-0006999*
X0120527Y-0007534*
X0121061Y-0007944*
X0121684Y-0008202*
X0122352Y-000829*
X012302Y-0008202*
X0123643Y-0007944*
X0124177Y-0007534*
X0124587Y-0006999*
X0124845Y-0006377*
X0124933Y-0005709*
X0124845Y-0005041*
X0124587Y-0004418*
X0124489Y-000429*
X0124663Y-0003937*
X0131725*
X0131899Y-000429*
X0131801Y-0004418*
X0131543Y-0005041*
X0131455Y-0005709*
X0131543Y-0006377*
X0131801Y-0006999*
X0132211Y-0007534*
X0132746Y-0007944*
X0133368Y-0008202*
X0134036Y-000829*
X0134704Y-0008202*
X0135327Y-0007944*
X0135861Y-0007534*
X0136271Y-0006999*
X0136529Y-0006377*
X0136617Y-0005709*
X0136529Y-0005041*
X0136271Y-0004418*
X0136173Y-000429*
X0136347Y-0003937*
X0143409*
X0143583Y-000429*
X0143485Y-0004418*
X0143227Y-0005041*
X0143139Y-0005709*
X0143227Y-0006377*
X0143485Y-0006999*
X0143895Y-0007534*
X014443Y-0007944*
X0145052Y-0008202*
X014572Y-000829*
X0146388Y-0008202*
X0147011Y-0007944*
X0147545Y-0007534*
X0147955Y-0006999*
X0148213Y-0006377*
X0148301Y-0005709*
X0148213Y-0005041*
X0147955Y-0004418*
X0147857Y-000429*
X0148031Y-0003937*
X0155093*
X0155267Y-000429*
X0155169Y-0004418*
X0154911Y-0005041*
X0154823Y-0005709*
X0154911Y-0006377*
X0155169Y-0006999*
X0155579Y-0007534*
X0156114Y-0007944*
X0156736Y-0008202*
X0157404Y-000829*
X0158072Y-0008202*
X0158695Y-0007944*
X0159229Y-0007534*
X0159639Y-0006999*
X0159897Y-0006377*
X0159985Y-0005709*
X0159897Y-0005041*
X0159639Y-0004418*
X0159541Y-000429*
X0159715Y-0003937*
X0166777*
X0166951Y-000429*
X0166853Y-0004418*
X0166595Y-0005041*
X0166507Y-0005709*
X0166595Y-0006377*
X0166853Y-0006999*
X0167263Y-0007534*
X0167798Y-0007944*
X016842Y-0008202*
X0169088Y-000829*
X0169756Y-0008202*
X0170379Y-0007944*
X0170913Y-0007534*
X0171323Y-0006999*
X0171581Y-0006377*
X0171669Y-0005709*
X0171581Y-0005041*
X0171323Y-0004418*
X0171225Y-000429*
X0171399Y-0003937*
X0178461*
X0178635Y-000429*
X0178537Y-0004418*
X0178279Y-0005041*
X0178191Y-0005709*
X0178279Y-0006377*
X0178537Y-0006999*
X0178947Y-0007534*
X0179481Y-0007944*
X0180104Y-0008202*
X0180772Y-000829*
X018144Y-0008202*
X0182063Y-0007944*
X0182597Y-0007534*
X0183007Y-0006999*
X0183265Y-0006377*
X0183353Y-0005709*
X0183265Y-0005041*
X0183007Y-0004418*
X0182909Y-000429*
X0183083Y-0003937*
X0190145*
X0190319Y-000429*
X0190221Y-0004418*
X0189963Y-0005041*
X0189875Y-0005709*
X0189963Y-0006377*
X0190221Y-0006999*
X0190631Y-0007534*
X0191166Y-0007944*
X0191788Y-0008202*
X0192456Y-000829*
X0193124Y-0008202*
X0193747Y-0007944*
X0194281Y-0007534*
X0194691Y-0006999*
X0194949Y-0006377*
X0195037Y-0005709*
X0194949Y-0005041*
X0194691Y-0004418*
X0194593Y-000429*
X0194767Y-0003937*
X0201829*
X0202003Y-000429*
X0201905Y-0004418*
X0201647Y-0005041*
X0201559Y-0005709*
X0201647Y-0006377*
X0201905Y-0006999*
X0202315Y-0007534*
X020285Y-0007944*
X0203472Y-0008202*
X020414Y-000829*
X0204808Y-0008202*
X0205431Y-0007944*
X0205965Y-0007534*
X0206376Y-0006999*
X0206633Y-0006377*
X0206721Y-0005709*
X0206633Y-0005041*
X0206376Y-0004418*
X0206277Y-000429*
X0206451Y-0003937*
X0213513*
X0213687Y-000429*
X0213589Y-0004418*
X0213331Y-0005041*
X0213243Y-0005709*
X0213331Y-0006377*
X0213589Y-0006999*
X0213999Y-0007534*
X0214534Y-0007944*
X0215156Y-0008202*
X0215824Y-000829*
X0216492Y-0008202*
X0217115Y-0007944*
X0217649Y-0007534*
X0218059Y-0006999*
X0218317Y-0006377*
X0218405Y-0005709*
X0218317Y-0005041*
X0218059Y-0004418*
X0217961Y-000429*
X0218135Y-0003937*
X0225197*
X0225371Y-000429*
X0225273Y-0004418*
X0225015Y-0005041*
X0224927Y-0005709*
X0225015Y-0006377*
X0225273Y-0006999*
X0225683Y-0007534*
X0226218Y-0007944*
X022684Y-0008202*
X0227508Y-000829*
X0228176Y-0008202*
X0228799Y-0007944*
X0229333Y-0007534*
X0229744Y-0006999*
X0230001Y-0006377*
X0230089Y-0005709*
X0230001Y-0005041*
X0229744Y-0004418*
X0229645Y-000429*
X0229819Y-0003937*
X0236881*
X0237055Y-000429*
X0236957Y-0004418*
X0236699Y-0005041*
X0236611Y-0005709*
X0236699Y-0006377*
X0236957Y-0006999*
X0237367Y-0007534*
X0237902Y-0007944*
X0238524Y-0008202*
X0239192Y-000829*
X023986Y-0008202*
X0240483Y-0007944*
X0241017Y-0007534*
X0241427Y-0006999*
X0241685Y-0006377*
X0241773Y-0005709*
X0241685Y-0005041*
X0241427Y-0004418*
X0241329Y-000429*
X0241503Y-0003937*
X0248565*
X0248739Y-000429*
X0248641Y-0004418*
X0248383Y-0005041*
X0248295Y-0005709*
X0248383Y-0006377*
X0248641Y-0006999*
X0249051Y-0007534*
X0249586Y-0007944*
X0250208Y-0008202*
X0250876Y-000829*
X0251544Y-0008202*
X0252167Y-0007944*
X0252701Y-0007534*
X0253112Y-0006999*
X0253369Y-0006377*
X0253457Y-0005709*
X0253369Y-0005041*
X0253112Y-0004418*
X0253013Y-000429*
X0253187Y-0003937*
X0260249*
X0260423Y-000429*
X0260325Y-0004418*
X0260067Y-0005041*
X0259979Y-0005709*
X0260067Y-0006377*
X0260325Y-0006999*
X0260735Y-0007534*
X026127Y-0007944*
X0261892Y-0008202*
X026256Y-000829*
X0263228Y-0008202*
X0263851Y-0007944*
X0264385Y-0007534*
X0264796Y-0006999*
X0265053Y-0006377*
X0265141Y-0005709*
X0265053Y-0005041*
X0264796Y-0004418*
X0264697Y-000429*
X0264872Y-0003937*
X0271933*
X0272107Y-000429*
X0272009Y-0004418*
X0271751Y-0005041*
X0271663Y-0005709*
X0271751Y-0006377*
X0272009Y-0006999*
X0272419Y-0007534*
X0272954Y-0007944*
X0273576Y-0008202*
X0274244Y-000829*
X0274912Y-0008202*
X0275535Y-0007944*
X0276069Y-0007534*
X027648Y-0006999*
X0276737Y-0006377*
X0276825Y-0005709*
X0276737Y-0005041*
X027648Y-0004418*
X0276381Y-000429*
X0276555Y-0003937*
X0283617*
X0283791Y-000429*
X0283693Y-0004418*
X0283435Y-0005041*
X0283347Y-0005709*
X0283435Y-0006377*
X0283693Y-0006999*
X0284103Y-0007534*
X0284638Y-0007944*
X028526Y-0008202*
X0285928Y-000829*
X0286596Y-0008202*
X0287219Y-0007944*
X0287753Y-0007534*
X0288164Y-0006999*
X0288422Y-0006377*
X0288509Y-0005709*
X0288422Y-0005041*
X0288164Y-0004418*
X0288065Y-000429*
X028824Y-0003937*
X0295301*
X0295475Y-000429*
X0295377Y-0004418*
X0295119Y-0005041*
X0295031Y-0005709*
X0295119Y-0006377*
X0295377Y-0006999*
X0295787Y-0007534*
X0296322Y-0007944*
X0296944Y-0008202*
X0297612Y-000829*
X029828Y-0008202*
X0298903Y-0007944*
X0299437Y-0007534*
X0299848Y-0006999*
X0300106Y-0006377*
X0300193Y-0005709*
X0300106Y-0005041*
X0299848Y-0004418*
X0299749Y-000429*
X0299923Y-0003937*
X0306985*
X0307159Y-000429*
X0307061Y-0004418*
X0306803Y-0005041*
X0306715Y-0005709*
X0306803Y-0006377*
X0307061Y-0006999*
X0307471Y-0007534*
X0308006Y-0007944*
X0308628Y-0008202*
X0309296Y-000829*
X0309964Y-0008202*
X0310587Y-0007944*
X0311122Y-0007534*
X0311532Y-0006999*
X0311789Y-0006377*
X0311877Y-0005709*
X0311789Y-0005041*
X0311532Y-0004418*
X0311433Y-000429*
X0311608Y-0003937*
X0318669*
X0318843Y-000429*
X0318745Y-0004418*
X0318487Y-0005041*
X0318399Y-0005709*
X0318487Y-0006377*
X0318745Y-0006999*
X0319155Y-0007534*
X031969Y-0007944*
X0320312Y-0008202*
X032098Y-000829*
X0321648Y-0008202*
X0322271Y-0007944*
X0322806Y-0007534*
X0323216Y-0006999*
X0323474Y-0006377*
X0323562Y-0005709*
X0323474Y-0005041*
X0323216Y-0004418*
X0323117Y-000429*
X0323292Y-0003937*
X0330353*
X0330527Y-000429*
X0330429Y-0004418*
X0330171Y-0005041*
X0330083Y-0005709*
X0330171Y-0006377*
X0330429Y-0006999*
X0330839Y-0007534*
X0331374Y-0007944*
X0331512Y-0008001*
X0331504Y-0008134*
X0331473Y-0008288*
Y-0136811*
X0331565Y-0137272*
X0331826Y-0137663*
X0332216Y-0137924*
X0332677Y-0138015*
X0355495*
X0355697Y-0138353*
X0355327Y-0139046*
X0354893Y-0140475*
X0354747Y-0141961*
X0354893Y-0143446*
X0355327Y-0144875*
X035603Y-0146192*
X0356977Y-0147345*
X0358131Y-0148293*
X0359448Y-0148996*
X0360876Y-014943*
X0362362Y-0149576*
X0363848Y-014943*
X0365277Y-0148996*
X0366593Y-0148293*
X0367747Y-0147345*
X0368694Y-0146192*
X0369398Y-0144875*
X0369685Y-0143929*
X0370079Y-0143987*
Y-022874*
X0369685Y-0228874*
X0369542Y-0228687*
X0369007Y-0228276*
X0368385Y-0228019*
X0367716Y-0227931*
X0367048Y-0228019*
X0366426Y-0228276*
X0365891Y-0228687*
X0365481Y-0229221*
X0365223Y-0229844*
X0365135Y-0230512*
X0365223Y-023118*
X0365481Y-0231802*
X0365579Y-023193*
X0365405Y-0232283*
X0358344*
X035817Y-023193*
X0358268Y-0231802*
X0358526Y-023118*
X0358613Y-0230512*
X0358526Y-0229844*
X0358268Y-0229221*
X0357857Y-0228687*
X0357323Y-0228276*
X03567Y-0228019*
X0356032Y-0227931*
X0355364Y-0228019*
X0354742Y-0228276*
X0354207Y-0228687*
X0353797Y-0229221*
X0353539Y-0229844*
X0353451Y-0230512*
X0353539Y-023118*
X0353797Y-0231802*
X0353895Y-023193*
X0353721Y-0232283*
X034666*
X0346485Y-023193*
X0346584Y-0231802*
X0346842Y-023118*
X034693Y-0230512*
X0346842Y-0229844*
X0346584Y-0229221*
X0346174Y-0228687*
X0345639Y-0228276*
X0345016Y-0228019*
X0344348Y-0227931*
X034368Y-0228019*
X0343058Y-0228276*
X0342523Y-0228687*
X0342113Y-0229221*
X0341855Y-0229844*
X0341767Y-0230512*
X0341855Y-023118*
X0342113Y-0231802*
X0342211Y-023193*
X0342037Y-0232283*
X0334976*
X0334801Y-023193*
X03349Y-0231802*
X0335157Y-023118*
X0335245Y-0230512*
X0335157Y-0229844*
X03349Y-0229221*
X0334489Y-0228687*
X0333955Y-0228276*
X0333332Y-0228019*
X0332664Y-0227931*
X0331996Y-0228019*
X0331374Y-0228276*
X0330839Y-0228687*
X0330429Y-0229221*
X0330171Y-0229844*
X0330083Y-0230512*
X0330171Y-023118*
X0330429Y-0231802*
X0330527Y-023193*
X0330353Y-0232283*
X0323291*
X0323117Y-023193*
X0323216Y-0231802*
X0323474Y-023118*
X0323562Y-0230512*
X0323474Y-0229844*
X0323216Y-0229221*
X0322806Y-0228687*
X0322271Y-0228276*
X0321648Y-0228019*
X032098Y-0227931*
X0320312Y-0228019*
X031969Y-0228276*
X0319155Y-0228687*
X0318745Y-0229221*
X0318487Y-0229844*
X0318399Y-0230512*
X0318487Y-023118*
X0318745Y-0231802*
X0318843Y-023193*
X0318669Y-0232283*
X0311608*
X0311433Y-023193*
X0311532Y-0231802*
X0311789Y-023118*
X0311877Y-0230512*
X0311789Y-0229844*
X0311532Y-0229221*
X0311122Y-0228687*
X0310587Y-0228276*
X0309964Y-0228019*
X0309296Y-0227931*
X0308628Y-0228019*
X0308006Y-0228276*
X0307471Y-0228687*
X0307061Y-0229221*
X0306803Y-0229844*
X0306715Y-0230512*
X0306803Y-023118*
X0307061Y-0231802*
X0307159Y-023193*
X0306985Y-0232283*
X0299923*
X0299749Y-023193*
X0299848Y-0231802*
X0300106Y-023118*
X0300193Y-0230512*
X0300106Y-0229844*
X0299848Y-0229221*
X0299437Y-0228687*
X0298903Y-0228276*
X029828Y-0228019*
X0297612Y-0227931*
X0296944Y-0228019*
X0296322Y-0228276*
X0295787Y-0228687*
X0295377Y-0229221*
X0295119Y-0229844*
X0295031Y-0230512*
X0295119Y-023118*
X0295377Y-0231802*
X0295475Y-023193*
X0295301Y-0232283*
X028824*
X0288065Y-023193*
X0288164Y-0231802*
X0288422Y-023118*
X0288509Y-0230512*
X0288422Y-0229844*
X0288164Y-0229221*
X0287753Y-0228687*
X0287219Y-0228276*
X0286596Y-0228019*
X0285928Y-0227931*
X028526Y-0228019*
X0284638Y-0228276*
X0284103Y-0228687*
X0283693Y-0229221*
X0283435Y-0229844*
X0283347Y-0230512*
X0283435Y-023118*
X0283693Y-0231802*
X0283791Y-023193*
X0283617Y-0232283*
X0276555*
X0276381Y-023193*
X027648Y-0231802*
X0276737Y-023118*
X0276825Y-0230512*
X0276737Y-0229844*
X027648Y-0229221*
X0276069Y-0228687*
X0275535Y-0228276*
X0274912Y-0228019*
X0274244Y-0227931*
X0273576Y-0228019*
X0272954Y-0228276*
X0272419Y-0228687*
X0272009Y-0229221*
X0271751Y-0229844*
X0271663Y-0230512*
X0271751Y-023118*
X0272009Y-0231802*
X0272107Y-023193*
X0271933Y-0232283*
X0264871*
X0264697Y-023193*
X0264796Y-0231802*
X0265053Y-023118*
X0265141Y-0230512*
X0265053Y-0229844*
X0264796Y-0229221*
X0264385Y-0228687*
X0263851Y-0228276*
X0263228Y-0228019*
X026256Y-0227931*
X0261892Y-0228019*
X026127Y-0228276*
X0260735Y-0228687*
X0260325Y-0229221*
X0260067Y-0229844*
X0259979Y-0230512*
X0260067Y-023118*
X0260325Y-0231802*
X0260423Y-023193*
X0260249Y-0232283*
X0253187*
X0253013Y-023193*
X0253112Y-0231802*
X0253369Y-023118*
X0253457Y-0230512*
X0253369Y-0229844*
X0253112Y-0229221*
X0252701Y-0228687*
X0252167Y-0228276*
X0251544Y-0228019*
X0250876Y-0227931*
X0250208Y-0228019*
X0249586Y-0228276*
X0249051Y-0228687*
X0248641Y-0229221*
X0248383Y-0229844*
X0248295Y-0230512*
X0248383Y-023118*
X0248641Y-0231802*
X0248739Y-023193*
X0248565Y-0232283*
X0241503*
X0241329Y-023193*
X0241427Y-0231802*
X0241685Y-023118*
X0241773Y-0230512*
X0241685Y-0229844*
X0241427Y-0229221*
X0241017Y-0228687*
X0240483Y-0228276*
X023986Y-0228019*
X0239192Y-0227931*
X0238524Y-0228019*
X0237902Y-0228276*
X0237367Y-0228687*
X0236957Y-0229221*
X0236699Y-0229844*
X0236611Y-0230512*
X0236699Y-023118*
X0236957Y-0231802*
X0237055Y-023193*
X0236881Y-0232283*
X0229819*
X0229645Y-023193*
X0229744Y-0231802*
X0230001Y-023118*
X0230089Y-0230512*
X0230001Y-0229844*
X0229744Y-0229221*
X0229333Y-0228687*
X0228799Y-0228276*
X0228176Y-0228019*
X0227508Y-0227931*
X022684Y-0228019*
X0226218Y-0228276*
X0225683Y-0228687*
X0225273Y-0229221*
X0225015Y-0229844*
X0224927Y-0230512*
X0225015Y-023118*
X0225273Y-0231802*
X0225371Y-023193*
X0225197Y-0232283*
X0218135*
X0217961Y-023193*
X0218059Y-0231802*
X0218317Y-023118*
X0218405Y-0230512*
X0218317Y-0229844*
X0218059Y-0229221*
X0217649Y-0228687*
X0217115Y-0228276*
X0216492Y-0228019*
X0215824Y-0227931*
X0215156Y-0228019*
X0214534Y-0228276*
X0213999Y-0228687*
X0213589Y-0229221*
X0213331Y-0229844*
X0213243Y-0230512*
X0213331Y-023118*
X0213589Y-0231802*
X0213687Y-023193*
X0213513Y-0232283*
X0206451*
X0206277Y-023193*
X0206376Y-0231802*
X0206633Y-023118*
X0206721Y-0230512*
X0206633Y-0229844*
X0206376Y-0229221*
X0205965Y-0228687*
X0205431Y-0228276*
X0204808Y-0228019*
X020414Y-0227931*
X0203472Y-0228019*
X020285Y-0228276*
X0202315Y-0228687*
X0201905Y-0229221*
X0201647Y-0229844*
X0201559Y-0230512*
X0201647Y-023118*
X0201905Y-0231802*
X0202003Y-023193*
X0201829Y-0232283*
X0194767*
X0194593Y-023193*
X0194691Y-0231802*
X0194949Y-023118*
X0195037Y-0230512*
X0194949Y-0229844*
X0194691Y-0229221*
X0194281Y-0228687*
X0193747Y-0228276*
X0193124Y-0228019*
X0192456Y-0227931*
X0191788Y-0228019*
X0191166Y-0228276*
X0190631Y-0228687*
X0190221Y-0229221*
X0189963Y-0229844*
X0189875Y-0230512*
X0189963Y-023118*
X0190221Y-0231802*
X0190319Y-023193*
X0190145Y-0232283*
X0183083*
X0182909Y-023193*
X0183007Y-0231802*
X0183265Y-023118*
X0183353Y-0230512*
X0183265Y-0229844*
X0183007Y-0229221*
X0182597Y-0228687*
X0182063Y-0228276*
X018144Y-0228019*
X0180772Y-0227931*
X0180104Y-0228019*
X0179481Y-0228276*
X0178947Y-0228687*
X0178537Y-0229221*
X0178279Y-0229844*
X0178191Y-0230512*
X0178279Y-023118*
X0178537Y-0231802*
X0178635Y-023193*
X0178461Y-0232283*
X0171399*
X0171225Y-023193*
X0171323Y-0231802*
X0171581Y-023118*
X0171669Y-0230512*
X0171581Y-0229844*
X0171323Y-0229221*
X0170913Y-0228687*
X0170379Y-0228276*
X0169756Y-0228019*
X0169088Y-0227931*
X016842Y-0228019*
X0167798Y-0228276*
X0167263Y-0228687*
X0166853Y-0229221*
X0166595Y-0229844*
X0166507Y-0230512*
X0166595Y-023118*
X0166853Y-0231802*
X0166951Y-023193*
X0166777Y-0232283*
X0159715*
X0159541Y-023193*
X0159639Y-0231802*
X0159897Y-023118*
X0159985Y-0230512*
X0159897Y-0229844*
X0159639Y-0229221*
X0159229Y-0228687*
X0158695Y-0228276*
X0158072Y-0228019*
X0157404Y-0227931*
X0156736Y-0228019*
X0156114Y-0228276*
X0155579Y-0228687*
X0155169Y-0229221*
X0154911Y-0229844*
X0154823Y-0230512*
X0154911Y-023118*
X0155169Y-0231802*
X0155267Y-023193*
X0155093Y-0232283*
X0148031*
X0147857Y-023193*
X0147955Y-0231802*
X0148213Y-023118*
X0148301Y-0230512*
X0148213Y-0229844*
X0147955Y-0229221*
X0147545Y-0228687*
X0147011Y-0228276*
X0146388Y-0228019*
X014572Y-0227931*
X0145052Y-0228019*
X014443Y-0228276*
X0143895Y-0228687*
X0143485Y-0229221*
X0143227Y-0229844*
X0143139Y-0230512*
X0143227Y-023118*
X0143485Y-0231802*
X0143583Y-023193*
X0143409Y-0232283*
X0136347*
X0136173Y-023193*
X0136271Y-0231802*
X0136529Y-023118*
X0136617Y-0230512*
X0136529Y-0229844*
X0136271Y-0229221*
X0135861Y-0228687*
X0135327Y-0228276*
X0134704Y-0228019*
X0134036Y-0227931*
X0133368Y-0228019*
X0132746Y-0228276*
X0132211Y-0228687*
X0131801Y-0229221*
X0131543Y-0229844*
X0131455Y-0230512*
X0131543Y-023118*
X0131801Y-0231802*
X0131899Y-023193*
X0131725Y-0232283*
X0124663*
X0124489Y-023193*
X0124587Y-0231802*
X0124845Y-023118*
X0124933Y-0230512*
X0124845Y-0229844*
X0124587Y-0229221*
X0124177Y-0228687*
X0123643Y-0228276*
X012302Y-0228019*
X0122352Y-0227931*
X0121684Y-0228019*
X0121061Y-0228276*
X0120527Y-0228687*
X0120117Y-0229221*
X0119859Y-0229844*
X0119771Y-0230512*
X0119859Y-023118*
X0120117Y-0231802*
X0120215Y-023193*
X0120041Y-0232283*
X0112979*
X0112805Y-023193*
X0112903Y-0231802*
X0113161Y-023118*
X0113249Y-0230512*
X0113161Y-0229844*
X0112903Y-0229221*
X0112493Y-0228687*
X0111959Y-0228276*
X0111336Y-0228019*
X0110668Y-0227931*
X011Y-0228019*
X0109377Y-0228276*
X0108843Y-0228687*
X0108433Y-0229221*
X0108175Y-0229844*
X0108087Y-0230512*
X0108175Y-023118*
X0108433Y-0231802*
X0108531Y-023193*
X0108357Y-0232283*
X0107503*
Y-0123031*
X0107412Y-0122571*
X0107151Y-012218*
X0104198Y-0119227*
X0103807Y-0118966*
X0103347Y-0118875*
X0103346*
X0079725*
X0079724*
X0079264Y-0118966*
X0078873Y-0119227*
X0070367Y-0127733*
X0060039*
Y-0018701*
X0054134Y-0012795*
X0003937*
Y-0008174*
X0004331Y-0007989*
X0004844Y-0008202*
X0005512Y-000829*
X000618Y-0008202*
X0006802Y-0007944*
X0007337Y-0007534*
X0007747Y-0006999*
X0008005Y-0006377*
X0008093Y-0005709*
X0008005Y-0005041*
X0007747Y-0004418*
X0007649Y-000429*
X0007823Y-0003937*
X0014885*
G37*
G36*
X0016246Y-0107656D02*
X0016175Y-0107711D01*
X0015386Y-0108739*
X001489Y-0109936*
X0014721Y-0111221*
X001489Y-0112505*
X0015386Y-0113702*
X0015812Y-0114258*
X0019267Y-0110803*
X0019685Y-0111221*
X0020103Y-0110803*
X0023558Y-0114258*
X0023984Y-0113702*
X0024287Y-0112971*
X0024713*
X0025057Y-0113802*
X0025877Y-0114871*
X0026946Y-0115691*
X0028192Y-0116207*
X0029528Y-0116383*
X0030864Y-0116207*
X0032109Y-0115691*
X0032127Y-0115677*
X003248Y-0115851*
Y-0120369*
X0032127Y-0120544*
X0032109Y-0120529*
X0030864Y-0120014*
X0029528Y-0119838*
X0028192Y-0120014*
X0026946Y-0120529*
X0025877Y-012135*
X0025057Y-0122419*
X0024803Y-0123031*
X0024409*
X0024156Y-0122419*
X0023335Y-012135*
X0022266Y-0120529*
X0021021Y-0120014*
X0019685Y-0119838*
X0018349Y-0120014*
X0017104Y-0120529*
X0016035Y-012135*
X0015214Y-0122419*
X0014699Y-0123664*
X0014523Y-0125*
X0014699Y-0126336*
X0015214Y-0127581*
X0016035Y-012865*
X0017104Y-0129471*
X0018349Y-0129986*
X0019685Y-0130162*
X0021021Y-0129986*
X0022266Y-0129471*
X0023335Y-012865*
X0024156Y-0127581*
X0024409Y-0126969*
X0024803*
X0025057Y-0127581*
X0025877Y-012865*
X0026946Y-0129471*
X0028192Y-0129986*
X0029528Y-0130162*
X0030864Y-0129986*
X0032109Y-0129471*
X0032804Y-0128937*
X0060039*
X0070866*
X0079724Y-0120079*
X0103347*
X0106299Y-0123031*
Y-0232283*
X0101295*
X0101121Y-023193*
X0101219Y-0231802*
X0101477Y-023118*
X0101565Y-0230512*
X0101477Y-0229844*
X0101219Y-0229221*
X0100809Y-0228687*
X0100275Y-0228276*
X0099652Y-0228019*
X0098984Y-0227931*
X0098316Y-0228019*
X0097693Y-0228276*
X0097159Y-0228687*
X0096749Y-0229221*
X0096491Y-0229844*
X0096403Y-0230512*
X0096491Y-023118*
X0096749Y-0231802*
X0096847Y-023193*
X0096673Y-0232283*
X0089611*
X0089437Y-023193*
X0089535Y-0231802*
X0089793Y-023118*
X0089881Y-0230512*
X0089793Y-0229844*
X0089535Y-0229221*
X0089125Y-0228687*
X0088591Y-0228276*
X0087968Y-0228019*
X00873Y-0227931*
X0086632Y-0228019*
X0086009Y-0228276*
X0085475Y-0228687*
X0085065Y-0229221*
X0084807Y-0229844*
X0084719Y-0230512*
X0084807Y-023118*
X0085065Y-0231802*
X0085163Y-023193*
X0084989Y-0232283*
X0077927*
X0077753Y-023193*
X0077851Y-0231802*
X0078109Y-023118*
X0078197Y-0230512*
X0078109Y-0229844*
X0077851Y-0229221*
X0077441Y-0228687*
X0076907Y-0228276*
X0076284Y-0228019*
X0075616Y-0227931*
X0074948Y-0228019*
X0074325Y-0228276*
X0073791Y-0228687*
X0073381Y-0229221*
X0073123Y-0229844*
X0073035Y-0230512*
X0073123Y-023118*
X0073381Y-0231802*
X0073479Y-023193*
X0073305Y-0232283*
X0066243*
X0066069Y-023193*
X0066167Y-0231802*
X0066425Y-023118*
X0066513Y-0230512*
X0066425Y-0229844*
X0066167Y-0229221*
X0065757Y-0228687*
X0065223Y-0228276*
X00646Y-0228019*
X0063932Y-0227931*
X0063264Y-0228019*
X0062641Y-0228276*
X0062107Y-0228687*
X0061697Y-0229221*
X0061439Y-0229844*
X0061351Y-0230512*
X0061439Y-023118*
X0061697Y-0231802*
X0061795Y-023193*
X0061621Y-0232283*
X0054559*
X0054385Y-023193*
X0054483Y-0231802*
X0054741Y-023118*
X0054829Y-0230512*
X0054741Y-0229844*
X0054483Y-0229221*
X0054073Y-0228687*
X0053539Y-0228276*
X0052916Y-0228019*
X0052248Y-0227931*
X005158Y-0228019*
X0050957Y-0228276*
X0050423Y-0228687*
X0050013Y-0229221*
X0049755Y-0229844*
X0049667Y-0230512*
X0049755Y-023118*
X0050013Y-0231802*
X0050111Y-023193*
X0049937Y-0232283*
X0042875*
X0042701Y-023193*
X0042799Y-0231802*
X0043057Y-023118*
X0043145Y-0230512*
X0043057Y-0229844*
X0042799Y-0229221*
X0042389Y-0228687*
X0041854Y-0228276*
X0041232Y-0228019*
X0040564Y-0227931*
X0039896Y-0228019*
X0039273Y-0228276*
X0038739Y-0228687*
X0038328Y-0229221*
X0038071Y-0229844*
X0037983Y-0230512*
X0038071Y-023118*
X0038328Y-0231802*
X0038427Y-023193*
X0038253Y-0232283*
X0031191*
X0031017Y-023193*
X0031115Y-0231802*
X0031373Y-023118*
X0031461Y-0230512*
X0031373Y-0229844*
X0031115Y-0229221*
X0030705Y-0228687*
X003017Y-0228276*
X0029548Y-0228019*
X002888Y-0227931*
X0028212Y-0228019*
X0027589Y-0228276*
X0027055Y-0228687*
X0026645Y-0229221*
X0026387Y-0229844*
X0026299Y-0230512*
X0026387Y-023118*
X0026645Y-0231802*
X0026743Y-023193*
X0026569Y-0232283*
X0019507*
X0019333Y-023193*
X0019431Y-0231802*
X0019689Y-023118*
X0019777Y-0230512*
X0019689Y-0229844*
X0019431Y-0229221*
X0019021Y-0228687*
X0018486Y-0228276*
X0017864Y-0228019*
X0017196Y-0227931*
X0016528Y-0228019*
X0015905Y-0228276*
X0015371Y-0228687*
X0014961Y-0229221*
X0014703Y-0229844*
X0014615Y-0230512*
X0014703Y-023118*
X0014961Y-0231802*
X0015059Y-023193*
X0014885Y-0232283*
X0007823*
X0007649Y-023193*
X0007747Y-0231802*
X0008005Y-023118*
X0008093Y-0230512*
X0008005Y-0229844*
X0007747Y-0229221*
X0007337Y-0228687*
X0006802Y-0228276*
X000618Y-0228019*
X0005512Y-0227931*
X0004844Y-0228019*
X0004331Y-0228231*
X0003937Y-0228046*
Y-0107283*
X0016119*
X0016246Y-0107656*
G37*
G36*
X0372047Y-0136811D02*
X036794D01*
X0367747Y-0136576*
X0366593Y-0135629*
X0365277Y-0134925*
X0363848Y-0134492*
X0362362Y-0134345*
X0360876Y-0134492*
X0359448Y-0134925*
X0358131Y-0135629*
X0356977Y-0136576*
X0356784Y-0136811*
X0332677*
Y-0008288*
X0333332Y-0008202*
X0333955Y-0007944*
X0334489Y-0007534*
X03349Y-0006999*
X0335157Y-0006377*
X0335245Y-0005709*
X0335157Y-0005041*
X03349Y-0004418*
X0334489Y-0003884*
X0333955Y-0003473*
X0333332Y-0003215*
X0332677Y-0003129*
Y-0001969*
X0372047*
Y-0136811*
G37*
%LNrobocontroller-2*%
%LPC*%
G36*
X0326362Y-0140012D02*
X032534Y-0140146D01*
X0324388Y-0140541*
X032357Y-0141168*
X0322942Y-0141986*
X0322548Y-0142938*
X0322413Y-0143961*
X0322548Y-0144983*
X0322942Y-0145935*
X032357Y-0146753*
X0324388Y-0147381*
X032534Y-0147775*
X0326362Y-014791*
X0327384Y-0147775*
X0328337Y-0147381*
X0329155Y-0146753*
X0329782Y-0145935*
X0330177Y-0144983*
X0330311Y-0143961*
X0330177Y-0142938*
X0329782Y-0141986*
X0329155Y-0141168*
X0328337Y-0140541*
X0327384Y-0140146*
X0326362Y-0140012*
G37*
G36*
X0161221Y-0139545D02*
X0160552Y-0139633D01*
X015993Y-0139891*
X0159395Y-0140301*
X0158985Y-0140835*
X0158727Y-0141458*
X0158639Y-0142126*
X0158727Y-0142794*
X0158985Y-0143417*
X0159395Y-0143951*
X015959Y-01441*
X0159641Y-0144491*
X0159576Y-0144576*
X0159318Y-0145198*
X015923Y-0145866*
X0159318Y-0146534*
X0159576Y-0147157*
X0159986Y-0147691*
X0160521Y-0148101*
X0161143Y-0148359*
X0161811Y-0148447*
X0162479Y-0148359*
X0163102Y-0148101*
X0163636Y-0147691*
X0164046Y-0147157*
X0164304Y-0146534*
X0164392Y-0145866*
X0164304Y-0145198*
X0164046Y-0144576*
X0163636Y-0144041*
X0163221Y-0143722*
X0163456Y-0143417*
X0163714Y-0142794*
X0163802Y-0142126*
X0163714Y-0141458*
X0163456Y-0140835*
X0163046Y-0140301*
X0162511Y-0139891*
X0161889Y-0139633*
X0161221Y-0139545*
G37*
G36*
X0180905Y-0143285D02*
X0180237Y-0143373D01*
X0179615Y-0143631*
X017908Y-0144041*
X017867Y-0144576*
X0178412Y-0145198*
X0178324Y-0145866*
X0178412Y-0146534*
X017867Y-0147157*
X017908Y-0147691*
X0179615Y-0148101*
X0180237Y-0148359*
X0180905Y-0148447*
X0181574Y-0148359*
X0182196Y-0148101*
X0182731Y-0147691*
X0183141Y-0147157*
X0183399Y-0146534*
X0183487Y-0145866*
X0183399Y-0145198*
X0183141Y-0144576*
X0182731Y-0144041*
X0182196Y-0143631*
X0181574Y-0143373*
X0180905Y-0143285*
G37*
G36*
X0245669Y-0141513D02*
X0245001Y-0141601D01*
X0244379Y-0141859*
X0243844Y-0142269*
X0243434Y-0142804*
X0243176Y-0143426*
X0243088Y-0144095*
X0243176Y-0144763*
X0243434Y-0145385*
X0243844Y-014592*
X0244379Y-014633*
X0245001Y-0146588*
X0245669Y-0146676*
X0246337Y-0146588*
X024696Y-014633*
X0247494Y-014592*
X0247905Y-0145385*
X0248163Y-0144763*
X024825Y-0144095*
X0248163Y-0143426*
X0247905Y-0142804*
X0247494Y-0142269*
X024696Y-0141859*
X0246337Y-0141601*
X0245669Y-0141513*
G37*
G36*
X0292323Y-0139939D02*
X0291655Y-0140026D01*
X0291032Y-0140284*
X0290498Y-0140695*
X0290088Y-0141229*
X028983Y-0141852*
X0289742Y-014252*
X028983Y-0143188*
X0290088Y-014381*
X0290498Y-0144345*
X0291032Y-0144755*
X0291655Y-0145013*
X0292323Y-0145101*
X0292991Y-0145013*
X0293613Y-0144755*
X0294148Y-0144345*
X0294558Y-014381*
X0294816Y-0143188*
X0294904Y-014252*
X0294816Y-0141852*
X0294558Y-0141229*
X0294148Y-0140695*
X0293613Y-0140284*
X0292991Y-0140026*
X0292323Y-0139939*
G37*
G36*
X0213386Y-0140529D02*
X0212718Y-0140617D01*
X0212095Y-0140875*
X0211561Y-0141285*
X0211151Y-014182*
X0210893Y-0142442*
X0210805Y-014311*
X0210893Y-0143778*
X0211151Y-0144401*
X0211561Y-0144935*
X0212095Y-0145346*
X0212718Y-0145603*
X0213386Y-0145691*
X0214054Y-0145603*
X0214676Y-0145346*
X0215211Y-0144935*
X0215621Y-0144401*
X0215879Y-0143778*
X0215967Y-014311*
X0215879Y-0142442*
X0215621Y-014182*
X0215211Y-0141285*
X0214676Y-0140875*
X0214054Y-0140617*
X0213386Y-0140529*
G37*
G36*
X0118551Y-0141513D02*
X0117883Y-0141601D01*
X0117261Y-0141859*
X0116726Y-0142269*
X0116316Y-0142804*
X0116058Y-0143426*
X011597Y-0144095*
X0116058Y-0144763*
X0116316Y-0145385*
X0116726Y-014592*
X0117261Y-014633*
X0117883Y-0146588*
X0118551Y-0146676*
X0119219Y-0146588*
X0119842Y-014633*
X0120376Y-014592*
X0120786Y-0145385*
X0121044Y-0144763*
X0121132Y-0144095*
X0121044Y-0143426*
X0120786Y-0142804*
X0120376Y-0142269*
X0119842Y-0141859*
X0119219Y-0141601*
X0118551Y-0141513*
G37*
G36*
X0196653Y-0145233D02*
X0195809Y-0145401D01*
X0195092Y-014588*
X0194882Y-0146195*
X0194488*
X0194278Y-014588*
X0193561Y-0145401*
X0192717Y-0145233*
X0191872Y-0145401*
X0191155Y-014588*
X0190945Y-0146195*
X0190551*
X0190341Y-014588*
X0189624Y-0145401*
X0188779Y-0145233*
X0187935Y-0145401*
X0187218Y-014588*
X018674Y-0146596*
X0186572Y-0147441*
X018674Y-0148286*
X0187218Y-0149002*
X0187533Y-0149213*
Y-0149606*
X0187218Y-0149817*
X018674Y-0150533*
X0186572Y-0151378*
X018674Y-0152223*
X0187218Y-0152939*
X0187533Y-015315*
Y-0153543*
X0187218Y-0153754*
X018674Y-015447*
X0186572Y-0155315*
X018674Y-015616*
X0187218Y-0156876*
X0187533Y-0157087*
Y-015748*
X0187218Y-0157691*
X018674Y-0158407*
X0186572Y-0159252*
X018674Y-0160097*
X0187218Y-0160813*
X0187935Y-0161292*
X0188779Y-016146*
X0189624Y-0161292*
X0190341Y-0160813*
X0190551Y-0160498*
X0190945*
X0191155Y-0160813*
X0191872Y-0161292*
X0192717Y-016146*
X0193561Y-0161292*
X0194278Y-0160813*
X0194488Y-0160498*
X0194882*
X0195092Y-0160813*
X0195809Y-0161292*
X0196653Y-016146*
X0197498Y-0161292*
X0198215Y-0160813*
X0198693Y-0160097*
X0198861Y-0159252*
X0198693Y-0158407*
X0198215Y-0157691*
X01979Y-015748*
Y-0157087*
X0198215Y-0156876*
X0198693Y-015616*
X0198861Y-0155315*
X0198693Y-015447*
X0198215Y-0153754*
X01979Y-0153543*
Y-015315*
X0198215Y-0152939*
X0198693Y-0152223*
X0198861Y-0151378*
X0198693Y-0150533*
X0198215Y-0149817*
X01979Y-0149606*
Y-0149213*
X0198215Y-0149002*
X0198693Y-0148286*
X0198861Y-0147441*
X0198693Y-0146596*
X0198215Y-014588*
X0197498Y-0145401*
X0196653Y-0145233*
G37*
G36*
X0220472Y-014486D02*
X0219804Y-0144948D01*
X0219182Y-0145206*
X0218647Y-0145616*
X0218237Y-014615*
X0217979Y-0146773*
X0217891Y-0147441*
X0217979Y-0148109*
X0218237Y-0148732*
X0218647Y-0149266*
X0219182Y-0149676*
X0219804Y-0149934*
X0220472Y-0150022*
X0221141Y-0149934*
X0221763Y-0149676*
X0222298Y-0149266*
X0222708Y-0148732*
X0222966Y-0148109*
X0223054Y-0147441*
X0222966Y-0146773*
X0222708Y-014615*
X0222298Y-0145616*
X0221763Y-0145206*
X0221141Y-0144948*
X0220472Y-014486*
G37*
G36*
X0203937Y-0153128D02*
X0203269Y-0153216D01*
X0202646Y-0153473*
X0202112Y-0153884*
X0201702Y-0154418*
X0201444Y-0155041*
X0201356Y-0155709*
X0201444Y-0156377*
X0201702Y-0156999*
X0202112Y-0157534*
X0202646Y-0157944*
X0203269Y-0158202*
X0203937Y-015829*
X0204605Y-0158202*
X0205228Y-0157944*
X0205762Y-0157534*
X0206172Y-0156999*
X020643Y-0156377*
X0206518Y-0155709*
X020643Y-0155041*
X0206172Y-0154418*
X0205762Y-0153884*
X0205228Y-0153473*
X0204605Y-0153216*
X0203937Y-0153128*
G37*
G36*
X0173622Y-0153324D02*
X0172954Y-0153412D01*
X0172332Y-015367*
X0171797Y-015408*
X0171387Y-0154615*
X0171129Y-0155237*
X0171041Y-0155905*
X0171129Y-0156574*
X0171387Y-0157196*
X0171797Y-0157731*
X0172332Y-0158141*
X0172954Y-0158399*
X0173622Y-0158487*
X017429Y-0158399*
X0174913Y-0158141*
X0175447Y-0157731*
X0175857Y-0157196*
X0176115Y-0156574*
X0176203Y-0155905*
X0176115Y-0155237*
X0175857Y-0154615*
X0175447Y-015408*
X0174913Y-015367*
X017429Y-0153412*
X0173622Y-0153324*
G37*
G36*
X0295472Y-0155883D02*
X0294804Y-0155971D01*
X0294181Y-0156229*
X0293647Y-0156639*
X0293236Y-0157174*
X0292979Y-0157796*
X0292891Y-0158464*
X0292979Y-0159132*
X0293236Y-0159755*
X0293647Y-0160289*
X0294181Y-01607*
X0294804Y-0160957*
X0295472Y-0161045*
X029614Y-0160957*
X0296762Y-01607*
X0297297Y-0160289*
X0297707Y-0159755*
X0297965Y-0159132*
X0298053Y-0158464*
X0297965Y-0157796*
X0297707Y-0157174*
X0297297Y-0156639*
X0296762Y-0156229*
X029614Y-0155971*
X0295472Y-0155883*
G37*
G36*
X0170472Y-014545D02*
X0169804Y-0145538D01*
X0169182Y-0145796*
X0168647Y-0146206*
X0168237Y-0146741*
X0167979Y-0147363*
X0167891Y-0148031*
X0167979Y-0148699*
X0168237Y-0149322*
X0168647Y-0149857*
X0169182Y-0150267*
X0169804Y-0150525*
X0170472Y-0150613*
X0171141Y-0150525*
X0171763Y-0150267*
X0172298Y-0149857*
X0172708Y-0149322*
X0172966Y-0148699*
X0173054Y-0148031*
X0172966Y-0147363*
X0172708Y-0146741*
X0172298Y-0146206*
X0171763Y-0145796*
X0171141Y-0145538*
X0170472Y-014545*
G37*
G36*
X0265354Y-0146238D02*
X0264686Y-0146326D01*
X0264064Y-0146584*
X0263529Y-0146994*
X0263119Y-0147528*
X0262861Y-0148151*
X0262773Y-0148819*
X0262861Y-0149487*
X0263119Y-015011*
X0263529Y-0150644*
X0264064Y-0151054*
X0264686Y-0151312*
X0265354Y-01514*
X0266022Y-0151312*
X0266645Y-0151054*
X0267179Y-0150644*
X026759Y-015011*
X0267847Y-0149487*
X0267935Y-0148819*
X0267847Y-0148151*
X026759Y-0147528*
X0267179Y-0146994*
X0266645Y-0146584*
X0266022Y-0146326*
X0265354Y-0146238*
G37*
G36*
X0166535Y-0151946D02*
X0165867Y-0152034D01*
X0165245Y-0152292*
X016471Y-0152702*
X01643Y-0153237*
X0164042Y-0153859*
X0163954Y-0154528*
X0164042Y-0155196*
X01643Y-0155818*
X016471Y-0156353*
X0165245Y-0156763*
X0165867Y-0157021*
X0166535Y-0157109*
X0167203Y-0157021*
X0167826Y-0156763*
X0168361Y-0156353*
X0168771Y-0155818*
X0169029Y-0155196*
X0169117Y-0154528*
X0169029Y-0153859*
X0168771Y-0153237*
X0168361Y-0152702*
X0167826Y-0152292*
X0167203Y-0152034*
X0166535Y-0151946*
G37*
G36*
X0348862Y-0142987D02*
X0347697Y-0143102D01*
X0346576Y-0143442*
X0345543Y-0143994*
X0344638Y-0144737*
X0343895Y-0145642*
X0343343Y-0146675*
X0343003Y-0147795*
X0342889Y-0148961*
X0343003Y-0150126*
X0343343Y-0151247*
X0343895Y-0152279*
X0344638Y-0153185*
X0345543Y-0153928*
X0346576Y-015448*
X0347697Y-015482*
X0348862Y-0154934*
X0350028Y-015482*
X0351148Y-015448*
X0352181Y-0153928*
X0353086Y-0153185*
X0353829Y-0152279*
X0354381Y-0151247*
X0354721Y-0150126*
X0354836Y-0148961*
X0354721Y-0147795*
X0354381Y-0146675*
X0353829Y-0145642*
X0353086Y-0144737*
X0352181Y-0143994*
X0351148Y-0143442*
X0350028Y-0143102*
X0348862Y-0142987*
G37*
G36*
X0168701Y-0129506D02*
X0168033Y-0129593D01*
X016741Y-0129851*
X0166876Y-0130262*
X0166465Y-0130796*
X0166208Y-0131419*
X016612Y-0132087*
X0166208Y-0132755*
X0166465Y-0133377*
X0166876Y-0133912*
X016741Y-0134322*
X0168033Y-013458*
X0168701Y-0134668*
X0169369Y-013458*
X0169991Y-0134322*
X0170526Y-0133912*
X0170936Y-0133377*
X0171194Y-0132755*
X0171282Y-0132087*
X0171194Y-0131419*
X0170936Y-0130796*
X0170526Y-0130262*
X0169991Y-0129851*
X0169369Y-0129593*
X0168701Y-0129506*
G37*
G36*
X0213189Y-0129505D02*
X0212521Y-0129593D01*
X0211898Y-0129851*
X0211363Y-0130261*
X0210953Y-0130796*
X0210695Y-0131418*
X0210607Y-0132086*
X0210695Y-0132754*
X0210953Y-0133377*
X0211363Y-0133912*
X0211898Y-0134322*
X0212521Y-013458*
X0213189Y-0134668*
X0213857Y-013458*
X0214479Y-0134322*
X0215014Y-0133912*
X0215424Y-0133377*
X0215682Y-0132754*
X021577Y-0132086*
X0215682Y-0131418*
X0215424Y-0130796*
X0215014Y-0130261*
X0214479Y-0129851*
X0213857Y-0129593*
X0213189Y-0129505*
G37*
G36*
X0287953Y-0126342D02*
X0286874Y-0126484D01*
X0285868Y-0126901*
X0285004Y-0127564*
X0284342Y-0128427*
X0283925Y-0129433*
X0283783Y-0130512*
X0283925Y-0131591*
X0284342Y-0132597*
X0285004Y-013346*
X0285868Y-0134123*
X0286874Y-0134539*
X0287953Y-0134681*
X0289032Y-0134539*
X0290037Y-0134123*
X0290901Y-013346*
X0291564Y-0132597*
X029198Y-0131591*
X0292122Y-0130512*
X029198Y-0129433*
X0291564Y-0128427*
X0290901Y-0127564*
X0290037Y-0126901*
X0289032Y-0126484*
X0287953Y-0126342*
G37*
G36*
X0267953D02*
X0266874Y-0126484D01*
X0265868Y-0126901*
X0265004Y-0127564*
X0264342Y-0128427*
X0263925Y-0129433*
X0263783Y-0130512*
X0263925Y-0131591*
X0264342Y-0132597*
X0265004Y-013346*
X0265868Y-0134123*
X0266874Y-0134539*
X0267953Y-0134681*
X0269032Y-0134539*
X0270038Y-0134123*
X0270901Y-013346*
X0271564Y-0132597*
X027198Y-0131591*
X0272122Y-0130512*
X027198Y-0129433*
X0271564Y-0128427*
X0270901Y-0127564*
X0270038Y-0126901*
X0269032Y-0126484*
X0267953Y-0126342*
G37*
G36*
X0277953D02*
X0276874Y-0126484D01*
X0275868Y-0126901*
X0275005Y-0127564*
X0274342Y-0128427*
X0273925Y-0129433*
X0273783Y-0130512*
X0273925Y-0131591*
X0274342Y-0132597*
X0275005Y-013346*
X0275868Y-0134123*
X0276874Y-0134539*
X0277953Y-0134681*
X0279032Y-0134539*
X0280037Y-0134123*
X0280901Y-013346*
X0281564Y-0132597*
X028198Y-0131591*
X0282122Y-0130512*
X028198Y-0129433*
X0281564Y-0128427*
X0280901Y-0127564*
X0280037Y-0126901*
X0279032Y-0126484*
X0277953Y-0126342*
G37*
G36*
X0294782Y-0128176D02*
X0294514Y-0128526D01*
X0294117Y-0129484*
X0293982Y-0130512*
X0294117Y-013154*
X0294514Y-0132497*
X0294782Y-0132847*
X0297118Y-0130512*
X0294782Y-0128176*
G37*
G36*
X0301123D02*
X0298788Y-0130512D01*
X0301123Y-0132847*
X0301392Y-0132497*
X0301788Y-013154*
X0301924Y-0130512*
X0301788Y-0129484*
X0301392Y-0128526*
X0301123Y-0128176*
G37*
G36*
X0262087Y-0126378D02*
X0253819D01*
Y-0134646*
X0262087*
Y-0126378*
G37*
G36*
X0297953Y-0131347D02*
X0295617Y-0133682D01*
X0295967Y-0133951*
X0296925Y-0134347*
X0297953Y-0134483*
X029898Y-0134347*
X0299938Y-0133951*
X0300288Y-0133682*
X0297953Y-0131347*
G37*
G36*
X0238779Y-0136198D02*
X0238111Y-0136286D01*
X0237489Y-0136544*
X0236954Y-0136954*
X0236544Y-0137489*
X0236286Y-0138111*
X0236198Y-0138779*
X0236286Y-0139448*
X0236544Y-014007*
X0236954Y-0140605*
X0237489Y-0141015*
X0238111Y-0141273*
X0238779Y-0141361*
X0239448Y-0141273*
X024007Y-0141015*
X0240605Y-0140605*
X0241015Y-014007*
X0241273Y-0139448*
X0241361Y-0138779*
X0241273Y-0138111*
X0241015Y-0137489*
X0240605Y-0136954*
X024007Y-0136544*
X0239448Y-0136286*
X0238779Y-0136198*
G37*
G36*
X0258465Y-013797D02*
X0257797Y-0138058D01*
X0257174Y-0138316*
X0256639Y-0138726*
X0256229Y-0139261*
X0255971Y-0139883*
X0255883Y-0140551*
X0255971Y-0141219*
X0256229Y-0141842*
X0256639Y-0142376*
X0257174Y-0142787*
X0257797Y-0143044*
X0258465Y-0143132*
X0259133Y-0143044*
X0259755Y-0142787*
X026029Y-0142376*
X02607Y-0141842*
X0260958Y-0141219*
X0261046Y-0140551*
X0260958Y-0139883*
X02607Y-0139261*
X026029Y-0138726*
X0259755Y-0138316*
X0259133Y-0138058*
X0258465Y-013797*
G37*
G36*
X015315Y-0139742D02*
X0152482Y-013983D01*
X0151859Y-0140087*
X0151324Y-0140498*
X0150914Y-0141032*
X0150656Y-0141655*
X0150568Y-0142323*
X0150656Y-0142991*
X0150759Y-014324*
X0150436Y-0143488*
X015011Y-0143237*
X0149487Y-0142979*
X0148819Y-0142891*
X0148151Y-0142979*
X0147528Y-0143237*
X0146994Y-0143647*
X0146584Y-0144182*
X0146326Y-0144804*
X0146238Y-0145472*
X0146326Y-0146141*
X0146584Y-0146763*
X0146994Y-0147298*
X0147528Y-0147708*
X0148151Y-0147966*
X0148819Y-0148054*
X0149487Y-0147966*
X015011Y-0147708*
X0150644Y-0147298*
X0151054Y-0146763*
X0151312Y-0146141*
X01514Y-0145472*
X0151312Y-0144804*
X0151209Y-0144556*
X0151532Y-0144307*
X0151859Y-0144558*
X0152482Y-0144816*
X015315Y-0144904*
X0153818Y-0144816*
X015444Y-0144558*
X0154975Y-0144148*
X0155385Y-0143613*
X0155643Y-0142991*
X0155731Y-0142323*
X0155643Y-0141655*
X0155385Y-0141032*
X0154975Y-0140498*
X015444Y-0140087*
X0153818Y-013983*
X015315Y-0139742*
G37*
G36*
X0193504Y-0130883D02*
X0192836Y-0130971D01*
X0192213Y-0131229*
X0191679Y-0131639*
X0191269Y-0132174*
X0191011Y-0132797*
X0190923Y-0133465*
X0191011Y-0134133*
X0191269Y-0134755*
X0191679Y-013529*
X0192213Y-01357*
X0192836Y-0135958*
X0193504Y-0136046*
X0194172Y-0135958*
X0194794Y-01357*
X0195329Y-013529*
X0195739Y-0134755*
X0195997Y-0134133*
X0196085Y-0133465*
X0195997Y-0132797*
X0195739Y-0132174*
X0195329Y-0131639*
X0194794Y-0131229*
X0194172Y-0130971*
X0193504Y-0130883*
G37*
G36*
X0326362Y-0131011D02*
X032534Y-0131146D01*
X0324388Y-0131541*
X032357Y-0132168*
X0322942Y-0132986*
X0322548Y-0133939*
X0322413Y-0134961*
X0322548Y-0135983*
X0322942Y-0136935*
X032357Y-0137753*
X0324388Y-0138381*
X032534Y-0138775*
X0326362Y-013891*
X0327384Y-0138775*
X0328337Y-0138381*
X0329155Y-0137753*
X0329782Y-0136935*
X0330177Y-0135983*
X0330311Y-0134961*
X0330177Y-0133939*
X0329782Y-0132986*
X0329155Y-0132168*
X0328337Y-0131541*
X0327384Y-0131146*
X0326362Y-0131011*
G37*
G36*
X0225Y-0133049D02*
X0224332Y-0133137D01*
X0223709Y-0133395*
X0223175Y-0133805*
X0222765Y-0134339*
X0222507Y-0134962*
X0222419Y-013563*
X0222507Y-0136298*
X0222765Y-013692*
X0223175Y-0137455*
X0223709Y-0137865*
X0224332Y-0138123*
X0225Y-0138211*
X0225668Y-0138123*
X0226291Y-0137865*
X0226825Y-0137455*
X0227235Y-013692*
X0227493Y-0136298*
X0227581Y-013563*
X0227493Y-0134962*
X0227235Y-0134339*
X0226825Y-0133805*
X0226291Y-0133395*
X0225668Y-0133137*
X0225Y-0133049*
G37*
G36*
X0251772Y-019171D02*
X0251104Y-0191798D01*
X0250481Y-0192056*
X0249946Y-0192466*
X0249536Y-0193001*
X0249278Y-0193623*
X024919Y-0194291*
X0249278Y-0194959*
X0249536Y-0195582*
X0249946Y-0196116*
X0250481Y-0196527*
X0251104Y-0196784*
X0251772Y-0196872*
X025244Y-0196784*
X0253062Y-0196527*
X0253597Y-0196116*
X0254007Y-0195582*
X0254265Y-0194959*
X0254353Y-0194291*
X0254265Y-0193623*
X0254007Y-0193001*
X0253597Y-0192466*
X0253062Y-0192056*
X025244Y-0191798*
X0251772Y-019171*
G37*
G36*
X0203543Y-0193482D02*
X0202875Y-019357D01*
X0202253Y-0193828*
X0201718Y-0194238*
X0201308Y-0194772*
X020105Y-0195395*
X0200962Y-0196063*
X020105Y-0196731*
X0201308Y-0197353*
X0201718Y-0197888*
X0202253Y-0198298*
X0202875Y-0198556*
X0203543Y-0198644*
X0204211Y-0198556*
X0204834Y-0198298*
X0205368Y-0197888*
X0205779Y-0197353*
X0206036Y-0196731*
X0206124Y-0196063*
X0206036Y-0195395*
X0205779Y-0194772*
X0205368Y-0194238*
X0204834Y-0193828*
X0204211Y-019357*
X0203543Y-0193482*
G37*
G36*
X0118551Y-01986D02*
X0117883Y-0198688D01*
X0117261Y-0198946*
X0116726Y-0199356*
X0116316Y-019989*
X0116058Y-0200513*
X011597Y-0201181*
X0116058Y-0201849*
X0116316Y-0202472*
X0116726Y-0203006*
X0117261Y-0203416*
X0117883Y-0203674*
X0118551Y-0203762*
X0119219Y-0203674*
X0119842Y-0203416*
X0120376Y-0203006*
X0120786Y-0202472*
X0121044Y-0201849*
X0121132Y-0201181*
X0121044Y-0200513*
X0120786Y-019989*
X0120376Y-0199356*
X0119842Y-0198946*
X0119219Y-0198688*
X0118551Y-01986*
G37*
G36*
X027874Y-0194269D02*
X0278072Y-0194357D01*
X027745Y-0194615*
X0276915Y-0195025*
X0276505Y-019556*
X0276247Y-0196182*
X0276159Y-019685*
X0276247Y-0197518*
X0276505Y-0198141*
X0276915Y-0198676*
X027745Y-0199086*
X0278072Y-0199344*
X027874Y-0199432*
X0279408Y-0199344*
X0280031Y-0199086*
X0280565Y-0198676*
X0280976Y-0198141*
X0281233Y-0197518*
X0281321Y-019685*
X0281233Y-0196182*
X0280976Y-019556*
X0280565Y-0195025*
X0280031Y-0194615*
X0279408Y-0194357*
X027874Y-0194269*
G37*
G36*
X0259449Y-0182261D02*
X0258781Y-0182349D01*
X0258158Y-0182607*
X0257624Y-0183017*
X0257213Y-0183552*
X0256956Y-0184175*
X0256868Y-0184843*
X0256956Y-0185511*
X0257213Y-0186133*
X0257624Y-0186668*
X0258158Y-0187078*
X0258781Y-0187336*
X0259449Y-0187424*
X0260117Y-0187336*
X0260739Y-0187078*
X0261274Y-0186668*
X0261684Y-0186133*
X0261942Y-0185511*
X026203Y-0184843*
X0261942Y-0184175*
X0261684Y-0183552*
X0261274Y-0183017*
X0260739Y-0182607*
X0260117Y-0182349*
X0259449Y-0182261*
G37*
G36*
X0334685Y-0191979D02*
X0333683Y-0192111D01*
X0332749Y-0192497*
X0331947Y-0193113*
X0331332Y-0193914*
X0330945Y-0194848*
X0330551*
X0330164Y-0193914*
X0329549Y-0193113*
X0328747Y-0192497*
X0327813Y-0192111*
X0326811Y-0191979*
X0325809Y-0192111*
X0324875Y-0192497*
X0324073Y-0193113*
X0323458Y-0193914*
X0323071Y-0194848*
X0322939Y-019585*
X0323071Y-0196853*
X0323458Y-0197786*
X0324073Y-0198588*
X0324875Y-0199203*
X0325809Y-019959*
X0326811Y-0199722*
X0327813Y-019959*
X0328747Y-0199203*
X0329549Y-0198588*
X0330164Y-0197786*
X0330551Y-0196853*
X0330945*
X0331332Y-0197786*
X0331947Y-0198588*
X0332749Y-0199203*
X0333683Y-019959*
X0334685Y-0199722*
X0335687Y-019959*
X0336621Y-0199203*
X0337423Y-0198588*
X0338038Y-0197786*
X0338425Y-0196853*
X0338557Y-019585*
X0338425Y-0194848*
X0338038Y-0193914*
X0337423Y-0193113*
X0336621Y-0192497*
X0335687Y-0192111*
X0334685Y-0191979*
G37*
G36*
X0191535Y-0189348D02*
X0190867Y-0189436D01*
X0190245Y-0189694*
X018971Y-0190104*
X01893Y-0190639*
X0189042Y-0191261*
X0188954Y-0191929*
X0189042Y-0192597*
X01893Y-019322*
X018971Y-0193754*
X0190245Y-0194165*
X0190867Y-0194422*
X0191535Y-019451*
X0192203Y-0194422*
X0192826Y-0194165*
X0193361Y-0193754*
X0193771Y-019322*
X0194029Y-0192597*
X0194117Y-0191929*
X0194029Y-0191261*
X0193771Y-0190639*
X0193361Y-0190104*
X0192826Y-0189694*
X0192203Y-0189436*
X0191535Y-0189348*
G37*
G36*
X0254134Y-0213954D02*
X0253466Y-0214042D01*
X0252843Y-02143*
X0252309Y-021471*
X0251899Y-0215245*
X0251641Y-0215867*
X0251553Y-0216535*
X0251641Y-0217203*
X0251899Y-0217826*
X0252309Y-0218361*
X0252843Y-0218771*
X0253466Y-0219029*
X0254134Y-0219117*
X0254802Y-0219029*
X0255424Y-0218771*
X0255959Y-0218361*
X0256369Y-0217826*
X0256627Y-0217203*
X0256715Y-0216535*
X0256627Y-0215867*
X0256369Y-0215245*
X0255959Y-021471*
X0255424Y-02143*
X0254802Y-0214042*
X0254134Y-0213954*
G37*
G36*
X0262402Y-0209624D02*
X0261734Y-0209712D01*
X0261111Y-0209969*
X0260577Y-021038*
X0260166Y-0210914*
X0259908Y-0211537*
X025982Y-0212205*
X0259908Y-0212873*
X0260166Y-0213495*
X0260577Y-021403*
X0261111Y-021444*
X0261734Y-0214698*
X0262402Y-0214786*
X026307Y-0214698*
X0263692Y-021444*
X0264227Y-021403*
X0264637Y-0213495*
X0264895Y-0212873*
X0264983Y-0212205*
X0264895Y-0211537*
X0264637Y-0210914*
X0264227Y-021038*
X0263692Y-0209969*
X026307Y-0209712*
X0262402Y-0209624*
G37*
G36*
X0112795Y-0214198D02*
X0112127Y-0214286D01*
X0111505Y-0214544*
X011097Y-0214954*
X011056Y-0215489*
X0110302Y-0216111*
X0110214Y-0216779*
X0110302Y-0217448*
X011056Y-021807*
X011097Y-0218605*
X0111505Y-0219015*
X0112127Y-0219273*
X0112795Y-0219361*
X0113463Y-0219273*
X0114086Y-0219015*
X011462Y-0218605*
X0115031Y-021807*
X0115288Y-0217448*
X0115376Y-0216779*
X0115288Y-0216111*
X0115031Y-0215489*
X011462Y-0214954*
X0114086Y-0214544*
X0113463Y-0214286*
X0112795Y-0214198*
G37*
G36*
X0297244Y-0213944D02*
X0296268Y-0214073D01*
X0295358Y-021445*
X0294577Y-0215049*
X0293977Y-021583*
X02936Y-021674*
X0293472Y-0217717*
X02936Y-0218693*
X0293977Y-0219603*
X0294577Y-0220384*
X0295358Y-0220984*
X0296268Y-022136*
X0297244Y-0221489*
X029822Y-022136*
X029913Y-0220984*
X0299912Y-0220384*
X0300511Y-0219603*
X0300888Y-0218693*
X0301016Y-0217717*
X0300888Y-021674*
X0300511Y-021583*
X0299912Y-0215049*
X029913Y-021445*
X029822Y-0214073*
X0297244Y-0213944*
G37*
G36*
X0345354Y-0208003D02*
X0344062Y-0208131D01*
X0342818Y-0208508*
X0341673Y-020912*
X0340669Y-0209944*
X0339845Y-0210948*
X0339232Y-0212094*
X0338855Y-0213337*
X0338728Y-021463*
X0338855Y-0215923*
X0339232Y-0217166*
X0339845Y-0218311*
X0340669Y-0219316*
X0341673Y-022014*
X0342818Y-0220752*
X0344062Y-0221129*
X0345354Y-0221256*
X0346647Y-0221129*
X034789Y-0220752*
X0349036Y-022014*
X035004Y-0219316*
X0350864Y-0218311*
X0351476Y-0217166*
X0351853Y-0215923*
X0351981Y-021463*
X0351853Y-0213337*
X0351476Y-0212094*
X0350864Y-0210948*
X035004Y-0209944*
X0349036Y-020912*
X034789Y-0208508*
X0346647Y-0208131*
X0345354Y-0208003*
G37*
G36*
X0289764Y-0202143D02*
X0289096Y-0202231D01*
X0288473Y-0202489*
X0287939Y-0202899*
X0287528Y-0203434*
X0287271Y-0204056*
X0287183Y-0204724*
X0287271Y-0205393*
X0287528Y-0206015*
X0287939Y-020655*
X0288473Y-020696*
X0289096Y-0207218*
X0289764Y-0207306*
X0290432Y-0207218*
X0291054Y-020696*
X0291589Y-020655*
X0291999Y-0206015*
X0292257Y-0205393*
X0292345Y-0204724*
X0292257Y-0204056*
X0291999Y-0203434*
X0291589Y-0202899*
X0291054Y-0202489*
X0290432Y-0202231*
X0289764Y-0202143*
G37*
G36*
X0153544Y-0205079D02*
X0152876Y-0205167D01*
X0152254Y-0205424*
X0151719Y-0205835*
X0151309Y-0206369*
X0151257Y-0206494*
X0150831*
X015078Y-0206369*
X0150369Y-0205835*
X0149835Y-0205424*
X0149212Y-0205167*
X0148544Y-0205079*
X0147876Y-0205167*
X0147254Y-0205424*
X0146719Y-0205835*
X0146309Y-0206369*
X0146257Y-0206494*
X0145831*
X014578Y-0206369*
X0145369Y-0205835*
X0144835Y-0205424*
X0144212Y-0205167*
X0143544Y-0205079*
X0142876Y-0205167*
X0142254Y-0205424*
X0141719Y-0205835*
X0141309Y-0206369*
X0141257Y-0206494*
X0140831*
X014078Y-0206369*
X0140369Y-0205835*
X0139835Y-0205424*
X0139212Y-0205167*
X0138544Y-0205079*
X0137876Y-0205167*
X0137254Y-0205424*
X0136719Y-0205835*
X0136309Y-0206369*
X0136051Y-0206992*
X0135963Y-020766*
X0136051Y-0208328*
X0136309Y-020895*
X0136719Y-0209485*
X0137254Y-0209895*
X0137876Y-0210153*
X0138544Y-0210241*
X0139212Y-0210153*
X0139835Y-0209895*
X0140369Y-0209485*
X014078Y-020895*
X0140831Y-0208826*
X0141257*
X0141309Y-020895*
X0141719Y-0209485*
X0142254Y-0209895*
X0142876Y-0210153*
X0143544Y-0210241*
X0144212Y-0210153*
X0144835Y-0209895*
X0145369Y-0209485*
X014578Y-020895*
X0145831Y-0208826*
X0146257*
X0146309Y-020895*
X0146719Y-0209485*
X0147254Y-0209895*
X0147876Y-0210153*
X0148544Y-0210241*
X0149212Y-0210153*
X0149835Y-0209895*
X0150369Y-0209485*
X015078Y-020895*
X0150831Y-0208826*
X0151257*
X0151309Y-020895*
X0151719Y-0209485*
X0152254Y-0209895*
X0152876Y-0210153*
X0153544Y-0210241*
X0154212Y-0210153*
X0154835Y-0209895*
X0155369Y-0209485*
X015578Y-020895*
X0156037Y-0208328*
X0156125Y-020766*
X0156037Y-0206992*
X015578Y-0206369*
X0155369Y-0205835*
X0154835Y-0205424*
X0154212Y-0205167*
X0153544Y-0205079*
G37*
G36*
X0300197Y-0203718D02*
X0299529Y-0203806D01*
X0298906Y-0204064*
X0298372Y-0204474*
X0297961Y-0205009*
X0297704Y-0205631*
X0297616Y-0206299*
X0297704Y-0206967*
X0297961Y-020759*
X0298372Y-0208124*
X0298906Y-0208535*
X0299529Y-0208792*
X0300197Y-020888*
X0300865Y-0208792*
X0301487Y-0208535*
X0302022Y-0208124*
X0302432Y-020759*
X030269Y-0206967*
X0302778Y-0206299*
X030269Y-0205631*
X0302432Y-0205009*
X0302022Y-0204474*
X0301487Y-0204064*
X0300865Y-0203806*
X0300197Y-0203718*
G37*
G36*
X0240551Y-0166316D02*
X0239883Y-0166404D01*
X0239261Y-0166662*
X0238726Y-0167072*
X0238316Y-0167607*
X0238058Y-016823*
X023797Y-0168898*
X0238058Y-0169566*
X0238316Y-0170188*
X0238726Y-0170723*
X0239261Y-0171133*
X0239883Y-0171391*
X0240551Y-0171479*
X0241219Y-0171391*
X0241842Y-0171133*
X0242376Y-0170723*
X0242787Y-0170188*
X0243044Y-0169566*
X0243132Y-0168898*
X0243044Y-016823*
X0242787Y-0167607*
X0242376Y-0167072*
X0241842Y-0166662*
X0241219Y-0166404*
X0240551Y-0166316*
G37*
G36*
X0311811Y-0167301D02*
X0311143Y-0167389D01*
X031052Y-0167647*
X0309986Y-0168057*
X0309576Y-0168591*
X0309318Y-0169214*
X030923Y-0169882*
X0309318Y-017055*
X0309576Y-0171172*
X0309986Y-0171707*
X031052Y-0172117*
X0311143Y-0172375*
X0311811Y-0172463*
X0312479Y-0172375*
X0313102Y-0172117*
X0313636Y-0171707*
X0314046Y-0171172*
X0314304Y-017055*
X0314392Y-0169882*
X0314304Y-0169214*
X0314046Y-0168591*
X0313636Y-0168057*
X0313102Y-0167647*
X0312479Y-0167389*
X0311811Y-0167301*
G37*
G36*
X0345354Y-0160602D02*
X0344062Y-0160729D01*
X0342818Y-0161106*
X0341673Y-0161719*
X0340669Y-0162543*
X0339845Y-0163547*
X0339232Y-0164692*
X0338855Y-0165936*
X0338728Y-0167228*
X0338855Y-0168521*
X0339232Y-0169764*
X0339845Y-017091*
X0340669Y-0171914*
X0341673Y-0172738*
X0342818Y-017335*
X0344062Y-0173727*
X0345354Y-0173855*
X0346647Y-0173727*
X034789Y-017335*
X0349036Y-0172738*
X035004Y-0171914*
X0350864Y-017091*
X0351476Y-0169764*
X0351853Y-0168521*
X0351981Y-0167228*
X0351853Y-0165936*
X0351476Y-0164692*
X0350864Y-0163547*
X035004Y-0162543*
X0349036Y-0161719*
X034789Y-0161106*
X0346647Y-0160729*
X0345354Y-0160602*
G37*
G36*
X0223228Y-0158442D02*
X022256Y-015853D01*
X0221938Y-0158788*
X0221403Y-0159198*
X0220993Y-0159733*
X0220735Y-0160356*
X0220647Y-0161024*
X0220735Y-0161692*
X0220993Y-0162314*
X0221403Y-0162849*
X0221938Y-0163259*
X022256Y-0163517*
X0223228Y-0163605*
X0223896Y-0163517*
X0224519Y-0163259*
X0225054Y-0162849*
X0225464Y-0162314*
X0225722Y-0161692*
X022581Y-0161024*
X0225722Y-0160356*
X0225464Y-0159733*
X0225054Y-0159198*
X0224519Y-0158788*
X0223896Y-015853*
X0223228Y-0158442*
G37*
G36*
X0118551Y-0160411D02*
X0117883Y-0160499D01*
X0117261Y-0160757*
X0116726Y-0161167*
X0116316Y-0161702*
X0116058Y-0162324*
X011597Y-0162992*
X0116058Y-016366*
X0116316Y-0164283*
X0116726Y-0164817*
X0117261Y-0165227*
X0117883Y-0165485*
X0118551Y-0165573*
X0119219Y-0165485*
X0119842Y-0165227*
X0120376Y-0164817*
X0120786Y-0164283*
X0121044Y-016366*
X0121132Y-0162992*
X0121044Y-0162324*
X0120786Y-0161702*
X0120376Y-0161167*
X0119842Y-0160757*
X0119219Y-0160499*
X0118551Y-0160411*
G37*
G36*
X0170276Y-0164151D02*
X0169607Y-0164239D01*
X0168985Y-0164497*
X016845Y-0164907*
X016804Y-0165442*
X016793Y-0165709*
X0167503*
X0167393Y-0165442*
X0166983Y-0164907*
X0166448Y-0164497*
X0165825Y-0164239*
X0165157Y-0164151*
X0164489Y-0164239*
X0163867Y-0164497*
X0163332Y-0164907*
X0162922Y-0165442*
X0162664Y-0166064*
X0162576Y-0166732*
X0162664Y-01674*
X0162922Y-0168023*
X0163332Y-0168557*
X0163867Y-0168968*
X0164489Y-0169226*
X0165157Y-0169313*
X0165825Y-0169226*
X0166448Y-0168968*
X0166983Y-0168557*
X0167393Y-0168023*
X0167503Y-0167756*
X016793*
X016804Y-0168023*
X016845Y-0168557*
X0168985Y-0168968*
X0169607Y-0169226*
X0170276Y-0169313*
X0170944Y-0169226*
X0171566Y-0168968*
X0172101Y-0168557*
X0172511Y-0168023*
X0172769Y-01674*
X0172857Y-0166732*
X0172769Y-0166064*
X0172511Y-0165442*
X0172101Y-0164907*
X0171566Y-0164497*
X0170944Y-0164239*
X0170276Y-0164151*
G37*
G36*
X0230118Y-0160411D02*
X022945Y-0160499D01*
X0228828Y-0160757*
X0228293Y-0161167*
X0227883Y-0161702*
X0227625Y-0162324*
X0227537Y-0162992*
X0227625Y-016366*
X0227883Y-0164283*
X0228293Y-0164817*
X0228828Y-0165227*
X022945Y-0165485*
X0230118Y-0165573*
X0230786Y-0165485*
X0231409Y-0165227*
X0231943Y-0164817*
X0232353Y-0164283*
X0232611Y-016366*
X0232699Y-0162992*
X0232611Y-0162324*
X0232353Y-0161702*
X0231943Y-0161167*
X0231409Y-0160757*
X0230786Y-0160499*
X0230118Y-0160411*
G37*
G36*
X0148819Y-0169663D02*
X0148151Y-0169751D01*
X0147528Y-0170009*
X0146994Y-0170419*
X0146584Y-0170954*
X0146326Y-0171576*
X0146238Y-0172244*
X0146326Y-0172912*
X0146584Y-0173535*
X0146994Y-0174069*
X0147528Y-0174479*
X0148151Y-0174737*
X0148819Y-0174825*
X0149487Y-0174737*
X015011Y-0174479*
X0150644Y-0174069*
X0151054Y-0173535*
X0151312Y-0172912*
X01514Y-0172244*
X0151312Y-0171576*
X0151054Y-0170954*
X0150644Y-0170419*
X015011Y-0170009*
X0149487Y-0169751*
X0148819Y-0169663*
G37*
G36*
X0254331Y-0179112D02*
X0253663Y-01792D01*
X025304Y-0179458*
X0252506Y-0179868*
X0252095Y-0180402*
X0251837Y-0181025*
X025175Y-0181693*
X0251837Y-0182361*
X0252095Y-0182984*
X0252506Y-0183518*
X025304Y-0183928*
X0253663Y-0184186*
X0254331Y-0184274*
X0254999Y-0184186*
X0255621Y-0183928*
X0256156Y-0183518*
X0256566Y-0182984*
X0256824Y-0182361*
X0256912Y-0181693*
X0256824Y-0181025*
X0256566Y-0180402*
X0256156Y-0179868*
X0255621Y-0179458*
X0254999Y-01792*
X0254331Y-0179112*
G37*
G36*
X0190748Y-0172419D02*
X019008Y-0172507D01*
X0189457Y-0172765*
X0188923Y-0173175*
X0188513Y-0173709*
X0188255Y-0174332*
X0188167Y-0175*
X0188255Y-0175668*
X0188513Y-0176291*
X0188923Y-0176825*
X0189457Y-0177235*
X0189725Y-0177346*
Y-0177772*
X0189457Y-0177883*
X0188923Y-0178293*
X0188513Y-0178828*
X0188255Y-017945*
X0188167Y-0180118*
X0188255Y-0180786*
X0188513Y-0181409*
X0188923Y-0181943*
X0189457Y-0182353*
X019008Y-0182611*
X0190748Y-0182699*
X0191416Y-0182611*
X0192039Y-0182353*
X0192573Y-0181943*
X0192983Y-0181409*
X0193241Y-0180786*
X0193329Y-0180118*
X0193241Y-017945*
X0192983Y-0178828*
X0192573Y-0178293*
X0192039Y-0177883*
X0191771Y-0177772*
Y-0177346*
X0192039Y-0177235*
X0192573Y-0176825*
X0192983Y-0176291*
X0193241Y-0175668*
X0193329Y-0175*
X0193241Y-0174332*
X0192983Y-0173709*
X0192573Y-0173175*
X0192039Y-0172765*
X0191416Y-0172507*
X0190748Y-0172419*
G37*
G36*
X0118551Y-0179584D02*
X0117883Y-0179672D01*
X0117261Y-017993*
X0116726Y-018034*
X0116316Y-0180875*
X0116058Y-0181497*
X011597Y-0182165*
X0116058Y-0182833*
X0116316Y-0183456*
X0116726Y-0183991*
X0117261Y-0184401*
X0117883Y-0184659*
X0118551Y-0184747*
X0119219Y-0184659*
X0119842Y-0184401*
X0120376Y-0183991*
X0120786Y-0183456*
X0121044Y-0182833*
X0121132Y-0182165*
X0121044Y-0181497*
X0120786Y-0180875*
X0120376Y-018034*
X0119842Y-017993*
X0119219Y-0179672*
X0118551Y-0179584*
G37*
G36*
X0334685Y-0182136D02*
X0333683Y-0182268D01*
X0332749Y-0182655*
X0331947Y-018327*
X0331332Y-0184072*
X0331043Y-0184769*
X033065Y-0184691*
Y-0182169*
X0322972*
Y-0189847*
X033065*
Y-0187325*
X0331043Y-0187247*
X0331332Y-0187944*
X0331947Y-0188746*
X0332749Y-0189361*
X0333683Y-0189748*
X0334685Y-018988*
X0335687Y-0189748*
X0336621Y-0189361*
X0337423Y-0188746*
X0338038Y-0187944*
X0338425Y-018701*
X0338557Y-0186008*
X0338425Y-0185006*
X0338038Y-0184072*
X0337423Y-018327*
X0336621Y-0182655*
X0335687Y-0182268*
X0334685Y-0182136*
G37*
G36*
X0252756Y-0170057D02*
X0252088Y-0170145D01*
X0251465Y-0170403*
X0250931Y-0170813*
X0250521Y-0171347*
X0250263Y-017197*
X0250175Y-0172638*
X0250263Y-0173306*
X0250521Y-0173928*
X0250931Y-0174463*
X0251465Y-0174873*
X0252088Y-0175131*
X0252756Y-0175219*
X0253424Y-0175131*
X0254047Y-0174873*
X0254581Y-0174463*
X0254991Y-0173928*
X0255249Y-0173306*
X0255337Y-0172638*
X0255249Y-017197*
X0254991Y-0171347*
X0254581Y-0170813*
X0254047Y-0170403*
X0253424Y-0170145*
X0252756Y-0170057*
G37*
G36*
X0237008Y-0176946D02*
X023634Y-0177034D01*
X0235717Y-0177292*
X0235183Y-0177702*
X0234773Y-0178237*
X0234515Y-0178859*
X0234427Y-0179528*
X0234515Y-0180196*
X0234773Y-0180818*
X0235183Y-0181353*
X0235717Y-0181763*
X023634Y-0182021*
X0237008Y-0182109*
X0237676Y-0182021*
X0238298Y-0181763*
X0238833Y-0181353*
X0239243Y-0180818*
X0239501Y-0180196*
X0239589Y-0179528*
X0239501Y-0178859*
X0239243Y-0178237*
X0238833Y-0177702*
X0238298Y-0177292*
X0237676Y-0177034*
X0237008Y-0176946*
G37*
G36*
X0265945Y-0174387D02*
X0265277Y-0174475D01*
X0264654Y-0174733*
X026412Y-0175143*
X026371Y-0175678*
X0263452Y-0176301*
X0263364Y-0176969*
X0263452Y-0177637*
X026371Y-0178259*
X026412Y-0178794*
X0264654Y-0179204*
X0265277Y-0179462*
X0265945Y-017955*
X0266613Y-0179462*
X0267235Y-0179204*
X026777Y-0178794*
X026818Y-0178259*
X0268438Y-0177637*
X0268526Y-0176969*
X0268438Y-0176301*
X026818Y-0175678*
X026777Y-0175143*
X0267235Y-0174733*
X0266613Y-0174475*
X0265945Y-0174387*
G37*
G36*
X0198228Y-0051553D02*
X019756Y-0051641D01*
X0196938Y-0051898*
X0196403Y-0052309*
X0195993Y-0052843*
X0195735Y-0053466*
X0195647Y-0054134*
X0195735Y-0054802*
X0195993Y-0055424*
X0196403Y-0055959*
X0196938Y-0056369*
X019756Y-0056627*
X0198228Y-0056715*
X0198896Y-0056627*
X0199519Y-0056369*
X0200054Y-0055959*
X0200464Y-0055424*
X0200722Y-0054802*
X020081Y-0054134*
X0200722Y-0053466*
X0200464Y-0052843*
X0200054Y-0052309*
X0199519Y-0051898*
X0198896Y-0051641*
X0198228Y-0051553*
G37*
G36*
X0140748Y-0055293D02*
X014008Y-0055381D01*
X0139457Y-0055639*
X0138923Y-0056049*
X0138513Y-0056583*
X0138255Y-0057206*
X0138167Y-0057874*
X0138255Y-0058542*
X0138513Y-0059165*
X0138923Y-0059699*
X0139457Y-0060109*
X014008Y-0060367*
X0140748Y-0060455*
X0141416Y-0060367*
X0142039Y-0060109*
X0142573Y-0059699*
X0142983Y-0059165*
X0143241Y-0058542*
X0143329Y-0057874*
X0143241Y-0057206*
X0142983Y-0056583*
X0142573Y-0056049*
X0142039Y-0055639*
X0141416Y-0055381*
X0140748Y-0055293*
G37*
G36*
X0326362Y-0033011D02*
X032534Y-0033146D01*
X0324388Y-0033541*
X032357Y-0034168*
X0322942Y-0034986*
X0322548Y-0035939*
X0322413Y-0036961*
X0322548Y-0037983*
X0322942Y-0038935*
X032357Y-0039753*
X0324388Y-0040381*
X032534Y-0040775*
X0326362Y-004091*
X0327384Y-0040775*
X0328337Y-0040381*
X0329155Y-0039753*
X0329782Y-0038935*
X0330177Y-0037983*
X0330311Y-0036961*
X0330177Y-0035939*
X0329782Y-0034986*
X0329155Y-0034168*
X0328337Y-0033541*
X0327384Y-0033146*
X0326362Y-0033011*
G37*
G36*
X0118898Y-0041614D02*
X011823Y-0041702D01*
X0117607Y-0041959*
X0117072Y-004237*
X0116662Y-0042904*
X0116404Y-0043527*
X0116316Y-0044195*
X0116404Y-0044863*
X0116662Y-0045485*
X0117072Y-004602*
X0117607Y-004643*
X011823Y-0046688*
X0118898Y-0046776*
X0119566Y-0046688*
X0120188Y-004643*
X0120723Y-004602*
X0121133Y-0045485*
X0121391Y-0044863*
X0121479Y-0044195*
X0121391Y-0043527*
X0121133Y-0042904*
X0120723Y-004237*
X0120188Y-0041959*
X0119566Y-0041702*
X0118898Y-0041614*
G37*
G36*
X0250394Y-0047813D02*
X0249726Y-0047901D01*
X0249103Y-0048158*
X0248569Y-0048569*
X0248158Y-0049103*
X0247901Y-0049726*
X0247813Y-0050394*
X0247901Y-0051062*
X0248158Y-0051684*
X0248569Y-0052219*
X0249103Y-0052629*
X0249726Y-0052887*
X0250394Y-0052975*
X0251062Y-0052887*
X0251684Y-0052629*
X0252219Y-0052219*
X0252629Y-0051684*
X0252887Y-0051062*
X0252975Y-0050394*
X0252887Y-0049726*
X0252629Y-0049103*
X0252219Y-0048569*
X0251684Y-0048158*
X0251062Y-0047901*
X0250394Y-0047813*
G37*
G36*
X0186614Y-0065726D02*
X0185946Y-0065814D01*
X0185324Y-0066072*
X0184789Y-0066482*
X0184379Y-0067017*
X0184121Y-0067639*
X0184033Y-0068307*
X0184121Y-0068975*
X0184379Y-0069598*
X0184789Y-0070132*
X0185324Y-0070542*
X0185946Y-00708*
X0186614Y-0070888*
X0187282Y-00708*
X0187905Y-0070542*
X0188439Y-0070132*
X0188849Y-0069598*
X0189107Y-0068975*
X0189195Y-0068307*
X0189107Y-0067639*
X0188849Y-0067017*
X0188439Y-0066482*
X0187905Y-0066072*
X0187282Y-0065814*
X0186614Y-0065726*
G37*
G36*
X025374Y-0065529D02*
X0253072Y-0065617D01*
X025245Y-0065875*
X0251915Y-0066285*
X0251505Y-006682*
X0251247Y-0067442*
X0251159Y-006811*
X0251247Y-0068778*
X0251505Y-0069401*
X0251915Y-0069935*
X025245Y-0070346*
X0253072Y-0070603*
X025374Y-0070691*
X0254408Y-0070603*
X0255031Y-0070346*
X0255565Y-0069935*
X0255976Y-0069401*
X0256233Y-0068778*
X0256321Y-006811*
X0256233Y-0067442*
X0255976Y-006682*
X0255565Y-0066285*
X0255031Y-0065875*
X0254408Y-0065617*
X025374Y-0065529*
G37*
G36*
X0152362Y-006986D02*
X0151694Y-0069948D01*
X0151072Y-0070206*
X0150537Y-0070616*
X0150127Y-007115*
X0149869Y-0071773*
X0149815Y-0072183*
X0149404Y-0072439*
X0149093Y-007231*
X0148425Y-0072222*
X0147757Y-007231*
X0147135Y-0072568*
X01466Y-0072978*
X014619Y-0073513*
X0145932Y-0074135*
X0145844Y-0074803*
X0145932Y-0075471*
X014619Y-0076094*
X01466Y-0076628*
X0147135Y-0077039*
X0147757Y-0077296*
X0148425Y-0077384*
X0149093Y-0077296*
X0149716Y-0077039*
X015025Y-0076628*
X0150661Y-0076094*
X0150918Y-0075471*
X0150972Y-0075061*
X0151383Y-0074805*
X0151694Y-0074934*
X0152362Y-0075022*
X015303Y-0074934*
X0153653Y-0074676*
X0154187Y-0074266*
X0154597Y-0073731*
X0154855Y-0073109*
X0154943Y-0072441*
X0154855Y-0071773*
X0154597Y-007115*
X0154187Y-0070616*
X0153653Y-0070206*
X015303Y-0069948*
X0152362Y-006986*
G37*
G36*
X0177559Y-0062576D02*
X0176891Y-0062664D01*
X0176268Y-0062922*
X0175734Y-0063332*
X0175324Y-0063867*
X0175066Y-0064489*
X0174978Y-0065158*
X0175066Y-0065825*
X0175324Y-0066448*
X0175734Y-0066983*
X0176268Y-0067393*
X0176891Y-0067651*
X0177559Y-0067739*
X0178227Y-0067651*
X017885Y-0067393*
X0179384Y-0066983*
X0179794Y-0066448*
X0180052Y-0065825*
X018014Y-0065158*
X0180052Y-0064489*
X0179794Y-0063867*
X0179384Y-0063332*
X017885Y-0062922*
X0178227Y-0062664*
X0177559Y-0062576*
G37*
G36*
X0217126Y-0064939D02*
X0216458Y-0065026D01*
X0215835Y-0065284*
X0215301Y-0065695*
X0214891Y-0066229*
X0214633Y-0066852*
X0214545Y-006752*
X0214633Y-0068188*
X0214891Y-006881*
X0215301Y-0069345*
X0215835Y-0069755*
X0216458Y-0070013*
X0217126Y-0070101*
X0217794Y-0070013*
X0218417Y-0069755*
X0218951Y-0069345*
X0219361Y-006881*
X0219619Y-0068188*
X0219707Y-006752*
X0219619Y-0066852*
X0219361Y-0066229*
X0218951Y-0065695*
X0218417Y-0065284*
X0217794Y-0065026*
X0217126Y-0064939*
G37*
G36*
X0118898Y-0063809D02*
X011823Y-0063897D01*
X0117607Y-0064154*
X0117072Y-0064565*
X0116662Y-0065099*
X0116404Y-0065722*
X0116316Y-006639*
X0116404Y-0067058*
X0116662Y-006768*
X0117072Y-0068215*
X0117607Y-0068625*
X011823Y-0068883*
X0118898Y-0068971*
X0119566Y-0068883*
X0120188Y-0068625*
X0120723Y-0068215*
X0121133Y-006768*
X0121391Y-0067058*
X0121479Y-006639*
X0121391Y-0065722*
X0121133Y-0065099*
X0120723Y-0064565*
X0120188Y-0064154*
X0119566Y-0063897*
X0118898Y-0063809*
G37*
G36*
X0152756Y-0033049D02*
X0152088Y-0033137D01*
X0151465Y-0033395*
X0150931Y-0033805*
X0150521Y-0034339*
X0150263Y-0034962*
X0150175Y-003563*
X0150263Y-0036298*
X0150521Y-003692*
X0150931Y-0037455*
X0151465Y-0037865*
X0152088Y-0038123*
X0152756Y-0038211*
X0153424Y-0038123*
X0154046Y-0037865*
X0154581Y-0037455*
X0154991Y-003692*
X0155249Y-0036298*
X0155337Y-003563*
X0155249Y-0034962*
X0154991Y-0034339*
X0154581Y-0033805*
X0154046Y-0033395*
X0153424Y-0033137*
X0152756Y-0033049*
G37*
G36*
X0230139Y-0019318D02*
X0227804Y-0021654D01*
X0230139Y-0023989*
X0230408Y-0023639*
X0230804Y-0022681*
X023094Y-0021654*
X0230804Y-0020626*
X0230408Y-0019668*
X0230139Y-0019318*
G37*
G36*
X0168701Y-0018679D02*
X0168033Y-0018767D01*
X016741Y-0019025*
X0166876Y-0019435*
X0166465Y-0019969*
X0166208Y-0020592*
X016612Y-002126*
X0166208Y-0021928*
X0166465Y-002255*
X0166876Y-0023085*
X016741Y-0023495*
X0168033Y-0023753*
X0168701Y-0023841*
X0169369Y-0023753*
X0169991Y-0023495*
X0170526Y-0023085*
X0170936Y-002255*
X0171194Y-0021928*
X0171282Y-002126*
X0171194Y-0020592*
X0170936Y-0019969*
X0170526Y-0019435*
X0169991Y-0019025*
X0169369Y-0018767*
X0168701Y-0018679*
G37*
G36*
X0223798Y-0019318D02*
X022353Y-0019668D01*
X0223133Y-0020626*
X0222997Y-0021654*
X0223133Y-0022681*
X022353Y-0023639*
X0223798Y-0023989*
X0226133Y-0021654*
X0223798Y-0019318*
G37*
G36*
X0226969Y-0022489D02*
X0224633Y-0024824D01*
X0224983Y-0025093*
X0225941Y-0025489*
X0226969Y-0025624*
X0227996Y-0025489*
X0228954Y-0025093*
X0229304Y-0024824*
X0226969Y-0022489*
G37*
G36*
X0118898Y-0019419D02*
X011823Y-0019507D01*
X0117607Y-0019765*
X0117072Y-0020175*
X0116662Y-0020709*
X0116404Y-0021332*
X0116316Y-0022*
X0116404Y-0022668*
X0116662Y-0023291*
X0117072Y-0023825*
X0117607Y-0024235*
X011823Y-0024493*
X0118898Y-0024581*
X0119566Y-0024493*
X0120188Y-0024235*
X0120723Y-0023825*
X0121133Y-0023291*
X0121391Y-0022668*
X0121479Y-0022*
X0121391Y-0021332*
X0121133Y-0020709*
X0120723Y-0020175*
X0120188Y-0019765*
X0119566Y-0019507*
X0118898Y-0019419*
G37*
G36*
X0249606Y-0017695D02*
X0248938Y-0017782D01*
X0248316Y-001804*
X0247781Y-0018451*
X0247371Y-0018985*
X0247113Y-0019608*
X0247025Y-0020276*
X0247113Y-0020944*
X0247371Y-0021566*
X0247781Y-0022101*
X0248316Y-0022511*
X0248938Y-0022769*
X0249606Y-0022857*
X0250274Y-0022769*
X0250897Y-0022511*
X0251431Y-0022101*
X0251842Y-0021566*
X0252099Y-0020944*
X0252187Y-0020276*
X0252099Y-0019608*
X0251842Y-0018985*
X0251431Y-0018451*
X0250897Y-001804*
X0250274Y-0017782*
X0249606Y-0017695*
G37*
G36*
X0226969Y-0017683D02*
X0225941Y-0017818D01*
X0224983Y-0018215*
X0224633Y-0018483*
X0226969Y-0020818*
X0229304Y-0018483*
X0228954Y-0018215*
X0227996Y-0017818*
X0226969Y-0017683*
G37*
G36*
X0245472Y-0031474D02*
X0244804Y-0031562D01*
X0244182Y-003182*
X0243647Y-003223*
X0243237Y-0032765*
X0242979Y-0033387*
X0242891Y-0034055*
X0242979Y-0034723*
X0243237Y-0035346*
X0243647Y-003588*
X0244182Y-003629*
X0244804Y-0036548*
X0245472Y-0036636*
X0246141Y-0036548*
X0246763Y-003629*
X0247298Y-003588*
X0247708Y-0035346*
X0247966Y-0034723*
X0248054Y-0034055*
X0247966Y-0033387*
X0247708Y-0032765*
X0247298Y-003223*
X0246763Y-003182*
X0246141Y-0031562*
X0245472Y-0031474*
G37*
G36*
X0326362Y-0024012D02*
X032534Y-0024146D01*
X0324388Y-0024541*
X032357Y-0025168*
X0322942Y-0025986*
X0322548Y-0026939*
X0322413Y-0027961*
X0322548Y-0028983*
X0322942Y-0029935*
X032357Y-0030753*
X0324388Y-0031381*
X032534Y-0031775*
X0326362Y-003191*
X0327384Y-0031775*
X0328337Y-0031381*
X0329155Y-0030753*
X0329782Y-0029935*
X0330177Y-0028983*
X0330311Y-0027961*
X0330177Y-0026939*
X0329782Y-0025986*
X0329155Y-0025168*
X0328337Y-0024541*
X0327384Y-0024146*
X0326362Y-0024012*
G37*
G36*
X0196654Y-0033049D02*
X0195985Y-0033137D01*
X0195363Y-0033395*
X0194828Y-0033805*
X0194418Y-0034339*
X019416Y-0034962*
X0194072Y-003563*
X019416Y-0036298*
X0194418Y-003692*
X0194828Y-0037455*
X0195363Y-0037865*
X0195985Y-0038123*
X0196654Y-0038211*
X0197322Y-0038123*
X0197944Y-0037865*
X0198479Y-0037455*
X0198889Y-003692*
X0199147Y-0036298*
X0199235Y-003563*
X0199147Y-0034962*
X0198889Y-0034339*
X0198479Y-0033805*
X0197944Y-0033395*
X0197322Y-0033137*
X0196654Y-0033049*
G37*
G36*
X0216339D02*
X0215671Y-0033137D01*
X0215048Y-0033395*
X0214513Y-0033805*
X0214103Y-0034339*
X0213845Y-0034962*
X0213757Y-003563*
X0213845Y-0036298*
X0214103Y-003692*
X0214513Y-0037455*
X0215048Y-0037865*
X0215671Y-0038123*
X0216339Y-0038211*
X0217007Y-0038123*
X0217629Y-0037865*
X0218164Y-0037455*
X0218574Y-003692*
X0218832Y-0036298*
X021892Y-003563*
X0218832Y-0034962*
X0218574Y-0034339*
X0218164Y-0033805*
X0217629Y-0033395*
X0217007Y-0033137*
X0216339Y-0033049*
G37*
G36*
X0216968Y-0017484D02*
X0215889Y-0017626D01*
X0214884Y-0018043*
X021402Y-0018705*
X0213358Y-0019569*
X0212941Y-0020574*
X0212799Y-0021654*
X0212941Y-0022733*
X0213358Y-0023738*
X021402Y-0024602*
X0214884Y-0025264*
X0215889Y-0025681*
X0216968Y-0025823*
X0218048Y-0025681*
X0219053Y-0025264*
X0219917Y-0024602*
X0220579Y-0023738*
X0220996Y-0022733*
X0221138Y-0021654*
X0220996Y-0020574*
X0220579Y-0019569*
X0219917Y-0018705*
X0219053Y-0018043*
X0218048Y-0017626*
X0216968Y-0017484*
G37*
G36*
X0191102Y-001752D02*
X0182835D01*
Y-0025787*
X0191102*
Y-001752*
G37*
G36*
X0206968Y-0017484D02*
X0205889Y-0017626D01*
X0204884Y-0018043*
X020402Y-0018705*
X0203358Y-0019569*
X0202941Y-0020574*
X0202799Y-0021654*
X0202941Y-0022733*
X0203358Y-0023738*
X020402Y-0024602*
X0204884Y-0025264*
X0205889Y-0025681*
X0206968Y-0025823*
X0208048Y-0025681*
X0209053Y-0025264*
X0209917Y-0024602*
X0210579Y-0023738*
X0210996Y-0022733*
X0211138Y-0021654*
X0210996Y-0020574*
X0210579Y-0019569*
X0209917Y-0018705*
X0209053Y-0018043*
X0208048Y-0017626*
X0206968Y-0017484*
G37*
G36*
X0196968D02*
X0195889Y-0017626D01*
X0194884Y-0018043*
X019402Y-0018705*
X0193358Y-0019569*
X0192941Y-0020574*
X0192799Y-0021654*
X0192941Y-0022733*
X0193358Y-0023738*
X019402Y-0024602*
X0194884Y-0025264*
X0195889Y-0025681*
X0196968Y-0025823*
X0198048Y-0025681*
X0199053Y-0025264*
X0199917Y-0024602*
X0200579Y-0023738*
X0200996Y-0022733*
X0201138Y-0021654*
X0200996Y-0020574*
X0200579Y-0019569*
X0199917Y-0018705*
X0199053Y-0018043*
X0198048Y-0017626*
X0196968Y-0017484*
G37*
G36*
X0197441Y-006986D02*
X0196773Y-0069948D01*
X019615Y-0070206*
X0195616Y-0070616*
X0195206Y-007115*
X0194948Y-0071773*
X019486Y-0072441*
X0194948Y-0073109*
X0195206Y-0073731*
X0195616Y-0074266*
X019615Y-0074676*
X0196773Y-0074934*
X0197441Y-0075022*
X0198109Y-0074934*
X0198732Y-0074676*
X0199266Y-0074266*
X0199676Y-0073731*
X0199934Y-0073109*
X0200022Y-0072441*
X0199934Y-0071773*
X0199676Y-007115*
X0199266Y-0070616*
X0198732Y-0070206*
X0198109Y-0069948*
X0197441Y-006986*
G37*
G36*
X0118898Y-0108198D02*
X011823Y-0108286D01*
X0117607Y-0108544*
X0117072Y-0108954*
X0116662Y-0109489*
X0116404Y-0110111*
X0116316Y-011078*
X0116404Y-0111448*
X0116662Y-011207*
X0117072Y-0112605*
X0117607Y-0113015*
X011823Y-0113273*
X0118898Y-0113361*
X0119566Y-0113273*
X0120188Y-0113015*
X0120723Y-0112605*
X0121133Y-011207*
X0121391Y-0111448*
X0121479Y-011078*
X0121391Y-0110111*
X0121133Y-0109489*
X0120723Y-0108954*
X0120188Y-0108544*
X0119566Y-0108286*
X0118898Y-0108198*
G37*
G36*
X0211417Y-0111395D02*
X0210749Y-0111483D01*
X0210127Y-0111741*
X0209592Y-0112151*
X0209182Y-0112686*
X0209096Y-0112894*
X0208542Y-0112664*
X0207874Y-0112576*
X0207206Y-0112664*
X0206583Y-0112922*
X0206049Y-0113332*
X0205639Y-0113867*
X0205381Y-0114489*
X0205293Y-0115157*
X0205381Y-0115825*
X0205639Y-0116448*
X0206046Y-0116979*
X0205714Y-011741*
X0205457Y-0118033*
X0205369Y-0118701*
X0205457Y-0119369*
X0205714Y-0119991*
X0206125Y-0120526*
X0206659Y-0120936*
X0207282Y-0121194*
X020795Y-0121282*
X0208618Y-0121194*
X020924Y-0120936*
X0209775Y-0120526*
X0210185Y-0119991*
X0210443Y-0119369*
X0210531Y-0118701*
X0210443Y-0118033*
X0210185Y-011741*
X0209778Y-011688*
X0210109Y-0116448*
X0210195Y-011624*
X0210749Y-011647*
X0211417Y-0116558*
X0212085Y-011647*
X0212708Y-0116212*
X0213243Y-0115802*
X0213259Y-011578*
X0213755*
X0213923Y-0115998*
X0214458Y-0116409*
X021508Y-0116666*
X0215748Y-0116754*
X0216416Y-0116666*
X0217039Y-0116409*
X0217573Y-0115998*
X0217983Y-0115464*
X0218241Y-0114841*
X0218329Y-0114173*
X0218241Y-0113505*
X0217983Y-0112883*
X0217573Y-0112348*
X0217039Y-0111938*
X0216416Y-011168*
X0215748Y-0111592*
X021508Y-011168*
X0214458Y-0111938*
X0213923Y-0112348*
X0213906Y-011237*
X021341*
X0213243Y-0112151*
X0212708Y-0111741*
X0212085Y-0111483*
X0211417Y-0111395*
G37*
G36*
X0316142Y-0109427D02*
X0315474Y-0109515D01*
X0314851Y-0109773*
X0314317Y-0110183*
X0313906Y-0110717*
X0313649Y-011134*
X0313561Y-0112008*
X0313649Y-0112676*
X0313906Y-0113298*
X0314317Y-0113833*
X0314851Y-0114243*
X0315474Y-0114501*
X0316142Y-0114589*
X031681Y-0114501*
X0317432Y-0114243*
X0317967Y-0113833*
X0318377Y-0113298*
X0318635Y-0112676*
X0318723Y-0112008*
X0318635Y-011134*
X0318377Y-0110717*
X0317967Y-0110183*
X0317432Y-0109773*
X031681Y-0109515*
X0316142Y-0109427*
G37*
G36*
X0194291Y-0101946D02*
X0193623Y-0102034D01*
X0193001Y-0102292*
X0192466Y-0102702*
X0192056Y-0103237*
X0191798Y-0103859*
X019171Y-0104528*
X0191798Y-0105196*
X0192056Y-0105818*
X0192466Y-0106353*
X0193001Y-0106763*
X0193623Y-0107021*
X0194291Y-0107109*
X0194959Y-0107021*
X0195582Y-0106763*
X0196116Y-0106353*
X0196527Y-0105818*
X0196784Y-0105196*
X0196872Y-0104528*
X0196784Y-0103859*
X0196527Y-0103237*
X0196116Y-0102702*
X0195582Y-0102292*
X0194959Y-0102034*
X0194291Y-0101946*
G37*
G36*
X0153347Y-0105096D02*
X0152678Y-0105184D01*
X0152056Y-0105442*
X0151521Y-0105852*
X0151111Y-0106387*
X0150853Y-0107009*
X0150765Y-0107677*
X0150853Y-0108345*
X0151111Y-0108968*
X0151521Y-0109502*
X0152056Y-0109913*
X0152678Y-011017*
X0153347Y-0110258*
X0154015Y-011017*
X0154637Y-0109913*
X0155172Y-0109502*
X0155582Y-0108968*
X015584Y-0108345*
X0155928Y-0107677*
X015584Y-0107009*
X0155582Y-0106387*
X0155172Y-0105852*
X0154637Y-0105442*
X0154015Y-0105184*
X0153347Y-0105096*
G37*
G36*
X0139961Y-0110608D02*
X0139293Y-0110696D01*
X013867Y-0110954*
X0138136Y-0111364*
X0137725Y-0111898*
X0137629Y-0112132*
X0137559Y-0112163*
X0137185Y-0112175*
X0136864Y-0111758*
X013633Y-0111347*
X0135707Y-011109*
X0135039Y-0111002*
X0134371Y-011109*
X0133749Y-0111347*
X0133214Y-0111758*
X0132804Y-0112292*
X0132546Y-0112915*
X0132458Y-0113583*
X0132546Y-0114251*
X0132804Y-0114873*
X0133214Y-0115408*
X0133749Y-0115818*
X0134371Y-0116076*
X0135039Y-0116164*
X0135707Y-0116076*
X013633Y-0115818*
X0136864Y-0115408*
X0137275Y-0114873*
X0137371Y-011464*
X0137441Y-0114608*
X0137815Y-0114597*
X0138136Y-0115014*
X013867Y-0115424*
X0139293Y-0115682*
X0139961Y-011577*
X0140629Y-0115682*
X0141251Y-0115424*
X0141786Y-0115014*
X0142196Y-0114479*
X0142454Y-0113857*
X0142542Y-0113189*
X0142454Y-0112521*
X0142196Y-0111898*
X0141786Y-0111364*
X0141251Y-0110954*
X0140629Y-0110696*
X0139961Y-0110608*
G37*
G36*
X0126772Y-0105145D02*
X0126104Y-0105233D01*
X0125481Y-0105491*
X0124946Y-0105901*
X0124536Y-0106436*
X0124278Y-0107058*
X012419Y-0107726*
X0124278Y-0108394*
X0124536Y-0109017*
X0124946Y-0109552*
X0125481Y-0109962*
X0126104Y-011022*
X0126772Y-0110308*
X012744Y-011022*
X0128062Y-0109962*
X0128597Y-0109552*
X0129007Y-0109017*
X0129265Y-0108394*
X0129353Y-0107726*
X0129265Y-0107058*
X0129007Y-0106436*
X0128597Y-0105901*
X0128062Y-0105491*
X012744Y-0105233*
X0126772Y-0105145*
G37*
G36*
X0297953Y-0126541D02*
X0296925Y-0126676D01*
X0295967Y-0127073*
X0295617Y-0127341*
X0297953Y-0129677*
X0300288Y-0127341*
X0299938Y-0127073*
X029898Y-0126676*
X0297953Y-0126541*
G37*
G36*
X0126181Y-0112183D02*
X0125513Y-0112271D01*
X012489Y-0112529*
X0124356Y-0112939*
X0123946Y-0113473*
X0123688Y-0114096*
X01236Y-0114764*
X0123688Y-0115432*
X0123946Y-0116054*
X0124356Y-0116589*
X012489Y-0116999*
X0125513Y-0117257*
X0126181Y-0117345*
X0126849Y-0117257*
X0127472Y-0116999*
X0128006Y-0116589*
X0128416Y-0116054*
X0128674Y-0115432*
X0128762Y-0114764*
X0128674Y-0114096*
X0128416Y-0113473*
X0128006Y-0112939*
X0127472Y-0112529*
X0126849Y-0112271*
X0126181Y-0112183*
G37*
G36*
X0153937Y-0113757D02*
X0153269Y-0113845D01*
X0152647Y-0114103*
X0152112Y-0114513*
X0151702Y-0115048*
X0151444Y-0115671*
X0151356Y-0116339*
X0151444Y-0117007*
X0151702Y-0117629*
X0152112Y-0118164*
X0152647Y-0118574*
X0153269Y-0118832*
X0153937Y-011892*
X0154605Y-0118832*
X0155228Y-0118574*
X0155762Y-0118164*
X0156172Y-0117629*
X015643Y-0117007*
X0156518Y-0116339*
X015643Y-0115671*
X0156172Y-0115048*
X0155762Y-0114513*
X0155228Y-0114103*
X0154605Y-0113845*
X0153937Y-0113757*
G37*
G36*
X0288386Y-0116907D02*
X0287718Y-0116995D01*
X0287095Y-0117253*
X0286561Y-0117663*
X0286151Y-0118198*
X0285893Y-011882*
X0285805Y-0119488*
X0285893Y-0120156*
X0286151Y-0120779*
X0286561Y-0121313*
X0287095Y-0121723*
X0287718Y-0121981*
X0288386Y-0122069*
X0289054Y-0121981*
X0289676Y-0121723*
X0290211Y-0121313*
X0290621Y-0120779*
X0290879Y-0120156*
X0290967Y-0119488*
X0290879Y-011882*
X0290621Y-0118198*
X0290211Y-0117663*
X0289676Y-0117253*
X0289054Y-0116995*
X0288386Y-0116907*
G37*
G36*
X0189567Y-0115726D02*
X0188899Y-0115814D01*
X0188276Y-0116072*
X0187742Y-0116482*
X0187332Y-0117016*
X0187074Y-0117639*
X0186986Y-0118307*
X0187074Y-0118975*
X0187332Y-0119598*
X0187742Y-0120132*
X0188276Y-0120542*
X0188899Y-01208*
X0189567Y-0120888*
X0190235Y-01208*
X0190858Y-0120542*
X0191392Y-0120132*
X0191802Y-0119598*
X019206Y-0118975*
X0192148Y-0118307*
X019206Y-0117639*
X0191802Y-0117016*
X0191392Y-0116482*
X0190858Y-0116072*
X0190235Y-0115814*
X0189567Y-0115726*
G37*
G36*
X0312402Y-0098206D02*
X0311734Y-0098294D01*
X0311111Y-0098552*
X0310576Y-0098962*
X0310166Y-0099497*
X0309908Y-0100119*
X030982Y-0100787*
X0309908Y-0101455*
X0310166Y-0102078*
X0310576Y-0102612*
X0311111Y-0103023*
X0311734Y-0103281*
X0312402Y-0103368*
X031307Y-0103281*
X0313692Y-0103023*
X0314227Y-0102612*
X0314637Y-0102078*
X0314895Y-0101455*
X0314983Y-0100787*
X0314895Y-0100119*
X0314637Y-0099497*
X0314227Y-0098962*
X0313692Y-0098552*
X031307Y-0098294*
X0312402Y-0098206*
G37*
G36*
X0250591Y-0075568D02*
X0249922Y-0075656D01*
X02493Y-0075914*
X0248765Y-0076324*
X0248355Y-0076859*
X0248097Y-0077482*
X0248009Y-007815*
X0248097Y-0078818*
X0248355Y-007944*
X0248765Y-0079975*
X02493Y-0080385*
X0249922Y-0080643*
X0250591Y-0080731*
X0251259Y-0080643*
X0251881Y-0080385*
X0252416Y-0079975*
X0252826Y-007944*
X0253084Y-0078818*
X0253172Y-007815*
X0253084Y-0077482*
X0252826Y-0076859*
X0252416Y-0076324*
X0251881Y-0075914*
X0251259Y-0075656*
X0250591Y-0075568*
G37*
G36*
X0154134Y-0075175D02*
X0153466Y-0075263D01*
X0152843Y-0075521*
X0152309Y-0075931*
X0151899Y-0076465*
X0151641Y-0077088*
X0151553Y-0077756*
X0151641Y-0078424*
X0151899Y-0079046*
X0152309Y-0079581*
X0152843Y-0079991*
X0153466Y-0080249*
X0154134Y-0080337*
X0154802Y-0080249*
X0155424Y-0079991*
X0155959Y-0079581*
X0156369Y-0079046*
X0156627Y-0078424*
X0156715Y-0077756*
X0156627Y-0077088*
X0156369Y-0076465*
X0155959Y-0075931*
X0155424Y-0075521*
X0154802Y-0075263*
X0154134Y-0075175*
G37*
G36*
X027874Y-0076356D02*
X0278072Y-0076444D01*
X027745Y-0076702*
X0276915Y-0077112*
X0276505Y-0077646*
X0276247Y-0078269*
X0276159Y-0078937*
X0276247Y-0079605*
X0276505Y-0080228*
X0276915Y-0080762*
X027745Y-0081172*
X0278072Y-008143*
X027874Y-0081518*
X0279408Y-008143*
X0280031Y-0081172*
X0280565Y-0080762*
X0280976Y-0080228*
X0281233Y-0079605*
X0281321Y-0078937*
X0281233Y-0078269*
X0280976Y-0077646*
X0280565Y-0077112*
X0280031Y-0076702*
X0279408Y-0076444*
X027874Y-0076356*
G37*
G36*
X0122441Y-0085017D02*
X0121773Y-0085105D01*
X012115Y-0085363*
X0120616Y-0085773*
X0120206Y-0086308*
X0119825Y-0086199*
X0119566Y-0086091*
X0118898Y-0086003*
X011823Y-0086091*
X0117607Y-0086349*
X0117072Y-0086759*
X0116662Y-0087294*
X0116404Y-0087916*
X0116316Y-0088585*
X0116404Y-0089253*
X0116662Y-0089875*
X0117072Y-009041*
X0117607Y-009082*
X011823Y-0091078*
X0118898Y-0091166*
X0119566Y-0091078*
X0120188Y-009082*
X0120723Y-009041*
X0121133Y-0089875*
X0121513Y-0089984*
X0121773Y-0090092*
X0122441Y-009018*
X0123109Y-0090092*
X0123732Y-0089834*
X0124266Y-0089424*
X0124676Y-0088889*
X0124934Y-0088266*
X0125022Y-0087598*
X0124934Y-008693*
X0124676Y-0086308*
X0124266Y-0085773*
X0123732Y-0085363*
X0123109Y-0085105*
X0122441Y-0085017*
G37*
G36*
X0225984Y-0080096D02*
X0225316Y-0080184D01*
X0224694Y-0080442*
X0224159Y-0080852*
X0223749Y-0081387*
X0223491Y-0082009*
X0223403Y-0082677*
X0223491Y-0083345*
X0223749Y-0083968*
X0224159Y-0084502*
X0224694Y-0084913*
X0225316Y-008517*
X0225984Y-0085258*
X0226652Y-008517*
X0227275Y-0084913*
X0227809Y-0084502*
X022822Y-0083968*
X0228477Y-0083345*
X0228565Y-0082677*
X0228477Y-0082009*
X022822Y-0081387*
X0227809Y-0080852*
X0227275Y-0080442*
X0226652Y-0080184*
X0225984Y-0080096*
G37*
G36*
X0326362Y-0069011D02*
X032534Y-0069146D01*
X0324388Y-0069541*
X032357Y-0070168*
X0322942Y-0070986*
X0322548Y-0071939*
X0322413Y-0072961*
X0322548Y-0073983*
X0322942Y-0074935*
X032357Y-0075753*
X0324388Y-0076381*
X032534Y-0076775*
X0326362Y-007691*
X0327384Y-0076775*
X0328337Y-0076381*
X0329155Y-0075753*
X0329782Y-0074935*
X0330177Y-0073983*
X0330311Y-0072961*
X0330177Y-0071939*
X0329782Y-0070986*
X0329155Y-0070168*
X0328337Y-0069541*
X0327384Y-0069146*
X0326362Y-0069011*
G37*
G36*
X0221457Y-0071238D02*
X0220789Y-0071326D01*
X0220166Y-0071584*
X0219632Y-0071994*
X0219221Y-0072528*
X0218964Y-0073151*
X0218876Y-0073819*
X0218964Y-0074487*
X0219221Y-0075109*
X0219632Y-0075644*
X0220166Y-0076054*
X0220789Y-0076312*
X0221457Y-00764*
X0222125Y-0076312*
X0222747Y-0076054*
X0223282Y-0075644*
X0223692Y-0075109*
X022395Y-0074487*
X0224038Y-0073819*
X022395Y-0073151*
X0223692Y-0072528*
X0223282Y-0071994*
X0222747Y-0071584*
X0222125Y-0071326*
X0221457Y-0071238*
G37*
G36*
X0136221Y-0072419D02*
X0135552Y-0072507D01*
X013493Y-0072765*
X0134395Y-0073175*
X0133985Y-0073709*
X0133727Y-0074332*
X0133639Y-0075*
X0133727Y-0075668*
X0133985Y-0076291*
X0134395Y-0076825*
X013493Y-0077235*
X0135552Y-0077493*
X0136221Y-0077581*
X0136889Y-0077493*
X0137511Y-0077235*
X0138046Y-0076825*
X0138456Y-0076291*
X0138714Y-0075668*
X0138802Y-0075*
X0138714Y-0074332*
X0138456Y-0073709*
X0138046Y-0073175*
X0137511Y-0072765*
X0136889Y-0072507*
X0136221Y-0072419*
G37*
G36*
X0142913Y-0074781D02*
X0142245Y-0074869D01*
X0141623Y-0075127*
X0141088Y-0075537*
X0140678Y-0076072*
X014042Y-0076694*
X0140332Y-0077362*
X014042Y-007803*
X0140678Y-0078653*
X0141088Y-0079187*
X0141623Y-0079598*
X0142245Y-0079855*
X0142913Y-0079943*
X0143581Y-0079855*
X0144204Y-0079598*
X0144738Y-0079187*
X0145149Y-0078653*
X0145407Y-007803*
X0145494Y-0077362*
X0145407Y-0076694*
X0145149Y-0076072*
X0144738Y-0075537*
X0144204Y-0075127*
X0143581Y-0074869*
X0142913Y-0074781*
G37*
G36*
X0207283Y-0073403D02*
X0206615Y-0073491D01*
X0205993Y-0073749*
X0205458Y-0074159*
X0205048Y-0074694*
X020479Y-0075316*
X0204702Y-0075984*
X020479Y-0076652*
X0205048Y-0077275*
X0205458Y-0077809*
X0205993Y-007822*
X0206615Y-0078477*
X0207283Y-0078565*
X0207951Y-0078477*
X0208574Y-007822*
X0209109Y-0077809*
X0209519Y-0077275*
X0209777Y-0076652*
X0209865Y-0075984*
X0209777Y-0075316*
X0209519Y-0074694*
X0209109Y-0074159*
X0208574Y-0073749*
X0207951Y-0073491*
X0207283Y-0073403*
G37*
G36*
X0250591Y-0097222D02*
X0249922Y-009731D01*
X02493Y-0097568*
X0248765Y-0097978*
X0248355Y-0098513*
X0248097Y-0099135*
X0248009Y-0099803*
X0248097Y-0100471*
X0248355Y-0101094*
X0248765Y-0101628*
X02493Y-0102039*
X0249922Y-0102296*
X0250591Y-0102384*
X0251259Y-0102296*
X0251881Y-0102039*
X0252416Y-0101628*
X0252826Y-0101094*
X0253084Y-0100471*
X0253172Y-0099803*
X0253084Y-0099135*
X0252826Y-0098513*
X0252416Y-0097978*
X0251881Y-0097568*
X0251259Y-009731*
X0250591Y-0097222*
G37*
G36*
X0198622Y-0096238D02*
X0197954Y-0096326D01*
X0197332Y-0096584*
X0196797Y-0096994*
X0196387Y-0097528*
X0196129Y-0098151*
X0196041Y-0098819*
X0196129Y-0099487*
X0196387Y-010011*
X0196797Y-0100644*
X0197332Y-0101054*
X0197954Y-0101312*
X0198622Y-01014*
X019929Y-0101312*
X0199913Y-0101054*
X0200447Y-0100644*
X0200857Y-010011*
X0201115Y-0099487*
X0201203Y-0098819*
X0201115Y-0098151*
X0200857Y-0097528*
X0200447Y-0096994*
X0199913Y-0096584*
X019929Y-0096326*
X0198622Y-0096238*
G37*
G36*
X0263976Y-009734D02*
X0263308Y-0097428D01*
X0262686Y-0097686*
X0262151Y-0098096*
X0261741Y-0098631*
X0261483Y-0099253*
X0261395Y-0099921*
X0261483Y-0100589*
X0261741Y-0101212*
X0262151Y-0101746*
X0262686Y-0102157*
X0263308Y-0102414*
X0263976Y-0102502*
X0264644Y-0102414*
X0265267Y-0102157*
X0265802Y-0101746*
X0266212Y-0101212*
X026647Y-0100589*
X0266558Y-0099921*
X026647Y-0099253*
X0266212Y-0098631*
X0265802Y-0098096*
X0265267Y-0097686*
X0264644Y-0097428*
X0263976Y-009734*
G37*
G36*
X0326362Y-0095012D02*
X032534Y-0095146D01*
X0324388Y-0095541*
X032357Y-0096168*
X0322942Y-0096986*
X0322548Y-0097939*
X0322413Y-0098961*
X0322548Y-0099983*
X0322942Y-0100935*
X032357Y-0101753*
X0324388Y-0102381*
X032534Y-0102775*
X0326362Y-010291*
X0327384Y-0102775*
X0328337Y-0102381*
X0329155Y-0101753*
X0329782Y-0100935*
X0330177Y-0099983*
X0330311Y-0098961*
X0330177Y-0097939*
X0329782Y-0096986*
X0329155Y-0096168*
X0328337Y-0095541*
X0327384Y-0095146*
X0326362Y-0095012*
G37*
G36*
X0127559Y-0097616D02*
X0126891Y-0097704D01*
X0126268Y-0097961*
X0125734Y-0098372*
X0125324Y-0098906*
X0125066Y-0099529*
X0124978Y-0100197*
X0125066Y-0100865*
X0125324Y-0101487*
X0125734Y-0102022*
X0126268Y-0102432*
X0126891Y-010269*
X0127559Y-0102778*
X0128227Y-010269*
X012885Y-0102432*
X0129384Y-0102022*
X0129794Y-0101487*
X0130052Y-0100865*
X013014Y-0100197*
X0130052Y-0099529*
X0129794Y-0098906*
X0129384Y-0098372*
X012885Y-0097961*
X0128227Y-0097704*
X0127559Y-0097616*
G37*
G36*
X0233071Y-008482D02*
X0232403Y-0084908D01*
X023178Y-0085166*
X0231246Y-0085576*
X0230836Y-0086111*
X0230578Y-0086734*
X023049Y-0087402*
X0230578Y-008807*
X0230836Y-0088692*
X0231246Y-0089227*
X023178Y-0089637*
X0232403Y-0089895*
X0233071Y-0089983*
X0233739Y-0089895*
X0234361Y-0089637*
X0234896Y-0089227*
X0235306Y-0088692*
X0235564Y-008807*
X0235652Y-0087402*
X0235564Y-0086734*
X0235306Y-0086111*
X0234896Y-0085576*
X0234361Y-0085166*
X0233739Y-0084908*
X0233071Y-008482*
G37*
G36*
X0290158Y-008423D02*
X0289489Y-0084318D01*
X0288867Y-0084576*
X0288332Y-0084986*
X0287922Y-008552*
X0287664Y-0086143*
X0287576Y-0086811*
X0287664Y-0087479*
X0287922Y-0088102*
X0288332Y-0088636*
X0288867Y-0089046*
X0289489Y-0089304*
X0290158Y-0089392*
X0290826Y-0089304*
X0291448Y-0089046*
X0291983Y-0088636*
X0292393Y-0088102*
X0292651Y-0087479*
X0292739Y-0086811*
X0292651Y-0086143*
X0292393Y-008552*
X0291983Y-0084986*
X0291448Y-0084576*
X0290826Y-0084318*
X0290158Y-008423*
G37*
G36*
X026752Y-0085017D02*
X0266852Y-0085105D01*
X0266229Y-0085363*
X0265695Y-0085773*
X0265284Y-0086308*
X0265026Y-008693*
X0264939Y-0087598*
X0265026Y-0088266*
X0265284Y-0088889*
X0265695Y-0089424*
X0266229Y-0089834*
X0266852Y-0090092*
X026752Y-009018*
X0268188Y-0090092*
X026881Y-0089834*
X0269345Y-0089424*
X0269755Y-0088889*
X0270013Y-0088266*
X0270101Y-0087598*
X0270013Y-008693*
X0269755Y-0086308*
X0269345Y-0085773*
X026881Y-0085363*
X0268188Y-0085105*
X026752Y-0085017*
G37*
G36*
X014311Y-0090332D02*
X0142442Y-009042D01*
X014182Y-0090678*
X0141285Y-0091088*
X0140875Y-0091623*
X0140617Y-0092245*
X0140529Y-0092913*
X0140617Y-0093581*
X0140875Y-0094204*
X0141285Y-0094739*
X014182Y-0095149*
X0142442Y-0095407*
X014311Y-0095495*
X0143778Y-0095407*
X0144401Y-0095149*
X0144935Y-0094739*
X0145346Y-0094204*
X0145603Y-0093581*
X0145691Y-0092913*
X0145603Y-0092245*
X0145346Y-0091623*
X0144935Y-0091088*
X0144401Y-0090678*
X0143778Y-009042*
X014311Y-0090332*
G37*
G36*
X0326362Y-0078012D02*
X032534Y-0078146D01*
X0324388Y-0078541*
X032357Y-0079168*
X0322942Y-0079986*
X0322548Y-0080939*
X0322413Y-0081961*
X0322548Y-0082983*
X0322942Y-0083935*
X032357Y-0084753*
X0324388Y-0085381*
X0325292Y-0085755*
X032534Y-0085936*
Y-0085985*
X0325292Y-0086166*
X0324388Y-0086541*
X032357Y-0087168*
X0322942Y-0087986*
X0322548Y-0088938*
X0322413Y-0089961*
X0322548Y-0090983*
X0322942Y-0091935*
X032357Y-0092753*
X0324388Y-0093381*
X032534Y-0093775*
X0326362Y-009391*
X0327384Y-0093775*
X0328337Y-0093381*
X0329155Y-0092753*
X0329782Y-0091935*
X0330177Y-0090983*
X0330311Y-0089961*
X0330177Y-0088938*
X0329782Y-0087986*
X0329155Y-0087168*
X0328337Y-0086541*
X0327432Y-0086166*
X0327384Y-0085985*
Y-0085936*
X0327432Y-0085755*
X0328337Y-0085381*
X0329155Y-0084753*
X0329782Y-0083935*
X0330177Y-0082983*
X0330311Y-0081961*
X0330177Y-0080939*
X0329782Y-0079986*
X0329155Y-0079168*
X0328337Y-0078541*
X0327384Y-0078146*
X0326362Y-0078012*
G37*
G36*
X0088386Y-0143088D02*
X0087718Y-0143176D01*
X0087095Y-0143434*
X0086561Y-0143844*
X008615Y-0144379*
X0086009Y-014472*
X0085772Y-0144974*
X0085521Y-0144918*
X0085117Y-0144751*
X0084449Y-0144663*
X0083781Y-0144751*
X0083158Y-0145009*
X0082624Y-0145419*
X0082213Y-0145954*
X0081956Y-0146576*
X0081868Y-0147244*
X0081956Y-0147912*
X0082213Y-0148535*
X0082624Y-0149069*
X0083158Y-0149479*
X0083781Y-0149737*
X0084449Y-0149825*
X0085117Y-0149737*
X0085739Y-0149479*
X0086274Y-0149069*
X0086684Y-0148535*
X0086825Y-0148194*
X0087063Y-0147939*
X0087314Y-0147995*
X0087718Y-0148162*
X0088386Y-014825*
X0089054Y-0148162*
X0089676Y-0147905*
X0090211Y-0147494*
X0090621Y-014696*
X0090879Y-0146337*
X0090967Y-0145669*
X0090879Y-0145001*
X0090621Y-0144379*
X0090211Y-0143844*
X0089676Y-0143434*
X0089054Y-0143176*
X0088386Y-0143088*
G37*
G36*
X0076772Y-0152045D02*
X0076104Y-0152133D01*
X0075481Y-0152391*
X0074946Y-0152801*
X0074536Y-0153335*
X0074278Y-0153958*
X007419Y-0154626*
X0074278Y-0155294*
X0074536Y-0155917*
X0074946Y-0156451*
X0075481Y-0156861*
X0076104Y-0157119*
X0076772Y-0157207*
X007744Y-0157119*
X0078062Y-0156861*
X0078597Y-0156451*
X0079007Y-0155917*
X0079265Y-0155294*
X0079353Y-0154626*
X0079265Y-0153958*
X0079007Y-0153335*
X0078597Y-0152801*
X0078062Y-0152391*
X007744Y-0152133*
X0076772Y-0152045*
G37*
G36*
X0067716Y-0155933D02*
X0067049Y-0156021D01*
X0066426Y-0156278*
X0065891Y-0156689*
X0065481Y-0157223*
X0065223Y-0157846*
X0065135Y-0158514*
X0065223Y-0159182*
X0065481Y-0159804*
X0065891Y-0160339*
X0066426Y-0160749*
X0067049Y-0161007*
X0067716Y-0161095*
X0068385Y-0161007*
X0069007Y-0160749*
X0069542Y-0160339*
X0069952Y-0159804*
X007021Y-0159182*
X0070298Y-0158514*
X007021Y-0157846*
X0069952Y-0157223*
X0069542Y-0156689*
X0069007Y-0156278*
X0068385Y-0156021*
X0067716Y-0155933*
G37*
G36*
X0029528Y-0147397D02*
X0028192Y-0147573D01*
X0026946Y-0148088*
X0025877Y-0148909*
X0025057Y-0149978*
X0024803Y-0150591*
X0024409*
X0024156Y-0149978*
X0023335Y-0148909*
X0022266Y-0148088*
X0021021Y-0147573*
X0019685Y-0147397*
X0018349Y-0147573*
X0017104Y-0148088*
X0016035Y-0148909*
X0015214Y-0149978*
X0014699Y-0151223*
X0014523Y-0152559*
X0014699Y-0153895*
X0015214Y-015514*
X0016035Y-0156209*
X0017104Y-015703*
X0018349Y-0157545*
X0019685Y-0157721*
X0021021Y-0157545*
X0022266Y-015703*
X0023335Y-0156209*
X0024156Y-015514*
X0024409Y-0154528*
X0024803*
X0025057Y-015514*
X0025877Y-0156209*
X0026946Y-015703*
X0028192Y-0157545*
X0029528Y-0157721*
X0030864Y-0157545*
X0032109Y-015703*
X0033178Y-0156209*
X0033998Y-015514*
X0034514Y-0153895*
X003469Y-0152559*
X0034514Y-0151223*
X0033998Y-0149978*
X0033178Y-0148909*
X0032109Y-0148088*
X0030864Y-0147573*
X0029528Y-0147397*
G37*
G36*
X0076772Y-0135214D02*
X0076104Y-0135302D01*
X0075481Y-013556*
X0074946Y-013597*
X0074536Y-0136505*
X0074278Y-0137127*
X007419Y-0137795*
X0074278Y-0138463*
X0074536Y-0139086*
X0074946Y-013962*
X0075481Y-0140031*
X0076104Y-0140288*
X0076772Y-0140376*
X007744Y-0140288*
X0078062Y-0140031*
X0078597Y-013962*
X0079007Y-0139086*
X0079265Y-0138463*
X0079353Y-0137795*
X0079265Y-0137127*
X0079007Y-0136505*
X0078597Y-013597*
X0078062Y-013556*
X007744Y-0135302*
X0076772Y-0135214*
G37*
G36*
X0067716Y-0138757D02*
X0067049Y-0138845D01*
X0066426Y-0139103*
X0065891Y-0139513*
X0065481Y-0140048*
X0065223Y-0140671*
X0065135Y-0141339*
X0065223Y-0142007*
X0065481Y-0142629*
X0065891Y-0143164*
X0066426Y-0143574*
X0067049Y-0143832*
X0067716Y-014392*
X0068385Y-0143832*
X0069007Y-0143574*
X0069542Y-0143164*
X0069952Y-0142629*
X007021Y-0142007*
X0070298Y-0141339*
X007021Y-0140671*
X0069952Y-0140048*
X0069542Y-0139513*
X0069007Y-0139103*
X0068385Y-0138845*
X0067716Y-0138757*
G37*
G36*
X0029528Y-0133617D02*
X0028192Y-0133793D01*
X0026946Y-0134309*
X0025877Y-0135129*
X0025057Y-0136198*
X0024803Y-0136811*
X0024409*
X0024156Y-0136198*
X0023335Y-0135129*
X0022266Y-0134309*
X0021021Y-0133793*
X0019685Y-0133617*
X0018349Y-0133793*
X0017104Y-0134309*
X0016035Y-0135129*
X0015214Y-0136198*
X0014699Y-0137443*
X0014523Y-0138779*
X0014699Y-0140116*
X0015214Y-0141361*
X0016035Y-014243*
X0017104Y-014325*
X0018349Y-0143766*
X0019685Y-0143942*
X0021021Y-0143766*
X0022266Y-014325*
X0023335Y-014243*
X0024156Y-0141361*
X0024409Y-0140748*
X0024803*
X0025057Y-0141361*
X0025877Y-014243*
X0026946Y-014325*
X0028192Y-0143766*
X0029528Y-0143942*
X0030864Y-0143766*
X0032109Y-014325*
X0033178Y-014243*
X0033998Y-0141361*
X0034514Y-0140116*
X003469Y-0138779*
X0034514Y-0137443*
X0033998Y-0136198*
X0033178Y-0135129*
X0032109Y-0134309*
X0030864Y-0133793*
X0029528Y-0133617*
G37*
G36*
X0067716Y-0190283D02*
X0067049Y-0190371D01*
X0066426Y-0190629*
X0065891Y-0191039*
X0065481Y-0191574*
X0065223Y-0192196*
X0065135Y-0192864*
X0065223Y-0193532*
X0065481Y-0194155*
X0065891Y-0194689*
X0066426Y-0195099*
X0067049Y-0195357*
X0067716Y-0195445*
X0068385Y-0195357*
X0069007Y-0195099*
X0069542Y-0194689*
X0069952Y-0194155*
X007021Y-0193532*
X0070298Y-0192864*
X007021Y-0192196*
X0069952Y-0191574*
X0069542Y-0191039*
X0069007Y-0190629*
X0068385Y-0190371*
X0067716Y-0190283*
G37*
G36*
X0076772Y-0186494D02*
X0076104Y-0186582D01*
X0075481Y-0186839*
X0074946Y-018725*
X0074536Y-0187784*
X0074278Y-0188407*
X007419Y-0189075*
X0074278Y-0189743*
X0074536Y-0190365*
X0074946Y-01909*
X0075481Y-019131*
X0076104Y-0191568*
X0076772Y-0191656*
X007744Y-0191568*
X0078062Y-019131*
X0078597Y-01909*
X0079007Y-0190365*
X0079265Y-0189743*
X0079353Y-0189075*
X0079265Y-0188407*
X0079007Y-0187784*
X0078597Y-018725*
X0078062Y-0186839*
X007744Y-0186582*
X0076772Y-0186494*
G37*
G36*
X0029528Y-0188735D02*
X0028192Y-0188911D01*
X0026946Y-0189427*
X0025877Y-0190247*
X0025057Y-0191316*
X0024803Y-0191929*
X0024409*
X0024156Y-0191316*
X0023335Y-0190247*
X0022266Y-0189427*
X0021021Y-0188911*
X0019685Y-0188735*
X0018349Y-0188911*
X0017104Y-0189427*
X0016035Y-0190247*
X0015214Y-0191316*
X0014699Y-0192562*
X0014523Y-0193898*
X0014699Y-0195234*
X0015214Y-0196479*
X0016035Y-0197548*
X0017104Y-0198368*
X0018349Y-0198884*
X0019685Y-019906*
X0021021Y-0198884*
X0022266Y-0198368*
X0023335Y-0197548*
X0024156Y-0196479*
X0024409Y-0195866*
X0024803*
X0025057Y-0196479*
X0025877Y-0197548*
X0026946Y-0198368*
X0028192Y-0198884*
X0029528Y-019906*
X0030864Y-0198884*
X0032109Y-0198368*
X0033178Y-0197548*
X0033998Y-0196479*
X0034514Y-0195234*
X003469Y-0193898*
X0034514Y-0192562*
X0033998Y-0191316*
X0033178Y-0190247*
X0032109Y-0189427*
X0030864Y-0188911*
X0029528Y-0188735*
G37*
G36*
X0084055Y-0199387D02*
X0083387Y-0199475D01*
X0082765Y-0199733*
X008223Y-0200143*
X008182Y-0200678*
X0081562Y-0201301*
X0081474Y-0201969*
X0081562Y-0202637*
X008182Y-0203259*
X008223Y-0203794*
X0082765Y-0204204*
X0083387Y-0204462*
X0084055Y-020455*
X0084723Y-0204462*
X0085346Y-0204204*
X008588Y-0203794*
X008629Y-0203259*
X0086548Y-0202637*
X0086636Y-0201969*
X0086548Y-0201301*
X008629Y-0200678*
X008588Y-0200143*
X0085346Y-0199733*
X0084723Y-0199475*
X0084055Y-0199387*
G37*
G36*
X0067716Y-0207458D02*
X0067049Y-0207546D01*
X0066426Y-0207804*
X0065891Y-0208214*
X0065481Y-0208749*
X0065223Y-0209371*
X0065135Y-0210039*
X0065223Y-0210707*
X0065481Y-021133*
X0065891Y-0211864*
X0066426Y-0212275*
X0067049Y-0212532*
X0067716Y-021262*
X0068385Y-0212532*
X0069007Y-0212275*
X0069542Y-0211864*
X0069952Y-021133*
X007021Y-0210707*
X0070298Y-0210039*
X007021Y-0209371*
X0069952Y-0208749*
X0069542Y-0208214*
X0069007Y-0207804*
X0068385Y-0207546*
X0067716Y-0207458*
G37*
G36*
X0076772Y-0203718D02*
X0076104Y-0203806D01*
X0075481Y-0204064*
X0074946Y-0204474*
X0074536Y-0205009*
X0074278Y-0205631*
X007419Y-0206299*
X0074278Y-0206967*
X0074536Y-020759*
X0074946Y-0208124*
X0075481Y-0208535*
X0076104Y-0208792*
X0076772Y-020888*
X007744Y-0208792*
X0078062Y-0208535*
X0078597Y-0208124*
X0079007Y-020759*
X0079265Y-0206967*
X0079353Y-0206299*
X0079265Y-0205631*
X0079007Y-0205009*
X0078597Y-0204474*
X0078062Y-0204064*
X007744Y-0203806*
X0076772Y-0203718*
G37*
G36*
X0084055Y-0162183D02*
X0083387Y-0162271D01*
X0082765Y-0162528*
X008223Y-0162939*
X008182Y-0163473*
X0081562Y-0164096*
X0081474Y-0164764*
X0081562Y-0165432*
X008182Y-0166054*
X008223Y-0166589*
X0082765Y-0166999*
X0083387Y-0167257*
X0084055Y-0167345*
X0084723Y-0167257*
X0085346Y-0166999*
X008588Y-0166589*
X008629Y-0166054*
X0086548Y-0165432*
X0086636Y-0164764*
X0086548Y-0164096*
X008629Y-0163473*
X008588Y-0162939*
X0085346Y-0162528*
X0084723Y-0162271*
X0084055Y-0162183*
G37*
G36*
X0076772Y-0169269D02*
X0076104Y-0169357D01*
X0075481Y-0169615*
X0074946Y-0170025*
X0074536Y-017056*
X0074278Y-0171182*
X007419Y-017185*
X0074278Y-0172519*
X0074536Y-0173141*
X0074946Y-0173676*
X0075481Y-0174086*
X0076104Y-0174344*
X0076772Y-0174432*
X007744Y-0174344*
X0078062Y-0174086*
X0078597Y-0173676*
X0079007Y-0173141*
X0079265Y-0172519*
X0079353Y-017185*
X0079265Y-0171182*
X0079007Y-017056*
X0078597Y-0170025*
X0078062Y-0169615*
X007744Y-0169357*
X0076772Y-0169269*
G37*
G36*
X0029528Y-0161176D02*
X0028192Y-0161352D01*
X0026946Y-0161868*
X0025877Y-0162688*
X0025057Y-0163758*
X0024803Y-016437*
X0024409*
X0024156Y-0163758*
X0023335Y-0162688*
X0022266Y-0161868*
X0021021Y-0161352*
X0019685Y-0161176*
X0018349Y-0161352*
X0017104Y-0161868*
X0016035Y-0162688*
X0015214Y-0163758*
X0014699Y-0165003*
X0014523Y-0166339*
X0014699Y-0167675*
X0015214Y-016892*
X0016035Y-0169989*
X0017104Y-0170809*
X0018349Y-0171325*
X0019685Y-0171501*
X0021021Y-0171325*
X0022266Y-0170809*
X0023335Y-0169989*
X0024156Y-016892*
X0024409Y-0168307*
X0024803*
X0025057Y-016892*
X0025877Y-0169989*
X0026946Y-0170809*
X0028192Y-0171325*
X0029528Y-0171501*
X0030864Y-0171325*
X0032109Y-0170809*
X0033178Y-0169989*
X0033998Y-016892*
X0034514Y-0167675*
X003469Y-0166339*
X0034514Y-0165003*
X0033998Y-0163758*
X0033178Y-0162688*
X0032109Y-0161868*
X0030864Y-0161352*
X0029528Y-0161176*
G37*
G36*
X0084055Y-0180883D02*
X0083387Y-0180971D01*
X0082765Y-0181229*
X008223Y-0181639*
X008182Y-0182174*
X0081562Y-0182797*
X0081474Y-0183465*
X0081562Y-0184133*
X008182Y-0184755*
X008223Y-018529*
X0082765Y-01857*
X0083387Y-0185958*
X0084055Y-0186046*
X0084723Y-0185958*
X0085346Y-01857*
X008588Y-018529*
X008629Y-0184755*
X0086548Y-0184133*
X0086636Y-0183465*
X0086548Y-0182797*
X008629Y-0182174*
X008588Y-0181639*
X0085346Y-0181229*
X0084723Y-0180971*
X0084055Y-0180883*
G37*
G36*
X0029528Y-0174956D02*
X0028192Y-0175132D01*
X0026946Y-0175647*
X0025877Y-0176468*
X0025057Y-0177537*
X0024803Y-017815*
X0024409*
X0024156Y-0177537*
X0023335Y-0176468*
X0022266Y-0175647*
X0021021Y-0175132*
X0019685Y-0174956*
X0018349Y-0175132*
X0017104Y-0175647*
X0016035Y-0176468*
X0015214Y-0177537*
X0014699Y-0178782*
X0014523Y-0180118*
X0014699Y-0181454*
X0015214Y-0182699*
X0016035Y-0183768*
X0017104Y-0184589*
X0018349Y-0185105*
X0019685Y-018528*
X0021021Y-0185105*
X0022266Y-0184589*
X0023335Y-0183768*
X0024156Y-0182699*
X0024409Y-0182087*
X0024803*
X0025057Y-0182699*
X0025877Y-0183768*
X0026946Y-0184589*
X0028192Y-0185105*
X0029528Y-018528*
X0030864Y-0185105*
X0032109Y-0184589*
X0033178Y-0183768*
X0033998Y-0182699*
X0034514Y-0181454*
X003469Y-0180118*
X0034514Y-0178782*
X0033998Y-0177537*
X0033178Y-0176468*
X0032109Y-0175647*
X0030864Y-0175132*
X0029528Y-0174956*
G37*
G36*
X0067716Y-0173108D02*
X0067049Y-0173196D01*
X0066426Y-0173454*
X0065891Y-0173864*
X0065481Y-0174398*
X0065223Y-0175021*
X0065135Y-0175689*
X0065223Y-0176357*
X0065481Y-0176979*
X0065891Y-0177514*
X0066426Y-0177924*
X0067049Y-0178182*
X0067716Y-017827*
X0068385Y-0178182*
X0069007Y-0177924*
X0069542Y-0177514*
X0069952Y-0176979*
X007021Y-0176357*
X0070298Y-0175689*
X007021Y-0175021*
X0069952Y-0174398*
X0069542Y-0173864*
X0069007Y-0173454*
X0068385Y-0173196*
X0067716Y-0173108*
G37*
G36*
X0019685Y-0112056D02*
X0016648Y-0115093D01*
X0017203Y-0115519*
X00184Y-0116015*
X0019685Y-0116184*
X002097Y-0116015*
X0022167Y-0115519*
X0022722Y-0115093*
X0019685Y-0112056*
G37*
G36*
X0342348Y-0128781D02*
X0342114Y-0129085D01*
X0341739Y-012999*
X0341612Y-0130961*
X0341739Y-0131931*
X0342114Y-0132836*
X0342348Y-013314*
X0344527Y-0130961*
X0342348Y-0128781*
G37*
G36*
X0345362Y-0131796D02*
X0343183Y-0133975D01*
X0343487Y-0134209*
X0344391Y-0134583*
X0345362Y-0134711*
X0346333Y-0134583*
X0347237Y-0134209*
X0347542Y-0133975*
X0345362Y-0131796*
G37*
G36*
Y-0053796D02*
X0343183Y-0055975D01*
X0343487Y-0056209*
X0344391Y-0056583*
X0345362Y-0056711*
X0346333Y-0056583*
X0347237Y-0056209*
X0347542Y-0055975*
X0345362Y-0053796*
G37*
G36*
Y-005721D02*
X0344391Y-0057338D01*
X0343487Y-0057713*
X0343183Y-0057946*
X0345362Y-0060125*
X0347542Y-0057946*
X0347237Y-0057713*
X0346333Y-0057338*
X0345362Y-005721*
G37*
G36*
X0342348Y-0058781D02*
X0342114Y-0059085D01*
X0341739Y-005999*
X0341612Y-0060961*
X0341739Y-0061931*
X0342114Y-0062836*
X0342348Y-006314*
X0344527Y-0060961*
X0342348Y-0058781*
G37*
G36*
X0356278Y-0037045D02*
X0348447D01*
Y-0041947*
X0348053Y-004209*
X0347337Y-0041541*
X0346384Y-0041146*
X0345362Y-0041012*
X034434Y-0041146*
X0343388Y-0041541*
X034257Y-0042168*
X0341942Y-0042986*
X0341548Y-0043938*
X0341413Y-0044961*
X0341548Y-0045983*
X0341942Y-0046935*
X034257Y-0047753*
X0343388Y-0048381*
X034434Y-0048775*
X0344994Y-0048861*
Y-0049259*
X0344391Y-0049338*
X0343487Y-0049712*
X0343183Y-0049946*
X034578Y-0052543*
X0348377Y-005514*
X0348463Y-0055027*
X034854Y-0054927*
X0348884Y-0055125*
X0348837Y-0055239*
X0348548Y-0055939*
X0348413Y-0056961*
X0348548Y-0057983*
X0348837Y-0058682*
X0348884Y-0058796*
X034854Y-0058994*
X0348463Y-0058894*
X0348377Y-0058781*
X0346197Y-0060961*
X0348377Y-006314*
X0348463Y-0063027*
X034854Y-0062927*
X0348884Y-0063125*
X0348837Y-0063239*
X0348548Y-0063938*
X0348413Y-0064961*
X0348548Y-0065983*
X0348837Y-0066682*
X0348884Y-0066796*
X034854Y-0066994*
X0348463Y-0066894*
X0348377Y-0066781*
X0346197Y-0068961*
X0348377Y-007114*
X034861Y-0070836*
X0348985Y-0069931*
X0349113Y-0068961*
X0348985Y-006799*
X0348715Y-0067338*
X0348668Y-0067225*
X0349012Y-0067026*
X0349089Y-0067127*
X034957Y-0067753*
X0350388Y-0068381*
X035134Y-0068775*
X0352362Y-006891*
X0353384Y-0068775*
X0354337Y-0068381*
X0355155Y-0067753*
X0355782Y-0066935*
X0356177Y-0065983*
X0356311Y-0064961*
X0356177Y-0063938*
X0355782Y-0062986*
X0355155Y-0062168*
X0354337Y-0061541*
X0353432Y-0061166*
X0353384Y-0060985*
Y-0060936*
X0353432Y-0060755*
X0354337Y-0060381*
X0355155Y-0059753*
X0355782Y-0058935*
X0356177Y-0057983*
X0356311Y-0056961*
X0356177Y-0055939*
X0355782Y-0054986*
X0355155Y-0054168*
X0354337Y-0053541*
X0353432Y-0053166*
X0353384Y-0052985*
Y-0052936*
X0353432Y-0052755*
X0354337Y-0052381*
X0355155Y-0051753*
X0355782Y-0050935*
X0356177Y-0049983*
X0356311Y-0048961*
X0356177Y-0047938*
X0355782Y-0046986*
X0355155Y-0046168*
X0354337Y-0045541*
X0353683Y-004527*
X0353761Y-0044876*
X0356278*
Y-0037045*
G37*
G36*
X0342348Y-0050781D02*
X0342114Y-0051085D01*
X0341739Y-005199*
X0341612Y-0052961*
X0341739Y-0053931*
X0342114Y-0054836*
X0342348Y-005514*
X0344527Y-0052961*
X0342348Y-0050781*
G37*
G36*
Y-0066781D02*
X0342114Y-0067085D01*
X0341739Y-006799*
X0341612Y-0068961*
X0341739Y-0069931*
X0342114Y-0070836*
X0342348Y-007114*
X0344527Y-0068961*
X0342348Y-0066781*
G37*
G36*
X0345362Y-0069796D02*
X0343183Y-0071975D01*
X0343487Y-0072209*
X0344391Y-0072583*
X0345362Y-0072711*
X0346333Y-0072583*
X0347237Y-0072209*
X0347542Y-0071975*
X0345362Y-0069796*
G37*
G36*
Y-0061796D02*
X0343183Y-0063975D01*
X0343487Y-0064209*
X0344391Y-0064583*
X0345362Y-0064711*
X0346333Y-0064583*
X0347237Y-0064209*
X0347542Y-0063975*
X0345362Y-0061796*
G37*
G36*
Y-006521D02*
X0344391Y-0065338D01*
X0343487Y-0065712*
X0343183Y-0065946*
X0345362Y-0068125*
X0347542Y-0065946*
X0347237Y-0065712*
X0346333Y-0065338*
X0345362Y-006521*
G37*
G36*
X0356032Y-0003128D02*
X0355364Y-0003215D01*
X0354742Y-0003473*
X0354207Y-0003884*
X0353797Y-0004418*
X0353539Y-0005041*
X0353451Y-0005709*
X0353539Y-0006377*
X0353797Y-0006999*
X0354207Y-0007534*
X0354742Y-0007944*
X0355364Y-0008202*
X0356032Y-000829*
X03567Y-0008202*
X0357323Y-0007944*
X0357857Y-0007534*
X0358268Y-0006999*
X0358526Y-0006377*
X0358613Y-0005709*
X0358526Y-0005041*
X0358268Y-0004418*
X0357857Y-0003884*
X0357323Y-0003473*
X03567Y-0003215*
X0356032Y-0003128*
G37*
G36*
X0367716D02*
X0367048Y-0003215D01*
X0366426Y-0003473*
X0365891Y-0003884*
X0365481Y-0004418*
X0365223Y-0005041*
X0365135Y-0005709*
X0365223Y-0006377*
X0365481Y-0006999*
X0365891Y-0007534*
X0366426Y-0007944*
X0367048Y-0008202*
X0367716Y-000829*
X0368385Y-0008202*
X0369007Y-0007944*
X0369542Y-0007534*
X0369952Y-0006999*
X037021Y-0006377*
X0370298Y-0005709*
X037021Y-0005041*
X0369952Y-0004418*
X0369542Y-0003884*
X0369007Y-0003473*
X0368385Y-0003215*
X0367716Y-0003128*
G37*
G36*
X0344348D02*
X034368Y-0003215D01*
X0343058Y-0003473*
X0342523Y-0003884*
X0342113Y-0004418*
X0341855Y-0005041*
X0341767Y-0005709*
X0341855Y-0006377*
X0342113Y-0006999*
X0342523Y-0007534*
X0343058Y-0007944*
X034368Y-0008202*
X0344348Y-000829*
X0345016Y-0008202*
X0345639Y-0007944*
X0346174Y-0007534*
X0346584Y-0006999*
X0346842Y-0006377*
X034693Y-0005709*
X0346842Y-0005041*
X0346584Y-0004418*
X0346174Y-0003884*
X0345639Y-0003473*
X0345016Y-0003215*
X0344348Y-0003128*
G37*
G36*
X0362362Y-0022345D02*
X0360876Y-0022492D01*
X0359448Y-0022925*
X0358131Y-0023629*
X0356977Y-0024576*
X035603Y-002573*
X0355327Y-0027046*
X0354893Y-0028475*
X0354747Y-0029961*
X0354893Y-0031446*
X0355327Y-0032875*
X035603Y-0034192*
X0356977Y-0035346*
X0358131Y-0036293*
X0359448Y-0036996*
X0360876Y-003743*
X0362362Y-0037576*
X0363848Y-003743*
X0365277Y-0036996*
X0366593Y-0036293*
X0367747Y-0035346*
X0368694Y-0034192*
X0369398Y-0032875*
X0369831Y-0031446*
X0369978Y-0029961*
X0369831Y-0028475*
X0369398Y-0027046*
X0368694Y-002573*
X0367747Y-0024576*
X0366593Y-0023629*
X0365277Y-0022925*
X0363848Y-0022492*
X0362362Y-0022345*
G37*
G36*
X0348862Y-0016987D02*
X0347697Y-0017102D01*
X0346576Y-0017442*
X0345543Y-0017994*
X0344638Y-0018737*
X0343895Y-0019642*
X0343343Y-0020675*
X0343003Y-0021795*
X0342889Y-0022961*
X0343003Y-0024126*
X0343343Y-0025247*
X0343895Y-0026279*
X0344638Y-0027185*
X0345543Y-0027928*
X0346576Y-002848*
X0347697Y-002882*
X0348862Y-0028934*
X0350028Y-002882*
X0351148Y-002848*
X0352181Y-0027928*
X0353086Y-0027185*
X0353829Y-0026279*
X0354381Y-0025247*
X0354721Y-0024126*
X0354836Y-0022961*
X0354721Y-0021795*
X0354381Y-0020675*
X0353829Y-0019642*
X0353086Y-0018737*
X0352181Y-0017994*
X0351148Y-0017442*
X0350028Y-0017102*
X0348862Y-0016987*
G37*
G36*
X0342348Y-0112781D02*
X0342114Y-0113085D01*
X0341739Y-011399*
X0341612Y-0114961*
X0341739Y-0115931*
X0342114Y-0116836*
X0342348Y-011714*
X0344527Y-0114961*
X0342348Y-0112781*
G37*
G36*
X0356278Y-0099045D02*
X0348447D01*
Y-0103947*
X0348053Y-010409*
X0347337Y-0103541*
X0346384Y-0103146*
X0345362Y-0103012*
X034434Y-0103146*
X0343388Y-0103541*
X034257Y-0104168*
X0341942Y-0104986*
X0341548Y-0105938*
X0341413Y-0106961*
X0341548Y-0107983*
X0341942Y-0108935*
X034257Y-0109753*
X0343388Y-0110381*
X034434Y-0110775*
X0344994Y-0110861*
Y-0111258*
X0344391Y-0111338*
X0343487Y-0111713*
X0343183Y-0111946*
X034578Y-0114543*
X0348377Y-011714*
X0348463Y-0117027*
X034854Y-0116927*
X0348884Y-0117125*
X0348837Y-0117239*
X0348548Y-0117938*
X0348413Y-0118961*
X0348548Y-0119983*
X0348837Y-0120682*
X0348884Y-0120796*
X034854Y-0120994*
X0348463Y-0120894*
X0348377Y-0120781*
X0346197Y-0122961*
X0348377Y-012514*
X0348463Y-0125027*
X034854Y-0124927*
X0348884Y-0125125*
X0348837Y-0125239*
X0348548Y-0125938*
X0348413Y-0126961*
X0348548Y-0127983*
X0348837Y-0128682*
X0348884Y-0128796*
X034854Y-0128994*
X0348463Y-0128894*
X0348377Y-0128781*
X0346197Y-0130961*
X0348377Y-013314*
X034861Y-0132836*
X0348985Y-0131931*
X0349113Y-0130961*
X0348985Y-012999*
X0348715Y-0129338*
X0348668Y-0129225*
X0349012Y-0129026*
X0349089Y-0129127*
X034957Y-0129753*
X0350388Y-0130381*
X035134Y-0130775*
X0352362Y-013091*
X0353384Y-0130775*
X0354337Y-0130381*
X0355155Y-0129753*
X0355782Y-0128935*
X0356177Y-0127983*
X0356311Y-0126961*
X0356177Y-0125938*
X0355782Y-0124986*
X0355155Y-0124168*
X0354337Y-0123541*
X0353432Y-0123166*
X0353384Y-0122985*
Y-0122936*
X0353432Y-0122755*
X0354337Y-0122381*
X0355155Y-0121753*
X0355782Y-0120935*
X0356177Y-0119983*
X0356311Y-0118961*
X0356177Y-0117938*
X0355782Y-0116986*
X0355155Y-0116168*
X0354337Y-0115541*
X0353432Y-0115166*
X0353384Y-0114985*
Y-0114936*
X0353432Y-0114755*
X0354337Y-0114381*
X0355155Y-0113753*
X0355782Y-0112935*
X0356177Y-0111983*
X0356311Y-0110961*
X0356177Y-0109939*
X0355782Y-0108986*
X0355155Y-0108168*
X0354337Y-0107541*
X0353683Y-010727*
X0353761Y-0106876*
X0356278*
Y-0099045*
G37*
G36*
X0342348Y-0120781D02*
X0342114Y-0121085D01*
X0341739Y-012199*
X0341612Y-0122961*
X0341739Y-0123931*
X0342114Y-0124836*
X0342348Y-012514*
X0344527Y-0122961*
X0342348Y-0120781*
G37*
G36*
X0345362Y-011921D02*
X0344391Y-0119338D01*
X0343487Y-0119712*
X0343183Y-0119946*
X0345362Y-0122125*
X0347542Y-0119946*
X0347237Y-0119712*
X0346333Y-0119338*
X0345362Y-011921*
G37*
G36*
Y-0123796D02*
X0343183Y-0125975D01*
X0343487Y-0126209*
X0344391Y-0126583*
X0345362Y-0126711*
X0346333Y-0126583*
X0347237Y-0126209*
X0347542Y-0125975*
X0345362Y-0123796*
G37*
G36*
Y-012721D02*
X0344391Y-0127338D01*
X0343487Y-0127713*
X0343183Y-0127946*
X0345362Y-0130125*
X0347542Y-0127946*
X0347237Y-0127713*
X0346333Y-0127338*
X0345362Y-012721*
G37*
G36*
Y-0115796D02*
X0343183Y-0117975D01*
X0343487Y-0118209*
X0344391Y-0118583*
X0345362Y-0118711*
X0346333Y-0118583*
X0347237Y-0118209*
X0347542Y-0117975*
X0345362Y-0115796*
G37*
%LNrobocontroller-3*%
%LPD*%
G54D49*
X0029528Y-0056102D02*
X004685D01*
X0040945Y-0046063D02*
X004685D01*
X0037421Y-0032461D02*
X0048228D01*
X0029528Y-0022638D02*
X0047835D01*
X0019685Y-003248D02*
X0029528Y-0022638D01*
X0019685Y-0042323D02*
Y-003248D01*
X0029528Y-0040354D02*
X0037421Y-0032461D01*
X0029528Y-0042323D02*
Y-0040354D01*
G54D50*
X0019685Y-0056102D02*
X0026575Y-0049213D01*
X0019685Y-0069882D02*
X0026378Y-0063189D01*
X0026575Y-0049213D02*
X0037795D01*
X0040945Y-0046063*
X0026378Y-0063189D02*
X0036417D01*
G54D51*
X0044685Y-0087795D02*
X0049016D01*
X0033661Y-0076772D02*
X0044685Y-0087795D01*
X0043701Y-0094685D02*
X0045669Y-0096653D01*
X0043701Y-0094685D02*
Y-0094291D01*
Y-009626D02*
Y-0094685D01*
X0033071Y-0083661D02*
X0043701Y-0094291D01*
X0029528Y-0083661D02*
X0033071D01*
X0043701Y-009626D02*
X0045079Y-0097638D01*
X0025Y-0090551D02*
X0032874D01*
X0037992Y-0095669*
Y-009941D02*
Y-0095669D01*
X0024409Y-0076772D02*
X0033661D01*
X0019685Y-0081496D02*
X0024409Y-0076772D01*
X0019685Y-0083661D02*
Y-0081496D01*
Y-0097441D02*
Y-0095866D01*
X0025Y-0090551*
X0045669Y-0097638D02*
X0046949Y-0098917D01*
X0045669Y-0097638D02*
D01*
Y-0096653*
X0045079Y-0097638D02*
X0045669D01*
X0046654*
X0045669Y-0096653D02*
X0046654Y-0097638D01*
X0045079D02*
X0046358Y-0098917D01*
X0046949*
G54D52*
X0037008Y-0064567D02*
X0047441D01*
X0039764Y-0072441D02*
X0045177Y-0077854D01*
G54D53*
X0029331Y-007126D02*
X0038583D01*
X0046457Y-0109646D02*
X004685Y-0108268D01*
X0046801Y-0111614D02*
X004685Y-0111663D01*
X0029528Y-0099803D02*
Y-0097441D01*
Y-0069882D02*
X0030709Y-0071063D01*
X0038583Y-007126D02*
X0039764Y-0072441D01*
X0037992Y-009941D02*
X004685Y-0108268D01*
X0046457Y-0109646D02*
X004685Y-0111663D01*
X0029528Y-0099803D02*
X0040551Y-0110827D01*
Y-0115551D02*
Y-0110827D01*
X0046501Y-0111751D02*
X0046801Y-0111614D01*
X0046501Y-0111751D02*
X0047439Y-0113862D01*
X0047935Y-0113708*
X0040551Y-0115551D02*
X004685Y-012185D01*
G54D58*
X0226969Y-0021654D03*
X0297953Y-0130512D03*
G54D62*
X0029528Y-0042323D03*
X0019685D03*
Y-0111221D03*
X0029528Y-0097441D03*
X0019685D03*
Y-0056102D03*
X0029528D03*
X0019685Y-0069882D03*
X0029528D03*
X0019685Y-0083661D03*
X0029528D03*
G54D65*
X0345362Y-0114961D03*
Y-0122961D03*
Y-0130961D03*
Y-0052961D03*
Y-0060961D03*
Y-0068961D03*
G54D68*
X0173425Y-0160846D03*
X021437Y-0152165D03*
X0127362Y-0145276D03*
Y-016437D03*
Y-0182874D03*
Y-0207087D03*
X0237008Y-0193688D03*
X0251772Y-0176181D03*
X0237008Y-0186614D03*
X0140157Y-0105118D03*
X0175197Y-002126D03*
X026752Y-0070669D03*
X0280118Y-0205512D03*
Y-0208465D03*
X0311024Y-0206102D03*
X0249213Y-004685D03*
X0254921Y-0038976D03*
X0263976Y-0104921D03*
X0285039Y-0189764D03*
X0301378Y-0152559D03*
X0292126Y-0155512D03*
X026181Y-0149606D03*
X0199409Y-0133465D03*
X0239567Y-0130315D03*
X0250591Y-0095472D03*
Y-0073819D03*
X0212008Y-003563D03*
X0192323D03*
X0168701D03*
X0154134Y-0058071D03*
Y-0082087D03*
X0153347Y-010374D03*
X0154134Y-0111614D03*
X0173031Y-0132087D03*
X0102756Y-0125197D03*
X009941Y-0141142D03*
X0102756Y-0144095D03*
X0102559Y-0201181D03*
X0099606Y-0198228D03*
X0102362Y-018248D03*
X009941Y-0179134D03*
X0102756Y-0163976D03*
X009941Y-0160039D03*
X0100787Y-0211417D03*
X0218307Y-0132087D03*
G54D70*
X0043898Y-0020669D03*
X0047835D03*
Y-0030512D03*
X0043898D03*
X0047441Y-0044094D03*
X0043504D03*
X004685Y-0054134D03*
X0042913D03*
X0047638Y-0063779D03*
X0043701D03*
X0045276Y-0076575D03*
X0042323Y-0073819D03*
X0048819Y-0087303D03*
X0044882D03*
X0046949Y-0098917D03*
X0043701Y-009626D03*
X0046457Y-0109843D03*
X0047638Y-0113386D03*
X0043701Y-0119095D03*
X004685Y-012185D03*
M02*