%FSTAX25Y25*%
%MOIN*%
%SFA1B1*%

%IPPOS*%
%AMD80*
4,1,8,0.014500,0.014800,-0.014500,0.014800,-0.022800,0.006400,-0.022800,-0.006400,-0.014500,-0.014800,0.014500,-0.014800,0.022800,-0.006400,0.022800,0.006400,0.014500,0.014800,0.0*
1,1,0.016740,0.014500,0.006400*
1,1,0.016740,-0.014500,0.006400*
1,1,0.016740,-0.014500,-0.006400*
1,1,0.016740,0.014500,-0.006400*
%
%AMD93*
4,1,8,-0.087100,-0.046300,0.087100,-0.046300,0.112300,-0.021200,0.112300,0.021200,0.087100,0.046300,-0.087100,0.046300,-0.112300,0.021200,-0.112300,-0.021200,-0.087100,-0.046300,0.0*
1,1,0.050320,-0.087100,-0.021200*
1,1,0.050320,0.087100,-0.021200*
1,1,0.050320,0.087100,0.021200*
1,1,0.050320,-0.087100,0.021200*
%
%ADD12R,0.049210X0.025590*%
%ADD28R,0.059050X0.076770*%
%ADD63C,0.127950*%
%ADD64C,0.095280*%
%ADD65C,0.054690*%
%ADD66R,0.054690X0.054690*%
%ADD79R,0.035430X0.035430*%
G04~CAMADD=80~8~0.0~0.0~456.7~295.3~83.7~0.0~15~0.0~0.0~0.0~0.0~0~0.0~0.0~0.0~0.0~0~0.0~0.0~0.0~0.0~456.7~295.3*
%ADD80D80*%
%ADD81R,0.043700X0.032480*%
%ADD82R,0.043310X0.032090*%
%ADD83R,0.034650X0.043310*%
%ADD84R,0.035430X0.043310*%
%ADD85R,0.043310X0.032480*%
%ADD86R,0.053150X0.029530*%
%ADD87R,0.053150X0.066930*%
%ADD88O,0.090550X0.027560*%
%ADD89R,0.049210X0.039370*%
%ADD90R,0.083940X0.029940*%
%ADD91R,0.049210X0.074800*%
%ADD92O,0.031500X0.102360*%
G04~CAMADD=93~8~0.0~0.0~2245.3~926.5~251.6~0.0~15~0.0~0.0~0.0~0.0~0~0.0~0.0~0.0~0.0~0~0.0~0.0~0.0~180.0~2246.0~927.0*
%ADD93D93*%
%ADD94R,0.074800X0.049210*%
%ADD95R,0.053150X0.082680*%
%ADD96R,0.033940X0.033940*%
%ADD97R,0.051180X0.161420*%
%ADD98O,0.064960X0.013780*%
%ADD99O,0.013780X0.064960*%
%ADD100O,0.015750X0.086610*%
%ADD101O,0.086610X0.015750*%
%ADD102R,0.039370X0.019680*%
%ADD103R,0.137800X0.173230*%
%ADD104R,0.066930X0.035430*%
%ADD105R,0.027560X0.039370*%
%ADD106R,0.039370X0.027560*%
%ADD107R,0.100390X0.100390*%
%ADD108R,0.035430X0.035430*%
%ADD109O,0.102360X0.031500*%
%ADD110R,0.033940X0.033940*%
%ADD111R,0.100390X0.100390*%
%ADD112R,0.062990X0.062990*%
%ADD113C,0.062990*%
%ADD114R,0.057090X0.057090*%
%ADD115C,0.057090*%
%ADD116C,0.112200*%
%ADD117C,0.082680*%
%ADD118C,0.023620*%
%LNrobocontroller-1*%
%LPD*%
G36*
X0067165Y-0087995D02*
X0067202Y-0088006D01*
X0067236Y-0088024*
X0067266Y-0088049*
X006729Y-0088079*
X0067309Y-0088113*
X006732Y-008815*
X0067324Y-0088189*
Y-0089764*
Y-0098032*
X006732Y-009807*
X0067309Y-0098107*
X006729Y-0098141*
X0067266Y-0098171*
X0067236Y-0098196*
X0067202Y-0098214*
X0067165Y-0098225*
X0067126Y-0098229*
X0050394*
X0050355Y-0098225*
X0050318Y-0098214*
X0050284Y-0098196*
X0050254Y-0098171*
X0050229Y-0098141*
X0050211Y-0098107*
X00502Y-009807*
X0050196Y-0098032*
Y-0095079*
X00502Y-009504*
X0050211Y-0095003*
X0050229Y-0094969*
X0050254Y-0094939*
X0050284Y-0094914*
X0050318Y-0094896*
X0050355Y-0094885*
X0050394Y-0094881*
X0052361*
Y-0092816*
X0050394*
X0050355Y-0092812*
X0050318Y-0092801*
X0050284Y-0092783*
X0050254Y-0092758*
X0050229Y-0092728*
X0050211Y-0092694*
X00502Y-0092657*
X0050196Y-0092618*
Y-0089764*
X00502Y-0089725*
X0050211Y-0089688*
X0050229Y-0089654*
X0050254Y-0089624*
X0050284Y-0089599*
X0050318Y-0089581*
X0050355Y-008957*
X0050394Y-0089566*
X0054133*
Y-0088189*
X0054137Y-008815*
X0054148Y-0088113*
X0054166Y-0088079*
X0054191Y-0088049*
X0054221Y-0088024*
X0054255Y-0088006*
X0054292Y-0087995*
X0054331Y-0087991*
X0057579*
X0057617Y-0087995*
X0057654Y-0088006*
X0057689Y-0088024*
X0057719Y-0088049*
X0057743Y-0088079*
X0057762Y-0088113*
X0057773Y-008815*
X0057776Y-0088189*
Y-0089566*
X0063779*
Y-0088189*
X0063782Y-008815*
X0063794Y-0088113*
X0063812Y-0088079*
X0063836Y-0088049*
X0063867Y-0088024*
X0063901Y-0088006*
X0063938Y-0087995*
X0063976Y-0087991*
X0067126*
X0067165Y-0087995*
G37*
G36*
Y-0075593D02*
X0067202Y-0075605D01*
X0067236Y-0075623*
X0067266Y-0075647*
X006729Y-0075678*
X0067309Y-0075712*
X006732Y-0075749*
X0067324Y-0075787*
Y-0084055*
Y-008563*
X006732Y-0085668*
X0067309Y-0085706*
X006729Y-008574*
X0067266Y-008577*
X0067236Y-0085794*
X0067202Y-0085813*
X0067165Y-0085824*
X0067126Y-0085828*
X0063976*
X0063938Y-0085824*
X0063901Y-0085813*
X0063867Y-0085794*
X0063836Y-008577*
X0063812Y-008574*
X0063794Y-0085706*
X0063782Y-0085668*
X0063779Y-008563*
Y-0084253*
X0057776*
Y-008563*
X0057773Y-0085668*
X0057762Y-0085706*
X0057743Y-008574*
X0057719Y-008577*
X0057689Y-0085794*
X0057654Y-0085813*
X0057617Y-0085824*
X0057579Y-0085828*
X0054331*
X0054292Y-0085824*
X0054255Y-0085813*
X0054221Y-0085794*
X0054191Y-008577*
X0054166Y-008574*
X0054148Y-0085706*
X0054137Y-0085668*
X0054133Y-008563*
Y-0084253*
X0050394*
X0050355Y-0084249*
X0050318Y-0084238*
X0050284Y-008422*
X0050254Y-0084195*
X0050229Y-0084165*
X0050211Y-0084131*
X00502Y-0084094*
X0050196Y-0084055*
Y-0081201*
X00502Y-0081162*
X0050211Y-0081125*
X0050229Y-0081091*
X0050254Y-0081061*
X0050284Y-0081036*
X0050318Y-0081018*
X0050355Y-0081007*
X0050394Y-0081003*
X0052361*
Y-0078938*
X0050394*
X0050355Y-0078934*
X0050318Y-0078923*
X0050284Y-0078905*
X0050254Y-007888*
X0050229Y-007885*
X0050211Y-0078816*
X00502Y-0078779*
X0050196Y-007874*
Y-0075787*
X00502Y-0075749*
X0050211Y-0075712*
X0050229Y-0075678*
X0050254Y-0075647*
X0050284Y-0075623*
X0050318Y-0075605*
X0050355Y-0075593*
X0050394Y-007559*
X0067126*
X0067165Y-0075593*
G37*
G36*
Y-0099412D02*
X0067202Y-0099424D01*
X0067236Y-0099442*
X0067266Y-0099466*
X006729Y-0099496*
X0067309Y-0099531*
X006732Y-0099568*
X0067324Y-0099606*
Y-0107874*
Y-0109449*
X006732Y-0109487*
X0067309Y-0109525*
X006729Y-0109559*
X0067266Y-0109589*
X0067236Y-0109613*
X0067202Y-0109632*
X0067165Y-0109643*
X0067126Y-0109647*
X0063976*
X0063938Y-0109643*
X0063901Y-0109632*
X0063867Y-0109613*
X0063836Y-0109589*
X0063812Y-0109559*
X0063794Y-0109525*
X0063782Y-0109487*
X0063779Y-0109449*
Y-0108072*
X0057776*
Y-0109449*
X0057773Y-0109487*
X0057762Y-0109525*
X0057743Y-0109559*
X0057719Y-0109589*
X0057689Y-0109613*
X0057654Y-0109632*
X0057617Y-0109643*
X0057579Y-0109647*
X0054331*
X0054292Y-0109643*
X0054255Y-0109632*
X0054221Y-0109613*
X0054191Y-0109589*
X0054166Y-0109559*
X0054148Y-0109525*
X0054137Y-0109487*
X0054133Y-0109449*
Y-0108072*
X0050394*
X0050355Y-0108068*
X0050318Y-0108057*
X0050284Y-0108038*
X0050254Y-0108014*
X0050229Y-0107984*
X0050211Y-010795*
X00502Y-0107913*
X0050196Y-0107874*
Y-010502*
X00502Y-0104981*
X0050211Y-0104944*
X0050229Y-010491*
X0050254Y-010488*
X0050284Y-0104855*
X0050318Y-0104837*
X0050355Y-0104826*
X0050394Y-0104822*
X0052361*
Y-0102757*
X0050394*
X0050355Y-0102753*
X0050318Y-0102742*
X0050284Y-0102724*
X0050254Y-0102699*
X0050229Y-0102669*
X0050211Y-0102635*
X00502Y-0102598*
X0050196Y-0102559*
Y-0099606*
X00502Y-0099568*
X0050211Y-0099531*
X0050229Y-0099496*
X0050254Y-0099466*
X0050284Y-0099442*
X0050318Y-0099424*
X0050355Y-0099412*
X0050394Y-0099409*
X0067126*
X0067165Y-0099412*
G37*
G36*
X0066968Y-0123231D02*
X0067005Y-0123242D01*
X0067039Y-0123261*
X0067069Y-0123285*
X0067094Y-0123315*
X0067112Y-0123349*
X0067123Y-0123387*
X0067127Y-0123425*
Y-0131693*
Y-0133268*
X0067123Y-0133306*
X0067112Y-0133343*
X0067094Y-0133378*
X0067069Y-0133408*
X0067039Y-0133432*
X0067005Y-013345*
X0066968Y-0133462*
X0066929Y-0133466*
X0063779*
X0063741Y-0133462*
X0063704Y-013345*
X006367Y-0133432*
X006364Y-0133408*
X0063615Y-0133378*
X0063597Y-0133343*
X0063586Y-0133306*
X0063582Y-0133268*
Y-0131891*
X005758*
Y-0133268*
X0057576Y-0133306*
X0057565Y-0133343*
X0057546Y-0133378*
X0057522Y-0133408*
X0057492Y-0133432*
X0057458Y-013345*
X005742Y-0133462*
X0057382Y-0133466*
X0054134*
X0054095Y-0133462*
X0054058Y-013345*
X0054024Y-0133432*
X0053994Y-0133408*
X0053969Y-0133378*
X0053951Y-0133343*
X005394Y-0133306*
X0053936Y-0133268*
Y-0131891*
X0050197*
X0050158Y-0131887*
X0050121Y-0131876*
X0050087Y-0131857*
X0050057Y-0131833*
X0050032Y-0131803*
X0050014Y-0131769*
X0050003Y-0131731*
X0049999Y-0131693*
Y-0128839*
X0050003Y-01288*
X0050014Y-0128763*
X0050032Y-0128729*
X0050057Y-0128699*
X0050087Y-0128674*
X0050121Y-0128656*
X0050158Y-0128645*
X0050197Y-0128641*
X0052164*
Y-0126576*
X0050197*
X0050158Y-0126572*
X0050121Y-0126561*
X0050087Y-0126542*
X0050057Y-0126518*
X0050032Y-0126488*
X0050014Y-0126454*
X0050003Y-0126417*
X0049999Y-0126378*
Y-0123425*
X0050003Y-0123387*
X0050014Y-0123349*
X0050032Y-0123315*
X0050057Y-0123285*
X0050087Y-0123261*
X0050121Y-0123242*
X0050158Y-0123231*
X0050197Y-0123227*
X0066929*
X0066968Y-0123231*
G37*
G36*
Y-0111814D02*
X0067005Y-0111825D01*
X0067039Y-0111843*
X0067069Y-0111868*
X0067094Y-0111898*
X0067112Y-0111932*
X0067123Y-0111969*
X0067127Y-0112008*
Y-0113583*
Y-012185*
X0067123Y-0121889*
X0067112Y-0121926*
X0067094Y-012196*
X0067069Y-012199*
X0067039Y-0122015*
X0067005Y-0122033*
X0066968Y-0122044*
X0066929Y-0122048*
X0050197*
X0050158Y-0122044*
X0050121Y-0122033*
X0050087Y-0122015*
X0050057Y-012199*
X0050032Y-012196*
X0050014Y-0121926*
X0050003Y-0121889*
X0049999Y-012185*
Y-0118898*
X0050003Y-0118859*
X0050014Y-0118822*
X0050032Y-0118788*
X0050057Y-0118758*
X0050087Y-0118733*
X0050121Y-0118715*
X0050158Y-0118704*
X0050197Y-01187*
X0052164*
Y-0116635*
X0050197*
X0050158Y-0116631*
X0050121Y-011662*
X0050087Y-0116602*
X0050057Y-0116577*
X0050032Y-0116547*
X0050014Y-0116513*
X0050003Y-0116476*
X0049999Y-0116437*
Y-0113583*
X0050003Y-0113544*
X0050014Y-0113507*
X0050032Y-0113473*
X0050057Y-0113443*
X0050087Y-0113418*
X0050121Y-01134*
X0050158Y-0113389*
X0050197Y-0113385*
X0053936*
Y-0112008*
X005394Y-0111969*
X0053951Y-0111932*
X0053969Y-0111898*
X0053994Y-0111868*
X0054024Y-0111843*
X0054058Y-0111825*
X0054095Y-0111814*
X0054134Y-011181*
X0057382*
X005742Y-0111814*
X0057458Y-0111825*
X0057492Y-0111843*
X0057522Y-0111868*
X0057546Y-0111898*
X0057565Y-0111932*
X0057576Y-0111969*
X005758Y-0112008*
Y-0113385*
X0063582*
Y-0112008*
X0063586Y-0111969*
X0063597Y-0111932*
X0063615Y-0111898*
X006364Y-0111868*
X006367Y-0111843*
X0063704Y-0111825*
X0063741Y-0111814*
X0063779Y-011181*
X0066929*
X0066968Y-0111814*
G37*
G36*
X0067066Y-002833D02*
X0067103Y-0028341D01*
X0067137Y-0028359*
X0067167Y-0028384*
X0067192Y-0028414*
X006721Y-0028448*
X0067222Y-0028485*
X0067225Y-0028524*
Y-0036791*
Y-0038366*
X0067222Y-0038405*
X006721Y-0038442*
X0067192Y-0038476*
X0067167Y-0038506*
X0067137Y-0038531*
X0067103Y-0038549*
X0067066Y-003856*
X0067028Y-0038564*
X0063878*
X0063839Y-003856*
X0063802Y-0038549*
X0063768Y-0038531*
X0063738Y-0038506*
X0063714Y-0038476*
X0063695Y-0038442*
X0063684Y-0038405*
X006368Y-0038366*
Y-0036989*
X0057678*
Y-0038366*
X0057674Y-0038405*
X0057663Y-0038442*
X0057645Y-0038476*
X005762Y-0038506*
X005759Y-0038531*
X0057556Y-0038549*
X0057519Y-003856*
X005748Y-0038564*
X0054232*
X0054194Y-003856*
X0054157Y-0038549*
X0054122Y-0038531*
X0054092Y-0038506*
X0054068Y-0038476*
X005405Y-0038442*
X0054038Y-0038405*
X0054035Y-0038366*
Y-0036989*
X0050295*
X0050257Y-0036985*
X005022Y-0036974*
X0050185Y-0036956*
X0050155Y-0036931*
X0050131Y-0036901*
X0050112Y-0036867*
X0050101Y-003683*
X0050098Y-0036791*
Y-0033937*
X0050101Y-0033898*
X0050112Y-0033861*
X0050131Y-0033827*
X0050155Y-0033797*
X0050185Y-0033773*
X005022Y-0033754*
X0050257Y-0033743*
X0050295Y-0033739*
X0052263*
Y-0031674*
X0050295*
X0050257Y-003167*
X005022Y-0031659*
X0050185Y-0031641*
X0050155Y-0031616*
X0050131Y-0031586*
X0050112Y-0031552*
X0050101Y-0031515*
X0050098Y-0031477*
Y-0028524*
X0050101Y-0028485*
X0050112Y-0028448*
X0050131Y-0028414*
X0050155Y-0028384*
X0050185Y-0028359*
X005022Y-0028341*
X0050257Y-002833*
X0050295Y-0028326*
X0067028*
X0067066Y-002833*
G37*
G36*
Y-0016912D02*
X0067103Y-0016924D01*
X0067137Y-0016942*
X0067167Y-0016966*
X0067192Y-0016996*
X006721Y-0017031*
X0067222Y-0017068*
X0067225Y-0017106*
Y-0018681*
Y-0026949*
X0067222Y-0026987*
X006721Y-0027025*
X0067192Y-0027059*
X0067167Y-0027089*
X0067137Y-0027113*
X0067103Y-0027132*
X0067066Y-0027143*
X0067028Y-0027147*
X0050295*
X0050257Y-0027143*
X005022Y-0027132*
X0050185Y-0027113*
X0050155Y-0027089*
X0050131Y-0027059*
X0050112Y-0027025*
X0050101Y-0026987*
X0050098Y-0026949*
Y-0023996*
X0050101Y-0023958*
X0050112Y-0023921*
X0050131Y-0023886*
X0050155Y-0023856*
X0050185Y-0023832*
X005022Y-0023813*
X0050257Y-0023802*
X0050295Y-0023798*
X0052263*
Y-0021733*
X0050295*
X0050257Y-002173*
X005022Y-0021718*
X0050185Y-00217*
X0050155Y-0021675*
X0050131Y-0021645*
X0050112Y-0021611*
X0050101Y-0021574*
X0050098Y-0021535*
Y-0018681*
X0050101Y-0018643*
X0050112Y-0018606*
X0050131Y-0018571*
X0050155Y-0018541*
X0050185Y-0018517*
X005022Y-0018498*
X0050257Y-0018487*
X0050295Y-0018483*
X0054035*
Y-0017106*
X0054038Y-0017068*
X005405Y-0017031*
X0054068Y-0016996*
X0054092Y-0016966*
X0054122Y-0016942*
X0054157Y-0016924*
X0054194Y-0016912*
X0054232Y-0016909*
X005748*
X0057519Y-0016912*
X0057556Y-0016924*
X005759Y-0016942*
X005762Y-0016966*
X0057645Y-0016996*
X0057663Y-0017031*
X0057674Y-0017068*
X0057678Y-0017106*
Y-0018483*
X006368*
Y-0017106*
X0063684Y-0017068*
X0063695Y-0017031*
X0063714Y-0016996*
X0063738Y-0016966*
X0063768Y-0016942*
X0063802Y-0016924*
X0063839Y-0016912*
X0063878Y-0016909*
X0067028*
X0067066Y-0016912*
G37*
G36*
X0067165Y-0040554D02*
X0067202Y-0040565D01*
X0067236Y-0040584*
X0067266Y-0040608*
X006729Y-0040638*
X0067309Y-0040672*
X006732Y-0040709*
X0067324Y-0040748*
Y-0042323*
Y-0050591*
X006732Y-0050629*
X0067309Y-0050666*
X006729Y-00507*
X0067266Y-005073*
X0067236Y-0050755*
X0067202Y-0050773*
X0067165Y-0050785*
X0067126Y-0050788*
X0050394*
X0050355Y-0050785*
X0050318Y-0050773*
X0050284Y-0050755*
X0050254Y-005073*
X0050229Y-00507*
X0050211Y-0050666*
X00502Y-0050629*
X0050196Y-0050591*
Y-0047638*
X00502Y-0047599*
X0050211Y-0047562*
X0050229Y-0047528*
X0050254Y-0047498*
X0050284Y-0047473*
X0050318Y-0047455*
X0050355Y-0047444*
X0050394Y-004744*
X0052361*
Y-0045375*
X0050394*
X0050355Y-0045371*
X0050318Y-004536*
X0050284Y-0045342*
X0050254Y-0045317*
X0050229Y-0045287*
X0050211Y-0045253*
X00502Y-0045216*
X0050196Y-0045177*
Y-0042323*
X00502Y-0042284*
X0050211Y-0042247*
X0050229Y-0042213*
X0050254Y-0042183*
X0050284Y-0042158*
X0050318Y-004214*
X0050355Y-0042129*
X0050394Y-0042125*
X0054133*
Y-0040748*
X0054137Y-0040709*
X0054148Y-0040672*
X0054166Y-0040638*
X0054191Y-0040608*
X0054221Y-0040584*
X0054255Y-0040565*
X0054292Y-0040554*
X0054331Y-004055*
X0057579*
X0057617Y-0040554*
X0057654Y-0040565*
X0057689Y-0040584*
X0057719Y-0040608*
X0057743Y-0040638*
X0057762Y-0040672*
X0057773Y-0040709*
X0057776Y-0040748*
Y-0042125*
X0063779*
Y-0040748*
X0063782Y-0040709*
X0063794Y-0040672*
X0063812Y-0040638*
X0063836Y-0040608*
X0063867Y-0040584*
X0063901Y-0040565*
X0063938Y-0040554*
X0063976Y-004055*
X0067126*
X0067165Y-0040554*
G37*
G36*
Y-0064176D02*
X0067202Y-0064187D01*
X0067236Y-0064206*
X0067266Y-006423*
X006729Y-006426*
X0067309Y-0064294*
X006732Y-0064332*
X0067324Y-006437*
Y-0065945*
Y-0074213*
X006732Y-0074251*
X0067309Y-0074288*
X006729Y-0074322*
X0067266Y-0074353*
X0067236Y-0074377*
X0067202Y-0074395*
X0067165Y-0074407*
X0067126Y-007441*
X0050394*
X0050355Y-0074407*
X0050318Y-0074395*
X0050284Y-0074377*
X0050254Y-0074353*
X0050229Y-0074322*
X0050211Y-0074288*
X00502Y-0074251*
X0050196Y-0074213*
Y-007126*
X00502Y-0071221*
X0050211Y-0071184*
X0050229Y-007115*
X0050254Y-007112*
X0050284Y-0071095*
X0050318Y-0071077*
X0050355Y-0071066*
X0050394Y-0071062*
X0052361*
Y-0068997*
X0050394*
X0050355Y-0068993*
X0050318Y-0068982*
X0050284Y-0068964*
X0050254Y-0068939*
X0050229Y-0068909*
X0050211Y-0068875*
X00502Y-0068838*
X0050196Y-0068799*
Y-0065945*
X00502Y-0065906*
X0050211Y-0065869*
X0050229Y-0065835*
X0050254Y-0065805*
X0050284Y-006578*
X0050318Y-0065762*
X0050355Y-0065751*
X0050394Y-0065747*
X0054133*
Y-006437*
X0054137Y-0064332*
X0054148Y-0064294*
X0054166Y-006426*
X0054191Y-006423*
X0054221Y-0064206*
X0054255Y-0064187*
X0054292Y-0064176*
X0054331Y-0064172*
X0057579*
X0057617Y-0064176*
X0057654Y-0064187*
X0057689Y-0064206*
X0057719Y-006423*
X0057743Y-006426*
X0057762Y-0064294*
X0057773Y-0064332*
X0057776Y-006437*
Y-0065747*
X0063779*
Y-006437*
X0063782Y-0064332*
X0063794Y-0064294*
X0063812Y-006426*
X0063836Y-006423*
X0063867Y-0064206*
X0063901Y-0064187*
X0063938Y-0064176*
X0063976Y-0064172*
X0067126*
X0067165Y-0064176*
G37*
G36*
Y-0051971D02*
X0067202Y-0051983D01*
X0067236Y-0052001*
X0067266Y-0052026*
X006729Y-0052056*
X0067309Y-005209*
X006732Y-0052127*
X0067324Y-0052165*
Y-0060433*
Y-0062008*
X006732Y-0062046*
X0067309Y-0062084*
X006729Y-0062118*
X0067266Y-0062148*
X0067236Y-0062172*
X0067202Y-0062191*
X0067165Y-0062202*
X0067126Y-0062206*
X0063976*
X0063938Y-0062202*
X0063901Y-0062191*
X0063867Y-0062172*
X0063836Y-0062148*
X0063812Y-0062118*
X0063794Y-0062084*
X0063782Y-0062046*
X0063779Y-0062008*
Y-0060631*
X0057776*
Y-0062008*
X0057773Y-0062046*
X0057762Y-0062084*
X0057743Y-0062118*
X0057719Y-0062148*
X0057689Y-0062172*
X0057654Y-0062191*
X0057617Y-0062202*
X0057579Y-0062206*
X0054331*
X0054292Y-0062202*
X0054255Y-0062191*
X0054221Y-0062172*
X0054191Y-0062148*
X0054166Y-0062118*
X0054148Y-0062084*
X0054137Y-0062046*
X0054133Y-0062008*
Y-0060631*
X0050394*
X0050355Y-0060627*
X0050318Y-0060616*
X0050284Y-0060597*
X0050254Y-0060573*
X0050229Y-0060543*
X0050211Y-0060509*
X00502Y-0060472*
X0050196Y-0060433*
Y-0057579*
X00502Y-005754*
X0050211Y-0057503*
X0050229Y-0057469*
X0050254Y-0057439*
X0050284Y-0057414*
X0050318Y-0057396*
X0050355Y-0057385*
X0050394Y-0057381*
X0052361*
Y-0055316*
X0050394*
X0050355Y-0055312*
X0050318Y-0055301*
X0050284Y-0055283*
X0050254Y-0055258*
X0050229Y-0055228*
X0050211Y-0055194*
X00502Y-0055157*
X0050196Y-0055118*
Y-0052165*
X00502Y-0052127*
X0050211Y-005209*
X0050229Y-0052056*
X0050254Y-0052026*
X0050284Y-0052001*
X0050318Y-0051983*
X0050355Y-0051971*
X0050394Y-0051968*
X0067126*
X0067165Y-0051971*
G37*
G54D12*
X0060532Y-0032461D03*
Y-0023012D03*
X006063Y-0046654D03*
Y-0056102D03*
Y-0079724D03*
Y-0070276D03*
Y-0094095D03*
Y-0103543D03*
X0060433Y-0127362D03*
Y-0117913D03*
G54D28*
X0254823Y-0020177D03*
Y-0031004D03*
G54D63*
X0362362Y-0141961D03*
Y-0029961D03*
G54D64*
X0348862Y-0148961D03*
Y-0022961D03*
G54D65*
X0326362Y-0143961D03*
Y-0134961D03*
Y-0098961D03*
Y-0089961D03*
Y-0081961D03*
Y-0072961D03*
Y-0036961D03*
Y-0027961D03*
X0352362Y-0110961D03*
Y-0118961D03*
Y-0126961D03*
X0345362Y-0106961D03*
Y-0114961D03*
Y-0122961D03*
Y-0130961D03*
X0352362Y-0048961D03*
Y-0056961D03*
Y-0064961D03*
X0345362Y-0044961D03*
Y-0052961D03*
Y-0060961D03*
Y-0068961D03*
G54D66*
X0352362Y-0102961D03*
Y-0040961D03*
G54D79*
X0263976Y-0220866D03*
X0258071D03*
X0286024Y-0215354D03*
X0291929D03*
X0286024Y-0220866D03*
X0291929D03*
X0149016Y-0088829D03*
X014311D03*
X0144095Y-0057874D03*
X015D03*
X0102756Y-0204921D03*
X009685D03*
X0142913Y-0080905D03*
X0148819D03*
X0149016Y-0096949D03*
X014311D03*
Y-0113189D03*
X0149016D03*
X0130118Y-0107677D03*
X0136024D03*
X0102756Y-0129134D03*
X009685D03*
X0166732Y-0135236D03*
X0172638D03*
X0193504Y-0136417D03*
X0199409D03*
X0213779Y-013563D03*
X0219685D03*
X0228937D03*
X0234842D03*
X027874Y-0192913D03*
X0284646D03*
X0240551Y-0179552D03*
X0246457D03*
X0240551Y-0172478D03*
X0246457D03*
X0240551Y-0165404D03*
X0246457D03*
X0217323Y-0031496D03*
X0211417D03*
X0197835Y-003189D03*
X0191929D03*
X0156299Y-003563D03*
X0162205D03*
X0194685Y-0191929D03*
X0200591D03*
X0102362Y-0186221D03*
X0096457D03*
X0102756Y-0167323D03*
X009685D03*
X0102756Y-0148228D03*
X009685D03*
G54D80*
X0279919Y-0212205D03*
Y-0219685D03*
X0271258D03*
Y-0212205D03*
Y-0215945D03*
G54D81*
X0052362Y-0025473D03*
X0052461Y-0049114D03*
Y-0072736D03*
Y-0096555D03*
X0052264Y-0120374D03*
G54D82*
X0052264Y-0020059D03*
X0052362Y-0043701D03*
Y-0067323D03*
Y-0091142D03*
X0052165Y-0114961D03*
G54D83*
X0065453Y-0019075D03*
X0065495Y-0036336D03*
X0065594Y-0059978D03*
X0065551Y-0042717D03*
Y-0066339D03*
X0065594Y-00836D03*
Y-0107419D03*
X0065551Y-0090158D03*
X0065354Y-0113976D03*
X0065397Y-0131238D03*
G54D84*
X0055807Y-0019075D03*
X0055895Y-0036336D03*
X0055994Y-0059978D03*
X0055905Y-0042717D03*
Y-0066339D03*
X0055994Y-00836D03*
Y-0107419D03*
X0055905Y-0090158D03*
X0055709Y-0113976D03*
X0055797Y-0131238D03*
G54D85*
X0052295Y-0030036D03*
X0052264Y-0035364D03*
X0052362Y-0059006D03*
X0052394Y-0053678D03*
Y-00773D03*
X0052362Y-0082628D03*
Y-0106447D03*
X0052394Y-0101119D03*
X0052197Y-0124938D03*
X0052165Y-0130266D03*
G54D86*
X0073819Y-0035236D03*
Y-0030236D03*
Y-0020236D03*
Y-0025236D03*
X0073917Y-0048878D03*
Y-0043878D03*
Y-0053878D03*
Y-0058878D03*
Y-00825D03*
Y-00775D03*
Y-00675D03*
Y-00725D03*
Y-0096319D03*
Y-0091319D03*
Y-0101319D03*
Y-0106319D03*
X0073721Y-0130138D03*
Y-0125138D03*
Y-0115138D03*
Y-0120138D03*
G54D87*
X0136221Y-0080315D03*
Y-0094882D03*
X0127559D03*
Y-0080315D03*
X0238779Y-0143701D03*
Y-0158268D03*
X0230118D03*
Y-0143701D03*
G54D88*
X0203543Y-0213602D03*
Y-0208602D03*
Y-0203602D03*
Y-0198602D03*
X0184646Y-0213602D03*
Y-0208602D03*
Y-0203602D03*
Y-0198602D03*
G54D89*
X0114468Y-0110827D03*
X0089862D03*
X0114468Y-0120827D03*
X0089862D03*
X0114468Y-0044242D03*
X0089862D03*
X0114468Y-0054242D03*
X0089862D03*
X0114468Y-0022047D03*
X0089862D03*
X0114468Y-0032047D03*
X0089862D03*
X0114468Y-0088632D03*
X0089862D03*
X0114468Y-0098632D03*
X0089862D03*
X0114468Y-0066437D03*
X0089862D03*
X0114468Y-0076437D03*
X0089862D03*
G54D90*
X0067669Y-0217087D03*
X0045669D03*
X0067669Y-0207087D03*
X0045669D03*
X0118504Y-0216614D03*
X0093504D03*
X0118504Y-0211614D03*
X0093504D03*
X0067669Y-0148386D03*
X0045669D03*
X0067669Y-0138386D03*
X0045669D03*
X0067669Y-0165561D03*
X0045669D03*
X0067669Y-0155561D03*
X0045669D03*
X0067669Y-0182736D03*
X0045669D03*
X0067669Y-0172736D03*
X0045669D03*
X0067669Y-0199911D03*
X0045669D03*
X0067669Y-0189911D03*
X0045669D03*
X0118504Y-0141142D03*
X0093504D03*
X0118504Y-0136142D03*
X0093504D03*
X0118504Y-0198228D03*
X0093504D03*
X0118504Y-0193228D03*
X0093504D03*
X0118504Y-0179213D03*
X0093504D03*
X0118504Y-0174213D03*
X0093504D03*
X0118504Y-0160039D03*
X0093504D03*
X0118504Y-0155039D03*
X0093504D03*
G54D91*
X0174213Y-0212402D03*
X0162402D03*
G54D92*
X0138524Y-0214854D03*
X0143524D03*
X0148524D03*
X0153524D03*
X0138524Y-0195562D03*
X0143524D03*
X0148524D03*
X0153524D03*
G54D93*
X0222441Y-0197441D03*
Y-0212598D03*
G54D94*
X0311024Y-0201575D03*
Y-0189764D03*
X0300197Y-0189961D03*
Y-0201772D03*
G54D95*
X0152563Y-0182283D03*
X0139563D03*
G54D96*
X0300252Y-0104537D03*
Y-0097037D03*
X0309252Y-0100787D03*
G54D97*
X0263779Y-0040551D03*
X0307874D03*
G54D98*
X0258366Y-0158465D03*
Y-0160433D03*
Y-0162401D03*
Y-016437D03*
Y-0166339D03*
Y-0168307D03*
Y-0170276D03*
Y-0172244D03*
Y-0174213D03*
Y-0176181D03*
Y-017815D03*
Y-0180118D03*
X0290059D03*
Y-017815D03*
Y-0176181D03*
Y-0174213D03*
Y-0172244D03*
Y-0170276D03*
Y-0168307D03*
Y-0166339D03*
Y-016437D03*
Y-0162401D03*
Y-0160433D03*
Y-0158465D03*
G54D99*
X0263386Y-0185138D03*
X0265354D03*
X0267323D03*
X0269291D03*
X027126D03*
X0273228D03*
X0275197D03*
X0277165D03*
X0279134D03*
X0281102D03*
X0283071D03*
X0285039D03*
Y-0153445D03*
X0283071D03*
X0281102D03*
X0279134D03*
X0277165D03*
X0275197D03*
X0273228D03*
X027126D03*
X0269291D03*
X0267323D03*
X0265354D03*
X0263386D03*
G54D100*
X0167913Y-0042126D03*
X0169882D03*
X017185D03*
X0173819D03*
X0175787D03*
X0177756D03*
X0179724D03*
X0181693D03*
X0183661D03*
X018563D03*
X0187598D03*
X0189567D03*
X0191535D03*
X0193504D03*
X0195473D03*
X0197441D03*
X0199409D03*
X0201378D03*
X0203346D03*
X0205315D03*
X0207283D03*
X0209252D03*
X0211221D03*
X0213189D03*
X0215158D03*
X0217126D03*
X0219094D03*
X0221063D03*
X0223031D03*
X0225D03*
X0226969D03*
X0228937D03*
X0230906D03*
X0232874D03*
X0234842D03*
X0236811D03*
Y-0125591D03*
X0234842D03*
X0232874D03*
X0230906D03*
X0228937D03*
X0226969D03*
X0225D03*
X0223031D03*
X0221063D03*
X0219094D03*
X0217126D03*
X0215158D03*
X0213189D03*
X0211221D03*
X0209252D03*
X0207283D03*
X0205315D03*
X0203346D03*
X0201378D03*
X0199409D03*
X0197441D03*
X0195473D03*
X0193504D03*
X0191535D03*
X0189567D03*
X0187598D03*
X018563D03*
X0183661D03*
X0181693D03*
X0179724D03*
X0177756D03*
X0175787D03*
X0173819D03*
X017185D03*
X0169882D03*
X0167913D03*
G54D101*
X0244094Y-0049409D03*
Y-0051378D03*
Y-0053346D03*
Y-0055315D03*
Y-0057284D03*
Y-0059252D03*
Y-0061221D03*
Y-0063189D03*
Y-0065158D03*
Y-0067126D03*
Y-0069095D03*
Y-0071063D03*
Y-0073032D03*
Y-0075D03*
Y-0076968D03*
Y-0078937D03*
Y-0080905D03*
Y-0082874D03*
Y-0084842D03*
Y-0086811D03*
Y-0088779D03*
Y-0090748D03*
Y-0092716D03*
Y-0094685D03*
Y-0096653D03*
Y-0098622D03*
Y-0100591D03*
Y-0102559D03*
Y-0104527D03*
Y-0106496D03*
Y-0108465D03*
Y-0110433D03*
Y-0112402D03*
Y-011437D03*
Y-0116339D03*
Y-0118307D03*
X016063D03*
Y-0116339D03*
Y-011437D03*
Y-0112402D03*
Y-0110433D03*
Y-0108465D03*
Y-0106496D03*
Y-0104527D03*
Y-0102559D03*
Y-0100591D03*
Y-0098622D03*
Y-0096653D03*
Y-0094685D03*
Y-0092716D03*
Y-0090748D03*
Y-0088779D03*
Y-0086811D03*
Y-0084842D03*
Y-0082874D03*
Y-0080905D03*
Y-0078937D03*
Y-0076968D03*
Y-0075D03*
Y-0073032D03*
Y-0071063D03*
Y-0069095D03*
Y-0067126D03*
Y-0065158D03*
Y-0063189D03*
Y-0061221D03*
Y-0059252D03*
Y-0057284D03*
Y-0055315D03*
Y-0053346D03*
Y-0051378D03*
Y-0049409D03*
G54D102*
X0208012Y-0160846D03*
Y-0155847D03*
Y-0150847D03*
Y-0145846D03*
X0177421Y-0160846D03*
Y-0155847D03*
Y-0150847D03*
Y-0145846D03*
G54D103*
X0192717Y-0153347D03*
G54D104*
X0314764Y-0212205D03*
X0301378D03*
X0254134Y-0212795D03*
X0240748D03*
G54D105*
X0307283Y-0080905D03*
X0301378D03*
X011437Y-0186221D03*
X0108465D03*
X0149409Y-0105069D03*
X0143504D03*
X0114764Y-0129134D03*
X0108858D03*
X0114764Y-0204921D03*
X0108858D03*
X0301378Y-0073425D03*
X0307283D03*
X0301575Y-0089173D03*
X030748D03*
X0301772Y-0112008D03*
X0307677D03*
Y-0119685D03*
X0301772D03*
X0301969Y-0144095D03*
X0307874D03*
X0301772Y-0170079D03*
X0307677D03*
X0292323Y-0199409D03*
X0286417D03*
X026811Y-0193307D03*
X0262205D03*
X0246063Y-0193701D03*
X0240158D03*
X0246063Y-0186627D03*
X0240158D03*
X0266142Y-0145472D03*
X0272047D03*
X0273425Y-007441D03*
X026752D03*
Y-0083465D03*
X0273425D03*
X0188583Y-0185827D03*
X0182677D03*
X0188583Y-0191929D03*
X0182677D03*
X0145473Y-0172244D03*
X0139567D03*
X0114764Y-016752D03*
X0108858D03*
X0114764Y-0148031D03*
X0108858D03*
G54D106*
X0081299Y-0024803D03*
Y-0018898D03*
Y-0036614D03*
Y-0030709D03*
Y-0048425D03*
Y-004252D03*
Y-0060236D03*
Y-0054331D03*
X0076772Y-0214961D03*
Y-0209055D03*
X0084055Y-0205906D03*
Y-0211811D03*
X0076772Y-0197736D03*
Y-0191831D03*
X0084055Y-0187402D03*
Y-0193307D03*
X0121063Y-0093209D03*
Y-0099114D03*
Y-0114764D03*
Y-0120669D03*
X0127362Y-0135827D03*
Y-0141732D03*
X0081299Y-0072047D03*
Y-0066142D03*
Y-0083858D03*
Y-0077953D03*
Y-0095669D03*
Y-0089764D03*
Y-010748D03*
Y-0101575D03*
Y-0119291D03*
Y-0113386D03*
Y-0131102D03*
Y-0125197D03*
X0076772Y-0146457D03*
Y-0140551D03*
X0084449Y-014252D03*
Y-0136614D03*
Y-0151181D03*
Y-0157087D03*
X0076772Y-0163287D03*
Y-0157382D03*
X0084055Y-0168701D03*
Y-0174606D03*
X0076772Y-0180512D03*
Y-0174606D03*
X0127362Y-0173721D03*
Y-0179626D03*
Y-0192667D03*
Y-0198573D03*
Y-021752D03*
Y-0211614D03*
X021437Y-0155118D03*
Y-0161024D03*
X0245669Y-0147047D03*
Y-0152953D03*
X0301378Y-0155512D03*
Y-0161417D03*
X0308858Y-0175787D03*
Y-0181693D03*
X0300394Y-0175984D03*
Y-018189D03*
X0291535Y-019311D03*
Y-0187205D03*
X0255118Y-0188386D03*
Y-0194291D03*
X0168701Y-0030512D03*
Y-0024606D03*
X0127362Y-0154774D03*
Y-0160679D03*
X0121063Y-0070079D03*
Y-0075984D03*
Y-0060039D03*
Y-0054134D03*
X0121653Y-0038386D03*
Y-003248D03*
G54D107*
X0167717Y-0173819D03*
Y-0198228D03*
G54D108*
X0169882Y-0154528D03*
Y-0160433D03*
X0292323Y-0145866D03*
Y-0151772D03*
X0258465Y-0143701D03*
Y-0149606D03*
X0254331Y-0100591D03*
Y-0094685D03*
X0253937Y-0078937D03*
Y-0073032D03*
X0255118Y-004685D03*
Y-0052756D03*
X0245472Y-0037598D03*
Y-0043504D03*
X0175197Y-0024606D03*
Y-0030512D03*
G54D109*
X0289764Y-0109862D03*
Y-0104862D03*
Y-0099862D03*
Y-0094862D03*
X0270472Y-0109862D03*
Y-0104862D03*
Y-0099862D03*
Y-0094862D03*
G54D110*
X0290167Y-008341D03*
X0282667D03*
X0286417Y-007441D03*
G54D111*
X0197835Y-0177559D03*
X0222244D03*
G54D112*
X0186969Y-0021654D03*
X0257953Y-0130512D03*
G54D113*
X0196968Y-0021654D03*
X0206968D03*
X0216968D03*
X0226969D03*
X0267953Y-0130512D03*
X0277953D03*
X0287953D03*
X0297953D03*
G54D114*
X0326811Y-0186008D03*
G54D115*
X0326811Y-019585D03*
X0334685D03*
Y-0186008D03*
G54D116*
X0345354Y-021463D03*
Y-0167228D03*
G54D117*
X0029528Y-0042323D03*
X0019685D03*
Y-0111221D03*
X0029528D03*
Y-0097441D03*
X0019685D03*
Y-0056102D03*
X0029528D03*
X0019685Y-0069882D03*
X0029528D03*
X0019685Y-0083661D03*
X0029528D03*
Y-0152559D03*
X0019685D03*
X0029528Y-0138779D03*
X0019685D03*
X0029528Y-0125D03*
X0019685D03*
Y-0166339D03*
X0029528D03*
Y-0180118D03*
Y-0193898D03*
X0019685Y-0180118D03*
Y-0193898D03*
G54D118*
X0188779Y-0155315D03*
X0192717D03*
X0196653D03*
X0188779Y-0159252D03*
X0196653D03*
X0192717D03*
X0196653Y-0151378D03*
X0192717D03*
X0188779D03*
X0196653Y-0147441D03*
X0192717D03*
X0188779D03*
M02*